{
  "title" : "",
  "description" : "",
  "author" : "",
  "width" : 1920.0,
  "height" : 1080.0,
  "version" : "0.5",
  "editRate" : 30,
  "authoringClientName" :  {
    "name" : "Camtasia Studio",
    "platform" : "Windows",
    "version" : "9.0"
  },
  "sourceBin" : [
    {
      "id" : 1,
      "src" : "G:\\Data-Image-Phone\\background\\1.png",
      "rect" : [0, 0, 1450, 801],
      "lastMod" : "20210923T044609",
      "sourceTracks" : [
        {
          "range" : [0, 1],
          "type" : 1,
          "editRate" : 10000000,
          "trackRect" : [0, 0, 1450, 801],
          "sampleRate" : 0,
          "bitDepth" : 32,
          "numChannels" : 0,
          "metaData" : ""
        }
      ]
    },
    {
      "id" : 2,
      "src" : "G:\\Data-Image-Phone\\background\\vs.png",
      "rect" : [0, 0, 79, 107],
      "lastMod" : "20210923T084654",
      "sourceTracks" : [
        {
          "range" : [0, 1],
          "type" : 1,
          "editRate" : 10000000,
          "trackRect" : [0, 0, 79, 107],
          "sampleRate" : 0,
          "bitDepth" : 32,
          "numChannels" : 0,
          "metaData" : ""
        }
      ]
    },
    {
      "id" : 3,
      "src" : "C:\\Users\\HungBa\\Documents\\Camtasia Studio\\Rec 09-27-21.trec",
      "rect" : [0, 0, 1920, 1080],
      "lastMod" : "20210927T065608",
      "sourceTracks" : [
        {
          "range" : [0, 5124],
          "type" : 0,
          "editRate" : 30,
          "trackRect" : [0, 0, 1920, 1080],
          "sampleRate" : 26,
          "bitDepth" : 0,
          "numChannels" : 0,
          "metaData" : "Rec 09-27-21.trec;"
        },
        {
          "range" : [0, 7534592],
          "type" : 2,
          "editRate" : 44100,
          "trackRect" : [0, 0, 0, 0],
          "sampleRate" : 44100,
          "bitDepth" : 16,
          "numChannels" : 2,
          "metaData" : ""
        }
      ]
    },
    {
      "id" : 4,
      "src" : "C:\\Users\\HungBa\\Documents\\Camtasia Studio\\Rec 09-27-21 1.trec",
      "rect" : [0, 0, 1920, 1080],
      "lastMod" : "20210927T065958",
      "sourceTracks" : [
        {
          "range" : [0, 1967],
          "type" : 0,
          "editRate" : 30,
          "trackRect" : [0, 0, 1920, 1080],
          "sampleRate" : 26,
          "bitDepth" : 0,
          "numChannels" : 0,
          "metaData" : "Rec 09-27-21 1.trec;"
        },
        {
          "range" : [0, 2890752],
          "type" : 2,
          "editRate" : 44100,
          "trackRect" : [0, 0, 0, 0],
          "sampleRate" : 44100,
          "bitDepth" : 16,
          "numChannels" : 2,
          "metaData" : ""
        }
      ]
    },
    {
      "id" : 5,
      "src" : "C:\\Users\\HungBa\\Documents\\Camtasia Studio\\Rec 09-27-21 2.trec",
      "rect" : [0, 0, 1920, 1080],
      "lastMod" : "20210927T070539",
      "sourceTracks" : [
        {
          "range" : [0, 4444],
          "type" : 0,
          "editRate" : 30,
          "trackRect" : [0, 0, 1920, 1080],
          "sampleRate" : 26,
          "bitDepth" : 0,
          "numChannels" : 0,
          "metaData" : "Rec 09-27-21 2.trec;"
        },
        {
          "range" : [0, 6533120],
          "type" : 2,
          "editRate" : 44100,
          "trackRect" : [0, 0, 0, 0],
          "sampleRate" : 44100,
          "bitDepth" : 16,
          "numChannels" : 2,
          "metaData" : ""
        }
      ]
    },
    {
      "id" : 6,
      "src" : "C:\\Users\\HungBa\\Documents\\Camtasia Studio\\Rec 09-27-21 4.trec",
      "rect" : [0, 0, 1920, 1080],
      "lastMod" : "20210927T072109",
      "sourceTracks" : [
        {
          "range" : [0, 6396],
          "type" : 0,
          "editRate" : 30,
          "trackRect" : [0, 0, 1920, 1080],
          "sampleRate" : 28,
          "bitDepth" : 0,
          "numChannels" : 0,
          "metaData" : "Rec 09-27-21 4.trec;"
        },
        {
          "range" : [0, 9402368],
          "type" : 2,
          "editRate" : 44100,
          "trackRect" : [0, 0, 0, 0],
          "sampleRate" : 44100,
          "bitDepth" : 16,
          "numChannels" : 2,
          "metaData" : ""
        }
      ]
    },
    {
      "id" : 7,
      "src" : "G:\\Data-Image-Phone\\iphone13-pro-max-iphone-13-pro\\13Pro-max.png",
      "rect" : [0, 0, 309, 395],
      "lastMod" : "20210928T093728",
      "sourceTracks" : [
        {
          "range" : [0, 1],
          "type" : 1,
          "editRate" : 10000000,
          "trackRect" : [0, 0, 309, 395],
          "sampleRate" : 0,
          "bitDepth" : 32,
          "numChannels" : 0,
          "metaData" : ""
        }
      ]
    },
    {
      "id" : 8,
      "src" : "G:\\Data-Image-Phone\\iphone-13-pro-max-iphone-11-pro-max\\iphone-11-pro-max-vang-didongviet_7.png",
      "rect" : [0, 0, 600, 600],
      "lastMod" : "20210930T072550",
      "sourceTracks" : [
        {
          "range" : [0, 1],
          "type" : 1,
          "editRate" : 10000000,
          "trackRect" : [0, 0, 600, 600],
          "sampleRate" : 0,
          "bitDepth" : 32,
          "numChannels" : 0,
          "metaData" : ""
        }
      ]
    },
    {
      "id" : 9,
      "src" : "G:\\Data-Image-Phone\\iphone-13-pro-max-iphone-11-pro-max\\file_bar1.png",
      "rect" : [0, 0, 1846, 125],
      "lastMod" : "20210930T081228",
      "sourceTracks" : [
        {
          "range" : [0, 1],
          "type" : 1,
          "editRate" : 10000000,
          "trackRect" : [0, 0, 1846, 125],
          "sampleRate" : 0,
          "bitDepth" : 32,
          "numChannels" : 0,
          "metaData" : ""
        }
      ]
    }
  ],
  "timeline" : {
    "id" : 10,
    "sceneTrack" : {
      "scenes" : [
        {
          "duration" : 406.166666666667,
          "title" : "",
          "type" : "",
          "csml" : {
            "tracks" : [
              {
                "trackIndex" : 0,
                "medias" : [
                  {
                    "id" : 11,
                    "_type" : "IMFile",
                    "src" : 1,
                    "trackNumber" : 0,
                    "trimStartSum" : 0,
                    "attributes" : {
                      "ident" : "1"
                    },
                    "parameters" : {
                      "translation0" : -1.08929754105702e-10,
                      "translation1" : 3.15862068976791,
                      "scale0" : 1.4240130870893,
                      "scale1" : 1.4240130870893
                    },
                    "effects" : [

                    ],
                    "start" : 0,
                    "duration" : 12185,
                    "mediaStart" : 0,
                    "mediaDuration" : 1,
                    "scalar" : 1,
                    "metadata" : {
                      "WinSubProjectDisplayName" : "",
                      "clipSpeedAttribute" : false,
                      "default-scale0" : 1.0,
                      "default-scale1" : 1.0,
                      "default-translation0" : 0.0,
                      "default-translation1" : -0.5
                    },
                    "animationTracks" : {

                    }
                  }
                ]
              },
              {
                "trackIndex" : 1,
                "medias" : [
                  {
                    "id" : 12,
                    "_type" : "AMFile",
                    "src" : 3,
                    "trackNumber" : 1,
                    "attributes" : {
                      "ident" : "Rec 09-27-21",
                      "sampleRate" : 44100,
                      "bitDepth" : 16,
                      "gain" : 0.334503735066209,
                      "mixToMono" : false
                    },
                      "channelNumber" : "0,1",
                    "parameters" : {
                      "volume" : 0.989010989010989
                    },
                    "effects" : [

                    ],
                    "start" : 0,
                    "duration" : 4969,
                    "mediaStart" : 106,
                    "mediaDuration" : 4969,
                    "scalar" : 1,
                    "metadata" : {
                      "WinSubProjectDisplayName" : "",
                      "clipSpeedAttribute" : false
                    },
                    "animationTracks" : {

                    }
                  },
                  {
                    "id" : 13,
                    "_type" : "AMFile",
                    "src" : 6,
                    "trackNumber" : 1,
                    "attributes" : {
                      "ident" : "Rec 09-27-21 4",
                      "sampleRate" : 44100,
                      "bitDepth" : 16,
                      "gain" : 0.643777792478952,
                      "mixToMono" : false
                    },
                      "channelNumber" : "0,1",
                    "effects" : [

                    ],
                    "start" : 4969,
                    "duration" : 6325,
                    "mediaStart" : 44,
                    "mediaDuration" : 6325,
                    "scalar" : 1,
                    "metadata" : {
                      "WinSubProjectDisplayName" : "",
                      "clipSpeedAttribute" : false
                    },
                    "animationTracks" : {

                    }
                  },
                  {
                    "id" : 14,
                    "_type" : "AMFile",
                    "src" : 4,
                    "trackNumber" : 1,
                    "attributes" : {
                      "ident" : "Rec 09-27-21 1",
                      "sampleRate" : 44100,
                      "bitDepth" : 16,
                      "gain" : 1.0,
                      "mixToMono" : false
                    },
                      "channelNumber" : "0,1",
                    "effects" : [

                    ],
                    "start" : 11294,
                    "duration" : 891,
                    "mediaStart" : 73,
                    "mediaDuration" : 891,
                    "scalar" : 1,
                    "metadata" : {
                      "WinSubProjectDisplayName" : "",
                      "clipSpeedAttribute" : false
                    },
                    "animationTracks" : {

                    }
                  }
                ]
              },
              {
                "trackIndex" : 2,
                "medias" : [
                  {
                    "id" : 15,
                    "_type" : "Callout",
                    "def" : {
                      "kind" : "remix",
                      "shape" : "text-rectangle",
                      "style" : "basic",
                      "fill-color-blue" : 1.0,
                      "fill-color-green" : 1.0,
                      "fill-color-opacity" : 0.0,
                      "fill-color-red" : 1.0,
                      "height" : 568.0,
                      "stroke-color-blue" : 0.56078431372549,
                      "stroke-color-green" : 0.686274509803922,
                      "stroke-color-opacity" : 0.0,
                      "stroke-color-red" : 0.0196078431372549,
                      "stroke-width" : 0.0,
                      "tail-x" : -242.857142857026,
                      "tail-y" : 49.9999999999828,
                      "width" : 1702.5812807881,
                      "word-wrap" : 1.0,
                      "fill-style" : "solid",
                      "horizontal-alignment" : "center",
                      "stroke-style" : "solid",
                      "text" : "Thank for watching video, if you like video please like and subcribe chanel",
                      "vertical-alignment" : "center",
                      "font" : {
                        "color-blue" : 0.266666666666667,
                        "color-green" : 0.231372549019608,
                        "color-opacity" : 1.0,
                        "color-red" : 0.184313725490196,
                        "size" : 64.0,
                        "tracking" : 0.0,
                        "name" : "Montserrat",
                        "weight" : "Regular"
                      },
                      "textAttributes" : {
                        "type" : "textAttributeList",
                        "keyframes" : [
                          {
                            "time" : 0,
                            "value" : [{"name":"fontSize","rangeEnd":75,"rangeStart":0,"value":102,"valueType":"double"},{"name":"underline","rangeEnd":75,"rangeStart":0,"value":0,"valueType":"int"},{"name":"fgColor","rangeEnd":75,"rangeStart":0,"value":"(255,23,28,255)","valueType":"color"},{"name":"fontWeight","rangeEnd":75,"rangeStart":0,"value":700,"valueType":"int"},{"name":"fontName","rangeEnd":75,"rangeStart":0,"value":"Rockstone","valueType":"string"},{"name":"strikethrough","rangeEnd":75,"rangeStart":0,"value":0,"valueType":"int"},{"name":"fontItalic","rangeEnd":75,"rangeStart":0,"value":0,"valueType":"int"}],
                            "duration" : 0
                          }
                        ]
                      }
                    },
                    "attributes" : {
                      "autoRotateText" : true
                    },
                    "parameters" : {
                      "translation0" : 5.71428571421839,
                      "translation1" : 12.857142857174,
                      "opacity" : 0.908333333333333
                    },
                    "effects" : [
                        {
                          "effectName" : "DropShadow",
                          "category" : "categoryVisualEffects",
                          "parameters" : {
                            "angle" : 5.49778714378214,
                            "blur" : 10.0,
                            "color-alpha" : 1.0,
                            "color-blue" : 0.1216,
                            "color-green" : 0.1216,
                            "color-red" : 0.1216,
                            "enabled" : 1,
                            "offset" : 72.5,
                            "opacity" : 0.4
                          },
                          "metadata" : {
                            "default-dropshadow-offset" : 10.0
                          }
                        },
                        {
                          "_type" : "GenericBehaviorEffect",
                          "effectName" : "drifting",
                          "start" : 0,
                          "duration" : 171                        ,
                          "in" : {
                            "attributes" : {
                              "name" : "drifting",
                              "type" : 0,
                              "characterOrder" : 6,
                              "offsetBetweenCharacters" : "3/2",
                              "suggestedDurationPerCharacter" : "75/2",
                              "overlapProportion" : 0,
                              "movement" : 17,
                              "springDamping" : 5.0,
                              "springStiffness" : 50.0,
                              "bounceBounciness" : 0.45
                            },
                            "parameters" : {
                              "direction" : {
                                "type" : "int",
                                "valueBounds" : {
                                  "minValue" : 0,
                                  "maxValue" : 3,
                                  "defaultValue" : 3
                                },
                                "uiHints" : {
                                  "userInterfaceType" : 2,
                                  "unitType" : 0
                                },
                                "keyframes" : [
                                  {
                                    "time" : 0,
                                    "value" : 3,
                                    "duration" : 0
                                  }
                                ]
                              }
                            }
                          
                          },
                          "center" : {
                            "attributes" : {
                              "name" : "drifting",
                              "type" : 0,
                              "characterOrder" : 6,
                              "offsetBetweenCharacters" : 1,
                              "secondsPerLoop" : 4,
                              "numberOfLoops" : -1,
                              "delayBetweenLoops" : 0,
                              "offsetBetweenCharacters" : 1
                            },
                            "parameters" : {
                              "movement" : {
                                "type" : "int",
                                "valueBounds" : {
                                  "minValue" : 0,
                                  "maxValue" : 31,
                                  "defaultValue" : 17
                                },
                                "uiHints" : {
                                  "userInterfaceType" : 4,
                                  "unitType" : 0
                                },
                                "keyframes" : [
                                  {
                                    "time" : 0,
                                    "value" : 17,
                                    "duration" : 0
                                  }
                                ]
                              }
                            }
                          
                          },
                          "out" : {
                            "attributes" : {
                              "name" : "drifting",
                              "type" : 0,
                              "characterOrder" : 6,
                              "offsetBetweenCharacters" : 1,
                              "suggestedDurationPerCharacter" : 30,
                              "overlapProportion" : "23/60",
                              "movement" : 7,
                              "springDamping" : 5.0,
                              "springStiffness" : 50.0,
                              "bounceBounciness" : 0.45
                            },
                            "parameters" : {
                              "direction" : {
                                "type" : "int",
                                "valueBounds" : {
                                  "minValue" : 0,
                                  "maxValue" : 3,
                                  "defaultValue" : 1
                                },
                                "uiHints" : {
                                  "userInterfaceType" : 2,
                                  "unitType" : 0
                                },
                                "keyframes" : [
                                  {
                                    "time" : 0,
                                    "value" : 1,
                                    "duration" : 0
                                  }
                                ]
                              }
                            }
                          
                          }
                        },
                        {
                          "_type" : "GenericBehaviorEffect",
                          "effectName" : "jumpAndFall",
                          "start" : 0,
                          "duration" : 171                        ,
                          "in" : {
                            "attributes" : {
                              "name" : "bounceIn",
                              "type" : 0,
                              "characterOrder" : 6,
                              "offsetBetweenCharacters" : "5/2",
                              "suggestedDurationPerCharacter" : "45/2",
                              "overlapProportion" : "-1/5",
                              "movement" : 29,
                              "springDamping" : 5.0,
                              "springStiffness" : 50.0,
                              "bounceBounciness" : 0.4
                            },
                            "parameters" : {
                              "direction" : {
                                "type" : "int",
                                "valueBounds" : {
                                  "minValue" : 0,
                                  "maxValue" : 3,
                                  "defaultValue" : 1
                                },
                                "uiHints" : {
                                  "userInterfaceType" : 2,
                                  "unitType" : 0
                                },
                                "keyframes" : [
                                  {
                                    "time" : 0,
                                    "value" : 1,
                                    "duration" : 0
                                  }
                                ]
                              }
                            }
                          
                          },
                          "center" : {
                            "attributes" : {
                              "name" : "jump",
                              "type" : 0,
                              "characterOrder" : 6,
                              "offsetBetweenCharacters" : "12/5",
                              "secondsPerLoop" : 1,
                              "numberOfLoops" : -1,
                              "delayBetweenLoops" : 50,
                              "offsetBetweenCharacters" : "12/5"
                            },
                            "parameters" : {
                              "jump" : {
                                "type" : "double",
                                "defaultValue" : 60.0,
                                "valueBounds" : {
                                  "minValue" : 0.0,
                                  "maxValue" : 500.0,
                                  "defaultValue" : 60.0
                                },
                                "uiHints" : {
                                  "userInterfaceType" : 1,
                                  "unitType" : 0
                                }
                              }
                            }
                          
                          },
                          "out" : {
                            "attributes" : {
                              "name" : "drop",
                              "type" : 0,
                              "characterOrder" : 6,
                              "offsetBetweenCharacters" : "5/2",
                              "suggestedDurationPerCharacter" : 15,
                              "overlapProportion" : "1/5",
                              "movement" : 7,
                              "springDamping" : 5.0,
                              "springStiffness" : 50.0,
                              "bounceBounciness" : 0.45
                            },
                            "parameters" : {
                              "direction" : {
                                "type" : "int",
                                "valueBounds" : {
                                  "minValue" : 0,
                                  "maxValue" : 3,
                                  "defaultValue" : 3
                                },
                                "uiHints" : {
                                  "userInterfaceType" : 2,
                                  "unitType" : 0
                                },
                                "keyframes" : [
                                  {
                                    "time" : 0,
                                    "value" : 3,
                                    "duration" : 0
                                  }
                                ]
                              }
                            }
                          
                          }
                        }
                    ],
                    "start" : 0,
                    "duration" : 171,
                    "mediaStart" : 0,
                    "mediaDuration" : 171,
                    "scalar" : 1,
                    "metadata" : {
                      "WinSubProjectDisplayName" : "",
                      "clipSpeedAttribute" : false,
                      "default-HAlign" : "center",
                      "default-VAlign" : "center",
                      "default-fill-color-opacity" : 1.0,
                      "default-opacity" : 1.0,
                      "default-stroke-color-opacity" : 1.0,
                      "default-stroke-width" : 2.0,
                      "default-text-attributes" : "[{\"name\":\"fgColor\",\"rangeEnd\":3,\"rangeStart\":0,\"value\":\"(47,59,68,255)\",\"valueType\":\"color\"},{\"name\":\"fontName\",\"rangeEnd\":3,\"rangeStart\":0,\"value\":\"Montserrat\",\"valueType\":\"string\"},{\"name\":\"fontWeight\",\"rangeEnd\":3,\"rangeStart\":0,\"value\":400,\"valueType\":\"int\"},{\"name\":\"fontSize\",\"rangeEnd\":3,\"rangeStart\":0,\"value\":64,\"valueType\":\"double\"},{\"name\":\"underline\",\"rangeEnd\":3,\"rangeStart\":0,\"value\":0,\"valueType\":\"int\"}]",
                      "default-translation0" : 0.0,
                      "default-translation1" : 0.0
                    },
                    "animationTracks" : {

                    }
                  },
                  {
                    "id" : 16,
                    "_type" : "Callout",
                    "def" : {
                      "kind" : "remix",
                      "shape" : "text",
                      "style" : "basic",
                      "height" : 103.999999999877,
                      "width" : 453.999999999557,
                      "word-wrap" : 1.0,
                      "horizontal-alignment" : "center",
                      "text" : "Create by iTech Chanel,\r thank for watching\rplease like and subcribe",
                      "vertical-alignment" : "center",
                      "font" : {
                        "color-blue" : 1.0,
                        "color-green" : 1.0,
                        "color-red" : 1.0,
                        "size" : 96.0,
                        "tracking" : 0.0,
                        "name" : "Montserrat",
                        "weight" : "Regular"
                      },
                      "textAttributes" : {
                        "type" : "textAttributeList",
                        "keyframes" : [
                          {
                            "time" : 0,
                            "value" : [{"name":"strikethrough","rangeEnd":68,"rangeStart":0,"value":0,"valueType":"int"},{"name":"underline","rangeEnd":68,"rangeStart":0,"value":0,"valueType":"int"},{"name":"fontWeight","rangeEnd":68,"rangeStart":0,"value":400,"valueType":"int"},{"name":"fontSize","rangeEnd":68,"rangeStart":0,"value":27,"valueType":"double"},{"name":"fgColor","rangeEnd":68,"rangeStart":0,"value":"(106,166,154,255)","valueType":"color"},{"name":"fontName","rangeEnd":68,"rangeStart":0,"value":"Montserrat","valueType":"string"},{"name":"fontItalic","rangeEnd":68,"rangeStart":0,"value":0,"valueType":"int"}],
                            "duration" : 0
                          }
                        ]
                      }
                    },
                    "attributes" : {
                      "autoRotateText" : true
                    },
                    "parameters" : {
                      "translation0" : {
                        "type" : "double",
                        "defaultValue" : -1158.99999999959,
                        "keyframes" : [
                          {
                            "time" : -30,
                            "value" : 1187.0,
                            "duration" : 976
                          }
                        ]
                      },
                      "translation1" : {
                        "type" : "double",
                        "defaultValue" : -43.5279183670784,
                        "keyframes" : [
                          {
                            "time" : -30,
                            "value" : -43.5279183671128,
                            "duration" : 976
                          }
                        ]
                      },
                      "opacity" : {
                        "type" : "double",
                        "defaultValue" : 0.591666666666667,
                        "keyframes" : [
                          {
                            "time" : -30,
                            "value" : 0.591666666666667,
                            "duration" : 976
                          }
                        ]
                      }
                    },
                    "effects" : [

                    ],
                    "start" : 6921,
                    "duration" : 946,
                    "mediaStart" : 0,
                    "mediaDuration" : 946,
                    "scalar" : 1,
                    "metadata" : {
                      "WinSubProjectDisplayName" : "",
                      "clipSpeedAttribute" : false,
                      "default-HAlign" : "center",
                      "default-VAlign" : "center",
                      "default-opacity" : 1.0,
                      "default-translation0" : 0.0,
                      "default-translation1" : 0.0
                    },
                    "animationTracks" : {
                      "visual" : [
                        {
                          "range" : [ -30, 976]
                        }
                      ]
                    }
                  }
                ]
              },
              {
                "trackIndex" : 3,
                "medias" : [
                  {
                    "id" : 17,
                    "_type" : "IMFile",
                    "src" : 9,
                    "trackNumber" : 0,
                    "trimStartSum" : 132,
                    "attributes" : {
                      "ident" : "file_bar1"
                    },
                    "parameters" : {
                      "translation0" : {
                        "type" : "double",
                        "defaultValue" : -1.4285714294907,
                        "interp" : "eioe"
                      },
                      "translation1" : {
                        "type" : "double",
                        "defaultValue" : -479.770516717306,
                        "interp" : "eioe"
                      },
                      "scale0" : {
                        "type" : "double",
                        "defaultValue" : 1.04654387865669,
                        "interp" : "eioe"
                      },
                      "scale1" : {
                        "type" : "double",
                        "defaultValue" : 1.04654387865669,
                        "interp" : "eioe"
                      }
                    },
                    "effects" : [

                    ],
                    "start" : 374,
                    "duration" : 11811,
                    "mediaStart" : 0,
                    "mediaDuration" : 1,
                    "scalar" : 1,
                    "metadata" : {
                      "WinSubProjectDisplayName" : "",
                      "clipSpeedAttribute" : false,
                      "default-scale0" : 1.0,
                      "default-scale1" : 1.0,
                      "default-translation0" : 0.0,
                      "default-translation1" : -0.5
                    },
                    "animationTracks" : {

                    }
                  }
                ],
                "transitions" : [
                  {
                    "name" : "PageRoll",
                    "duration" : 30,
                    "useAudioPreRoll" : true,
                    "useVisualPreRoll" : true,
                    "rightMedia" : 17
                  },
                  {
                    "name" : "PageRoll",
                    "duration" : 30,
                    "useAudioPreRoll" : true,
                    "useVisualPreRoll" : true,
                    "leftMedia" : 17
                  }
                ]
              },
              {
                "trackIndex" : 4,
                "medias" : [
                  {
                    "id" : 18,
                    "_type" : "IMFile",
                    "src" : 8,
                    "trackNumber" : 0,
                    "trimStartSum" : 0,
                    "attributes" : {
                      "ident" : "iphone-11-pro-max-vang-didongviet_7"
                    },
                    "parameters" : {
                      "translation0" : {
                        "type" : "double",
                        "defaultValue" : -750.064764983165,
                        "interp" : "eioe"
                      },
                      "translation1" : {
                        "type" : "double",
                        "defaultValue" : 18.7798359536291,
                        "interp" : "eioe"
                      },
                      "scale0" : {
                        "type" : "double",
                        "defaultValue" : 0.878534019044501,
                        "interp" : "eioe"
                      },
                      "scale1" : {
                        "type" : "double",
                        "defaultValue" : 0.878534019044501,
                        "interp" : "eioe"
                      }
                    },
                    "effects" : [

                    ],
                    "start" : 212,
                    "duration" : 11260,
                    "mediaStart" : 0,
                    "mediaDuration" : 1,
                    "scalar" : 1,
                    "metadata" : {
                      "WinSubProjectDisplayName" : "",
                      "clipSpeedAttribute" : false,
                      "default-scale0" : 1.0,
                      "default-scale1" : 1.0,
                      "default-translation0" : -0.5,
                      "default-translation1" : -0.5
                    },
                    "animationTracks" : {

                    }
                  }
                ],
                "transitions" : [
                  {
                    "name" : "CircleStretch",
                    "duration" : 24,
                    "useAudioPreRoll" : true,
                    "useVisualPreRoll" : true,
                    "rightMedia" : 18
                  },
                  {
                    "name" : "CircleStretch",
                    "duration" : 30,
                    "useAudioPreRoll" : true,
                    "useVisualPreRoll" : true,
                    "leftMedia" : 18
                  }
                ]
              },
              {
                "trackIndex" : 5,
                "medias" : [
                  {
                    "id" : 19,
                    "_type" : "IMFile",
                    "src" : 7,
                    "trackNumber" : 0,
                    "trimStartSum" : -67,
                    "attributes" : {
                      "ident" : "13Pro-max"
                    },
                    "parameters" : {
                      "translation0" : 748.233766233728,
                      "translation1" : 18.7798359536518,
                      "scale0" : 1.49473684210615,
                      "scale1" : 1.49473684210615
                    },
                    "effects" : [

                    ],
                    "start" : 335,
                    "duration" : 11137,
                    "mediaStart" : 0,
                    "mediaDuration" : 1,
                    "scalar" : 1,
                    "metadata" : {
                      "WinSubProjectDisplayName" : "",
                      "clipSpeedAttribute" : false,
                      "default-scale0" : 1.0,
                      "default-scale1" : 1.0,
                      "default-translation0" : 0.0,
                      "default-translation1" : -0.5
                    },
                    "animationTracks" : {

                    }
                  }
                ],
                "transitions" : [
                  {
                    "name" : "CircleStretch",
                    "duration" : 30,
                    "useAudioPreRoll" : true,
                    "useVisualPreRoll" : true,
                    "rightMedia" : 19
                  },
                  {
                    "name" : "CircleStretch",
                    "duration" : 30,
                    "useAudioPreRoll" : true,
                    "useVisualPreRoll" : true,
                    "leftMedia" : 19
                  }
                ]
              },
              {
                "trackIndex" : 6,
                "medias" : [
                  {
                    "id" : 20,
                    "_type" : "IMFile",
                    "src" : 2,
                    "trackNumber" : 0,
                    "trimStartSum" : 49,
                    "attributes" : {
                      "ident" : "vs"
                    },
                    "parameters" : {
                      "translation0" : 17.0567423232727,
                      "translation1" : 23.0623869798765,
                      "scale0" : 3.46979094489252,
                      "scale1" : 3.46979094489252
                    },
                    "effects" : [
                        {
                          "_type" : "GenericBehaviorEffect",
                          "effectName" : "jumpAndFall",
                          "start" : 49,
                          "duration" : 171                        ,
                          "in" : {
                            "attributes" : {
                              "name" : "bounceIn",
                              "type" : 0,
                              "characterOrder" : 6,
                              "offsetBetweenCharacters" : "5/2",
                              "suggestedDurationPerCharacter" : "45/2",
                              "overlapProportion" : "-1/5",
                              "movement" : 29,
                              "springDamping" : 5.0,
                              "springStiffness" : 50.0,
                              "bounceBounciness" : 0.4
                            },
                            "parameters" : {
                              "direction" : {
                                "type" : "int",
                                "valueBounds" : {
                                  "minValue" : 0,
                                  "maxValue" : 3,
                                  "defaultValue" : 1
                                },
                                "uiHints" : {
                                  "userInterfaceType" : 2,
                                  "unitType" : 0
                                },
                                "keyframes" : [
                                  {
                                    "time" : 0,
                                    "value" : 1,
                                    "duration" : 0
                                  }
                                ]
                              }
                            }
                          
                          },
                          "center" : {
                            "attributes" : {
                              "name" : "jump",
                              "type" : 0,
                              "characterOrder" : 6,
                              "offsetBetweenCharacters" : "12/5",
                              "secondsPerLoop" : 1,
                              "numberOfLoops" : -1,
                              "delayBetweenLoops" : 50,
                              "offsetBetweenCharacters" : "12/5"
                            },
                            "parameters" : {
                              "jump" : {
                                "type" : "double",
                                "defaultValue" : 60.0,
                                "valueBounds" : {
                                  "minValue" : 0.0,
                                  "maxValue" : 500.0,
                                  "defaultValue" : 60.0
                                },
                                "uiHints" : {
                                  "userInterfaceType" : 1,
                                  "unitType" : 0
                                }
                              }
                            }
                          
                          },
                          "out" : {
                            "attributes" : {
                              "name" : "drop",
                              "type" : 0,
                              "characterOrder" : 6,
                              "offsetBetweenCharacters" : "5/2",
                              "suggestedDurationPerCharacter" : 15,
                              "overlapProportion" : "1/5",
                              "movement" : 7,
                              "springDamping" : 5.0,
                              "springStiffness" : 50.0,
                              "bounceBounciness" : 0.45
                            },
                            "parameters" : {
                              "direction" : {
                                "type" : "int",
                                "valueBounds" : {
                                  "minValue" : 0,
                                  "maxValue" : 3,
                                  "defaultValue" : 3
                                },
                                "uiHints" : {
                                  "userInterfaceType" : 2,
                                  "unitType" : 0
                                },
                                "keyframes" : [
                                  {
                                    "time" : 0,
                                    "value" : 3,
                                    "duration" : 0
                                  }
                                ]
                              }
                            }
                          
                          }
                        }
                    ],
                    "start" : 266,
                    "duration" : 171,
                    "mediaStart" : 0,
                    "mediaDuration" : 1,
                    "scalar" : 1,
                    "metadata" : {
                      "WinSubProjectDisplayName" : "",
                      "clipSpeedAttribute" : false,
                      "default-scale0" : 1.0,
                      "default-scale1" : 1.0,
                      "default-translation0" : -0.5,
                      "default-translation1" : -0.5
                    },
                    "animationTracks" : {

                    }
                  },
                  {
                    "id" : 21,
                    "_type" : "Callout",
                    "def" : {
                      "kind" : "remix",
                      "shape" : "text-rectangle",
                      "style" : "basic",
                      "fill-color-blue" : 0.317647058823529,
                      "fill-color-green" : 0.690196078431373,
                      "fill-color-opacity" : 1.0,
                      "fill-color-red" : 0.886274509803922,
                      "height" : 98.9361702126405,
                      "stroke-color-blue" : 0.56078431372549,
                      "stroke-color-green" : 0.686274509803922,
                      "stroke-color-opacity" : 0.0,
                      "stroke-color-red" : 0.0196078431372549,
                      "stroke-width" : 2.0,
                      "tail-x" : 8.51063829780433,
                      "tail-y" : -45.5319148936798,
                      "width" : 332.978723404391,
                      "word-wrap" : 1.0,
                      "fill-style" : "solid",
                      "horizontal-alignment" : "center",
                      "stroke-style" : "solid",
                      "text" : "LAUNCH",
                      "vertical-alignment" : "center",
                      "font" : {
                        "color-blue" : 0.266666666666667,
                        "color-green" : 0.231372549019608,
                        "color-opacity" : 1.0,
                        "color-red" : 0.184313725490196,
                        "size" : 64.0,
                        "tracking" : 0.0,
                        "name" : "Montserrat",
                        "weight" : "Regular"
                      },
                      "textAttributes" : {
                        "type" : "textAttributeList",
                        "keyframes" : [
                          {
                            "time" : 0,
                            "value" : [{"name":"fontSize","rangeEnd":6,"rangeStart":0,"value":76,"valueType":"double"},{"name":"fgColor","rangeEnd":6,"rangeStart":0,"value":"(255,255,255,255)","valueType":"color"},{"name":"strikethrough","rangeEnd":6,"rangeStart":0,"value":0,"valueType":"int"},{"name":"fontItalic","rangeEnd":6,"rangeStart":0,"value":0,"valueType":"int"},{"name":"fontName","rangeEnd":6,"rangeStart":0,"value":"Montserrat","valueType":"string"},{"name":"underline","rangeEnd":6,"rangeStart":0,"value":0,"valueType":"int"},{"name":"fontWeight","rangeEnd":6,"rangeStart":0,"value":400,"valueType":"int"}],
                            "duration" : 0
                          }
                        ]
                      }
                    },
                    "attributes" : {
                      "autoRotateText" : true
                    },
                    "parameters" : {
                      "translation0" : 0.0607902736221888,
                      "translation1" : 481.823708206561
                    },
                    "effects" : [
                        {
                          "effectName" : "DropShadow",
                          "category" : "categoryVisualEffects",
                          "parameters" : {
                            "angle" : 5.49778714378214,
                            "blur" : 10.0,
                            "color-alpha" : 1.0,
                            "color-blue" : 0.968627450980392,
                            "color-green" : 0.0196078431372549,
                            "color-red" : 0.152941176470588,
                            "enabled" : 1,
                            "offset" : 5.83333333333332,
                            "opacity" : 0.4
                          },
                          "metadata" : {
                            "default-dropshadow-color-b" : 0.1216,
                            "default-dropshadow-color-g" : 0.1216,
                            "default-dropshadow-color-r" : 0.1216,
                            "default-dropshadow-offset" : 10.0
                          }
                        },
                        {
                          "_type" : "GenericBehaviorEffect",
                          "effectName" : "reveal",
                          "start" : 0,
                          "duration" : 223                        ,
                          "in" : {
                            "attributes" : {
                              "name" : "reveal",
                              "type" : 0,
                              "characterOrder" : 7,
                              "offsetBetweenCharacters" : "3/2",
                              "suggestedDurationPerCharacter" : 22,
                              "overlapProportion" : 0,
                              "movement" : 16,
                              "springDamping" : 5.0,
                              "springStiffness" : 50.0,
                              "bounceBounciness" : 0.45
                            },
                            "parameters" : {
                              "direction" : {
                                "type" : "int",
                                "valueBounds" : {
                                  "minValue" : 0,
                                  "maxValue" : 3,
                                  "defaultValue" : 0
                                },
                                "uiHints" : {
                                  "userInterfaceType" : 2,
                                  "unitType" : 0
                                },
                                "keyframes" : [
                                  {
                                    "time" : 0,
                                    "value" : 0,
                                    "duration" : 0
                                  }
                                ]
                              }
                            }
                          
                          },
                          "center" : {
                            "attributes" : {
                              "name" : "reveal",
                              "type" : 0,
                              "characterOrder" : 2,
                              "offsetBetweenCharacters" : "51/10",
                              "secondsPerLoop" : "233/100",
                              "numberOfLoops" : -1,
                              "delayBetweenLoops" : 15,
                              "offsetBetweenCharacters" : "51/10"
                            },
                            "parameters" : {
                              "movement" : {
                                "type" : "int",
                                "valueBounds" : {
                                  "minValue" : 0,
                                  "maxValue" : 31,
                                  "defaultValue" : 0
                                },
                                "uiHints" : {
                                  "userInterfaceType" : 4,
                                  "unitType" : 0
                                },
                                "keyframes" : [
                                  {
                                    "time" : 0,
                                    "value" : 0,
                                    "duration" : 0
                                  }
                                ]
                              },
                              "opacity" : {
                                "type" : "double",
                                "defaultValue" : 0.45,
                                "valueBounds" : {
                                  "minValue" : 0.0,
                                  "maxValue" : 1.0,
                                  "defaultValue" : 0.45
                                },
                                "uiHints" : {
                                  "userInterfaceType" : 1,
                                  "unitType" : 1
                                }
                              }
                            }
                          
                          },
                          "out" : {
                            "attributes" : {
                              "name" : "reveal",
                              "type" : 0,
                              "characterOrder" : 7,
                              "offsetBetweenCharacters" : "3/2",
                              "suggestedDurationPerCharacter" : 17,
                              "overlapProportion" : "1/2",
                              "movement" : 6,
                              "springDamping" : 5.0,
                              "springStiffness" : 50.0,
                              "bounceBounciness" : 0.45
                            },
                            "parameters" : {
                              "direction" : {
                                "type" : "int",
                                "valueBounds" : {
                                  "minValue" : 0,
                                  "maxValue" : 3,
                                  "defaultValue" : 2
                                },
                                "uiHints" : {
                                  "userInterfaceType" : 2,
                                  "unitType" : 0
                                },
                                "keyframes" : [
                                  {
                                    "time" : 0,
                                    "value" : 2,
                                    "duration" : 0
                                  }
                                ]
                              }
                            }
                          
                          }
                        }
                    ],
                    "start" : 472,
                    "duration" : 223,
                    "mediaStart" : 0,
                    "mediaDuration" : 223,
                    "scalar" : 1,
                    "metadata" : {
                      "WinSubProjectDisplayName" : "",
                      "clipSpeedAttribute" : false,
                      "default-HAlign" : "center",
                      "default-VAlign" : "center",
                      "default-fill-color-blue" : 1.0,
                      "default-fill-color-green" : 1.0,
                      "default-fill-color-opacity" : 1.0,
                      "default-fill-color-red" : 1.0,
                      "default-fill-style" : "solid",
                      "default-opacity" : 1.0,
                      "default-stroke-color-opacity" : 1.0,
                      "default-text-attributes" : "[{\"name\":\"strikethrough\",\"rangeEnd\":7,\"rangeStart\":0,\"value\":0,\"valueType\":\"int\"},{\"name\":\"fontWeight\",\"rangeEnd\":7,\"rangeStart\":0,\"value\":400,\"valueType\":\"int\"},{\"name\":\"fontItalic\",\"rangeEnd\":7,\"rangeStart\":0,\"value\":0,\"valueType\":\"int\"},{\"name\":\"fgColor\",\"rangeEnd\":7,\"rangeStart\":0,\"value\":\"(255,255,255,255)\",\"valueType\":\"color\"},{\"name\":\"fontSize\",\"rangeEnd\":7,\"rangeStart\":0,\"value\":64,\"valueType\":\"double\"},{\"name\":\"underline\",\"rangeEnd\":7,\"rangeStart\":0,\"value\":0,\"valueType\":\"int\"},{\"name\":\"fontName\",\"rangeEnd\":7,\"rangeStart\":0,\"value\":\"Montserrat\",\"valueType\":\"string\"}]",
                      "default-translation0" : 0.0,
                      "default-translation1" : 0.0
                    },
                    "animationTracks" : {

                    }
                  },
                  {
                    "id" : 22,
                    "_type" : "Callout",
                    "def" : {
                      "kind" : "remix",
                      "shape" : "text-rectangle",
                      "style" : "basic",
                      "fill-color-blue" : 0.317647058823529,
                      "fill-color-green" : 0.690196078431373,
                      "fill-color-opacity" : 1.0,
                      "fill-color-red" : 0.886274509803922,
                      "height" : 98.9361702126405,
                      "stroke-color-blue" : 0.56078431372549,
                      "stroke-color-green" : 0.686274509803922,
                      "stroke-color-opacity" : 0.0,
                      "stroke-color-red" : 0.0196078431372549,
                      "stroke-width" : 2.0,
                      "tail-x" : 8.51063829780433,
                      "tail-y" : -45.5319148936798,
                      "width" : 332.978723404391,
                      "word-wrap" : 1.0,
                      "fill-style" : "solid",
                      "horizontal-alignment" : "center",
                      "stroke-style" : "solid",
                      "text" : "DISPLAY",
                      "vertical-alignment" : "center",
                      "font" : {
                        "color-blue" : 0.266666666666667,
                        "color-green" : 0.231372549019608,
                        "color-opacity" : 1.0,
                        "color-red" : 0.184313725490196,
                        "size" : 64.0,
                        "tracking" : 0.0,
                        "name" : "Montserrat",
                        "weight" : "Regular"
                      },
                      "textAttributes" : {
                        "type" : "textAttributeList",
                        "keyframes" : [
                          {
                            "time" : 0,
                            "value" : [{"name":"fontWeight","rangeEnd":7,"rangeStart":0,"value":400,"valueType":"int"},{"name":"fontSize","rangeEnd":7,"rangeStart":0,"value":76,"valueType":"double"},{"name":"strikethrough","rangeEnd":7,"rangeStart":0,"value":0,"valueType":"int"},{"name":"fontName","rangeEnd":7,"rangeStart":0,"value":"Montserrat","valueType":"string"},{"name":"fontItalic","rangeEnd":7,"rangeStart":0,"value":0,"valueType":"int"},{"name":"fgColor","rangeEnd":7,"rangeStart":0,"value":"(255,255,255,255)","valueType":"color"},{"name":"underline","rangeEnd":7,"rangeStart":0,"value":0,"valueType":"int"}],
                            "duration" : 0
                          }
                        ]
                      }
                    },
                    "attributes" : {
                      "autoRotateText" : true
                    },
                    "parameters" : {
                      "translation0" : 0.0607902736221888,
                      "translation1" : 481.823708206561
                    },
                    "effects" : [
                        {
                          "effectName" : "DropShadow",
                          "category" : "categoryVisualEffects",
                          "parameters" : {
                            "angle" : 5.49778714378214,
                            "blur" : 10.0,
                            "color-alpha" : 1.0,
                            "color-blue" : 0.968627450980392,
                            "color-green" : 0.0196078431372549,
                            "color-red" : 0.152941176470588,
                            "enabled" : 1,
                            "offset" : 5.83333333333332,
                            "opacity" : 0.4
                          },
                          "metadata" : {
                            "default-dropshadow-color-b" : 0.1216,
                            "default-dropshadow-color-g" : 0.1216,
                            "default-dropshadow-color-r" : 0.1216,
                            "default-dropshadow-offset" : 10.0
                          }
                        },
                        {
                          "_type" : "GenericBehaviorEffect",
                          "effectName" : "reveal",
                          "start" : -40,
                          "duration" : 1218                        ,
                          "in" : {
                            "attributes" : {
                              "name" : "reveal",
                              "type" : 0,
                              "characterOrder" : 7,
                              "offsetBetweenCharacters" : "3/2",
                              "suggestedDurationPerCharacter" : 22,
                              "overlapProportion" : 0,
                              "movement" : 16,
                              "springDamping" : 5.0,
                              "springStiffness" : 50.0,
                              "bounceBounciness" : 0.45
                            },
                            "parameters" : {
                              "direction" : {
                                "type" : "int",
                                "valueBounds" : {
                                  "minValue" : 0,
                                  "maxValue" : 3,
                                  "defaultValue" : 0
                                },
                                "uiHints" : {
                                  "userInterfaceType" : 2,
                                  "unitType" : 0
                                },
                                "keyframes" : [
                                  {
                                    "time" : 0,
                                    "value" : 0,
                                    "duration" : 0
                                  }
                                ]
                              }
                            }
                          
                          },
                          "center" : {
                            "attributes" : {
                              "name" : "reveal",
                              "type" : 0,
                              "characterOrder" : 2,
                              "offsetBetweenCharacters" : "51/10",
                              "secondsPerLoop" : "233/100",
                              "numberOfLoops" : -1,
                              "delayBetweenLoops" : 15,
                              "offsetBetweenCharacters" : "51/10"
                            },
                            "parameters" : {
                              "movement" : {
                                "type" : "int",
                                "valueBounds" : {
                                  "minValue" : 0,
                                  "maxValue" : 31,
                                  "defaultValue" : 0
                                },
                                "uiHints" : {
                                  "userInterfaceType" : 4,
                                  "unitType" : 0
                                },
                                "keyframes" : [
                                  {
                                    "time" : 0,
                                    "value" : 0,
                                    "duration" : 0
                                  }
                                ]
                              },
                              "opacity" : {
                                "type" : "double",
                                "defaultValue" : 0.45,
                                "valueBounds" : {
                                  "minValue" : 0.0,
                                  "maxValue" : 1.0,
                                  "defaultValue" : 0.45
                                },
                                "uiHints" : {
                                  "userInterfaceType" : 1,
                                  "unitType" : 1
                                }
                              }
                            }
                          
                          },
                          "out" : {
                            "attributes" : {
                              "name" : "reveal",
                              "type" : 0,
                              "characterOrder" : 7,
                              "offsetBetweenCharacters" : "3/2",
                              "suggestedDurationPerCharacter" : 17,
                              "overlapProportion" : "1/2",
                              "movement" : 6,
                              "springDamping" : 5.0,
                              "springStiffness" : 50.0,
                              "bounceBounciness" : 0.45
                            },
                            "parameters" : {
                              "direction" : {
                                "type" : "int",
                                "valueBounds" : {
                                  "minValue" : 0,
                                  "maxValue" : 3,
                                  "defaultValue" : 2
                                },
                                "uiHints" : {
                                  "userInterfaceType" : 2,
                                  "unitType" : 0
                                },
                                "keyframes" : [
                                  {
                                    "time" : 0,
                                    "value" : 2,
                                    "duration" : 0
                                  }
                                ]
                              }
                            }
                          
                          }
                        }
                    ],
                    "start" : 713,
                    "duration" : 1218,
                    "mediaStart" : -40,
                    "mediaDuration" : 1218,
                    "scalar" : 1,
                    "metadata" : {
                      "WinSubProjectDisplayName" : "",
                      "clipSpeedAttribute" : false,
                      "default-HAlign" : "center",
                      "default-VAlign" : "center",
                      "default-fill-color-blue" : 1.0,
                      "default-fill-color-green" : 1.0,
                      "default-fill-color-opacity" : 1.0,
                      "default-fill-color-red" : 1.0,
                      "default-fill-style" : "solid",
                      "default-opacity" : 1.0,
                      "default-stroke-color-opacity" : 1.0,
                      "default-text-attributes" : "[{\"name\":\"strikethrough\",\"rangeEnd\":7,\"rangeStart\":0,\"value\":0,\"valueType\":\"int\"},{\"name\":\"fontWeight\",\"rangeEnd\":7,\"rangeStart\":0,\"value\":400,\"valueType\":\"int\"},{\"name\":\"fontItalic\",\"rangeEnd\":7,\"rangeStart\":0,\"value\":0,\"valueType\":\"int\"},{\"name\":\"fgColor\",\"rangeEnd\":7,\"rangeStart\":0,\"value\":\"(255,255,255,255)\",\"valueType\":\"color\"},{\"name\":\"fontSize\",\"rangeEnd\":7,\"rangeStart\":0,\"value\":64,\"valueType\":\"double\"},{\"name\":\"underline\",\"rangeEnd\":7,\"rangeStart\":0,\"value\":0,\"valueType\":\"int\"},{\"name\":\"fontName\",\"rangeEnd\":7,\"rangeStart\":0,\"value\":\"Montserrat\",\"valueType\":\"string\"}]",
                      "default-translation0" : 0.0,
                      "default-translation1" : 0.0
                    },
                    "animationTracks" : {

                    }
                  },
                  {
                    "id" : 23,
                    "_type" : "Callout",
                    "def" : {
                      "kind" : "remix",
                      "shape" : "text-rectangle",
                      "style" : "basic",
                      "fill-color-blue" : 0.317647058823529,
                      "fill-color-green" : 0.690196078431373,
                      "fill-color-opacity" : 1.0,
                      "fill-color-red" : 0.886274509803922,
                      "height" : 98.9361702126405,
                      "stroke-color-blue" : 0.56078431372549,
                      "stroke-color-green" : 0.686274509803922,
                      "stroke-color-opacity" : 0.0,
                      "stroke-color-red" : 0.0196078431372549,
                      "stroke-width" : 2.0,
                      "tail-x" : 8.51063829780433,
                      "tail-y" : -45.5319148936798,
                      "width" : 332.978723404391,
                      "word-wrap" : 1.0,
                      "fill-style" : "solid",
                      "horizontal-alignment" : "center",
                      "stroke-style" : "solid",
                      "text" : "BACKSIDE",
                      "vertical-alignment" : "center",
                      "font" : {
                        "color-blue" : 0.266666666666667,
                        "color-green" : 0.231372549019608,
                        "color-opacity" : 1.0,
                        "color-red" : 0.184313725490196,
                        "size" : 64.0,
                        "tracking" : 0.0,
                        "name" : "Montserrat",
                        "weight" : "Regular"
                      },
                      "textAttributes" : {
                        "type" : "textAttributeList",
                        "keyframes" : [
                          {
                            "time" : 0,
                            "value" : [{"name":"fontWeight","rangeEnd":8,"rangeStart":0,"value":400,"valueType":"int"},{"name":"underline","rangeEnd":8,"rangeStart":0,"value":0,"valueType":"int"},{"name":"fontItalic","rangeEnd":8,"rangeStart":0,"value":0,"valueType":"int"},{"name":"fgColor","rangeEnd":8,"rangeStart":0,"value":"(255,255,255,255)","valueType":"color"},{"name":"strikethrough","rangeEnd":8,"rangeStart":0,"value":0,"valueType":"int"},{"name":"fontSize","rangeEnd":8,"rangeStart":0,"value":76,"valueType":"double"},{"name":"fontName","rangeEnd":8,"rangeStart":0,"value":"Montserrat","valueType":"string"}],
                            "duration" : 0
                          }
                        ]
                      }
                    },
                    "attributes" : {
                      "autoRotateText" : true
                    },
                    "parameters" : {
                      "translation0" : 0.0607902736221888,
                      "translation1" : 481.823708206561
                    },
                    "effects" : [
                        {
                          "effectName" : "DropShadow",
                          "category" : "categoryVisualEffects",
                          "parameters" : {
                            "angle" : 5.49778714378214,
                            "blur" : 10.0,
                            "color-alpha" : 1.0,
                            "color-blue" : 0.968627450980392,
                            "color-green" : 0.0196078431372549,
                            "color-red" : 0.152941176470588,
                            "enabled" : 1,
                            "offset" : 5.83333333333332,
                            "opacity" : 0.4
                          },
                          "metadata" : {
                            "default-dropshadow-color-b" : 0.1216,
                            "default-dropshadow-color-g" : 0.1216,
                            "default-dropshadow-color-r" : 0.1216,
                            "default-dropshadow-offset" : 10.0
                          }
                        },
                        {
                          "_type" : "GenericBehaviorEffect",
                          "effectName" : "reveal",
                          "start" : -19,
                          "duration" : 345                        ,
                          "in" : {
                            "attributes" : {
                              "name" : "reveal",
                              "type" : 0,
                              "characterOrder" : 7,
                              "offsetBetweenCharacters" : "3/2",
                              "suggestedDurationPerCharacter" : 22,
                              "overlapProportion" : 0,
                              "movement" : 16,
                              "springDamping" : 5.0,
                              "springStiffness" : 50.0,
                              "bounceBounciness" : 0.45
                            },
                            "parameters" : {
                              "direction" : {
                                "type" : "int",
                                "valueBounds" : {
                                  "minValue" : 0,
                                  "maxValue" : 3,
                                  "defaultValue" : 0
                                },
                                "uiHints" : {
                                  "userInterfaceType" : 2,
                                  "unitType" : 0
                                },
                                "keyframes" : [
                                  {
                                    "time" : 0,
                                    "value" : 0,
                                    "duration" : 0
                                  }
                                ]
                              }
                            }
                          
                          },
                          "center" : {
                            "attributes" : {
                              "name" : "reveal",
                              "type" : 0,
                              "characterOrder" : 2,
                              "offsetBetweenCharacters" : "51/10",
                              "secondsPerLoop" : "233/100",
                              "numberOfLoops" : -1,
                              "delayBetweenLoops" : 15,
                              "offsetBetweenCharacters" : "51/10"
                            },
                            "parameters" : {
                              "movement" : {
                                "type" : "int",
                                "valueBounds" : {
                                  "minValue" : 0,
                                  "maxValue" : 31,
                                  "defaultValue" : 0
                                },
                                "uiHints" : {
                                  "userInterfaceType" : 4,
                                  "unitType" : 0
                                },
                                "keyframes" : [
                                  {
                                    "time" : 0,
                                    "value" : 0,
                                    "duration" : 0
                                  }
                                ]
                              },
                              "opacity" : {
                                "type" : "double",
                                "defaultValue" : 0.45,
                                "valueBounds" : {
                                  "minValue" : 0.0,
                                  "maxValue" : 1.0,
                                  "defaultValue" : 0.45
                                },
                                "uiHints" : {
                                  "userInterfaceType" : 1,
                                  "unitType" : 1
                                }
                              }
                            }
                          
                          },
                          "out" : {
                            "attributes" : {
                              "name" : "reveal",
                              "type" : 0,
                              "characterOrder" : 7,
                              "offsetBetweenCharacters" : "3/2",
                              "suggestedDurationPerCharacter" : 17,
                              "overlapProportion" : "1/2",
                              "movement" : 6,
                              "springDamping" : 5.0,
                              "springStiffness" : 50.0,
                              "bounceBounciness" : 0.45
                            },
                            "parameters" : {
                              "direction" : {
                                "type" : "int",
                                "valueBounds" : {
                                  "minValue" : 0,
                                  "maxValue" : 3,
                                  "defaultValue" : 2
                                },
                                "uiHints" : {
                                  "userInterfaceType" : 2,
                                  "unitType" : 0
                                },
                                "keyframes" : [
                                  {
                                    "time" : 0,
                                    "value" : 2,
                                    "duration" : 0
                                  }
                                ]
                              }
                            }
                          
                          }
                        }
                    ],
                    "start" : 1952,
                    "duration" : 345,
                    "mediaStart" : -19,
                    "mediaDuration" : 345,
                    "scalar" : 1,
                    "metadata" : {
                      "WinSubProjectDisplayName" : "",
                      "clipSpeedAttribute" : false,
                      "default-HAlign" : "center",
                      "default-VAlign" : "center",
                      "default-fill-color-blue" : 1.0,
                      "default-fill-color-green" : 1.0,
                      "default-fill-color-opacity" : 1.0,
                      "default-fill-color-red" : 1.0,
                      "default-fill-style" : "solid",
                      "default-opacity" : 1.0,
                      "default-stroke-color-opacity" : 1.0,
                      "default-text-attributes" : "[{\"name\":\"strikethrough\",\"rangeEnd\":7,\"rangeStart\":0,\"value\":0,\"valueType\":\"int\"},{\"name\":\"fontWeight\",\"rangeEnd\":7,\"rangeStart\":0,\"value\":400,\"valueType\":\"int\"},{\"name\":\"fontItalic\",\"rangeEnd\":7,\"rangeStart\":0,\"value\":0,\"valueType\":\"int\"},{\"name\":\"fgColor\",\"rangeEnd\":7,\"rangeStart\":0,\"value\":\"(255,255,255,255)\",\"valueType\":\"color\"},{\"name\":\"fontSize\",\"rangeEnd\":7,\"rangeStart\":0,\"value\":64,\"valueType\":\"double\"},{\"name\":\"underline\",\"rangeEnd\":7,\"rangeStart\":0,\"value\":0,\"valueType\":\"int\"},{\"name\":\"fontName\",\"rangeEnd\":7,\"rangeStart\":0,\"value\":\"Montserrat\",\"valueType\":\"string\"}]",
                      "default-translation0" : 0.0,
                      "default-translation1" : 0.0
                    },
                    "animationTracks" : {

                    }
                  },
                  {
                    "id" : 24,
                    "_type" : "Callout",
                    "def" : {
                      "kind" : "remix",
                      "shape" : "text-rectangle",
                      "style" : "basic",
                      "fill-color-blue" : 0.317647058823529,
                      "fill-color-green" : 0.690196078431373,
                      "fill-color-opacity" : 1.0,
                      "fill-color-red" : 0.886274509803922,
                      "height" : 98.9361702126405,
                      "stroke-color-blue" : 0.56078431372549,
                      "stroke-color-green" : 0.686274509803922,
                      "stroke-color-opacity" : 0.0,
                      "stroke-color-red" : 0.0196078431372549,
                      "stroke-width" : 2.0,
                      "tail-x" : 8.51063829780433,
                      "tail-y" : -45.5319148936798,
                      "width" : 332.978723404391,
                      "word-wrap" : 1.0,
                      "fill-style" : "solid",
                      "horizontal-alignment" : "center",
                      "stroke-style" : "solid",
                      "text" : "BODY",
                      "vertical-alignment" : "center",
                      "font" : {
                        "color-blue" : 0.266666666666667,
                        "color-green" : 0.231372549019608,
                        "color-opacity" : 1.0,
                        "color-red" : 0.184313725490196,
                        "size" : 64.0,
                        "tracking" : 0.0,
                        "name" : "Montserrat",
                        "weight" : "Regular"
                      },
                      "textAttributes" : {
                        "type" : "textAttributeList",
                        "keyframes" : [
                          {
                            "time" : 0,
                            "value" : [{"name":"fgColor","rangeEnd":4,"rangeStart":0,"value":"(255,255,255,255)","valueType":"color"},{"name":"fontSize","rangeEnd":4,"rangeStart":0,"value":76,"valueType":"double"},{"name":"fontWeight","rangeEnd":4,"rangeStart":0,"value":400,"valueType":"int"},{"name":"fontItalic","rangeEnd":4,"rangeStart":0,"value":0,"valueType":"int"},{"name":"fontName","rangeEnd":4,"rangeStart":0,"value":"Montserrat","valueType":"string"},{"name":"underline","rangeEnd":4,"rangeStart":0,"value":0,"valueType":"int"},{"name":"strikethrough","rangeEnd":4,"rangeStart":0,"value":0,"valueType":"int"}],
                            "duration" : 0
                          }
                        ]
                      }
                    },
                    "attributes" : {
                      "autoRotateText" : true
                    },
                    "parameters" : {
                      "translation0" : 0.0607902736221888,
                      "translation1" : 481.823708206561
                    },
                    "effects" : [
                        {
                          "effectName" : "DropShadow",
                          "category" : "categoryVisualEffects",
                          "parameters" : {
                            "angle" : 5.49778714378214,
                            "blur" : 10.0,
                            "color-alpha" : 1.0,
                            "color-blue" : 0.968627450980392,
                            "color-green" : 0.0196078431372549,
                            "color-red" : 0.152941176470588,
                            "enabled" : 1,
                            "offset" : 5.83333333333332,
                            "opacity" : 0.4
                          },
                          "metadata" : {
                            "default-dropshadow-color-b" : 0.1216,
                            "default-dropshadow-color-g" : 0.1216,
                            "default-dropshadow-color-r" : 0.1216,
                            "default-dropshadow-offset" : 10.0
                          }
                        },
                        {
                          "_type" : "GenericBehaviorEffect",
                          "effectName" : "reveal",
                          "start" : -24,
                          "duration" : 1035                        ,
                          "in" : {
                            "attributes" : {
                              "name" : "reveal",
                              "type" : 0,
                              "characterOrder" : 7,
                              "offsetBetweenCharacters" : "3/2",
                              "suggestedDurationPerCharacter" : 22,
                              "overlapProportion" : 0,
                              "movement" : 16,
                              "springDamping" : 5.0,
                              "springStiffness" : 50.0,
                              "bounceBounciness" : 0.45
                            },
                            "parameters" : {
                              "direction" : {
                                "type" : "int",
                                "valueBounds" : {
                                  "minValue" : 0,
                                  "maxValue" : 3,
                                  "defaultValue" : 0
                                },
                                "uiHints" : {
                                  "userInterfaceType" : 2,
                                  "unitType" : 0
                                },
                                "keyframes" : [
                                  {
                                    "time" : 0,
                                    "value" : 0,
                                    "duration" : 0
                                  }
                                ]
                              }
                            }
                          
                          },
                          "center" : {
                            "attributes" : {
                              "name" : "reveal",
                              "type" : 0,
                              "characterOrder" : 2,
                              "offsetBetweenCharacters" : "51/10",
                              "secondsPerLoop" : "233/100",
                              "numberOfLoops" : -1,
                              "delayBetweenLoops" : 15,
                              "offsetBetweenCharacters" : "51/10"
                            },
                            "parameters" : {
                              "movement" : {
                                "type" : "int",
                                "valueBounds" : {
                                  "minValue" : 0,
                                  "maxValue" : 31,
                                  "defaultValue" : 0
                                },
                                "uiHints" : {
                                  "userInterfaceType" : 4,
                                  "unitType" : 0
                                },
                                "keyframes" : [
                                  {
                                    "time" : 0,
                                    "value" : 0,
                                    "duration" : 0
                                  }
                                ]
                              },
                              "opacity" : {
                                "type" : "double",
                                "defaultValue" : 0.45,
                                "valueBounds" : {
                                  "minValue" : 0.0,
                                  "maxValue" : 1.0,
                                  "defaultValue" : 0.45
                                },
                                "uiHints" : {
                                  "userInterfaceType" : 1,
                                  "unitType" : 1
                                }
                              }
                            }
                          
                          },
                          "out" : {
                            "attributes" : {
                              "name" : "reveal",
                              "type" : 0,
                              "characterOrder" : 7,
                              "offsetBetweenCharacters" : "3/2",
                              "suggestedDurationPerCharacter" : 17,
                              "overlapProportion" : "1/2",
                              "movement" : 6,
                              "springDamping" : 5.0,
                              "springStiffness" : 50.0,
                              "bounceBounciness" : 0.45
                            },
                            "parameters" : {
                              "direction" : {
                                "type" : "int",
                                "valueBounds" : {
                                  "minValue" : 0,
                                  "maxValue" : 3,
                                  "defaultValue" : 2
                                },
                                "uiHints" : {
                                  "userInterfaceType" : 2,
                                  "unitType" : 0
                                },
                                "keyframes" : [
                                  {
                                    "time" : 0,
                                    "value" : 2,
                                    "duration" : 0
                                  }
                                ]
                              }
                            }
                          
                          }
                        }
                    ],
                    "start" : 2316,
                    "duration" : 1035,
                    "mediaStart" : -24,
                    "mediaDuration" : 1035,
                    "scalar" : 1,
                    "metadata" : {
                      "WinSubProjectDisplayName" : "",
                      "clipSpeedAttribute" : false,
                      "default-HAlign" : "center",
                      "default-VAlign" : "center",
                      "default-fill-color-blue" : 1.0,
                      "default-fill-color-green" : 1.0,
                      "default-fill-color-opacity" : 1.0,
                      "default-fill-color-red" : 1.0,
                      "default-fill-style" : "solid",
                      "default-opacity" : 1.0,
                      "default-stroke-color-opacity" : 1.0,
                      "default-text-attributes" : "[{\"name\":\"strikethrough\",\"rangeEnd\":7,\"rangeStart\":0,\"value\":0,\"valueType\":\"int\"},{\"name\":\"fontWeight\",\"rangeEnd\":7,\"rangeStart\":0,\"value\":400,\"valueType\":\"int\"},{\"name\":\"fontItalic\",\"rangeEnd\":7,\"rangeStart\":0,\"value\":0,\"valueType\":\"int\"},{\"name\":\"fgColor\",\"rangeEnd\":7,\"rangeStart\":0,\"value\":\"(255,255,255,255)\",\"valueType\":\"color\"},{\"name\":\"fontSize\",\"rangeEnd\":7,\"rangeStart\":0,\"value\":64,\"valueType\":\"double\"},{\"name\":\"underline\",\"rangeEnd\":7,\"rangeStart\":0,\"value\":0,\"valueType\":\"int\"},{\"name\":\"fontName\",\"rangeEnd\":7,\"rangeStart\":0,\"value\":\"Montserrat\",\"valueType\":\"string\"}]",
                      "default-translation0" : 0.0,
                      "default-translation1" : 0.0
                    },
                    "animationTracks" : {

                    }
                  },
                  {
                    "id" : 25,
                    "_type" : "Callout",
                    "def" : {
                      "kind" : "remix",
                      "shape" : "text-rectangle",
                      "style" : "basic",
                      "fill-color-blue" : 0.317647058823529,
                      "fill-color-green" : 0.690196078431373,
                      "fill-color-opacity" : 1.0,
                      "fill-color-red" : 0.886274509803922,
                      "height" : 112.572533849175,
                      "stroke-color-blue" : 0.56078431372549,
                      "stroke-color-green" : 0.686274509803922,
                      "stroke-color-opacity" : 0.0,
                      "stroke-color-red" : 0.0196078431372549,
                      "stroke-width" : 2.0,
                      "tail-x" : -8.53481624745914,
                      "tail-y" : -50.0773694390756,
                      "width" : 367.069632494918,
                      "word-wrap" : 1.0,
                      "fill-style" : "solid",
                      "horizontal-alignment" : "center",
                      "stroke-style" : "solid",
                      "text" : "PLATFORM",
                      "vertical-alignment" : "center",
                      "font" : {
                        "color-blue" : 0.266666666666667,
                        "color-green" : 0.231372549019608,
                        "color-opacity" : 1.0,
                        "color-red" : 0.184313725490196,
                        "size" : 64.0,
                        "tracking" : 0.0,
                        "name" : "Montserrat",
                        "weight" : "Regular"
                      },
                      "textAttributes" : {
                        "type" : "textAttributeList",
                        "keyframes" : [
                          {
                            "time" : 0,
                            "value" : [{"name":"underline","rangeEnd":8,"rangeStart":0,"value":0,"valueType":"int"},{"name":"fgColor","rangeEnd":8,"rangeStart":0,"value":"(255,255,255,255)","valueType":"color"},{"name":"strikethrough","rangeEnd":8,"rangeStart":0,"value":0,"valueType":"int"},{"name":"fontName","rangeEnd":8,"rangeStart":0,"value":"Montserrat","valueType":"string"},{"name":"fontSize","rangeEnd":8,"rangeStart":0,"value":76,"valueType":"double"},{"name":"fontWeight","rangeEnd":8,"rangeStart":0,"value":400,"valueType":"int"},{"name":"fontItalic","rangeEnd":8,"rangeStart":0,"value":0,"valueType":"int"}],
                            "duration" : 0
                          }
                        ]
                      }
                    },
                    "attributes" : {
                      "autoRotateText" : true
                    },
                    "parameters" : {
                      "translation0" : 17.1062448188857,
                      "translation1" : 486.369162751957
                    },
                    "effects" : [
                        {
                          "effectName" : "DropShadow",
                          "category" : "categoryVisualEffects",
                          "parameters" : {
                            "angle" : 5.49778714378214,
                            "blur" : 10.0,
                            "color-alpha" : 1.0,
                            "color-blue" : 0.968627450980392,
                            "color-green" : 0.0196078431372549,
                            "color-red" : 0.152941176470588,
                            "enabled" : 1,
                            "offset" : 5.83333333333332,
                            "opacity" : 0.4
                          },
                          "metadata" : {
                            "default-dropshadow-color-b" : 0.1216,
                            "default-dropshadow-color-g" : 0.1216,
                            "default-dropshadow-color-r" : 0.1216,
                            "default-dropshadow-offset" : 10.0
                          }
                        },
                        {
                          "_type" : "GenericBehaviorEffect",
                          "effectName" : "reveal",
                          "start" : -24,
                          "duration" : 1235                        ,
                          "in" : {
                            "attributes" : {
                              "name" : "reveal",
                              "type" : 0,
                              "characterOrder" : 7,
                              "offsetBetweenCharacters" : "3/2",
                              "suggestedDurationPerCharacter" : 22,
                              "overlapProportion" : 0,
                              "movement" : 16,
                              "springDamping" : 5.0,
                              "springStiffness" : 50.0,
                              "bounceBounciness" : 0.45
                            },
                            "parameters" : {
                              "direction" : {
                                "type" : "int",
                                "valueBounds" : {
                                  "minValue" : 0,
                                  "maxValue" : 3,
                                  "defaultValue" : 0
                                },
                                "uiHints" : {
                                  "userInterfaceType" : 2,
                                  "unitType" : 0
                                },
                                "keyframes" : [
                                  {
                                    "time" : 0,
                                    "value" : 0,
                                    "duration" : 0
                                  }
                                ]
                              }
                            }
                          
                          },
                          "center" : {
                            "attributes" : {
                              "name" : "reveal",
                              "type" : 0,
                              "characterOrder" : 2,
                              "offsetBetweenCharacters" : "51/10",
                              "secondsPerLoop" : "233/100",
                              "numberOfLoops" : -1,
                              "delayBetweenLoops" : 15,
                              "offsetBetweenCharacters" : "51/10"
                            },
                            "parameters" : {
                              "movement" : {
                                "type" : "int",
                                "valueBounds" : {
                                  "minValue" : 0,
                                  "maxValue" : 31,
                                  "defaultValue" : 0
                                },
                                "uiHints" : {
                                  "userInterfaceType" : 4,
                                  "unitType" : 0
                                },
                                "keyframes" : [
                                  {
                                    "time" : 0,
                                    "value" : 0,
                                    "duration" : 0
                                  }
                                ]
                              },
                              "opacity" : {
                                "type" : "double",
                                "defaultValue" : 0.45,
                                "valueBounds" : {
                                  "minValue" : 0.0,
                                  "maxValue" : 1.0,
                                  "defaultValue" : 0.45
                                },
                                "uiHints" : {
                                  "userInterfaceType" : 1,
                                  "unitType" : 1
                                }
                              }
                            }
                          
                          },
                          "out" : {
                            "attributes" : {
                              "name" : "reveal",
                              "type" : 0,
                              "characterOrder" : 7,
                              "offsetBetweenCharacters" : "3/2",
                              "suggestedDurationPerCharacter" : 17,
                              "overlapProportion" : "1/2",
                              "movement" : 6,
                              "springDamping" : 5.0,
                              "springStiffness" : 50.0,
                              "bounceBounciness" : 0.45
                            },
                            "parameters" : {
                              "direction" : {
                                "type" : "int",
                                "valueBounds" : {
                                  "minValue" : 0,
                                  "maxValue" : 3,
                                  "defaultValue" : 2
                                },
                                "uiHints" : {
                                  "userInterfaceType" : 2,
                                  "unitType" : 0
                                },
                                "keyframes" : [
                                  {
                                    "time" : 0,
                                    "value" : 2,
                                    "duration" : 0
                                  }
                                ]
                              }
                            }
                          
                          }
                        }
                    ],
                    "start" : 3368,
                    "duration" : 1235,
                    "mediaStart" : -24,
                    "mediaDuration" : 1235,
                    "scalar" : 1,
                    "metadata" : {
                      "WinSubProjectDisplayName" : "",
                      "clipSpeedAttribute" : false,
                      "default-HAlign" : "center",
                      "default-VAlign" : "center",
                      "default-fill-color-blue" : 1.0,
                      "default-fill-color-green" : 1.0,
                      "default-fill-color-opacity" : 1.0,
                      "default-fill-color-red" : 1.0,
                      "default-fill-style" : "solid",
                      "default-opacity" : 1.0,
                      "default-stroke-color-opacity" : 1.0,
                      "default-text-attributes" : "[{\"name\":\"strikethrough\",\"rangeEnd\":7,\"rangeStart\":0,\"value\":0,\"valueType\":\"int\"},{\"name\":\"fontWeight\",\"rangeEnd\":7,\"rangeStart\":0,\"value\":400,\"valueType\":\"int\"},{\"name\":\"fontItalic\",\"rangeEnd\":7,\"rangeStart\":0,\"value\":0,\"valueType\":\"int\"},{\"name\":\"fgColor\",\"rangeEnd\":7,\"rangeStart\":0,\"value\":\"(255,255,255,255)\",\"valueType\":\"color\"},{\"name\":\"fontSize\",\"rangeEnd\":7,\"rangeStart\":0,\"value\":64,\"valueType\":\"double\"},{\"name\":\"underline\",\"rangeEnd\":7,\"rangeStart\":0,\"value\":0,\"valueType\":\"int\"},{\"name\":\"fontName\",\"rangeEnd\":7,\"rangeStart\":0,\"value\":\"Montserrat\",\"valueType\":\"string\"}]",
                      "default-translation0" : 0.0,
                      "default-translation1" : 0.0
                    },
                    "animationTracks" : {

                    }
                  },
                  {
                    "id" : 26,
                    "_type" : "Callout",
                    "def" : {
                      "kind" : "remix",
                      "shape" : "text-rectangle",
                      "style" : "basic",
                      "fill-color-blue" : 0.317647058823529,
                      "fill-color-green" : 0.690196078431373,
                      "fill-color-opacity" : 1.0,
                      "fill-color-red" : 0.886274509803922,
                      "height" : 112.572533849175,
                      "stroke-color-blue" : 0.56078431372549,
                      "stroke-color-green" : 0.686274509803922,
                      "stroke-color-opacity" : 0.0,
                      "stroke-color-red" : 0.0196078431372549,
                      "stroke-width" : 2.0,
                      "tail-x" : -8.53481624745914,
                      "tail-y" : -50.0773694390756,
                      "width" : 367.069632494918,
                      "word-wrap" : 1.0,
                      "fill-style" : "solid",
                      "horizontal-alignment" : "center",
                      "stroke-style" : "solid",
                      "text" : "MEMORY",
                      "vertical-alignment" : "center",
                      "font" : {
                        "color-blue" : 0.266666666666667,
                        "color-green" : 0.231372549019608,
                        "color-opacity" : 1.0,
                        "color-red" : 0.184313725490196,
                        "size" : 64.0,
                        "tracking" : 0.0,
                        "name" : "Montserrat",
                        "weight" : "Regular"
                      },
                      "textAttributes" : {
                        "type" : "textAttributeList",
                        "keyframes" : [
                          {
                            "time" : 0,
                            "value" : [{"name":"underline","rangeEnd":6,"rangeStart":0,"value":0,"valueType":"int"},{"name":"fontItalic","rangeEnd":6,"rangeStart":0,"value":0,"valueType":"int"},{"name":"strikethrough","rangeEnd":6,"rangeStart":0,"value":0,"valueType":"int"},{"name":"fontName","rangeEnd":6,"rangeStart":0,"value":"Montserrat","valueType":"string"},{"name":"fontWeight","rangeEnd":6,"rangeStart":0,"value":400,"valueType":"int"},{"name":"fgColor","rangeEnd":6,"rangeStart":0,"value":"(255,255,255,255)","valueType":"color"},{"name":"fontSize","rangeEnd":6,"rangeStart":0,"value":76,"valueType":"double"}],
                            "duration" : 0
                          }
                        ]
                      }
                    },
                    "attributes" : {
                      "autoRotateText" : true
                    },
                    "parameters" : {
                      "translation0" : 17.1062448188857,
                      "translation1" : 486.369162751957
                    },
                    "effects" : [
                        {
                          "effectName" : "DropShadow",
                          "category" : "categoryVisualEffects",
                          "parameters" : {
                            "angle" : 5.49778714378214,
                            "blur" : 10.0,
                            "color-alpha" : 1.0,
                            "color-blue" : 0.968627450980392,
                            "color-green" : 0.0196078431372549,
                            "color-red" : 0.152941176470588,
                            "enabled" : 1,
                            "offset" : 5.83333333333332,
                            "opacity" : 0.4
                          },
                          "metadata" : {
                            "default-dropshadow-color-b" : 0.1216,
                            "default-dropshadow-color-g" : 0.1216,
                            "default-dropshadow-color-r" : 0.1216,
                            "default-dropshadow-offset" : 10.0
                          }
                        },
                        {
                          "_type" : "GenericBehaviorEffect",
                          "effectName" : "reveal",
                          "start" : 16,
                          "duration" : 319                        ,
                          "in" : {
                            "attributes" : {
                              "name" : "reveal",
                              "type" : 0,
                              "characterOrder" : 7,
                              "offsetBetweenCharacters" : "3/2",
                              "suggestedDurationPerCharacter" : 22,
                              "overlapProportion" : 0,
                              "movement" : 16,
                              "springDamping" : 5.0,
                              "springStiffness" : 50.0,
                              "bounceBounciness" : 0.45
                            },
                            "parameters" : {
                              "direction" : {
                                "type" : "int",
                                "valueBounds" : {
                                  "minValue" : 0,
                                  "maxValue" : 3,
                                  "defaultValue" : 0
                                },
                                "uiHints" : {
                                  "userInterfaceType" : 2,
                                  "unitType" : 0
                                },
                                "keyframes" : [
                                  {
                                    "time" : 0,
                                    "value" : 0,
                                    "duration" : 0
                                  }
                                ]
                              }
                            }
                          
                          },
                          "center" : {
                            "attributes" : {
                              "name" : "reveal",
                              "type" : 0,
                              "characterOrder" : 2,
                              "offsetBetweenCharacters" : "51/10",
                              "secondsPerLoop" : "233/100",
                              "numberOfLoops" : -1,
                              "delayBetweenLoops" : 15,
                              "offsetBetweenCharacters" : "51/10"
                            },
                            "parameters" : {
                              "movement" : {
                                "type" : "int",
                                "valueBounds" : {
                                  "minValue" : 0,
                                  "maxValue" : 31,
                                  "defaultValue" : 0
                                },
                                "uiHints" : {
                                  "userInterfaceType" : 4,
                                  "unitType" : 0
                                },
                                "keyframes" : [
                                  {
                                    "time" : 0,
                                    "value" : 0,
                                    "duration" : 0
                                  }
                                ]
                              },
                              "opacity" : {
                                "type" : "double",
                                "defaultValue" : 0.45,
                                "valueBounds" : {
                                  "minValue" : 0.0,
                                  "maxValue" : 1.0,
                                  "defaultValue" : 0.45
                                },
                                "uiHints" : {
                                  "userInterfaceType" : 1,
                                  "unitType" : 1
                                }
                              }
                            }
                          
                          },
                          "out" : {
                            "attributes" : {
                              "name" : "reveal",
                              "type" : 0,
                              "characterOrder" : 7,
                              "offsetBetweenCharacters" : "3/2",
                              "suggestedDurationPerCharacter" : 17,
                              "overlapProportion" : "1/2",
                              "movement" : 6,
                              "springDamping" : 5.0,
                              "springStiffness" : 50.0,
                              "bounceBounciness" : 0.45
                            },
                            "parameters" : {
                              "direction" : {
                                "type" : "int",
                                "valueBounds" : {
                                  "minValue" : 0,
                                  "maxValue" : 3,
                                  "defaultValue" : 2
                                },
                                "uiHints" : {
                                  "userInterfaceType" : 2,
                                  "unitType" : 0
                                },
                                "keyframes" : [
                                  {
                                    "time" : 0,
                                    "value" : 2,
                                    "duration" : 0
                                  }
                                ]
                              }
                            }
                          
                          }
                        }
                    ],
                    "start" : 4618,
                    "duration" : 319,
                    "mediaStart" : 16,
                    "mediaDuration" : 319,
                    "scalar" : 1,
                    "metadata" : {
                      "WinSubProjectDisplayName" : "",
                      "clipSpeedAttribute" : false,
                      "default-HAlign" : "center",
                      "default-VAlign" : "center",
                      "default-fill-color-blue" : 1.0,
                      "default-fill-color-green" : 1.0,
                      "default-fill-color-opacity" : 1.0,
                      "default-fill-color-red" : 1.0,
                      "default-fill-style" : "solid",
                      "default-opacity" : 1.0,
                      "default-stroke-color-opacity" : 1.0,
                      "default-text-attributes" : "[{\"name\":\"strikethrough\",\"rangeEnd\":7,\"rangeStart\":0,\"value\":0,\"valueType\":\"int\"},{\"name\":\"fontWeight\",\"rangeEnd\":7,\"rangeStart\":0,\"value\":400,\"valueType\":\"int\"},{\"name\":\"fontItalic\",\"rangeEnd\":7,\"rangeStart\":0,\"value\":0,\"valueType\":\"int\"},{\"name\":\"fgColor\",\"rangeEnd\":7,\"rangeStart\":0,\"value\":\"(255,255,255,255)\",\"valueType\":\"color\"},{\"name\":\"fontSize\",\"rangeEnd\":7,\"rangeStart\":0,\"value\":64,\"valueType\":\"double\"},{\"name\":\"underline\",\"rangeEnd\":7,\"rangeStart\":0,\"value\":0,\"valueType\":\"int\"},{\"name\":\"fontName\",\"rangeEnd\":7,\"rangeStart\":0,\"value\":\"Montserrat\",\"valueType\":\"string\"}]",
                      "default-translation0" : 0.0,
                      "default-translation1" : 0.0
                    },
                    "animationTracks" : {

                    }
                  },
                  {
                    "id" : 27,
                    "_type" : "Callout",
                    "def" : {
                      "kind" : "remix",
                      "shape" : "text-rectangle",
                      "style" : "basic",
                      "fill-color-blue" : 0.317647058823529,
                      "fill-color-green" : 0.690196078431373,
                      "fill-color-opacity" : 1.0,
                      "fill-color-red" : 0.886274509803922,
                      "height" : 112.572533849175,
                      "stroke-color-blue" : 0.56078431372549,
                      "stroke-color-green" : 0.686274509803922,
                      "stroke-color-opacity" : 0.0,
                      "stroke-color-red" : 0.0196078431372549,
                      "stroke-width" : 2.0,
                      "tail-x" : 5.10154738901225,
                      "tail-y" : -50.0773694390756,
                      "width" : 394.342359767861,
                      "word-wrap" : 1.0,
                      "fill-style" : "solid",
                      "horizontal-alignment" : "center",
                      "stroke-style" : "solid",
                      "text" : "MAIN CAMERA",
                      "vertical-alignment" : "center",
                      "font" : {
                        "color-blue" : 0.266666666666667,
                        "color-green" : 0.231372549019608,
                        "color-opacity" : 1.0,
                        "color-red" : 0.184313725490196,
                        "size" : 64.0,
                        "tracking" : 0.0,
                        "name" : "Montserrat",
                        "weight" : "Regular"
                      },
                      "textAttributes" : {
                        "type" : "textAttributeList",
                        "keyframes" : [
                          {
                            "time" : 0,
                            "value" : [{"name":"strikethrough","rangeEnd":11,"rangeStart":0,"value":0,"valueType":"int"},{"name":"fgColor","rangeEnd":11,"rangeStart":0,"value":"(255,255,255,255)","valueType":"color"},{"name":"underline","rangeEnd":11,"rangeStart":0,"value":0,"valueType":"int"},{"name":"fontSize","rangeEnd":11,"rangeStart":0,"value":76,"valueType":"double"},{"name":"fontName","rangeEnd":11,"rangeStart":0,"value":"Montserrat","valueType":"string"},{"name":"fontWeight","rangeEnd":11,"rangeStart":0,"value":400,"valueType":"int"},{"name":"fontItalic","rangeEnd":11,"rangeStart":0,"value":0,"valueType":"int"}],
                            "duration" : 0
                          }
                        ]
                      }
                    },
                    "attributes" : {
                      "autoRotateText" : true
                    },
                    "parameters" : {
                      "translation0" : 6.45689416942778,
                      "translation1" : 477.278253661058
                    },
                    "effects" : [
                        {
                          "effectName" : "DropShadow",
                          "category" : "categoryVisualEffects",
                          "parameters" : {
                            "angle" : 5.49778714378214,
                            "blur" : 10.0,
                            "color-alpha" : 1.0,
                            "color-blue" : 0.968627450980392,
                            "color-green" : 0.0196078431372549,
                            "color-red" : 0.152941176470588,
                            "enabled" : 1,
                            "offset" : 5.83333333333332,
                            "opacity" : 0.4
                          },
                          "metadata" : {
                            "default-dropshadow-color-b" : 0.1216,
                            "default-dropshadow-color-g" : 0.1216,
                            "default-dropshadow-color-r" : 0.1216,
                            "default-dropshadow-offset" : 10.0
                          }
                        },
                        {
                          "_type" : "GenericBehaviorEffect",
                          "effectName" : "reveal",
                          "start" : 4,
                          "duration" : 997                        ,
                          "in" : {
                            "attributes" : {
                              "name" : "reveal",
                              "type" : 0,
                              "characterOrder" : 7,
                              "offsetBetweenCharacters" : "3/2",
                              "suggestedDurationPerCharacter" : 22,
                              "overlapProportion" : 0,
                              "movement" : 16,
                              "springDamping" : 5.0,
                              "springStiffness" : 50.0,
                              "bounceBounciness" : 0.45
                            },
                            "parameters" : {
                              "direction" : {
                                "type" : "int",
                                "valueBounds" : {
                                  "minValue" : 0,
                                  "maxValue" : 3,
                                  "defaultValue" : 0
                                },
                                "uiHints" : {
                                  "userInterfaceType" : 2,
                                  "unitType" : 0
                                },
                                "keyframes" : [
                                  {
                                    "time" : 0,
                                    "value" : 0,
                                    "duration" : 0
                                  }
                                ]
                              }
                            }
                          
                          },
                          "center" : {
                            "attributes" : {
                              "name" : "reveal",
                              "type" : 0,
                              "characterOrder" : 2,
                              "offsetBetweenCharacters" : "51/10",
                              "secondsPerLoop" : "233/100",
                              "numberOfLoops" : -1,
                              "delayBetweenLoops" : 15,
                              "offsetBetweenCharacters" : "51/10"
                            },
                            "parameters" : {
                              "movement" : {
                                "type" : "int",
                                "valueBounds" : {
                                  "minValue" : 0,
                                  "maxValue" : 31,
                                  "defaultValue" : 0
                                },
                                "uiHints" : {
                                  "userInterfaceType" : 4,
                                  "unitType" : 0
                                },
                                "keyframes" : [
                                  {
                                    "time" : 0,
                                    "value" : 0,
                                    "duration" : 0
                                  }
                                ]
                              },
                              "opacity" : {
                                "type" : "double",
                                "defaultValue" : 0.45,
                                "valueBounds" : {
                                  "minValue" : 0.0,
                                  "maxValue" : 1.0,
                                  "defaultValue" : 0.45
                                },
                                "uiHints" : {
                                  "userInterfaceType" : 1,
                                  "unitType" : 1
                                }
                              }
                            }
                          
                          },
                          "out" : {
                            "attributes" : {
                              "name" : "reveal",
                              "type" : 0,
                              "characterOrder" : 7,
                              "offsetBetweenCharacters" : "3/2",
                              "suggestedDurationPerCharacter" : 17,
                              "overlapProportion" : "1/2",
                              "movement" : 6,
                              "springDamping" : 5.0,
                              "springStiffness" : 50.0,
                              "bounceBounciness" : 0.45
                            },
                            "parameters" : {
                              "direction" : {
                                "type" : "int",
                                "valueBounds" : {
                                  "minValue" : 0,
                                  "maxValue" : 3,
                                  "defaultValue" : 2
                                },
                                "uiHints" : {
                                  "userInterfaceType" : 2,
                                  "unitType" : 0
                                },
                                "keyframes" : [
                                  {
                                    "time" : 0,
                                    "value" : 2,
                                    "duration" : 0
                                  }
                                ]
                              }
                            }
                          
                          }
                        }
                    ],
                    "start" : 4948,
                    "duration" : 997,
                    "mediaStart" : 4,
                    "mediaDuration" : 997,
                    "scalar" : 1,
                    "metadata" : {
                      "WinSubProjectDisplayName" : "",
                      "clipSpeedAttribute" : false,
                      "default-HAlign" : "center",
                      "default-VAlign" : "center",
                      "default-fill-color-blue" : 1.0,
                      "default-fill-color-green" : 1.0,
                      "default-fill-color-opacity" : 1.0,
                      "default-fill-color-red" : 1.0,
                      "default-fill-style" : "solid",
                      "default-opacity" : 1.0,
                      "default-stroke-color-opacity" : 1.0,
                      "default-text-attributes" : "[{\"name\":\"strikethrough\",\"rangeEnd\":7,\"rangeStart\":0,\"value\":0,\"valueType\":\"int\"},{\"name\":\"fontWeight\",\"rangeEnd\":7,\"rangeStart\":0,\"value\":400,\"valueType\":\"int\"},{\"name\":\"fontItalic\",\"rangeEnd\":7,\"rangeStart\":0,\"value\":0,\"valueType\":\"int\"},{\"name\":\"fgColor\",\"rangeEnd\":7,\"rangeStart\":0,\"value\":\"(255,255,255,255)\",\"valueType\":\"color\"},{\"name\":\"fontSize\",\"rangeEnd\":7,\"rangeStart\":0,\"value\":64,\"valueType\":\"double\"},{\"name\":\"underline\",\"rangeEnd\":7,\"rangeStart\":0,\"value\":0,\"valueType\":\"int\"},{\"name\":\"fontName\",\"rangeEnd\":7,\"rangeStart\":0,\"value\":\"Montserrat\",\"valueType\":\"string\"}]",
                      "default-translation0" : 0.0,
                      "default-translation1" : 0.0
                    },
                    "animationTracks" : {

                    }
                  },
                  {
                    "id" : 28,
                    "_type" : "Callout",
                    "def" : {
                      "kind" : "remix",
                      "shape" : "text-rectangle",
                      "style" : "basic",
                      "fill-color-blue" : 0.317647058823529,
                      "fill-color-green" : 0.690196078431373,
                      "fill-color-opacity" : 1.0,
                      "fill-color-red" : 0.886274509803922,
                      "height" : 112.572533849175,
                      "stroke-color-blue" : 0.56078431372549,
                      "stroke-color-green" : 0.686274509803922,
                      "stroke-color-opacity" : 0.0,
                      "stroke-color-red" : 0.0196078431372549,
                      "stroke-width" : 2.0,
                      "tail-x" : 5.10154738901225,
                      "tail-y" : -50.0773694390756,
                      "width" : 394.342359767861,
                      "word-wrap" : 1.0,
                      "fill-style" : "solid",
                      "horizontal-alignment" : "center",
                      "stroke-style" : "solid",
                      "text" : "SELFIE CAMERA",
                      "vertical-alignment" : "center",
                      "font" : {
                        "color-blue" : 0.266666666666667,
                        "color-green" : 0.231372549019608,
                        "color-opacity" : 1.0,
                        "color-red" : 0.184313725490196,
                        "size" : 64.0,
                        "tracking" : 0.0,
                        "name" : "Montserrat",
                        "weight" : "Regular"
                      },
                      "textAttributes" : {
                        "type" : "textAttributeList",
                        "keyframes" : [
                          {
                            "time" : 0,
                            "value" : [{"name":"fontName","rangeEnd":13,"rangeStart":0,"value":"Montserrat","valueType":"string"},{"name":"strikethrough","rangeEnd":13,"rangeStart":0,"value":0,"valueType":"int"},{"name":"underline","rangeEnd":13,"rangeStart":0,"value":0,"valueType":"int"},{"name":"fontWeight","rangeEnd":13,"rangeStart":0,"value":400,"valueType":"int"},{"name":"fontItalic","rangeEnd":13,"rangeStart":0,"value":0,"valueType":"int"},{"name":"fontSize","rangeEnd":13,"rangeStart":0,"value":64,"valueType":"double"},{"name":"fgColor","rangeEnd":13,"rangeStart":0,"value":"(255,255,255,255)","valueType":"color"}],
                            "duration" : 0
                          }
                        ]
                      }
                    },
                    "attributes" : {
                      "autoRotateText" : true
                    },
                    "parameters" : {
                      "translation0" : 6.45689416942778,
                      "translation1" : 477.278253661058
                    },
                    "effects" : [
                        {
                          "effectName" : "DropShadow",
                          "category" : "categoryVisualEffects",
                          "parameters" : {
                            "angle" : 5.49778714378214,
                            "blur" : 10.0,
                            "color-alpha" : 1.0,
                            "color-blue" : 0.968627450980392,
                            "color-green" : 0.0196078431372549,
                            "color-red" : 0.152941176470588,
                            "enabled" : 1,
                            "offset" : 5.83333333333332,
                            "opacity" : 0.4
                          },
                          "metadata" : {
                            "default-dropshadow-color-b" : 0.1216,
                            "default-dropshadow-color-g" : 0.1216,
                            "default-dropshadow-color-r" : 0.1216,
                            "default-dropshadow-offset" : 10.0
                          }
                        },
                        {
                          "_type" : "GenericBehaviorEffect",
                          "effectName" : "reveal",
                          "start" : 13,
                          "duration" : 917                        ,
                          "in" : {
                            "attributes" : {
                              "name" : "reveal",
                              "type" : 0,
                              "characterOrder" : 7,
                              "offsetBetweenCharacters" : "3/2",
                              "suggestedDurationPerCharacter" : 22,
                              "overlapProportion" : 0,
                              "movement" : 16,
                              "springDamping" : 5.0,
                              "springStiffness" : 50.0,
                              "bounceBounciness" : 0.45
                            },
                            "parameters" : {
                              "direction" : {
                                "type" : "int",
                                "valueBounds" : {
                                  "minValue" : 0,
                                  "maxValue" : 3,
                                  "defaultValue" : 0
                                },
                                "uiHints" : {
                                  "userInterfaceType" : 2,
                                  "unitType" : 0
                                },
                                "keyframes" : [
                                  {
                                    "time" : 0,
                                    "value" : 0,
                                    "duration" : 0
                                  }
                                ]
                              }
                            }
                          
                          },
                          "center" : {
                            "attributes" : {
                              "name" : "reveal",
                              "type" : 0,
                              "characterOrder" : 2,
                              "offsetBetweenCharacters" : "51/10",
                              "secondsPerLoop" : "233/100",
                              "numberOfLoops" : -1,
                              "delayBetweenLoops" : 15,
                              "offsetBetweenCharacters" : "51/10"
                            },
                            "parameters" : {
                              "movement" : {
                                "type" : "int",
                                "valueBounds" : {
                                  "minValue" : 0,
                                  "maxValue" : 31,
                                  "defaultValue" : 0
                                },
                                "uiHints" : {
                                  "userInterfaceType" : 4,
                                  "unitType" : 0
                                },
                                "keyframes" : [
                                  {
                                    "time" : 0,
                                    "value" : 0,
                                    "duration" : 0
                                  }
                                ]
                              },
                              "opacity" : {
                                "type" : "double",
                                "defaultValue" : 0.45,
                                "valueBounds" : {
                                  "minValue" : 0.0,
                                  "maxValue" : 1.0,
                                  "defaultValue" : 0.45
                                },
                                "uiHints" : {
                                  "userInterfaceType" : 1,
                                  "unitType" : 1
                                }
                              }
                            }
                          
                          },
                          "out" : {
                            "attributes" : {
                              "name" : "reveal",
                              "type" : 0,
                              "characterOrder" : 7,
                              "offsetBetweenCharacters" : "3/2",
                              "suggestedDurationPerCharacter" : 17,
                              "overlapProportion" : "1/2",
                              "movement" : 6,
                              "springDamping" : 5.0,
                              "springStiffness" : 50.0,
                              "bounceBounciness" : 0.45
                            },
                            "parameters" : {
                              "direction" : {
                                "type" : "int",
                                "valueBounds" : {
                                  "minValue" : 0,
                                  "maxValue" : 3,
                                  "defaultValue" : 2
                                },
                                "uiHints" : {
                                  "userInterfaceType" : 2,
                                  "unitType" : 0
                                },
                                "keyframes" : [
                                  {
                                    "time" : 0,
                                    "value" : 2,
                                    "duration" : 0
                                  }
                                ]
                              }
                            }
                          
                          }
                        }
                    ],
                    "start" : 5959,
                    "duration" : 917,
                    "mediaStart" : 13,
                    "mediaDuration" : 917,
                    "scalar" : 1,
                    "metadata" : {
                      "WinSubProjectDisplayName" : "",
                      "clipSpeedAttribute" : false,
                      "default-HAlign" : "center",
                      "default-VAlign" : "center",
                      "default-fill-color-blue" : 1.0,
                      "default-fill-color-green" : 1.0,
                      "default-fill-color-opacity" : 1.0,
                      "default-fill-color-red" : 1.0,
                      "default-fill-style" : "solid",
                      "default-opacity" : 1.0,
                      "default-stroke-color-opacity" : 1.0,
                      "default-text-attributes" : "[{\"name\":\"strikethrough\",\"rangeEnd\":7,\"rangeStart\":0,\"value\":0,\"valueType\":\"int\"},{\"name\":\"fontWeight\",\"rangeEnd\":7,\"rangeStart\":0,\"value\":400,\"valueType\":\"int\"},{\"name\":\"fontItalic\",\"rangeEnd\":7,\"rangeStart\":0,\"value\":0,\"valueType\":\"int\"},{\"name\":\"fgColor\",\"rangeEnd\":7,\"rangeStart\":0,\"value\":\"(255,255,255,255)\",\"valueType\":\"color\"},{\"name\":\"fontSize\",\"rangeEnd\":7,\"rangeStart\":0,\"value\":64,\"valueType\":\"double\"},{\"name\":\"underline\",\"rangeEnd\":7,\"rangeStart\":0,\"value\":0,\"valueType\":\"int\"},{\"name\":\"fontName\",\"rangeEnd\":7,\"rangeStart\":0,\"value\":\"Montserrat\",\"valueType\":\"string\"}]",
                      "default-translation0" : 0.0,
                      "default-translation1" : 0.0
                    },
                    "animationTracks" : {

                    }
                  },
                  {
                    "id" : 29,
                    "_type" : "Callout",
                    "def" : {
                      "kind" : "remix",
                      "shape" : "text-rectangle",
                      "style" : "basic",
                      "fill-color-blue" : 0.317647058823529,
                      "fill-color-green" : 0.690196078431373,
                      "fill-color-opacity" : 1.0,
                      "fill-color-red" : 0.886274509803922,
                      "height" : 112.572533849175,
                      "stroke-color-blue" : 0.56078431372549,
                      "stroke-color-green" : 0.686274509803922,
                      "stroke-color-opacity" : 0.0,
                      "stroke-color-red" : 0.0196078431372549,
                      "stroke-width" : 2.0,
                      "tail-x" : 5.10154738901225,
                      "tail-y" : -50.0773694390756,
                      "width" : 394.342359767861,
                      "word-wrap" : 1.0,
                      "fill-style" : "solid",
                      "horizontal-alignment" : "center",
                      "stroke-style" : "solid",
                      "text" : "SOUND",
                      "vertical-alignment" : "center",
                      "font" : {
                        "color-blue" : 0.266666666666667,
                        "color-green" : 0.231372549019608,
                        "color-opacity" : 1.0,
                        "color-red" : 0.184313725490196,
                        "size" : 64.0,
                        "tracking" : 0.0,
                        "name" : "Montserrat",
                        "weight" : "Regular"
                      },
                      "textAttributes" : {
                        "type" : "textAttributeList",
                        "keyframes" : [
                          {
                            "time" : 0,
                            "value" : [{"name":"strikethrough","rangeEnd":5,"rangeStart":0,"value":0,"valueType":"int"},{"name":"fontName","rangeEnd":5,"rangeStart":0,"value":"Montserrat","valueType":"string"},{"name":"underline","rangeEnd":5,"rangeStart":0,"value":0,"valueType":"int"},{"name":"fontItalic","rangeEnd":5,"rangeStart":0,"value":0,"valueType":"int"},{"name":"fontWeight","rangeEnd":5,"rangeStart":0,"value":400,"valueType":"int"},{"name":"fgColor","rangeEnd":5,"rangeStart":0,"value":"(255,255,255,255)","valueType":"color"},{"name":"fontSize","rangeEnd":5,"rangeStart":0,"value":64,"valueType":"double"}],
                            "duration" : 0
                          }
                        ]
                      }
                    },
                    "attributes" : {
                      "autoRotateText" : true
                    },
                    "parameters" : {
                      "translation0" : 6.45689416942778,
                      "translation1" : 477.278253661058
                    },
                    "effects" : [
                        {
                          "effectName" : "DropShadow",
                          "category" : "categoryVisualEffects",
                          "parameters" : {
                            "angle" : 5.49778714378214,
                            "blur" : 10.0,
                            "color-alpha" : 1.0,
                            "color-blue" : 0.968627450980392,
                            "color-green" : 0.0196078431372549,
                            "color-red" : 0.152941176470588,
                            "enabled" : 1,
                            "offset" : 5.83333333333332,
                            "opacity" : 0.4
                          },
                          "metadata" : {
                            "default-dropshadow-color-b" : 0.1216,
                            "default-dropshadow-color-g" : 0.1216,
                            "default-dropshadow-color-r" : 0.1216,
                            "default-dropshadow-offset" : 10.0
                          }
                        },
                        {
                          "_type" : "GenericBehaviorEffect",
                          "effectName" : "reveal",
                          "start" : 22,
                          "duration" : 544                        ,
                          "in" : {
                            "attributes" : {
                              "name" : "reveal",
                              "type" : 0,
                              "characterOrder" : 7,
                              "offsetBetweenCharacters" : "3/2",
                              "suggestedDurationPerCharacter" : 22,
                              "overlapProportion" : 0,
                              "movement" : 16,
                              "springDamping" : 5.0,
                              "springStiffness" : 50.0,
                              "bounceBounciness" : 0.45
                            },
                            "parameters" : {
                              "direction" : {
                                "type" : "int",
                                "valueBounds" : {
                                  "minValue" : 0,
                                  "maxValue" : 3,
                                  "defaultValue" : 0
                                },
                                "uiHints" : {
                                  "userInterfaceType" : 2,
                                  "unitType" : 0
                                },
                                "keyframes" : [
                                  {
                                    "time" : 0,
                                    "value" : 0,
                                    "duration" : 0
                                  }
                                ]
                              }
                            }
                          
                          },
                          "center" : {
                            "attributes" : {
                              "name" : "reveal",
                              "type" : 0,
                              "characterOrder" : 2,
                              "offsetBetweenCharacters" : "51/10",
                              "secondsPerLoop" : "233/100",
                              "numberOfLoops" : -1,
                              "delayBetweenLoops" : 15,
                              "offsetBetweenCharacters" : "51/10"
                            },
                            "parameters" : {
                              "movement" : {
                                "type" : "int",
                                "valueBounds" : {
                                  "minValue" : 0,
                                  "maxValue" : 31,
                                  "defaultValue" : 0
                                },
                                "uiHints" : {
                                  "userInterfaceType" : 4,
                                  "unitType" : 0
                                },
                                "keyframes" : [
                                  {
                                    "time" : 0,
                                    "value" : 0,
                                    "duration" : 0
                                  }
                                ]
                              },
                              "opacity" : {
                                "type" : "double",
                                "defaultValue" : 0.45,
                                "valueBounds" : {
                                  "minValue" : 0.0,
                                  "maxValue" : 1.0,
                                  "defaultValue" : 0.45
                                },
                                "uiHints" : {
                                  "userInterfaceType" : 1,
                                  "unitType" : 1
                                }
                              }
                            }
                          
                          },
                          "out" : {
                            "attributes" : {
                              "name" : "reveal",
                              "type" : 0,
                              "characterOrder" : 7,
                              "offsetBetweenCharacters" : "3/2",
                              "suggestedDurationPerCharacter" : 17,
                              "overlapProportion" : "1/2",
                              "movement" : 6,
                              "springDamping" : 5.0,
                              "springStiffness" : 50.0,
                              "bounceBounciness" : 0.45
                            },
                            "parameters" : {
                              "direction" : {
                                "type" : "int",
                                "valueBounds" : {
                                  "minValue" : 0,
                                  "maxValue" : 3,
                                  "defaultValue" : 2
                                },
                                "uiHints" : {
                                  "userInterfaceType" : 2,
                                  "unitType" : 0
                                },
                                "keyframes" : [
                                  {
                                    "time" : 0,
                                    "value" : 2,
                                    "duration" : 0
                                  }
                                ]
                              }
                            }
                          
                          }
                        }
                    ],
                    "start" : 6889,
                    "duration" : 544,
                    "mediaStart" : 22,
                    "mediaDuration" : 544,
                    "scalar" : 1,
                    "metadata" : {
                      "WinSubProjectDisplayName" : "",
                      "clipSpeedAttribute" : false,
                      "default-HAlign" : "center",
                      "default-VAlign" : "center",
                      "default-fill-color-blue" : 1.0,
                      "default-fill-color-green" : 1.0,
                      "default-fill-color-opacity" : 1.0,
                      "default-fill-color-red" : 1.0,
                      "default-fill-style" : "solid",
                      "default-opacity" : 1.0,
                      "default-stroke-color-opacity" : 1.0,
                      "default-text-attributes" : "[{\"name\":\"strikethrough\",\"rangeEnd\":7,\"rangeStart\":0,\"value\":0,\"valueType\":\"int\"},{\"name\":\"fontWeight\",\"rangeEnd\":7,\"rangeStart\":0,\"value\":400,\"valueType\":\"int\"},{\"name\":\"fontItalic\",\"rangeEnd\":7,\"rangeStart\":0,\"value\":0,\"valueType\":\"int\"},{\"name\":\"fgColor\",\"rangeEnd\":7,\"rangeStart\":0,\"value\":\"(255,255,255,255)\",\"valueType\":\"color\"},{\"name\":\"fontSize\",\"rangeEnd\":7,\"rangeStart\":0,\"value\":64,\"valueType\":\"double\"},{\"name\":\"underline\",\"rangeEnd\":7,\"rangeStart\":0,\"value\":0,\"valueType\":\"int\"},{\"name\":\"fontName\",\"rangeEnd\":7,\"rangeStart\":0,\"value\":\"Montserrat\",\"valueType\":\"string\"}]",
                      "default-translation0" : 0.0,
                      "default-translation1" : 0.0
                    },
                    "animationTracks" : {

                    }
                  },
                  {
                    "id" : 30,
                    "_type" : "Callout",
                    "def" : {
                      "kind" : "remix",
                      "shape" : "text-rectangle",
                      "style" : "basic",
                      "fill-color-blue" : 0.317647058823529,
                      "fill-color-green" : 0.690196078431373,
                      "fill-color-opacity" : 1.0,
                      "fill-color-red" : 0.886274509803922,
                      "height" : 112.572533849175,
                      "stroke-color-blue" : 0.56078431372549,
                      "stroke-color-green" : 0.686274509803922,
                      "stroke-color-opacity" : 0.0,
                      "stroke-color-red" : 0.0196078431372549,
                      "stroke-width" : 2.0,
                      "tail-x" : 5.10154738901225,
                      "tail-y" : -50.0773694390756,
                      "width" : 394.342359767861,
                      "word-wrap" : 1.0,
                      "fill-style" : "solid",
                      "horizontal-alignment" : "center",
                      "stroke-style" : "solid",
                      "text" : "COMMS",
                      "vertical-alignment" : "center",
                      "font" : {
                        "color-blue" : 0.266666666666667,
                        "color-green" : 0.231372549019608,
                        "color-opacity" : 1.0,
                        "color-red" : 0.184313725490196,
                        "size" : 64.0,
                        "tracking" : 0.0,
                        "name" : "Montserrat",
                        "weight" : "Regular"
                      },
                      "textAttributes" : {
                        "type" : "textAttributeList",
                        "keyframes" : [
                          {
                            "time" : 0,
                            "value" : [{"name":"fgColor","rangeEnd":5,"rangeStart":0,"value":"(255,255,255,255)","valueType":"color"},{"name":"fontSize","rangeEnd":5,"rangeStart":0,"value":64,"valueType":"double"},{"name":"fontName","rangeEnd":5,"rangeStart":0,"value":"Montserrat","valueType":"string"},{"name":"fontItalic","rangeEnd":5,"rangeStart":0,"value":0,"valueType":"int"},{"name":"strikethrough","rangeEnd":5,"rangeStart":0,"value":0,"valueType":"int"},{"name":"fontWeight","rangeEnd":5,"rangeStart":0,"value":400,"valueType":"int"},{"name":"underline","rangeEnd":5,"rangeStart":0,"value":0,"valueType":"int"}],
                            "duration" : 0
                          }
                        ]
                      }
                    },
                    "attributes" : {
                      "autoRotateText" : true
                    },
                    "parameters" : {
                      "translation0" : 6.45689416942778,
                      "translation1" : 477.278253661058
                    },
                    "effects" : [
                        {
                          "effectName" : "DropShadow",
                          "category" : "categoryVisualEffects",
                          "parameters" : {
                            "angle" : 5.49778714378214,
                            "blur" : 10.0,
                            "color-alpha" : 1.0,
                            "color-blue" : 0.968627450980392,
                            "color-green" : 0.0196078431372549,
                            "color-red" : 0.152941176470588,
                            "enabled" : 1,
                            "offset" : 5.83333333333332,
                            "opacity" : 0.4
                          },
                          "metadata" : {
                            "default-dropshadow-color-b" : 0.1216,
                            "default-dropshadow-color-g" : 0.1216,
                            "default-dropshadow-color-r" : 0.1216,
                            "default-dropshadow-offset" : 10.0
                          }
                        },
                        {
                          "_type" : "GenericBehaviorEffect",
                          "effectName" : "reveal",
                          "start" : 9,
                          "duration" : 2301                        ,
                          "in" : {
                            "attributes" : {
                              "name" : "reveal",
                              "type" : 0,
                              "characterOrder" : 7,
                              "offsetBetweenCharacters" : "3/2",
                              "suggestedDurationPerCharacter" : 22,
                              "overlapProportion" : 0,
                              "movement" : 16,
                              "springDamping" : 5.0,
                              "springStiffness" : 50.0,
                              "bounceBounciness" : 0.45
                            },
                            "parameters" : {
                              "direction" : {
                                "type" : "int",
                                "valueBounds" : {
                                  "minValue" : 0,
                                  "maxValue" : 3,
                                  "defaultValue" : 0
                                },
                                "uiHints" : {
                                  "userInterfaceType" : 2,
                                  "unitType" : 0
                                },
                                "keyframes" : [
                                  {
                                    "time" : 0,
                                    "value" : 0,
                                    "duration" : 0
                                  }
                                ]
                              }
                            }
                          
                          },
                          "center" : {
                            "attributes" : {
                              "name" : "reveal",
                              "type" : 0,
                              "characterOrder" : 2,
                              "offsetBetweenCharacters" : "51/10",
                              "secondsPerLoop" : "233/100",
                              "numberOfLoops" : -1,
                              "delayBetweenLoops" : 15,
                              "offsetBetweenCharacters" : "51/10"
                            },
                            "parameters" : {
                              "movement" : {
                                "type" : "int",
                                "valueBounds" : {
                                  "minValue" : 0,
                                  "maxValue" : 31,
                                  "defaultValue" : 0
                                },
                                "uiHints" : {
                                  "userInterfaceType" : 4,
                                  "unitType" : 0
                                },
                                "keyframes" : [
                                  {
                                    "time" : 0,
                                    "value" : 0,
                                    "duration" : 0
                                  }
                                ]
                              },
                              "opacity" : {
                                "type" : "double",
                                "defaultValue" : 0.45,
                                "valueBounds" : {
                                  "minValue" : 0.0,
                                  "maxValue" : 1.0,
                                  "defaultValue" : 0.45
                                },
                                "uiHints" : {
                                  "userInterfaceType" : 1,
                                  "unitType" : 1
                                }
                              }
                            }
                          
                          },
                          "out" : {
                            "attributes" : {
                              "name" : "reveal",
                              "type" : 0,
                              "characterOrder" : 7,
                              "offsetBetweenCharacters" : "3/2",
                              "suggestedDurationPerCharacter" : 17,
                              "overlapProportion" : "1/2",
                              "movement" : 6,
                              "springDamping" : 5.0,
                              "springStiffness" : 50.0,
                              "bounceBounciness" : 0.45
                            },
                            "parameters" : {
                              "direction" : {
                                "type" : "int",
                                "valueBounds" : {
                                  "minValue" : 0,
                                  "maxValue" : 3,
                                  "defaultValue" : 2
                                },
                                "uiHints" : {
                                  "userInterfaceType" : 2,
                                  "unitType" : 0
                                },
                                "keyframes" : [
                                  {
                                    "time" : 0,
                                    "value" : 2,
                                    "duration" : 0
                                  }
                                ]
                              }
                            }
                          
                          }
                        }
                    ],
                    "start" : 7444,
                    "duration" : 2301,
                    "mediaStart" : 9,
                    "mediaDuration" : 2301,
                    "scalar" : 1,
                    "metadata" : {
                      "WinSubProjectDisplayName" : "",
                      "clipSpeedAttribute" : false,
                      "default-HAlign" : "center",
                      "default-VAlign" : "center",
                      "default-fill-color-blue" : 1.0,
                      "default-fill-color-green" : 1.0,
                      "default-fill-color-opacity" : 1.0,
                      "default-fill-color-red" : 1.0,
                      "default-fill-style" : "solid",
                      "default-opacity" : 1.0,
                      "default-stroke-color-opacity" : 1.0,
                      "default-text-attributes" : "[{\"name\":\"strikethrough\",\"rangeEnd\":7,\"rangeStart\":0,\"value\":0,\"valueType\":\"int\"},{\"name\":\"fontWeight\",\"rangeEnd\":7,\"rangeStart\":0,\"value\":400,\"valueType\":\"int\"},{\"name\":\"fontItalic\",\"rangeEnd\":7,\"rangeStart\":0,\"value\":0,\"valueType\":\"int\"},{\"name\":\"fgColor\",\"rangeEnd\":7,\"rangeStart\":0,\"value\":\"(255,255,255,255)\",\"valueType\":\"color\"},{\"name\":\"fontSize\",\"rangeEnd\":7,\"rangeStart\":0,\"value\":64,\"valueType\":\"double\"},{\"name\":\"underline\",\"rangeEnd\":7,\"rangeStart\":0,\"value\":0,\"valueType\":\"int\"},{\"name\":\"fontName\",\"rangeEnd\":7,\"rangeStart\":0,\"value\":\"Montserrat\",\"valueType\":\"string\"}]",
                      "default-translation0" : 0.0,
                      "default-translation1" : 0.0
                    },
                    "animationTracks" : {

                    }
                  },
                  {
                    "id" : 31,
                    "_type" : "Callout",
                    "def" : {
                      "kind" : "remix",
                      "shape" : "text-rectangle",
                      "style" : "basic",
                      "fill-color-blue" : 0.317647058823529,
                      "fill-color-green" : 0.690196078431373,
                      "fill-color-opacity" : 1.0,
                      "fill-color-red" : 0.886274509803922,
                      "height" : 112.572533849175,
                      "stroke-color-blue" : 0.56078431372549,
                      "stroke-color-green" : 0.686274509803922,
                      "stroke-color-opacity" : 0.0,
                      "stroke-color-red" : 0.0196078431372549,
                      "stroke-width" : 2.0,
                      "tail-x" : 5.10154738901225,
                      "tail-y" : -50.0773694390756,
                      "width" : 394.342359767861,
                      "word-wrap" : 1.0,
                      "fill-style" : "solid",
                      "horizontal-alignment" : "center",
                      "stroke-style" : "solid",
                      "text" : "BATTERY",
                      "vertical-alignment" : "center",
                      "font" : {
                        "color-blue" : 0.266666666666667,
                        "color-green" : 0.231372549019608,
                        "color-opacity" : 1.0,
                        "color-red" : 0.184313725490196,
                        "size" : 64.0,
                        "tracking" : 0.0,
                        "name" : "Montserrat",
                        "weight" : "Regular"
                      },
                      "textAttributes" : {
                        "type" : "textAttributeList",
                        "keyframes" : [
                          {
                            "time" : 0,
                            "value" : [{"name":"fontItalic","rangeEnd":7,"rangeStart":0,"value":0,"valueType":"int"},{"name":"fontWeight","rangeEnd":7,"rangeStart":0,"value":400,"valueType":"int"},{"name":"fgColor","rangeEnd":7,"rangeStart":0,"value":"(255,255,255,255)","valueType":"color"},{"name":"strikethrough","rangeEnd":7,"rangeStart":0,"value":0,"valueType":"int"},{"name":"underline","rangeEnd":7,"rangeStart":0,"value":0,"valueType":"int"},{"name":"fontName","rangeEnd":7,"rangeStart":0,"value":"Montserrat","valueType":"string"},{"name":"fontSize","rangeEnd":7,"rangeStart":0,"value":64,"valueType":"double"}],
                            "duration" : 0
                          }
                        ]
                      }
                    },
                    "attributes" : {
                      "autoRotateText" : true
                    },
                    "parameters" : {
                      "translation0" : 6.45689416942778,
                      "translation1" : 477.278253661058
                    },
                    "effects" : [
                        {
                          "effectName" : "DropShadow",
                          "category" : "categoryVisualEffects",
                          "parameters" : {
                            "angle" : 5.49778714378214,
                            "blur" : 10.0,
                            "color-alpha" : 1.0,
                            "color-blue" : 0.968627450980392,
                            "color-green" : 0.0196078431372549,
                            "color-red" : 0.152941176470588,
                            "enabled" : 1,
                            "offset" : 5.83333333333332,
                            "opacity" : 0.4
                          },
                          "metadata" : {
                            "default-dropshadow-color-b" : 0.1216,
                            "default-dropshadow-color-g" : 0.1216,
                            "default-dropshadow-color-r" : 0.1216,
                            "default-dropshadow-offset" : 10.0
                          }
                        },
                        {
                          "_type" : "GenericBehaviorEffect",
                          "effectName" : "reveal",
                          "start" : 3,
                          "duration" : 693                        ,
                          "in" : {
                            "attributes" : {
                              "name" : "reveal",
                              "type" : 0,
                              "characterOrder" : 7,
                              "offsetBetweenCharacters" : "3/2",
                              "suggestedDurationPerCharacter" : 22,
                              "overlapProportion" : 0,
                              "movement" : 16,
                              "springDamping" : 5.0,
                              "springStiffness" : 50.0,
                              "bounceBounciness" : 0.45
                            },
                            "parameters" : {
                              "direction" : {
                                "type" : "int",
                                "valueBounds" : {
                                  "minValue" : 0,
                                  "maxValue" : 3,
                                  "defaultValue" : 0
                                },
                                "uiHints" : {
                                  "userInterfaceType" : 2,
                                  "unitType" : 0
                                },
                                "keyframes" : [
                                  {
                                    "time" : 0,
                                    "value" : 0,
                                    "duration" : 0
                                  }
                                ]
                              }
                            }
                          
                          },
                          "center" : {
                            "attributes" : {
                              "name" : "reveal",
                              "type" : 0,
                              "characterOrder" : 2,
                              "offsetBetweenCharacters" : "51/10",
                              "secondsPerLoop" : "233/100",
                              "numberOfLoops" : -1,
                              "delayBetweenLoops" : 15,
                              "offsetBetweenCharacters" : "51/10"
                            },
                            "parameters" : {
                              "movement" : {
                                "type" : "int",
                                "valueBounds" : {
                                  "minValue" : 0,
                                  "maxValue" : 31,
                                  "defaultValue" : 0
                                },
                                "uiHints" : {
                                  "userInterfaceType" : 4,
                                  "unitType" : 0
                                },
                                "keyframes" : [
                                  {
                                    "time" : 0,
                                    "value" : 0,
                                    "duration" : 0
                                  }
                                ]
                              },
                              "opacity" : {
                                "type" : "double",
                                "defaultValue" : 0.45,
                                "valueBounds" : {
                                  "minValue" : 0.0,
                                  "maxValue" : 1.0,
                                  "defaultValue" : 0.45
                                },
                                "uiHints" : {
                                  "userInterfaceType" : 1,
                                  "unitType" : 1
                                }
                              }
                            }
                          
                          },
                          "out" : {
                            "attributes" : {
                              "name" : "reveal",
                              "type" : 0,
                              "characterOrder" : 7,
                              "offsetBetweenCharacters" : "3/2",
                              "suggestedDurationPerCharacter" : 17,
                              "overlapProportion" : "1/2",
                              "movement" : 6,
                              "springDamping" : 5.0,
                              "springStiffness" : 50.0,
                              "bounceBounciness" : 0.45
                            },
                            "parameters" : {
                              "direction" : {
                                "type" : "int",
                                "valueBounds" : {
                                  "minValue" : 0,
                                  "maxValue" : 3,
                                  "defaultValue" : 2
                                },
                                "uiHints" : {
                                  "userInterfaceType" : 2,
                                  "unitType" : 0
                                },
                                "keyframes" : [
                                  {
                                    "time" : 0,
                                    "value" : 2,
                                    "duration" : 0
                                  }
                                ]
                              }
                            }
                          
                          }
                        }
                    ],
                    "start" : 9758,
                    "duration" : 693,
                    "mediaStart" : 3,
                    "mediaDuration" : 693,
                    "scalar" : 1,
                    "metadata" : {
                      "WinSubProjectDisplayName" : "",
                      "clipSpeedAttribute" : false,
                      "default-HAlign" : "center",
                      "default-VAlign" : "center",
                      "default-fill-color-blue" : 1.0,
                      "default-fill-color-green" : 1.0,
                      "default-fill-color-opacity" : 1.0,
                      "default-fill-color-red" : 1.0,
                      "default-fill-style" : "solid",
                      "default-opacity" : 1.0,
                      "default-stroke-color-opacity" : 1.0,
                      "default-text-attributes" : "[{\"name\":\"strikethrough\",\"rangeEnd\":7,\"rangeStart\":0,\"value\":0,\"valueType\":\"int\"},{\"name\":\"fontWeight\",\"rangeEnd\":7,\"rangeStart\":0,\"value\":400,\"valueType\":\"int\"},{\"name\":\"fontItalic\",\"rangeEnd\":7,\"rangeStart\":0,\"value\":0,\"valueType\":\"int\"},{\"name\":\"fgColor\",\"rangeEnd\":7,\"rangeStart\":0,\"value\":\"(255,255,255,255)\",\"valueType\":\"color\"},{\"name\":\"fontSize\",\"rangeEnd\":7,\"rangeStart\":0,\"value\":64,\"valueType\":\"double\"},{\"name\":\"underline\",\"rangeEnd\":7,\"rangeStart\":0,\"value\":0,\"valueType\":\"int\"},{\"name\":\"fontName\",\"rangeEnd\":7,\"rangeStart\":0,\"value\":\"Montserrat\",\"valueType\":\"string\"}]",
                      "default-translation0" : 0.0,
                      "default-translation1" : 0.0
                    },
                    "animationTracks" : {

                    }
                  },
                  {
                    "id" : 32,
                    "_type" : "Callout",
                    "def" : {
                      "kind" : "remix",
                      "shape" : "text-rectangle",
                      "style" : "basic",
                      "fill-color-blue" : 0.317647058823529,
                      "fill-color-green" : 0.690196078431373,
                      "fill-color-opacity" : 1.0,
                      "fill-color-red" : 0.886274509803922,
                      "height" : 112.572533849175,
                      "stroke-color-blue" : 0.56078431372549,
                      "stroke-color-green" : 0.686274509803922,
                      "stroke-color-opacity" : 0.0,
                      "stroke-color-red" : 0.0196078431372549,
                      "stroke-width" : 2.0,
                      "tail-x" : -37.5455114344909,
                      "tail-y" : -50.0773694390756,
                      "width" : 479.636477414867,
                      "word-wrap" : 1.0,
                      "fill-style" : "solid",
                      "horizontal-alignment" : "center",
                      "stroke-style" : "solid",
                      "text" : "COLORS-IPS-PRICE",
                      "vertical-alignment" : "center",
                      "font" : {
                        "color-blue" : 0.266666666666667,
                        "color-green" : 0.231372549019608,
                        "color-opacity" : 1.0,
                        "color-red" : 0.184313725490196,
                        "size" : 64.0,
                        "tracking" : 0.0,
                        "name" : "Montserrat",
                        "weight" : "Regular"
                      },
                      "textAttributes" : {
                        "type" : "textAttributeList",
                        "keyframes" : [
                          {
                            "time" : 0,
                            "value" : [{"name":"fontSize","rangeEnd":16,"rangeStart":0,"value":64,"valueType":"double"},{"name":"fontName","rangeEnd":16,"rangeStart":0,"value":"Montserrat","valueType":"string"},{"name":"fontItalic","rangeEnd":16,"rangeStart":0,"value":0,"valueType":"int"},{"name":"fontWeight","rangeEnd":16,"rangeStart":0,"value":400,"valueType":"int"},{"name":"strikethrough","rangeEnd":16,"rangeStart":0,"value":0,"valueType":"int"},{"name":"underline","rangeEnd":16,"rangeStart":0,"value":0,"valueType":"int"},{"name":"fgColor","rangeEnd":16,"rangeStart":0,"value":"(255,255,255,255)","valueType":"color"}],
                            "duration" : 0
                          }
                        ]
                      }
                    },
                    "attributes" : {
                      "autoRotateText" : true
                    },
                    "parameters" : {
                      "translation0" : 49.1039529929309,
                      "translation1" : 477.278253661058
                    },
                    "effects" : [
                        {
                          "effectName" : "DropShadow",
                          "category" : "categoryVisualEffects",
                          "parameters" : {
                            "angle" : 5.49778714378214,
                            "blur" : 10.0,
                            "color-alpha" : 1.0,
                            "color-blue" : 0.968627450980392,
                            "color-green" : 0.0196078431372549,
                            "color-red" : 0.152941176470588,
                            "enabled" : 1,
                            "offset" : 5.83333333333332,
                            "opacity" : 0.4
                          },
                          "metadata" : {
                            "default-dropshadow-color-b" : 0.1216,
                            "default-dropshadow-color-g" : 0.1216,
                            "default-dropshadow-color-r" : 0.1216,
                            "default-dropshadow-offset" : 10.0
                          }
                        },
                        {
                          "_type" : "GenericBehaviorEffect",
                          "effectName" : "reveal",
                          "start" : 7,
                          "duration" : 1010                        ,
                          "in" : {
                            "attributes" : {
                              "name" : "reveal",
                              "type" : 0,
                              "characterOrder" : 7,
                              "offsetBetweenCharacters" : "3/2",
                              "suggestedDurationPerCharacter" : 22,
                              "overlapProportion" : 0,
                              "movement" : 16,
                              "springDamping" : 5.0,
                              "springStiffness" : 50.0,
                              "bounceBounciness" : 0.45
                            },
                            "parameters" : {
                              "direction" : {
                                "type" : "int",
                                "valueBounds" : {
                                  "minValue" : 0,
                                  "maxValue" : 3,
                                  "defaultValue" : 0
                                },
                                "uiHints" : {
                                  "userInterfaceType" : 2,
                                  "unitType" : 0
                                },
                                "keyframes" : [
                                  {
                                    "time" : 0,
                                    "value" : 0,
                                    "duration" : 0
                                  }
                                ]
                              }
                            }
                          
                          },
                          "center" : {
                            "attributes" : {
                              "name" : "reveal",
                              "type" : 0,
                              "characterOrder" : 2,
                              "offsetBetweenCharacters" : "51/10",
                              "secondsPerLoop" : "233/100",
                              "numberOfLoops" : -1,
                              "delayBetweenLoops" : 15,
                              "offsetBetweenCharacters" : "51/10"
                            },
                            "parameters" : {
                              "movement" : {
                                "type" : "int",
                                "valueBounds" : {
                                  "minValue" : 0,
                                  "maxValue" : 31,
                                  "defaultValue" : 0
                                },
                                "uiHints" : {
                                  "userInterfaceType" : 4,
                                  "unitType" : 0
                                },
                                "keyframes" : [
                                  {
                                    "time" : 0,
                                    "value" : 0,
                                    "duration" : 0
                                  }
                                ]
                              },
                              "opacity" : {
                                "type" : "double",
                                "defaultValue" : 0.45,
                                "valueBounds" : {
                                  "minValue" : 0.0,
                                  "maxValue" : 1.0,
                                  "defaultValue" : 0.45
                                },
                                "uiHints" : {
                                  "userInterfaceType" : 1,
                                  "unitType" : 1
                                }
                              }
                            }
                          
                          },
                          "out" : {
                            "attributes" : {
                              "name" : "reveal",
                              "type" : 0,
                              "characterOrder" : 7,
                              "offsetBetweenCharacters" : "3/2",
                              "suggestedDurationPerCharacter" : 17,
                              "overlapProportion" : "1/2",
                              "movement" : 6,
                              "springDamping" : 5.0,
                              "springStiffness" : 50.0,
                              "bounceBounciness" : 0.45
                            },
                            "parameters" : {
                              "direction" : {
                                "type" : "int",
                                "valueBounds" : {
                                  "minValue" : 0,
                                  "maxValue" : 3,
                                  "defaultValue" : 2
                                },
                                "uiHints" : {
                                  "userInterfaceType" : 2,
                                  "unitType" : 0
                                },
                                "keyframes" : [
                                  {
                                    "time" : 0,
                                    "value" : 2,
                                    "duration" : 0
                                  }
                                ]
                              }
                            }
                          
                          }
                        }
                    ],
                    "start" : 10462,
                    "duration" : 1010,
                    "mediaStart" : 7,
                    "mediaDuration" : 1010,
                    "scalar" : 1,
                    "metadata" : {
                      "WinSubProjectDisplayName" : "",
                      "clipSpeedAttribute" : false,
                      "default-HAlign" : "center",
                      "default-VAlign" : "center",
                      "default-fill-color-blue" : 1.0,
                      "default-fill-color-green" : 1.0,
                      "default-fill-color-opacity" : 1.0,
                      "default-fill-color-red" : 1.0,
                      "default-fill-style" : "solid",
                      "default-opacity" : 1.0,
                      "default-stroke-color-opacity" : 1.0,
                      "default-text-attributes" : "[{\"name\":\"strikethrough\",\"rangeEnd\":7,\"rangeStart\":0,\"value\":0,\"valueType\":\"int\"},{\"name\":\"fontWeight\",\"rangeEnd\":7,\"rangeStart\":0,\"value\":400,\"valueType\":\"int\"},{\"name\":\"fontItalic\",\"rangeEnd\":7,\"rangeStart\":0,\"value\":0,\"valueType\":\"int\"},{\"name\":\"fgColor\",\"rangeEnd\":7,\"rangeStart\":0,\"value\":\"(255,255,255,255)\",\"valueType\":\"color\"},{\"name\":\"fontSize\",\"rangeEnd\":7,\"rangeStart\":0,\"value\":64,\"valueType\":\"double\"},{\"name\":\"underline\",\"rangeEnd\":7,\"rangeStart\":0,\"value\":0,\"valueType\":\"int\"},{\"name\":\"fontName\",\"rangeEnd\":7,\"rangeStart\":0,\"value\":\"Montserrat\",\"valueType\":\"string\"}]",
                      "default-translation0" : 0.0,
                      "default-translation1" : 0.0
                    },
                    "animationTracks" : {

                    }
                  },
                  {
                    "id" : 33,
                    "_type" : "Callout",
                    "def" : {
                      "kind" : "remix",
                      "shape" : "text-rectangle",
                      "style" : "basic",
                      "fill-color-blue" : 0.317647058823529,
                      "fill-color-green" : 0.690196078431373,
                      "fill-color-opacity" : 1.0,
                      "fill-color-red" : 0.886274509803922,
                      "height" : 112.572533849175,
                      "stroke-color-blue" : 0.56078431372549,
                      "stroke-color-green" : 0.686274509803922,
                      "stroke-color-opacity" : 0.0,
                      "stroke-color-red" : 0.0196078431372549,
                      "stroke-width" : 2.0,
                      "tail-x" : 5.10154738901225,
                      "tail-y" : -50.0773694390756,
                      "width" : 394.342359767861,
                      "word-wrap" : 1.0,
                      "fill-style" : "solid",
                      "horizontal-alignment" : "center",
                      "stroke-style" : "solid",
                      "text" : "SUMMARY",
                      "vertical-alignment" : "center",
                      "font" : {
                        "color-blue" : 0.266666666666667,
                        "color-green" : 0.231372549019608,
                        "color-opacity" : 1.0,
                        "color-red" : 0.184313725490196,
                        "size" : 64.0,
                        "tracking" : 0.0,
                        "name" : "Montserrat",
                        "weight" : "Regular"
                      },
                      "textAttributes" : {
                        "type" : "textAttributeList",
                        "keyframes" : [
                          {
                            "time" : 0,
                            "value" : [{"name":"strikethrough","rangeEnd":7,"rangeStart":0,"value":0,"valueType":"int"},{"name":"fontWeight","rangeEnd":7,"rangeStart":0,"value":400,"valueType":"int"},{"name":"fontItalic","rangeEnd":7,"rangeStart":0,"value":0,"valueType":"int"},{"name":"fontName","rangeEnd":7,"rangeStart":0,"value":"Montserrat","valueType":"string"},{"name":"fgColor","rangeEnd":7,"rangeStart":0,"value":"(255,255,255,255)","valueType":"color"},{"name":"fontSize","rangeEnd":7,"rangeStart":0,"value":64,"valueType":"double"},{"name":"underline","rangeEnd":7,"rangeStart":0,"value":0,"valueType":"int"}],
                            "duration" : 0
                          }
                        ]
                      }
                    },
                    "attributes" : {
                      "autoRotateText" : true
                    },
                    "parameters" : {
                      "translation0" : 6.45689416942778,
                      "translation1" : 477.278253661058
                    },
                    "effects" : [
                        {
                          "effectName" : "DropShadow",
                          "category" : "categoryVisualEffects",
                          "parameters" : {
                            "angle" : 5.49778714378214,
                            "blur" : 10.0,
                            "color-alpha" : 1.0,
                            "color-blue" : 0.968627450980392,
                            "color-green" : 0.0196078431372549,
                            "color-red" : 0.152941176470588,
                            "enabled" : 1,
                            "offset" : 5.83333333333332,
                            "opacity" : 0.4
                          },
                          "metadata" : {
                            "default-dropshadow-color-b" : 0.1216,
                            "default-dropshadow-color-g" : 0.1216,
                            "default-dropshadow-color-r" : 0.1216,
                            "default-dropshadow-offset" : 10.0
                          }
                        },
                        {
                          "_type" : "GenericBehaviorEffect",
                          "effectName" : "reveal",
                          "start" : -24,
                          "duration" : 257                        ,
                          "in" : {
                            "attributes" : {
                              "name" : "reveal",
                              "type" : 0,
                              "characterOrder" : 7,
                              "offsetBetweenCharacters" : "3/2",
                              "suggestedDurationPerCharacter" : 22,
                              "overlapProportion" : 0,
                              "movement" : 16,
                              "springDamping" : 5.0,
                              "springStiffness" : 50.0,
                              "bounceBounciness" : 0.45
                            },
                            "parameters" : {
                              "direction" : {
                                "type" : "int",
                                "valueBounds" : {
                                  "minValue" : 0,
                                  "maxValue" : 3,
                                  "defaultValue" : 0
                                },
                                "uiHints" : {
                                  "userInterfaceType" : 2,
                                  "unitType" : 0
                                },
                                "keyframes" : [
                                  {
                                    "time" : 0,
                                    "value" : 0,
                                    "duration" : 0
                                  }
                                ]
                              }
                            }
                          
                          },
                          "center" : {
                            "attributes" : {
                              "name" : "reveal",
                              "type" : 0,
                              "characterOrder" : 2,
                              "offsetBetweenCharacters" : "51/10",
                              "secondsPerLoop" : "233/100",
                              "numberOfLoops" : -1,
                              "delayBetweenLoops" : 15,
                              "offsetBetweenCharacters" : "51/10"
                            },
                            "parameters" : {
                              "movement" : {
                                "type" : "int",
                                "valueBounds" : {
                                  "minValue" : 0,
                                  "maxValue" : 31,
                                  "defaultValue" : 0
                                },
                                "uiHints" : {
                                  "userInterfaceType" : 4,
                                  "unitType" : 0
                                },
                                "keyframes" : [
                                  {
                                    "time" : 0,
                                    "value" : 0,
                                    "duration" : 0
                                  }
                                ]
                              },
                              "opacity" : {
                                "type" : "double",
                                "defaultValue" : 0.45,
                                "valueBounds" : {
                                  "minValue" : 0.0,
                                  "maxValue" : 1.0,
                                  "defaultValue" : 0.45
                                },
                                "uiHints" : {
                                  "userInterfaceType" : 1,
                                  "unitType" : 1
                                }
                              }
                            }
                          
                          },
                          "out" : {
                            "attributes" : {
                              "name" : "reveal",
                              "type" : 0,
                              "characterOrder" : 7,
                              "offsetBetweenCharacters" : "3/2",
                              "suggestedDurationPerCharacter" : 17,
                              "overlapProportion" : "1/2",
                              "movement" : 6,
                              "springDamping" : 5.0,
                              "springStiffness" : 50.0,
                              "bounceBounciness" : 0.45
                            },
                            "parameters" : {
                              "direction" : {
                                "type" : "int",
                                "valueBounds" : {
                                  "minValue" : 0,
                                  "maxValue" : 3,
                                  "defaultValue" : 2
                                },
                                "uiHints" : {
                                  "userInterfaceType" : 2,
                                  "unitType" : 0
                                },
                                "keyframes" : [
                                  {
                                    "time" : 0,
                                    "value" : 2,
                                    "duration" : 0
                                  }
                                ]
                              }
                            }
                          
                          }
                        }
                    ],
                    "start" : 11485,
                    "duration" : 257,
                    "mediaStart" : -24,
                    "mediaDuration" : 257,
                    "scalar" : 1,
                    "metadata" : {
                      "WinSubProjectDisplayName" : "",
                      "clipSpeedAttribute" : false,
                      "default-HAlign" : "center",
                      "default-VAlign" : "center",
                      "default-fill-color-blue" : 1.0,
                      "default-fill-color-green" : 1.0,
                      "default-fill-color-opacity" : 1.0,
                      "default-fill-color-red" : 1.0,
                      "default-fill-style" : "solid",
                      "default-opacity" : 1.0,
                      "default-stroke-color-opacity" : 1.0,
                      "default-text-attributes" : "[{\"name\":\"strikethrough\",\"rangeEnd\":7,\"rangeStart\":0,\"value\":0,\"valueType\":\"int\"},{\"name\":\"fontWeight\",\"rangeEnd\":7,\"rangeStart\":0,\"value\":400,\"valueType\":\"int\"},{\"name\":\"fontItalic\",\"rangeEnd\":7,\"rangeStart\":0,\"value\":0,\"valueType\":\"int\"},{\"name\":\"fgColor\",\"rangeEnd\":7,\"rangeStart\":0,\"value\":\"(255,255,255,255)\",\"valueType\":\"color\"},{\"name\":\"fontSize\",\"rangeEnd\":7,\"rangeStart\":0,\"value\":64,\"valueType\":\"double\"},{\"name\":\"underline\",\"rangeEnd\":7,\"rangeStart\":0,\"value\":0,\"valueType\":\"int\"},{\"name\":\"fontName\",\"rangeEnd\":7,\"rangeStart\":0,\"value\":\"Montserrat\",\"valueType\":\"string\"}]",
                      "default-translation0" : 0.0,
                      "default-translation1" : 0.0
                    },
                    "animationTracks" : {

                    }
                  },
                  {
                    "id" : 34,
                    "_type" : "Callout",
                    "def" : {
                      "kind" : "remix",
                      "shape" : "text-rectangle",
                      "style" : "basic",
                      "fill-color-blue" : 0.317647058823529,
                      "fill-color-green" : 0.690196078431373,
                      "fill-color-opacity" : 1.0,
                      "fill-color-red" : 0.886274509803922,
                      "height" : 112.572533849175,
                      "stroke-color-blue" : 0.56078431372549,
                      "stroke-color-green" : 0.686274509803922,
                      "stroke-color-opacity" : 0.0,
                      "stroke-color-red" : 0.0196078431372549,
                      "stroke-width" : 2.0,
                      "tail-x" : 5.10154738901225,
                      "tail-y" : -50.0773694390756,
                      "width" : 394.342359767861,
                      "word-wrap" : 1.0,
                      "fill-style" : "solid",
                      "horizontal-alignment" : "center",
                      "stroke-style" : "solid",
                      "text" : "NOTE",
                      "vertical-alignment" : "center",
                      "font" : {
                        "color-blue" : 0.266666666666667,
                        "color-green" : 0.231372549019608,
                        "color-opacity" : 1.0,
                        "color-red" : 0.184313725490196,
                        "size" : 64.0,
                        "tracking" : 0.0,
                        "name" : "Montserrat",
                        "weight" : "Regular"
                      },
                      "textAttributes" : {
                        "type" : "textAttributeList",
                        "keyframes" : [
                          {
                            "time" : 0,
                            "value" : [{"name":"fontName","rangeEnd":4,"rangeStart":0,"value":"Montserrat","valueType":"string"},{"name":"underline","rangeEnd":4,"rangeStart":0,"value":0,"valueType":"int"},{"name":"fontSize","rangeEnd":4,"rangeStart":0,"value":64,"valueType":"double"},{"name":"strikethrough","rangeEnd":4,"rangeStart":0,"value":0,"valueType":"int"},{"name":"fgColor","rangeEnd":4,"rangeStart":0,"value":"(255,255,255,255)","valueType":"color"},{"name":"fontWeight","rangeEnd":4,"rangeStart":0,"value":400,"valueType":"int"},{"name":"fontItalic","rangeEnd":4,"rangeStart":0,"value":0,"valueType":"int"}],
                            "duration" : 0
                          }
                        ]
                      }
                    },
                    "attributes" : {
                      "autoRotateText" : true
                    },
                    "parameters" : {
                      "translation0" : 6.45689416942778,
                      "translation1" : 480.13539651821
                    },
                    "effects" : [
                        {
                          "effectName" : "DropShadow",
                          "category" : "categoryVisualEffects",
                          "parameters" : {
                            "angle" : 5.49778714378214,
                            "blur" : 10.0,
                            "color-alpha" : 1.0,
                            "color-blue" : 0.968627450980392,
                            "color-green" : 0.0196078431372549,
                            "color-red" : 0.152941176470588,
                            "enabled" : 1,
                            "offset" : 5.83333333333332,
                            "opacity" : 0.4
                          },
                          "metadata" : {
                            "default-dropshadow-color-b" : 0.1216,
                            "default-dropshadow-color-g" : 0.1216,
                            "default-dropshadow-color-r" : 0.1216,
                            "default-dropshadow-offset" : 10.0
                          }
                        },
                        {
                          "_type" : "GenericBehaviorEffect",
                          "effectName" : "reveal",
                          "start" : -4,
                          "duration" : 434                        ,
                          "in" : {
                            "attributes" : {
                              "name" : "reveal",
                              "type" : 0,
                              "characterOrder" : 7,
                              "offsetBetweenCharacters" : "3/2",
                              "suggestedDurationPerCharacter" : 22,
                              "overlapProportion" : 0,
                              "movement" : 16,
                              "springDamping" : 5.0,
                              "springStiffness" : 50.0,
                              "bounceBounciness" : 0.45
                            },
                            "parameters" : {
                              "direction" : {
                                "type" : "int",
                                "valueBounds" : {
                                  "minValue" : 0,
                                  "maxValue" : 3,
                                  "defaultValue" : 0
                                },
                                "uiHints" : {
                                  "userInterfaceType" : 2,
                                  "unitType" : 0
                                },
                                "keyframes" : [
                                  {
                                    "time" : 0,
                                    "value" : 0,
                                    "duration" : 0
                                  }
                                ]
                              }
                            }
                          
                          },
                          "center" : {
                            "attributes" : {
                              "name" : "reveal",
                              "type" : 0,
                              "characterOrder" : 2,
                              "offsetBetweenCharacters" : "51/10",
                              "secondsPerLoop" : "233/100",
                              "numberOfLoops" : -1,
                              "delayBetweenLoops" : 15,
                              "offsetBetweenCharacters" : "51/10"
                            },
                            "parameters" : {
                              "movement" : {
                                "type" : "int",
                                "valueBounds" : {
                                  "minValue" : 0,
                                  "maxValue" : 31,
                                  "defaultValue" : 0
                                },
                                "uiHints" : {
                                  "userInterfaceType" : 4,
                                  "unitType" : 0
                                },
                                "keyframes" : [
                                  {
                                    "time" : 0,
                                    "value" : 0,
                                    "duration" : 0
                                  }
                                ]
                              },
                              "opacity" : {
                                "type" : "double",
                                "defaultValue" : 0.45,
                                "valueBounds" : {
                                  "minValue" : 0.0,
                                  "maxValue" : 1.0,
                                  "defaultValue" : 0.45
                                },
                                "uiHints" : {
                                  "userInterfaceType" : 1,
                                  "unitType" : 1
                                }
                              }
                            }
                          
                          },
                          "out" : {
                            "attributes" : {
                              "name" : "reveal",
                              "type" : 0,
                              "characterOrder" : 7,
                              "offsetBetweenCharacters" : "3/2",
                              "suggestedDurationPerCharacter" : 17,
                              "overlapProportion" : "1/2",
                              "movement" : 6,
                              "springDamping" : 5.0,
                              "springStiffness" : 50.0,
                              "bounceBounciness" : 0.45
                            },
                            "parameters" : {
                              "direction" : {
                                "type" : "int",
                                "valueBounds" : {
                                  "minValue" : 0,
                                  "maxValue" : 3,
                                  "defaultValue" : 2
                                },
                                "uiHints" : {
                                  "userInterfaceType" : 2,
                                  "unitType" : 0
                                },
                                "keyframes" : [
                                  {
                                    "time" : 0,
                                    "value" : 2,
                                    "duration" : 0
                                  }
                                ]
                              }
                            }
                          
                          }
                        }
                    ],
                    "start" : 11751,
                    "duration" : 434,
                    "mediaStart" : -4,
                    "mediaDuration" : 434,
                    "scalar" : 1,
                    "metadata" : {
                      "WinSubProjectDisplayName" : "",
                      "clipSpeedAttribute" : false,
                      "default-HAlign" : "center",
                      "default-VAlign" : "center",
                      "default-fill-color-blue" : 1.0,
                      "default-fill-color-green" : 1.0,
                      "default-fill-color-opacity" : 1.0,
                      "default-fill-color-red" : 1.0,
                      "default-fill-style" : "solid",
                      "default-opacity" : 1.0,
                      "default-stroke-color-opacity" : 1.0,
                      "default-text-attributes" : "[{\"name\":\"strikethrough\",\"rangeEnd\":7,\"rangeStart\":0,\"value\":0,\"valueType\":\"int\"},{\"name\":\"fontWeight\",\"rangeEnd\":7,\"rangeStart\":0,\"value\":400,\"valueType\":\"int\"},{\"name\":\"fontItalic\",\"rangeEnd\":7,\"rangeStart\":0,\"value\":0,\"valueType\":\"int\"},{\"name\":\"fgColor\",\"rangeEnd\":7,\"rangeStart\":0,\"value\":\"(255,255,255,255)\",\"valueType\":\"color\"},{\"name\":\"fontSize\",\"rangeEnd\":7,\"rangeStart\":0,\"value\":64,\"valueType\":\"double\"},{\"name\":\"underline\",\"rangeEnd\":7,\"rangeStart\":0,\"value\":0,\"valueType\":\"int\"},{\"name\":\"fontName\",\"rangeEnd\":7,\"rangeStart\":0,\"value\":\"Montserrat\",\"valueType\":\"string\"}]",
                      "default-translation0" : 0.0,
                      "default-translation1" : 0.0
                    },
                    "animationTracks" : {

                    }
                  }
                ]
              },
              {
                "trackIndex" : 7,
                "medias" : [
                  {
                    "id" : 35,
                    "_type" : "Callout",
                    "def" : {
                      "kind" : "remix",
                      "shape" : "arrow",
                      "style" : "basic",
                      "stroke-color-blue" : 1.0,
                      "stroke-color-green" : 1.0,
                      "stroke-color-opacity" : 1.0,
                      "stroke-color-red" : 1.0,
                      "stroke-width" : 8.0,
                      "tail-x" : {
                        "type" : "double",
                        "defaultValue" : 237.71453201595,
                        "interp" : "eioe"
                      },
                      "tail-y" : {
                        "type" : "double",
                        "defaultValue" : -497.402887823985,
                        "interp" : "eioe"
                      },
                      "horizontal-alignment" : "center",
                      "shape-anchor" : "arrow",
                      "shape-tail" : "arrow",
                      "stroke-style" : "dot",
                      "vertical-alignment" : "center",
                      "textAttributes" : {
                        "type" : "textAttributeList",
                        "keyframes" : [
                          {
                            "time" : 0,
                            "value" : null,
                            "duration" : 0
                          }
                        ]
                      }
                    },
                    "attributes" : {
                      "autoRotateText" : true
                    },
                    "parameters" : {
                      "translation0" : -786.428401346617,
                      "translation1" : 256.339058036774
                    },
                    "effects" : [
                        {
                          "effectName" : "DropShadow",
                          "category" : "categoryVisualEffects",
                          "parameters" : {
                            "angle" : 5.49778714378214,
                            "blur" : 10.0,
                            "color-alpha" : 1.0,
                            "color-blue" : 0.1216,
                            "color-green" : 0.1216,
                            "color-red" : 0.1216,
                            "enabled" : 1,
                            "offset" : 10.0,
                            "opacity" : 0.4
                          }
                        }
                    ],
                    "start" : 755,
                    "duration" : 247,
                    "mediaStart" : -101,
                    "mediaDuration" : 247,
                    "scalar" : 1,
                    "metadata" : {
                      "WinSubProjectDisplayName" : "",
                      "clipSpeedAttribute" : false,
                      "default-stroke-color-blue" : 0.258823529411765,
                      "default-stroke-color-green" : 0.258823529411765,
                      "default-stroke-color-red" : 0.988235294117647,
                      "default-translation0" : 0.0,
                      "default-translation1" : 0.0
                    },
                    "animationTracks" : {

                    }
                  },
                  {
                    "id" : 36,
                    "_type" : "Callout",
                    "def" : {
                      "kind" : "remix",
                      "shape" : "arrow",
                      "style" : "basic",
                      "stroke-color-blue" : 1.0,
                      "stroke-color-green" : 1.0,
                      "stroke-color-opacity" : 1.0,
                      "stroke-color-red" : 1.0,
                      "stroke-width" : 8.0,
                      "tail-x" : {
                        "type" : "double",
                        "defaultValue" : -644.117647058674,
                        "interp" : "eioe"
                      },
                      "tail-y" : {
                        "type" : "double",
                        "defaultValue" : -200.588235294106,
                        "interp" : "eioe"
                      },
                      "horizontal-alignment" : "center",
                      "shape-anchor" : "none",
                      "shape-tail" : "arrow",
                      "stroke-style" : "dash",
                      "vertical-alignment" : "center",
                      "textAttributes" : {
                        "type" : "textAttributeList",
                        "keyframes" : [
                          {
                            "time" : 0,
                            "value" : null,
                            "duration" : 0
                          }
                        ]
                      }
                    },
                    "attributes" : {
                      "autoRotateText" : true
                    },
                    "parameters" : {
                      "translation0" : -195.714285714418,
                      "translation1" : 415.714285714202
                    },
                    "effects" : [
                        {
                          "effectName" : "DropShadow",
                          "category" : "categoryVisualEffects",
                          "parameters" : {
                            "angle" : 5.49778714378214,
                            "blur" : 10.0,
                            "color-alpha" : 1.0,
                            "color-blue" : 0.482352941176471,
                            "color-green" : 0.482352941176471,
                            "color-red" : 0.501960784313725,
                            "enabled" : 1,
                            "offset" : 20.4166666666667,
                            "opacity" : 1.0
                          },
                          "metadata" : {
                            "default-dropshadow-color-b" : 0.1216,
                            "default-dropshadow-color-g" : 0.1216,
                            "default-dropshadow-color-r" : 0.1216,
                            "default-dropshadow-offset" : 10.0,
                            "default-dropshadow-opacity" : 0.4
                          }
                        }
                    ],
                    "start" : 4983,
                    "duration" : 945,
                    "mediaStart" : -24,
                    "mediaDuration" : 945,
                    "scalar" : 1,
                    "metadata" : {
                      "WinSubProjectDisplayName" : "",
                      "clipSpeedAttribute" : false,
                      "default-stroke-color-blue" : 0.537254901960784,
                      "default-stroke-color-green" : 0.133333333333333,
                      "default-stroke-color-opacity" : 1.0,
                      "default-stroke-color-red" : 0.388235294117647,
                      "default-translation0" : 0.0,
                      "default-translation1" : 0.0
                    },
                    "animationTracks" : {

                    }
                  },
                  {
                    "id" : 37,
                    "_type" : "Callout",
                    "def" : {
                      "kind" : "remix",
                      "shape" : "arrow",
                      "style" : "basic",
                      "stroke-color-blue" : 1.0,
                      "stroke-color-green" : 1.0,
                      "stroke-color-opacity" : 1.0,
                      "stroke-color-red" : 1.0,
                      "stroke-width" : 8.0,
                      "tail-x" : {
                        "type" : "double",
                        "defaultValue" : -448.571428571219,
                        "interp" : "eioe"
                      },
                      "tail-y" : {
                        "type" : "double",
                        "defaultValue" : -140.000000000078,
                        "interp" : "eioe"
                      },
                      "horizontal-alignment" : "center",
                      "shape-anchor" : "none",
                      "shape-tail" : "arrow",
                      "stroke-style" : "dash",
                      "vertical-alignment" : "center",
                      "textAttributes" : {
                        "type" : "textAttributeList",
                        "keyframes" : [
                          {
                            "time" : 0,
                            "value" : null,
                            "duration" : 0
                          }
                        ]
                      }
                    },
                    "attributes" : {
                      "autoRotateText" : true
                    },
                    "parameters" : {
                      "translation0" : -195.714285714418,
                      "translation1" : 415.714285714202
                    },
                    "effects" : [
                        {
                          "effectName" : "DropShadow",
                          "category" : "categoryVisualEffects",
                          "parameters" : {
                            "angle" : 5.49778714378214,
                            "blur" : 10.0,
                            "color-alpha" : 1.0,
                            "color-blue" : 0.482352941176471,
                            "color-green" : 0.482352941176471,
                            "color-red" : 0.501960784313725,
                            "enabled" : 1,
                            "offset" : 20.4166666666667,
                            "opacity" : 1.0
                          },
                          "metadata" : {
                            "default-dropshadow-color-b" : 0.1216,
                            "default-dropshadow-color-g" : 0.1216,
                            "default-dropshadow-color-r" : 0.1216,
                            "default-dropshadow-offset" : 10.0,
                            "default-dropshadow-opacity" : 0.4
                          }
                        }
                    ],
                    "start" : 5997,
                    "duration" : 861,
                    "mediaStart" : -24,
                    "mediaDuration" : 861,
                    "scalar" : 1,
                    "metadata" : {
                      "WinSubProjectDisplayName" : "",
                      "clipSpeedAttribute" : false,
                      "default-stroke-color-blue" : 0.537254901960784,
                      "default-stroke-color-green" : 0.133333333333333,
                      "default-stroke-color-opacity" : 1.0,
                      "default-stroke-color-red" : 0.388235294117647,
                      "default-translation0" : 0.0,
                      "default-translation1" : 0.0
                    },
                    "animationTracks" : {

                    }
                  },
                  {
                    "id" : 38,
                    "_type" : "Callout",
                    "def" : {
                      "kind" : "remix",
                      "shape" : "text",
                      "style" : "basic",
                      "height" : 626.731601731543,
                      "width" : 1883.57806023822,
                      "word-wrap" : 1.0,
                      "horizontal-alignment" : "left",
                      "text" : "this is my score for review iphone 13 pro max and iphone 11 pro max.\rIphone 13 Pro max better than iphone 11 pro max\r- battery bigger, faster, screen and camera.... better. \r\riphone 11 pro  max has price good.\r\r",
                      "vertical-alignment" : "center",
                      "font" : {
                        "color-blue" : 1.0,
                        "color-green" : 1.0,
                        "color-red" : 1.0,
                        "size" : 96.0,
                        "tracking" : 0.0,
                        "name" : "Montserrat",
                        "weight" : "Regular"
                      },
                      "textAttributes" : {
                        "type" : "textAttributeList",
                        "keyframes" : [
                          {
                            "time" : 0,
                            "value" : [{"name":"fgColor","rangeEnd":211,"rangeStart":209,"value":"(255,255,255,255)","valueType":"color"},{"name":"fontName","rangeEnd":211,"rangeStart":0,"value":"Montserrat","valueType":"string"},{"name":"strikethrough","rangeEnd":211,"rangeStart":0,"value":0,"valueType":"int"},{"name":"underline","rangeEnd":211,"rangeStart":0,"value":0,"valueType":"int"},{"name":"fgColor","rangeEnd":209,"rangeStart":0,"value":"(152,56,56,255)","valueType":"color"},{"name":"fontWeight","rangeEnd":211,"rangeStart":0,"value":400,"valueType":"int"},{"name":"fontItalic","rangeEnd":211,"rangeStart":0,"value":0,"valueType":"int"},{"name":"fontSize","rangeEnd":211,"rangeStart":0,"value":96,"valueType":"double"}],
                            "duration" : 0
                          }
                        ]
                      }
                    },
                    "attributes" : {
                      "autoRotateText" : true
                    },
                    "parameters" : {
                      "translation0" : 18.4219702659856,
                      "translation1" : 15.2857142856523
                    },
                    "effects" : [
                        {
                          "effectName" : "DropShadow",
                          "category" : "categoryVisualEffects",
                          "parameters" : {
                            "angle" : 5.49778714378214,
                            "blur" : 10.0,
                            "color-alpha" : 1.0,
                            "color-blue" : 0.1216,
                            "color-green" : 0.1216,
                            "color-red" : 0.1216,
                            "enabled" : 1,
                            "offset" : 30.8333333333333,
                            "opacity" : 0.4
                          },
                          "metadata" : {
                            "default-dropshadow-offset" : 10.0
                          }
                        }
                    ],
                    "start" : 11527,
                    "duration" : 215,
                    "mediaStart" : -20,
                    "mediaDuration" : 215,
                    "scalar" : 1,
                    "metadata" : {
                      "WinSubProjectDisplayName" : "",
                      "clipSpeedAttribute" : false,
                      "default-HAlign" : "center",
                      "default-VAlign" : "center",
                      "default-text-attributes" : "[{\"name\":\"fgColor\",\"rangeEnd\":3,\"rangeStart\":0,\"value\":\"(255,255,255,255)\",\"valueType\":\"color\"},{\"name\":\"underline\",\"rangeEnd\":3,\"rangeStart\":0,\"value\":0,\"valueType\":\"int\"},{\"name\":\"fontSize\",\"rangeEnd\":3,\"rangeStart\":0,\"value\":96,\"valueType\":\"double\"},{\"name\":\"fontWeight\",\"rangeEnd\":3,\"rangeStart\":0,\"value\":400,\"valueType\":\"int\"},{\"name\":\"fontName\",\"rangeEnd\":3,\"rangeStart\":0,\"value\":\"Montserrat\",\"valueType\":\"string\"}]",
                      "default-translation0" : 0.0,
                      "default-translation1" : 0.0
                    },
                    "animationTracks" : {

                    }
                  },
                  {
                    "id" : 39,
                    "_type" : "Callout",
                    "def" : {
                      "kind" : "remix",
                      "shape" : "text",
                      "style" : "basic",
                      "height" : 596.428571428554,
                      "width" : 1802.96472779242,
                      "word-wrap" : 1.0,
                      "horizontal-alignment" : "left",
                      "text" : "If you have any questions or compare other smart phone please comment below video. Don't forget to like and subscribe to iTech chanel.",
                      "vertical-alignment" : "center",
                      "font" : {
                        "color-blue" : 1.0,
                        "color-green" : 1.0,
                        "color-red" : 1.0,
                        "size" : 96.0,
                        "tracking" : 0.0,
                        "name" : "Montserrat",
                        "weight" : "Regular"
                      },
                      "textAttributes" : {
                        "type" : "textAttributeList",
                        "keyframes" : [
                          {
                            "time" : 0,
                            "value" : [{"name":"fontSize","rangeEnd":134,"rangeStart":0,"value":96,"valueType":"double"},{"name":"fontItalic","rangeEnd":134,"rangeStart":0,"value":0,"valueType":"int"},{"name":"fontWeight","rangeEnd":134,"rangeStart":0,"value":400,"valueType":"int"},{"name":"fontName","rangeEnd":134,"rangeStart":0,"value":"Montserrat","valueType":"string"},{"name":"strikethrough","rangeEnd":134,"rangeStart":0,"value":0,"valueType":"int"},{"name":"underline","rangeEnd":134,"rangeStart":0,"value":0,"valueType":"int"},{"name":"fgColor","rangeEnd":134,"rangeStart":0,"value":"(152,56,56,255)","valueType":"color"}],
                            "duration" : 0
                          }
                        ]
                      }
                    },
                    "attributes" : {
                      "autoRotateText" : true
                    },
                    "parameters" : {
                      "translation0" : 55.1946670346202,
                      "translation1" : 42.5844074573459
                    },
                    "effects" : [
                        {
                          "effectName" : "DropShadow",
                          "category" : "categoryVisualEffects",
                          "parameters" : {
                            "angle" : 5.49778714378214,
                            "blur" : 10.0,
                            "color-alpha" : 1.0,
                            "color-blue" : 0.1216,
                            "color-green" : 0.1216,
                            "color-red" : 0.1216,
                            "enabled" : 1,
                            "offset" : 30.8333333333333,
                            "opacity" : 0.4
                          },
                          "metadata" : {
                            "default-dropshadow-offset" : 10.0
                          }
                        }
                    ],
                    "start" : 11777,
                    "duration" : 258,
                    "mediaStart" : -41,
                    "mediaDuration" : 258,
                    "scalar" : 1,
                    "metadata" : {
                      "WinSubProjectDisplayName" : "",
                      "clipSpeedAttribute" : false,
                      "default-HAlign" : "center",
                      "default-VAlign" : "center",
                      "default-text-attributes" : "[{\"name\":\"fgColor\",\"rangeEnd\":3,\"rangeStart\":0,\"value\":\"(255,255,255,255)\",\"valueType\":\"color\"},{\"name\":\"underline\",\"rangeEnd\":3,\"rangeStart\":0,\"value\":0,\"valueType\":\"int\"},{\"name\":\"fontSize\",\"rangeEnd\":3,\"rangeStart\":0,\"value\":96,\"valueType\":\"double\"},{\"name\":\"fontWeight\",\"rangeEnd\":3,\"rangeStart\":0,\"value\":400,\"valueType\":\"int\"},{\"name\":\"fontName\",\"rangeEnd\":3,\"rangeStart\":0,\"value\":\"Montserrat\",\"valueType\":\"string\"}]",
                      "default-translation0" : 0.0,
                      "default-translation1" : 0.0
                    },
                    "animationTracks" : {

                    }
                  },
                  {
                    "id" : 40,
                    "_type" : "Callout",
                    "def" : {
                      "kind" : "remix",
                      "shape" : "text",
                      "style" : "basic",
                      "height" : 596.428571428554,
                      "width" : 1518.25884543962,
                      "word-wrap" : 1.0,
                      "horizontal-alignment" : "left",
                      "text" : "Thanks for watching videos.\r\r",
                      "vertical-alignment" : "center",
                      "font" : {
                        "color-blue" : 1.0,
                        "color-green" : 1.0,
                        "color-red" : 1.0,
                        "size" : 96.0,
                        "tracking" : 0.0,
                        "name" : "Montserrat",
                        "weight" : "Regular"
                      },
                      "textAttributes" : {
                        "type" : "textAttributeList",
                        "keyframes" : [
                          {
                            "time" : 0,
                            "value" : [{"name":"fontWeight","rangeEnd":29,"rangeStart":0,"value":400,"valueType":"int"},{"name":"fontSize","rangeEnd":29,"rangeStart":0,"value":96,"valueType":"double"},{"name":"fgColor","rangeEnd":27,"rangeStart":0,"value":"(152,56,56,255)","valueType":"color"},{"name":"fgColor","rangeEnd":29,"rangeStart":27,"value":"(255,255,255,255)","valueType":"color"},{"name":"strikethrough","rangeEnd":29,"rangeStart":0,"value":0,"valueType":"int"},{"name":"fontItalic","rangeEnd":29,"rangeStart":0,"value":0,"valueType":"int"},{"name":"fontName","rangeEnd":29,"rangeStart":0,"value":"Montserrat","valueType":"string"},{"name":"underline","rangeEnd":29,"rangeStart":0,"value":0,"valueType":"int"}],
                            "duration" : 0
                          }
                        ]
                      }
                    },
                    "attributes" : {
                      "autoRotateText" : true
                    },
                    "parameters" : {
                      "translation0" : -36.8053329653806,
                      "translation1" : -19.1802984250032
                    },
                    "effects" : [
                        {
                          "effectName" : "DropShadow",
                          "category" : "categoryVisualEffects",
                          "parameters" : {
                            "angle" : 5.49778714378214,
                            "blur" : 10.0,
                            "color-alpha" : 1.0,
                            "color-blue" : 0.1216,
                            "color-green" : 0.1216,
                            "color-red" : 0.1216,
                            "enabled" : 1,
                            "offset" : 30.8333333333333,
                            "opacity" : 0.4
                          },
                          "metadata" : {
                            "default-dropshadow-offset" : 10.0
                          }
                        }
                    ],
                    "start" : 12040,
                    "duration" : 145,
                    "mediaStart" : -173,
                    "mediaDuration" : 145,
                    "scalar" : 1,
                    "metadata" : {
                      "WinSubProjectDisplayName" : "",
                      "clipSpeedAttribute" : false,
                      "default-HAlign" : "center",
                      "default-VAlign" : "center",
                      "default-text-attributes" : "[{\"name\":\"fgColor\",\"rangeEnd\":3,\"rangeStart\":0,\"value\":\"(255,255,255,255)\",\"valueType\":\"color\"},{\"name\":\"underline\",\"rangeEnd\":3,\"rangeStart\":0,\"value\":0,\"valueType\":\"int\"},{\"name\":\"fontSize\",\"rangeEnd\":3,\"rangeStart\":0,\"value\":96,\"valueType\":\"double\"},{\"name\":\"fontWeight\",\"rangeEnd\":3,\"rangeStart\":0,\"value\":400,\"valueType\":\"int\"},{\"name\":\"fontName\",\"rangeEnd\":3,\"rangeStart\":0,\"value\":\"Montserrat\",\"valueType\":\"string\"}]",
                      "default-translation0" : 0.0,
                      "default-translation1" : 0.0
                    },
                    "animationTracks" : {

                    }
                  }
                ],
                "transitions" : [
                  {
                    "name" : "CircleStretch",
                    "duration" : 14,
                    "useAudioPreRoll" : true,
                    "useVisualPreRoll" : true,
                    "rightMedia" : 38
                  },
                  {
                    "name" : "CircleStretch",
                    "duration" : 9,
                    "useAudioPreRoll" : true,
                    "useVisualPreRoll" : true,
                    "leftMedia" : 38
                  },
                  {
                    "name" : "CircleStretch",
                    "duration" : 12,
                    "useAudioPreRoll" : true,
                    "useVisualPreRoll" : true,
                    "rightMedia" : 39
                  },
                  {
                    "name" : "CircleStretch",
                    "duration" : 12,
                    "useAudioPreRoll" : true,
                    "useVisualPreRoll" : true,
                    "leftMedia" : 39
                  },
                  {
                    "name" : "CircleStretch",
                    "duration" : 12,
                    "useAudioPreRoll" : true,
                    "useVisualPreRoll" : true,
                    "rightMedia" : 40
                  },
                  {
                    "name" : "CircleStretch",
                    "duration" : 14,
                    "useAudioPreRoll" : true,
                    "useVisualPreRoll" : true,
                    "leftMedia" : 40
                  }
                ]
              },
              {
                "trackIndex" : 8,
                "medias" : [
                  {
                    "id" : 41,
                    "_type" : "Callout",
                    "def" : {
                      "kind" : "remix",
                      "shape" : "arrow",
                      "style" : "basic",
                      "stroke-color-blue" : 1.0,
                      "stroke-color-green" : 1.0,
                      "stroke-color-opacity" : 1.0,
                      "stroke-color-red" : 1.0,
                      "stroke-width" : 8.0,
                      "tail-x" : {
                        "type" : "double",
                        "defaultValue" : 224.808510639093,
                        "interp" : "eioe"
                      },
                      "tail-y" : {
                        "type" : "double",
                        "defaultValue" : -519.70212765973,
                        "interp" : "eioe"
                      },
                      "horizontal-alignment" : "center",
                      "shape-anchor" : "arrow",
                      "shape-tail" : "arrow",
                      "stroke-style" : "dot",
                      "vertical-alignment" : "center",
                      "textAttributes" : {
                        "type" : "textAttributeList",
                        "keyframes" : [
                          {
                            "time" : 0,
                            "value" : null,
                            "duration" : 0
                          }
                        ]
                      }
                    },
                    "attributes" : {
                      "autoRotateText" : true
                    },
                    "parameters" : {
                      "translation0" : 707.744680851535,
                      "translation1" : 278.638297872363
                    },
                    "effects" : [
                        {
                          "effectName" : "DropShadow",
                          "category" : "categoryVisualEffects",
                          "parameters" : {
                            "angle" : 5.49778714378214,
                            "blur" : 10.0,
                            "color-alpha" : 1.0,
                            "color-blue" : 0.1216,
                            "color-green" : 0.1216,
                            "color-red" : 0.1216,
                            "enabled" : 1,
                            "offset" : 10.0,
                            "opacity" : 0.4
                          }
                        }
                    ],
                    "start" : 755,
                    "duration" : 247,
                    "mediaStart" : -101,
                    "mediaDuration" : 247,
                    "scalar" : 1,
                    "metadata" : {
                      "WinSubProjectDisplayName" : "",
                      "clipSpeedAttribute" : false,
                      "default-stroke-color-blue" : 0.258823529411765,
                      "default-stroke-color-green" : 0.258823529411765,
                      "default-stroke-color-red" : 0.988235294117647,
                      "default-translation0" : 0.0,
                      "default-translation1" : 0.0
                    },
                    "animationTracks" : {

                    }
                  },
                  {
                    "id" : 42,
                    "_type" : "Callout",
                    "def" : {
                      "kind" : "remix",
                      "shape" : "arrow",
                      "style" : "basic",
                      "stroke-color-blue" : 1.0,
                      "stroke-color-green" : 1.0,
                      "stroke-color-opacity" : 1.0,
                      "stroke-color-red" : 1.0,
                      "stroke-width" : 8.0,
                      "tail-x" : {
                        "type" : "double",
                        "defaultValue" : 350.252100840498,
                        "interp" : "eioe"
                      },
                      "tail-y" : {
                        "type" : "double",
                        "defaultValue" : -160.252100840256,
                        "interp" : "eioe"
                      },
                      "horizontal-alignment" : "center",
                      "shape-anchor" : "none",
                      "shape-tail" : "arrow",
                      "stroke-style" : "dash",
                      "vertical-alignment" : "center",
                      "textAttributes" : {
                        "type" : "textAttributeList",
                        "keyframes" : [
                          {
                            "time" : 0,
                            "value" : null,
                            "duration" : 0
                          }
                        ]
                      }
                    },
                    "attributes" : {
                      "autoRotateText" : true
                    },
                    "parameters" : {
                      "translation0" : 204.285714285577,
                      "translation1" : 418.571428571297
                    },
                    "effects" : [
                        {
                          "effectName" : "DropShadow",
                          "category" : "categoryVisualEffects",
                          "parameters" : {
                            "angle" : 5.49778714378214,
                            "blur" : 10.0,
                            "color-alpha" : 1.0,
                            "color-blue" : 0.482352941176471,
                            "color-green" : 0.482352941176471,
                            "color-red" : 0.501960784313725,
                            "enabled" : 1,
                            "offset" : 20.4166666666667,
                            "opacity" : 1.0
                          },
                          "metadata" : {
                            "default-dropshadow-color-b" : 0.1216,
                            "default-dropshadow-color-g" : 0.1216,
                            "default-dropshadow-color-r" : 0.1216,
                            "default-dropshadow-offset" : 10.0,
                            "default-dropshadow-opacity" : 0.4
                          }
                        }
                    ],
                    "start" : 4983,
                    "duration" : 945,
                    "mediaStart" : -24,
                    "mediaDuration" : 945,
                    "scalar" : 1,
                    "metadata" : {
                      "WinSubProjectDisplayName" : "",
                      "clipSpeedAttribute" : false,
                      "default-stroke-color-blue" : 0.537254901960784,
                      "default-stroke-color-green" : 0.133333333333333,
                      "default-stroke-color-opacity" : 1.0,
                      "default-stroke-color-red" : 0.388235294117647,
                      "default-translation0" : 0.0,
                      "default-translation1" : 0.0
                    },
                    "animationTracks" : {

                    }
                  },
                  {
                    "id" : 43,
                    "_type" : "Callout",
                    "def" : {
                      "kind" : "remix",
                      "shape" : "arrow",
                      "style" : "basic",
                      "stroke-color-blue" : 1.0,
                      "stroke-color-green" : 1.0,
                      "stroke-color-opacity" : 1.0,
                      "stroke-color-red" : 1.0,
                      "stroke-width" : 8.0,
                      "tail-x" : {
                        "type" : "double",
                        "defaultValue" : 571.764705882379,
                        "interp" : "eioe"
                      },
                      "tail-y" : {
                        "type" : "double",
                        "defaultValue" : -126.050420168032,
                        "interp" : "eioe"
                      },
                      "horizontal-alignment" : "center",
                      "shape-anchor" : "none",
                      "shape-tail" : "arrow",
                      "stroke-style" : "dash",
                      "vertical-alignment" : "center",
                      "textAttributes" : {
                        "type" : "textAttributeList",
                        "keyframes" : [
                          {
                            "time" : 0,
                            "value" : null,
                            "duration" : 0
                          }
                        ]
                      }
                    },
                    "attributes" : {
                      "autoRotateText" : true
                    },
                    "parameters" : {
                      "translation0" : 204.285714285577,
                      "translation1" : 418.571428571297
                    },
                    "effects" : [
                        {
                          "effectName" : "DropShadow",
                          "category" : "categoryVisualEffects",
                          "parameters" : {
                            "angle" : 5.49778714378214,
                            "blur" : 10.0,
                            "color-alpha" : 1.0,
                            "color-blue" : 0.482352941176471,
                            "color-green" : 0.482352941176471,
                            "color-red" : 0.501960784313725,
                            "enabled" : 1,
                            "offset" : 20.4166666666667,
                            "opacity" : 1.0
                          },
                          "metadata" : {
                            "default-dropshadow-color-b" : 0.1216,
                            "default-dropshadow-color-g" : 0.1216,
                            "default-dropshadow-color-r" : 0.1216,
                            "default-dropshadow-offset" : 10.0,
                            "default-dropshadow-opacity" : 0.4
                          }
                        }
                    ],
                    "start" : 5997,
                    "duration" : 861,
                    "mediaStart" : -24,
                    "mediaDuration" : 861,
                    "scalar" : 1,
                    "metadata" : {
                      "WinSubProjectDisplayName" : "",
                      "clipSpeedAttribute" : false,
                      "default-stroke-color-blue" : 0.537254901960784,
                      "default-stroke-color-green" : 0.133333333333333,
                      "default-stroke-color-opacity" : 1.0,
                      "default-stroke-color-red" : 0.388235294117647,
                      "default-translation0" : 0.0,
                      "default-translation1" : 0.0
                    },
                    "animationTracks" : {

                    }
                  }
                ]
              },
              {
                "trackIndex" : 9,
                "medias" : [
                  {
                    "id" : 44,
                    "_type" : "Callout",
                    "def" : {
                      "kind" : "remix",
                      "shape" : "text",
                      "style" : "basic",
                      "height" : 98.9361702127638,
                      "width" : 400.0,
                      "word-wrap" : 1.0,
                      "horizontal-alignment" : "center",
                      "text" : "Screen size",
                      "vertical-alignment" : "center",
                      "font" : {
                        "color-blue" : 1.0,
                        "color-green" : 1.0,
                        "color-red" : 1.0,
                        "size" : 96.0,
                        "tracking" : 0.0,
                        "name" : "Montserrat",
                        "weight" : "Regular"
                      },
                      "textAttributes" : {
                        "type" : "textAttributeList",
                        "keyframes" : [
                          {
                            "time" : 0,
                            "value" : [{"name":"strikethrough","rangeEnd":11,"rangeStart":0,"value":0,"valueType":"int"},{"name":"fontName","rangeEnd":11,"rangeStart":0,"value":"Montserrat","valueType":"string"},{"name":"fontWeight","rangeEnd":11,"rangeStart":0,"value":400,"valueType":"int"},{"name":"fgColor","rangeEnd":11,"rangeStart":0,"value":"(27,157,44,255)","valueType":"color"},{"name":"fontSize","rangeEnd":11,"rangeStart":0,"value":96,"valueType":"double"},{"name":"underline","rangeEnd":11,"rangeStart":0,"value":0,"valueType":"int"},{"name":"fontItalic","rangeEnd":11,"rangeStart":0,"value":0,"valueType":"int"}],
                            "duration" : 0
                          }
                        ]
                      }
                    },
                    "attributes" : {
                      "autoRotateText" : true
                    },
                    "parameters" : {
                      "translation0" : -39.3939393934356,
                      "translation1" : 301.095744680914
                    },
                    "effects" : [
                        {
                          "effectName" : "DropShadow",
                          "category" : "categoryVisualEffects",
                          "parameters" : {
                            "angle" : 5.49778714378214,
                            "blur" : 10.0,
                            "color-alpha" : 1.0,
                            "color-blue" : 0.1216,
                            "color-green" : 0.1216,
                            "color-red" : 0.1216,
                            "enabled" : 1,
                            "offset" : 10.0,
                            "opacity" : 0.4
                          }
                        }
                    ],
                    "start" : 781,
                    "duration" : 221,
                    "mediaStart" : -76,
                    "mediaDuration" : 221,
                    "scalar" : 1,
                    "metadata" : {
                      "WinSubProjectDisplayName" : "",
                      "clipSpeedAttribute" : false,
                      "default-HAlign" : "center",
                      "default-VAlign" : "center",
                      "default-translation0" : 0.0,
                      "default-translation1" : 0.0
                    },
                    "animationTracks" : {

                    }
                  },
                  {
                    "id" : 45,
                    "_type" : "Callout",
                    "def" : {
                      "kind" : "remix",
                      "shape" : "text",
                      "style" : "basic",
                      "height" : 111.702127659586,
                      "width" : 585.106382978281,
                      "word-wrap" : 1.0,
                      "horizontal-alignment" : "center",
                      "text" : "Screen Resolution",
                      "vertical-alignment" : "center",
                      "font" : {
                        "color-blue" : 1.0,
                        "color-green" : 1.0,
                        "color-red" : 1.0,
                        "size" : 96.0,
                        "tracking" : 0.0,
                        "name" : "Montserrat",
                        "weight" : "Regular"
                      },
                      "textAttributes" : {
                        "type" : "textAttributeList",
                        "keyframes" : [
                          {
                            "time" : 0,
                            "value" : [{"name":"fgColor","rangeEnd":17,"rangeStart":0,"value":"(27,157,44,255)","valueType":"color"},{"name":"fontItalic","rangeEnd":17,"rangeStart":0,"value":0,"valueType":"int"},{"name":"fontSize","rangeEnd":17,"rangeStart":0,"value":96,"valueType":"double"},{"name":"fontWeight","rangeEnd":17,"rangeStart":0,"value":400,"valueType":"int"},{"name":"strikethrough","rangeEnd":17,"rangeStart":0,"value":0,"valueType":"int"},{"name":"fontName","rangeEnd":17,"rangeStart":0,"value":"Montserrat","valueType":"string"},{"name":"underline","rangeEnd":17,"rangeStart":0,"value":0,"valueType":"int"}],
                            "duration" : 0
                          }
                        ]
                      }
                    },
                    "attributes" : {
                      "autoRotateText" : true
                    },
                    "parameters" : {
                      "translation0" : 5.76595744795539,
                      "translation1" : 309.723404255369
                    },
                    "effects" : [
                        {
                          "effectName" : "DropShadow",
                          "category" : "categoryVisualEffects",
                          "parameters" : {
                            "angle" : 5.49778714378214,
                            "blur" : 10.0,
                            "color-alpha" : 1.0,
                            "color-blue" : 0.1216,
                            "color-green" : 0.1216,
                            "color-red" : 0.1216,
                            "enabled" : 1,
                            "offset" : 10.0,
                            "opacity" : 0.4
                          }
                        }
                    ],
                    "start" : 1025,
                    "duration" : 284,
                    "mediaStart" : -24,
                    "mediaDuration" : 284,
                    "scalar" : 1,
                    "metadata" : {
                      "WinSubProjectDisplayName" : "",
                      "clipSpeedAttribute" : false,
                      "default-HAlign" : "center",
                      "default-VAlign" : "center",
                      "default-text-attributes" : "[{\"name\":\"strikethrough\",\"rangeEnd\":11,\"rangeStart\":0,\"value\":0,\"valueType\":\"int\"},{\"name\":\"fontName\",\"rangeEnd\":11,\"rangeStart\":0,\"value\":\"Montserrat\",\"valueType\":\"string\"},{\"name\":\"fontWeight\",\"rangeEnd\":11,\"rangeStart\":0,\"value\":400,\"valueType\":\"int\"},{\"name\":\"fgColor\",\"rangeEnd\":11,\"rangeStart\":0,\"value\":\"(27,157,44,255)\",\"valueType\":\"color\"},{\"name\":\"fontSize\",\"rangeEnd\":11,\"rangeStart\":0,\"value\":96,\"valueType\":\"double\"},{\"name\":\"underline\",\"rangeEnd\":11,\"rangeStart\":0,\"value\":0,\"valueType\":\"int\"},{\"name\":\"fontItalic\",\"rangeEnd\":11,\"rangeStart\":0,\"value\":0,\"valueType\":\"int\"}]",
                      "default-translation0" : 0.0,
                      "default-translation1" : 0.0
                    },
                    "animationTracks" : {

                    }
                  },
                  {
                    "id" : 46,
                    "_type" : "Callout",
                    "def" : {
                      "kind" : "remix",
                      "shape" : "text",
                      "style" : "basic",
                      "height" : 111.702127659586,
                      "width" : 495.744680850905,
                      "word-wrap" : 1.0,
                      "horizontal-alignment" : "center",
                      "text" : "Display type",
                      "vertical-alignment" : "center",
                      "font" : {
                        "color-blue" : 1.0,
                        "color-green" : 1.0,
                        "color-red" : 1.0,
                        "size" : 96.0,
                        "tracking" : 0.0,
                        "name" : "Montserrat",
                        "weight" : "Regular"
                      },
                      "textAttributes" : {
                        "type" : "textAttributeList",
                        "keyframes" : [
                          {
                            "time" : 0,
                            "value" : [{"name":"fontItalic","rangeEnd":12,"rangeStart":0,"value":0,"valueType":"int"},{"name":"strikethrough","rangeEnd":12,"rangeStart":0,"value":0,"valueType":"int"},{"name":"underline","rangeEnd":12,"rangeStart":0,"value":0,"valueType":"int"},{"name":"fontWeight","rangeEnd":12,"rangeStart":0,"value":400,"valueType":"int"},{"name":"fontSize","rangeEnd":12,"rangeStart":0,"value":96,"valueType":"double"},{"name":"fgColor","rangeEnd":12,"rangeStart":0,"value":"(27,157,44,255)","valueType":"color"},{"name":"fontName","rangeEnd":12,"rangeStart":0,"value":"Montserrat","valueType":"string"}],
                            "duration" : 0
                          }
                        ]
                      }
                    },
                    "attributes" : {
                      "autoRotateText" : true
                    },
                    "parameters" : {
                      "translation0" : -13.7021276584241,
                      "translation1" : 316.106382978778
                    },
                    "effects" : [
                        {
                          "effectName" : "DropShadow",
                          "category" : "categoryVisualEffects",
                          "parameters" : {
                            "angle" : 5.49778714378214,
                            "blur" : 10.0,
                            "color-alpha" : 1.0,
                            "color-blue" : 0.1216,
                            "color-green" : 0.1216,
                            "color-red" : 0.1216,
                            "enabled" : 1,
                            "offset" : 10.0,
                            "opacity" : 0.4
                          }
                        }
                    ],
                    "start" : 1327,
                    "duration" : 303,
                    "mediaStart" : -12,
                    "mediaDuration" : 303,
                    "scalar" : 1,
                    "metadata" : {
                      "WinSubProjectDisplayName" : "",
                      "clipSpeedAttribute" : false,
                      "default-HAlign" : "center",
                      "default-VAlign" : "center",
                      "default-text-attributes" : "[{\"name\":\"strikethrough\",\"rangeEnd\":11,\"rangeStart\":0,\"value\":0,\"valueType\":\"int\"},{\"name\":\"fontName\",\"rangeEnd\":11,\"rangeStart\":0,\"value\":\"Montserrat\",\"valueType\":\"string\"},{\"name\":\"fontWeight\",\"rangeEnd\":11,\"rangeStart\":0,\"value\":400,\"valueType\":\"int\"},{\"name\":\"fgColor\",\"rangeEnd\":11,\"rangeStart\":0,\"value\":\"(27,157,44,255)\",\"valueType\":\"color\"},{\"name\":\"fontSize\",\"rangeEnd\":11,\"rangeStart\":0,\"value\":96,\"valueType\":\"double\"},{\"name\":\"underline\",\"rangeEnd\":11,\"rangeStart\":0,\"value\":0,\"valueType\":\"int\"},{\"name\":\"fontItalic\",\"rangeEnd\":11,\"rangeStart\":0,\"value\":0,\"valueType\":\"int\"}]",
                      "default-translation0" : 0.0,
                      "default-translation1" : 0.0
                    },
                    "animationTracks" : {

                    }
                  },
                  {
                    "id" : 47,
                    "_type" : "Callout",
                    "def" : {
                      "kind" : "remix",
                      "shape" : "text",
                      "style" : "basic",
                      "height" : 137.23404255323,
                      "width" : 568.085106383099,
                      "word-wrap" : 1.0,
                      "horizontal-alignment" : "center",
                      "text" : "Protection",
                      "vertical-alignment" : "center",
                      "font" : {
                        "color-blue" : 1.0,
                        "color-green" : 1.0,
                        "color-red" : 1.0,
                        "size" : 96.0,
                        "tracking" : 0.0,
                        "name" : "Montserrat",
                        "weight" : "Regular"
                      },
                      "textAttributes" : {
                        "type" : "textAttributeList",
                        "keyframes" : [
                          {
                            "time" : 0,
                            "value" : [{"name":"fontWeight","rangeEnd":10,"rangeStart":0,"value":400,"valueType":"int"},{"name":"fontName","rangeEnd":10,"rangeStart":0,"value":"Montserrat","valueType":"string"},{"name":"fontSize","rangeEnd":10,"rangeStart":0,"value":96,"valueType":"double"},{"name":"fgColor","rangeEnd":10,"rangeStart":0,"value":"(27,157,44,255)","valueType":"color"},{"name":"fontItalic","rangeEnd":10,"rangeStart":0,"value":0,"valueType":"int"},{"name":"strikethrough","rangeEnd":10,"rangeStart":0,"value":0,"valueType":"int"},{"name":"underline","rangeEnd":10,"rangeStart":0,"value":0,"valueType":"int"}],
                            "duration" : 0
                          }
                        ]
                      }
                    },
                    "attributes" : {
                      "autoRotateText" : true
                    },
                    "parameters" : {
                      "translation0" : -24.0106382966403,
                      "translation1" : 318.468085106446
                    },
                    "effects" : [
                        {
                          "effectName" : "DropShadow",
                          "category" : "categoryVisualEffects",
                          "parameters" : {
                            "angle" : 5.49778714378214,
                            "blur" : 10.0,
                            "color-alpha" : 1.0,
                            "color-blue" : 0.1216,
                            "color-green" : 0.1216,
                            "color-red" : 0.1216,
                            "enabled" : 1,
                            "offset" : 10.0,
                            "opacity" : 0.4
                          }
                        }
                    ],
                    "start" : 1648,
                    "duration" : 283,
                    "mediaStart" : -10,
                    "mediaDuration" : 283,
                    "scalar" : 1,
                    "metadata" : {
                      "WinSubProjectDisplayName" : "",
                      "clipSpeedAttribute" : false,
                      "default-HAlign" : "center",
                      "default-VAlign" : "center",
                      "default-text-attributes" : "[{\"name\":\"strikethrough\",\"rangeEnd\":11,\"rangeStart\":0,\"value\":0,\"valueType\":\"int\"},{\"name\":\"fontName\",\"rangeEnd\":11,\"rangeStart\":0,\"value\":\"Montserrat\",\"valueType\":\"string\"},{\"name\":\"fontWeight\",\"rangeEnd\":11,\"rangeStart\":0,\"value\":400,\"valueType\":\"int\"},{\"name\":\"fgColor\",\"rangeEnd\":11,\"rangeStart\":0,\"value\":\"(27,157,44,255)\",\"valueType\":\"color\"},{\"name\":\"fontSize\",\"rangeEnd\":11,\"rangeStart\":0,\"value\":96,\"valueType\":\"double\"},{\"name\":\"underline\",\"rangeEnd\":11,\"rangeStart\":0,\"value\":0,\"valueType\":\"int\"},{\"name\":\"fontItalic\",\"rangeEnd\":11,\"rangeStart\":0,\"value\":0,\"valueType\":\"int\"}]",
                      "default-translation0" : 0.0,
                      "default-translation1" : 0.0
                    },
                    "animationTracks" : {

                    }
                  },
                  {
                    "id" : 48,
                    "_type" : "Callout",
                    "def" : {
                      "kind" : "remix",
                      "shape" : "text",
                      "style" : "basic",
                      "height" : 137.23404255323,
                      "width" : 568.085106383099,
                      "word-wrap" : 1.0,
                      "horizontal-alignment" : "center",
                      "text" : "Protection",
                      "vertical-alignment" : "center",
                      "font" : {
                        "color-blue" : 1.0,
                        "color-green" : 1.0,
                        "color-red" : 1.0,
                        "size" : 96.0,
                        "tracking" : 0.0,
                        "name" : "Montserrat",
                        "weight" : "Regular"
                      },
                      "textAttributes" : {
                        "type" : "textAttributeList",
                        "keyframes" : [
                          {
                            "time" : 0,
                            "value" : [{"name":"fontWeight","rangeEnd":10,"rangeStart":0,"value":400,"valueType":"int"},{"name":"fontName","rangeEnd":10,"rangeStart":0,"value":"Montserrat","valueType":"string"},{"name":"fontSize","rangeEnd":10,"rangeStart":0,"value":96,"valueType":"double"},{"name":"fgColor","rangeEnd":10,"rangeStart":0,"value":"(27,157,44,255)","valueType":"color"},{"name":"fontItalic","rangeEnd":10,"rangeStart":0,"value":0,"valueType":"int"},{"name":"strikethrough","rangeEnd":10,"rangeStart":0,"value":0,"valueType":"int"},{"name":"underline","rangeEnd":10,"rangeStart":0,"value":0,"valueType":"int"}],
                            "duration" : 0
                          }
                        ]
                      }
                    },
                    "attributes" : {
                      "autoRotateText" : true
                    },
                    "parameters" : {
                      "translation0" : -24.0106382966403,
                      "translation1" : 318.468085106446
                    },
                    "effects" : [
                        {
                          "effectName" : "DropShadow",
                          "category" : "categoryVisualEffects",
                          "parameters" : {
                            "angle" : 5.49778714378214,
                            "blur" : 10.0,
                            "color-alpha" : 1.0,
                            "color-blue" : 0.1216,
                            "color-green" : 0.1216,
                            "color-red" : 0.1216,
                            "enabled" : 1,
                            "offset" : 10.0,
                            "opacity" : 0.4
                          }
                        }
                    ],
                    "start" : 1977,
                    "duration" : 320,
                    "mediaStart" : -24,
                    "mediaDuration" : 320,
                    "scalar" : 1,
                    "metadata" : {
                      "WinSubProjectDisplayName" : "",
                      "clipSpeedAttribute" : false,
                      "default-HAlign" : "center",
                      "default-VAlign" : "center",
                      "default-text-attributes" : "[{\"name\":\"strikethrough\",\"rangeEnd\":11,\"rangeStart\":0,\"value\":0,\"valueType\":\"int\"},{\"name\":\"fontName\",\"rangeEnd\":11,\"rangeStart\":0,\"value\":\"Montserrat\",\"valueType\":\"string\"},{\"name\":\"fontWeight\",\"rangeEnd\":11,\"rangeStart\":0,\"value\":400,\"valueType\":\"int\"},{\"name\":\"fgColor\",\"rangeEnd\":11,\"rangeStart\":0,\"value\":\"(27,157,44,255)\",\"valueType\":\"color\"},{\"name\":\"fontSize\",\"rangeEnd\":11,\"rangeStart\":0,\"value\":96,\"valueType\":\"double\"},{\"name\":\"underline\",\"rangeEnd\":11,\"rangeStart\":0,\"value\":0,\"valueType\":\"int\"},{\"name\":\"fontItalic\",\"rangeEnd\":11,\"rangeStart\":0,\"value\":0,\"valueType\":\"int\"}]",
                      "default-translation0" : 0.0,
                      "default-translation1" : 0.0
                    },
                    "animationTracks" : {

                    }
                  },
                  {
                    "id" : 49,
                    "_type" : "Callout",
                    "def" : {
                      "kind" : "remix",
                      "shape" : "text",
                      "style" : "basic",
                      "height" : 137.23404255323,
                      "width" : 568.085106383099,
                      "word-wrap" : 1.0,
                      "horizontal-alignment" : "center",
                      "text" : "Dimensions",
                      "vertical-alignment" : "center",
                      "font" : {
                        "color-blue" : 1.0,
                        "color-green" : 1.0,
                        "color-red" : 1.0,
                        "size" : 96.0,
                        "tracking" : 0.0,
                        "name" : "Montserrat",
                        "weight" : "Regular"
                      },
                      "textAttributes" : {
                        "type" : "textAttributeList",
                        "keyframes" : [
                          {
                            "time" : 0,
                            "value" : [{"name":"fontItalic","rangeEnd":10,"rangeStart":0,"value":0,"valueType":"int"},{"name":"fontSize","rangeEnd":10,"rangeStart":0,"value":96,"valueType":"double"},{"name":"fontName","rangeEnd":10,"rangeStart":0,"value":"Montserrat","valueType":"string"},{"name":"fgColor","rangeEnd":10,"rangeStart":0,"value":"(27,157,44,255)","valueType":"color"},{"name":"fontWeight","rangeEnd":10,"rangeStart":0,"value":400,"valueType":"int"},{"name":"underline","rangeEnd":10,"rangeStart":0,"value":0,"valueType":"int"},{"name":"strikethrough","rangeEnd":10,"rangeStart":0,"value":0,"valueType":"int"}],
                            "duration" : 0
                          }
                        ]
                      }
                    },
                    "attributes" : {
                      "autoRotateText" : true
                    },
                    "parameters" : {
                      "translation0" : -24.0106382966403,
                      "translation1" : 318.468085106446
                    },
                    "effects" : [
                        {
                          "effectName" : "DropShadow",
                          "category" : "categoryVisualEffects",
                          "parameters" : {
                            "angle" : 5.49778714378214,
                            "blur" : 10.0,
                            "color-alpha" : 1.0,
                            "color-blue" : 0.1216,
                            "color-green" : 0.1216,
                            "color-red" : 0.1216,
                            "enabled" : 1,
                            "offset" : 10.0,
                            "opacity" : 0.4
                          }
                        }
                    ],
                    "start" : 2339,
                    "duration" : 326,
                    "mediaStart" : -24,
                    "mediaDuration" : 326,
                    "scalar" : 1,
                    "metadata" : {
                      "WinSubProjectDisplayName" : "",
                      "clipSpeedAttribute" : false,
                      "default-HAlign" : "center",
                      "default-VAlign" : "center",
                      "default-text-attributes" : "[{\"name\":\"strikethrough\",\"rangeEnd\":11,\"rangeStart\":0,\"value\":0,\"valueType\":\"int\"},{\"name\":\"fontName\",\"rangeEnd\":11,\"rangeStart\":0,\"value\":\"Montserrat\",\"valueType\":\"string\"},{\"name\":\"fontWeight\",\"rangeEnd\":11,\"rangeStart\":0,\"value\":400,\"valueType\":\"int\"},{\"name\":\"fgColor\",\"rangeEnd\":11,\"rangeStart\":0,\"value\":\"(27,157,44,255)\",\"valueType\":\"color\"},{\"name\":\"fontSize\",\"rangeEnd\":11,\"rangeStart\":0,\"value\":96,\"valueType\":\"double\"},{\"name\":\"underline\",\"rangeEnd\":11,\"rangeStart\":0,\"value\":0,\"valueType\":\"int\"},{\"name\":\"fontItalic\",\"rangeEnd\":11,\"rangeStart\":0,\"value\":0,\"valueType\":\"int\"}]",
                      "default-translation0" : 0.0,
                      "default-translation1" : 0.0
                    },
                    "animationTracks" : {

                    }
                  },
                  {
                    "id" : 50,
                    "_type" : "Callout",
                    "def" : {
                      "kind" : "remix",
                      "shape" : "text",
                      "style" : "basic",
                      "height" : 137.23404255323,
                      "width" : 568.085106383099,
                      "word-wrap" : 1.0,
                      "horizontal-alignment" : "center",
                      "text" : "Weight",
                      "vertical-alignment" : "center",
                      "font" : {
                        "color-blue" : 1.0,
                        "color-green" : 1.0,
                        "color-red" : 1.0,
                        "size" : 96.0,
                        "tracking" : 0.0,
                        "name" : "Montserrat",
                        "weight" : "Regular"
                      },
                      "textAttributes" : {
                        "type" : "textAttributeList",
                        "keyframes" : [
                          {
                            "time" : 0,
                            "value" : [{"name":"underline","rangeEnd":6,"rangeStart":0,"value":0,"valueType":"int"},{"name":"fontWeight","rangeEnd":6,"rangeStart":0,"value":400,"valueType":"int"},{"name":"strikethrough","rangeEnd":6,"rangeStart":0,"value":0,"valueType":"int"},{"name":"fontName","rangeEnd":6,"rangeStart":0,"value":"Montserrat","valueType":"string"},{"name":"fontSize","rangeEnd":6,"rangeStart":0,"value":96,"valueType":"double"},{"name":"fontItalic","rangeEnd":6,"rangeStart":0,"value":0,"valueType":"int"},{"name":"fgColor","rangeEnd":6,"rangeStart":0,"value":"(27,157,44,255)","valueType":"color"}],
                            "duration" : 0
                          }
                        ]
                      }
                    },
                    "attributes" : {
                      "autoRotateText" : true
                    },
                    "parameters" : {
                      "translation0" : -24.0106382966403,
                      "translation1" : 318.468085106446
                    },
                    "effects" : [
                        {
                          "effectName" : "DropShadow",
                          "category" : "categoryVisualEffects",
                          "parameters" : {
                            "angle" : 5.49778714378214,
                            "blur" : 10.0,
                            "color-alpha" : 1.0,
                            "color-blue" : 0.1216,
                            "color-green" : 0.1216,
                            "color-red" : 0.1216,
                            "enabled" : 1,
                            "offset" : 10.0,
                            "opacity" : 0.4
                          }
                        }
                    ],
                    "start" : 2688,
                    "duration" : 323,
                    "mediaStart" : -4,
                    "mediaDuration" : 323,
                    "scalar" : 1,
                    "metadata" : {
                      "WinSubProjectDisplayName" : "",
                      "clipSpeedAttribute" : false,
                      "default-HAlign" : "center",
                      "default-VAlign" : "center",
                      "default-text-attributes" : "[{\"name\":\"strikethrough\",\"rangeEnd\":11,\"rangeStart\":0,\"value\":0,\"valueType\":\"int\"},{\"name\":\"fontName\",\"rangeEnd\":11,\"rangeStart\":0,\"value\":\"Montserrat\",\"valueType\":\"string\"},{\"name\":\"fontWeight\",\"rangeEnd\":11,\"rangeStart\":0,\"value\":400,\"valueType\":\"int\"},{\"name\":\"fgColor\",\"rangeEnd\":11,\"rangeStart\":0,\"value\":\"(27,157,44,255)\",\"valueType\":\"color\"},{\"name\":\"fontSize\",\"rangeEnd\":11,\"rangeStart\":0,\"value\":96,\"valueType\":\"double\"},{\"name\":\"underline\",\"rangeEnd\":11,\"rangeStart\":0,\"value\":0,\"valueType\":\"int\"},{\"name\":\"fontItalic\",\"rangeEnd\":11,\"rangeStart\":0,\"value\":0,\"valueType\":\"int\"}]",
                      "default-translation0" : 0.0,
                      "default-translation1" : 0.0
                    },
                    "animationTracks" : {

                    }
                  },
                  {
                    "id" : 51,
                    "_type" : "Callout",
                    "def" : {
                      "kind" : "remix",
                      "shape" : "text",
                      "style" : "basic",
                      "height" : 137.23404255323,
                      "width" : 568.085106383099,
                      "word-wrap" : 1.0,
                      "horizontal-alignment" : "center",
                      "text" : "SIM",
                      "vertical-alignment" : "center",
                      "font" : {
                        "color-blue" : 1.0,
                        "color-green" : 1.0,
                        "color-red" : 1.0,
                        "size" : 96.0,
                        "tracking" : 0.0,
                        "name" : "Montserrat",
                        "weight" : "Regular"
                      },
                      "textAttributes" : {
                        "type" : "textAttributeList",
                        "keyframes" : [
                          {
                            "time" : 0,
                            "value" : [{"name":"strikethrough","rangeEnd":3,"rangeStart":0,"value":0,"valueType":"int"},{"name":"fontWeight","rangeEnd":3,"rangeStart":0,"value":400,"valueType":"int"},{"name":"fontName","rangeEnd":3,"rangeStart":0,"value":"Montserrat","valueType":"string"},{"name":"fontSize","rangeEnd":3,"rangeStart":0,"value":96,"valueType":"double"},{"name":"fontItalic","rangeEnd":3,"rangeStart":0,"value":0,"valueType":"int"},{"name":"fgColor","rangeEnd":3,"rangeStart":0,"value":"(27,157,44,255)","valueType":"color"},{"name":"underline","rangeEnd":3,"rangeStart":0,"value":0,"valueType":"int"}],
                            "duration" : 0
                          }
                        ]
                      }
                    },
                    "attributes" : {
                      "autoRotateText" : true
                    },
                    "parameters" : {
                      "translation0" : -24.0106382966403,
                      "translation1" : 318.468085106446
                    },
                    "effects" : [
                        {
                          "effectName" : "DropShadow",
                          "category" : "categoryVisualEffects",
                          "parameters" : {
                            "angle" : 5.49778714378214,
                            "blur" : 10.0,
                            "color-alpha" : 1.0,
                            "color-blue" : 0.1216,
                            "color-green" : 0.1216,
                            "color-red" : 0.1216,
                            "enabled" : 1,
                            "offset" : 10.0,
                            "opacity" : 0.4
                          }
                        }
                    ],
                    "start" : 3033,
                    "duration" : 318,
                    "mediaStart" : -24,
                    "mediaDuration" : 318,
                    "scalar" : 1,
                    "metadata" : {
                      "WinSubProjectDisplayName" : "",
                      "clipSpeedAttribute" : false,
                      "default-HAlign" : "center",
                      "default-VAlign" : "center",
                      "default-text-attributes" : "[{\"name\":\"strikethrough\",\"rangeEnd\":11,\"rangeStart\":0,\"value\":0,\"valueType\":\"int\"},{\"name\":\"fontName\",\"rangeEnd\":11,\"rangeStart\":0,\"value\":\"Montserrat\",\"valueType\":\"string\"},{\"name\":\"fontWeight\",\"rangeEnd\":11,\"rangeStart\":0,\"value\":400,\"valueType\":\"int\"},{\"name\":\"fgColor\",\"rangeEnd\":11,\"rangeStart\":0,\"value\":\"(27,157,44,255)\",\"valueType\":\"color\"},{\"name\":\"fontSize\",\"rangeEnd\":11,\"rangeStart\":0,\"value\":96,\"valueType\":\"double\"},{\"name\":\"underline\",\"rangeEnd\":11,\"rangeStart\":0,\"value\":0,\"valueType\":\"int\"},{\"name\":\"fontItalic\",\"rangeEnd\":11,\"rangeStart\":0,\"value\":0,\"valueType\":\"int\"}]",
                      "default-translation0" : 0.0,
                      "default-translation1" : 0.0
                    },
                    "animationTracks" : {

                    }
                  },
                  {
                    "id" : 52,
                    "_type" : "Callout",
                    "def" : {
                      "kind" : "remix",
                      "shape" : "text",
                      "style" : "basic",
                      "height" : 137.23404255323,
                      "width" : 568.085106383099,
                      "word-wrap" : 1.0,
                      "horizontal-alignment" : "center",
                      "text" : "OS",
                      "vertical-alignment" : "center",
                      "font" : {
                        "color-blue" : 1.0,
                        "color-green" : 1.0,
                        "color-red" : 1.0,
                        "size" : 96.0,
                        "tracking" : 0.0,
                        "name" : "Montserrat",
                        "weight" : "Regular"
                      },
                      "textAttributes" : {
                        "type" : "textAttributeList",
                        "keyframes" : [
                          {
                            "time" : 0,
                            "value" : [{"name":"fgColor","rangeEnd":2,"rangeStart":0,"value":"(27,157,44,255)","valueType":"color"},{"name":"strikethrough","rangeEnd":2,"rangeStart":0,"value":0,"valueType":"int"},{"name":"fontName","rangeEnd":2,"rangeStart":0,"value":"Montserrat","valueType":"string"},{"name":"fontWeight","rangeEnd":2,"rangeStart":0,"value":400,"valueType":"int"},{"name":"underline","rangeEnd":2,"rangeStart":0,"value":0,"valueType":"int"},{"name":"fontSize","rangeEnd":2,"rangeStart":0,"value":96,"valueType":"double"},{"name":"fontItalic","rangeEnd":2,"rangeStart":0,"value":0,"valueType":"int"}],
                            "duration" : 0
                          }
                        ]
                      }
                    },
                    "attributes" : {
                      "autoRotateText" : true
                    },
                    "parameters" : {
                      "translation0" : 21.4439071578986,
                      "translation1" : 313.922630560996
                    },
                    "effects" : [
                        {
                          "effectName" : "DropShadow",
                          "category" : "categoryVisualEffects",
                          "parameters" : {
                            "angle" : 5.49778714378214,
                            "blur" : 10.0,
                            "color-alpha" : 1.0,
                            "color-blue" : 0.1216,
                            "color-green" : 0.1216,
                            "color-red" : 0.1216,
                            "enabled" : 1,
                            "offset" : 10.0,
                            "opacity" : 0.4
                          }
                        }
                    ],
                    "start" : 3392,
                    "duration" : 296,
                    "mediaStart" : -24,
                    "mediaDuration" : 296,
                    "scalar" : 1,
                    "metadata" : {
                      "WinSubProjectDisplayName" : "",
                      "clipSpeedAttribute" : false,
                      "default-HAlign" : "center",
                      "default-VAlign" : "center",
                      "default-text-attributes" : "[{\"name\":\"strikethrough\",\"rangeEnd\":11,\"rangeStart\":0,\"value\":0,\"valueType\":\"int\"},{\"name\":\"fontName\",\"rangeEnd\":11,\"rangeStart\":0,\"value\":\"Montserrat\",\"valueType\":\"string\"},{\"name\":\"fontWeight\",\"rangeEnd\":11,\"rangeStart\":0,\"value\":400,\"valueType\":\"int\"},{\"name\":\"fgColor\",\"rangeEnd\":11,\"rangeStart\":0,\"value\":\"(27,157,44,255)\",\"valueType\":\"color\"},{\"name\":\"fontSize\",\"rangeEnd\":11,\"rangeStart\":0,\"value\":96,\"valueType\":\"double\"},{\"name\":\"underline\",\"rangeEnd\":11,\"rangeStart\":0,\"value\":0,\"valueType\":\"int\"},{\"name\":\"fontItalic\",\"rangeEnd\":11,\"rangeStart\":0,\"value\":0,\"valueType\":\"int\"}]",
                      "default-translation0" : 0.0,
                      "default-translation1" : 0.0
                    },
                    "animationTracks" : {

                    }
                  },
                  {
                    "id" : 53,
                    "_type" : "Callout",
                    "def" : {
                      "kind" : "remix",
                      "shape" : "text",
                      "style" : "basic",
                      "height" : 137.23404255323,
                      "width" : 568.085106383099,
                      "word-wrap" : 1.0,
                      "horizontal-alignment" : "center",
                      "text" : "Chipset",
                      "vertical-alignment" : "center",
                      "font" : {
                        "color-blue" : 1.0,
                        "color-green" : 1.0,
                        "color-red" : 1.0,
                        "size" : 96.0,
                        "tracking" : 0.0,
                        "name" : "Montserrat",
                        "weight" : "Regular"
                      },
                      "textAttributes" : {
                        "type" : "textAttributeList",
                        "keyframes" : [
                          {
                            "time" : 0,
                            "value" : [{"name":"strikethrough","rangeEnd":7,"rangeStart":0,"value":0,"valueType":"int"},{"name":"fontSize","rangeEnd":7,"rangeStart":0,"value":96,"valueType":"double"},{"name":"fgColor","rangeEnd":7,"rangeStart":0,"value":"(27,157,44,255)","valueType":"color"},{"name":"fontName","rangeEnd":7,"rangeStart":0,"value":"Montserrat","valueType":"string"},{"name":"underline","rangeEnd":7,"rangeStart":0,"value":0,"valueType":"int"},{"name":"fontWeight","rangeEnd":7,"rangeStart":0,"value":400,"valueType":"int"},{"name":"fontItalic","rangeEnd":7,"rangeStart":0,"value":0,"valueType":"int"}],
                            "duration" : 0
                          }
                        ]
                      }
                    },
                    "attributes" : {
                      "autoRotateText" : true
                    },
                    "parameters" : {
                      "translation0" : 21.4439071578986,
                      "translation1" : 313.922630560996
                    },
                    "effects" : [
                        {
                          "effectName" : "DropShadow",
                          "category" : "categoryVisualEffects",
                          "parameters" : {
                            "angle" : 5.49778714378214,
                            "blur" : 10.0,
                            "color-alpha" : 1.0,
                            "color-blue" : 0.1216,
                            "color-green" : 0.1216,
                            "color-red" : 0.1216,
                            "enabled" : 1,
                            "offset" : 10.0,
                            "opacity" : 0.4
                          }
                        }
                    ],
                    "start" : 3704,
                    "duration" : 318,
                    "mediaStart" : -24,
                    "mediaDuration" : 318,
                    "scalar" : 1,
                    "metadata" : {
                      "WinSubProjectDisplayName" : "",
                      "clipSpeedAttribute" : false,
                      "default-HAlign" : "center",
                      "default-VAlign" : "center",
                      "default-text-attributes" : "[{\"name\":\"strikethrough\",\"rangeEnd\":11,\"rangeStart\":0,\"value\":0,\"valueType\":\"int\"},{\"name\":\"fontName\",\"rangeEnd\":11,\"rangeStart\":0,\"value\":\"Montserrat\",\"valueType\":\"string\"},{\"name\":\"fontWeight\",\"rangeEnd\":11,\"rangeStart\":0,\"value\":400,\"valueType\":\"int\"},{\"name\":\"fgColor\",\"rangeEnd\":11,\"rangeStart\":0,\"value\":\"(27,157,44,255)\",\"valueType\":\"color\"},{\"name\":\"fontSize\",\"rangeEnd\":11,\"rangeStart\":0,\"value\":96,\"valueType\":\"double\"},{\"name\":\"underline\",\"rangeEnd\":11,\"rangeStart\":0,\"value\":0,\"valueType\":\"int\"},{\"name\":\"fontItalic\",\"rangeEnd\":11,\"rangeStart\":0,\"value\":0,\"valueType\":\"int\"}]",
                      "default-translation0" : 0.0,
                      "default-translation1" : 0.0
                    },
                    "animationTracks" : {

                    }
                  },
                  {
                    "id" : 54,
                    "_type" : "Callout",
                    "def" : {
                      "kind" : "remix",
                      "shape" : "text",
                      "style" : "basic",
                      "height" : 137.23404255323,
                      "width" : 568.085106383099,
                      "word-wrap" : 1.0,
                      "horizontal-alignment" : "center",
                      "text" : "CPU",
                      "vertical-alignment" : "center",
                      "font" : {
                        "color-blue" : 1.0,
                        "color-green" : 1.0,
                        "color-red" : 1.0,
                        "size" : 96.0,
                        "tracking" : 0.0,
                        "name" : "Montserrat",
                        "weight" : "Regular"
                      },
                      "textAttributes" : {
                        "type" : "textAttributeList",
                        "keyframes" : [
                          {
                            "time" : 0,
                            "value" : [{"name":"fontItalic","rangeEnd":3,"rangeStart":0,"value":0,"valueType":"int"},{"name":"fontSize","rangeEnd":3,"rangeStart":0,"value":96,"valueType":"double"},{"name":"underline","rangeEnd":3,"rangeStart":0,"value":0,"valueType":"int"},{"name":"fgColor","rangeEnd":3,"rangeStart":0,"value":"(27,157,44,255)","valueType":"color"},{"name":"fontName","rangeEnd":3,"rangeStart":0,"value":"Montserrat","valueType":"string"},{"name":"fontWeight","rangeEnd":3,"rangeStart":0,"value":400,"valueType":"int"},{"name":"strikethrough","rangeEnd":3,"rangeStart":0,"value":0,"valueType":"int"}],
                            "duration" : 0
                          }
                        ]
                      }
                    },
                    "attributes" : {
                      "autoRotateText" : true
                    },
                    "parameters" : {
                      "translation0" : 21.4439071578986,
                      "translation1" : 313.922630560996
                    },
                    "effects" : [
                        {
                          "effectName" : "DropShadow",
                          "category" : "categoryVisualEffects",
                          "parameters" : {
                            "angle" : 5.49778714378214,
                            "blur" : 10.0,
                            "color-alpha" : 1.0,
                            "color-blue" : 0.1216,
                            "color-green" : 0.1216,
                            "color-red" : 0.1216,
                            "enabled" : 1,
                            "offset" : 10.0,
                            "opacity" : 0.4
                          }
                        }
                    ],
                    "start" : 4041,
                    "duration" : 285,
                    "mediaStart" : -24,
                    "mediaDuration" : 285,
                    "scalar" : 1,
                    "metadata" : {
                      "WinSubProjectDisplayName" : "",
                      "clipSpeedAttribute" : false,
                      "default-HAlign" : "center",
                      "default-VAlign" : "center",
                      "default-text-attributes" : "[{\"name\":\"strikethrough\",\"rangeEnd\":11,\"rangeStart\":0,\"value\":0,\"valueType\":\"int\"},{\"name\":\"fontName\",\"rangeEnd\":11,\"rangeStart\":0,\"value\":\"Montserrat\",\"valueType\":\"string\"},{\"name\":\"fontWeight\",\"rangeEnd\":11,\"rangeStart\":0,\"value\":400,\"valueType\":\"int\"},{\"name\":\"fgColor\",\"rangeEnd\":11,\"rangeStart\":0,\"value\":\"(27,157,44,255)\",\"valueType\":\"color\"},{\"name\":\"fontSize\",\"rangeEnd\":11,\"rangeStart\":0,\"value\":96,\"valueType\":\"double\"},{\"name\":\"underline\",\"rangeEnd\":11,\"rangeStart\":0,\"value\":0,\"valueType\":\"int\"},{\"name\":\"fontItalic\",\"rangeEnd\":11,\"rangeStart\":0,\"value\":0,\"valueType\":\"int\"}]",
                      "default-translation0" : 0.0,
                      "default-translation1" : 0.0
                    },
                    "animationTracks" : {

                    }
                  },
                  {
                    "id" : 55,
                    "_type" : "Callout",
                    "def" : {
                      "kind" : "remix",
                      "shape" : "text",
                      "style" : "basic",
                      "height" : 137.23404255323,
                      "width" : 568.085106383099,
                      "word-wrap" : 1.0,
                      "horizontal-alignment" : "center",
                      "text" : "GPU",
                      "vertical-alignment" : "center",
                      "font" : {
                        "color-blue" : 1.0,
                        "color-green" : 1.0,
                        "color-red" : 1.0,
                        "size" : 96.0,
                        "tracking" : 0.0,
                        "name" : "Montserrat",
                        "weight" : "Regular"
                      },
                      "textAttributes" : {
                        "type" : "textAttributeList",
                        "keyframes" : [
                          {
                            "time" : 0,
                            "value" : [{"name":"strikethrough","rangeEnd":3,"rangeStart":0,"value":0,"valueType":"int"},{"name":"fgColor","rangeEnd":3,"rangeStart":0,"value":"(27,157,44,255)","valueType":"color"},{"name":"fontSize","rangeEnd":3,"rangeStart":0,"value":96,"valueType":"double"},{"name":"fontWeight","rangeEnd":3,"rangeStart":0,"value":400,"valueType":"int"},{"name":"fontItalic","rangeEnd":3,"rangeStart":0,"value":0,"valueType":"int"},{"name":"fontName","rangeEnd":3,"rangeStart":0,"value":"Montserrat","valueType":"string"},{"name":"underline","rangeEnd":3,"rangeStart":0,"value":0,"valueType":"int"}],
                            "duration" : 0
                          }
                        ]
                      }
                    },
                    "attributes" : {
                      "autoRotateText" : true
                    },
                    "parameters" : {
                      "translation0" : 21.4439071578986,
                      "translation1" : 313.922630560996
                    },
                    "effects" : [
                        {
                          "effectName" : "DropShadow",
                          "category" : "categoryVisualEffects",
                          "parameters" : {
                            "angle" : 5.49778714378214,
                            "blur" : 10.0,
                            "color-alpha" : 1.0,
                            "color-blue" : 0.1216,
                            "color-green" : 0.1216,
                            "color-red" : 0.1216,
                            "enabled" : 1,
                            "offset" : 10.0,
                            "opacity" : 0.4
                          }
                        }
                    ],
                    "start" : 4340,
                    "duration" : 263,
                    "mediaStart" : -24,
                    "mediaDuration" : 263,
                    "scalar" : 1,
                    "metadata" : {
                      "WinSubProjectDisplayName" : "",
                      "clipSpeedAttribute" : false,
                      "default-HAlign" : "center",
                      "default-VAlign" : "center",
                      "default-text-attributes" : "[{\"name\":\"strikethrough\",\"rangeEnd\":11,\"rangeStart\":0,\"value\":0,\"valueType\":\"int\"},{\"name\":\"fontName\",\"rangeEnd\":11,\"rangeStart\":0,\"value\":\"Montserrat\",\"valueType\":\"string\"},{\"name\":\"fontWeight\",\"rangeEnd\":11,\"rangeStart\":0,\"value\":400,\"valueType\":\"int\"},{\"name\":\"fgColor\",\"rangeEnd\":11,\"rangeStart\":0,\"value\":\"(27,157,44,255)\",\"valueType\":\"color\"},{\"name\":\"fontSize\",\"rangeEnd\":11,\"rangeStart\":0,\"value\":96,\"valueType\":\"double\"},{\"name\":\"underline\",\"rangeEnd\":11,\"rangeStart\":0,\"value\":0,\"valueType\":\"int\"},{\"name\":\"fontItalic\",\"rangeEnd\":11,\"rangeStart\":0,\"value\":0,\"valueType\":\"int\"}]",
                      "default-translation0" : 0.0,
                      "default-translation1" : 0.0
                    },
                    "animationTracks" : {

                    }
                  },
                  {
                    "id" : 56,
                    "_type" : "Callout",
                    "def" : {
                      "kind" : "remix",
                      "shape" : "text",
                      "style" : "basic",
                      "height" : 137.23404255323,
                      "width" : 568.085106383099,
                      "word-wrap" : 1.0,
                      "horizontal-alignment" : "center",
                      "text" : "Internal",
                      "vertical-alignment" : "center",
                      "font" : {
                        "color-blue" : 1.0,
                        "color-green" : 1.0,
                        "color-red" : 1.0,
                        "size" : 96.0,
                        "tracking" : 0.0,
                        "name" : "Montserrat",
                        "weight" : "Regular"
                      },
                      "textAttributes" : {
                        "type" : "textAttributeList",
                        "keyframes" : [
                          {
                            "time" : 0,
                            "value" : [{"name":"fontWeight","rangeEnd":8,"rangeStart":0,"value":400,"valueType":"int"},{"name":"fgColor","rangeEnd":8,"rangeStart":0,"value":"(27,157,44,255)","valueType":"color"},{"name":"fontSize","rangeEnd":8,"rangeStart":0,"value":96,"valueType":"double"},{"name":"strikethrough","rangeEnd":8,"rangeStart":0,"value":0,"valueType":"int"},{"name":"fontItalic","rangeEnd":8,"rangeStart":0,"value":0,"valueType":"int"},{"name":"fontName","rangeEnd":8,"rangeStart":0,"value":"Montserrat","valueType":"string"},{"name":"underline","rangeEnd":8,"rangeStart":0,"value":0,"valueType":"int"}],
                            "duration" : 0
                          }
                        ]
                      }
                    },
                    "attributes" : {
                      "autoRotateText" : true
                    },
                    "parameters" : {
                      "translation0" : 21.4439071578986,
                      "translation1" : 313.922630560996
                    },
                    "effects" : [
                        {
                          "effectName" : "DropShadow",
                          "category" : "categoryVisualEffects",
                          "parameters" : {
                            "angle" : 5.49778714378214,
                            "blur" : 10.0,
                            "color-alpha" : 1.0,
                            "color-blue" : 0.1216,
                            "color-green" : 0.1216,
                            "color-red" : 0.1216,
                            "enabled" : 1,
                            "offset" : 10.0,
                            "opacity" : 0.4
                          }
                        }
                    ],
                    "start" : 4638,
                    "duration" : 299,
                    "mediaStart" : -24,
                    "mediaDuration" : 299,
                    "scalar" : 1,
                    "metadata" : {
                      "WinSubProjectDisplayName" : "",
                      "clipSpeedAttribute" : false,
                      "default-HAlign" : "center",
                      "default-VAlign" : "center",
                      "default-text-attributes" : "[{\"name\":\"strikethrough\",\"rangeEnd\":11,\"rangeStart\":0,\"value\":0,\"valueType\":\"int\"},{\"name\":\"fontName\",\"rangeEnd\":11,\"rangeStart\":0,\"value\":\"Montserrat\",\"valueType\":\"string\"},{\"name\":\"fontWeight\",\"rangeEnd\":11,\"rangeStart\":0,\"value\":400,\"valueType\":\"int\"},{\"name\":\"fgColor\",\"rangeEnd\":11,\"rangeStart\":0,\"value\":\"(27,157,44,255)\",\"valueType\":\"color\"},{\"name\":\"fontSize\",\"rangeEnd\":11,\"rangeStart\":0,\"value\":96,\"valueType\":\"double\"},{\"name\":\"underline\",\"rangeEnd\":11,\"rangeStart\":0,\"value\":0,\"valueType\":\"int\"},{\"name\":\"fontItalic\",\"rangeEnd\":11,\"rangeStart\":0,\"value\":0,\"valueType\":\"int\"}]",
                      "default-translation0" : 0.0,
                      "default-translation1" : 0.0
                    },
                    "animationTracks" : {

                    }
                  },
                  {
                    "id" : 57,
                    "_type" : "Callout",
                    "def" : {
                      "kind" : "remix",
                      "shape" : "text",
                      "style" : "basic",
                      "height" : 137.23404255323,
                      "width" : 568.085106383099,
                      "word-wrap" : 1.0,
                      "horizontal-alignment" : "center",
                      "text" : "Modules",
                      "vertical-alignment" : "center",
                      "font" : {
                        "color-blue" : 1.0,
                        "color-green" : 1.0,
                        "color-red" : 1.0,
                        "size" : 96.0,
                        "tracking" : 0.0,
                        "name" : "Montserrat",
                        "weight" : "Regular"
                      },
                      "textAttributes" : {
                        "type" : "textAttributeList",
                        "keyframes" : [
                          {
                            "time" : 0,
                            "value" : [{"name":"fontItalic","rangeEnd":7,"rangeStart":0,"value":0,"valueType":"int"},{"name":"fgColor","rangeEnd":7,"rangeStart":0,"value":"(27,157,44,255)","valueType":"color"},{"name":"strikethrough","rangeEnd":7,"rangeStart":0,"value":0,"valueType":"int"},{"name":"fontSize","rangeEnd":7,"rangeStart":0,"value":96,"valueType":"double"},{"name":"fontWeight","rangeEnd":7,"rangeStart":0,"value":400,"valueType":"int"},{"name":"fontName","rangeEnd":7,"rangeStart":0,"value":"Montserrat","valueType":"string"},{"name":"underline","rangeEnd":7,"rangeStart":0,"value":0,"valueType":"int"}],
                            "duration" : 0
                          }
                        ]
                      }
                    },
                    "attributes" : {
                      "autoRotateText" : true
                    },
                    "parameters" : {
                      "translation0" : 21.4439071578986,
                      "translation1" : 316.779773418148
                    },
                    "effects" : [
                        {
                          "effectName" : "DropShadow",
                          "category" : "categoryVisualEffects",
                          "parameters" : {
                            "angle" : 5.49778714378214,
                            "blur" : 10.0,
                            "color-alpha" : 1.0,
                            "color-blue" : 0.1216,
                            "color-green" : 0.1216,
                            "color-red" : 0.1216,
                            "enabled" : 1,
                            "offset" : 10.0,
                            "opacity" : 0.4
                          }
                        }
                    ],
                    "start" : 4969,
                    "duration" : 330,
                    "mediaStart" : -24,
                    "mediaDuration" : 330,
                    "scalar" : 1,
                    "metadata" : {
                      "WinSubProjectDisplayName" : "",
                      "clipSpeedAttribute" : false,
                      "default-HAlign" : "center",
                      "default-VAlign" : "center",
                      "default-text-attributes" : "[{\"name\":\"strikethrough\",\"rangeEnd\":11,\"rangeStart\":0,\"value\":0,\"valueType\":\"int\"},{\"name\":\"fontName\",\"rangeEnd\":11,\"rangeStart\":0,\"value\":\"Montserrat\",\"valueType\":\"string\"},{\"name\":\"fontWeight\",\"rangeEnd\":11,\"rangeStart\":0,\"value\":400,\"valueType\":\"int\"},{\"name\":\"fgColor\",\"rangeEnd\":11,\"rangeStart\":0,\"value\":\"(27,157,44,255)\",\"valueType\":\"color\"},{\"name\":\"fontSize\",\"rangeEnd\":11,\"rangeStart\":0,\"value\":96,\"valueType\":\"double\"},{\"name\":\"underline\",\"rangeEnd\":11,\"rangeStart\":0,\"value\":0,\"valueType\":\"int\"},{\"name\":\"fontItalic\",\"rangeEnd\":11,\"rangeStart\":0,\"value\":0,\"valueType\":\"int\"}]",
                      "default-translation0" : 0.0,
                      "default-translation1" : 0.0
                    },
                    "animationTracks" : {

                    }
                  },
                  {
                    "id" : 58,
                    "_type" : "Callout",
                    "def" : {
                      "kind" : "remix",
                      "shape" : "text",
                      "style" : "basic",
                      "height" : 137.23404255323,
                      "width" : 568.085106383099,
                      "word-wrap" : 1.0,
                      "horizontal-alignment" : "center",
                      "text" : "Features",
                      "vertical-alignment" : "center",
                      "font" : {
                        "color-blue" : 1.0,
                        "color-green" : 1.0,
                        "color-red" : 1.0,
                        "size" : 96.0,
                        "tracking" : 0.0,
                        "name" : "Montserrat",
                        "weight" : "Regular"
                      },
                      "textAttributes" : {
                        "type" : "textAttributeList",
                        "keyframes" : [
                          {
                            "time" : 0,
                            "value" : [{"name":"fontItalic","rangeEnd":8,"rangeStart":0,"value":0,"valueType":"int"},{"name":"underline","rangeEnd":8,"rangeStart":0,"value":0,"valueType":"int"},{"name":"fontWeight","rangeEnd":8,"rangeStart":0,"value":400,"valueType":"int"},{"name":"fontName","rangeEnd":8,"rangeStart":0,"value":"Montserrat","valueType":"string"},{"name":"strikethrough","rangeEnd":8,"rangeStart":0,"value":0,"valueType":"int"},{"name":"fontSize","rangeEnd":8,"rangeStart":0,"value":96,"valueType":"double"},{"name":"fgColor","rangeEnd":8,"rangeStart":0,"value":"(27,157,44,255)","valueType":"color"}],
                            "duration" : 0
                          }
                        ]
                      }
                    },
                    "attributes" : {
                      "autoRotateText" : true
                    },
                    "parameters" : {
                      "translation0" : 21.4439071578986,
                      "translation1" : 316.779773418148
                    },
                    "effects" : [
                        {
                          "effectName" : "DropShadow",
                          "category" : "categoryVisualEffects",
                          "parameters" : {
                            "angle" : 5.49778714378214,
                            "blur" : 10.0,
                            "color-alpha" : 1.0,
                            "color-blue" : 0.1216,
                            "color-green" : 0.1216,
                            "color-red" : 0.1216,
                            "enabled" : 1,
                            "offset" : 10.0,
                            "opacity" : 0.4
                          }
                        }
                    ],
                    "start" : 5325,
                    "duration" : 290,
                    "mediaStart" : 1,
                    "mediaDuration" : 290,
                    "scalar" : 1,
                    "metadata" : {
                      "WinSubProjectDisplayName" : "",
                      "clipSpeedAttribute" : false,
                      "default-HAlign" : "center",
                      "default-VAlign" : "center",
                      "default-text-attributes" : "[{\"name\":\"strikethrough\",\"rangeEnd\":11,\"rangeStart\":0,\"value\":0,\"valueType\":\"int\"},{\"name\":\"fontName\",\"rangeEnd\":11,\"rangeStart\":0,\"value\":\"Montserrat\",\"valueType\":\"string\"},{\"name\":\"fontWeight\",\"rangeEnd\":11,\"rangeStart\":0,\"value\":400,\"valueType\":\"int\"},{\"name\":\"fgColor\",\"rangeEnd\":11,\"rangeStart\":0,\"value\":\"(27,157,44,255)\",\"valueType\":\"color\"},{\"name\":\"fontSize\",\"rangeEnd\":11,\"rangeStart\":0,\"value\":96,\"valueType\":\"double\"},{\"name\":\"underline\",\"rangeEnd\":11,\"rangeStart\":0,\"value\":0,\"valueType\":\"int\"},{\"name\":\"fontItalic\",\"rangeEnd\":11,\"rangeStart\":0,\"value\":0,\"valueType\":\"int\"}]",
                      "default-translation0" : 0.0,
                      "default-translation1" : 0.0
                    },
                    "animationTracks" : {

                    }
                  },
                  {
                    "id" : 59,
                    "_type" : "Callout",
                    "def" : {
                      "kind" : "remix",
                      "shape" : "text",
                      "style" : "basic",
                      "height" : 137.23404255323,
                      "width" : 568.085106383099,
                      "word-wrap" : 1.0,
                      "horizontal-alignment" : "center",
                      "text" : "Video",
                      "vertical-alignment" : "center",
                      "font" : {
                        "color-blue" : 1.0,
                        "color-green" : 1.0,
                        "color-red" : 1.0,
                        "size" : 96.0,
                        "tracking" : 0.0,
                        "name" : "Montserrat",
                        "weight" : "Regular"
                      },
                      "textAttributes" : {
                        "type" : "textAttributeList",
                        "keyframes" : [
                          {
                            "time" : 0,
                            "value" : [{"name":"fontName","rangeEnd":5,"rangeStart":0,"value":"Montserrat","valueType":"string"},{"name":"underline","rangeEnd":5,"rangeStart":0,"value":0,"valueType":"int"},{"name":"fontItalic","rangeEnd":5,"rangeStart":0,"value":0,"valueType":"int"},{"name":"fontWeight","rangeEnd":5,"rangeStart":0,"value":400,"valueType":"int"},{"name":"strikethrough","rangeEnd":5,"rangeStart":0,"value":0,"valueType":"int"},{"name":"fgColor","rangeEnd":5,"rangeStart":0,"value":"(27,157,44,255)","valueType":"color"},{"name":"fontSize","rangeEnd":5,"rangeStart":0,"value":96,"valueType":"double"}],
                            "duration" : 0
                          }
                        ]
                      }
                    },
                    "attributes" : {
                      "autoRotateText" : true
                    },
                    "parameters" : {
                      "translation0" : 21.4439071578986,
                      "translation1" : 316.779773418148
                    },
                    "effects" : [
                        {
                          "effectName" : "DropShadow",
                          "category" : "categoryVisualEffects",
                          "parameters" : {
                            "angle" : 5.49778714378214,
                            "blur" : 10.0,
                            "color-alpha" : 1.0,
                            "color-blue" : 0.1216,
                            "color-green" : 0.1216,
                            "color-red" : 0.1216,
                            "enabled" : 1,
                            "offset" : 10.0,
                            "opacity" : 0.4
                          }
                        }
                    ],
                    "start" : 5634,
                    "duration" : 311,
                    "mediaStart" : 0,
                    "mediaDuration" : 311,
                    "scalar" : 1,
                    "metadata" : {
                      "WinSubProjectDisplayName" : "",
                      "clipSpeedAttribute" : false,
                      "default-HAlign" : "center",
                      "default-VAlign" : "center",
                      "default-text-attributes" : "[{\"name\":\"strikethrough\",\"rangeEnd\":11,\"rangeStart\":0,\"value\":0,\"valueType\":\"int\"},{\"name\":\"fontName\",\"rangeEnd\":11,\"rangeStart\":0,\"value\":\"Montserrat\",\"valueType\":\"string\"},{\"name\":\"fontWeight\",\"rangeEnd\":11,\"rangeStart\":0,\"value\":400,\"valueType\":\"int\"},{\"name\":\"fgColor\",\"rangeEnd\":11,\"rangeStart\":0,\"value\":\"(27,157,44,255)\",\"valueType\":\"color\"},{\"name\":\"fontSize\",\"rangeEnd\":11,\"rangeStart\":0,\"value\":96,\"valueType\":\"double\"},{\"name\":\"underline\",\"rangeEnd\":11,\"rangeStart\":0,\"value\":0,\"valueType\":\"int\"},{\"name\":\"fontItalic\",\"rangeEnd\":11,\"rangeStart\":0,\"value\":0,\"valueType\":\"int\"}]",
                      "default-translation0" : 0.0,
                      "default-translation1" : 0.0
                    },
                    "animationTracks" : {

                    }
                  },
                  {
                    "id" : 60,
                    "_type" : "Callout",
                    "def" : {
                      "kind" : "remix",
                      "shape" : "text",
                      "style" : "basic",
                      "height" : 137.23404255323,
                      "width" : 568.085106383099,
                      "word-wrap" : 1.0,
                      "horizontal-alignment" : "center",
                      "text" : "Modules",
                      "vertical-alignment" : "center",
                      "font" : {
                        "color-blue" : 1.0,
                        "color-green" : 1.0,
                        "color-red" : 1.0,
                        "size" : 96.0,
                        "tracking" : 0.0,
                        "name" : "Montserrat",
                        "weight" : "Regular"
                      },
                      "textAttributes" : {
                        "type" : "textAttributeList",
                        "keyframes" : [
                          {
                            "time" : 0,
                            "value" : [{"name":"fontItalic","rangeEnd":7,"rangeStart":0,"value":0,"valueType":"int"},{"name":"fgColor","rangeEnd":7,"rangeStart":0,"value":"(27,157,44,255)","valueType":"color"},{"name":"strikethrough","rangeEnd":7,"rangeStart":0,"value":0,"valueType":"int"},{"name":"fontSize","rangeEnd":7,"rangeStart":0,"value":96,"valueType":"double"},{"name":"fontWeight","rangeEnd":7,"rangeStart":0,"value":400,"valueType":"int"},{"name":"fontName","rangeEnd":7,"rangeStart":0,"value":"Montserrat","valueType":"string"},{"name":"underline","rangeEnd":7,"rangeStart":0,"value":0,"valueType":"int"}],
                            "duration" : 0
                          }
                        ]
                      }
                    },
                    "attributes" : {
                      "autoRotateText" : true
                    },
                    "parameters" : {
                      "translation0" : 21.4439071578986,
                      "translation1" : 316.779773418148
                    },
                    "effects" : [
                        {
                          "effectName" : "DropShadow",
                          "category" : "categoryVisualEffects",
                          "parameters" : {
                            "angle" : 5.49778714378214,
                            "blur" : 10.0,
                            "color-alpha" : 1.0,
                            "color-blue" : 0.1216,
                            "color-green" : 0.1216,
                            "color-red" : 0.1216,
                            "enabled" : 1,
                            "offset" : 10.0,
                            "opacity" : 0.4
                          }
                        }
                    ],
                    "start" : 5977,
                    "duration" : 304,
                    "mediaStart" : -14,
                    "mediaDuration" : 304,
                    "scalar" : 1,
                    "metadata" : {
                      "WinSubProjectDisplayName" : "",
                      "clipSpeedAttribute" : false,
                      "default-HAlign" : "center",
                      "default-VAlign" : "center",
                      "default-text-attributes" : "[{\"name\":\"strikethrough\",\"rangeEnd\":11,\"rangeStart\":0,\"value\":0,\"valueType\":\"int\"},{\"name\":\"fontName\",\"rangeEnd\":11,\"rangeStart\":0,\"value\":\"Montserrat\",\"valueType\":\"string\"},{\"name\":\"fontWeight\",\"rangeEnd\":11,\"rangeStart\":0,\"value\":400,\"valueType\":\"int\"},{\"name\":\"fgColor\",\"rangeEnd\":11,\"rangeStart\":0,\"value\":\"(27,157,44,255)\",\"valueType\":\"color\"},{\"name\":\"fontSize\",\"rangeEnd\":11,\"rangeStart\":0,\"value\":96,\"valueType\":\"double\"},{\"name\":\"underline\",\"rangeEnd\":11,\"rangeStart\":0,\"value\":0,\"valueType\":\"int\"},{\"name\":\"fontItalic\",\"rangeEnd\":11,\"rangeStart\":0,\"value\":0,\"valueType\":\"int\"}]",
                      "default-translation0" : 0.0,
                      "default-translation1" : 0.0
                    },
                    "animationTracks" : {

                    }
                  },
                  {
                    "id" : 61,
                    "_type" : "Callout",
                    "def" : {
                      "kind" : "remix",
                      "shape" : "text",
                      "style" : "basic",
                      "height" : 137.23404255323,
                      "width" : 568.085106383099,
                      "word-wrap" : 1.0,
                      "horizontal-alignment" : "center",
                      "text" : "Features",
                      "vertical-alignment" : "center",
                      "font" : {
                        "color-blue" : 1.0,
                        "color-green" : 1.0,
                        "color-red" : 1.0,
                        "size" : 96.0,
                        "tracking" : 0.0,
                        "name" : "Montserrat",
                        "weight" : "Regular"
                      },
                      "textAttributes" : {
                        "type" : "textAttributeList",
                        "keyframes" : [
                          {
                            "time" : 0,
                            "value" : [{"name":"fontItalic","rangeEnd":8,"rangeStart":0,"value":0,"valueType":"int"},{"name":"underline","rangeEnd":8,"rangeStart":0,"value":0,"valueType":"int"},{"name":"fontWeight","rangeEnd":8,"rangeStart":0,"value":400,"valueType":"int"},{"name":"fontName","rangeEnd":8,"rangeStart":0,"value":"Montserrat","valueType":"string"},{"name":"strikethrough","rangeEnd":8,"rangeStart":0,"value":0,"valueType":"int"},{"name":"fontSize","rangeEnd":8,"rangeStart":0,"value":96,"valueType":"double"},{"name":"fgColor","rangeEnd":8,"rangeStart":0,"value":"(27,157,44,255)","valueType":"color"}],
                            "duration" : 0
                          }
                        ]
                      }
                    },
                    "attributes" : {
                      "autoRotateText" : true
                    },
                    "parameters" : {
                      "translation0" : 21.4439071578986,
                      "translation1" : 316.779773418148
                    },
                    "effects" : [
                        {
                          "effectName" : "DropShadow",
                          "category" : "categoryVisualEffects",
                          "parameters" : {
                            "angle" : 5.49778714378214,
                            "blur" : 10.0,
                            "color-alpha" : 1.0,
                            "color-blue" : 0.1216,
                            "color-green" : 0.1216,
                            "color-red" : 0.1216,
                            "enabled" : 1,
                            "offset" : 10.0,
                            "opacity" : 0.4
                          }
                        }
                    ],
                    "start" : 6293,
                    "duration" : 257,
                    "mediaStart" : -7,
                    "mediaDuration" : 257,
                    "scalar" : 1,
                    "metadata" : {
                      "WinSubProjectDisplayName" : "",
                      "clipSpeedAttribute" : false,
                      "default-HAlign" : "center",
                      "default-VAlign" : "center",
                      "default-text-attributes" : "[{\"name\":\"strikethrough\",\"rangeEnd\":11,\"rangeStart\":0,\"value\":0,\"valueType\":\"int\"},{\"name\":\"fontName\",\"rangeEnd\":11,\"rangeStart\":0,\"value\":\"Montserrat\",\"valueType\":\"string\"},{\"name\":\"fontWeight\",\"rangeEnd\":11,\"rangeStart\":0,\"value\":400,\"valueType\":\"int\"},{\"name\":\"fgColor\",\"rangeEnd\":11,\"rangeStart\":0,\"value\":\"(27,157,44,255)\",\"valueType\":\"color\"},{\"name\":\"fontSize\",\"rangeEnd\":11,\"rangeStart\":0,\"value\":96,\"valueType\":\"double\"},{\"name\":\"underline\",\"rangeEnd\":11,\"rangeStart\":0,\"value\":0,\"valueType\":\"int\"},{\"name\":\"fontItalic\",\"rangeEnd\":11,\"rangeStart\":0,\"value\":0,\"valueType\":\"int\"}]",
                      "default-translation0" : 0.0,
                      "default-translation1" : 0.0
                    },
                    "animationTracks" : {

                    }
                  },
                  {
                    "id" : 62,
                    "_type" : "Callout",
                    "def" : {
                      "kind" : "remix",
                      "shape" : "text",
                      "style" : "basic",
                      "height" : 137.23404255323,
                      "width" : 568.085106383099,
                      "word-wrap" : 1.0,
                      "horizontal-alignment" : "center",
                      "text" : "Video",
                      "vertical-alignment" : "center",
                      "font" : {
                        "color-blue" : 1.0,
                        "color-green" : 1.0,
                        "color-red" : 1.0,
                        "size" : 96.0,
                        "tracking" : 0.0,
                        "name" : "Montserrat",
                        "weight" : "Regular"
                      },
                      "textAttributes" : {
                        "type" : "textAttributeList",
                        "keyframes" : [
                          {
                            "time" : 0,
                            "value" : [{"name":"fontName","rangeEnd":5,"rangeStart":0,"value":"Montserrat","valueType":"string"},{"name":"underline","rangeEnd":5,"rangeStart":0,"value":0,"valueType":"int"},{"name":"fontItalic","rangeEnd":5,"rangeStart":0,"value":0,"valueType":"int"},{"name":"fontWeight","rangeEnd":5,"rangeStart":0,"value":400,"valueType":"int"},{"name":"strikethrough","rangeEnd":5,"rangeStart":0,"value":0,"valueType":"int"},{"name":"fgColor","rangeEnd":5,"rangeStart":0,"value":"(27,157,44,255)","valueType":"color"},{"name":"fontSize","rangeEnd":5,"rangeStart":0,"value":96,"valueType":"double"}],
                            "duration" : 0
                          }
                        ]
                      }
                    },
                    "attributes" : {
                      "autoRotateText" : true
                    },
                    "parameters" : {
                      "translation0" : 21.4439071578986,
                      "translation1" : 316.779773418148
                    },
                    "effects" : [
                        {
                          "effectName" : "DropShadow",
                          "category" : "categoryVisualEffects",
                          "parameters" : {
                            "angle" : 5.49778714378214,
                            "blur" : 10.0,
                            "color-alpha" : 1.0,
                            "color-blue" : 0.1216,
                            "color-green" : 0.1216,
                            "color-red" : 0.1216,
                            "enabled" : 1,
                            "offset" : 10.0,
                            "opacity" : 0.4
                          }
                        }
                    ],
                    "start" : 6561,
                    "duration" : 315,
                    "mediaStart" : -4,
                    "mediaDuration" : 315,
                    "scalar" : 1,
                    "metadata" : {
                      "WinSubProjectDisplayName" : "",
                      "clipSpeedAttribute" : false,
                      "default-HAlign" : "center",
                      "default-VAlign" : "center",
                      "default-text-attributes" : "[{\"name\":\"strikethrough\",\"rangeEnd\":11,\"rangeStart\":0,\"value\":0,\"valueType\":\"int\"},{\"name\":\"fontName\",\"rangeEnd\":11,\"rangeStart\":0,\"value\":\"Montserrat\",\"valueType\":\"string\"},{\"name\":\"fontWeight\",\"rangeEnd\":11,\"rangeStart\":0,\"value\":400,\"valueType\":\"int\"},{\"name\":\"fgColor\",\"rangeEnd\":11,\"rangeStart\":0,\"value\":\"(27,157,44,255)\",\"valueType\":\"color\"},{\"name\":\"fontSize\",\"rangeEnd\":11,\"rangeStart\":0,\"value\":96,\"valueType\":\"double\"},{\"name\":\"underline\",\"rangeEnd\":11,\"rangeStart\":0,\"value\":0,\"valueType\":\"int\"},{\"name\":\"fontItalic\",\"rangeEnd\":11,\"rangeStart\":0,\"value\":0,\"valueType\":\"int\"}]",
                      "default-translation0" : 0.0,
                      "default-translation1" : 0.0
                    },
                    "animationTracks" : {

                    }
                  },
                  {
                    "id" : 63,
                    "_type" : "Callout",
                    "def" : {
                      "kind" : "remix",
                      "shape" : "text",
                      "style" : "basic",
                      "height" : 137.23404255323,
                      "width" : 568.085106383099,
                      "word-wrap" : 1.0,
                      "horizontal-alignment" : "center",
                      "text" : "Loudspeaker",
                      "vertical-alignment" : "center",
                      "font" : {
                        "color-blue" : 1.0,
                        "color-green" : 1.0,
                        "color-red" : 1.0,
                        "size" : 96.0,
                        "tracking" : 0.0,
                        "name" : "Montserrat",
                        "weight" : "Regular"
                      },
                      "textAttributes" : {
                        "type" : "textAttributeList",
                        "keyframes" : [
                          {
                            "time" : 0,
                            "value" : [{"name":"fgColor","rangeEnd":11,"rangeStart":0,"value":"(27,157,44,255)","valueType":"color"},{"name":"strikethrough","rangeEnd":11,"rangeStart":0,"value":0,"valueType":"int"},{"name":"fontName","rangeEnd":11,"rangeStart":0,"value":"Montserrat","valueType":"string"},{"name":"fontSize","rangeEnd":11,"rangeStart":0,"value":96,"valueType":"double"},{"name":"fontItalic","rangeEnd":11,"rangeStart":0,"value":0,"valueType":"int"},{"name":"fontWeight","rangeEnd":11,"rangeStart":0,"value":400,"valueType":"int"},{"name":"underline","rangeEnd":11,"rangeStart":0,"value":0,"valueType":"int"}],
                            "duration" : 0
                          }
                        ]
                      }
                    },
                    "attributes" : {
                      "autoRotateText" : true
                    },
                    "parameters" : {
                      "translation0" : 21.4439071578986,
                      "translation1" : 316.779773418148
                    },
                    "effects" : [
                        {
                          "effectName" : "DropShadow",
                          "category" : "categoryVisualEffects",
                          "parameters" : {
                            "angle" : 5.49778714378214,
                            "blur" : 10.0,
                            "color-alpha" : 1.0,
                            "color-blue" : 0.1216,
                            "color-green" : 0.1216,
                            "color-red" : 0.1216,
                            "enabled" : 1,
                            "offset" : 10.0,
                            "opacity" : 0.4
                          }
                        }
                    ],
                    "start" : 6911,
                    "duration" : 250,
                    "mediaStart" : -9,
                    "mediaDuration" : 250,
                    "scalar" : 1,
                    "metadata" : {
                      "WinSubProjectDisplayName" : "",
                      "clipSpeedAttribute" : false,
                      "default-HAlign" : "center",
                      "default-VAlign" : "center",
                      "default-text-attributes" : "[{\"name\":\"strikethrough\",\"rangeEnd\":11,\"rangeStart\":0,\"value\":0,\"valueType\":\"int\"},{\"name\":\"fontName\",\"rangeEnd\":11,\"rangeStart\":0,\"value\":\"Montserrat\",\"valueType\":\"string\"},{\"name\":\"fontWeight\",\"rangeEnd\":11,\"rangeStart\":0,\"value\":400,\"valueType\":\"int\"},{\"name\":\"fgColor\",\"rangeEnd\":11,\"rangeStart\":0,\"value\":\"(27,157,44,255)\",\"valueType\":\"color\"},{\"name\":\"fontSize\",\"rangeEnd\":11,\"rangeStart\":0,\"value\":96,\"valueType\":\"double\"},{\"name\":\"underline\",\"rangeEnd\":11,\"rangeStart\":0,\"value\":0,\"valueType\":\"int\"},{\"name\":\"fontItalic\",\"rangeEnd\":11,\"rangeStart\":0,\"value\":0,\"valueType\":\"int\"}]",
                      "default-translation0" : 0.0,
                      "default-translation1" : 0.0
                    },
                    "animationTracks" : {

                    }
                  },
                  {
                    "id" : 64,
                    "_type" : "Callout",
                    "def" : {
                      "kind" : "remix",
                      "shape" : "text",
                      "style" : "basic",
                      "height" : 137.23404255323,
                      "width" : 568.085106383099,
                      "word-wrap" : 1.0,
                      "horizontal-alignment" : "center",
                      "text" : "3.5mm jack",
                      "vertical-alignment" : "center",
                      "font" : {
                        "color-blue" : 1.0,
                        "color-green" : 1.0,
                        "color-red" : 1.0,
                        "size" : 96.0,
                        "tracking" : 0.0,
                        "name" : "Montserrat",
                        "weight" : "Regular"
                      },
                      "textAttributes" : {
                        "type" : "textAttributeList",
                        "keyframes" : [
                          {
                            "time" : 0,
                            "value" : [{"name":"fontSize","rangeEnd":10,"rangeStart":0,"value":96,"valueType":"double"},{"name":"fontWeight","rangeEnd":10,"rangeStart":0,"value":400,"valueType":"int"},{"name":"fgColor","rangeEnd":10,"rangeStart":0,"value":"(27,157,44,255)","valueType":"color"},{"name":"fontName","rangeEnd":10,"rangeStart":0,"value":"Montserrat","valueType":"string"},{"name":"fontItalic","rangeEnd":10,"rangeStart":0,"value":0,"valueType":"int"},{"name":"strikethrough","rangeEnd":10,"rangeStart":0,"value":0,"valueType":"int"},{"name":"underline","rangeEnd":10,"rangeStart":0,"value":0,"valueType":"int"}],
                            "duration" : 0
                          }
                        ]
                      }
                    },
                    "attributes" : {
                      "autoRotateText" : true
                    },
                    "parameters" : {
                      "translation0" : 21.4439071578986,
                      "translation1" : 316.779773418148
                    },
                    "effects" : [
                        {
                          "effectName" : "DropShadow",
                          "category" : "categoryVisualEffects",
                          "parameters" : {
                            "angle" : 5.49778714378214,
                            "blur" : 10.0,
                            "color-alpha" : 1.0,
                            "color-blue" : 0.1216,
                            "color-green" : 0.1216,
                            "color-red" : 0.1216,
                            "enabled" : 1,
                            "offset" : 10.0,
                            "opacity" : 0.4
                          }
                        }
                    ],
                    "start" : 7180,
                    "duration" : 253,
                    "mediaStart" : 8,
                    "mediaDuration" : 253,
                    "scalar" : 1,
                    "metadata" : {
                      "WinSubProjectDisplayName" : "",
                      "clipSpeedAttribute" : false,
                      "default-HAlign" : "center",
                      "default-VAlign" : "center",
                      "default-text-attributes" : "[{\"name\":\"strikethrough\",\"rangeEnd\":11,\"rangeStart\":0,\"value\":0,\"valueType\":\"int\"},{\"name\":\"fontName\",\"rangeEnd\":11,\"rangeStart\":0,\"value\":\"Montserrat\",\"valueType\":\"string\"},{\"name\":\"fontWeight\",\"rangeEnd\":11,\"rangeStart\":0,\"value\":400,\"valueType\":\"int\"},{\"name\":\"fgColor\",\"rangeEnd\":11,\"rangeStart\":0,\"value\":\"(27,157,44,255)\",\"valueType\":\"color\"},{\"name\":\"fontSize\",\"rangeEnd\":11,\"rangeStart\":0,\"value\":96,\"valueType\":\"double\"},{\"name\":\"underline\",\"rangeEnd\":11,\"rangeStart\":0,\"value\":0,\"valueType\":\"int\"},{\"name\":\"fontItalic\",\"rangeEnd\":11,\"rangeStart\":0,\"value\":0,\"valueType\":\"int\"}]",
                      "default-translation0" : 0.0,
                      "default-translation1" : 0.0
                    },
                    "animationTracks" : {

                    }
                  },
                  {
                    "id" : 65,
                    "_type" : "Callout",
                    "def" : {
                      "kind" : "remix",
                      "shape" : "text",
                      "style" : "basic",
                      "height" : 137.23404255323,
                      "width" : 568.085106383099,
                      "word-wrap" : 1.0,
                      "horizontal-alignment" : "center",
                      "text" : "WLAN",
                      "vertical-alignment" : "center",
                      "font" : {
                        "color-blue" : 1.0,
                        "color-green" : 1.0,
                        "color-red" : 1.0,
                        "size" : 96.0,
                        "tracking" : 0.0,
                        "name" : "Montserrat",
                        "weight" : "Regular"
                      },
                      "textAttributes" : {
                        "type" : "textAttributeList",
                        "keyframes" : [
                          {
                            "time" : 0,
                            "value" : [{"name":"fontSize","rangeEnd":4,"rangeStart":0,"value":96,"valueType":"double"},{"name":"underline","rangeEnd":4,"rangeStart":0,"value":0,"valueType":"int"},{"name":"fontName","rangeEnd":4,"rangeStart":0,"value":"Montserrat","valueType":"string"},{"name":"strikethrough","rangeEnd":4,"rangeStart":0,"value":0,"valueType":"int"},{"name":"fontItalic","rangeEnd":4,"rangeStart":0,"value":0,"valueType":"int"},{"name":"fgColor","rangeEnd":4,"rangeStart":0,"value":"(27,157,44,255)","valueType":"color"},{"name":"fontWeight","rangeEnd":4,"rangeStart":0,"value":400,"valueType":"int"}],
                            "duration" : 0
                          }
                        ]
                      }
                    },
                    "attributes" : {
                      "autoRotateText" : true
                    },
                    "parameters" : {
                      "translation0" : 21.4439071578986,
                      "translation1" : 316.779773418148
                    },
                    "effects" : [
                        {
                          "effectName" : "DropShadow",
                          "category" : "categoryVisualEffects",
                          "parameters" : {
                            "angle" : 5.49778714378214,
                            "blur" : 10.0,
                            "color-alpha" : 1.0,
                            "color-blue" : 0.1216,
                            "color-green" : 0.1216,
                            "color-red" : 0.1216,
                            "enabled" : 1,
                            "offset" : 10.0,
                            "opacity" : 0.4
                          }
                        }
                    ],
                    "start" : 7465,
                    "duration" : 315,
                    "mediaStart" : -4,
                    "mediaDuration" : 315,
                    "scalar" : 1,
                    "metadata" : {
                      "WinSubProjectDisplayName" : "",
                      "clipSpeedAttribute" : false,
                      "default-HAlign" : "center",
                      "default-VAlign" : "center",
                      "default-text-attributes" : "[{\"name\":\"strikethrough\",\"rangeEnd\":11,\"rangeStart\":0,\"value\":0,\"valueType\":\"int\"},{\"name\":\"fontName\",\"rangeEnd\":11,\"rangeStart\":0,\"value\":\"Montserrat\",\"valueType\":\"string\"},{\"name\":\"fontWeight\",\"rangeEnd\":11,\"rangeStart\":0,\"value\":400,\"valueType\":\"int\"},{\"name\":\"fgColor\",\"rangeEnd\":11,\"rangeStart\":0,\"value\":\"(27,157,44,255)\",\"valueType\":\"color\"},{\"name\":\"fontSize\",\"rangeEnd\":11,\"rangeStart\":0,\"value\":96,\"valueType\":\"double\"},{\"name\":\"underline\",\"rangeEnd\":11,\"rangeStart\":0,\"value\":0,\"valueType\":\"int\"},{\"name\":\"fontItalic\",\"rangeEnd\":11,\"rangeStart\":0,\"value\":0,\"valueType\":\"int\"}]",
                      "default-translation0" : 0.0,
                      "default-translation1" : 0.0
                    },
                    "animationTracks" : {

                    }
                  },
                  {
                    "id" : 66,
                    "_type" : "Callout",
                    "def" : {
                      "kind" : "remix",
                      "shape" : "text",
                      "style" : "basic",
                      "height" : 137.23404255323,
                      "width" : 568.085106383099,
                      "word-wrap" : 1.0,
                      "horizontal-alignment" : "center",
                      "text" : "Bluetooth",
                      "vertical-alignment" : "center",
                      "font" : {
                        "color-blue" : 1.0,
                        "color-green" : 1.0,
                        "color-red" : 1.0,
                        "size" : 96.0,
                        "tracking" : 0.0,
                        "name" : "Montserrat",
                        "weight" : "Regular"
                      },
                      "textAttributes" : {
                        "type" : "textAttributeList",
                        "keyframes" : [
                          {
                            "time" : 0,
                            "value" : [{"name":"fontWeight","rangeEnd":9,"rangeStart":0,"value":400,"valueType":"int"},{"name":"fontSize","rangeEnd":9,"rangeStart":0,"value":96,"valueType":"double"},{"name":"fgColor","rangeEnd":9,"rangeStart":0,"value":"(27,157,44,255)","valueType":"color"},{"name":"underline","rangeEnd":9,"rangeStart":0,"value":0,"valueType":"int"},{"name":"strikethrough","rangeEnd":9,"rangeStart":0,"value":0,"valueType":"int"},{"name":"fontItalic","rangeEnd":9,"rangeStart":0,"value":0,"valueType":"int"},{"name":"fontName","rangeEnd":9,"rangeStart":0,"value":"Montserrat","valueType":"string"}],
                            "duration" : 0
                          }
                        ]
                      }
                    },
                    "attributes" : {
                      "autoRotateText" : true
                    },
                    "parameters" : {
                      "translation0" : 21.4439071578986,
                      "translation1" : 316.779773418148
                    },
                    "effects" : [
                        {
                          "effectName" : "DropShadow",
                          "category" : "categoryVisualEffects",
                          "parameters" : {
                            "angle" : 5.49778714378214,
                            "blur" : 10.0,
                            "color-alpha" : 1.0,
                            "color-blue" : 0.1216,
                            "color-green" : 0.1216,
                            "color-red" : 0.1216,
                            "enabled" : 1,
                            "offset" : 10.0,
                            "opacity" : 0.4
                          }
                        }
                    ],
                    "start" : 7795,
                    "duration" : 322,
                    "mediaStart" : 2,
                    "mediaDuration" : 322,
                    "scalar" : 1,
                    "metadata" : {
                      "WinSubProjectDisplayName" : "",
                      "clipSpeedAttribute" : false,
                      "default-HAlign" : "center",
                      "default-VAlign" : "center",
                      "default-text-attributes" : "[{\"name\":\"strikethrough\",\"rangeEnd\":11,\"rangeStart\":0,\"value\":0,\"valueType\":\"int\"},{\"name\":\"fontName\",\"rangeEnd\":11,\"rangeStart\":0,\"value\":\"Montserrat\",\"valueType\":\"string\"},{\"name\":\"fontWeight\",\"rangeEnd\":11,\"rangeStart\":0,\"value\":400,\"valueType\":\"int\"},{\"name\":\"fgColor\",\"rangeEnd\":11,\"rangeStart\":0,\"value\":\"(27,157,44,255)\",\"valueType\":\"color\"},{\"name\":\"fontSize\",\"rangeEnd\":11,\"rangeStart\":0,\"value\":96,\"valueType\":\"double\"},{\"name\":\"underline\",\"rangeEnd\":11,\"rangeStart\":0,\"value\":0,\"valueType\":\"int\"},{\"name\":\"fontItalic\",\"rangeEnd\":11,\"rangeStart\":0,\"value\":0,\"valueType\":\"int\"}]",
                      "default-translation0" : 0.0,
                      "default-translation1" : 0.0
                    },
                    "animationTracks" : {

                    }
                  },
                  {
                    "id" : 67,
                    "_type" : "Callout",
                    "def" : {
                      "kind" : "remix",
                      "shape" : "text",
                      "style" : "basic",
                      "height" : 137.23404255323,
                      "width" : 568.085106383099,
                      "word-wrap" : 1.0,
                      "horizontal-alignment" : "center",
                      "text" : "GPS",
                      "vertical-alignment" : "center",
                      "font" : {
                        "color-blue" : 1.0,
                        "color-green" : 1.0,
                        "color-red" : 1.0,
                        "size" : 96.0,
                        "tracking" : 0.0,
                        "name" : "Montserrat",
                        "weight" : "Regular"
                      },
                      "textAttributes" : {
                        "type" : "textAttributeList",
                        "keyframes" : [
                          {
                            "time" : 0,
                            "value" : [{"name":"fgColor","rangeEnd":3,"rangeStart":0,"value":"(27,157,44,255)","valueType":"color"},{"name":"fontWeight","rangeEnd":3,"rangeStart":0,"value":400,"valueType":"int"},{"name":"strikethrough","rangeEnd":3,"rangeStart":0,"value":0,"valueType":"int"},{"name":"fontItalic","rangeEnd":3,"rangeStart":0,"value":0,"valueType":"int"},{"name":"fontName","rangeEnd":3,"rangeStart":0,"value":"Montserrat","valueType":"string"},{"name":"fontSize","rangeEnd":3,"rangeStart":0,"value":96,"valueType":"double"},{"name":"underline","rangeEnd":3,"rangeStart":0,"value":0,"valueType":"int"}],
                            "duration" : 0
                          }
                        ]
                      }
                    },
                    "attributes" : {
                      "autoRotateText" : true
                    },
                    "parameters" : {
                      "translation0" : 21.4439071578986,
                      "translation1" : 316.779773418148
                    },
                    "effects" : [
                        {
                          "effectName" : "DropShadow",
                          "category" : "categoryVisualEffects",
                          "parameters" : {
                            "angle" : 5.49778714378214,
                            "blur" : 10.0,
                            "color-alpha" : 1.0,
                            "color-blue" : 0.1216,
                            "color-green" : 0.1216,
                            "color-red" : 0.1216,
                            "enabled" : 1,
                            "offset" : 10.0,
                            "opacity" : 0.4
                          }
                        }
                    ],
                    "start" : 8133,
                    "duration" : 313,
                    "mediaStart" : 12,
                    "mediaDuration" : 313,
                    "scalar" : 1,
                    "metadata" : {
                      "WinSubProjectDisplayName" : "",
                      "clipSpeedAttribute" : false,
                      "default-HAlign" : "center",
                      "default-VAlign" : "center",
                      "default-text-attributes" : "[{\"name\":\"strikethrough\",\"rangeEnd\":11,\"rangeStart\":0,\"value\":0,\"valueType\":\"int\"},{\"name\":\"fontName\",\"rangeEnd\":11,\"rangeStart\":0,\"value\":\"Montserrat\",\"valueType\":\"string\"},{\"name\":\"fontWeight\",\"rangeEnd\":11,\"rangeStart\":0,\"value\":400,\"valueType\":\"int\"},{\"name\":\"fgColor\",\"rangeEnd\":11,\"rangeStart\":0,\"value\":\"(27,157,44,255)\",\"valueType\":\"color\"},{\"name\":\"fontSize\",\"rangeEnd\":11,\"rangeStart\":0,\"value\":96,\"valueType\":\"double\"},{\"name\":\"underline\",\"rangeEnd\":11,\"rangeStart\":0,\"value\":0,\"valueType\":\"int\"},{\"name\":\"fontItalic\",\"rangeEnd\":11,\"rangeStart\":0,\"value\":0,\"valueType\":\"int\"}]",
                      "default-translation0" : 0.0,
                      "default-translation1" : 0.0
                    },
                    "animationTracks" : {

                    }
                  },
                  {
                    "id" : 68,
                    "_type" : "Callout",
                    "def" : {
                      "kind" : "remix",
                      "shape" : "text",
                      "style" : "basic",
                      "height" : 137.23404255323,
                      "width" : 568.085106383099,
                      "word-wrap" : 1.0,
                      "horizontal-alignment" : "center",
                      "text" : "NFC",
                      "vertical-alignment" : "center",
                      "font" : {
                        "color-blue" : 1.0,
                        "color-green" : 1.0,
                        "color-red" : 1.0,
                        "size" : 96.0,
                        "tracking" : 0.0,
                        "name" : "Montserrat",
                        "weight" : "Regular"
                      },
                      "textAttributes" : {
                        "type" : "textAttributeList",
                        "keyframes" : [
                          {
                            "time" : 0,
                            "value" : [{"name":"fontWeight","rangeEnd":3,"rangeStart":0,"value":400,"valueType":"int"},{"name":"fgColor","rangeEnd":3,"rangeStart":0,"value":"(27,157,44,255)","valueType":"color"},{"name":"fontName","rangeEnd":3,"rangeStart":0,"value":"Montserrat","valueType":"string"},{"name":"fontItalic","rangeEnd":3,"rangeStart":0,"value":0,"valueType":"int"},{"name":"strikethrough","rangeEnd":3,"rangeStart":0,"value":0,"valueType":"int"},{"name":"underline","rangeEnd":3,"rangeStart":0,"value":0,"valueType":"int"},{"name":"fontSize","rangeEnd":3,"rangeStart":0,"value":96,"valueType":"double"}],
                            "duration" : 0
                          }
                        ]
                      }
                    },
                    "attributes" : {
                      "autoRotateText" : true
                    },
                    "parameters" : {
                      "translation0" : 21.4439071578986,
                      "translation1" : 316.779773418148
                    },
                    "effects" : [
                        {
                          "effectName" : "DropShadow",
                          "category" : "categoryVisualEffects",
                          "parameters" : {
                            "angle" : 5.49778714378214,
                            "blur" : 10.0,
                            "color-alpha" : 1.0,
                            "color-blue" : 0.1216,
                            "color-green" : 0.1216,
                            "color-red" : 0.1216,
                            "enabled" : 1,
                            "offset" : 10.0,
                            "opacity" : 0.4
                          }
                        }
                    ],
                    "start" : 8464,
                    "duration" : 315,
                    "mediaStart" : -4,
                    "mediaDuration" : 315,
                    "scalar" : 1,
                    "metadata" : {
                      "WinSubProjectDisplayName" : "",
                      "clipSpeedAttribute" : false,
                      "default-HAlign" : "center",
                      "default-VAlign" : "center",
                      "default-text-attributes" : "[{\"name\":\"strikethrough\",\"rangeEnd\":11,\"rangeStart\":0,\"value\":0,\"valueType\":\"int\"},{\"name\":\"fontName\",\"rangeEnd\":11,\"rangeStart\":0,\"value\":\"Montserrat\",\"valueType\":\"string\"},{\"name\":\"fontWeight\",\"rangeEnd\":11,\"rangeStart\":0,\"value\":400,\"valueType\":\"int\"},{\"name\":\"fgColor\",\"rangeEnd\":11,\"rangeStart\":0,\"value\":\"(27,157,44,255)\",\"valueType\":\"color\"},{\"name\":\"fontSize\",\"rangeEnd\":11,\"rangeStart\":0,\"value\":96,\"valueType\":\"double\"},{\"name\":\"underline\",\"rangeEnd\":11,\"rangeStart\":0,\"value\":0,\"valueType\":\"int\"},{\"name\":\"fontItalic\",\"rangeEnd\":11,\"rangeStart\":0,\"value\":0,\"valueType\":\"int\"}]",
                      "default-translation0" : 0.0,
                      "default-translation1" : 0.0
                    },
                    "animationTracks" : {

                    }
                  },
                  {
                    "id" : 69,
                    "_type" : "Callout",
                    "def" : {
                      "kind" : "remix",
                      "shape" : "text",
                      "style" : "basic",
                      "height" : 137.23404255323,
                      "width" : 568.085106383099,
                      "word-wrap" : 1.0,
                      "horizontal-alignment" : "center",
                      "text" : "USB",
                      "vertical-alignment" : "center",
                      "font" : {
                        "color-blue" : 1.0,
                        "color-green" : 1.0,
                        "color-red" : 1.0,
                        "size" : 96.0,
                        "tracking" : 0.0,
                        "name" : "Montserrat",
                        "weight" : "Regular"
                      },
                      "textAttributes" : {
                        "type" : "textAttributeList",
                        "keyframes" : [
                          {
                            "time" : 0,
                            "value" : [{"name":"fontName","rangeEnd":3,"rangeStart":0,"value":"Montserrat","valueType":"string"},{"name":"underline","rangeEnd":3,"rangeStart":0,"value":0,"valueType":"int"},{"name":"fontSize","rangeEnd":3,"rangeStart":0,"value":96,"valueType":"double"},{"name":"strikethrough","rangeEnd":3,"rangeStart":0,"value":0,"valueType":"int"},{"name":"fgColor","rangeEnd":3,"rangeStart":0,"value":"(27,157,44,255)","valueType":"color"},{"name":"fontItalic","rangeEnd":3,"rangeStart":0,"value":0,"valueType":"int"},{"name":"fontWeight","rangeEnd":3,"rangeStart":0,"value":400,"valueType":"int"}],
                            "duration" : 0
                          }
                        ]
                      }
                    },
                    "attributes" : {
                      "autoRotateText" : true
                    },
                    "parameters" : {
                      "translation0" : 21.4439071578986,
                      "translation1" : 316.779773418148
                    },
                    "effects" : [
                        {
                          "effectName" : "DropShadow",
                          "category" : "categoryVisualEffects",
                          "parameters" : {
                            "angle" : 5.49778714378214,
                            "blur" : 10.0,
                            "color-alpha" : 1.0,
                            "color-blue" : 0.1216,
                            "color-green" : 0.1216,
                            "color-red" : 0.1216,
                            "enabled" : 1,
                            "offset" : 10.0,
                            "opacity" : 0.4
                          }
                        }
                    ],
                    "start" : 8799,
                    "duration" : 290,
                    "mediaStart" : -8,
                    "mediaDuration" : 290,
                    "scalar" : 1,
                    "metadata" : {
                      "WinSubProjectDisplayName" : "",
                      "clipSpeedAttribute" : false,
                      "default-HAlign" : "center",
                      "default-VAlign" : "center",
                      "default-text-attributes" : "[{\"name\":\"strikethrough\",\"rangeEnd\":11,\"rangeStart\":0,\"value\":0,\"valueType\":\"int\"},{\"name\":\"fontName\",\"rangeEnd\":11,\"rangeStart\":0,\"value\":\"Montserrat\",\"valueType\":\"string\"},{\"name\":\"fontWeight\",\"rangeEnd\":11,\"rangeStart\":0,\"value\":400,\"valueType\":\"int\"},{\"name\":\"fgColor\",\"rangeEnd\":11,\"rangeStart\":0,\"value\":\"(27,157,44,255)\",\"valueType\":\"color\"},{\"name\":\"fontSize\",\"rangeEnd\":11,\"rangeStart\":0,\"value\":96,\"valueType\":\"double\"},{\"name\":\"underline\",\"rangeEnd\":11,\"rangeStart\":0,\"value\":0,\"valueType\":\"int\"},{\"name\":\"fontItalic\",\"rangeEnd\":11,\"rangeStart\":0,\"value\":0,\"valueType\":\"int\"}]",
                      "default-translation0" : 0.0,
                      "default-translation1" : 0.0
                    },
                    "animationTracks" : {

                    }
                  },
                  {
                    "id" : 70,
                    "_type" : "Callout",
                    "def" : {
                      "kind" : "remix",
                      "shape" : "text",
                      "style" : "basic",
                      "height" : 137.23404255323,
                      "width" : 568.085106383099,
                      "word-wrap" : 1.0,
                      "horizontal-alignment" : "center",
                      "text" : "Radio",
                      "vertical-alignment" : "center",
                      "font" : {
                        "color-blue" : 1.0,
                        "color-green" : 1.0,
                        "color-red" : 1.0,
                        "size" : 96.0,
                        "tracking" : 0.0,
                        "name" : "Montserrat",
                        "weight" : "Regular"
                      },
                      "textAttributes" : {
                        "type" : "textAttributeList",
                        "keyframes" : [
                          {
                            "time" : 0,
                            "value" : [{"name":"fgColor","rangeEnd":5,"rangeStart":0,"value":"(27,157,44,255)","valueType":"color"},{"name":"fontItalic","rangeEnd":5,"rangeStart":0,"value":0,"valueType":"int"},{"name":"fontName","rangeEnd":5,"rangeStart":0,"value":"Montserrat","valueType":"string"},{"name":"fontWeight","rangeEnd":5,"rangeStart":0,"value":400,"valueType":"int"},{"name":"underline","rangeEnd":5,"rangeStart":0,"value":0,"valueType":"int"},{"name":"fontSize","rangeEnd":5,"rangeStart":0,"value":96,"valueType":"double"},{"name":"strikethrough","rangeEnd":5,"rangeStart":0,"value":0,"valueType":"int"}],
                            "duration" : 0
                          }
                        ]
                      }
                    },
                    "attributes" : {
                      "autoRotateText" : true
                    },
                    "parameters" : {
                      "translation0" : 21.4439071578986,
                      "translation1" : 316.779773418148
                    },
                    "effects" : [
                        {
                          "effectName" : "DropShadow",
                          "category" : "categoryVisualEffects",
                          "parameters" : {
                            "angle" : 5.49778714378214,
                            "blur" : 10.0,
                            "color-alpha" : 1.0,
                            "color-blue" : 0.1216,
                            "color-green" : 0.1216,
                            "color-red" : 0.1216,
                            "enabled" : 1,
                            "offset" : 10.0,
                            "opacity" : 0.4
                          }
                        }
                    ],
                    "start" : 9109,
                    "duration" : 295,
                    "mediaStart" : -4,
                    "mediaDuration" : 295,
                    "scalar" : 1,
                    "metadata" : {
                      "WinSubProjectDisplayName" : "",
                      "clipSpeedAttribute" : false,
                      "default-HAlign" : "center",
                      "default-VAlign" : "center",
                      "default-text-attributes" : "[{\"name\":\"strikethrough\",\"rangeEnd\":11,\"rangeStart\":0,\"value\":0,\"valueType\":\"int\"},{\"name\":\"fontName\",\"rangeEnd\":11,\"rangeStart\":0,\"value\":\"Montserrat\",\"valueType\":\"string\"},{\"name\":\"fontWeight\",\"rangeEnd\":11,\"rangeStart\":0,\"value\":400,\"valueType\":\"int\"},{\"name\":\"fgColor\",\"rangeEnd\":11,\"rangeStart\":0,\"value\":\"(27,157,44,255)\",\"valueType\":\"color\"},{\"name\":\"fontSize\",\"rangeEnd\":11,\"rangeStart\":0,\"value\":96,\"valueType\":\"double\"},{\"name\":\"underline\",\"rangeEnd\":11,\"rangeStart\":0,\"value\":0,\"valueType\":\"int\"},{\"name\":\"fontItalic\",\"rangeEnd\":11,\"rangeStart\":0,\"value\":0,\"valueType\":\"int\"}]",
                      "default-translation0" : 0.0,
                      "default-translation1" : 0.0
                    },
                    "animationTracks" : {

                    }
                  },
                  {
                    "id" : 71,
                    "_type" : "Callout",
                    "def" : {
                      "kind" : "remix",
                      "shape" : "text",
                      "style" : "basic",
                      "height" : 137.23404255323,
                      "width" : 568.085106383099,
                      "word-wrap" : 1.0,
                      "horizontal-alignment" : "center",
                      "text" : "Sensors",
                      "vertical-alignment" : "center",
                      "font" : {
                        "color-blue" : 1.0,
                        "color-green" : 1.0,
                        "color-red" : 1.0,
                        "size" : 96.0,
                        "tracking" : 0.0,
                        "name" : "Montserrat",
                        "weight" : "Regular"
                      },
                      "textAttributes" : {
                        "type" : "textAttributeList",
                        "keyframes" : [
                          {
                            "time" : 0,
                            "value" : [{"name":"underline","rangeEnd":7,"rangeStart":0,"value":0,"valueType":"int"},{"name":"fontWeight","rangeEnd":7,"rangeStart":0,"value":400,"valueType":"int"},{"name":"fontSize","rangeEnd":7,"rangeStart":0,"value":96,"valueType":"double"},{"name":"strikethrough","rangeEnd":7,"rangeStart":0,"value":0,"valueType":"int"},{"name":"fgColor","rangeEnd":7,"rangeStart":0,"value":"(27,157,44,255)","valueType":"color"},{"name":"fontItalic","rangeEnd":7,"rangeStart":0,"value":0,"valueType":"int"},{"name":"fontName","rangeEnd":7,"rangeStart":0,"value":"Montserrat","valueType":"string"}],
                            "duration" : 0
                          }
                        ]
                      }
                    },
                    "attributes" : {
                      "autoRotateText" : true
                    },
                    "parameters" : {
                      "translation0" : 21.4439071578986,
                      "translation1" : 316.779773418148
                    },
                    "effects" : [
                        {
                          "effectName" : "DropShadow",
                          "category" : "categoryVisualEffects",
                          "parameters" : {
                            "angle" : 5.49778714378214,
                            "blur" : 10.0,
                            "color-alpha" : 1.0,
                            "color-blue" : 0.1216,
                            "color-green" : 0.1216,
                            "color-red" : 0.1216,
                            "enabled" : 1,
                            "offset" : 10.0,
                            "opacity" : 0.4
                          }
                        }
                    ],
                    "start" : 9421,
                    "duration" : 324,
                    "mediaStart" : 3,
                    "mediaDuration" : 324,
                    "scalar" : 1,
                    "metadata" : {
                      "WinSubProjectDisplayName" : "",
                      "clipSpeedAttribute" : false,
                      "default-HAlign" : "center",
                      "default-VAlign" : "center",
                      "default-text-attributes" : "[{\"name\":\"strikethrough\",\"rangeEnd\":11,\"rangeStart\":0,\"value\":0,\"valueType\":\"int\"},{\"name\":\"fontName\",\"rangeEnd\":11,\"rangeStart\":0,\"value\":\"Montserrat\",\"valueType\":\"string\"},{\"name\":\"fontWeight\",\"rangeEnd\":11,\"rangeStart\":0,\"value\":400,\"valueType\":\"int\"},{\"name\":\"fgColor\",\"rangeEnd\":11,\"rangeStart\":0,\"value\":\"(27,157,44,255)\",\"valueType\":\"color\"},{\"name\":\"fontSize\",\"rangeEnd\":11,\"rangeStart\":0,\"value\":96,\"valueType\":\"double\"},{\"name\":\"underline\",\"rangeEnd\":11,\"rangeStart\":0,\"value\":0,\"valueType\":\"int\"},{\"name\":\"fontItalic\",\"rangeEnd\":11,\"rangeStart\":0,\"value\":0,\"valueType\":\"int\"}]",
                      "default-translation0" : 0.0,
                      "default-translation1" : 0.0
                    },
                    "animationTracks" : {

                    }
                  },
                  {
                    "id" : 72,
                    "_type" : "Callout",
                    "def" : {
                      "kind" : "remix",
                      "shape" : "text",
                      "style" : "basic",
                      "height" : 137.23404255323,
                      "width" : 568.085106383099,
                      "word-wrap" : 1.0,
                      "horizontal-alignment" : "center",
                      "text" : "Type",
                      "vertical-alignment" : "center",
                      "font" : {
                        "color-blue" : 1.0,
                        "color-green" : 1.0,
                        "color-red" : 1.0,
                        "size" : 96.0,
                        "tracking" : 0.0,
                        "name" : "Montserrat",
                        "weight" : "Regular"
                      },
                      "textAttributes" : {
                        "type" : "textAttributeList",
                        "keyframes" : [
                          {
                            "time" : 0,
                            "value" : [{"name":"fontSize","rangeEnd":4,"rangeStart":0,"value":96,"valueType":"double"},{"name":"fontItalic","rangeEnd":4,"rangeStart":0,"value":0,"valueType":"int"},{"name":"fgColor","rangeEnd":4,"rangeStart":0,"value":"(27,157,44,255)","valueType":"color"},{"name":"underline","rangeEnd":4,"rangeStart":0,"value":0,"valueType":"int"},{"name":"strikethrough","rangeEnd":4,"rangeStart":0,"value":0,"valueType":"int"},{"name":"fontName","rangeEnd":4,"rangeStart":0,"value":"Montserrat","valueType":"string"},{"name":"fontWeight","rangeEnd":4,"rangeStart":0,"value":400,"valueType":"int"}],
                            "duration" : 0
                          }
                        ]
                      }
                    },
                    "attributes" : {
                      "autoRotateText" : true
                    },
                    "parameters" : {
                      "translation0" : 21.4439071578986,
                      "translation1" : 316.779773418148
                    },
                    "effects" : [
                        {
                          "effectName" : "DropShadow",
                          "category" : "categoryVisualEffects",
                          "parameters" : {
                            "angle" : 5.49778714378214,
                            "blur" : 10.0,
                            "color-alpha" : 1.0,
                            "color-blue" : 0.1216,
                            "color-green" : 0.1216,
                            "color-red" : 0.1216,
                            "enabled" : 1,
                            "offset" : 10.0,
                            "opacity" : 0.4
                          }
                        }
                    ],
                    "start" : 9783,
                    "duration" : 335,
                    "mediaStart" : -24,
                    "mediaDuration" : 335,
                    "scalar" : 1,
                    "metadata" : {
                      "WinSubProjectDisplayName" : "",
                      "clipSpeedAttribute" : false,
                      "default-HAlign" : "center",
                      "default-VAlign" : "center",
                      "default-text-attributes" : "[{\"name\":\"strikethrough\",\"rangeEnd\":11,\"rangeStart\":0,\"value\":0,\"valueType\":\"int\"},{\"name\":\"fontName\",\"rangeEnd\":11,\"rangeStart\":0,\"value\":\"Montserrat\",\"valueType\":\"string\"},{\"name\":\"fontWeight\",\"rangeEnd\":11,\"rangeStart\":0,\"value\":400,\"valueType\":\"int\"},{\"name\":\"fgColor\",\"rangeEnd\":11,\"rangeStart\":0,\"value\":\"(27,157,44,255)\",\"valueType\":\"color\"},{\"name\":\"fontSize\",\"rangeEnd\":11,\"rangeStart\":0,\"value\":96,\"valueType\":\"double\"},{\"name\":\"underline\",\"rangeEnd\":11,\"rangeStart\":0,\"value\":0,\"valueType\":\"int\"},{\"name\":\"fontItalic\",\"rangeEnd\":11,\"rangeStart\":0,\"value\":0,\"valueType\":\"int\"}]",
                      "default-translation0" : 0.0,
                      "default-translation1" : 0.0
                    },
                    "animationTracks" : {

                    }
                  },
                  {
                    "id" : 73,
                    "_type" : "Callout",
                    "def" : {
                      "kind" : "remix",
                      "shape" : "text",
                      "style" : "basic",
                      "height" : 137.23404255323,
                      "width" : 568.085106383099,
                      "word-wrap" : 1.0,
                      "horizontal-alignment" : "center",
                      "text" : "Charging",
                      "vertical-alignment" : "center",
                      "font" : {
                        "color-blue" : 1.0,
                        "color-green" : 1.0,
                        "color-red" : 1.0,
                        "size" : 96.0,
                        "tracking" : 0.0,
                        "name" : "Montserrat",
                        "weight" : "Regular"
                      },
                      "textAttributes" : {
                        "type" : "textAttributeList",
                        "keyframes" : [
                          {
                            "time" : 0,
                            "value" : [{"name":"fontSize","rangeEnd":8,"rangeStart":0,"value":96,"valueType":"double"},{"name":"fontItalic","rangeEnd":8,"rangeStart":0,"value":0,"valueType":"int"},{"name":"fontWeight","rangeEnd":8,"rangeStart":0,"value":400,"valueType":"int"},{"name":"strikethrough","rangeEnd":8,"rangeStart":0,"value":0,"valueType":"int"},{"name":"underline","rangeEnd":8,"rangeStart":0,"value":0,"valueType":"int"},{"name":"fgColor","rangeEnd":8,"rangeStart":0,"value":"(27,157,44,255)","valueType":"color"},{"name":"fontName","rangeEnd":8,"rangeStart":0,"value":"Montserrat","valueType":"string"}],
                            "duration" : 0
                          }
                        ]
                      }
                    },
                    "attributes" : {
                      "autoRotateText" : true
                    },
                    "parameters" : {
                      "translation0" : 21.4439071578986,
                      "translation1" : 316.779773418148
                    },
                    "effects" : [
                        {
                          "effectName" : "DropShadow",
                          "category" : "categoryVisualEffects",
                          "parameters" : {
                            "angle" : 5.49778714378214,
                            "blur" : 10.0,
                            "color-alpha" : 1.0,
                            "color-blue" : 0.1216,
                            "color-green" : 0.1216,
                            "color-red" : 0.1216,
                            "enabled" : 1,
                            "offset" : 10.0,
                            "opacity" : 0.4
                          }
                        }
                    ],
                    "start" : 10127,
                    "duration" : 324,
                    "mediaStart" : 0,
                    "mediaDuration" : 324,
                    "scalar" : 1,
                    "metadata" : {
                      "WinSubProjectDisplayName" : "",
                      "clipSpeedAttribute" : false,
                      "default-HAlign" : "center",
                      "default-VAlign" : "center",
                      "default-text-attributes" : "[{\"name\":\"strikethrough\",\"rangeEnd\":11,\"rangeStart\":0,\"value\":0,\"valueType\":\"int\"},{\"name\":\"fontName\",\"rangeEnd\":11,\"rangeStart\":0,\"value\":\"Montserrat\",\"valueType\":\"string\"},{\"name\":\"fontWeight\",\"rangeEnd\":11,\"rangeStart\":0,\"value\":400,\"valueType\":\"int\"},{\"name\":\"fgColor\",\"rangeEnd\":11,\"rangeStart\":0,\"value\":\"(27,157,44,255)\",\"valueType\":\"color\"},{\"name\":\"fontSize\",\"rangeEnd\":11,\"rangeStart\":0,\"value\":96,\"valueType\":\"double\"},{\"name\":\"underline\",\"rangeEnd\":11,\"rangeStart\":0,\"value\":0,\"valueType\":\"int\"},{\"name\":\"fontItalic\",\"rangeEnd\":11,\"rangeStart\":0,\"value\":0,\"valueType\":\"int\"}]",
                      "default-translation0" : 0.0,
                      "default-translation1" : 0.0
                    },
                    "animationTracks" : {

                    }
                  },
                  {
                    "id" : 74,
                    "_type" : "Callout",
                    "def" : {
                      "kind" : "remix",
                      "shape" : "text",
                      "style" : "basic",
                      "height" : 137.23404255323,
                      "width" : 568.085106383099,
                      "word-wrap" : 1.0,
                      "horizontal-alignment" : "center",
                      "text" : "Colors",
                      "vertical-alignment" : "center",
                      "font" : {
                        "color-blue" : 1.0,
                        "color-green" : 1.0,
                        "color-red" : 1.0,
                        "size" : 96.0,
                        "tracking" : 0.0,
                        "name" : "Montserrat",
                        "weight" : "Regular"
                      },
                      "textAttributes" : {
                        "type" : "textAttributeList",
                        "keyframes" : [
                          {
                            "time" : 0,
                            "value" : [{"name":"fontWeight","rangeEnd":6,"rangeStart":0,"value":400,"valueType":"int"},{"name":"fgColor","rangeEnd":6,"rangeStart":0,"value":"(27,157,44,255)","valueType":"color"},{"name":"fontName","rangeEnd":6,"rangeStart":0,"value":"Montserrat","valueType":"string"},{"name":"strikethrough","rangeEnd":6,"rangeStart":0,"value":0,"valueType":"int"},{"name":"fontSize","rangeEnd":6,"rangeStart":0,"value":96,"valueType":"double"},{"name":"fontItalic","rangeEnd":6,"rangeStart":0,"value":0,"valueType":"int"},{"name":"underline","rangeEnd":6,"rangeStart":0,"value":0,"valueType":"int"}],
                            "duration" : 0
                          }
                        ]
                      }
                    },
                    "attributes" : {
                      "autoRotateText" : true
                    },
                    "parameters" : {
                      "translation0" : 21.4439071578986,
                      "translation1" : 316.779773418148
                    },
                    "effects" : [
                        {
                          "effectName" : "DropShadow",
                          "category" : "categoryVisualEffects",
                          "parameters" : {
                            "angle" : 5.49778714378214,
                            "blur" : 10.0,
                            "color-alpha" : 1.0,
                            "color-blue" : 0.1216,
                            "color-green" : 0.1216,
                            "color-red" : 0.1216,
                            "enabled" : 1,
                            "offset" : 10.0,
                            "opacity" : 0.4
                          }
                        }
                    ],
                    "start" : 10469,
                    "duration" : 335,
                    "mediaStart" : -24,
                    "mediaDuration" : 335,
                    "scalar" : 1,
                    "metadata" : {
                      "WinSubProjectDisplayName" : "",
                      "clipSpeedAttribute" : false,
                      "default-HAlign" : "center",
                      "default-VAlign" : "center",
                      "default-text-attributes" : "[{\"name\":\"strikethrough\",\"rangeEnd\":11,\"rangeStart\":0,\"value\":0,\"valueType\":\"int\"},{\"name\":\"fontName\",\"rangeEnd\":11,\"rangeStart\":0,\"value\":\"Montserrat\",\"valueType\":\"string\"},{\"name\":\"fontWeight\",\"rangeEnd\":11,\"rangeStart\":0,\"value\":400,\"valueType\":\"int\"},{\"name\":\"fgColor\",\"rangeEnd\":11,\"rangeStart\":0,\"value\":\"(27,157,44,255)\",\"valueType\":\"color\"},{\"name\":\"fontSize\",\"rangeEnd\":11,\"rangeStart\":0,\"value\":96,\"valueType\":\"double\"},{\"name\":\"underline\",\"rangeEnd\":11,\"rangeStart\":0,\"value\":0,\"valueType\":\"int\"},{\"name\":\"fontItalic\",\"rangeEnd\":11,\"rangeStart\":0,\"value\":0,\"valueType\":\"int\"}]",
                      "default-translation0" : 0.0,
                      "default-translation1" : 0.0
                    },
                    "animationTracks" : {

                    }
                  },
                  {
                    "id" : 75,
                    "_type" : "Callout",
                    "def" : {
                      "kind" : "remix",
                      "shape" : "text",
                      "style" : "basic",
                      "height" : 137.23404255323,
                      "width" : 568.085106383099,
                      "word-wrap" : 1.0,
                      "horizontal-alignment" : "center",
                      "text" : "IPS",
                      "vertical-alignment" : "center",
                      "font" : {
                        "color-blue" : 1.0,
                        "color-green" : 1.0,
                        "color-red" : 1.0,
                        "size" : 96.0,
                        "tracking" : 0.0,
                        "name" : "Montserrat",
                        "weight" : "Regular"
                      },
                      "textAttributes" : {
                        "type" : "textAttributeList",
                        "keyframes" : [
                          {
                            "time" : 0,
                            "value" : [{"name":"fgColor","rangeEnd":3,"rangeStart":0,"value":"(27,157,44,255)","valueType":"color"},{"name":"fontSize","rangeEnd":3,"rangeStart":0,"value":96,"valueType":"double"},{"name":"underline","rangeEnd":3,"rangeStart":0,"value":0,"valueType":"int"},{"name":"fontName","rangeEnd":3,"rangeStart":0,"value":"Montserrat","valueType":"string"},{"name":"strikethrough","rangeEnd":3,"rangeStart":0,"value":0,"valueType":"int"},{"name":"fontItalic","rangeEnd":3,"rangeStart":0,"value":0,"valueType":"int"},{"name":"fontWeight","rangeEnd":3,"rangeStart":0,"value":400,"valueType":"int"}],
                            "duration" : 0
                          }
                        ]
                      }
                    },
                    "attributes" : {
                      "autoRotateText" : true
                    },
                    "parameters" : {
                      "translation0" : 21.4439071578986,
                      "translation1" : 316.779773418148
                    },
                    "effects" : [
                        {
                          "effectName" : "DropShadow",
                          "category" : "categoryVisualEffects",
                          "parameters" : {
                            "angle" : 5.49778714378214,
                            "blur" : 10.0,
                            "color-alpha" : 1.0,
                            "color-blue" : 0.1216,
                            "color-green" : 0.1216,
                            "color-red" : 0.1216,
                            "enabled" : 1,
                            "offset" : 10.0,
                            "opacity" : 0.4
                          }
                        }
                    ],
                    "start" : 10818,
                    "duration" : 331,
                    "mediaStart" : -24,
                    "mediaDuration" : 331,
                    "scalar" : 1,
                    "metadata" : {
                      "WinSubProjectDisplayName" : "",
                      "clipSpeedAttribute" : false,
                      "default-HAlign" : "center",
                      "default-VAlign" : "center",
                      "default-text-attributes" : "[{\"name\":\"strikethrough\",\"rangeEnd\":11,\"rangeStart\":0,\"value\":0,\"valueType\":\"int\"},{\"name\":\"fontName\",\"rangeEnd\":11,\"rangeStart\":0,\"value\":\"Montserrat\",\"valueType\":\"string\"},{\"name\":\"fontWeight\",\"rangeEnd\":11,\"rangeStart\":0,\"value\":400,\"valueType\":\"int\"},{\"name\":\"fgColor\",\"rangeEnd\":11,\"rangeStart\":0,\"value\":\"(27,157,44,255)\",\"valueType\":\"color\"},{\"name\":\"fontSize\",\"rangeEnd\":11,\"rangeStart\":0,\"value\":96,\"valueType\":\"double\"},{\"name\":\"underline\",\"rangeEnd\":11,\"rangeStart\":0,\"value\":0,\"valueType\":\"int\"},{\"name\":\"fontItalic\",\"rangeEnd\":11,\"rangeStart\":0,\"value\":0,\"valueType\":\"int\"}]",
                      "default-translation0" : 0.0,
                      "default-translation1" : 0.0
                    },
                    "animationTracks" : {

                    }
                  },
                  {
                    "id" : 76,
                    "_type" : "Callout",
                    "def" : {
                      "kind" : "remix",
                      "shape" : "text",
                      "style" : "basic",
                      "height" : 137.23404255323,
                      "width" : 568.085106383099,
                      "word-wrap" : 1.0,
                      "horizontal-alignment" : "center",
                      "text" : "Price",
                      "vertical-alignment" : "center",
                      "font" : {
                        "color-blue" : 1.0,
                        "color-green" : 1.0,
                        "color-red" : 1.0,
                        "size" : 96.0,
                        "tracking" : 0.0,
                        "name" : "Montserrat",
                        "weight" : "Regular"
                      },
                      "textAttributes" : {
                        "type" : "textAttributeList",
                        "keyframes" : [
                          {
                            "time" : 0,
                            "value" : [{"name":"fontItalic","rangeEnd":5,"rangeStart":0,"value":0,"valueType":"int"},{"name":"fontSize","rangeEnd":5,"rangeStart":0,"value":96,"valueType":"double"},{"name":"fgColor","rangeEnd":5,"rangeStart":0,"value":"(27,157,44,255)","valueType":"color"},{"name":"underline","rangeEnd":5,"rangeStart":0,"value":0,"valueType":"int"},{"name":"fontWeight","rangeEnd":5,"rangeStart":0,"value":400,"valueType":"int"},{"name":"fontName","rangeEnd":5,"rangeStart":0,"value":"Montserrat","valueType":"string"},{"name":"strikethrough","rangeEnd":5,"rangeStart":0,"value":0,"valueType":"int"}],
                            "duration" : 0
                          }
                        ]
                      }
                    },
                    "attributes" : {
                      "autoRotateText" : true
                    },
                    "parameters" : {
                      "translation0" : 21.4439071578986,
                      "translation1" : 316.779773418148
                    },
                    "effects" : [
                        {
                          "effectName" : "DropShadow",
                          "category" : "categoryVisualEffects",
                          "parameters" : {
                            "angle" : 5.49778714378214,
                            "blur" : 10.0,
                            "color-alpha" : 1.0,
                            "color-blue" : 0.1216,
                            "color-green" : 0.1216,
                            "color-red" : 0.1216,
                            "enabled" : 1,
                            "offset" : 10.0,
                            "opacity" : 0.4
                          }
                        }
                    ],
                    "start" : 11164,
                    "duration" : 308,
                    "mediaStart" : 3,
                    "mediaDuration" : 308,
                    "scalar" : 1,
                    "metadata" : {
                      "WinSubProjectDisplayName" : "",
                      "clipSpeedAttribute" : false,
                      "default-HAlign" : "center",
                      "default-VAlign" : "center",
                      "default-text-attributes" : "[{\"name\":\"strikethrough\",\"rangeEnd\":11,\"rangeStart\":0,\"value\":0,\"valueType\":\"int\"},{\"name\":\"fontName\",\"rangeEnd\":11,\"rangeStart\":0,\"value\":\"Montserrat\",\"valueType\":\"string\"},{\"name\":\"fontWeight\",\"rangeEnd\":11,\"rangeStart\":0,\"value\":400,\"valueType\":\"int\"},{\"name\":\"fgColor\",\"rangeEnd\":11,\"rangeStart\":0,\"value\":\"(27,157,44,255)\",\"valueType\":\"color\"},{\"name\":\"fontSize\",\"rangeEnd\":11,\"rangeStart\":0,\"value\":96,\"valueType\":\"double\"},{\"name\":\"underline\",\"rangeEnd\":11,\"rangeStart\":0,\"value\":0,\"valueType\":\"int\"},{\"name\":\"fontItalic\",\"rangeEnd\":11,\"rangeStart\":0,\"value\":0,\"valueType\":\"int\"}]",
                      "default-translation0" : 0.0,
                      "default-translation1" : 0.0
                    },
                    "animationTracks" : {

                    }
                  }
                ],
                "transitions" : [
                  {
                    "name" : "Fade",
                    "duration" : 18,
                    "useAudioPreRoll" : true,
                    "useVisualPreRoll" : true,
                    "rightMedia" : 44
                  },
                  {
                    "name" : "Fade",
                    "duration" : 18,
                    "useAudioPreRoll" : true,
                    "useVisualPreRoll" : true,
                    "leftMedia" : 44
                  },
                  {
                    "name" : "Fade",
                    "duration" : 17,
                    "useAudioPreRoll" : true,
                    "useVisualPreRoll" : true,
                    "rightMedia" : 45
                  },
                  {
                    "name" : "Fade",
                    "duration" : 17,
                    "useAudioPreRoll" : true,
                    "useVisualPreRoll" : true,
                    "leftMedia" : 45
                  },
                  {
                    "name" : "Fade",
                    "duration" : 17,
                    "useAudioPreRoll" : true,
                    "useVisualPreRoll" : true,
                    "rightMedia" : 46
                  },
                  {
                    "name" : "Fade",
                    "duration" : 18,
                    "useAudioPreRoll" : true,
                    "useVisualPreRoll" : true,
                    "leftMedia" : 46
                  },
                  {
                    "name" : "Fade",
                    "duration" : 18,
                    "useAudioPreRoll" : true,
                    "useVisualPreRoll" : true,
                    "rightMedia" : 47
                  },
                  {
                    "name" : "Fade",
                    "duration" : 15,
                    "useAudioPreRoll" : true,
                    "useVisualPreRoll" : true,
                    "leftMedia" : 47
                  },
                  {
                    "name" : "Fade",
                    "duration" : 14,
                    "useAudioPreRoll" : true,
                    "useVisualPreRoll" : true,
                    "rightMedia" : 48
                  },
                  {
                    "name" : "Fade",
                    "duration" : 19,
                    "useAudioPreRoll" : true,
                    "useVisualPreRoll" : true,
                    "leftMedia" : 48
                  },
                  {
                    "name" : "Fade",
                    "duration" : 18,
                    "useAudioPreRoll" : true,
                    "useVisualPreRoll" : true,
                    "rightMedia" : 49
                  },
                  {
                    "name" : "Fade",
                    "duration" : 20,
                    "useAudioPreRoll" : true,
                    "useVisualPreRoll" : true,
                    "leftMedia" : 49
                  },
                  {
                    "name" : "Fade",
                    "duration" : 17,
                    "useAudioPreRoll" : true,
                    "useVisualPreRoll" : true,
                    "rightMedia" : 50
                  },
                  {
                    "name" : "Fade",
                    "duration" : 19,
                    "useAudioPreRoll" : true,
                    "useVisualPreRoll" : true,
                    "leftMedia" : 50
                  },
                  {
                    "name" : "Fade",
                    "duration" : 17,
                    "useAudioPreRoll" : true,
                    "useVisualPreRoll" : true,
                    "rightMedia" : 51
                  },
                  {
                    "name" : "Fade",
                    "duration" : 17,
                    "useAudioPreRoll" : true,
                    "useVisualPreRoll" : true,
                    "leftMedia" : 51
                  },
                  {
                    "name" : "Fade",
                    "duration" : 17,
                    "useAudioPreRoll" : true,
                    "useVisualPreRoll" : true,
                    "rightMedia" : 52
                  },
                  {
                    "name" : "Fade",
                    "duration" : 16,
                    "useAudioPreRoll" : true,
                    "useVisualPreRoll" : true,
                    "leftMedia" : 52
                  },
                  {
                    "name" : "Fade",
                    "duration" : 17,
                    "useAudioPreRoll" : true,
                    "useVisualPreRoll" : true,
                    "rightMedia" : 53
                  },
                  {
                    "name" : "Fade",
                    "duration" : 17,
                    "useAudioPreRoll" : true,
                    "useVisualPreRoll" : true,
                    "leftMedia" : 53
                  },
                  {
                    "name" : "Fade",
                    "duration" : 22,
                    "useAudioPreRoll" : true,
                    "useVisualPreRoll" : true,
                    "rightMedia" : 54
                  },
                  {
                    "name" : "Fade",
                    "duration" : 15,
                    "useAudioPreRoll" : true,
                    "useVisualPreRoll" : true,
                    "leftMedia" : 54
                  },
                  {
                    "name" : "Fade",
                    "duration" : 17,
                    "useAudioPreRoll" : true,
                    "useVisualPreRoll" : true,
                    "rightMedia" : 55
                  },
                  {
                    "name" : "Fade",
                    "duration" : 14,
                    "useAudioPreRoll" : true,
                    "useVisualPreRoll" : true,
                    "leftMedia" : 55
                  },
                  {
                    "name" : "Fade",
                    "duration" : 20,
                    "useAudioPreRoll" : true,
                    "useVisualPreRoll" : true,
                    "rightMedia" : 56
                  },
                  {
                    "name" : "Fade",
                    "duration" : 14,
                    "useAudioPreRoll" : true,
                    "useVisualPreRoll" : true,
                    "leftMedia" : 56
                  },
                  {
                    "name" : "Fade",
                    "duration" : 16,
                    "useAudioPreRoll" : true,
                    "useVisualPreRoll" : true,
                    "rightMedia" : 57
                  },
                  {
                    "name" : "Fade",
                    "duration" : 12,
                    "useAudioPreRoll" : true,
                    "useVisualPreRoll" : true,
                    "leftMedia" : 57
                  },
                  {
                    "name" : "Fade",
                    "duration" : 12,
                    "useAudioPreRoll" : true,
                    "useVisualPreRoll" : true,
                    "rightMedia" : 58
                  },
                  {
                    "name" : "Fade",
                    "duration" : 19,
                    "useAudioPreRoll" : true,
                    "useVisualPreRoll" : true,
                    "leftMedia" : 58
                  },
                  {
                    "name" : "Fade",
                    "duration" : 19,
                    "useAudioPreRoll" : true,
                    "useVisualPreRoll" : true,
                    "rightMedia" : 59
                  },
                  {
                    "name" : "Fade",
                    "duration" : 17,
                    "useAudioPreRoll" : true,
                    "useVisualPreRoll" : true,
                    "leftMedia" : 59
                  },
                  {
                    "name" : "Fade",
                    "duration" : 16,
                    "useAudioPreRoll" : true,
                    "useVisualPreRoll" : true,
                    "rightMedia" : 60
                  },
                  {
                    "name" : "Fade",
                    "duration" : 14,
                    "useAudioPreRoll" : true,
                    "useVisualPreRoll" : true,
                    "leftMedia" : 60
                  },
                  {
                    "name" : "Fade",
                    "duration" : 14,
                    "useAudioPreRoll" : true,
                    "useVisualPreRoll" : true,
                    "rightMedia" : 61
                  },
                  {
                    "name" : "Fade",
                    "duration" : 19,
                    "useAudioPreRoll" : true,
                    "useVisualPreRoll" : true,
                    "leftMedia" : 61
                  },
                  {
                    "name" : "Fade",
                    "duration" : 19,
                    "useAudioPreRoll" : true,
                    "useVisualPreRoll" : true,
                    "rightMedia" : 62
                  },
                  {
                    "name" : "Fade",
                    "duration" : 18,
                    "useAudioPreRoll" : true,
                    "useVisualPreRoll" : true,
                    "leftMedia" : 62
                  },
                  {
                    "name" : "Fade",
                    "duration" : 21,
                    "useAudioPreRoll" : true,
                    "useVisualPreRoll" : true,
                    "rightMedia" : 63
                  },
                  {
                    "name" : "Fade",
                    "duration" : 18,
                    "useAudioPreRoll" : true,
                    "useVisualPreRoll" : true,
                    "leftMedia" : 63
                  },
                  {
                    "name" : "Fade",
                    "duration" : 18,
                    "useAudioPreRoll" : true,
                    "useVisualPreRoll" : true,
                    "rightMedia" : 64
                  },
                  {
                    "name" : "Fade",
                    "duration" : 18,
                    "useAudioPreRoll" : true,
                    "useVisualPreRoll" : true,
                    "leftMedia" : 64
                  },
                  {
                    "name" : "Fade",
                    "duration" : 16,
                    "useAudioPreRoll" : true,
                    "useVisualPreRoll" : true,
                    "rightMedia" : 65
                  },
                  {
                    "name" : "Fade",
                    "duration" : 16,
                    "useAudioPreRoll" : true,
                    "useVisualPreRoll" : true,
                    "leftMedia" : 65
                  },
                  {
                    "name" : "Fade",
                    "duration" : 16,
                    "useAudioPreRoll" : true,
                    "useVisualPreRoll" : true,
                    "rightMedia" : 66
                  },
                  {
                    "name" : "Fade",
                    "duration" : 19,
                    "useAudioPreRoll" : true,
                    "useVisualPreRoll" : true,
                    "leftMedia" : 66
                  },
                  {
                    "name" : "Fade",
                    "duration" : 20,
                    "useAudioPreRoll" : true,
                    "useVisualPreRoll" : true,
                    "rightMedia" : 67
                  },
                  {
                    "name" : "Fade",
                    "duration" : 16,
                    "useAudioPreRoll" : true,
                    "useVisualPreRoll" : true,
                    "leftMedia" : 67
                  },
                  {
                    "name" : "Fade",
                    "duration" : 16,
                    "useAudioPreRoll" : true,
                    "useVisualPreRoll" : true,
                    "rightMedia" : 68
                  },
                  {
                    "name" : "Fade",
                    "duration" : 16,
                    "useAudioPreRoll" : true,
                    "useVisualPreRoll" : true,
                    "leftMedia" : 68
                  },
                  {
                    "name" : "Fade",
                    "duration" : 16,
                    "useAudioPreRoll" : true,
                    "useVisualPreRoll" : true,
                    "rightMedia" : 69
                  },
                  {
                    "name" : "Fade",
                    "duration" : 15,
                    "useAudioPreRoll" : true,
                    "useVisualPreRoll" : true,
                    "leftMedia" : 69
                  },
                  {
                    "name" : "Fade",
                    "duration" : 15,
                    "useAudioPreRoll" : true,
                    "useVisualPreRoll" : true,
                    "rightMedia" : 70
                  },
                  {
                    "name" : "Fade",
                    "duration" : 17,
                    "useAudioPreRoll" : true,
                    "useVisualPreRoll" : true,
                    "leftMedia" : 70
                  },
                  {
                    "name" : "Fade",
                    "duration" : 17,
                    "useAudioPreRoll" : true,
                    "useVisualPreRoll" : true,
                    "rightMedia" : 71
                  },
                  {
                    "name" : "Fade",
                    "duration" : 16,
                    "useAudioPreRoll" : true,
                    "useVisualPreRoll" : true,
                    "leftMedia" : 71
                  },
                  {
                    "name" : "Fade",
                    "duration" : 16,
                    "useAudioPreRoll" : true,
                    "useVisualPreRoll" : true,
                    "rightMedia" : 72
                  },
                  {
                    "name" : "Fade",
                    "duration" : 15,
                    "useAudioPreRoll" : true,
                    "useVisualPreRoll" : true,
                    "leftMedia" : 72
                  },
                  {
                    "name" : "Fade",
                    "duration" : 15,
                    "useAudioPreRoll" : true,
                    "useVisualPreRoll" : true,
                    "rightMedia" : 73
                  },
                  {
                    "name" : "Fade",
                    "duration" : 17,
                    "useAudioPreRoll" : true,
                    "useVisualPreRoll" : true,
                    "leftMedia" : 73
                  },
                  {
                    "name" : "Fade",
                    "duration" : 18,
                    "useAudioPreRoll" : true,
                    "useVisualPreRoll" : true,
                    "rightMedia" : 74
                  },
                  {
                    "name" : "Fade",
                    "duration" : 18,
                    "useAudioPreRoll" : true,
                    "useVisualPreRoll" : true,
                    "leftMedia" : 74
                  },
                  {
                    "name" : "Fade",
                    "duration" : 13,
                    "useAudioPreRoll" : true,
                    "useVisualPreRoll" : true,
                    "rightMedia" : 75
                  },
                  {
                    "name" : "Fade",
                    "duration" : 19,
                    "useAudioPreRoll" : true,
                    "useVisualPreRoll" : true,
                    "leftMedia" : 75
                  },
                  {
                    "name" : "Fade",
                    "duration" : 18,
                    "useAudioPreRoll" : true,
                    "useVisualPreRoll" : true,
                    "rightMedia" : 76
                  },
                  {
                    "name" : "Fade",
                    "duration" : 13,
                    "useAudioPreRoll" : true,
                    "useVisualPreRoll" : true,
                    "leftMedia" : 76
                  }
                ]
              },
              {
                "trackIndex" : 10,
                "medias" : [
                  {
                    "id" : 77,
                    "_type" : "Callout",
                    "def" : {
                      "kind" : "remix",
                      "shape" : "text",
                      "style" : "basic",
                      "height" : 132.613981762901,
                      "width" : 361.218568665492,
                      "word-wrap" : 1.0,
                      "horizontal-alignment" : "center",
                      "text" : "2019, September 10",
                      "vertical-alignment" : "center",
                      "font" : {
                        "color-blue" : 1.0,
                        "color-green" : 1.0,
                        "color-red" : 1.0,
                        "size" : 96.0,
                        "tracking" : 0.0,
                        "name" : "Montserrat",
                        "weight" : "Regular"
                      },
                      "textAttributes" : {
                        "type" : "textAttributeList",
                        "keyframes" : [
                          {
                            "time" : 0,
                            "value" : [{"name":"fontItalic","rangeEnd":18,"rangeStart":0,"value":0,"valueType":"int"},{"name":"strikethrough","rangeEnd":18,"rangeStart":0,"value":0,"valueType":"int"},{"name":"underline","rangeEnd":18,"rangeStart":0,"value":0,"valueType":"int"},{"name":"fontWeight","rangeEnd":18,"rangeStart":0,"value":400,"valueType":"int"},{"name":"fontSize","rangeEnd":18,"rangeStart":0,"value":96,"valueType":"double"},{"name":"fontName","rangeEnd":18,"rangeStart":0,"value":"Montserrat","valueType":"string"},{"name":"fgColor","rangeEnd":18,"rangeStart":0,"value":"(152,56,56,255)","valueType":"color"}],
                            "duration" : 0
                          }
                        ]
                      }
                    },
                    "attributes" : {
                      "autoRotateText" : true
                    },
                    "parameters" : {
                      "translation0" : -305.504559270038,
                      "translation1" : 85.2798366494246
                    },
                    "effects" : [
                        {
                          "effectName" : "DropShadow",
                          "category" : "categoryVisualEffects",
                          "parameters" : {
                            "angle" : 5.49778714378214,
                            "blur" : 10.0,
                            "color-alpha" : 1.0,
                            "color-blue" : 0.1216,
                            "color-green" : 0.1216,
                            "color-red" : 0.1216,
                            "enabled" : 1,
                            "offset" : 30.8333333333333,
                            "opacity" : 0.4
                          },
                          "metadata" : {
                            "default-dropshadow-offset" : 10.0
                          }
                        }
                    ],
                    "start" : 529,
                    "duration" : 166,
                    "mediaStart" : -36,
                    "mediaDuration" : 166,
                    "scalar" : 1,
                    "metadata" : {
                      "WinSubProjectDisplayName" : "",
                      "clipSpeedAttribute" : false,
                      "default-HAlign" : "center",
                      "default-VAlign" : "center",
                      "default-text-attributes" : "[{\"name\":\"fgColor\",\"rangeEnd\":3,\"rangeStart\":0,\"value\":\"(255,255,255,255)\",\"valueType\":\"color\"},{\"name\":\"underline\",\"rangeEnd\":3,\"rangeStart\":0,\"value\":0,\"valueType\":\"int\"},{\"name\":\"fontSize\",\"rangeEnd\":3,\"rangeStart\":0,\"value\":96,\"valueType\":\"double\"},{\"name\":\"fontWeight\",\"rangeEnd\":3,\"rangeStart\":0,\"value\":400,\"valueType\":\"int\"},{\"name\":\"fontName\",\"rangeEnd\":3,\"rangeStart\":0,\"value\":\"Montserrat\",\"valueType\":\"string\"}]",
                      "default-translation0" : 0.0,
                      "default-translation1" : 0.0
                    },
                    "animationTracks" : {

                    }
                  },
                  {
                    "id" : 78,
                    "_type" : "Callout",
                    "def" : {
                      "kind" : "remix",
                      "shape" : "text",
                      "style" : "basic",
                      "height" : 184.042553191456,
                      "width" : 402.127659574749,
                      "word-wrap" : 1.0,
                      "horizontal-alignment" : "center",
                      "text" : "6.5 inches, 102.9 cm2 (~83.7% screen-to-body ratio)",
                      "vertical-alignment" : "center",
                      "font" : {
                        "color-blue" : 1.0,
                        "color-green" : 1.0,
                        "color-red" : 1.0,
                        "size" : 96.0,
                        "tracking" : 0.0,
                        "name" : "Montserrat",
                        "weight" : "Regular"
                      },
                      "textAttributes" : {
                        "type" : "textAttributeList",
                        "keyframes" : [
                          {
                            "time" : 0,
                            "value" : [{"name":"fgColor","rangeEnd":51,"rangeStart":0,"value":"(152,56,56,255)","valueType":"color"},{"name":"fontName","rangeEnd":51,"rangeStart":0,"value":"Montserrat","valueType":"string"},{"name":"strikethrough","rangeEnd":51,"rangeStart":0,"value":0,"valueType":"int"},{"name":"fontWeight","rangeEnd":51,"rangeStart":0,"value":400,"valueType":"int"},{"name":"fontItalic","rangeEnd":51,"rangeStart":0,"value":0,"valueType":"int"},{"name":"fontSize","rangeEnd":51,"rangeStart":0,"value":96,"valueType":"double"},{"name":"underline","rangeEnd":51,"rangeStart":0,"value":0,"valueType":"int"}],
                            "duration" : 0
                          }
                        ]
                      }
                    },
                    "attributes" : {
                      "autoRotateText" : true
                    },
                    "parameters" : {
                      "translation0" : -287.86170212703,
                      "translation1" : 95.1595744680834
                    },
                    "effects" : [
                        {
                          "effectName" : "DropShadow",
                          "category" : "categoryVisualEffects",
                          "parameters" : {
                            "angle" : 5.49778714378214,
                            "blur" : 10.0,
                            "color-alpha" : 1.0,
                            "color-blue" : 0.1216,
                            "color-green" : 0.1216,
                            "color-red" : 0.1216,
                            "enabled" : 1,
                            "offset" : 30.8333333333333,
                            "opacity" : 0.4
                          },
                          "metadata" : {
                            "default-dropshadow-offset" : 10.0
                          }
                        }
                    ],
                    "start" : 798,
                    "duration" : 204,
                    "mediaStart" : -114,
                    "mediaDuration" : 204,
                    "scalar" : 1,
                    "metadata" : {
                      "WinSubProjectDisplayName" : "",
                      "clipSpeedAttribute" : false,
                      "default-HAlign" : "center",
                      "default-VAlign" : "center",
                      "default-text-attributes" : "[{\"name\":\"fgColor\",\"rangeEnd\":3,\"rangeStart\":0,\"value\":\"(255,255,255,255)\",\"valueType\":\"color\"},{\"name\":\"underline\",\"rangeEnd\":3,\"rangeStart\":0,\"value\":0,\"valueType\":\"int\"},{\"name\":\"fontSize\",\"rangeEnd\":3,\"rangeStart\":0,\"value\":96,\"valueType\":\"double\"},{\"name\":\"fontWeight\",\"rangeEnd\":3,\"rangeStart\":0,\"value\":400,\"valueType\":\"int\"},{\"name\":\"fontName\",\"rangeEnd\":3,\"rangeStart\":0,\"value\":\"Montserrat\",\"valueType\":\"string\"}]",
                      "default-translation0" : 0.0,
                      "default-translation1" : 0.0
                    },
                    "animationTracks" : {

                    }
                  },
                  {
                    "id" : 79,
                    "_type" : "Callout",
                    "def" : {
                      "kind" : "remix",
                      "shape" : "text",
                      "style" : "basic",
                      "height" : 196.808510638276,
                      "width" : 465.957446808994,
                      "word-wrap" : 1.0,
                      "horizontal-alignment" : "center",
                      "text" : "1242 x 2688 pixels, 19.5:9 ratio (~458 ppi density)",
                      "vertical-alignment" : "center",
                      "font" : {
                        "color-blue" : 1.0,
                        "color-green" : 1.0,
                        "color-red" : 1.0,
                        "size" : 96.0,
                        "tracking" : 0.0,
                        "name" : "Montserrat",
                        "weight" : "Regular"
                      },
                      "textAttributes" : {
                        "type" : "textAttributeList",
                        "keyframes" : [
                          {
                            "time" : 0,
                            "value" : [{"name":"fontItalic","rangeEnd":51,"rangeStart":0,"value":0,"valueType":"int"},{"name":"fontSize","rangeEnd":51,"rangeStart":0,"value":96,"valueType":"double"},{"name":"underline","rangeEnd":51,"rangeStart":0,"value":0,"valueType":"int"},{"name":"strikethrough","rangeEnd":51,"rangeStart":0,"value":0,"valueType":"int"},{"name":"fgColor","rangeEnd":51,"rangeStart":0,"value":"(152,56,56,255)","valueType":"color"},{"name":"fontWeight","rangeEnd":51,"rangeStart":0,"value":400,"valueType":"int"},{"name":"fontName","rangeEnd":51,"rangeStart":0,"value":"Montserrat","valueType":"string"}],
                            "duration" : 0
                          }
                        ]
                      }
                    },
                    "attributes" : {
                      "autoRotateText" : true
                    },
                    "parameters" : {
                      "translation0" : -253.504553426026,
                      "translation1" : 111.79787574923
                    },
                    "effects" : [
                        {
                          "effectName" : "DropShadow",
                          "category" : "categoryVisualEffects",
                          "parameters" : {
                            "angle" : 5.49778714378214,
                            "blur" : 10.0,
                            "color-alpha" : 1.0,
                            "color-blue" : 0.1216,
                            "color-green" : 0.1216,
                            "color-red" : 0.1216,
                            "enabled" : 1,
                            "offset" : 30.8333333333333,
                            "opacity" : 0.4
                          },
                          "metadata" : {
                            "default-dropshadow-offset" : 10.0
                          }
                        }
                    ],
                    "start" : 1064,
                    "duration" : 245,
                    "mediaStart" : -24,
                    "mediaDuration" : 245,
                    "scalar" : 1,
                    "metadata" : {
                      "WinSubProjectDisplayName" : "",
                      "clipSpeedAttribute" : false,
                      "default-HAlign" : "center",
                      "default-VAlign" : "center",
                      "default-text-attributes" : "[{\"name\":\"fgColor\",\"rangeEnd\":3,\"rangeStart\":0,\"value\":\"(255,255,255,255)\",\"valueType\":\"color\"},{\"name\":\"underline\",\"rangeEnd\":3,\"rangeStart\":0,\"value\":0,\"valueType\":\"int\"},{\"name\":\"fontSize\",\"rangeEnd\":3,\"rangeStart\":0,\"value\":96,\"valueType\":\"double\"},{\"name\":\"fontWeight\",\"rangeEnd\":3,\"rangeStart\":0,\"value\":400,\"valueType\":\"int\"},{\"name\":\"fontName\",\"rangeEnd\":3,\"rangeStart\":0,\"value\":\"Montserrat\",\"valueType\":\"string\"}]",
                      "default-translation0" : 0.0,
                      "default-translation1" : 0.0
                    },
                    "animationTracks" : {

                    }
                  },
                  {
                    "id" : 80,
                    "_type" : "Callout",
                    "def" : {
                      "kind" : "remix",
                      "shape" : "text",
                      "style" : "basic",
                      "height" : 256.88616452379,
                      "width" : 468.316456177015,
                      "word-wrap" : 1.0,
                      "horizontal-alignment" : "center",
                      "text" : "\tSuper Retina XDR OLED, HDR10, Dolby Vision, 800 nits (HBM), 1200 nits (peak)",
                      "vertical-alignment" : "center",
                      "font" : {
                        "color-blue" : 1.0,
                        "color-green" : 1.0,
                        "color-red" : 1.0,
                        "size" : 96.0,
                        "tracking" : 0.0,
                        "name" : "Montserrat",
                        "weight" : "Regular"
                      },
                      "textAttributes" : {
                        "type" : "textAttributeList",
                        "keyframes" : [
                          {
                            "time" : 0,
                            "value" : [{"name":"fontName","rangeEnd":77,"rangeStart":0,"value":"Montserrat","valueType":"string"},{"name":"fontSize","rangeEnd":77,"rangeStart":0,"value":96,"valueType":"double"},{"name":"strikethrough","rangeEnd":77,"rangeStart":0,"value":0,"valueType":"int"},{"name":"fontItalic","rangeEnd":77,"rangeStart":0,"value":0,"valueType":"int"},{"name":"underline","rangeEnd":77,"rangeStart":0,"value":0,"valueType":"int"},{"name":"fontWeight","rangeEnd":77,"rangeStart":0,"value":400,"valueType":"int"},{"name":"fgColor","rangeEnd":77,"rangeStart":0,"value":"(152,56,56,255)","valueType":"color"}],
                            "duration" : 0
                          }
                        ]
                      }
                    },
                    "attributes" : {
                      "autoRotateText" : true
                    },
                    "parameters" : {
                      "translation0" : -308.440038683995,
                      "translation1" : 64.6363636363166
                    },
                    "effects" : [
                        {
                          "effectName" : "DropShadow",
                          "category" : "categoryVisualEffects",
                          "parameters" : {
                            "angle" : 5.49778714378214,
                            "blur" : 10.0,
                            "color-alpha" : 1.0,
                            "color-blue" : 0.1216,
                            "color-green" : 0.1216,
                            "color-red" : 0.1216,
                            "enabled" : 1,
                            "offset" : 30.8333333333333,
                            "opacity" : 0.4
                          },
                          "metadata" : {
                            "default-dropshadow-offset" : 10.0
                          }
                        }
                    ],
                    "start" : 1373,
                    "duration" : 257,
                    "mediaStart" : -24,
                    "mediaDuration" : 257,
                    "scalar" : 1,
                    "metadata" : {
                      "WinSubProjectDisplayName" : "",
                      "clipSpeedAttribute" : false,
                      "default-HAlign" : "center",
                      "default-VAlign" : "center",
                      "default-text-attributes" : "[{\"name\":\"fgColor\",\"rangeEnd\":3,\"rangeStart\":0,\"value\":\"(255,255,255,255)\",\"valueType\":\"color\"},{\"name\":\"underline\",\"rangeEnd\":3,\"rangeStart\":0,\"value\":0,\"valueType\":\"int\"},{\"name\":\"fontSize\",\"rangeEnd\":3,\"rangeStart\":0,\"value\":96,\"valueType\":\"double\"},{\"name\":\"fontWeight\",\"rangeEnd\":3,\"rangeStart\":0,\"value\":400,\"valueType\":\"int\"},{\"name\":\"fontName\",\"rangeEnd\":3,\"rangeStart\":0,\"value\":\"Montserrat\",\"valueType\":\"string\"}]",
                      "default-translation0" : 0.0,
                      "default-translation1" : 0.0
                    },
                    "animationTracks" : {

                    }
                  },
                  {
                    "id" : 81,
                    "_type" : "Callout",
                    "def" : {
                      "kind" : "remix",
                      "shape" : "text",
                      "style" : "basic",
                      "height" : 202.095422308128,
                      "width" : 369.483282675297,
                      "word-wrap" : 1.0,
                      "horizontal-alignment" : "center",
                      "text" : "Scratch-resistant ceramic glass, oleophobic coating",
                      "vertical-alignment" : "center",
                      "font" : {
                        "color-blue" : 1.0,
                        "color-green" : 1.0,
                        "color-red" : 1.0,
                        "size" : 96.0,
                        "tracking" : 0.0,
                        "name" : "Montserrat",
                        "weight" : "Regular"
                      },
                      "textAttributes" : {
                        "type" : "textAttributeList",
                        "keyframes" : [
                          {
                            "time" : 0,
                            "value" : [{"name":"fontSize","rangeEnd":51,"rangeStart":0,"value":96,"valueType":"double"},{"name":"fontWeight","rangeEnd":51,"rangeStart":0,"value":400,"valueType":"int"},{"name":"fontItalic","rangeEnd":51,"rangeStart":0,"value":0,"valueType":"int"},{"name":"strikethrough","rangeEnd":51,"rangeStart":0,"value":0,"valueType":"int"},{"name":"fontName","rangeEnd":51,"rangeStart":0,"value":"Montserrat","valueType":"string"},{"name":"underline","rangeEnd":51,"rangeStart":0,"value":0,"valueType":"int"},{"name":"fgColor","rangeEnd":51,"rangeStart":0,"value":"(152,56,56,255)","valueType":"color"}],
                            "duration" : 0
                          }
                        ]
                      }
                    },
                    "attributes" : {
                      "autoRotateText" : true
                    },
                    "parameters" : {
                      "translation0" : -301.504559269617,
                      "translation1" : 95.6489361702235
                    },
                    "effects" : [
                        {
                          "effectName" : "DropShadow",
                          "category" : "categoryVisualEffects",
                          "parameters" : {
                            "angle" : 5.49778714378214,
                            "blur" : 10.0,
                            "color-alpha" : 1.0,
                            "color-blue" : 0.1216,
                            "color-green" : 0.1216,
                            "color-red" : 0.1216,
                            "enabled" : 1,
                            "offset" : 30.8333333333333,
                            "opacity" : 0.4
                          },
                          "metadata" : {
                            "default-dropshadow-offset" : 10.0
                          }
                        }
                    ],
                    "start" : 1694,
                    "duration" : 237,
                    "mediaStart" : -24,
                    "mediaDuration" : 237,
                    "scalar" : 1,
                    "metadata" : {
                      "WinSubProjectDisplayName" : "",
                      "clipSpeedAttribute" : false,
                      "default-HAlign" : "center",
                      "default-VAlign" : "center",
                      "default-text-attributes" : "[{\"name\":\"fgColor\",\"rangeEnd\":3,\"rangeStart\":0,\"value\":\"(255,255,255,255)\",\"valueType\":\"color\"},{\"name\":\"underline\",\"rangeEnd\":3,\"rangeStart\":0,\"value\":0,\"valueType\":\"int\"},{\"name\":\"fontSize\",\"rangeEnd\":3,\"rangeStart\":0,\"value\":96,\"valueType\":\"double\"},{\"name\":\"fontWeight\",\"rangeEnd\":3,\"rangeStart\":0,\"value\":400,\"valueType\":\"int\"},{\"name\":\"fontName\",\"rangeEnd\":3,\"rangeStart\":0,\"value\":\"Montserrat\",\"valueType\":\"string\"}]",
                      "default-translation0" : 0.0,
                      "default-translation1" : 0.0
                    },
                    "animationTracks" : {

                    }
                  },
                  {
                    "id" : 82,
                    "_type" : "Callout",
                    "def" : {
                      "kind" : "remix",
                      "shape" : "text",
                      "style" : "basic",
                      "height" : 183.913604126303,
                      "width" : 369.483282675297,
                      "word-wrap" : 1.0,
                      "horizontal-alignment" : "center",
                      "text" : "glass back (Gorilla Glass), stainless steel frame",
                      "vertical-alignment" : "center",
                      "font" : {
                        "color-blue" : 1.0,
                        "color-green" : 1.0,
                        "color-red" : 1.0,
                        "size" : 96.0,
                        "tracking" : 0.0,
                        "name" : "Montserrat",
                        "weight" : "Regular"
                      },
                      "textAttributes" : {
                        "type" : "textAttributeList",
                        "keyframes" : [
                          {
                            "time" : 0,
                            "value" : [{"name":"strikethrough","rangeEnd":49,"rangeStart":0,"value":0,"valueType":"int"},{"name":"fontSize","rangeEnd":49,"rangeStart":0,"value":96,"valueType":"double"},{"name":"underline","rangeEnd":49,"rangeStart":0,"value":0,"valueType":"int"},{"name":"fontName","rangeEnd":49,"rangeStart":0,"value":"Montserrat","valueType":"string"},{"name":"fontItalic","rangeEnd":49,"rangeStart":0,"value":0,"valueType":"int"},{"name":"fontWeight","rangeEnd":49,"rangeStart":0,"value":400,"valueType":"int"},{"name":"fgColor","rangeEnd":49,"rangeStart":0,"value":"(152,56,56,255)","valueType":"color"}],
                            "duration" : 0
                          }
                        ]
                      }
                    },
                    "attributes" : {
                      "autoRotateText" : true
                    },
                    "parameters" : {
                      "translation0" : -301.504559269617,
                      "translation1" : 86.1489361702235
                    },
                    "effects" : [
                        {
                          "effectName" : "DropShadow",
                          "category" : "categoryVisualEffects",
                          "parameters" : {
                            "angle" : 5.49778714378214,
                            "blur" : 10.0,
                            "color-alpha" : 1.0,
                            "color-blue" : 0.1216,
                            "color-green" : 0.1216,
                            "color-red" : 0.1216,
                            "enabled" : 1,
                            "offset" : 30.8333333333333,
                            "opacity" : 0.4
                          },
                          "metadata" : {
                            "default-dropshadow-offset" : 10.0
                          }
                        }
                    ],
                    "start" : 2037,
                    "duration" : 260,
                    "mediaStart" : -24,
                    "mediaDuration" : 260,
                    "scalar" : 1,
                    "metadata" : {
                      "WinSubProjectDisplayName" : "",
                      "clipSpeedAttribute" : false,
                      "default-HAlign" : "center",
                      "default-VAlign" : "center",
                      "default-text-attributes" : "[{\"name\":\"fgColor\",\"rangeEnd\":3,\"rangeStart\":0,\"value\":\"(255,255,255,255)\",\"valueType\":\"color\"},{\"name\":\"underline\",\"rangeEnd\":3,\"rangeStart\":0,\"value\":0,\"valueType\":\"int\"},{\"name\":\"fontSize\",\"rangeEnd\":3,\"rangeStart\":0,\"value\":96,\"valueType\":\"double\"},{\"name\":\"fontWeight\",\"rangeEnd\":3,\"rangeStart\":0,\"value\":400,\"valueType\":\"int\"},{\"name\":\"fontName\",\"rangeEnd\":3,\"rangeStart\":0,\"value\":\"Montserrat\",\"valueType\":\"string\"}]",
                      "default-translation0" : 0.0,
                      "default-translation1" : 0.0
                    },
                    "animationTracks" : {

                    }
                  },
                  {
                    "id" : 83,
                    "_type" : "Callout",
                    "def" : {
                      "kind" : "remix",
                      "shape" : "text",
                      "style" : "basic",
                      "height" : 141.489361702077,
                      "width" : 400.918762089507,
                      "word-wrap" : 1.0,
                      "horizontal-alignment" : "center",
                      "text" : "158 x 77.8 x 8.1 mm (6.22 x 3.06 x 0.32 in)",
                      "vertical-alignment" : "center",
                      "font" : {
                        "color-blue" : 1.0,
                        "color-green" : 1.0,
                        "color-red" : 1.0,
                        "size" : 96.0,
                        "tracking" : 0.0,
                        "name" : "Montserrat",
                        "weight" : "Regular"
                      },
                      "textAttributes" : {
                        "type" : "textAttributeList",
                        "keyframes" : [
                          {
                            "time" : 0,
                            "value" : [{"name":"fontName","rangeEnd":43,"rangeStart":0,"value":"Montserrat","valueType":"string"},{"name":"strikethrough","rangeEnd":43,"rangeStart":0,"value":0,"valueType":"int"},{"name":"fontSize","rangeEnd":43,"rangeStart":0,"value":96,"valueType":"double"},{"name":"underline","rangeEnd":43,"rangeStart":0,"value":0,"valueType":"int"},{"name":"fontWeight","rangeEnd":43,"rangeStart":0,"value":400,"valueType":"int"},{"name":"fgColor","rangeEnd":43,"rangeStart":0,"value":"(152,56,56,255)","valueType":"color"},{"name":"fontItalic","rangeEnd":43,"rangeStart":0,"value":0,"valueType":"int"}],
                            "duration" : 0
                          }
                        ]
                      }
                    },
                    "attributes" : {
                      "autoRotateText" : true
                    },
                    "parameters" : {
                      "translation0" : -269.712765956802,
                      "translation1" : 65.1489361702235
                    },
                    "effects" : [
                        {
                          "effectName" : "DropShadow",
                          "category" : "categoryVisualEffects",
                          "parameters" : {
                            "angle" : 5.49778714378214,
                            "blur" : 10.0,
                            "color-alpha" : 1.0,
                            "color-blue" : 0.1216,
                            "color-green" : 0.1216,
                            "color-red" : 0.1216,
                            "enabled" : 1,
                            "offset" : 30.8333333333333,
                            "opacity" : 0.4
                          },
                          "metadata" : {
                            "default-dropshadow-offset" : 10.0
                          }
                        }
                    ],
                    "start" : 2371,
                    "duration" : 290,
                    "mediaStart" : -24,
                    "mediaDuration" : 290,
                    "scalar" : 1,
                    "metadata" : {
                      "WinSubProjectDisplayName" : "",
                      "clipSpeedAttribute" : false,
                      "default-HAlign" : "center",
                      "default-VAlign" : "center",
                      "default-text-attributes" : "[{\"name\":\"fgColor\",\"rangeEnd\":3,\"rangeStart\":0,\"value\":\"(255,255,255,255)\",\"valueType\":\"color\"},{\"name\":\"underline\",\"rangeEnd\":3,\"rangeStart\":0,\"value\":0,\"valueType\":\"int\"},{\"name\":\"fontSize\",\"rangeEnd\":3,\"rangeStart\":0,\"value\":96,\"valueType\":\"double\"},{\"name\":\"fontWeight\",\"rangeEnd\":3,\"rangeStart\":0,\"value\":400,\"valueType\":\"int\"},{\"name\":\"fontName\",\"rangeEnd\":3,\"rangeStart\":0,\"value\":\"Montserrat\",\"valueType\":\"string\"}]",
                      "default-translation0" : 0.0,
                      "default-translation1" : 0.0
                    },
                    "animationTracks" : {

                    }
                  },
                  {
                    "id" : 84,
                    "_type" : "Callout",
                    "def" : {
                      "kind" : "remix",
                      "shape" : "text",
                      "style" : "basic",
                      "height" : 141.489361702077,
                      "width" : 419.100580271127,
                      "word-wrap" : 1.0,
                      "horizontal-alignment" : "center",
                      "text" : "226 g (7.97 oz)",
                      "vertical-alignment" : "center",
                      "font" : {
                        "color-blue" : 1.0,
                        "color-green" : 1.0,
                        "color-red" : 1.0,
                        "size" : 96.0,
                        "tracking" : 0.0,
                        "name" : "Montserrat",
                        "weight" : "Regular"
                      },
                      "textAttributes" : {
                        "type" : "textAttributeList",
                        "keyframes" : [
                          {
                            "time" : 0,
                            "value" : [{"name":"fontName","rangeEnd":15,"rangeStart":0,"value":"Montserrat","valueType":"string"},{"name":"strikethrough","rangeEnd":15,"rangeStart":0,"value":0,"valueType":"int"},{"name":"fgColor","rangeEnd":15,"rangeStart":0,"value":"(152,56,56,255)","valueType":"color"},{"name":"fontItalic","rangeEnd":15,"rangeStart":0,"value":0,"valueType":"int"},{"name":"underline","rangeEnd":15,"rangeStart":0,"value":0,"valueType":"int"},{"name":"fontSize","rangeEnd":15,"rangeStart":0,"value":96,"valueType":"double"},{"name":"fontWeight","rangeEnd":15,"rangeStart":0,"value":400,"valueType":"int"}],
                            "duration" : 0
                          }
                        ]
                      }
                    },
                    "attributes" : {
                      "autoRotateText" : true
                    },
                    "parameters" : {
                      "translation0" : -260.212765956802,
                      "translation1" : 65.1489361702235
                    },
                    "effects" : [
                        {
                          "effectName" : "DropShadow",
                          "category" : "categoryVisualEffects",
                          "parameters" : {
                            "angle" : 5.49778714378214,
                            "blur" : 10.0,
                            "color-alpha" : 1.0,
                            "color-blue" : 0.1216,
                            "color-green" : 0.1216,
                            "color-red" : 0.1216,
                            "enabled" : 1,
                            "offset" : 30.8333333333333,
                            "opacity" : 0.4
                          },
                          "metadata" : {
                            "default-dropshadow-offset" : 10.0
                          }
                        }
                    ],
                    "start" : 2717,
                    "duration" : 290,
                    "mediaStart" : -24,
                    "mediaDuration" : 290,
                    "scalar" : 1,
                    "metadata" : {
                      "WinSubProjectDisplayName" : "",
                      "clipSpeedAttribute" : false,
                      "default-HAlign" : "center",
                      "default-VAlign" : "center",
                      "default-text-attributes" : "[{\"name\":\"fgColor\",\"rangeEnd\":3,\"rangeStart\":0,\"value\":\"(255,255,255,255)\",\"valueType\":\"color\"},{\"name\":\"underline\",\"rangeEnd\":3,\"rangeStart\":0,\"value\":0,\"valueType\":\"int\"},{\"name\":\"fontSize\",\"rangeEnd\":3,\"rangeStart\":0,\"value\":96,\"valueType\":\"double\"},{\"name\":\"fontWeight\",\"rangeEnd\":3,\"rangeStart\":0,\"value\":400,\"valueType\":\"int\"},{\"name\":\"fontName\",\"rangeEnd\":3,\"rangeStart\":0,\"value\":\"Montserrat\",\"valueType\":\"string\"}]",
                      "default-translation0" : 0.0,
                      "default-translation1" : 0.0
                    },
                    "animationTracks" : {

                    }
                  },
                  {
                    "id" : 85,
                    "_type" : "Callout",
                    "def" : {
                      "kind" : "remix",
                      "shape" : "text",
                      "style" : "basic",
                      "height" : 180.883301096006,
                      "width" : 435.392373583943,
                      "word-wrap" : 1.0,
                      "horizontal-alignment" : "center",
                      "text" : "Single SIM (Nano-SIM and/or eSIM) or Dual SIM (Nano-SIM/eSIM, dual stand-by)",
                      "vertical-alignment" : "center",
                      "font" : {
                        "color-blue" : 1.0,
                        "color-green" : 1.0,
                        "color-red" : 1.0,
                        "size" : 96.0,
                        "tracking" : 0.0,
                        "name" : "Montserrat",
                        "weight" : "Regular"
                      },
                      "textAttributes" : {
                        "type" : "textAttributeList",
                        "keyframes" : [
                          {
                            "time" : 0,
                            "value" : [{"name":"fontWeight","rangeEnd":76,"rangeStart":0,"value":400,"valueType":"int"},{"name":"fontSize","rangeEnd":76,"rangeStart":0,"value":96,"valueType":"double"},{"name":"fgColor","rangeEnd":76,"rangeStart":0,"value":"(152,56,56,255)","valueType":"color"},{"name":"underline","rangeEnd":76,"rangeStart":0,"value":0,"valueType":"int"},{"name":"strikethrough","rangeEnd":76,"rangeStart":0,"value":0,"valueType":"int"},{"name":"fontItalic","rangeEnd":76,"rangeStart":0,"value":0,"valueType":"int"},{"name":"fontName","rangeEnd":76,"rangeStart":0,"value":"Montserrat","valueType":"string"}],
                            "duration" : 0
                          }
                        ]
                      }
                    },
                    "attributes" : {
                      "autoRotateText" : true
                    },
                    "parameters" : {
                      "translation0" : -268.504559269618,
                      "translation1" : 84.6489361702235
                    },
                    "effects" : [
                        {
                          "effectName" : "DropShadow",
                          "category" : "categoryVisualEffects",
                          "parameters" : {
                            "angle" : 5.49778714378214,
                            "blur" : 10.0,
                            "color-alpha" : 1.0,
                            "color-blue" : 0.1216,
                            "color-green" : 0.1216,
                            "color-red" : 0.1216,
                            "enabled" : 1,
                            "offset" : 30.8333333333333,
                            "opacity" : 0.4
                          },
                          "metadata" : {
                            "default-dropshadow-offset" : 10.0
                          }
                        }
                    ],
                    "start" : 3061,
                    "duration" : 290,
                    "mediaStart" : -24,
                    "mediaDuration" : 290,
                    "scalar" : 1,
                    "metadata" : {
                      "WinSubProjectDisplayName" : "",
                      "clipSpeedAttribute" : false,
                      "default-HAlign" : "center",
                      "default-VAlign" : "center",
                      "default-text-attributes" : "[{\"name\":\"fgColor\",\"rangeEnd\":3,\"rangeStart\":0,\"value\":\"(255,255,255,255)\",\"valueType\":\"color\"},{\"name\":\"underline\",\"rangeEnd\":3,\"rangeStart\":0,\"value\":0,\"valueType\":\"int\"},{\"name\":\"fontSize\",\"rangeEnd\":3,\"rangeStart\":0,\"value\":96,\"valueType\":\"double\"},{\"name\":\"fontWeight\",\"rangeEnd\":3,\"rangeStart\":0,\"value\":400,\"valueType\":\"int\"},{\"name\":\"fontName\",\"rangeEnd\":3,\"rangeStart\":0,\"value\":\"Montserrat\",\"valueType\":\"string\"}]",
                      "default-translation0" : 0.0,
                      "default-translation1" : 0.0
                    },
                    "animationTracks" : {

                    }
                  },
                  {
                    "id" : 86,
                    "_type" : "Callout",
                    "def" : {
                      "kind" : "remix",
                      "shape" : "text",
                      "style" : "basic",
                      "height" : 173.307543520242,
                      "width" : 487.319010775446,
                      "word-wrap" : 1.0,
                      "horizontal-alignment" : "center",
                      "text" : "iOS 13, upgradable to iOS 15",
                      "vertical-alignment" : "center",
                      "font" : {
                        "color-blue" : 1.0,
                        "color-green" : 1.0,
                        "color-red" : 1.0,
                        "size" : 96.0,
                        "tracking" : 0.0,
                        "name" : "Montserrat",
                        "weight" : "Regular"
                      },
                      "textAttributes" : {
                        "type" : "textAttributeList",
                        "keyframes" : [
                          {
                            "time" : 0,
                            "value" : [{"name":"fgColor","rangeEnd":28,"rangeStart":0,"value":"(152,56,56,255)","valueType":"color"},{"name":"strikethrough","rangeEnd":28,"rangeStart":0,"value":0,"valueType":"int"},{"name":"fontWeight","rangeEnd":28,"rangeStart":0,"value":400,"valueType":"int"},{"name":"underline","rangeEnd":28,"rangeStart":0,"value":0,"valueType":"int"},{"name":"fontItalic","rangeEnd":28,"rangeStart":0,"value":0,"valueType":"int"},{"name":"fontSize","rangeEnd":28,"rangeStart":0,"value":96,"valueType":"double"},{"name":"fontName","rangeEnd":28,"rangeStart":0,"value":"Montserrat","valueType":"string"}],
                            "duration" : 0
                          }
                        ]
                      }
                    },
                    "attributes" : {
                      "autoRotateText" : true
                    },
                    "parameters" : {
                      "translation0" : -226.212765956802,
                      "translation1" : 49.3307543520584
                    },
                    "effects" : [
                        {
                          "effectName" : "DropShadow",
                          "category" : "categoryVisualEffects",
                          "parameters" : {
                            "angle" : 5.49778714378214,
                            "blur" : 10.0,
                            "color-alpha" : 1.0,
                            "color-blue" : 0.1216,
                            "color-green" : 0.1216,
                            "color-red" : 0.1216,
                            "enabled" : 1,
                            "offset" : 30.8333333333333,
                            "opacity" : 0.4
                          },
                          "metadata" : {
                            "default-dropshadow-offset" : 10.0
                          }
                        }
                    ],
                    "start" : 3433,
                    "duration" : 254,
                    "mediaStart" : -24,
                    "mediaDuration" : 254,
                    "scalar" : 1,
                    "metadata" : {
                      "WinSubProjectDisplayName" : "",
                      "clipSpeedAttribute" : false,
                      "default-HAlign" : "center",
                      "default-VAlign" : "center",
                      "default-text-attributes" : "[{\"name\":\"fgColor\",\"rangeEnd\":3,\"rangeStart\":0,\"value\":\"(255,255,255,255)\",\"valueType\":\"color\"},{\"name\":\"underline\",\"rangeEnd\":3,\"rangeStart\":0,\"value\":0,\"valueType\":\"int\"},{\"name\":\"fontSize\",\"rangeEnd\":3,\"rangeStart\":0,\"value\":96,\"valueType\":\"double\"},{\"name\":\"fontWeight\",\"rangeEnd\":3,\"rangeStart\":0,\"value\":400,\"valueType\":\"int\"},{\"name\":\"fontName\",\"rangeEnd\":3,\"rangeStart\":0,\"value\":\"Montserrat\",\"valueType\":\"string\"}]",
                      "default-translation0" : 0.0,
                      "default-translation1" : 0.0
                    },
                    "animationTracks" : {

                    }
                  },
                  {
                    "id" : 87,
                    "_type" : "Callout",
                    "def" : {
                      "kind" : "remix",
                      "shape" : "text",
                      "style" : "basic",
                      "height" : 173.307543520242,
                      "width" : 419.100580271127,
                      "word-wrap" : 1.0,
                      "horizontal-alignment" : "center",
                      "text" : "Apple A13 Bionic (7 nm+)",
                      "vertical-alignment" : "center",
                      "font" : {
                        "color-blue" : 1.0,
                        "color-green" : 1.0,
                        "color-red" : 1.0,
                        "size" : 96.0,
                        "tracking" : 0.0,
                        "name" : "Montserrat",
                        "weight" : "Regular"
                      },
                      "textAttributes" : {
                        "type" : "textAttributeList",
                        "keyframes" : [
                          {
                            "time" : 0,
                            "value" : [{"name":"fontWeight","rangeEnd":24,"rangeStart":0,"value":400,"valueType":"int"},{"name":"fontSize","rangeEnd":24,"rangeStart":0,"value":96,"valueType":"double"},{"name":"fontName","rangeEnd":24,"rangeStart":0,"value":"Montserrat","valueType":"string"},{"name":"fontItalic","rangeEnd":24,"rangeStart":0,"value":0,"valueType":"int"},{"name":"fgColor","rangeEnd":24,"rangeStart":0,"value":"(152,56,56,255)","valueType":"color"},{"name":"strikethrough","rangeEnd":24,"rangeStart":0,"value":0,"valueType":"int"},{"name":"underline","rangeEnd":24,"rangeStart":0,"value":0,"valueType":"int"}],
                            "duration" : 0
                          }
                        ]
                      }
                    },
                    "attributes" : {
                      "autoRotateText" : true
                    },
                    "parameters" : {
                      "translation0" : -262.485493229527,
                      "translation1" : 49.3307543520584
                    },
                    "effects" : [
                        {
                          "effectName" : "DropShadow",
                          "category" : "categoryVisualEffects",
                          "parameters" : {
                            "angle" : 5.49778714378214,
                            "blur" : 10.0,
                            "color-alpha" : 1.0,
                            "color-blue" : 0.1216,
                            "color-green" : 0.1216,
                            "color-red" : 0.1216,
                            "enabled" : 1,
                            "offset" : 30.8333333333333,
                            "opacity" : 0.4
                          },
                          "metadata" : {
                            "default-dropshadow-offset" : 10.0
                          }
                        }
                    ],
                    "start" : 3745,
                    "duration" : 277,
                    "mediaStart" : -24,
                    "mediaDuration" : 277,
                    "scalar" : 1,
                    "metadata" : {
                      "WinSubProjectDisplayName" : "",
                      "clipSpeedAttribute" : false,
                      "default-HAlign" : "center",
                      "default-VAlign" : "center",
                      "default-text-attributes" : "[{\"name\":\"fgColor\",\"rangeEnd\":3,\"rangeStart\":0,\"value\":\"(255,255,255,255)\",\"valueType\":\"color\"},{\"name\":\"underline\",\"rangeEnd\":3,\"rangeStart\":0,\"value\":0,\"valueType\":\"int\"},{\"name\":\"fontSize\",\"rangeEnd\":3,\"rangeStart\":0,\"value\":96,\"valueType\":\"double\"},{\"name\":\"fontWeight\",\"rangeEnd\":3,\"rangeStart\":0,\"value\":400,\"valueType\":\"int\"},{\"name\":\"fontName\",\"rangeEnd\":3,\"rangeStart\":0,\"value\":\"Montserrat\",\"valueType\":\"string\"}]",
                      "default-translation0" : 0.0,
                      "default-translation1" : 0.0
                    },
                    "animationTracks" : {

                    }
                  },
                  {
                    "id" : 88,
                    "_type" : "Callout",
                    "def" : {
                      "kind" : "remix",
                      "shape" : "text",
                      "style" : "basic",
                      "height" : 189.216634429352,
                      "width" : 498.646034816483,
                      "word-wrap" : 1.0,
                      "horizontal-alignment" : "center",
                      "text" : "\tHexa-core (2x2.65 GHz Lightning + 4x1.8 GHz Thunder)",
                      "vertical-alignment" : "center",
                      "font" : {
                        "color-blue" : 1.0,
                        "color-green" : 1.0,
                        "color-red" : 1.0,
                        "size" : 96.0,
                        "tracking" : 0.0,
                        "name" : "Montserrat",
                        "weight" : "Regular"
                      },
                      "textAttributes" : {
                        "type" : "textAttributeList",
                        "keyframes" : [
                          {
                            "time" : 0,
                            "value" : [{"name":"fontSize","rangeEnd":53,"rangeStart":0,"value":96,"valueType":"double"},{"name":"fontName","rangeEnd":53,"rangeStart":0,"value":"Montserrat","valueType":"string"},{"name":"fontItalic","rangeEnd":53,"rangeStart":0,"value":0,"valueType":"int"},{"name":"fgColor","rangeEnd":53,"rangeStart":0,"value":"(152,56,56,255)","valueType":"color"},{"name":"underline","rangeEnd":53,"rangeStart":0,"value":0,"valueType":"int"},{"name":"fontWeight","rangeEnd":53,"rangeStart":0,"value":400,"valueType":"int"},{"name":"strikethrough","rangeEnd":53,"rangeStart":0,"value":0,"valueType":"int"}],
                            "duration" : 0
                          }
                        ]
                      }
                    },
                    "attributes" : {
                      "autoRotateText" : true
                    },
                    "parameters" : {
                      "translation0" : -257.076402320563,
                      "translation1" : 57.3307543520584
                    },
                    "effects" : [
                        {
                          "effectName" : "DropShadow",
                          "category" : "categoryVisualEffects",
                          "parameters" : {
                            "angle" : 5.49778714378214,
                            "blur" : 10.0,
                            "color-alpha" : 1.0,
                            "color-blue" : 0.1216,
                            "color-green" : 0.1216,
                            "color-red" : 0.1216,
                            "enabled" : 1,
                            "offset" : 30.8333333333333,
                            "opacity" : 0.4
                          },
                          "metadata" : {
                            "default-dropshadow-offset" : 10.0
                          }
                        }
                    ],
                    "start" : 4082,
                    "duration" : 244,
                    "mediaStart" : -24,
                    "mediaDuration" : 244,
                    "scalar" : 1,
                    "metadata" : {
                      "WinSubProjectDisplayName" : "",
                      "clipSpeedAttribute" : false,
                      "default-HAlign" : "center",
                      "default-VAlign" : "center",
                      "default-text-attributes" : "[{\"name\":\"fgColor\",\"rangeEnd\":3,\"rangeStart\":0,\"value\":\"(255,255,255,255)\",\"valueType\":\"color\"},{\"name\":\"underline\",\"rangeEnd\":3,\"rangeStart\":0,\"value\":0,\"valueType\":\"int\"},{\"name\":\"fontSize\",\"rangeEnd\":3,\"rangeStart\":0,\"value\":96,\"valueType\":\"double\"},{\"name\":\"fontWeight\",\"rangeEnd\":3,\"rangeStart\":0,\"value\":400,\"valueType\":\"int\"},{\"name\":\"fontName\",\"rangeEnd\":3,\"rangeStart\":0,\"value\":\"Montserrat\",\"valueType\":\"string\"}]",
                      "default-translation0" : 0.0,
                      "default-translation1" : 0.0
                    },
                    "animationTracks" : {

                    }
                  },
                  {
                    "id" : 89,
                    "_type" : "Callout",
                    "def" : {
                      "kind" : "remix",
                      "shape" : "text",
                      "style" : "basic",
                      "height" : 121.034816247532,
                      "width" : 350.918762088995,
                      "word-wrap" : 1.0,
                      "horizontal-alignment" : "center",
                      "text" : "Apple GPU (4-core graphics)",
                      "vertical-alignment" : "center",
                      "font" : {
                        "color-blue" : 1.0,
                        "color-green" : 1.0,
                        "color-red" : 1.0,
                        "size" : 96.0,
                        "tracking" : 0.0,
                        "name" : "Montserrat",
                        "weight" : "Regular"
                      },
                      "textAttributes" : {
                        "type" : "textAttributeList",
                        "keyframes" : [
                          {
                            "time" : 0,
                            "value" : [{"name":"fgColor","rangeEnd":27,"rangeStart":0,"value":"(152,56,56,255)","valueType":"color"},{"name":"strikethrough","rangeEnd":27,"rangeStart":0,"value":0,"valueType":"int"},{"name":"fontItalic","rangeEnd":27,"rangeStart":0,"value":0,"valueType":"int"},{"name":"fontSize","rangeEnd":27,"rangeStart":0,"value":96,"valueType":"double"},{"name":"fontWeight","rangeEnd":27,"rangeStart":0,"value":400,"valueType":"int"},{"name":"underline","rangeEnd":27,"rangeStart":0,"value":0,"valueType":"int"},{"name":"fontName","rangeEnd":27,"rangeStart":0,"value":"Montserrat","valueType":"string"}],
                            "duration" : 0
                          }
                        ]
                      }
                    },
                    "attributes" : {
                      "autoRotateText" : true
                    },
                    "parameters" : {
                      "translation0" : -240.167311411485,
                      "translation1" : 57.4216634429635
                    },
                    "effects" : [
                        {
                          "effectName" : "DropShadow",
                          "category" : "categoryVisualEffects",
                          "parameters" : {
                            "angle" : 5.49778714378214,
                            "blur" : 10.0,
                            "color-alpha" : 1.0,
                            "color-blue" : 0.1216,
                            "color-green" : 0.1216,
                            "color-red" : 0.1216,
                            "enabled" : 1,
                            "offset" : 30.8333333333333,
                            "opacity" : 0.4
                          },
                          "metadata" : {
                            "default-dropshadow-offset" : 10.0
                          }
                        }
                    ],
                    "start" : 4381,
                    "duration" : 222,
                    "mediaStart" : -24,
                    "mediaDuration" : 222,
                    "scalar" : 1,
                    "metadata" : {
                      "WinSubProjectDisplayName" : "",
                      "clipSpeedAttribute" : false,
                      "default-HAlign" : "center",
                      "default-VAlign" : "center",
                      "default-text-attributes" : "[{\"name\":\"fgColor\",\"rangeEnd\":3,\"rangeStart\":0,\"value\":\"(255,255,255,255)\",\"valueType\":\"color\"},{\"name\":\"underline\",\"rangeEnd\":3,\"rangeStart\":0,\"value\":0,\"valueType\":\"int\"},{\"name\":\"fontSize\",\"rangeEnd\":3,\"rangeStart\":0,\"value\":96,\"valueType\":\"double\"},{\"name\":\"fontWeight\",\"rangeEnd\":3,\"rangeStart\":0,\"value\":400,\"valueType\":\"int\"},{\"name\":\"fontName\",\"rangeEnd\":3,\"rangeStart\":0,\"value\":\"Montserrat\",\"valueType\":\"string\"}]",
                      "default-translation0" : 0.0,
                      "default-translation1" : 0.0
                    },
                    "animationTracks" : {

                    }
                  },
                  {
                    "id" : 90,
                    "_type" : "Callout",
                    "def" : {
                      "kind" : "remix",
                      "shape" : "text",
                      "style" : "basic",
                      "height" : 173.307543520264,
                      "width" : 412.282398452763,
                      "word-wrap" : 1.0,
                      "horizontal-alignment" : "center",
                      "text" : "64GB 4GB RAM, 256GB 4GB RAM, 512GB 4GB RAM",
                      "vertical-alignment" : "center",
                      "font" : {
                        "color-blue" : 1.0,
                        "color-green" : 1.0,
                        "color-red" : 1.0,
                        "size" : 96.0,
                        "tracking" : 0.0,
                        "name" : "Montserrat",
                        "weight" : "Regular"
                      },
                      "textAttributes" : {
                        "type" : "textAttributeList",
                        "keyframes" : [
                          {
                            "time" : 0,
                            "value" : [{"name":"fontItalic","rangeEnd":42,"rangeStart":0,"value":0,"valueType":"int"},{"name":"fontSize","rangeEnd":42,"rangeStart":0,"value":96,"valueType":"double"},{"name":"fontName","rangeEnd":42,"rangeStart":0,"value":"Montserrat","valueType":"string"},{"name":"strikethrough","rangeEnd":42,"rangeStart":0,"value":0,"valueType":"int"},{"name":"fontWeight","rangeEnd":42,"rangeStart":0,"value":400,"valueType":"int"},{"name":"underline","rangeEnd":42,"rangeStart":0,"value":0,"valueType":"int"},{"name":"fgColor","rangeEnd":42,"rangeStart":0,"value":"(152,56,56,255)","valueType":"color"}],
                            "duration" : 0
                          }
                        ]
                      }
                    },
                    "attributes" : {
                      "autoRotateText" : true
                    },
                    "parameters" : {
                      "translation0" : -227.349129593481,
                      "translation1" : 81.1489361702387
                    },
                    "effects" : [
                        {
                          "effectName" : "DropShadow",
                          "category" : "categoryVisualEffects",
                          "parameters" : {
                            "angle" : 5.49778714378214,
                            "blur" : 10.0,
                            "color-alpha" : 1.0,
                            "color-blue" : 0.1216,
                            "color-green" : 0.1216,
                            "color-red" : 0.1216,
                            "enabled" : 1,
                            "offset" : 30.8333333333333,
                            "opacity" : 0.4
                          },
                          "metadata" : {
                            "default-dropshadow-offset" : 10.0
                          }
                        }
                    ],
                    "start" : 4669,
                    "duration" : 268,
                    "mediaStart" : -34,
                    "mediaDuration" : 268,
                    "scalar" : 1,
                    "metadata" : {
                      "WinSubProjectDisplayName" : "",
                      "clipSpeedAttribute" : false,
                      "default-HAlign" : "center",
                      "default-VAlign" : "center",
                      "default-text-attributes" : "[{\"name\":\"fgColor\",\"rangeEnd\":3,\"rangeStart\":0,\"value\":\"(255,255,255,255)\",\"valueType\":\"color\"},{\"name\":\"underline\",\"rangeEnd\":3,\"rangeStart\":0,\"value\":0,\"valueType\":\"int\"},{\"name\":\"fontSize\",\"rangeEnd\":3,\"rangeStart\":0,\"value\":96,\"valueType\":\"double\"},{\"name\":\"fontWeight\",\"rangeEnd\":3,\"rangeStart\":0,\"value\":400,\"valueType\":\"int\"},{\"name\":\"fontName\",\"rangeEnd\":3,\"rangeStart\":0,\"value\":\"Montserrat\",\"valueType\":\"string\"}]",
                      "default-translation0" : 0.0,
                      "default-translation1" : 0.0
                    },
                    "animationTracks" : {

                    }
                  },
                  {
                    "id" : 91,
                    "_type" : "Callout",
                    "def" : {
                      "kind" : "remix",
                      "shape" : "text",
                      "style" : "basic",
                      "height" : 356.997383092477,
                      "width" : 521.676337846732,
                      "word-wrap" : 1.0,
                      "horizontal-alignment" : "center",
                      "text" : "12 MP, f/1.8, 26mm (wide), 1/2.55\", 1.4µm, dual pixel PDAF, OIS\r12 MP, f/2.0, 52mm (telephoto), 1/3.4\", 1.0µm, PDAF, OIS, 2x optical zoom\r12 MP, f/2.4, 120˚, 13mm (ultrawide), 1/3.6\"",
                      "vertical-alignment" : "center",
                      "font" : {
                        "color-blue" : 1.0,
                        "color-green" : 1.0,
                        "color-red" : 1.0,
                        "size" : 96.0,
                        "tracking" : 0.0,
                        "name" : "Montserrat",
                        "weight" : "Regular"
                      },
                      "textAttributes" : {
                        "type" : "textAttributeList",
                        "keyframes" : [
                          {
                            "time" : 0,
                            "value" : [{"name":"fontItalic","rangeEnd":185,"rangeStart":0,"value":0,"valueType":"int"},{"name":"strikethrough","rangeEnd":185,"rangeStart":0,"value":0,"valueType":"int"},{"name":"fontWeight","rangeEnd":185,"rangeStart":0,"value":400,"valueType":"int"},{"name":"fgColor","rangeEnd":185,"rangeStart":0,"value":"(152,56,56,255)","valueType":"color"},{"name":"fontName","rangeEnd":185,"rangeStart":0,"value":"Montserrat","valueType":"string"},{"name":"underline","rangeEnd":185,"rangeStart":0,"value":0,"valueType":"int"},{"name":"fontSize","rangeEnd":185,"rangeStart":0,"value":96,"valueType":"double"}],
                            "duration" : 0
                          }
                        ]
                      }
                    },
                    "attributes" : {
                      "autoRotateText" : true
                    },
                    "parameters" : {
                      "translation0" : -282.243068987451,
                      "translation1" : 38.9590965980223
                    },
                    "effects" : [
                        {
                          "effectName" : "DropShadow",
                          "category" : "categoryVisualEffects",
                          "parameters" : {
                            "angle" : 5.49778714378214,
                            "blur" : 10.0,
                            "color-alpha" : 1.0,
                            "color-blue" : 0.1216,
                            "color-green" : 0.1216,
                            "color-red" : 0.1216,
                            "enabled" : 1,
                            "offset" : 30.8333333333333,
                            "opacity" : 0.4
                          },
                          "metadata" : {
                            "default-dropshadow-offset" : 10.0
                          }
                        }
                    ],
                    "start" : 4994,
                    "duration" : 305,
                    "mediaStart" : -24,
                    "mediaDuration" : 305,
                    "scalar" : 1,
                    "metadata" : {
                      "WinSubProjectDisplayName" : "",
                      "clipSpeedAttribute" : false,
                      "default-HAlign" : "center",
                      "default-VAlign" : "center",
                      "default-text-attributes" : "[{\"name\":\"fgColor\",\"rangeEnd\":3,\"rangeStart\":0,\"value\":\"(255,255,255,255)\",\"valueType\":\"color\"},{\"name\":\"underline\",\"rangeEnd\":3,\"rangeStart\":0,\"value\":0,\"valueType\":\"int\"},{\"name\":\"fontSize\",\"rangeEnd\":3,\"rangeStart\":0,\"value\":96,\"valueType\":\"double\"},{\"name\":\"fontWeight\",\"rangeEnd\":3,\"rangeStart\":0,\"value\":400,\"valueType\":\"int\"},{\"name\":\"fontName\",\"rangeEnd\":3,\"rangeStart\":0,\"value\":\"Montserrat\",\"valueType\":\"string\"}]",
                      "default-translation0" : 0.0,
                      "default-translation1" : 0.0
                    },
                    "animationTracks" : {

                    }
                  },
                  {
                    "id" : 92,
                    "_type" : "Callout",
                    "def" : {
                      "kind" : "remix",
                      "shape" : "text",
                      "style" : "basic",
                      "height" : 173.307543520264,
                      "width" : 412.282398452763,
                      "word-wrap" : 1.0,
                      "horizontal-alignment" : "center",
                      "text" : "Dual-LED dual-tone flash, HDR (photo/panorama)",
                      "vertical-alignment" : "center",
                      "font" : {
                        "color-blue" : 1.0,
                        "color-green" : 1.0,
                        "color-red" : 1.0,
                        "size" : 96.0,
                        "tracking" : 0.0,
                        "name" : "Montserrat",
                        "weight" : "Regular"
                      },
                      "textAttributes" : {
                        "type" : "textAttributeList",
                        "keyframes" : [
                          {
                            "time" : 0,
                            "value" : [{"name":"fontSize","rangeEnd":46,"rangeStart":0,"value":96,"valueType":"double"},{"name":"fgColor","rangeEnd":46,"rangeStart":0,"value":"(152,56,56,255)","valueType":"color"},{"name":"strikethrough","rangeEnd":46,"rangeStart":0,"value":0,"valueType":"int"},{"name":"underline","rangeEnd":46,"rangeStart":0,"value":0,"valueType":"int"},{"name":"fontName","rangeEnd":46,"rangeStart":0,"value":"Montserrat","valueType":"string"},{"name":"fontWeight","rangeEnd":46,"rangeStart":0,"value":400,"valueType":"int"},{"name":"fontItalic","rangeEnd":46,"rangeStart":0,"value":0,"valueType":"int"}],
                            "duration" : 0
                          }
                        ]
                      }
                    },
                    "attributes" : {
                      "autoRotateText" : true
                    },
                    "parameters" : {
                      "translation0" : -227.349129593481,
                      "translation1" : 81.1489361702387
                    },
                    "effects" : [
                        {
                          "effectName" : "DropShadow",
                          "category" : "categoryVisualEffects",
                          "parameters" : {
                            "angle" : 5.49778714378214,
                            "blur" : 10.0,
                            "color-alpha" : 1.0,
                            "color-blue" : 0.1216,
                            "color-green" : 0.1216,
                            "color-red" : 0.1216,
                            "enabled" : 1,
                            "offset" : 30.8333333333333,
                            "opacity" : 0.4
                          },
                          "metadata" : {
                            "default-dropshadow-offset" : 10.0
                          }
                        }
                    ],
                    "start" : 5341,
                    "duration" : 274,
                    "mediaStart" : -24,
                    "mediaDuration" : 274,
                    "scalar" : 1,
                    "metadata" : {
                      "WinSubProjectDisplayName" : "",
                      "clipSpeedAttribute" : false,
                      "default-HAlign" : "center",
                      "default-VAlign" : "center",
                      "default-text-attributes" : "[{\"name\":\"fgColor\",\"rangeEnd\":3,\"rangeStart\":0,\"value\":\"(255,255,255,255)\",\"valueType\":\"color\"},{\"name\":\"underline\",\"rangeEnd\":3,\"rangeStart\":0,\"value\":0,\"valueType\":\"int\"},{\"name\":\"fontSize\",\"rangeEnd\":3,\"rangeStart\":0,\"value\":96,\"valueType\":\"double\"},{\"name\":\"fontWeight\",\"rangeEnd\":3,\"rangeStart\":0,\"value\":400,\"valueType\":\"int\"},{\"name\":\"fontName\",\"rangeEnd\":3,\"rangeStart\":0,\"value\":\"Montserrat\",\"valueType\":\"string\"}]",
                      "default-translation0" : 0.0,
                      "default-translation1" : 0.0
                    },
                    "animationTracks" : {

                    }
                  },
                  {
                    "id" : 93,
                    "_type" : "Callout",
                    "def" : {
                      "kind" : "remix",
                      "shape" : "text",
                      "style" : "basic",
                      "height" : 227.593257805921,
                      "width" : 504.803406856206,
                      "word-wrap" : 1.0,
                      "horizontal-alignment" : "center",
                      "text" : "4K@24/30/60fps, 1080p@30/60/120/240fps, HDR, stereo sound rec.",
                      "vertical-alignment" : "center",
                      "font" : {
                        "color-blue" : 1.0,
                        "color-green" : 1.0,
                        "color-red" : 1.0,
                        "size" : 96.0,
                        "tracking" : 0.0,
                        "name" : "Montserrat",
                        "weight" : "Regular"
                      },
                      "textAttributes" : {
                        "type" : "textAttributeList",
                        "keyframes" : [
                          {
                            "time" : 0,
                            "value" : [{"name":"underline","rangeEnd":62,"rangeStart":0,"value":0,"valueType":"int"},{"name":"fontName","rangeEnd":62,"rangeStart":0,"value":"Montserrat","valueType":"string"},{"name":"fontSize","rangeEnd":62,"rangeStart":0,"value":96,"valueType":"double"},{"name":"strikethrough","rangeEnd":62,"rangeStart":0,"value":0,"valueType":"int"},{"name":"fontItalic","rangeEnd":62,"rangeStart":0,"value":0,"valueType":"int"},{"name":"fontWeight","rangeEnd":62,"rangeStart":0,"value":400,"valueType":"int"},{"name":"fgColor","rangeEnd":62,"rangeStart":0,"value":"(152,56,56,255)","valueType":"color"}],
                            "duration" : 0
                          }
                        ]
                      }
                    },
                    "attributes" : {
                      "autoRotateText" : true
                    },
                    "parameters" : {
                      "translation0" : -273.870137996924,
                      "translation1" : 108.148936170239
                    },
                    "effects" : [
                        {
                          "effectName" : "DropShadow",
                          "category" : "categoryVisualEffects",
                          "parameters" : {
                            "angle" : 5.49778714378214,
                            "blur" : 10.0,
                            "color-alpha" : 1.0,
                            "color-blue" : 0.1216,
                            "color-green" : 0.1216,
                            "color-red" : 0.1216,
                            "enabled" : 1,
                            "offset" : 30.8333333333333,
                            "opacity" : 0.4
                          },
                          "metadata" : {
                            "default-dropshadow-offset" : 10.0
                          }
                        }
                    ],
                    "start" : 5651,
                    "duration" : 294,
                    "mediaStart" : -24,
                    "mediaDuration" : 294,
                    "scalar" : 1,
                    "metadata" : {
                      "WinSubProjectDisplayName" : "",
                      "clipSpeedAttribute" : false,
                      "default-HAlign" : "center",
                      "default-VAlign" : "center",
                      "default-text-attributes" : "[{\"name\":\"fgColor\",\"rangeEnd\":3,\"rangeStart\":0,\"value\":\"(255,255,255,255)\",\"valueType\":\"color\"},{\"name\":\"underline\",\"rangeEnd\":3,\"rangeStart\":0,\"value\":0,\"valueType\":\"int\"},{\"name\":\"fontSize\",\"rangeEnd\":3,\"rangeStart\":0,\"value\":96,\"valueType\":\"double\"},{\"name\":\"fontWeight\",\"rangeEnd\":3,\"rangeStart\":0,\"value\":400,\"valueType\":\"int\"},{\"name\":\"fontName\",\"rangeEnd\":3,\"rangeStart\":0,\"value\":\"Montserrat\",\"valueType\":\"string\"}]",
                      "default-translation0" : 0.0,
                      "default-translation1" : 0.0
                    },
                    "animationTracks" : {

                    }
                  },
                  {
                    "id" : 94,
                    "_type" : "Callout",
                    "def" : {
                      "kind" : "remix",
                      "shape" : "text",
                      "style" : "basic",
                      "height" : 193.895778814366,
                      "width" : 497.576516099731,
                      "word-wrap" : 1.0,
                      "horizontal-alignment" : "center",
                      "text" : "12 MP, f/2.2, 23mm (wide), 1/3.6\"\rSL 3D, (depth/biometrics sensor)",
                      "vertical-alignment" : "center",
                      "font" : {
                        "color-blue" : 1.0,
                        "color-green" : 1.0,
                        "color-red" : 1.0,
                        "size" : 96.0,
                        "tracking" : 0.0,
                        "name" : "Montserrat",
                        "weight" : "Regular"
                      },
                      "textAttributes" : {
                        "type" : "textAttributeList",
                        "keyframes" : [
                          {
                            "time" : 0,
                            "value" : [{"name":"fontSize","rangeEnd":66,"rangeStart":0,"value":96,"valueType":"double"},{"name":"fgColor","rangeEnd":66,"rangeStart":0,"value":"(152,56,56,255)","valueType":"color"},{"name":"fontItalic","rangeEnd":66,"rangeStart":0,"value":0,"valueType":"int"},{"name":"strikethrough","rangeEnd":66,"rangeStart":0,"value":0,"valueType":"int"},{"name":"fontWeight","rangeEnd":66,"rangeStart":0,"value":400,"valueType":"int"},{"name":"underline","rangeEnd":66,"rangeStart":0,"value":0,"valueType":"int"},{"name":"fontName","rangeEnd":66,"rangeStart":0,"value":"Montserrat","valueType":"string"}],
                            "duration" : 0
                          }
                        ]
                      }
                    },
                    "attributes" : {
                      "autoRotateText" : true
                    },
                    "parameters" : {
                      "translation0" : -258.378541358181,
                      "translation1" : 70.5607008761363
                    },
                    "effects" : [
                        {
                          "effectName" : "DropShadow",
                          "category" : "categoryVisualEffects",
                          "parameters" : {
                            "angle" : 5.49778714378214,
                            "blur" : 10.0,
                            "color-alpha" : 1.0,
                            "color-blue" : 0.1216,
                            "color-green" : 0.1216,
                            "color-red" : 0.1216,
                            "enabled" : 1,
                            "offset" : 30.8333333333333,
                            "opacity" : 0.4
                          },
                          "metadata" : {
                            "default-dropshadow-offset" : 10.0
                          }
                        }
                    ],
                    "start" : 5998,
                    "duration" : 273,
                    "mediaStart" : -24,
                    "mediaDuration" : 273,
                    "scalar" : 1,
                    "metadata" : {
                      "WinSubProjectDisplayName" : "",
                      "clipSpeedAttribute" : false,
                      "default-HAlign" : "center",
                      "default-VAlign" : "center",
                      "default-text-attributes" : "[{\"name\":\"fgColor\",\"rangeEnd\":3,\"rangeStart\":0,\"value\":\"(255,255,255,255)\",\"valueType\":\"color\"},{\"name\":\"underline\",\"rangeEnd\":3,\"rangeStart\":0,\"value\":0,\"valueType\":\"int\"},{\"name\":\"fontSize\",\"rangeEnd\":3,\"rangeStart\":0,\"value\":96,\"valueType\":\"double\"},{\"name\":\"fontWeight\",\"rangeEnd\":3,\"rangeStart\":0,\"value\":400,\"valueType\":\"int\"},{\"name\":\"fontName\",\"rangeEnd\":3,\"rangeStart\":0,\"value\":\"Montserrat\",\"valueType\":\"string\"}]",
                      "default-translation0" : 0.0,
                      "default-translation1" : 0.0
                    },
                    "animationTracks" : {

                    }
                  },
                  {
                    "id" : 95,
                    "_type" : "Callout",
                    "def" : {
                      "kind" : "remix",
                      "shape" : "text",
                      "style" : "basic",
                      "height" : 173.307543520264,
                      "width" : 412.282398452763,
                      "word-wrap" : 1.0,
                      "horizontal-alignment" : "center",
                      "text" : "HDR",
                      "vertical-alignment" : "center",
                      "font" : {
                        "color-blue" : 1.0,
                        "color-green" : 1.0,
                        "color-red" : 1.0,
                        "size" : 96.0,
                        "tracking" : 0.0,
                        "name" : "Montserrat",
                        "weight" : "Regular"
                      },
                      "textAttributes" : {
                        "type" : "textAttributeList",
                        "keyframes" : [
                          {
                            "time" : 0,
                            "value" : [{"name":"fontItalic","rangeEnd":3,"rangeStart":0,"value":0,"valueType":"int"},{"name":"strikethrough","rangeEnd":3,"rangeStart":0,"value":0,"valueType":"int"},{"name":"fontSize","rangeEnd":3,"rangeStart":0,"value":96,"valueType":"double"},{"name":"fgColor","rangeEnd":3,"rangeStart":0,"value":"(152,56,56,255)","valueType":"color"},{"name":"underline","rangeEnd":3,"rangeStart":0,"value":0,"valueType":"int"},{"name":"fontName","rangeEnd":3,"rangeStart":0,"value":"Montserrat","valueType":"string"},{"name":"fontWeight","rangeEnd":3,"rangeStart":0,"value":400,"valueType":"int"}],
                            "duration" : 0
                          }
                        ]
                      }
                    },
                    "attributes" : {
                      "autoRotateText" : true
                    },
                    "parameters" : {
                      "translation0" : -227.349129593481,
                      "translation1" : 81.1489361702387
                    },
                    "effects" : [
                        {
                          "effectName" : "DropShadow",
                          "category" : "categoryVisualEffects",
                          "parameters" : {
                            "angle" : 5.49778714378214,
                            "blur" : 10.0,
                            "color-alpha" : 1.0,
                            "color-blue" : 0.1216,
                            "color-green" : 0.1216,
                            "color-red" : 0.1216,
                            "enabled" : 1,
                            "offset" : 30.8333333333333,
                            "opacity" : 0.4
                          },
                          "metadata" : {
                            "default-dropshadow-offset" : 10.0
                          }
                        }
                    ],
                    "start" : 6317,
                    "duration" : 233,
                    "mediaStart" : -24,
                    "mediaDuration" : 233,
                    "scalar" : 1,
                    "metadata" : {
                      "WinSubProjectDisplayName" : "",
                      "clipSpeedAttribute" : false,
                      "default-HAlign" : "center",
                      "default-VAlign" : "center",
                      "default-text-attributes" : "[{\"name\":\"fgColor\",\"rangeEnd\":3,\"rangeStart\":0,\"value\":\"(255,255,255,255)\",\"valueType\":\"color\"},{\"name\":\"underline\",\"rangeEnd\":3,\"rangeStart\":0,\"value\":0,\"valueType\":\"int\"},{\"name\":\"fontSize\",\"rangeEnd\":3,\"rangeStart\":0,\"value\":96,\"valueType\":\"double\"},{\"name\":\"fontWeight\",\"rangeEnd\":3,\"rangeStart\":0,\"value\":400,\"valueType\":\"int\"},{\"name\":\"fontName\",\"rangeEnd\":3,\"rangeStart\":0,\"value\":\"Montserrat\",\"valueType\":\"string\"}]",
                      "default-translation0" : 0.0,
                      "default-translation1" : 0.0
                    },
                    "animationTracks" : {

                    }
                  },
                  {
                    "id" : 96,
                    "_type" : "Callout",
                    "def" : {
                      "kind" : "remix",
                      "shape" : "text",
                      "style" : "basic",
                      "height" : 227.593257805921,
                      "width" : 466.568112738453,
                      "word-wrap" : 1.0,
                      "horizontal-alignment" : "center",
                      "text" : "4K@24/25/30/60fps, 1080p@30/60/120fps, gyro-EIS",
                      "vertical-alignment" : "center",
                      "font" : {
                        "color-blue" : 1.0,
                        "color-green" : 1.0,
                        "color-red" : 1.0,
                        "size" : 96.0,
                        "tracking" : 0.0,
                        "name" : "Montserrat",
                        "weight" : "Regular"
                      },
                      "textAttributes" : {
                        "type" : "textAttributeList",
                        "keyframes" : [
                          {
                            "time" : 0,
                            "value" : [{"name":"underline","rangeEnd":47,"rangeStart":0,"value":0,"valueType":"int"},{"name":"strikethrough","rangeEnd":47,"rangeStart":0,"value":0,"valueType":"int"},{"name":"fgColor","rangeEnd":47,"rangeStart":0,"value":"(152,56,56,255)","valueType":"color"},{"name":"fontSize","rangeEnd":47,"rangeStart":0,"value":96,"valueType":"double"},{"name":"fontWeight","rangeEnd":47,"rangeStart":0,"value":400,"valueType":"int"},{"name":"fontName","rangeEnd":47,"rangeStart":0,"value":"Montserrat","valueType":"string"},{"name":"fontItalic","rangeEnd":47,"rangeStart":0,"value":0,"valueType":"int"}],
                            "duration" : 0
                          }
                        ]
                      }
                    },
                    "attributes" : {
                      "autoRotateText" : true
                    },
                    "parameters" : {
                      "translation0" : -254.634843879171,
                      "translation1" : 108.148936170239
                    },
                    "effects" : [
                        {
                          "effectName" : "DropShadow",
                          "category" : "categoryVisualEffects",
                          "parameters" : {
                            "angle" : 5.49778714378214,
                            "blur" : 10.0,
                            "color-alpha" : 1.0,
                            "color-blue" : 0.1216,
                            "color-green" : 0.1216,
                            "color-red" : 0.1216,
                            "enabled" : 1,
                            "offset" : 30.8333333333333,
                            "opacity" : 0.4
                          },
                          "metadata" : {
                            "default-dropshadow-offset" : 10.0
                          }
                        }
                    ],
                    "start" : 6582,
                    "duration" : 294,
                    "mediaStart" : -24,
                    "mediaDuration" : 294,
                    "scalar" : 1,
                    "metadata" : {
                      "WinSubProjectDisplayName" : "",
                      "clipSpeedAttribute" : false,
                      "default-HAlign" : "center",
                      "default-VAlign" : "center",
                      "default-text-attributes" : "[{\"name\":\"fgColor\",\"rangeEnd\":3,\"rangeStart\":0,\"value\":\"(255,255,255,255)\",\"valueType\":\"color\"},{\"name\":\"underline\",\"rangeEnd\":3,\"rangeStart\":0,\"value\":0,\"valueType\":\"int\"},{\"name\":\"fontSize\",\"rangeEnd\":3,\"rangeStart\":0,\"value\":96,\"valueType\":\"double\"},{\"name\":\"fontWeight\",\"rangeEnd\":3,\"rangeStart\":0,\"value\":400,\"valueType\":\"int\"},{\"name\":\"fontName\",\"rangeEnd\":3,\"rangeStart\":0,\"value\":\"Montserrat\",\"valueType\":\"string\"}]",
                      "default-translation0" : 0.0,
                      "default-translation1" : 0.0
                    },
                    "animationTracks" : {

                    }
                  },
                  {
                    "id" : 97,
                    "_type" : "Callout",
                    "def" : {
                      "kind" : "remix",
                      "shape" : "text",
                      "style" : "basic",
                      "height" : 227.593257805921,
                      "width" : 466.568112738453,
                      "word-wrap" : 1.0,
                      "horizontal-alignment" : "center",
                      "text" : "Yes",
                      "vertical-alignment" : "center",
                      "font" : {
                        "color-blue" : 1.0,
                        "color-green" : 1.0,
                        "color-red" : 1.0,
                        "size" : 96.0,
                        "tracking" : 0.0,
                        "name" : "Montserrat",
                        "weight" : "Regular"
                      },
                      "textAttributes" : {
                        "type" : "textAttributeList",
                        "keyframes" : [
                          {
                            "time" : 0,
                            "value" : [{"name":"fontItalic","rangeEnd":3,"rangeStart":0,"value":0,"valueType":"int"},{"name":"fontName","rangeEnd":3,"rangeStart":0,"value":"Montserrat","valueType":"string"},{"name":"underline","rangeEnd":3,"rangeStart":0,"value":0,"valueType":"int"},{"name":"fontSize","rangeEnd":3,"rangeStart":0,"value":96,"valueType":"double"},{"name":"strikethrough","rangeEnd":3,"rangeStart":0,"value":0,"valueType":"int"},{"name":"fgColor","rangeEnd":3,"rangeStart":0,"value":"(152,56,56,255)","valueType":"color"},{"name":"fontWeight","rangeEnd":3,"rangeStart":0,"value":400,"valueType":"int"}],
                            "duration" : 0
                          }
                        ]
                      }
                    },
                    "attributes" : {
                      "autoRotateText" : true
                    },
                    "parameters" : {
                      "translation0" : -254.634843879171,
                      "translation1" : 108.148936170239
                    },
                    "effects" : [
                        {
                          "effectName" : "DropShadow",
                          "category" : "categoryVisualEffects",
                          "parameters" : {
                            "angle" : 5.49778714378214,
                            "blur" : 10.0,
                            "color-alpha" : 1.0,
                            "color-blue" : 0.1216,
                            "color-green" : 0.1216,
                            "color-red" : 0.1216,
                            "enabled" : 1,
                            "offset" : 30.8333333333333,
                            "opacity" : 0.4
                          },
                          "metadata" : {
                            "default-dropshadow-offset" : 10.0
                          }
                        }
                    ],
                    "start" : 6937,
                    "duration" : 224,
                    "mediaStart" : -24,
                    "mediaDuration" : 224,
                    "scalar" : 1,
                    "metadata" : {
                      "WinSubProjectDisplayName" : "",
                      "clipSpeedAttribute" : false,
                      "default-HAlign" : "center",
                      "default-VAlign" : "center",
                      "default-text-attributes" : "[{\"name\":\"fgColor\",\"rangeEnd\":3,\"rangeStart\":0,\"value\":\"(255,255,255,255)\",\"valueType\":\"color\"},{\"name\":\"underline\",\"rangeEnd\":3,\"rangeStart\":0,\"value\":0,\"valueType\":\"int\"},{\"name\":\"fontSize\",\"rangeEnd\":3,\"rangeStart\":0,\"value\":96,\"valueType\":\"double\"},{\"name\":\"fontWeight\",\"rangeEnd\":3,\"rangeStart\":0,\"value\":400,\"valueType\":\"int\"},{\"name\":\"fontName\",\"rangeEnd\":3,\"rangeStart\":0,\"value\":\"Montserrat\",\"valueType\":\"string\"}]",
                      "default-translation0" : 0.0,
                      "default-translation1" : 0.0
                    },
                    "animationTracks" : {

                    }
                  },
                  {
                    "id" : 98,
                    "_type" : "Callout",
                    "def" : {
                      "kind" : "remix",
                      "shape" : "text",
                      "style" : "basic",
                      "height" : 227.593257805921,
                      "width" : 466.568112738453,
                      "word-wrap" : 1.0,
                      "horizontal-alignment" : "center",
                      "text" : "NO",
                      "vertical-alignment" : "center",
                      "font" : {
                        "color-blue" : 1.0,
                        "color-green" : 1.0,
                        "color-red" : 1.0,
                        "size" : 96.0,
                        "tracking" : 0.0,
                        "name" : "Montserrat",
                        "weight" : "Regular"
                      },
                      "textAttributes" : {
                        "type" : "textAttributeList",
                        "keyframes" : [
                          {
                            "time" : 0,
                            "value" : [{"name":"fontWeight","rangeEnd":2,"rangeStart":0,"value":400,"valueType":"int"},{"name":"fgColor","rangeEnd":2,"rangeStart":0,"value":"(152,56,56,255)","valueType":"color"},{"name":"underline","rangeEnd":2,"rangeStart":0,"value":0,"valueType":"int"},{"name":"strikethrough","rangeEnd":2,"rangeStart":0,"value":0,"valueType":"int"},{"name":"fontItalic","rangeEnd":2,"rangeStart":0,"value":0,"valueType":"int"},{"name":"fontSize","rangeEnd":2,"rangeStart":0,"value":96,"valueType":"double"},{"name":"fontName","rangeEnd":2,"rangeStart":0,"value":"Montserrat","valueType":"string"}],
                            "duration" : 0
                          }
                        ]
                      }
                    },
                    "attributes" : {
                      "autoRotateText" : true
                    },
                    "parameters" : {
                      "translation0" : -254.634843879171,
                      "translation1" : 108.148936170239
                    },
                    "effects" : [
                        {
                          "effectName" : "DropShadow",
                          "category" : "categoryVisualEffects",
                          "parameters" : {
                            "angle" : 5.49778714378214,
                            "blur" : 10.0,
                            "color-alpha" : 1.0,
                            "color-blue" : 0.1216,
                            "color-green" : 0.1216,
                            "color-red" : 0.1216,
                            "enabled" : 1,
                            "offset" : 30.8333333333333,
                            "opacity" : 0.4
                          },
                          "metadata" : {
                            "default-dropshadow-offset" : 10.0
                          }
                        }
                    ],
                    "start" : 7189,
                    "duration" : 244,
                    "mediaStart" : -24,
                    "mediaDuration" : 244,
                    "scalar" : 1,
                    "metadata" : {
                      "WinSubProjectDisplayName" : "",
                      "clipSpeedAttribute" : false,
                      "default-HAlign" : "center",
                      "default-VAlign" : "center",
                      "default-text-attributes" : "[{\"name\":\"fgColor\",\"rangeEnd\":3,\"rangeStart\":0,\"value\":\"(255,255,255,255)\",\"valueType\":\"color\"},{\"name\":\"underline\",\"rangeEnd\":3,\"rangeStart\":0,\"value\":0,\"valueType\":\"int\"},{\"name\":\"fontSize\",\"rangeEnd\":3,\"rangeStart\":0,\"value\":96,\"valueType\":\"double\"},{\"name\":\"fontWeight\",\"rangeEnd\":3,\"rangeStart\":0,\"value\":400,\"valueType\":\"int\"},{\"name\":\"fontName\",\"rangeEnd\":3,\"rangeStart\":0,\"value\":\"Montserrat\",\"valueType\":\"string\"}]",
                      "default-translation0" : 0.0,
                      "default-translation1" : 0.0
                    },
                    "animationTracks" : {

                    }
                  },
                  {
                    "id" : 99,
                    "_type" : "Callout",
                    "def" : {
                      "kind" : "remix",
                      "shape" : "text",
                      "style" : "basic",
                      "height" : 227.593257805921,
                      "width" : 466.568112738453,
                      "word-wrap" : 1.0,
                      "horizontal-alignment" : "center",
                      "text" : "\tWi-Fi 802.11 a/b/g/n/ac/6, dual-band, hotspot",
                      "vertical-alignment" : "center",
                      "font" : {
                        "color-blue" : 1.0,
                        "color-green" : 1.0,
                        "color-red" : 1.0,
                        "size" : 96.0,
                        "tracking" : 0.0,
                        "name" : "Montserrat",
                        "weight" : "Regular"
                      },
                      "textAttributes" : {
                        "type" : "textAttributeList",
                        "keyframes" : [
                          {
                            "time" : 0,
                            "value" : [{"name":"fgColor","rangeEnd":46,"rangeStart":0,"value":"(152,56,56,255)","valueType":"color"},{"name":"fontWeight","rangeEnd":46,"rangeStart":0,"value":400,"valueType":"int"},{"name":"fontItalic","rangeEnd":46,"rangeStart":0,"value":0,"valueType":"int"},{"name":"strikethrough","rangeEnd":46,"rangeStart":0,"value":0,"valueType":"int"},{"name":"underline","rangeEnd":46,"rangeStart":0,"value":0,"valueType":"int"},{"name":"fontName","rangeEnd":46,"rangeStart":0,"value":"Montserrat","valueType":"string"},{"name":"fontSize","rangeEnd":46,"rangeStart":0,"value":96,"valueType":"double"}],
                            "duration" : 0
                          }
                        ]
                      }
                    },
                    "attributes" : {
                      "autoRotateText" : true
                    },
                    "parameters" : {
                      "translation0" : -254.634843879171,
                      "translation1" : 108.148936170239
                    },
                    "effects" : [
                        {
                          "effectName" : "DropShadow",
                          "category" : "categoryVisualEffects",
                          "parameters" : {
                            "angle" : 5.49778714378214,
                            "blur" : 10.0,
                            "color-alpha" : 1.0,
                            "color-blue" : 0.1216,
                            "color-green" : 0.1216,
                            "color-red" : 0.1216,
                            "enabled" : 1,
                            "offset" : 30.8333333333333,
                            "opacity" : 0.4
                          },
                          "metadata" : {
                            "default-dropshadow-offset" : 10.0
                          }
                        }
                    ],
                    "start" : 7488,
                    "duration" : 292,
                    "mediaStart" : -24,
                    "mediaDuration" : 292,
                    "scalar" : 1,
                    "metadata" : {
                      "WinSubProjectDisplayName" : "",
                      "clipSpeedAttribute" : false,
                      "default-HAlign" : "center",
                      "default-VAlign" : "center",
                      "default-text-attributes" : "[{\"name\":\"fgColor\",\"rangeEnd\":3,\"rangeStart\":0,\"value\":\"(255,255,255,255)\",\"valueType\":\"color\"},{\"name\":\"underline\",\"rangeEnd\":3,\"rangeStart\":0,\"value\":0,\"valueType\":\"int\"},{\"name\":\"fontSize\",\"rangeEnd\":3,\"rangeStart\":0,\"value\":96,\"valueType\":\"double\"},{\"name\":\"fontWeight\",\"rangeEnd\":3,\"rangeStart\":0,\"value\":400,\"valueType\":\"int\"},{\"name\":\"fontName\",\"rangeEnd\":3,\"rangeStart\":0,\"value\":\"Montserrat\",\"valueType\":\"string\"}]",
                      "default-translation0" : 0.0,
                      "default-translation1" : 0.0
                    },
                    "animationTracks" : {

                    }
                  },
                  {
                    "id" : 100,
                    "_type" : "Callout",
                    "def" : {
                      "kind" : "remix",
                      "shape" : "text",
                      "style" : "basic",
                      "height" : 136.164686377335,
                      "width" : 412.282398452753,
                      "word-wrap" : 1.0,
                      "horizontal-alignment" : "center",
                      "text" : "5.0, A2DP, LE",
                      "vertical-alignment" : "center",
                      "font" : {
                        "color-blue" : 1.0,
                        "color-green" : 1.0,
                        "color-red" : 1.0,
                        "size" : 96.0,
                        "tracking" : 0.0,
                        "name" : "Montserrat",
                        "weight" : "Regular"
                      },
                      "textAttributes" : {
                        "type" : "textAttributeList",
                        "keyframes" : [
                          {
                            "time" : 0,
                            "value" : [{"name":"underline","rangeEnd":13,"rangeStart":0,"value":0,"valueType":"int"},{"name":"fontWeight","rangeEnd":13,"rangeStart":0,"value":400,"valueType":"int"},{"name":"fgColor","rangeEnd":13,"rangeStart":0,"value":"(152,56,56,255)","valueType":"color"},{"name":"fontName","rangeEnd":13,"rangeStart":0,"value":"Montserrat","valueType":"string"},{"name":"fontItalic","rangeEnd":13,"rangeStart":0,"value":0,"valueType":"int"},{"name":"fontSize","rangeEnd":13,"rangeStart":0,"value":96,"valueType":"double"},{"name":"strikethrough","rangeEnd":13,"rangeStart":0,"value":0,"valueType":"int"}],
                            "duration" : 0
                          }
                        ]
                      }
                    },
                    "attributes" : {
                      "autoRotateText" : true
                    },
                    "parameters" : {
                      "translation0" : -281.634843879171,
                      "translation1" : 62.648936170239
                    },
                    "effects" : [
                        {
                          "effectName" : "DropShadow",
                          "category" : "categoryVisualEffects",
                          "parameters" : {
                            "angle" : 5.49778714378214,
                            "blur" : 10.0,
                            "color-alpha" : 1.0,
                            "color-blue" : 0.1216,
                            "color-green" : 0.1216,
                            "color-red" : 0.1216,
                            "enabled" : 1,
                            "offset" : 30.8333333333333,
                            "opacity" : 0.4
                          },
                          "metadata" : {
                            "default-dropshadow-offset" : 10.0
                          }
                        }
                    ],
                    "start" : 7821,
                    "duration" : 296,
                    "mediaStart" : -24,
                    "mediaDuration" : 296,
                    "scalar" : 1,
                    "metadata" : {
                      "WinSubProjectDisplayName" : "",
                      "clipSpeedAttribute" : false,
                      "default-HAlign" : "center",
                      "default-VAlign" : "center",
                      "default-text-attributes" : "[{\"name\":\"fgColor\",\"rangeEnd\":3,\"rangeStart\":0,\"value\":\"(255,255,255,255)\",\"valueType\":\"color\"},{\"name\":\"underline\",\"rangeEnd\":3,\"rangeStart\":0,\"value\":0,\"valueType\":\"int\"},{\"name\":\"fontSize\",\"rangeEnd\":3,\"rangeStart\":0,\"value\":96,\"valueType\":\"double\"},{\"name\":\"fontWeight\",\"rangeEnd\":3,\"rangeStart\":0,\"value\":400,\"valueType\":\"int\"},{\"name\":\"fontName\",\"rangeEnd\":3,\"rangeStart\":0,\"value\":\"Montserrat\",\"valueType\":\"string\"}]",
                      "default-translation0" : 0.0,
                      "default-translation1" : 0.0
                    },
                    "animationTracks" : {

                    }
                  },
                  {
                    "id" : 101,
                    "_type" : "Callout",
                    "def" : {
                      "kind" : "remix",
                      "shape" : "text",
                      "style" : "basic",
                      "height" : 136.164686377335,
                      "width" : 412.282398452753,
                      "word-wrap" : 1.0,
                      "horizontal-alignment" : "center",
                      "text" : "Yes, with A-GPS, GLONASS, GALILEO, QZSS",
                      "vertical-alignment" : "center",
                      "font" : {
                        "color-blue" : 1.0,
                        "color-green" : 1.0,
                        "color-red" : 1.0,
                        "size" : 96.0,
                        "tracking" : 0.0,
                        "name" : "Montserrat",
                        "weight" : "Regular"
                      },
                      "textAttributes" : {
                        "type" : "textAttributeList",
                        "keyframes" : [
                          {
                            "time" : 0,
                            "value" : [{"name":"fontItalic","rangeEnd":39,"rangeStart":0,"value":0,"valueType":"int"},{"name":"fontName","rangeEnd":39,"rangeStart":0,"value":"Montserrat","valueType":"string"},{"name":"fontSize","rangeEnd":39,"rangeStart":0,"value":96,"valueType":"double"},{"name":"fontWeight","rangeEnd":39,"rangeStart":0,"value":400,"valueType":"int"},{"name":"strikethrough","rangeEnd":39,"rangeStart":0,"value":0,"valueType":"int"},{"name":"underline","rangeEnd":39,"rangeStart":0,"value":0,"valueType":"int"},{"name":"fgColor","rangeEnd":39,"rangeStart":0,"value":"(152,56,56,255)","valueType":"color"}],
                            "duration" : 0
                          }
                        ]
                      }
                    },
                    "attributes" : {
                      "autoRotateText" : true
                    },
                    "parameters" : {
                      "translation0" : -281.634843879171,
                      "translation1" : 62.648936170239
                    },
                    "effects" : [
                        {
                          "effectName" : "DropShadow",
                          "category" : "categoryVisualEffects",
                          "parameters" : {
                            "angle" : 5.49778714378214,
                            "blur" : 10.0,
                            "color-alpha" : 1.0,
                            "color-blue" : 0.1216,
                            "color-green" : 0.1216,
                            "color-red" : 0.1216,
                            "enabled" : 1,
                            "offset" : 30.8333333333333,
                            "opacity" : 0.4
                          },
                          "metadata" : {
                            "default-dropshadow-offset" : 10.0
                          }
                        }
                    ],
                    "start" : 8167,
                    "duration" : 277,
                    "mediaStart" : 5,
                    "mediaDuration" : 277,
                    "scalar" : 1,
                    "metadata" : {
                      "WinSubProjectDisplayName" : "",
                      "clipSpeedAttribute" : false,
                      "default-HAlign" : "center",
                      "default-VAlign" : "center",
                      "default-text-attributes" : "[{\"name\":\"fgColor\",\"rangeEnd\":3,\"rangeStart\":0,\"value\":\"(255,255,255,255)\",\"valueType\":\"color\"},{\"name\":\"underline\",\"rangeEnd\":3,\"rangeStart\":0,\"value\":0,\"valueType\":\"int\"},{\"name\":\"fontSize\",\"rangeEnd\":3,\"rangeStart\":0,\"value\":96,\"valueType\":\"double\"},{\"name\":\"fontWeight\",\"rangeEnd\":3,\"rangeStart\":0,\"value\":400,\"valueType\":\"int\"},{\"name\":\"fontName\",\"rangeEnd\":3,\"rangeStart\":0,\"value\":\"Montserrat\",\"valueType\":\"string\"}]",
                      "default-translation0" : 0.0,
                      "default-translation1" : 0.0
                    },
                    "animationTracks" : {

                    }
                  },
                  {
                    "id" : 102,
                    "_type" : "Callout",
                    "def" : {
                      "kind" : "remix",
                      "shape" : "text",
                      "style" : "basic",
                      "height" : 136.164686377335,
                      "width" : 412.282398452753,
                      "word-wrap" : 1.0,
                      "horizontal-alignment" : "center",
                      "text" : "No",
                      "vertical-alignment" : "center",
                      "font" : {
                        "color-blue" : 1.0,
                        "color-green" : 1.0,
                        "color-red" : 1.0,
                        "size" : 96.0,
                        "tracking" : 0.0,
                        "name" : "Montserrat",
                        "weight" : "Regular"
                      },
                      "textAttributes" : {
                        "type" : "textAttributeList",
                        "keyframes" : [
                          {
                            "time" : 0,
                            "value" : [{"name":"fgColor","rangeEnd":2,"rangeStart":0,"value":"(152,56,56,255)","valueType":"color"},{"name":"fontWeight","rangeEnd":2,"rangeStart":0,"value":400,"valueType":"int"},{"name":"underline","rangeEnd":2,"rangeStart":0,"value":0,"valueType":"int"},{"name":"fontItalic","rangeEnd":2,"rangeStart":0,"value":0,"valueType":"int"},{"name":"fontSize","rangeEnd":2,"rangeStart":0,"value":96,"valueType":"double"},{"name":"fontName","rangeEnd":2,"rangeStart":0,"value":"Montserrat","valueType":"string"},{"name":"strikethrough","rangeEnd":2,"rangeStart":0,"value":0,"valueType":"int"}],
                            "duration" : 0
                          }
                        ]
                      }
                    },
                    "attributes" : {
                      "autoRotateText" : true
                    },
                    "parameters" : {
                      "translation0" : -261.634843879193,
                      "translation1" : 62.648936170239
                    },
                    "effects" : [
                        {
                          "effectName" : "DropShadow",
                          "category" : "categoryVisualEffects",
                          "parameters" : {
                            "angle" : 5.49778714378214,
                            "blur" : 10.0,
                            "color-alpha" : 1.0,
                            "color-blue" : 0.1216,
                            "color-green" : 0.1216,
                            "color-red" : 0.1216,
                            "enabled" : 1,
                            "offset" : 30.8333333333333,
                            "opacity" : 0.4
                          },
                          "metadata" : {
                            "default-dropshadow-offset" : 10.0
                          }
                        }
                    ],
                    "start" : 8489,
                    "duration" : 290,
                    "mediaStart" : -24,
                    "mediaDuration" : 290,
                    "scalar" : 1,
                    "metadata" : {
                      "WinSubProjectDisplayName" : "",
                      "clipSpeedAttribute" : false,
                      "default-HAlign" : "center",
                      "default-VAlign" : "center",
                      "default-text-attributes" : "[{\"name\":\"fgColor\",\"rangeEnd\":3,\"rangeStart\":0,\"value\":\"(255,255,255,255)\",\"valueType\":\"color\"},{\"name\":\"underline\",\"rangeEnd\":3,\"rangeStart\":0,\"value\":0,\"valueType\":\"int\"},{\"name\":\"fontSize\",\"rangeEnd\":3,\"rangeStart\":0,\"value\":96,\"valueType\":\"double\"},{\"name\":\"fontWeight\",\"rangeEnd\":3,\"rangeStart\":0,\"value\":400,\"valueType\":\"int\"},{\"name\":\"fontName\",\"rangeEnd\":3,\"rangeStart\":0,\"value\":\"Montserrat\",\"valueType\":\"string\"}]",
                      "default-translation0" : 0.0,
                      "default-translation1" : 0.0
                    },
                    "animationTracks" : {

                    }
                  },
                  {
                    "id" : 103,
                    "_type" : "Callout",
                    "def" : {
                      "kind" : "remix",
                      "shape" : "text",
                      "style" : "basic",
                      "height" : 136.164686377335,
                      "width" : 446.568112738374,
                      "word-wrap" : 1.0,
                      "horizontal-alignment" : "center",
                      "text" : "Lightning, USB 2.0",
                      "vertical-alignment" : "center",
                      "font" : {
                        "color-blue" : 1.0,
                        "color-green" : 1.0,
                        "color-red" : 1.0,
                        "size" : 96.0,
                        "tracking" : 0.0,
                        "name" : "Montserrat",
                        "weight" : "Regular"
                      },
                      "textAttributes" : {
                        "type" : "textAttributeList",
                        "keyframes" : [
                          {
                            "time" : 0,
                            "value" : [{"name":"strikethrough","rangeEnd":18,"rangeStart":0,"value":0,"valueType":"int"},{"name":"fontWeight","rangeEnd":18,"rangeStart":0,"value":400,"valueType":"int"},{"name":"fgColor","rangeEnd":18,"rangeStart":0,"value":"(152,56,56,255)","valueType":"color"},{"name":"fontName","rangeEnd":18,"rangeStart":0,"value":"Montserrat","valueType":"string"},{"name":"fontSize","rangeEnd":18,"rangeStart":0,"value":96,"valueType":"double"},{"name":"underline","rangeEnd":18,"rangeStart":0,"value":0,"valueType":"int"},{"name":"fontItalic","rangeEnd":18,"rangeStart":0,"value":0,"valueType":"int"}],
                            "duration" : 0
                          }
                        ]
                      }
                    },
                    "attributes" : {
                      "autoRotateText" : true
                    },
                    "parameters" : {
                      "translation0" : -244.634843879193,
                      "translation1" : 68.3632218845216
                    },
                    "effects" : [
                        {
                          "effectName" : "DropShadow",
                          "category" : "categoryVisualEffects",
                          "parameters" : {
                            "angle" : 5.49778714378214,
                            "blur" : 10.0,
                            "color-alpha" : 1.0,
                            "color-blue" : 0.1216,
                            "color-green" : 0.1216,
                            "color-red" : 0.1216,
                            "enabled" : 1,
                            "offset" : 30.8333333333333,
                            "opacity" : 0.4
                          },
                          "metadata" : {
                            "default-dropshadow-offset" : 10.0
                          }
                        }
                    ],
                    "start" : 8824,
                    "duration" : 265,
                    "mediaStart" : -24,
                    "mediaDuration" : 265,
                    "scalar" : 1,
                    "metadata" : {
                      "WinSubProjectDisplayName" : "",
                      "clipSpeedAttribute" : false,
                      "default-HAlign" : "center",
                      "default-VAlign" : "center",
                      "default-text-attributes" : "[{\"name\":\"fgColor\",\"rangeEnd\":3,\"rangeStart\":0,\"value\":\"(255,255,255,255)\",\"valueType\":\"color\"},{\"name\":\"underline\",\"rangeEnd\":3,\"rangeStart\":0,\"value\":0,\"valueType\":\"int\"},{\"name\":\"fontSize\",\"rangeEnd\":3,\"rangeStart\":0,\"value\":96,\"valueType\":\"double\"},{\"name\":\"fontWeight\",\"rangeEnd\":3,\"rangeStart\":0,\"value\":400,\"valueType\":\"int\"},{\"name\":\"fontName\",\"rangeEnd\":3,\"rangeStart\":0,\"value\":\"Montserrat\",\"valueType\":\"string\"}]",
                      "default-translation0" : 0.0,
                      "default-translation1" : 0.0
                    },
                    "animationTracks" : {

                    }
                  },
                  {
                    "id" : 104,
                    "_type" : "Callout",
                    "def" : {
                      "kind" : "remix",
                      "shape" : "text",
                      "style" : "basic",
                      "height" : 136.164686377335,
                      "width" : 446.568112738374,
                      "word-wrap" : 1.0,
                      "horizontal-alignment" : "center",
                      "text" : "NO",
                      "vertical-alignment" : "center",
                      "font" : {
                        "color-blue" : 1.0,
                        "color-green" : 1.0,
                        "color-red" : 1.0,
                        "size" : 96.0,
                        "tracking" : 0.0,
                        "name" : "Montserrat",
                        "weight" : "Regular"
                      },
                      "textAttributes" : {
                        "type" : "textAttributeList",
                        "keyframes" : [
                          {
                            "time" : 0,
                            "value" : [{"name":"fgColor","rangeEnd":2,"rangeStart":0,"value":"(152,56,56,255)","valueType":"color"},{"name":"fontItalic","rangeEnd":2,"rangeStart":0,"value":0,"valueType":"int"},{"name":"fontSize","rangeEnd":2,"rangeStart":0,"value":96,"valueType":"double"},{"name":"underline","rangeEnd":2,"rangeStart":0,"value":0,"valueType":"int"},{"name":"strikethrough","rangeEnd":2,"rangeStart":0,"value":0,"valueType":"int"},{"name":"fontName","rangeEnd":2,"rangeStart":0,"value":"Montserrat","valueType":"string"},{"name":"fontWeight","rangeEnd":2,"rangeStart":0,"value":400,"valueType":"int"}],
                            "duration" : 0
                          }
                        ]
                      }
                    },
                    "attributes" : {
                      "autoRotateText" : true
                    },
                    "parameters" : {
                      "translation0" : -244.634843879193,
                      "translation1" : 68.3632218845216
                    },
                    "effects" : [
                        {
                          "effectName" : "DropShadow",
                          "category" : "categoryVisualEffects",
                          "parameters" : {
                            "angle" : 5.49778714378214,
                            "blur" : 10.0,
                            "color-alpha" : 1.0,
                            "color-blue" : 0.1216,
                            "color-green" : 0.1216,
                            "color-red" : 0.1216,
                            "enabled" : 1,
                            "offset" : 30.8333333333333,
                            "opacity" : 0.4
                          },
                          "metadata" : {
                            "default-dropshadow-offset" : 10.0
                          }
                        }
                    ],
                    "start" : 9130,
                    "duration" : 274,
                    "mediaStart" : -24,
                    "mediaDuration" : 274,
                    "scalar" : 1,
                    "metadata" : {
                      "WinSubProjectDisplayName" : "",
                      "clipSpeedAttribute" : false,
                      "default-HAlign" : "center",
                      "default-VAlign" : "center",
                      "default-text-attributes" : "[{\"name\":\"fgColor\",\"rangeEnd\":3,\"rangeStart\":0,\"value\":\"(255,255,255,255)\",\"valueType\":\"color\"},{\"name\":\"underline\",\"rangeEnd\":3,\"rangeStart\":0,\"value\":0,\"valueType\":\"int\"},{\"name\":\"fontSize\",\"rangeEnd\":3,\"rangeStart\":0,\"value\":96,\"valueType\":\"double\"},{\"name\":\"fontWeight\",\"rangeEnd\":3,\"rangeStart\":0,\"value\":400,\"valueType\":\"int\"},{\"name\":\"fontName\",\"rangeEnd\":3,\"rangeStart\":0,\"value\":\"Montserrat\",\"valueType\":\"string\"}]",
                      "default-translation0" : 0.0,
                      "default-translation1" : 0.0
                    },
                    "animationTracks" : {

                    }
                  },
                  {
                    "id" : 105,
                    "_type" : "Callout",
                    "def" : {
                      "kind" : "remix",
                      "shape" : "text",
                      "style" : "basic",
                      "height" : 355.943143214654,
                      "width" : 526.14794467097,
                      "word-wrap" : 1.0,
                      "horizontal-alignment" : "center",
                      "text" : "Face ID, accelerometer, gyro, proximity, compass, barometer\rSiri natural language commands and dictation\rUltra Wideband (UWB) support",
                      "vertical-alignment" : "center",
                      "font" : {
                        "color-blue" : 1.0,
                        "color-green" : 1.0,
                        "color-red" : 1.0,
                        "size" : 96.0,
                        "tracking" : 0.0,
                        "name" : "Montserrat",
                        "weight" : "Regular"
                      },
                      "textAttributes" : {
                        "type" : "textAttributeList",
                        "keyframes" : [
                          {
                            "time" : 0,
                            "value" : [{"name":"fontWeight","rangeEnd":133,"rangeStart":0,"value":400,"valueType":"int"},{"name":"fontName","rangeEnd":133,"rangeStart":0,"value":"Montserrat","valueType":"string"},{"name":"fontItalic","rangeEnd":133,"rangeStart":0,"value":0,"valueType":"int"},{"name":"strikethrough","rangeEnd":133,"rangeStart":0,"value":0,"valueType":"int"},{"name":"underline","rangeEnd":133,"rangeStart":0,"value":0,"valueType":"int"},{"name":"fontSize","rangeEnd":133,"rangeStart":0,"value":96,"valueType":"double"},{"name":"fgColor","rangeEnd":133,"rangeStart":0,"value":"(152,56,56,255)","valueType":"color"}],
                            "duration" : 0
                          }
                        ]
                      }
                    },
                    "attributes" : {
                      "autoRotateText" : true
                    },
                    "parameters" : {
                      "translation0" : -256.063415307777,
                      "translation1" : 3.79905076146289
                    },
                    "effects" : [
                        {
                          "effectName" : "DropShadow",
                          "category" : "categoryVisualEffects",
                          "parameters" : {
                            "angle" : 5.49778714378214,
                            "blur" : 10.0,
                            "color-alpha" : 1.0,
                            "color-blue" : 0.1216,
                            "color-green" : 0.1216,
                            "color-red" : 0.1216,
                            "enabled" : 1,
                            "offset" : 30.8333333333333,
                            "opacity" : 0.4
                          },
                          "metadata" : {
                            "default-dropshadow-offset" : 10.0
                          }
                        }
                    ],
                    "start" : 9449,
                    "duration" : 296,
                    "mediaStart" : -10,
                    "mediaDuration" : 296,
                    "scalar" : 1,
                    "metadata" : {
                      "WinSubProjectDisplayName" : "",
                      "clipSpeedAttribute" : false,
                      "default-HAlign" : "center",
                      "default-VAlign" : "center",
                      "default-text-attributes" : "[{\"name\":\"fgColor\",\"rangeEnd\":3,\"rangeStart\":0,\"value\":\"(255,255,255,255)\",\"valueType\":\"color\"},{\"name\":\"underline\",\"rangeEnd\":3,\"rangeStart\":0,\"value\":0,\"valueType\":\"int\"},{\"name\":\"fontSize\",\"rangeEnd\":3,\"rangeStart\":0,\"value\":96,\"valueType\":\"double\"},{\"name\":\"fontWeight\",\"rangeEnd\":3,\"rangeStart\":0,\"value\":400,\"valueType\":\"int\"},{\"name\":\"fontName\",\"rangeEnd\":3,\"rangeStart\":0,\"value\":\"Montserrat\",\"valueType\":\"string\"}]",
                      "default-translation0" : 0.0,
                      "default-translation1" : 0.0
                    },
                    "animationTracks" : {

                    }
                  },
                  {
                    "id" : 106,
                    "_type" : "Callout",
                    "def" : {
                      "kind" : "remix",
                      "shape" : "text",
                      "style" : "basic",
                      "height" : 184.649534862219,
                      "width" : 506.568112738241,
                      "word-wrap" : 1.0,
                      "horizontal-alignment" : "center",
                      "text" : "Li-Ion 3969 mAh, non-removable (15.04 Wh)",
                      "vertical-alignment" : "center",
                      "font" : {
                        "color-blue" : 1.0,
                        "color-green" : 1.0,
                        "color-red" : 1.0,
                        "size" : 96.0,
                        "tracking" : 0.0,
                        "name" : "Montserrat",
                        "weight" : "Regular"
                      },
                      "textAttributes" : {
                        "type" : "textAttributeList",
                        "keyframes" : [
                          {
                            "time" : 0,
                            "value" : [{"name":"fontItalic","rangeEnd":41,"rangeStart":0,"value":0,"valueType":"int"},{"name":"underline","rangeEnd":41,"rangeStart":0,"value":0,"valueType":"int"},{"name":"fontWeight","rangeEnd":41,"rangeStart":0,"value":400,"valueType":"int"},{"name":"strikethrough","rangeEnd":41,"rangeStart":0,"value":0,"valueType":"int"},{"name":"fgColor","rangeEnd":41,"rangeStart":0,"value":"(152,56,56,255)","valueType":"color"},{"name":"fontSize","rangeEnd":41,"rangeStart":0,"value":96,"valueType":"double"},{"name":"fontName","rangeEnd":41,"rangeStart":0,"value":"Montserrat","valueType":"string"}],
                            "duration" : 0
                          }
                        ]
                      }
                    },
                    "attributes" : {
                      "autoRotateText" : true
                    },
                    "parameters" : {
                      "translation0" : -266.063415307777,
                      "translation1" : 43.8783733995866
                    },
                    "effects" : [
                        {
                          "effectName" : "DropShadow",
                          "category" : "categoryVisualEffects",
                          "parameters" : {
                            "angle" : 5.49778714378214,
                            "blur" : 10.0,
                            "color-alpha" : 1.0,
                            "color-blue" : 0.1216,
                            "color-green" : 0.1216,
                            "color-red" : 0.1216,
                            "enabled" : 1,
                            "offset" : 30.8333333333333,
                            "opacity" : 0.4
                          },
                          "metadata" : {
                            "default-dropshadow-offset" : 10.0
                          }
                        }
                    ],
                    "start" : 9824,
                    "duration" : 294,
                    "mediaStart" : -24,
                    "mediaDuration" : 294,
                    "scalar" : 1,
                    "metadata" : {
                      "WinSubProjectDisplayName" : "",
                      "clipSpeedAttribute" : false,
                      "default-HAlign" : "center",
                      "default-VAlign" : "center",
                      "default-text-attributes" : "[{\"name\":\"fgColor\",\"rangeEnd\":3,\"rangeStart\":0,\"value\":\"(255,255,255,255)\",\"valueType\":\"color\"},{\"name\":\"underline\",\"rangeEnd\":3,\"rangeStart\":0,\"value\":0,\"valueType\":\"int\"},{\"name\":\"fontSize\",\"rangeEnd\":3,\"rangeStart\":0,\"value\":96,\"valueType\":\"double\"},{\"name\":\"fontWeight\",\"rangeEnd\":3,\"rangeStart\":0,\"value\":400,\"valueType\":\"int\"},{\"name\":\"fontName\",\"rangeEnd\":3,\"rangeStart\":0,\"value\":\"Montserrat\",\"valueType\":\"string\"}]",
                      "default-translation0" : 0.0,
                      "default-translation1" : 0.0
                    },
                    "animationTracks" : {

                    }
                  },
                  {
                    "id" : 107,
                    "_type" : "Callout",
                    "def" : {
                      "kind" : "remix",
                      "shape" : "text",
                      "style" : "basic",
                      "height" : 344.448363484495,
                      "width" : 518.921053914562,
                      "word-wrap" : 1.0,
                      "horizontal-alignment" : "center",
                      "text" : "Fast charging 18W, 50% in 30 min (advertised)\rUSB Power Delivery 2.0\rQi wireless charging",
                      "vertical-alignment" : "center",
                      "font" : {
                        "color-blue" : 1.0,
                        "color-green" : 1.0,
                        "color-red" : 1.0,
                        "size" : 96.0,
                        "tracking" : 0.0,
                        "name" : "Montserrat",
                        "weight" : "Regular"
                      },
                      "textAttributes" : {
                        "type" : "textAttributeList",
                        "keyframes" : [
                          {
                            "time" : 0,
                            "value" : [{"name":"fontName","rangeEnd":89,"rangeStart":0,"value":"Montserrat","valueType":"string"},{"name":"fontSize","rangeEnd":89,"rangeStart":0,"value":96,"valueType":"double"},{"name":"fontItalic","rangeEnd":89,"rangeStart":0,"value":0,"valueType":"int"},{"name":"fontWeight","rangeEnd":89,"rangeStart":0,"value":400,"valueType":"int"},{"name":"fgColor","rangeEnd":89,"rangeStart":0,"value":"(152,56,56,255)","valueType":"color"},{"name":"strikethrough","rangeEnd":89,"rangeStart":0,"value":0,"valueType":"int"},{"name":"underline","rangeEnd":89,"rangeStart":0,"value":0,"valueType":"int"}],
                            "duration" : 0
                          }
                        ]
                      }
                    },
                    "attributes" : {
                      "autoRotateText" : true
                    },
                    "parameters" : {
                      "translation0" : -240.063415307821,
                      "translation1" : 43.5753430966027
                    },
                    "effects" : [
                        {
                          "effectName" : "DropShadow",
                          "category" : "categoryVisualEffects",
                          "parameters" : {
                            "angle" : 5.49778714378214,
                            "blur" : 10.0,
                            "color-alpha" : 1.0,
                            "color-blue" : 0.1216,
                            "color-green" : 0.1216,
                            "color-red" : 0.1216,
                            "enabled" : 1,
                            "offset" : 30.8333333333333,
                            "opacity" : 0.4
                          },
                          "metadata" : {
                            "default-dropshadow-offset" : 10.0
                          }
                        }
                    ],
                    "start" : 10144,
                    "duration" : 307,
                    "mediaStart" : -24,
                    "mediaDuration" : 307,
                    "scalar" : 1,
                    "metadata" : {
                      "WinSubProjectDisplayName" : "",
                      "clipSpeedAttribute" : false,
                      "default-HAlign" : "center",
                      "default-VAlign" : "center",
                      "default-text-attributes" : "[{\"name\":\"fgColor\",\"rangeEnd\":3,\"rangeStart\":0,\"value\":\"(255,255,255,255)\",\"valueType\":\"color\"},{\"name\":\"underline\",\"rangeEnd\":3,\"rangeStart\":0,\"value\":0,\"valueType\":\"int\"},{\"name\":\"fontSize\",\"rangeEnd\":3,\"rangeStart\":0,\"value\":96,\"valueType\":\"double\"},{\"name\":\"fontWeight\",\"rangeEnd\":3,\"rangeStart\":0,\"value\":400,\"valueType\":\"int\"},{\"name\":\"fontName\",\"rangeEnd\":3,\"rangeStart\":0,\"value\":\"Montserrat\",\"valueType\":\"string\"}]",
                      "default-translation0" : 0.0,
                      "default-translation1" : 0.0
                    },
                    "animationTracks" : {

                    }
                  },
                  {
                    "id" : 108,
                    "_type" : "Callout",
                    "def" : {
                      "kind" : "remix",
                      "shape" : "text",
                      "style" : "basic",
                      "height" : 267.29345318546,
                      "width" : 486.568112738285,
                      "word-wrap" : 1.0,
                      "horizontal-alignment" : "center",
                      "text" : "Matte Space Gray, Matte Silver, Matte Gold, Matte Midnight Green",
                      "vertical-alignment" : "center",
                      "font" : {
                        "color-blue" : 1.0,
                        "color-green" : 1.0,
                        "color-red" : 1.0,
                        "size" : 96.0,
                        "tracking" : 0.0,
                        "name" : "Montserrat",
                        "weight" : "Regular"
                      },
                      "textAttributes" : {
                        "type" : "textAttributeList",
                        "keyframes" : [
                          {
                            "time" : 0,
                            "value" : [{"name":"fontWeight","rangeEnd":64,"rangeStart":0,"value":400,"valueType":"int"},{"name":"fontSize","rangeEnd":64,"rangeStart":0,"value":96,"valueType":"double"},{"name":"fontName","rangeEnd":64,"rangeStart":0,"value":"Montserrat","valueType":"string"},{"name":"fontItalic","rangeEnd":64,"rangeStart":0,"value":0,"valueType":"int"},{"name":"strikethrough","rangeEnd":64,"rangeStart":0,"value":0,"valueType":"int"},{"name":"underline","rangeEnd":64,"rangeStart":0,"value":0,"valueType":"int"},{"name":"fgColor","rangeEnd":64,"rangeStart":0,"value":"(152,56,56,255)","valueType":"color"}],
                            "duration" : 0
                          }
                        ]
                      }
                    },
                    "attributes" : {
                      "autoRotateText" : true
                    },
                    "parameters" : {
                      "translation0" : -258.92055816493,
                      "translation1" : 70.2268582481003
                    },
                    "effects" : [
                        {
                          "effectName" : "DropShadow",
                          "category" : "categoryVisualEffects",
                          "parameters" : {
                            "angle" : 5.49778714378214,
                            "blur" : 10.0,
                            "color-alpha" : 1.0,
                            "color-blue" : 0.1216,
                            "color-green" : 0.1216,
                            "color-red" : 0.1216,
                            "enabled" : 1,
                            "offset" : 30.8333333333333,
                            "opacity" : 0.4
                          },
                          "metadata" : {
                            "default-dropshadow-offset" : 10.0
                          }
                        }
                    ],
                    "start" : 10510,
                    "duration" : 294,
                    "mediaStart" : -24,
                    "mediaDuration" : 294,
                    "scalar" : 1,
                    "metadata" : {
                      "WinSubProjectDisplayName" : "",
                      "clipSpeedAttribute" : false,
                      "default-HAlign" : "center",
                      "default-VAlign" : "center",
                      "default-text-attributes" : "[{\"name\":\"fgColor\",\"rangeEnd\":3,\"rangeStart\":0,\"value\":\"(255,255,255,255)\",\"valueType\":\"color\"},{\"name\":\"underline\",\"rangeEnd\":3,\"rangeStart\":0,\"value\":0,\"valueType\":\"int\"},{\"name\":\"fontSize\",\"rangeEnd\":3,\"rangeStart\":0,\"value\":96,\"valueType\":\"double\"},{\"name\":\"fontWeight\",\"rangeEnd\":3,\"rangeStart\":0,\"value\":400,\"valueType\":\"int\"},{\"name\":\"fontName\",\"rangeEnd\":3,\"rangeStart\":0,\"value\":\"Montserrat\",\"valueType\":\"string\"}]",
                      "default-translation0" : 0.0,
                      "default-translation1" : 0.0
                    },
                    "animationTracks" : {

                    }
                  },
                  {
                    "id" : 109,
                    "_type" : "Callout",
                    "def" : {
                      "kind" : "remix",
                      "shape" : "text",
                      "style" : "basic",
                      "height" : 156.836955284824,
                      "width" : 486.568112738285,
                      "word-wrap" : 1.0,
                      "horizontal-alignment" : "center",
                      "text" : "IP68 dust/water resistant (up to 4m for 30 mins)",
                      "vertical-alignment" : "center",
                      "font" : {
                        "color-blue" : 1.0,
                        "color-green" : 1.0,
                        "color-red" : 1.0,
                        "size" : 96.0,
                        "tracking" : 0.0,
                        "name" : "Montserrat",
                        "weight" : "Regular"
                      },
                      "textAttributes" : {
                        "type" : "textAttributeList",
                        "keyframes" : [
                          {
                            "time" : 0,
                            "value" : [{"name":"fontItalic","rangeEnd":48,"rangeStart":0,"value":0,"valueType":"int"},{"name":"fontName","rangeEnd":48,"rangeStart":0,"value":"Montserrat","valueType":"string"},{"name":"fontSize","rangeEnd":48,"rangeStart":0,"value":96,"valueType":"double"},{"name":"fontWeight","rangeEnd":48,"rangeStart":0,"value":400,"valueType":"int"},{"name":"fgColor","rangeEnd":48,"rangeStart":0,"value":"(152,56,56,255)","valueType":"color"},{"name":"strikethrough","rangeEnd":48,"rangeStart":0,"value":0,"valueType":"int"},{"name":"underline","rangeEnd":48,"rangeStart":0,"value":0,"valueType":"int"}],
                            "duration" : 0
                          }
                        ]
                      }
                    },
                    "attributes" : {
                      "autoRotateText" : true
                    },
                    "parameters" : {
                      "translation0" : -258.92055816493,
                      "translation1" : 78.3632218845116
                    },
                    "effects" : [
                        {
                          "effectName" : "DropShadow",
                          "category" : "categoryVisualEffects",
                          "parameters" : {
                            "angle" : 5.49778714378214,
                            "blur" : 10.0,
                            "color-alpha" : 1.0,
                            "color-blue" : 0.1216,
                            "color-green" : 0.1216,
                            "color-red" : 0.1216,
                            "enabled" : 1,
                            "offset" : 30.8333333333333,
                            "opacity" : 0.4
                          },
                          "metadata" : {
                            "default-dropshadow-offset" : 10.0
                          }
                        }
                    ],
                    "start" : 10849,
                    "duration" : 300,
                    "mediaStart" : -34,
                    "mediaDuration" : 300,
                    "scalar" : 1,
                    "metadata" : {
                      "WinSubProjectDisplayName" : "",
                      "clipSpeedAttribute" : false,
                      "default-HAlign" : "center",
                      "default-VAlign" : "center",
                      "default-text-attributes" : "[{\"name\":\"fgColor\",\"rangeEnd\":3,\"rangeStart\":0,\"value\":\"(255,255,255,255)\",\"valueType\":\"color\"},{\"name\":\"underline\",\"rangeEnd\":3,\"rangeStart\":0,\"value\":0,\"valueType\":\"int\"},{\"name\":\"fontSize\",\"rangeEnd\":3,\"rangeStart\":0,\"value\":96,\"valueType\":\"double\"},{\"name\":\"fontWeight\",\"rangeEnd\":3,\"rangeStart\":0,\"value\":400,\"valueType\":\"int\"},{\"name\":\"fontName\",\"rangeEnd\":3,\"rangeStart\":0,\"value\":\"Montserrat\",\"valueType\":\"string\"}]",
                      "default-translation0" : 0.0,
                      "default-translation1" : 0.0
                    },
                    "animationTracks" : {

                    }
                  },
                  {
                    "id" : 110,
                    "_type" : "Callout",
                    "def" : {
                      "kind" : "remix",
                      "shape" : "text",
                      "style" : "basic",
                      "height" : 153.895778814239,
                      "width" : 486.568112738285,
                      "word-wrap" : 1.0,
                      "horizontal-alignment" : "center",
                      "text" : "$ 648.96 / € 1,149.00 / £ 508.47 / ₹ 87,900",
                      "vertical-alignment" : "center",
                      "font" : {
                        "color-blue" : 1.0,
                        "color-green" : 1.0,
                        "color-red" : 1.0,
                        "size" : 96.0,
                        "tracking" : 0.0,
                        "name" : "Montserrat",
                        "weight" : "Regular"
                      },
                      "textAttributes" : {
                        "type" : "textAttributeList",
                        "keyframes" : [
                          {
                            "time" : 0,
                            "value" : [{"name":"fontWeight","rangeEnd":56,"rangeStart":0,"value":400,"valueType":"int"},{"name":"strikethrough","rangeEnd":56,"rangeStart":0,"value":0,"valueType":"int"},{"name":"fontName","rangeEnd":56,"rangeStart":50,"value":"Montserrat","valueType":"string"},{"name":"underline","rangeEnd":56,"rangeStart":0,"value":0,"valueType":"int"},{"name":"fontSize","rangeEnd":56,"rangeStart":0,"value":96,"valueType":"double"},{"name":"fontName","rangeEnd":44,"rangeStart":0,"value":"Montserrat","valueType":"string"},{"name":"fgColor","rangeEnd":56,"rangeStart":0,"value":"(152,56,56,255)","valueType":"color"},{"name":"fontItalic","rangeEnd":56,"rangeStart":0,"value":0,"valueType":"int"},{"name":"fontName","rangeEnd":50,"rangeStart":44,"value":"Arial","valueType":"string"}],
                            "duration" : 0
                          }
                        ]
                      }
                    },
                    "attributes" : {
                      "autoRotateText" : true
                    },
                    "parameters" : {
                      "translation0" : -258.92055816493,
                      "translation1" : 76.8632218845116
                    },
                    "effects" : [
                        {
                          "effectName" : "DropShadow",
                          "category" : "categoryVisualEffects",
                          "parameters" : {
                            "angle" : 5.49778714378214,
                            "blur" : 10.0,
                            "color-alpha" : 1.0,
                            "color-blue" : 0.1216,
                            "color-green" : 0.1216,
                            "color-red" : 0.1216,
                            "enabled" : 1,
                            "offset" : 30.8333333333333,
                            "opacity" : 0.4
                          },
                          "metadata" : {
                            "default-dropshadow-offset" : 10.0
                          }
                        }
                    ],
                    "start" : 11194,
                    "duration" : 278,
                    "mediaStart" : -8,
                    "mediaDuration" : 278,
                    "scalar" : 1,
                    "metadata" : {
                      "WinSubProjectDisplayName" : "",
                      "clipSpeedAttribute" : false,
                      "default-HAlign" : "center",
                      "default-VAlign" : "center",
                      "default-text-attributes" : "[{\"name\":\"fgColor\",\"rangeEnd\":3,\"rangeStart\":0,\"value\":\"(255,255,255,255)\",\"valueType\":\"color\"},{\"name\":\"underline\",\"rangeEnd\":3,\"rangeStart\":0,\"value\":0,\"valueType\":\"int\"},{\"name\":\"fontSize\",\"rangeEnd\":3,\"rangeStart\":0,\"value\":96,\"valueType\":\"double\"},{\"name\":\"fontWeight\",\"rangeEnd\":3,\"rangeStart\":0,\"value\":400,\"valueType\":\"int\"},{\"name\":\"fontName\",\"rangeEnd\":3,\"rangeStart\":0,\"value\":\"Montserrat\",\"valueType\":\"string\"}]",
                      "default-translation0" : 0.0,
                      "default-translation1" : 0.0
                    },
                    "animationTracks" : {

                    }
                  }
                ],
                "transitions" : [
                  {
                    "name" : "CircleStretch",
                    "duration" : 16,
                    "useAudioPreRoll" : true,
                    "useVisualPreRoll" : true,
                    "rightMedia" : 77
                  },
                  {
                    "name" : "CircleStretch",
                    "duration" : 30,
                    "useAudioPreRoll" : true,
                    "useVisualPreRoll" : true,
                    "leftMedia" : 77
                  },
                  {
                    "name" : "CircleStretch",
                    "duration" : 16,
                    "useAudioPreRoll" : true,
                    "useVisualPreRoll" : true,
                    "rightMedia" : 78
                  },
                  {
                    "name" : "CircleStretch",
                    "duration" : 17,
                    "useAudioPreRoll" : true,
                    "useVisualPreRoll" : true,
                    "leftMedia" : 78
                  },
                  {
                    "name" : "CircleStretch",
                    "duration" : 16,
                    "useAudioPreRoll" : true,
                    "useVisualPreRoll" : true,
                    "rightMedia" : 79
                  },
                  {
                    "name" : "CircleStretch",
                    "duration" : 16,
                    "useAudioPreRoll" : true,
                    "useVisualPreRoll" : true,
                    "leftMedia" : 79
                  },
                  {
                    "name" : "CircleStretch",
                    "duration" : 16,
                    "useAudioPreRoll" : true,
                    "useVisualPreRoll" : true,
                    "rightMedia" : 80
                  },
                  {
                    "name" : "CircleStretch",
                    "duration" : 20,
                    "useAudioPreRoll" : true,
                    "useVisualPreRoll" : true,
                    "leftMedia" : 80
                  },
                  {
                    "name" : "CircleStretch",
                    "duration" : 19,
                    "useAudioPreRoll" : true,
                    "useVisualPreRoll" : true,
                    "rightMedia" : 81
                  },
                  {
                    "name" : "CircleStretch",
                    "duration" : 18,
                    "useAudioPreRoll" : true,
                    "useVisualPreRoll" : true,
                    "leftMedia" : 81
                  },
                  {
                    "name" : "CircleStretch",
                    "duration" : 14,
                    "useAudioPreRoll" : true,
                    "useVisualPreRoll" : true,
                    "rightMedia" : 82
                  },
                  {
                    "name" : "CircleStretch",
                    "duration" : 16,
                    "useAudioPreRoll" : true,
                    "useVisualPreRoll" : true,
                    "leftMedia" : 82
                  },
                  {
                    "name" : "CircleStretch",
                    "duration" : 18,
                    "useAudioPreRoll" : true,
                    "useVisualPreRoll" : true,
                    "rightMedia" : 83
                  },
                  {
                    "name" : "CircleStretch",
                    "duration" : 16,
                    "useAudioPreRoll" : true,
                    "useVisualPreRoll" : true,
                    "leftMedia" : 83
                  },
                  {
                    "name" : "CircleStretch",
                    "duration" : 17,
                    "useAudioPreRoll" : true,
                    "useVisualPreRoll" : true,
                    "rightMedia" : 84
                  },
                  {
                    "name" : "CircleStretch",
                    "duration" : 16,
                    "useAudioPreRoll" : true,
                    "useVisualPreRoll" : true,
                    "leftMedia" : 84
                  },
                  {
                    "name" : "CircleStretch",
                    "duration" : 17,
                    "useAudioPreRoll" : true,
                    "useVisualPreRoll" : true,
                    "rightMedia" : 85
                  },
                  {
                    "name" : "CircleStretch",
                    "duration" : 18,
                    "useAudioPreRoll" : true,
                    "useVisualPreRoll" : true,
                    "leftMedia" : 85
                  },
                  {
                    "name" : "CircleStretch",
                    "duration" : 18,
                    "useAudioPreRoll" : true,
                    "useVisualPreRoll" : true,
                    "rightMedia" : 86
                  },
                  {
                    "name" : "CircleStretch",
                    "duration" : 16,
                    "useAudioPreRoll" : true,
                    "useVisualPreRoll" : true,
                    "leftMedia" : 86
                  },
                  {
                    "name" : "CircleStretch",
                    "duration" : 15,
                    "useAudioPreRoll" : true,
                    "useVisualPreRoll" : true,
                    "rightMedia" : 87
                  },
                  {
                    "name" : "CircleStretch",
                    "duration" : 17,
                    "useAudioPreRoll" : true,
                    "useVisualPreRoll" : true,
                    "leftMedia" : 87
                  },
                  {
                    "name" : "CircleStretch",
                    "duration" : 19,
                    "useAudioPreRoll" : true,
                    "useVisualPreRoll" : true,
                    "rightMedia" : 88
                  },
                  {
                    "name" : "CircleStretch",
                    "duration" : 15,
                    "useAudioPreRoll" : true,
                    "useVisualPreRoll" : true,
                    "leftMedia" : 88
                  },
                  {
                    "name" : "CircleStretch",
                    "duration" : 18,
                    "useAudioPreRoll" : true,
                    "useVisualPreRoll" : true,
                    "rightMedia" : 89
                  },
                  {
                    "name" : "CircleStretch",
                    "duration" : 14,
                    "useAudioPreRoll" : true,
                    "useVisualPreRoll" : true,
                    "leftMedia" : 89
                  },
                  {
                    "name" : "CircleStretch",
                    "duration" : 18,
                    "useAudioPreRoll" : true,
                    "useVisualPreRoll" : true,
                    "rightMedia" : 90
                  },
                  {
                    "name" : "CircleStretch",
                    "duration" : 14,
                    "useAudioPreRoll" : true,
                    "useVisualPreRoll" : true,
                    "leftMedia" : 90
                  },
                  {
                    "name" : "CircleStretch",
                    "duration" : 15,
                    "useAudioPreRoll" : true,
                    "useVisualPreRoll" : true,
                    "rightMedia" : 91
                  },
                  {
                    "name" : "CircleStretch",
                    "duration" : 14,
                    "useAudioPreRoll" : true,
                    "useVisualPreRoll" : true,
                    "leftMedia" : 91
                  },
                  {
                    "name" : "CircleStretch",
                    "duration" : 20,
                    "useAudioPreRoll" : true,
                    "useVisualPreRoll" : true,
                    "rightMedia" : 92
                  },
                  {
                    "name" : "CircleStretch",
                    "duration" : 19,
                    "useAudioPreRoll" : true,
                    "useVisualPreRoll" : true,
                    "leftMedia" : 92
                  },
                  {
                    "name" : "CircleStretch",
                    "duration" : 16,
                    "useAudioPreRoll" : true,
                    "useVisualPreRoll" : true,
                    "rightMedia" : 93
                  },
                  {
                    "name" : "CircleStretch",
                    "duration" : 17,
                    "useAudioPreRoll" : true,
                    "useVisualPreRoll" : true,
                    "leftMedia" : 93
                  },
                  {
                    "name" : "CircleStretch",
                    "duration" : 16,
                    "useAudioPreRoll" : true,
                    "useVisualPreRoll" : true,
                    "rightMedia" : 94
                  },
                  {
                    "name" : "CircleStretch",
                    "duration" : 14,
                    "useAudioPreRoll" : true,
                    "useVisualPreRoll" : true,
                    "leftMedia" : 94
                  },
                  {
                    "name" : "CircleStretch",
                    "duration" : 17,
                    "useAudioPreRoll" : true,
                    "useVisualPreRoll" : true,
                    "rightMedia" : 95
                  },
                  {
                    "name" : "CircleStretch",
                    "duration" : 15,
                    "useAudioPreRoll" : true,
                    "useVisualPreRoll" : true,
                    "leftMedia" : 95
                  },
                  {
                    "name" : "CircleStretch",
                    "duration" : 14,
                    "useAudioPreRoll" : true,
                    "useVisualPreRoll" : true,
                    "rightMedia" : 96
                  },
                  {
                    "name" : "CircleStretch",
                    "duration" : 18,
                    "useAudioPreRoll" : true,
                    "useVisualPreRoll" : true,
                    "leftMedia" : 96
                  },
                  {
                    "name" : "CircleStretch",
                    "duration" : 20,
                    "useAudioPreRoll" : true,
                    "useVisualPreRoll" : true,
                    "rightMedia" : 97
                  },
                  {
                    "name" : "CircleStretch",
                    "duration" : 18,
                    "useAudioPreRoll" : true,
                    "useVisualPreRoll" : true,
                    "leftMedia" : 97
                  },
                  {
                    "name" : "CircleStretch",
                    "duration" : 17,
                    "useAudioPreRoll" : true,
                    "useVisualPreRoll" : true,
                    "rightMedia" : 98
                  },
                  {
                    "name" : "CircleStretch",
                    "duration" : 15,
                    "useAudioPreRoll" : true,
                    "useVisualPreRoll" : true,
                    "leftMedia" : 98
                  },
                  {
                    "name" : "CircleStretch",
                    "duration" : 16,
                    "useAudioPreRoll" : true,
                    "useVisualPreRoll" : true,
                    "rightMedia" : 99
                  },
                  {
                    "name" : "CircleStretch",
                    "duration" : 17,
                    "useAudioPreRoll" : true,
                    "useVisualPreRoll" : true,
                    "leftMedia" : 99
                  },
                  {
                    "name" : "CircleStretch",
                    "duration" : 15,
                    "useAudioPreRoll" : true,
                    "useVisualPreRoll" : true,
                    "rightMedia" : 100
                  },
                  {
                    "name" : "CircleStretch",
                    "duration" : 12,
                    "useAudioPreRoll" : true,
                    "useVisualPreRoll" : true,
                    "leftMedia" : 100
                  },
                  {
                    "name" : "CircleStretch",
                    "duration" : 18,
                    "useAudioPreRoll" : true,
                    "useVisualPreRoll" : true,
                    "rightMedia" : 101
                  },
                  {
                    "name" : "CircleStretch",
                    "duration" : 13,
                    "useAudioPreRoll" : true,
                    "useVisualPreRoll" : true,
                    "leftMedia" : 101
                  },
                  {
                    "name" : "CircleStretch",
                    "duration" : 16,
                    "useAudioPreRoll" : true,
                    "useVisualPreRoll" : true,
                    "rightMedia" : 102
                  },
                  {
                    "name" : "CircleStretch",
                    "duration" : 13,
                    "useAudioPreRoll" : true,
                    "useVisualPreRoll" : true,
                    "leftMedia" : 102
                  },
                  {
                    "name" : "CircleStretch",
                    "duration" : 17,
                    "useAudioPreRoll" : true,
                    "useVisualPreRoll" : true,
                    "rightMedia" : 103
                  },
                  {
                    "name" : "CircleStretch",
                    "duration" : 12,
                    "useAudioPreRoll" : true,
                    "useVisualPreRoll" : true,
                    "leftMedia" : 103
                  },
                  {
                    "name" : "CircleStretch",
                    "duration" : 16,
                    "useAudioPreRoll" : true,
                    "useVisualPreRoll" : true,
                    "rightMedia" : 104
                  },
                  {
                    "name" : "CircleStretch",
                    "duration" : 14,
                    "useAudioPreRoll" : true,
                    "useVisualPreRoll" : true,
                    "leftMedia" : 104
                  },
                  {
                    "name" : "CircleStretch",
                    "duration" : 14,
                    "useAudioPreRoll" : true,
                    "useVisualPreRoll" : true,
                    "rightMedia" : 105
                  },
                  {
                    "name" : "CircleStretch",
                    "duration" : 13,
                    "useAudioPreRoll" : true,
                    "useVisualPreRoll" : true,
                    "leftMedia" : 105
                  },
                  {
                    "name" : "CircleStretch",
                    "duration" : 16,
                    "useAudioPreRoll" : true,
                    "useVisualPreRoll" : true,
                    "rightMedia" : 106
                  },
                  {
                    "name" : "CircleStretch",
                    "duration" : 12,
                    "useAudioPreRoll" : true,
                    "useVisualPreRoll" : true,
                    "leftMedia" : 106
                  },
                  {
                    "name" : "CircleStretch",
                    "duration" : 18,
                    "useAudioPreRoll" : true,
                    "useVisualPreRoll" : true,
                    "rightMedia" : 107
                  },
                  {
                    "name" : "CircleStretch",
                    "duration" : 14,
                    "useAudioPreRoll" : true,
                    "useVisualPreRoll" : true,
                    "leftMedia" : 107
                  },
                  {
                    "name" : "CircleStretch",
                    "duration" : 18,
                    "useAudioPreRoll" : true,
                    "useVisualPreRoll" : true,
                    "rightMedia" : 108
                  },
                  {
                    "name" : "CircleStretch",
                    "duration" : 15,
                    "useAudioPreRoll" : true,
                    "useVisualPreRoll" : true,
                    "leftMedia" : 108
                  },
                  {
                    "name" : "CircleStretch",
                    "duration" : 13,
                    "useAudioPreRoll" : true,
                    "useVisualPreRoll" : true,
                    "rightMedia" : 109
                  },
                  {
                    "name" : "CircleStretch",
                    "duration" : 16,
                    "useAudioPreRoll" : true,
                    "useVisualPreRoll" : true,
                    "leftMedia" : 109
                  },
                  {
                    "name" : "CircleStretch",
                    "duration" : 18,
                    "useAudioPreRoll" : true,
                    "useVisualPreRoll" : true,
                    "rightMedia" : 110
                  },
                  {
                    "name" : "CircleStretch",
                    "duration" : 13,
                    "useAudioPreRoll" : true,
                    "useVisualPreRoll" : true,
                    "leftMedia" : 110
                  }
                ]
              },
              {
                "trackIndex" : 11,
                "medias" : [
                  {
                    "id" : 111,
                    "_type" : "Callout",
                    "def" : {
                      "kind" : "remix",
                      "shape" : "text",
                      "style" : "basic",
                      "height" : 184.042553191456,
                      "width" : 402.127659574749,
                      "word-wrap" : 1.0,
                      "horizontal-alignment" : "center",
                      "text" : "2021, September 14",
                      "vertical-alignment" : "center",
                      "font" : {
                        "color-blue" : 1.0,
                        "color-green" : 1.0,
                        "color-red" : 1.0,
                        "size" : 96.0,
                        "tracking" : 0.0,
                        "name" : "Montserrat",
                        "weight" : "Regular"
                      },
                      "textAttributes" : {
                        "type" : "textAttributeList",
                        "keyframes" : [
                          {
                            "time" : 0,
                            "value" : [{"name":"fontSize","rangeEnd":18,"rangeStart":0,"value":96,"valueType":"double"},{"name":"fontWeight","rangeEnd":18,"rangeStart":0,"value":400,"valueType":"int"},{"name":"fgColor","rangeEnd":18,"rangeStart":0,"value":"(152,56,56,255)","valueType":"color"},{"name":"underline","rangeEnd":18,"rangeStart":0,"value":0,"valueType":"int"},{"name":"fontName","rangeEnd":18,"rangeStart":0,"value":"Montserrat","valueType":"string"},{"name":"fontItalic","rangeEnd":18,"rangeStart":0,"value":0,"valueType":"int"},{"name":"strikethrough","rangeEnd":18,"rangeStart":0,"value":0,"valueType":"int"}],
                            "duration" : 0
                          }
                        ]
                      }
                    },
                    "attributes" : {
                      "autoRotateText" : true
                    },
                    "parameters" : {
                      "translation0" : 310.010638298546,
                      "translation1" : 101.54255319145
                    },
                    "effects" : [
                        {
                          "effectName" : "DropShadow",
                          "category" : "categoryVisualEffects",
                          "parameters" : {
                            "angle" : 5.49778714378214,
                            "blur" : 10.0,
                            "color-alpha" : 1.0,
                            "color-blue" : 0.1216,
                            "color-green" : 0.1216,
                            "color-red" : 0.1216,
                            "enabled" : 1,
                            "offset" : 30.8333333333333,
                            "opacity" : 0.4
                          },
                          "metadata" : {
                            "default-dropshadow-offset" : 10.0
                          }
                        }
                    ],
                    "start" : 529,
                    "duration" : 166,
                    "mediaStart" : -36,
                    "mediaDuration" : 166,
                    "scalar" : 1,
                    "metadata" : {
                      "WinSubProjectDisplayName" : "",
                      "clipSpeedAttribute" : false,
                      "default-HAlign" : "center",
                      "default-VAlign" : "center",
                      "default-text-attributes" : "[{\"name\":\"fgColor\",\"rangeEnd\":3,\"rangeStart\":0,\"value\":\"(255,255,255,255)\",\"valueType\":\"color\"},{\"name\":\"underline\",\"rangeEnd\":3,\"rangeStart\":0,\"value\":0,\"valueType\":\"int\"},{\"name\":\"fontSize\",\"rangeEnd\":3,\"rangeStart\":0,\"value\":96,\"valueType\":\"double\"},{\"name\":\"fontWeight\",\"rangeEnd\":3,\"rangeStart\":0,\"value\":400,\"valueType\":\"int\"},{\"name\":\"fontName\",\"rangeEnd\":3,\"rangeStart\":0,\"value\":\"Montserrat\",\"valueType\":\"string\"}]",
                      "default-translation0" : 0.0,
                      "default-translation1" : 0.0
                    },
                    "animationTracks" : {

                    }
                  },
                  {
                    "id" : 112,
                    "_type" : "Callout",
                    "def" : {
                      "kind" : "remix",
                      "shape" : "text",
                      "style" : "basic",
                      "height" : 184.042553191456,
                      "width" : 402.127659574749,
                      "word-wrap" : 1.0,
                      "horizontal-alignment" : "center",
                      "text" : "6.7 inches, 109.8 cm2 (~87.4% screen-to-body ratio)",
                      "vertical-alignment" : "center",
                      "font" : {
                        "color-blue" : 1.0,
                        "color-green" : 1.0,
                        "color-red" : 1.0,
                        "size" : 96.0,
                        "tracking" : 0.0,
                        "name" : "Montserrat",
                        "weight" : "Regular"
                      },
                      "textAttributes" : {
                        "type" : "textAttributeList",
                        "keyframes" : [
                          {
                            "time" : 0,
                            "value" : [{"name":"fgColor","rangeEnd":51,"rangeStart":0,"value":"(152,56,56,255)","valueType":"color"},{"name":"fontName","rangeEnd":51,"rangeStart":0,"value":"Montserrat","valueType":"string"},{"name":"underline","rangeEnd":51,"rangeStart":0,"value":0,"valueType":"int"},{"name":"fontWeight","rangeEnd":51,"rangeStart":0,"value":400,"valueType":"int"},{"name":"strikethrough","rangeEnd":51,"rangeStart":0,"value":0,"valueType":"int"},{"name":"fontSize","rangeEnd":51,"rangeStart":0,"value":96,"valueType":"double"},{"name":"fontItalic","rangeEnd":51,"rangeStart":0,"value":0,"valueType":"int"}],
                            "duration" : 0
                          }
                        ]
                      }
                    },
                    "attributes" : {
                      "autoRotateText" : true
                    },
                    "parameters" : {
                      "translation0" : 310.010638298546,
                      "translation1" : 101.54255319145
                    },
                    "effects" : [
                        {
                          "effectName" : "DropShadow",
                          "category" : "categoryVisualEffects",
                          "parameters" : {
                            "angle" : 5.49778714378214,
                            "blur" : 10.0,
                            "color-alpha" : 1.0,
                            "color-blue" : 0.1216,
                            "color-green" : 0.1216,
                            "color-red" : 0.1216,
                            "enabled" : 1,
                            "offset" : 30.8333333333333,
                            "opacity" : 0.4
                          },
                          "metadata" : {
                            "default-dropshadow-offset" : 10.0
                          }
                        }
                    ],
                    "start" : 798,
                    "duration" : 204,
                    "mediaStart" : -98,
                    "mediaDuration" : 204,
                    "scalar" : 1,
                    "metadata" : {
                      "WinSubProjectDisplayName" : "",
                      "clipSpeedAttribute" : false,
                      "default-HAlign" : "center",
                      "default-VAlign" : "center",
                      "default-text-attributes" : "[{\"name\":\"fgColor\",\"rangeEnd\":3,\"rangeStart\":0,\"value\":\"(255,255,255,255)\",\"valueType\":\"color\"},{\"name\":\"underline\",\"rangeEnd\":3,\"rangeStart\":0,\"value\":0,\"valueType\":\"int\"},{\"name\":\"fontSize\",\"rangeEnd\":3,\"rangeStart\":0,\"value\":96,\"valueType\":\"double\"},{\"name\":\"fontWeight\",\"rangeEnd\":3,\"rangeStart\":0,\"value\":400,\"valueType\":\"int\"},{\"name\":\"fontName\",\"rangeEnd\":3,\"rangeStart\":0,\"value\":\"Montserrat\",\"valueType\":\"string\"}]",
                      "default-translation0" : 0.0,
                      "default-translation1" : 0.0
                    },
                    "animationTracks" : {

                    }
                  },
                  {
                    "id" : 113,
                    "_type" : "Callout",
                    "def" : {
                      "kind" : "remix",
                      "shape" : "text",
                      "style" : "basic",
                      "height" : 184.042553191456,
                      "width" : 463.829787234101,
                      "word-wrap" : 1.0,
                      "horizontal-alignment" : "center",
                      "text" : "1284 x 2778 pixels, 19.5:9 ratio (~458 ppi density)",
                      "vertical-alignment" : "center",
                      "font" : {
                        "color-blue" : 1.0,
                        "color-green" : 1.0,
                        "color-red" : 1.0,
                        "size" : 96.0,
                        "tracking" : 0.0,
                        "name" : "Montserrat",
                        "weight" : "Regular"
                      },
                      "textAttributes" : {
                        "type" : "textAttributeList",
                        "keyframes" : [
                          {
                            "time" : 0,
                            "value" : [{"name":"fgColor","rangeEnd":51,"rangeStart":0,"value":"(152,56,56,255)","valueType":"color"},{"name":"fontItalic","rangeEnd":51,"rangeStart":0,"value":0,"valueType":"int"},{"name":"fontWeight","rangeEnd":51,"rangeStart":0,"value":400,"valueType":"int"},{"name":"fontName","rangeEnd":51,"rangeStart":0,"value":"Montserrat","valueType":"string"},{"name":"fontSize","rangeEnd":51,"rangeStart":0,"value":96,"valueType":"double"},{"name":"underline","rangeEnd":51,"rangeStart":0,"value":0,"valueType":"int"},{"name":"strikethrough","rangeEnd":51,"rangeStart":0,"value":0,"valueType":"int"}],
                            "duration" : 0
                          }
                        ]
                      }
                    },
                    "attributes" : {
                      "autoRotateText" : true
                    },
                    "parameters" : {
                      "translation0" : 274.55319149024,
                      "translation1" : 105.797872340382
                    },
                    "effects" : [
                        {
                          "effectName" : "DropShadow",
                          "category" : "categoryVisualEffects",
                          "parameters" : {
                            "angle" : 5.49778714378214,
                            "blur" : 10.0,
                            "color-alpha" : 1.0,
                            "color-blue" : 0.1216,
                            "color-green" : 0.1216,
                            "color-red" : 0.1216,
                            "enabled" : 1,
                            "offset" : 30.8333333333333,
                            "opacity" : 0.4
                          },
                          "metadata" : {
                            "default-dropshadow-offset" : 10.0
                          }
                        }
                    ],
                    "start" : 1064,
                    "duration" : 245,
                    "mediaStart" : -24,
                    "mediaDuration" : 245,
                    "scalar" : 1,
                    "metadata" : {
                      "WinSubProjectDisplayName" : "",
                      "clipSpeedAttribute" : false,
                      "default-HAlign" : "center",
                      "default-VAlign" : "center",
                      "default-text-attributes" : "[{\"name\":\"fgColor\",\"rangeEnd\":3,\"rangeStart\":0,\"value\":\"(255,255,255,255)\",\"valueType\":\"color\"},{\"name\":\"underline\",\"rangeEnd\":3,\"rangeStart\":0,\"value\":0,\"valueType\":\"int\"},{\"name\":\"fontSize\",\"rangeEnd\":3,\"rangeStart\":0,\"value\":96,\"valueType\":\"double\"},{\"name\":\"fontWeight\",\"rangeEnd\":3,\"rangeStart\":0,\"value\":400,\"valueType\":\"int\"},{\"name\":\"fontName\",\"rangeEnd\":3,\"rangeStart\":0,\"value\":\"Montserrat\",\"valueType\":\"string\"}]",
                      "default-translation0" : 0.0,
                      "default-translation1" : 0.0
                    },
                    "animationTracks" : {

                    }
                  },
                  {
                    "id" : 114,
                    "_type" : "Callout",
                    "def" : {
                      "kind" : "remix",
                      "shape" : "text",
                      "style" : "basic",
                      "height" : 269.618272841233,
                      "width" : 452.743851894104,
                      "word-wrap" : 1.0,
                      "horizontal-alignment" : "center",
                      "text" : "Super Retina XDR OLED, 120Hz, HDR10, Dolby Vision, 1000 nits (typ), 1200 nits (peak)",
                      "vertical-alignment" : "center",
                      "font" : {
                        "color-blue" : 1.0,
                        "color-green" : 1.0,
                        "color-red" : 1.0,
                        "size" : 96.0,
                        "tracking" : 0.0,
                        "name" : "Montserrat",
                        "weight" : "Regular"
                      },
                      "textAttributes" : {
                        "type" : "textAttributeList",
                        "keyframes" : [
                          {
                            "time" : 0,
                            "value" : [{"name":"fontSize","rangeEnd":84,"rangeStart":0,"value":96,"valueType":"double"},{"name":"fontWeight","rangeEnd":84,"rangeStart":0,"value":400,"valueType":"int"},{"name":"fontName","rangeEnd":84,"rangeStart":0,"value":"Montserrat","valueType":"string"},{"name":"strikethrough","rangeEnd":84,"rangeStart":0,"value":0,"valueType":"int"},{"name":"fgColor","rangeEnd":84,"rangeStart":0,"value":"(152,56,56,255)","valueType":"color"},{"name":"fontItalic","rangeEnd":84,"rangeStart":0,"value":0,"valueType":"int"},{"name":"underline","rangeEnd":84,"rangeStart":0,"value":0,"valueType":"int"}],
                            "duration" : 0
                          }
                        ]
                      }
                    },
                    "attributes" : {
                      "autoRotateText" : true
                    },
                    "parameters" : {
                      "translation0" : 226.560790273782,
                      "translation1" : 58.404255318852
                    },
                    "effects" : [
                        {
                          "effectName" : "DropShadow",
                          "category" : "categoryVisualEffects",
                          "parameters" : {
                            "angle" : 5.49778714378214,
                            "blur" : 10.0,
                            "color-alpha" : 1.0,
                            "color-blue" : 0.1216,
                            "color-green" : 0.1216,
                            "color-red" : 0.1216,
                            "enabled" : 1,
                            "offset" : 30.8333333333333,
                            "opacity" : 0.4
                          },
                          "metadata" : {
                            "default-dropshadow-offset" : 10.0
                          }
                        }
                    ],
                    "start" : 1373,
                    "duration" : 257,
                    "mediaStart" : -24,
                    "mediaDuration" : 257,
                    "scalar" : 1,
                    "metadata" : {
                      "WinSubProjectDisplayName" : "",
                      "clipSpeedAttribute" : false,
                      "default-HAlign" : "center",
                      "default-VAlign" : "center",
                      "default-text-attributes" : "[{\"name\":\"fgColor\",\"rangeEnd\":3,\"rangeStart\":0,\"value\":\"(255,255,255,255)\",\"valueType\":\"color\"},{\"name\":\"underline\",\"rangeEnd\":3,\"rangeStart\":0,\"value\":0,\"valueType\":\"int\"},{\"name\":\"fontSize\",\"rangeEnd\":3,\"rangeStart\":0,\"value\":96,\"valueType\":\"double\"},{\"name\":\"fontWeight\",\"rangeEnd\":3,\"rangeStart\":0,\"value\":400,\"valueType\":\"int\"},{\"name\":\"fontName\",\"rangeEnd\":3,\"rangeStart\":0,\"value\":\"Montserrat\",\"valueType\":\"string\"}]",
                      "default-translation0" : 0.0,
                      "default-translation1" : 0.0
                    },
                    "animationTracks" : {

                    }
                  },
                  {
                    "id" : 115,
                    "_type" : "Callout",
                    "def" : {
                      "kind" : "remix",
                      "shape" : "text",
                      "style" : "basic",
                      "height" : 188.515947965243,
                      "width" : 379.561573179359,
                      "word-wrap" : 1.0,
                      "horizontal-alignment" : "center",
                      "text" : "Scratch-resistant ceramic glass, oleophobic coating",
                      "vertical-alignment" : "center",
                      "font" : {
                        "color-blue" : 1.0,
                        "color-green" : 1.0,
                        "color-red" : 1.0,
                        "size" : 96.0,
                        "tracking" : 0.0,
                        "name" : "Montserrat",
                        "weight" : "Regular"
                      },
                      "textAttributes" : {
                        "type" : "textAttributeList",
                        "keyframes" : [
                          {
                            "time" : 0,
                            "value" : [{"name":"fgColor","rangeEnd":51,"rangeStart":0,"value":"(152,56,56,255)","valueType":"color"},{"name":"strikethrough","rangeEnd":51,"rangeStart":0,"value":0,"valueType":"int"},{"name":"underline","rangeEnd":51,"rangeStart":0,"value":0,"valueType":"int"},{"name":"fontWeight","rangeEnd":51,"rangeStart":0,"value":400,"valueType":"int"},{"name":"fontItalic","rangeEnd":51,"rangeStart":0,"value":0,"valueType":"int"},{"name":"fontName","rangeEnd":51,"rangeStart":0,"value":"Montserrat","valueType":"string"},{"name":"fontSize","rangeEnd":51,"rangeStart":0,"value":96,"valueType":"double"}],
                            "duration" : 0
                          }
                        ]
                      }
                    },
                    "attributes" : {
                      "autoRotateText" : true
                    },
                    "parameters" : {
                      "translation0" : 272.140554482151,
                      "translation1" : 102.228410513085
                    },
                    "effects" : [
                        {
                          "effectName" : "DropShadow",
                          "category" : "categoryVisualEffects",
                          "parameters" : {
                            "angle" : 5.49778714378214,
                            "blur" : 10.0,
                            "color-alpha" : 1.0,
                            "color-blue" : 0.1216,
                            "color-green" : 0.1216,
                            "color-red" : 0.1216,
                            "enabled" : 1,
                            "offset" : 30.8333333333333,
                            "opacity" : 0.4
                          },
                          "metadata" : {
                            "default-dropshadow-offset" : 10.0
                          }
                        }
                    ],
                    "start" : 1694,
                    "duration" : 237,
                    "mediaStart" : -24,
                    "mediaDuration" : 237,
                    "scalar" : 1,
                    "metadata" : {
                      "WinSubProjectDisplayName" : "",
                      "clipSpeedAttribute" : false,
                      "default-HAlign" : "center",
                      "default-VAlign" : "center",
                      "default-text-attributes" : "[{\"name\":\"fgColor\",\"rangeEnd\":3,\"rangeStart\":0,\"value\":\"(255,255,255,255)\",\"valueType\":\"color\"},{\"name\":\"underline\",\"rangeEnd\":3,\"rangeStart\":0,\"value\":0,\"valueType\":\"int\"},{\"name\":\"fontSize\",\"rangeEnd\":3,\"rangeStart\":0,\"value\":96,\"valueType\":\"double\"},{\"name\":\"fontWeight\",\"rangeEnd\":3,\"rangeStart\":0,\"value\":400,\"valueType\":\"int\"},{\"name\":\"fontName\",\"rangeEnd\":3,\"rangeStart\":0,\"value\":\"Montserrat\",\"valueType\":\"string\"}]",
                      "default-translation0" : 0.0,
                      "default-translation1" : 0.0
                    },
                    "animationTracks" : {

                    }
                  },
                  {
                    "id" : 116,
                    "_type" : "Callout",
                    "def" : {
                      "kind" : "remix",
                      "shape" : "text",
                      "style" : "basic",
                      "height" : 173.275306253961,
                      "width" : 388.652482270261,
                      "word-wrap" : 1.0,
                      "horizontal-alignment" : "center",
                      "text" : "glass back (Gorilla Glass), stainless steel frame",
                      "vertical-alignment" : "center",
                      "font" : {
                        "color-blue" : 1.0,
                        "color-green" : 1.0,
                        "color-red" : 1.0,
                        "size" : 96.0,
                        "tracking" : 0.0,
                        "name" : "Montserrat",
                        "weight" : "Regular"
                      },
                      "textAttributes" : {
                        "type" : "textAttributeList",
                        "keyframes" : [
                          {
                            "time" : 0,
                            "value" : [{"name":"strikethrough","rangeEnd":49,"rangeStart":0,"value":0,"valueType":"int"},{"name":"fontWeight","rangeEnd":49,"rangeStart":0,"value":400,"valueType":"int"},{"name":"underline","rangeEnd":49,"rangeStart":0,"value":0,"valueType":"int"},{"name":"fontItalic","rangeEnd":49,"rangeStart":0,"value":0,"valueType":"int"},{"name":"fgColor","rangeEnd":49,"rangeStart":0,"value":"(152,56,56,255)","valueType":"color"},{"name":"fontSize","rangeEnd":49,"rangeStart":0,"value":96,"valueType":"double"},{"name":"fontName","rangeEnd":49,"rangeStart":0,"value":"Montserrat","valueType":"string"}],
                            "duration" : 0
                          }
                        ]
                      }
                    },
                    "attributes" : {
                      "autoRotateText" : true
                    },
                    "parameters" : {
                      "translation0" : 267.549645391249,
                      "translation1" : 91.7872340424992
                    },
                    "effects" : [
                        {
                          "effectName" : "DropShadow",
                          "category" : "categoryVisualEffects",
                          "parameters" : {
                            "angle" : 5.49778714378214,
                            "blur" : 10.0,
                            "color-alpha" : 1.0,
                            "color-blue" : 0.1216,
                            "color-green" : 0.1216,
                            "color-red" : 0.1216,
                            "enabled" : 1,
                            "offset" : 30.8333333333333,
                            "opacity" : 0.4
                          },
                          "metadata" : {
                            "default-dropshadow-offset" : 10.0
                          }
                        }
                    ],
                    "start" : 2037,
                    "duration" : 260,
                    "mediaStart" : -24,
                    "mediaDuration" : 260,
                    "scalar" : 1,
                    "metadata" : {
                      "WinSubProjectDisplayName" : "",
                      "clipSpeedAttribute" : false,
                      "default-HAlign" : "center",
                      "default-VAlign" : "center",
                      "default-text-attributes" : "[{\"name\":\"fgColor\",\"rangeEnd\":3,\"rangeStart\":0,\"value\":\"(255,255,255,255)\",\"valueType\":\"color\"},{\"name\":\"underline\",\"rangeEnd\":3,\"rangeStart\":0,\"value\":0,\"valueType\":\"int\"},{\"name\":\"fontSize\",\"rangeEnd\":3,\"rangeStart\":0,\"value\":96,\"valueType\":\"double\"},{\"name\":\"fontWeight\",\"rangeEnd\":3,\"rangeStart\":0,\"value\":400,\"valueType\":\"int\"},{\"name\":\"fontName\",\"rangeEnd\":3,\"rangeStart\":0,\"value\":\"Montserrat\",\"valueType\":\"string\"}]",
                      "default-translation0" : 0.0,
                      "default-translation1" : 0.0
                    },
                    "animationTracks" : {

                    }
                  },
                  {
                    "id" : 117,
                    "_type" : "Callout",
                    "def" : {
                      "kind" : "remix",
                      "shape" : "text",
                      "style" : "basic",
                      "height" : 141.48936170212,
                      "width" : 400.773694391251,
                      "word-wrap" : 1.0,
                      "horizontal-alignment" : "center",
                      "text" : "160.8 x 78.1 x 7.7 mm (6.33 x 3.07 x 0.30 in)",
                      "vertical-alignment" : "center",
                      "font" : {
                        "color-blue" : 1.0,
                        "color-green" : 1.0,
                        "color-red" : 1.0,
                        "size" : 96.0,
                        "tracking" : 0.0,
                        "name" : "Montserrat",
                        "weight" : "Regular"
                      },
                      "textAttributes" : {
                        "type" : "textAttributeList",
                        "keyframes" : [
                          {
                            "time" : 0,
                            "value" : [{"name":"fontSize","rangeEnd":45,"rangeStart":0,"value":96,"valueType":"double"},{"name":"fontName","rangeEnd":45,"rangeStart":0,"value":"Montserrat","valueType":"string"},{"name":"fontItalic","rangeEnd":45,"rangeStart":0,"value":0,"valueType":"int"},{"name":"fontWeight","rangeEnd":45,"rangeStart":0,"value":400,"valueType":"int"},{"name":"underline","rangeEnd":45,"rangeStart":0,"value":0,"valueType":"int"},{"name":"fgColor","rangeEnd":45,"rangeStart":0,"value":"(152,56,56,255)","valueType":"color"},{"name":"strikethrough","rangeEnd":45,"rangeStart":0,"value":0,"valueType":"int"}],
                            "duration" : 0
                          }
                        ]
                      }
                    },
                    "attributes" : {
                      "autoRotateText" : true
                    },
                    "parameters" : {
                      "translation0" : 304.610251451564,
                      "translation1" : 73.5145067697744
                    },
                    "effects" : [
                        {
                          "effectName" : "DropShadow",
                          "category" : "categoryVisualEffects",
                          "parameters" : {
                            "angle" : 5.49778714378214,
                            "blur" : 10.0,
                            "color-alpha" : 1.0,
                            "color-blue" : 0.1216,
                            "color-green" : 0.1216,
                            "color-red" : 0.1216,
                            "enabled" : 1,
                            "offset" : 30.8333333333333,
                            "opacity" : 0.4
                          },
                          "metadata" : {
                            "default-dropshadow-offset" : 10.0
                          }
                        }
                    ],
                    "start" : 2370,
                    "duration" : 291,
                    "mediaStart" : -21,
                    "mediaDuration" : 291,
                    "scalar" : 1,
                    "metadata" : {
                      "WinSubProjectDisplayName" : "",
                      "clipSpeedAttribute" : false,
                      "default-HAlign" : "center",
                      "default-VAlign" : "center",
                      "default-text-attributes" : "[{\"name\":\"fgColor\",\"rangeEnd\":3,\"rangeStart\":0,\"value\":\"(255,255,255,255)\",\"valueType\":\"color\"},{\"name\":\"underline\",\"rangeEnd\":3,\"rangeStart\":0,\"value\":0,\"valueType\":\"int\"},{\"name\":\"fontSize\",\"rangeEnd\":3,\"rangeStart\":0,\"value\":96,\"valueType\":\"double\"},{\"name\":\"fontWeight\",\"rangeEnd\":3,\"rangeStart\":0,\"value\":400,\"valueType\":\"int\"},{\"name\":\"fontName\",\"rangeEnd\":3,\"rangeStart\":0,\"value\":\"Montserrat\",\"valueType\":\"string\"}]",
                      "default-translation0" : 0.0,
                      "default-translation1" : 0.0
                    },
                    "animationTracks" : {

                    }
                  },
                  {
                    "id" : 118,
                    "_type" : "Callout",
                    "def" : {
                      "kind" : "remix",
                      "shape" : "text",
                      "style" : "basic",
                      "height" : 141.48936170212,
                      "width" : 412.137330755121,
                      "word-wrap" : 1.0,
                      "horizontal-alignment" : "center",
                      "text" : "240 g (8.47 oz)",
                      "vertical-alignment" : "center",
                      "font" : {
                        "color-blue" : 1.0,
                        "color-green" : 1.0,
                        "color-red" : 1.0,
                        "size" : 96.0,
                        "tracking" : 0.0,
                        "name" : "Montserrat",
                        "weight" : "Regular"
                      },
                      "textAttributes" : {
                        "type" : "textAttributeList",
                        "keyframes" : [
                          {
                            "time" : 0,
                            "value" : [{"name":"strikethrough","rangeEnd":15,"rangeStart":0,"value":0,"valueType":"int"},{"name":"fontSize","rangeEnd":15,"rangeStart":0,"value":96,"valueType":"double"},{"name":"fontItalic","rangeEnd":15,"rangeStart":0,"value":0,"valueType":"int"},{"name":"underline","rangeEnd":15,"rangeStart":0,"value":0,"valueType":"int"},{"name":"fontWeight","rangeEnd":15,"rangeStart":0,"value":400,"valueType":"int"},{"name":"fontName","rangeEnd":15,"rangeStart":0,"value":"Montserrat","valueType":"string"},{"name":"fgColor","rangeEnd":15,"rangeStart":0,"value":"(152,56,56,255)","valueType":"color"}],
                            "duration" : 0
                          }
                        ]
                      }
                    },
                    "attributes" : {
                      "autoRotateText" : true
                    },
                    "parameters" : {
                      "translation0" : 299.246615087694,
                      "translation1" : 73.5145067697744
                    },
                    "effects" : [
                        {
                          "effectName" : "DropShadow",
                          "category" : "categoryVisualEffects",
                          "parameters" : {
                            "angle" : 5.49778714378214,
                            "blur" : 10.0,
                            "color-alpha" : 1.0,
                            "color-blue" : 0.1216,
                            "color-green" : 0.1216,
                            "color-red" : 0.1216,
                            "enabled" : 1,
                            "offset" : 30.8333333333333,
                            "opacity" : 0.4
                          },
                          "metadata" : {
                            "default-dropshadow-offset" : 10.0
                          }
                        }
                    ],
                    "start" : 2717,
                    "duration" : 290,
                    "mediaStart" : -20,
                    "mediaDuration" : 290,
                    "scalar" : 1,
                    "metadata" : {
                      "WinSubProjectDisplayName" : "",
                      "clipSpeedAttribute" : false,
                      "default-HAlign" : "center",
                      "default-VAlign" : "center",
                      "default-text-attributes" : "[{\"name\":\"fgColor\",\"rangeEnd\":3,\"rangeStart\":0,\"value\":\"(255,255,255,255)\",\"valueType\":\"color\"},{\"name\":\"underline\",\"rangeEnd\":3,\"rangeStart\":0,\"value\":0,\"valueType\":\"int\"},{\"name\":\"fontSize\",\"rangeEnd\":3,\"rangeStart\":0,\"value\":96,\"valueType\":\"double\"},{\"name\":\"fontWeight\",\"rangeEnd\":3,\"rangeStart\":0,\"value\":400,\"valueType\":\"int\"},{\"name\":\"fontName\",\"rangeEnd\":3,\"rangeStart\":0,\"value\":\"Montserrat\",\"valueType\":\"string\"}]",
                      "default-translation0" : 0.0,
                      "default-translation1" : 0.0
                    },
                    "animationTracks" : {

                    }
                  },
                  {
                    "id" : 119,
                    "_type" : "Callout",
                    "def" : {
                      "kind" : "remix",
                      "shape" : "text",
                      "style" : "basic",
                      "height" : 172.517730496443,
                      "width" : 454.561573179163,
                      "word-wrap" : 1.0,
                      "horizontal-alignment" : "center",
                      "text" : "Single SIM (Nano-SIM and/or eSIM) or Dual SIM (Nano-SIM/eSIM, dual stand-by)",
                      "vertical-alignment" : "center",
                      "font" : {
                        "color-blue" : 1.0,
                        "color-green" : 1.0,
                        "color-red" : 1.0,
                        "size" : 96.0,
                        "tracking" : 0.0,
                        "name" : "Montserrat",
                        "weight" : "Regular"
                      },
                      "textAttributes" : {
                        "type" : "textAttributeList",
                        "keyframes" : [
                          {
                            "time" : 0,
                            "value" : [{"name":"fontSize","rangeEnd":76,"rangeStart":0,"value":96,"valueType":"double"},{"name":"fontWeight","rangeEnd":76,"rangeStart":0,"value":400,"valueType":"int"},{"name":"fontName","rangeEnd":76,"rangeStart":0,"value":"Montserrat","valueType":"string"},{"name":"fontItalic","rangeEnd":76,"rangeStart":0,"value":0,"valueType":"int"},{"name":"strikethrough","rangeEnd":76,"rangeStart":0,"value":0,"valueType":"int"},{"name":"fgColor","rangeEnd":76,"rangeStart":0,"value":"(152,56,56,255)","valueType":"color"},{"name":"underline","rangeEnd":76,"rangeStart":0,"value":0,"valueType":"int"}],
                            "duration" : 0
                          }
                        ]
                      }
                    },
                    "attributes" : {
                      "autoRotateText" : true
                    },
                    "parameters" : {
                      "translation0" : 277.822372663652,
                      "translation1" : 89.0145067697744
                    },
                    "effects" : [
                        {
                          "effectName" : "DropShadow",
                          "category" : "categoryVisualEffects",
                          "parameters" : {
                            "angle" : 5.49778714378214,
                            "blur" : 10.0,
                            "color-alpha" : 1.0,
                            "color-blue" : 0.1216,
                            "color-green" : 0.1216,
                            "color-red" : 0.1216,
                            "enabled" : 1,
                            "offset" : 30.8333333333333,
                            "opacity" : 0.4
                          },
                          "metadata" : {
                            "default-dropshadow-offset" : 10.0
                          }
                        }
                    ],
                    "start" : 3061,
                    "duration" : 290,
                    "mediaStart" : -20,
                    "mediaDuration" : 290,
                    "scalar" : 1,
                    "metadata" : {
                      "WinSubProjectDisplayName" : "",
                      "clipSpeedAttribute" : false,
                      "default-HAlign" : "center",
                      "default-VAlign" : "center",
                      "default-text-attributes" : "[{\"name\":\"fgColor\",\"rangeEnd\":3,\"rangeStart\":0,\"value\":\"(255,255,255,255)\",\"valueType\":\"color\"},{\"name\":\"underline\",\"rangeEnd\":3,\"rangeStart\":0,\"value\":0,\"valueType\":\"int\"},{\"name\":\"fontSize\",\"rangeEnd\":3,\"rangeStart\":0,\"value\":96,\"valueType\":\"double\"},{\"name\":\"fontWeight\",\"rangeEnd\":3,\"rangeStart\":0,\"value\":400,\"valueType\":\"int\"},{\"name\":\"fontName\",\"rangeEnd\":3,\"rangeStart\":0,\"value\":\"Montserrat\",\"valueType\":\"string\"}]",
                      "default-translation0" : 0.0,
                      "default-translation1" : 0.0
                    },
                    "animationTracks" : {

                    }
                  },
                  {
                    "id" : 120,
                    "_type" : "Callout",
                    "def" : {
                      "kind" : "remix",
                      "shape" : "text",
                      "style" : "basic",
                      "height" : 168.762088974848,
                      "width" : 412.137330755121,
                      "word-wrap" : 1.0,
                      "horizontal-alignment" : "center",
                      "text" : "iOS 15",
                      "vertical-alignment" : "center",
                      "font" : {
                        "color-blue" : 1.0,
                        "color-green" : 1.0,
                        "color-red" : 1.0,
                        "size" : 96.0,
                        "tracking" : 0.0,
                        "name" : "Montserrat",
                        "weight" : "Regular"
                      },
                      "textAttributes" : {
                        "type" : "textAttributeList",
                        "keyframes" : [
                          {
                            "time" : 0,
                            "value" : [{"name":"fontSize","rangeEnd":6,"rangeStart":0,"value":96,"valueType":"double"},{"name":"fontName","rangeEnd":6,"rangeStart":0,"value":"Montserrat","valueType":"string"},{"name":"fontItalic","rangeEnd":6,"rangeStart":0,"value":0,"valueType":"int"},{"name":"fontWeight","rangeEnd":6,"rangeStart":0,"value":400,"valueType":"int"},{"name":"strikethrough","rangeEnd":6,"rangeStart":0,"value":0,"valueType":"int"},{"name":"underline","rangeEnd":6,"rangeStart":0,"value":0,"valueType":"int"},{"name":"fgColor","rangeEnd":6,"rangeStart":0,"value":"(152,56,56,255)","valueType":"color"}],
                            "duration" : 0
                          }
                        ]
                      }
                    },
                    "attributes" : {
                      "autoRotateText" : true
                    },
                    "parameters" : {
                      "translation0" : 299.246615087694,
                      "translation1" : 59.7417794970465
                    },
                    "effects" : [
                        {
                          "effectName" : "DropShadow",
                          "category" : "categoryVisualEffects",
                          "parameters" : {
                            "angle" : 5.49778714378214,
                            "blur" : 10.0,
                            "color-alpha" : 1.0,
                            "color-blue" : 0.1216,
                            "color-green" : 0.1216,
                            "color-red" : 0.1216,
                            "enabled" : 1,
                            "offset" : 30.8333333333333,
                            "opacity" : 0.4
                          },
                          "metadata" : {
                            "default-dropshadow-offset" : 10.0
                          }
                        }
                    ],
                    "start" : 3433,
                    "duration" : 255,
                    "mediaStart" : -20,
                    "mediaDuration" : 255,
                    "scalar" : 1,
                    "metadata" : {
                      "WinSubProjectDisplayName" : "",
                      "clipSpeedAttribute" : false,
                      "default-HAlign" : "center",
                      "default-VAlign" : "center",
                      "default-text-attributes" : "[{\"name\":\"fgColor\",\"rangeEnd\":3,\"rangeStart\":0,\"value\":\"(255,255,255,255)\",\"valueType\":\"color\"},{\"name\":\"underline\",\"rangeEnd\":3,\"rangeStart\":0,\"value\":0,\"valueType\":\"int\"},{\"name\":\"fontSize\",\"rangeEnd\":3,\"rangeStart\":0,\"value\":96,\"valueType\":\"double\"},{\"name\":\"fontWeight\",\"rangeEnd\":3,\"rangeStart\":0,\"value\":400,\"valueType\":\"int\"},{\"name\":\"fontName\",\"rangeEnd\":3,\"rangeStart\":0,\"value\":\"Montserrat\",\"valueType\":\"string\"}]",
                      "default-translation0" : 0.0,
                      "default-translation1" : 0.0
                    },
                    "animationTracks" : {

                    }
                  },
                  {
                    "id" : 121,
                    "_type" : "Callout",
                    "def" : {
                      "kind" : "remix",
                      "shape" : "text",
                      "style" : "basic",
                      "height" : 168.762088974848,
                      "width" : 412.137330755121,
                      "word-wrap" : 1.0,
                      "horizontal-alignment" : "center",
                      "text" : "Apple A15 Bionic (5 nm)",
                      "vertical-alignment" : "center",
                      "font" : {
                        "color-blue" : 1.0,
                        "color-green" : 1.0,
                        "color-red" : 1.0,
                        "size" : 96.0,
                        "tracking" : 0.0,
                        "name" : "Montserrat",
                        "weight" : "Regular"
                      },
                      "textAttributes" : {
                        "type" : "textAttributeList",
                        "keyframes" : [
                          {
                            "time" : 0,
                            "value" : [{"name":"fgColor","rangeEnd":23,"rangeStart":0,"value":"(152,56,56,255)","valueType":"color"},{"name":"fontWeight","rangeEnd":23,"rangeStart":0,"value":400,"valueType":"int"},{"name":"underline","rangeEnd":23,"rangeStart":0,"value":0,"valueType":"int"},{"name":"fontName","rangeEnd":23,"rangeStart":0,"value":"Montserrat","valueType":"string"},{"name":"fontItalic","rangeEnd":23,"rangeStart":0,"value":0,"valueType":"int"},{"name":"fontSize","rangeEnd":23,"rangeStart":0,"value":96,"valueType":"double"},{"name":"strikethrough","rangeEnd":23,"rangeStart":0,"value":0,"valueType":"int"}],
                            "duration" : 0
                          }
                        ]
                      }
                    },
                    "attributes" : {
                      "autoRotateText" : true
                    },
                    "parameters" : {
                      "translation0" : 299.246615087694,
                      "translation1" : 59.7417794970465
                    },
                    "effects" : [
                        {
                          "effectName" : "DropShadow",
                          "category" : "categoryVisualEffects",
                          "parameters" : {
                            "angle" : 5.49778714378214,
                            "blur" : 10.0,
                            "color-alpha" : 1.0,
                            "color-blue" : 0.1216,
                            "color-green" : 0.1216,
                            "color-red" : 0.1216,
                            "enabled" : 1,
                            "offset" : 30.8333333333333,
                            "opacity" : 0.4
                          },
                          "metadata" : {
                            "default-dropshadow-offset" : 10.0
                          }
                        }
                    ],
                    "start" : 3745,
                    "duration" : 277,
                    "mediaStart" : -20,
                    "mediaDuration" : 277,
                    "scalar" : 1,
                    "metadata" : {
                      "WinSubProjectDisplayName" : "",
                      "clipSpeedAttribute" : false,
                      "default-HAlign" : "center",
                      "default-VAlign" : "center",
                      "default-text-attributes" : "[{\"name\":\"fgColor\",\"rangeEnd\":3,\"rangeStart\":0,\"value\":\"(255,255,255,255)\",\"valueType\":\"color\"},{\"name\":\"underline\",\"rangeEnd\":3,\"rangeStart\":0,\"value\":0,\"valueType\":\"int\"},{\"name\":\"fontSize\",\"rangeEnd\":3,\"rangeStart\":0,\"value\":96,\"valueType\":\"double\"},{\"name\":\"fontWeight\",\"rangeEnd\":3,\"rangeStart\":0,\"value\":400,\"valueType\":\"int\"},{\"name\":\"fontName\",\"rangeEnd\":3,\"rangeStart\":0,\"value\":\"Montserrat\",\"valueType\":\"string\"}]",
                      "default-translation0" : 0.0,
                      "default-translation1" : 0.0
                    },
                    "animationTracks" : {

                    }
                  },
                  {
                    "id" : 122,
                    "_type" : "Callout",
                    "def" : {
                      "kind" : "remix",
                      "shape" : "text",
                      "style" : "basic",
                      "height" : 184.671179883959,
                      "width" : 434.864603482718,
                      "word-wrap" : 1.0,
                      "horizontal-alignment" : "center",
                      "text" : "Hexa-core (2x3.22 GHz Avalanche + 4xX.X GHz Blizzard)",
                      "vertical-alignment" : "center",
                      "font" : {
                        "color-blue" : 1.0,
                        "color-green" : 1.0,
                        "color-red" : 1.0,
                        "size" : 96.0,
                        "tracking" : 0.0,
                        "name" : "Montserrat",
                        "weight" : "Regular"
                      },
                      "textAttributes" : {
                        "type" : "textAttributeList",
                        "keyframes" : [
                          {
                            "time" : 0,
                            "value" : [{"name":"strikethrough","rangeEnd":53,"rangeStart":0,"value":0,"valueType":"int"},{"name":"fgColor","rangeEnd":53,"rangeStart":0,"value":"(152,56,56,255)","valueType":"color"},{"name":"fontSize","rangeEnd":53,"rangeStart":0,"value":96,"valueType":"double"},{"name":"fontItalic","rangeEnd":53,"rangeStart":0,"value":0,"valueType":"int"},{"name":"fontName","rangeEnd":53,"rangeStart":0,"value":"Montserrat","valueType":"string"},{"name":"underline","rangeEnd":53,"rangeStart":0,"value":0,"valueType":"int"},{"name":"fontWeight","rangeEnd":53,"rangeStart":0,"value":400,"valueType":"int"}],
                            "duration" : 0
                          }
                        ]
                      }
                    },
                    "attributes" : {
                      "autoRotateText" : true
                    },
                    "parameters" : {
                      "translation0" : 285.246615087372,
                      "translation1" : 67.7417794970465
                    },
                    "effects" : [
                        {
                          "effectName" : "DropShadow",
                          "category" : "categoryVisualEffects",
                          "parameters" : {
                            "angle" : 5.49778714378214,
                            "blur" : 10.0,
                            "color-alpha" : 1.0,
                            "color-blue" : 0.1216,
                            "color-green" : 0.1216,
                            "color-red" : 0.1216,
                            "enabled" : 1,
                            "offset" : 30.8333333333333,
                            "opacity" : 0.4
                          },
                          "metadata" : {
                            "default-dropshadow-offset" : 10.0
                          }
                        }
                    ],
                    "start" : 4082,
                    "duration" : 244,
                    "mediaStart" : -20,
                    "mediaDuration" : 244,
                    "scalar" : 1,
                    "metadata" : {
                      "WinSubProjectDisplayName" : "",
                      "clipSpeedAttribute" : false,
                      "default-HAlign" : "center",
                      "default-VAlign" : "center",
                      "default-text-attributes" : "[{\"name\":\"fgColor\",\"rangeEnd\":3,\"rangeStart\":0,\"value\":\"(255,255,255,255)\",\"valueType\":\"color\"},{\"name\":\"underline\",\"rangeEnd\":3,\"rangeStart\":0,\"value\":0,\"valueType\":\"int\"},{\"name\":\"fontSize\",\"rangeEnd\":3,\"rangeStart\":0,\"value\":96,\"valueType\":\"double\"},{\"name\":\"fontWeight\",\"rangeEnd\":3,\"rangeStart\":0,\"value\":400,\"valueType\":\"int\"},{\"name\":\"fontName\",\"rangeEnd\":3,\"rangeStart\":0,\"value\":\"Montserrat\",\"valueType\":\"string\"}]",
                      "default-translation0" : 0.0,
                      "default-translation1" : 0.0
                    },
                    "animationTracks" : {

                    }
                  },
                  {
                    "id" : 123,
                    "_type" : "Callout",
                    "def" : {
                      "kind" : "remix",
                      "shape" : "text",
                      "style" : "basic",
                      "height" : 132.398452611142,
                      "width" : 357.5918762097,
                      "word-wrap" : 1.0,
                      "horizontal-alignment" : "center",
                      "text" : "Apple GPU (5-core graphics)",
                      "vertical-alignment" : "center",
                      "font" : {
                        "color-blue" : 1.0,
                        "color-green" : 1.0,
                        "color-red" : 1.0,
                        "size" : 96.0,
                        "tracking" : 0.0,
                        "name" : "Montserrat",
                        "weight" : "Regular"
                      },
                      "textAttributes" : {
                        "type" : "textAttributeList",
                        "keyframes" : [
                          {
                            "time" : 0,
                            "value" : [{"name":"strikethrough","rangeEnd":27,"rangeStart":0,"value":0,"valueType":"int"},{"name":"fontWeight","rangeEnd":27,"rangeStart":0,"value":400,"valueType":"int"},{"name":"fontItalic","rangeEnd":27,"rangeStart":0,"value":0,"valueType":"int"},{"name":"fontSize","rangeEnd":27,"rangeStart":0,"value":96,"valueType":"double"},{"name":"fgColor","rangeEnd":27,"rangeStart":0,"value":"(152,56,56,255)","valueType":"color"},{"name":"fontName","rangeEnd":27,"rangeStart":0,"value":"Montserrat","valueType":"string"},{"name":"underline","rangeEnd":27,"rangeStart":0,"value":0,"valueType":"int"}],
                            "duration" : 0
                          }
                        ]
                      }
                    },
                    "attributes" : {
                      "autoRotateText" : true
                    },
                    "parameters" : {
                      "translation0" : 244.473887814338,
                      "translation1" : 66.7417794971447
                    },
                    "effects" : [
                        {
                          "effectName" : "DropShadow",
                          "category" : "categoryVisualEffects",
                          "parameters" : {
                            "angle" : 5.49778714378214,
                            "blur" : 10.0,
                            "color-alpha" : 1.0,
                            "color-blue" : 0.1216,
                            "color-green" : 0.1216,
                            "color-red" : 0.1216,
                            "enabled" : 1,
                            "offset" : 30.8333333333333,
                            "opacity" : 0.4
                          },
                          "metadata" : {
                            "default-dropshadow-offset" : 10.0
                          }
                        }
                    ],
                    "start" : 4381,
                    "duration" : 222,
                    "mediaStart" : -20,
                    "mediaDuration" : 222,
                    "scalar" : 1,
                    "metadata" : {
                      "WinSubProjectDisplayName" : "",
                      "clipSpeedAttribute" : false,
                      "default-HAlign" : "center",
                      "default-VAlign" : "center",
                      "default-text-attributes" : "[{\"name\":\"fgColor\",\"rangeEnd\":3,\"rangeStart\":0,\"value\":\"(255,255,255,255)\",\"valueType\":\"color\"},{\"name\":\"underline\",\"rangeEnd\":3,\"rangeStart\":0,\"value\":0,\"valueType\":\"int\"},{\"name\":\"fontSize\",\"rangeEnd\":3,\"rangeStart\":0,\"value\":96,\"valueType\":\"double\"},{\"name\":\"fontWeight\",\"rangeEnd\":3,\"rangeStart\":0,\"value\":400,\"valueType\":\"int\"},{\"name\":\"fontName\",\"rangeEnd\":3,\"rangeStart\":0,\"value\":\"Montserrat\",\"valueType\":\"string\"}]",
                      "default-translation0" : 0.0,
                      "default-translation1" : 0.0
                    },
                    "animationTracks" : {

                    }
                  },
                  {
                    "id" : 124,
                    "_type" : "Callout",
                    "def" : {
                      "kind" : "remix",
                      "shape" : "text",
                      "style" : "basic",
                      "height" : 148.307543520243,
                      "width" : 412.137330754917,
                      "word-wrap" : 1.0,
                      "horizontal-alignment" : "center",
                      "text" : "128GB 6GB RAM, 256GB 6GB RAM, 512GB 6GB RAM, 1TB",
                      "vertical-alignment" : "center",
                      "font" : {
                        "color-blue" : 1.0,
                        "color-green" : 1.0,
                        "color-red" : 1.0,
                        "size" : 96.0,
                        "tracking" : 0.0,
                        "name" : "Montserrat",
                        "weight" : "Regular"
                      },
                      "textAttributes" : {
                        "type" : "textAttributeList",
                        "keyframes" : [
                          {
                            "time" : 0,
                            "value" : [{"name":"fontItalic","rangeEnd":48,"rangeStart":0,"value":0,"valueType":"int"},{"name":"strikethrough","rangeEnd":48,"rangeStart":0,"value":0,"valueType":"int"},{"name":"fontWeight","rangeEnd":48,"rangeStart":0,"value":400,"valueType":"int"},{"name":"fgColor","rangeEnd":48,"rangeStart":0,"value":"(152,56,56,255)","valueType":"color"},{"name":"underline","rangeEnd":48,"rangeStart":0,"value":0,"valueType":"int"},{"name":"fontSize","rangeEnd":48,"rangeStart":0,"value":96,"valueType":"double"},{"name":"fontName","rangeEnd":48,"rangeStart":0,"value":"Montserrat","valueType":"string"}],
                            "duration" : 0
                          }
                        ]
                      }
                    },
                    "attributes" : {
                      "autoRotateText" : true
                    },
                    "parameters" : {
                      "translation0" : 283.337524178005,
                      "translation1" : 86.1054158607794
                    },
                    "effects" : [
                        {
                          "effectName" : "DropShadow",
                          "category" : "categoryVisualEffects",
                          "parameters" : {
                            "angle" : 5.49778714378214,
                            "blur" : 10.0,
                            "color-alpha" : 1.0,
                            "color-blue" : 0.1216,
                            "color-green" : 0.1216,
                            "color-red" : 0.1216,
                            "enabled" : 1,
                            "offset" : 30.8333333333333,
                            "opacity" : 0.4
                          },
                          "metadata" : {
                            "default-dropshadow-offset" : 10.0
                          }
                        }
                    ],
                    "start" : 4669,
                    "duration" : 268,
                    "mediaStart" : -30,
                    "mediaDuration" : 268,
                    "scalar" : 1,
                    "metadata" : {
                      "WinSubProjectDisplayName" : "",
                      "clipSpeedAttribute" : false,
                      "default-HAlign" : "center",
                      "default-VAlign" : "center",
                      "default-text-attributes" : "[{\"name\":\"fgColor\",\"rangeEnd\":3,\"rangeStart\":0,\"value\":\"(255,255,255,255)\",\"valueType\":\"color\"},{\"name\":\"underline\",\"rangeEnd\":3,\"rangeStart\":0,\"value\":0,\"valueType\":\"int\"},{\"name\":\"fontSize\",\"rangeEnd\":3,\"rangeStart\":0,\"value\":96,\"valueType\":\"double\"},{\"name\":\"fontWeight\",\"rangeEnd\":3,\"rangeStart\":0,\"value\":400,\"valueType\":\"int\"},{\"name\":\"fontName\",\"rangeEnd\":3,\"rangeStart\":0,\"value\":\"Montserrat\",\"valueType\":\"string\"}]",
                      "default-translation0" : 0.0,
                      "default-translation1" : 0.0
                    },
                    "animationTracks" : {

                    }
                  },
                  {
                    "id" : 125,
                    "_type" : "Callout",
                    "def" : {
                      "kind" : "remix",
                      "shape" : "text",
                      "style" : "basic",
                      "height" : 352.395039253659,
                      "width" : 512.137330754427,
                      "word-wrap" : 1.0,
                      "horizontal-alignment" : "center",
                      "text" : "12 MP, f/1.5, 26mm (wide), 1.9µm, dual pixel PDAF, sensor-shift OIS\r12 MP, f/2.8, 77mm (telephoto), PDAF, OIS, 3x optical zoom\r12 MP, f/1.8, 13mm, 120˚ (ultrawide), PDAF TOF 3D LiDAR scanner (depth)",
                      "vertical-alignment" : "center",
                      "font" : {
                        "color-blue" : 1.0,
                        "color-green" : 1.0,
                        "color-red" : 1.0,
                        "size" : 96.0,
                        "tracking" : 0.0,
                        "name" : "Montserrat",
                        "weight" : "Regular"
                      },
                      "textAttributes" : {
                        "type" : "textAttributeList",
                        "keyframes" : [
                          {
                            "time" : 0,
                            "value" : [{"name":"fgColor","rangeEnd":200,"rangeStart":0,"value":"(152,56,56,255)","valueType":"color"},{"name":"strikethrough","rangeEnd":200,"rangeStart":0,"value":0,"valueType":"int"},{"name":"fontWeight","rangeEnd":200,"rangeStart":0,"value":400,"valueType":"int"},{"name":"underline","rangeEnd":200,"rangeStart":0,"value":0,"valueType":"int"},{"name":"fontName","rangeEnd":200,"rangeStart":0,"value":"Montserrat","valueType":"string"},{"name":"fontItalic","rangeEnd":200,"rangeStart":0,"value":0,"valueType":"int"},{"name":"fontSize","rangeEnd":200,"rangeStart":0,"value":96,"valueType":"double"}],
                            "duration" : 0
                          }
                        ]
                      }
                    },
                    "attributes" : {
                      "autoRotateText" : true
                    },
                    "parameters" : {
                      "translation0" : 268.631641825259,
                      "translation1" : 36.9590965979675
                    },
                    "effects" : [
                        {
                          "effectName" : "DropShadow",
                          "category" : "categoryVisualEffects",
                          "parameters" : {
                            "angle" : 5.49778714378214,
                            "blur" : 10.0,
                            "color-alpha" : 1.0,
                            "color-blue" : 0.1216,
                            "color-green" : 0.1216,
                            "color-red" : 0.1216,
                            "enabled" : 1,
                            "offset" : 30.8333333333333,
                            "opacity" : 0.4
                          },
                          "metadata" : {
                            "default-dropshadow-offset" : 10.0
                          }
                        }
                    ],
                    "start" : 4994,
                    "duration" : 305,
                    "mediaStart" : -20,
                    "mediaDuration" : 305,
                    "scalar" : 1,
                    "metadata" : {
                      "WinSubProjectDisplayName" : "",
                      "clipSpeedAttribute" : false,
                      "default-HAlign" : "center",
                      "default-VAlign" : "center",
                      "default-text-attributes" : "[{\"name\":\"fgColor\",\"rangeEnd\":3,\"rangeStart\":0,\"value\":\"(255,255,255,255)\",\"valueType\":\"color\"},{\"name\":\"underline\",\"rangeEnd\":3,\"rangeStart\":0,\"value\":0,\"valueType\":\"int\"},{\"name\":\"fontSize\",\"rangeEnd\":3,\"rangeStart\":0,\"value\":96,\"valueType\":\"double\"},{\"name\":\"fontWeight\",\"rangeEnd\":3,\"rangeStart\":0,\"value\":400,\"valueType\":\"int\"},{\"name\":\"fontName\",\"rangeEnd\":3,\"rangeStart\":0,\"value\":\"Montserrat\",\"valueType\":\"string\"}]",
                      "default-translation0" : 0.0,
                      "default-translation1" : 0.0
                    },
                    "animationTracks" : {

                    }
                  },
                  {
                    "id" : 126,
                    "_type" : "Callout",
                    "def" : {
                      "kind" : "remix",
                      "shape" : "text",
                      "style" : "basic",
                      "height" : 148.307543520243,
                      "width" : 412.137330754917,
                      "word-wrap" : 1.0,
                      "horizontal-alignment" : "center",
                      "text" : "Dual-LED dual-tone flash, HDR (photo/panorama)",
                      "vertical-alignment" : "center",
                      "font" : {
                        "color-blue" : 1.0,
                        "color-green" : 1.0,
                        "color-red" : 1.0,
                        "size" : 96.0,
                        "tracking" : 0.0,
                        "name" : "Montserrat",
                        "weight" : "Regular"
                      },
                      "textAttributes" : {
                        "type" : "textAttributeList",
                        "keyframes" : [
                          {
                            "time" : 0,
                            "value" : [{"name":"fontWeight","rangeEnd":46,"rangeStart":0,"value":400,"valueType":"int"},{"name":"fontSize","rangeEnd":46,"rangeStart":0,"value":96,"valueType":"double"},{"name":"strikethrough","rangeEnd":46,"rangeStart":0,"value":0,"valueType":"int"},{"name":"fontItalic","rangeEnd":46,"rangeStart":0,"value":0,"valueType":"int"},{"name":"underline","rangeEnd":46,"rangeStart":0,"value":0,"valueType":"int"},{"name":"fontName","rangeEnd":46,"rangeStart":0,"value":"Montserrat","valueType":"string"},{"name":"fgColor","rangeEnd":46,"rangeStart":0,"value":"(152,56,56,255)","valueType":"color"}],
                            "duration" : 0
                          }
                        ]
                      }
                    },
                    "attributes" : {
                      "autoRotateText" : true
                    },
                    "parameters" : {
                      "translation0" : 283.337524178005,
                      "translation1" : 86.1054158607794
                    },
                    "effects" : [
                        {
                          "effectName" : "DropShadow",
                          "category" : "categoryVisualEffects",
                          "parameters" : {
                            "angle" : 5.49778714378214,
                            "blur" : 10.0,
                            "color-alpha" : 1.0,
                            "color-blue" : 0.1216,
                            "color-green" : 0.1216,
                            "color-red" : 0.1216,
                            "enabled" : 1,
                            "offset" : 30.8333333333333,
                            "opacity" : 0.4
                          },
                          "metadata" : {
                            "default-dropshadow-offset" : 10.0
                          }
                        }
                    ],
                    "start" : 5341,
                    "duration" : 274,
                    "mediaStart" : -20,
                    "mediaDuration" : 274,
                    "scalar" : 1,
                    "metadata" : {
                      "WinSubProjectDisplayName" : "",
                      "clipSpeedAttribute" : false,
                      "default-HAlign" : "center",
                      "default-VAlign" : "center",
                      "default-text-attributes" : "[{\"name\":\"fgColor\",\"rangeEnd\":3,\"rangeStart\":0,\"value\":\"(255,255,255,255)\",\"valueType\":\"color\"},{\"name\":\"underline\",\"rangeEnd\":3,\"rangeStart\":0,\"value\":0,\"valueType\":\"int\"},{\"name\":\"fontSize\",\"rangeEnd\":3,\"rangeStart\":0,\"value\":96,\"valueType\":\"double\"},{\"name\":\"fontWeight\",\"rangeEnd\":3,\"rangeStart\":0,\"value\":400,\"valueType\":\"int\"},{\"name\":\"fontName\",\"rangeEnd\":3,\"rangeStart\":0,\"value\":\"Montserrat\",\"valueType\":\"string\"}]",
                      "default-translation0" : 0.0,
                      "default-translation1" : 0.0
                    },
                    "animationTracks" : {

                    }
                  },
                  {
                    "id" : 127,
                    "_type" : "Callout",
                    "def" : {
                      "kind" : "remix",
                      "shape" : "text",
                      "style" : "basic",
                      "height" : 359.466188796574,
                      "width" : 516.254977813402,
                      "word-wrap" : 1.0,
                      "horizontal-alignment" : "center",
                      "text" : "4K@24/30/60fps, 1080p@30/60/120/240fps, 10‑bit HDR, Dolby Vision HDR (up to 60fps), ProRes, Cinematic mode, stereo sound rec.",
                      "vertical-alignment" : "center",
                      "font" : {
                        "color-blue" : 1.0,
                        "color-green" : 1.0,
                        "color-red" : 1.0,
                        "size" : 96.0,
                        "tracking" : 0.0,
                        "name" : "Montserrat",
                        "weight" : "Regular"
                      },
                      "textAttributes" : {
                        "type" : "textAttributeList",
                        "keyframes" : [
                          {
                            "time" : 0,
                            "value" : [{"name":"fontWeight","rangeEnd":127,"rangeStart":0,"value":400,"valueType":"int"},{"name":"fontName","rangeEnd":127,"rangeStart":45,"value":"Montserrat","valueType":"string"},{"name":"fgColor","rangeEnd":127,"rangeStart":0,"value":"(152,56,56,255)","valueType":"color"},{"name":"strikethrough","rangeEnd":127,"rangeStart":0,"value":0,"valueType":"int"},{"name":"fontSize","rangeEnd":127,"rangeStart":0,"value":96,"valueType":"double"},{"name":"fontName","rangeEnd":42,"rangeStart":0,"value":"Montserrat","valueType":"string"},{"name":"fontName","rangeEnd":45,"rangeStart":42,"value":"Segoe UI Symbol","valueType":"string"},{"name":"fontItalic","rangeEnd":127,"rangeStart":0,"value":0,"valueType":"int"},{"name":"underline","rangeEnd":127,"rangeStart":0,"value":0,"valueType":"int"}],
                            "duration" : 0
                          }
                        ]
                      }
                    },
                    "attributes" : {
                      "autoRotateText" : true
                    },
                    "parameters" : {
                      "translation0" : 260.631641825227,
                      "translation1" : 52.2114764667501
                    },
                    "effects" : [
                        {
                          "effectName" : "DropShadow",
                          "category" : "categoryVisualEffects",
                          "parameters" : {
                            "angle" : 5.49778714378214,
                            "blur" : 10.0,
                            "color-alpha" : 1.0,
                            "color-blue" : 0.1216,
                            "color-green" : 0.1216,
                            "color-red" : 0.1216,
                            "enabled" : 1,
                            "offset" : 30.8333333333333,
                            "opacity" : 0.4
                          },
                          "metadata" : {
                            "default-dropshadow-offset" : 10.0
                          }
                        }
                    ],
                    "start" : 5651,
                    "duration" : 294,
                    "mediaStart" : -20,
                    "mediaDuration" : 294,
                    "scalar" : 1,
                    "metadata" : {
                      "WinSubProjectDisplayName" : "",
                      "clipSpeedAttribute" : false,
                      "default-HAlign" : "center",
                      "default-VAlign" : "center",
                      "default-text-attributes" : "[{\"name\":\"fgColor\",\"rangeEnd\":3,\"rangeStart\":0,\"value\":\"(255,255,255,255)\",\"valueType\":\"color\"},{\"name\":\"underline\",\"rangeEnd\":3,\"rangeStart\":0,\"value\":0,\"valueType\":\"int\"},{\"name\":\"fontSize\",\"rangeEnd\":3,\"rangeStart\":0,\"value\":96,\"valueType\":\"double\"},{\"name\":\"fontWeight\",\"rangeEnd\":3,\"rangeStart\":0,\"value\":400,\"valueType\":\"int\"},{\"name\":\"fontName\",\"rangeEnd\":3,\"rangeStart\":0,\"value\":\"Montserrat\",\"valueType\":\"string\"}]",
                      "default-translation0" : 0.0,
                      "default-translation1" : 0.0
                    },
                    "animationTracks" : {

                    }
                  },
                  {
                    "id" : 128,
                    "_type" : "Callout",
                    "def" : {
                      "kind" : "remix",
                      "shape" : "text",
                      "style" : "basic",
                      "height" : 186.542837637866,
                      "width" : 500.372624872165,
                      "word-wrap" : 1.0,
                      "horizontal-alignment" : "center",
                      "text" : "12 MP, f/2.2, 23mm (wide), 1/3.6\"\rSL 3D, (depth/biometrics sensor)",
                      "vertical-alignment" : "center",
                      "font" : {
                        "color-blue" : 1.0,
                        "color-green" : 1.0,
                        "color-red" : 1.0,
                        "size" : 96.0,
                        "tracking" : 0.0,
                        "name" : "Montserrat",
                        "weight" : "Regular"
                      },
                      "textAttributes" : {
                        "type" : "textAttributeList",
                        "keyframes" : [
                          {
                            "time" : 0,
                            "value" : [{"name":"fontName","rangeEnd":66,"rangeStart":0,"value":"Montserrat","valueType":"string"},{"name":"fontSize","rangeEnd":66,"rangeStart":0,"value":96,"valueType":"double"},{"name":"strikethrough","rangeEnd":66,"rangeStart":0,"value":0,"valueType":"int"},{"name":"fontWeight","rangeEnd":66,"rangeStart":0,"value":400,"valueType":"int"},{"name":"fgColor","rangeEnd":66,"rangeStart":0,"value":"(152,56,56,255)","valueType":"color"},{"name":"underline","rangeEnd":66,"rangeStart":0,"value":0,"valueType":"int"},{"name":"fontItalic","rangeEnd":66,"rangeStart":0,"value":0,"valueType":"int"}],
                            "duration" : 0
                          }
                        ]
                      }
                    },
                    "attributes" : {
                      "autoRotateText" : true
                    },
                    "parameters" : {
                      "translation0" : 271.539204850328,
                      "translation1" : 66.8701217431559
                    },
                    "effects" : [
                        {
                          "effectName" : "DropShadow",
                          "category" : "categoryVisualEffects",
                          "parameters" : {
                            "angle" : 5.49778714378214,
                            "blur" : 10.0,
                            "color-alpha" : 1.0,
                            "color-blue" : 0.1216,
                            "color-green" : 0.1216,
                            "color-red" : 0.1216,
                            "enabled" : 1,
                            "offset" : 30.8333333333333,
                            "opacity" : 0.4
                          },
                          "metadata" : {
                            "default-dropshadow-offset" : 10.0
                          }
                        }
                    ],
                    "start" : 5998,
                    "duration" : 269,
                    "mediaStart" : -20,
                    "mediaDuration" : 269,
                    "scalar" : 1,
                    "metadata" : {
                      "WinSubProjectDisplayName" : "",
                      "clipSpeedAttribute" : false,
                      "default-HAlign" : "center",
                      "default-VAlign" : "center",
                      "default-text-attributes" : "[{\"name\":\"fgColor\",\"rangeEnd\":3,\"rangeStart\":0,\"value\":\"(255,255,255,255)\",\"valueType\":\"color\"},{\"name\":\"underline\",\"rangeEnd\":3,\"rangeStart\":0,\"value\":0,\"valueType\":\"int\"},{\"name\":\"fontSize\",\"rangeEnd\":3,\"rangeStart\":0,\"value\":96,\"valueType\":\"double\"},{\"name\":\"fontWeight\",\"rangeEnd\":3,\"rangeStart\":0,\"value\":400,\"valueType\":\"int\"},{\"name\":\"fontName\",\"rangeEnd\":3,\"rangeStart\":0,\"value\":\"Montserrat\",\"valueType\":\"string\"}]",
                      "default-translation0" : 0.0,
                      "default-translation1" : 0.0
                    },
                    "animationTracks" : {

                    }
                  },
                  {
                    "id" : 129,
                    "_type" : "Callout",
                    "def" : {
                      "kind" : "remix",
                      "shape" : "text",
                      "style" : "basic",
                      "height" : 148.307543520243,
                      "width" : 412.137330754917,
                      "word-wrap" : 1.0,
                      "horizontal-alignment" : "center",
                      "text" : "HDR",
                      "vertical-alignment" : "center",
                      "font" : {
                        "color-blue" : 1.0,
                        "color-green" : 1.0,
                        "color-red" : 1.0,
                        "size" : 96.0,
                        "tracking" : 0.0,
                        "name" : "Montserrat",
                        "weight" : "Regular"
                      },
                      "textAttributes" : {
                        "type" : "textAttributeList",
                        "keyframes" : [
                          {
                            "time" : 0,
                            "value" : [{"name":"fontName","rangeEnd":3,"rangeStart":0,"value":"Montserrat","valueType":"string"},{"name":"fontWeight","rangeEnd":3,"rangeStart":0,"value":400,"valueType":"int"},{"name":"fontItalic","rangeEnd":3,"rangeStart":0,"value":0,"valueType":"int"},{"name":"fontSize","rangeEnd":3,"rangeStart":0,"value":96,"valueType":"double"},{"name":"fgColor","rangeEnd":3,"rangeStart":0,"value":"(152,56,56,255)","valueType":"color"},{"name":"underline","rangeEnd":3,"rangeStart":0,"value":0,"valueType":"int"},{"name":"strikethrough","rangeEnd":3,"rangeStart":0,"value":0,"valueType":"int"}],
                            "duration" : 0
                          }
                        ]
                      }
                    },
                    "attributes" : {
                      "autoRotateText" : true
                    },
                    "parameters" : {
                      "translation0" : 283.337524178005,
                      "translation1" : 86.1054158607794
                    },
                    "effects" : [
                        {
                          "effectName" : "DropShadow",
                          "category" : "categoryVisualEffects",
                          "parameters" : {
                            "angle" : 5.49778714378214,
                            "blur" : 10.0,
                            "color-alpha" : 1.0,
                            "color-blue" : 0.1216,
                            "color-green" : 0.1216,
                            "color-red" : 0.1216,
                            "enabled" : 1,
                            "offset" : 30.8333333333333,
                            "opacity" : 0.4
                          },
                          "metadata" : {
                            "default-dropshadow-offset" : 10.0
                          }
                        }
                    ],
                    "start" : 6317,
                    "duration" : 229,
                    "mediaStart" : -20,
                    "mediaDuration" : 229,
                    "scalar" : 1,
                    "metadata" : {
                      "WinSubProjectDisplayName" : "",
                      "clipSpeedAttribute" : false,
                      "default-HAlign" : "center",
                      "default-VAlign" : "center",
                      "default-text-attributes" : "[{\"name\":\"fgColor\",\"rangeEnd\":3,\"rangeStart\":0,\"value\":\"(255,255,255,255)\",\"valueType\":\"color\"},{\"name\":\"underline\",\"rangeEnd\":3,\"rangeStart\":0,\"value\":0,\"valueType\":\"int\"},{\"name\":\"fontSize\",\"rangeEnd\":3,\"rangeStart\":0,\"value\":96,\"valueType\":\"double\"},{\"name\":\"fontWeight\",\"rangeEnd\":3,\"rangeStart\":0,\"value\":400,\"valueType\":\"int\"},{\"name\":\"fontName\",\"rangeEnd\":3,\"rangeStart\":0,\"value\":\"Montserrat\",\"valueType\":\"string\"}]",
                      "default-translation0" : 0.0,
                      "default-translation1" : 0.0
                    },
                    "animationTracks" : {

                    }
                  },
                  {
                    "id" : 130,
                    "_type" : "Callout",
                    "def" : {
                      "kind" : "remix",
                      "shape" : "text",
                      "style" : "basic",
                      "height" : 208.307543520156,
                      "width" : 472.137330754849,
                      "word-wrap" : 1.0,
                      "horizontal-alignment" : "center",
                      "text" : "4K@24/25/30/60fps, 1080p@30/60/120fps, gyro-EIS",
                      "vertical-alignment" : "center",
                      "font" : {
                        "color-blue" : 1.0,
                        "color-green" : 1.0,
                        "color-red" : 1.0,
                        "size" : 96.0,
                        "tracking" : 0.0,
                        "name" : "Montserrat",
                        "weight" : "Regular"
                      },
                      "textAttributes" : {
                        "type" : "textAttributeList",
                        "keyframes" : [
                          {
                            "time" : 0,
                            "value" : [{"name":"fontWeight","rangeEnd":47,"rangeStart":0,"value":400,"valueType":"int"},{"name":"fontSize","rangeEnd":47,"rangeStart":0,"value":96,"valueType":"double"},{"name":"strikethrough","rangeEnd":47,"rangeStart":0,"value":0,"valueType":"int"},{"name":"fontItalic","rangeEnd":47,"rangeStart":0,"value":0,"valueType":"int"},{"name":"fgColor","rangeEnd":47,"rangeStart":0,"value":"(152,56,56,255)","valueType":"color"},{"name":"fontName","rangeEnd":47,"rangeStart":0,"value":"Montserrat","valueType":"string"},{"name":"underline","rangeEnd":47,"rangeStart":0,"value":0,"valueType":"int"}],
                            "duration" : 0
                          }
                        ]
                      }
                    },
                    "attributes" : {
                      "autoRotateText" : true
                    },
                    "parameters" : {
                      "translation0" : 253.337524178073,
                      "translation1" : 116.105415860779
                    },
                    "effects" : [
                        {
                          "effectName" : "DropShadow",
                          "category" : "categoryVisualEffects",
                          "parameters" : {
                            "angle" : 5.49778714378214,
                            "blur" : 10.0,
                            "color-alpha" : 1.0,
                            "color-blue" : 0.1216,
                            "color-green" : 0.1216,
                            "color-red" : 0.1216,
                            "enabled" : 1,
                            "offset" : 30.8333333333333,
                            "opacity" : 0.4
                          },
                          "metadata" : {
                            "default-dropshadow-offset" : 10.0
                          }
                        }
                    ],
                    "start" : 6582,
                    "duration" : 290,
                    "mediaStart" : -20,
                    "mediaDuration" : 290,
                    "scalar" : 1,
                    "metadata" : {
                      "WinSubProjectDisplayName" : "",
                      "clipSpeedAttribute" : false,
                      "default-HAlign" : "center",
                      "default-VAlign" : "center",
                      "default-text-attributes" : "[{\"name\":\"fgColor\",\"rangeEnd\":3,\"rangeStart\":0,\"value\":\"(255,255,255,255)\",\"valueType\":\"color\"},{\"name\":\"underline\",\"rangeEnd\":3,\"rangeStart\":0,\"value\":0,\"valueType\":\"int\"},{\"name\":\"fontSize\",\"rangeEnd\":3,\"rangeStart\":0,\"value\":96,\"valueType\":\"double\"},{\"name\":\"fontWeight\",\"rangeEnd\":3,\"rangeStart\":0,\"value\":400,\"valueType\":\"int\"},{\"name\":\"fontName\",\"rangeEnd\":3,\"rangeStart\":0,\"value\":\"Montserrat\",\"valueType\":\"string\"}]",
                      "default-translation0" : 0.0,
                      "default-translation1" : 0.0
                    },
                    "animationTracks" : {

                    }
                  },
                  {
                    "id" : 131,
                    "_type" : "Callout",
                    "def" : {
                      "kind" : "remix",
                      "shape" : "text",
                      "style" : "basic",
                      "height" : 208.307543520156,
                      "width" : 440.708759326354,
                      "word-wrap" : 1.0,
                      "horizontal-alignment" : "center",
                      "text" : "Yes",
                      "vertical-alignment" : "center",
                      "font" : {
                        "color-blue" : 1.0,
                        "color-green" : 1.0,
                        "color-red" : 1.0,
                        "size" : 96.0,
                        "tracking" : 0.0,
                        "name" : "Montserrat",
                        "weight" : "Regular"
                      },
                      "textAttributes" : {
                        "type" : "textAttributeList",
                        "keyframes" : [
                          {
                            "time" : 0,
                            "value" : [{"name":"underline","rangeEnd":3,"rangeStart":0,"value":0,"valueType":"int"},{"name":"fontSize","rangeEnd":3,"rangeStart":0,"value":96,"valueType":"double"},{"name":"strikethrough","rangeEnd":3,"rangeStart":0,"value":0,"valueType":"int"},{"name":"fgColor","rangeEnd":3,"rangeStart":0,"value":"(152,56,56,255)","valueType":"color"},{"name":"fontName","rangeEnd":3,"rangeStart":0,"value":"Montserrat","valueType":"string"},{"name":"fontWeight","rangeEnd":3,"rangeStart":0,"value":400,"valueType":"int"},{"name":"fontItalic","rangeEnd":3,"rangeStart":0,"value":0,"valueType":"int"}],
                            "duration" : 0
                          }
                        ]
                      }
                    },
                    "attributes" : {
                      "autoRotateText" : true
                    },
                    "parameters" : {
                      "translation0" : 294.480381320941,
                      "translation1" : 113.248273003627
                    },
                    "effects" : [
                        {
                          "effectName" : "DropShadow",
                          "category" : "categoryVisualEffects",
                          "parameters" : {
                            "angle" : 5.49778714378214,
                            "blur" : 10.0,
                            "color-alpha" : 1.0,
                            "color-blue" : 0.1216,
                            "color-green" : 0.1216,
                            "color-red" : 0.1216,
                            "enabled" : 1,
                            "offset" : 30.8333333333333,
                            "opacity" : 0.4
                          },
                          "metadata" : {
                            "default-dropshadow-offset" : 10.0
                          }
                        }
                    ],
                    "start" : 6937,
                    "duration" : 220,
                    "mediaStart" : -20,
                    "mediaDuration" : 220,
                    "scalar" : 1,
                    "metadata" : {
                      "WinSubProjectDisplayName" : "",
                      "clipSpeedAttribute" : false,
                      "default-HAlign" : "center",
                      "default-VAlign" : "center",
                      "default-text-attributes" : "[{\"name\":\"fgColor\",\"rangeEnd\":3,\"rangeStart\":0,\"value\":\"(255,255,255,255)\",\"valueType\":\"color\"},{\"name\":\"underline\",\"rangeEnd\":3,\"rangeStart\":0,\"value\":0,\"valueType\":\"int\"},{\"name\":\"fontSize\",\"rangeEnd\":3,\"rangeStart\":0,\"value\":96,\"valueType\":\"double\"},{\"name\":\"fontWeight\",\"rangeEnd\":3,\"rangeStart\":0,\"value\":400,\"valueType\":\"int\"},{\"name\":\"fontName\",\"rangeEnd\":3,\"rangeStart\":0,\"value\":\"Montserrat\",\"valueType\":\"string\"}]",
                      "default-translation0" : 0.0,
                      "default-translation1" : 0.0
                    },
                    "animationTracks" : {

                    }
                  },
                  {
                    "id" : 132,
                    "_type" : "Callout",
                    "def" : {
                      "kind" : "remix",
                      "shape" : "text",
                      "style" : "basic",
                      "height" : 208.307543520156,
                      "width" : 440.708759326354,
                      "word-wrap" : 1.0,
                      "horizontal-alignment" : "center",
                      "text" : "NO",
                      "vertical-alignment" : "center",
                      "font" : {
                        "color-blue" : 1.0,
                        "color-green" : 1.0,
                        "color-red" : 1.0,
                        "size" : 96.0,
                        "tracking" : 0.0,
                        "name" : "Montserrat",
                        "weight" : "Regular"
                      },
                      "textAttributes" : {
                        "type" : "textAttributeList",
                        "keyframes" : [
                          {
                            "time" : 0,
                            "value" : [{"name":"fontWeight","rangeEnd":2,"rangeStart":0,"value":400,"valueType":"int"},{"name":"strikethrough","rangeEnd":2,"rangeStart":0,"value":0,"valueType":"int"},{"name":"fontSize","rangeEnd":2,"rangeStart":0,"value":96,"valueType":"double"},{"name":"fontName","rangeEnd":2,"rangeStart":0,"value":"Montserrat","valueType":"string"},{"name":"fgColor","rangeEnd":2,"rangeStart":0,"value":"(152,56,56,255)","valueType":"color"},{"name":"fontItalic","rangeEnd":2,"rangeStart":0,"value":0,"valueType":"int"},{"name":"underline","rangeEnd":2,"rangeStart":0,"value":0,"valueType":"int"}],
                            "duration" : 0
                          }
                        ]
                      }
                    },
                    "attributes" : {
                      "autoRotateText" : true
                    },
                    "parameters" : {
                      "translation0" : 294.480381320941,
                      "translation1" : 113.248273003627
                    },
                    "effects" : [
                        {
                          "effectName" : "DropShadow",
                          "category" : "categoryVisualEffects",
                          "parameters" : {
                            "angle" : 5.49778714378214,
                            "blur" : 10.0,
                            "color-alpha" : 1.0,
                            "color-blue" : 0.1216,
                            "color-green" : 0.1216,
                            "color-red" : 0.1216,
                            "enabled" : 1,
                            "offset" : 30.8333333333333,
                            "opacity" : 0.4
                          },
                          "metadata" : {
                            "default-dropshadow-offset" : 10.0
                          }
                        }
                    ],
                    "start" : 7189,
                    "duration" : 244,
                    "mediaStart" : -20,
                    "mediaDuration" : 244,
                    "scalar" : 1,
                    "metadata" : {
                      "WinSubProjectDisplayName" : "",
                      "clipSpeedAttribute" : false,
                      "default-HAlign" : "center",
                      "default-VAlign" : "center",
                      "default-text-attributes" : "[{\"name\":\"fgColor\",\"rangeEnd\":3,\"rangeStart\":0,\"value\":\"(255,255,255,255)\",\"valueType\":\"color\"},{\"name\":\"underline\",\"rangeEnd\":3,\"rangeStart\":0,\"value\":0,\"valueType\":\"int\"},{\"name\":\"fontSize\",\"rangeEnd\":3,\"rangeStart\":0,\"value\":96,\"valueType\":\"double\"},{\"name\":\"fontWeight\",\"rangeEnd\":3,\"rangeStart\":0,\"value\":400,\"valueType\":\"int\"},{\"name\":\"fontName\",\"rangeEnd\":3,\"rangeStart\":0,\"value\":\"Montserrat\",\"valueType\":\"string\"}]",
                      "default-translation0" : 0.0,
                      "default-translation1" : 0.0
                    },
                    "animationTracks" : {

                    }
                  },
                  {
                    "id" : 133,
                    "_type" : "Callout",
                    "def" : {
                      "kind" : "remix",
                      "shape" : "text",
                      "style" : "basic",
                      "height" : 208.307543520156,
                      "width" : 446.423045040761,
                      "word-wrap" : 1.0,
                      "horizontal-alignment" : "center",
                      "text" : "\tWi-Fi 802.11 a/b/g/n/ac/6, dual-band, hotspot",
                      "vertical-alignment" : "center",
                      "font" : {
                        "color-blue" : 1.0,
                        "color-green" : 1.0,
                        "color-red" : 1.0,
                        "size" : 96.0,
                        "tracking" : 0.0,
                        "name" : "Montserrat",
                        "weight" : "Regular"
                      },
                      "textAttributes" : {
                        "type" : "textAttributeList",
                        "keyframes" : [
                          {
                            "time" : 0,
                            "value" : [{"name":"fontSize","rangeEnd":46,"rangeStart":0,"value":96,"valueType":"double"},{"name":"strikethrough","rangeEnd":46,"rangeStart":0,"value":0,"valueType":"int"},{"name":"fontName","rangeEnd":46,"rangeStart":0,"value":"Montserrat","valueType":"string"},{"name":"fontItalic","rangeEnd":46,"rangeStart":0,"value":0,"valueType":"int"},{"name":"fontWeight","rangeEnd":46,"rangeStart":0,"value":400,"valueType":"int"},{"name":"fgColor","rangeEnd":46,"rangeStart":0,"value":"(152,56,56,255)","valueType":"color"},{"name":"underline","rangeEnd":46,"rangeStart":0,"value":0,"valueType":"int"}],
                            "duration" : 0
                          }
                        ]
                      }
                    },
                    "attributes" : {
                      "autoRotateText" : true
                    },
                    "parameters" : {
                      "translation0" : 291.766095606534,
                      "translation1" : 113.248273003627
                    },
                    "effects" : [
                        {
                          "effectName" : "DropShadow",
                          "category" : "categoryVisualEffects",
                          "parameters" : {
                            "angle" : 5.49778714378214,
                            "blur" : 10.0,
                            "color-alpha" : 1.0,
                            "color-blue" : 0.1216,
                            "color-green" : 0.1216,
                            "color-red" : 0.1216,
                            "enabled" : 1,
                            "offset" : 30.8333333333333,
                            "opacity" : 0.4
                          },
                          "metadata" : {
                            "default-dropshadow-offset" : 10.0
                          }
                        }
                    ],
                    "start" : 7487,
                    "duration" : 293,
                    "mediaStart" : -20,
                    "mediaDuration" : 293,
                    "scalar" : 1,
                    "metadata" : {
                      "WinSubProjectDisplayName" : "",
                      "clipSpeedAttribute" : false,
                      "default-HAlign" : "center",
                      "default-VAlign" : "center",
                      "default-text-attributes" : "[{\"name\":\"fgColor\",\"rangeEnd\":3,\"rangeStart\":0,\"value\":\"(255,255,255,255)\",\"valueType\":\"color\"},{\"name\":\"underline\",\"rangeEnd\":3,\"rangeStart\":0,\"value\":0,\"valueType\":\"int\"},{\"name\":\"fontSize\",\"rangeEnd\":3,\"rangeStart\":0,\"value\":96,\"valueType\":\"double\"},{\"name\":\"fontWeight\",\"rangeEnd\":3,\"rangeStart\":0,\"value\":400,\"valueType\":\"int\"},{\"name\":\"fontName\",\"rangeEnd\":3,\"rangeStart\":0,\"value\":\"Montserrat\",\"valueType\":\"string\"}]",
                      "default-translation0" : 0.0,
                      "default-translation1" : 0.0
                    },
                    "animationTracks" : {

                    }
                  },
                  {
                    "id" : 134,
                    "_type" : "Callout",
                    "def" : {
                      "kind" : "remix",
                      "shape" : "text",
                      "style" : "basic",
                      "height" : 125.450400662917,
                      "width" : 420.708759325887,
                      "word-wrap" : 1.0,
                      "horizontal-alignment" : "center",
                      "text" : "5.0, A2DP, LE",
                      "vertical-alignment" : "center",
                      "font" : {
                        "color-blue" : 1.0,
                        "color-green" : 1.0,
                        "color-red" : 1.0,
                        "size" : 96.0,
                        "tracking" : 0.0,
                        "name" : "Montserrat",
                        "weight" : "Regular"
                      },
                      "textAttributes" : {
                        "type" : "textAttributeList",
                        "keyframes" : [
                          {
                            "time" : 0,
                            "value" : [{"name":"fgColor","rangeEnd":13,"rangeStart":0,"value":"(152,56,56,255)","valueType":"color"},{"name":"fontSize","rangeEnd":13,"rangeStart":0,"value":96,"valueType":"double"},{"name":"fontItalic","rangeEnd":13,"rangeStart":0,"value":0,"valueType":"int"},{"name":"strikethrough","rangeEnd":13,"rangeStart":0,"value":0,"valueType":"int"},{"name":"fontWeight","rangeEnd":13,"rangeStart":0,"value":400,"valueType":"int"},{"name":"fontName","rangeEnd":13,"rangeStart":0,"value":"Montserrat","valueType":"string"},{"name":"underline","rangeEnd":13,"rangeStart":0,"value":0,"valueType":"int"}],
                            "duration" : 0
                          }
                        ]
                      }
                    },
                    "attributes" : {
                      "autoRotateText" : true
                    },
                    "parameters" : {
                      "translation0" : 284.480381320941,
                      "translation1" : 71.748273003627
                    },
                    "effects" : [
                        {
                          "effectName" : "DropShadow",
                          "category" : "categoryVisualEffects",
                          "parameters" : {
                            "angle" : 5.49778714378214,
                            "blur" : 10.0,
                            "color-alpha" : 1.0,
                            "color-blue" : 0.1216,
                            "color-green" : 0.1216,
                            "color-red" : 0.1216,
                            "enabled" : 1,
                            "offset" : 30.8333333333333,
                            "opacity" : 0.4
                          },
                          "metadata" : {
                            "default-dropshadow-offset" : 10.0
                          }
                        }
                    ],
                    "start" : 7821,
                    "duration" : 296,
                    "mediaStart" : -20,
                    "mediaDuration" : 296,
                    "scalar" : 1,
                    "metadata" : {
                      "WinSubProjectDisplayName" : "",
                      "clipSpeedAttribute" : false,
                      "default-HAlign" : "center",
                      "default-VAlign" : "center",
                      "default-text-attributes" : "[{\"name\":\"fgColor\",\"rangeEnd\":3,\"rangeStart\":0,\"value\":\"(255,255,255,255)\",\"valueType\":\"color\"},{\"name\":\"underline\",\"rangeEnd\":3,\"rangeStart\":0,\"value\":0,\"valueType\":\"int\"},{\"name\":\"fontSize\",\"rangeEnd\":3,\"rangeStart\":0,\"value\":96,\"valueType\":\"double\"},{\"name\":\"fontWeight\",\"rangeEnd\":3,\"rangeStart\":0,\"value\":400,\"valueType\":\"int\"},{\"name\":\"fontName\",\"rangeEnd\":3,\"rangeStart\":0,\"value\":\"Montserrat\",\"valueType\":\"string\"}]",
                      "default-translation0" : 0.0,
                      "default-translation1" : 0.0
                    },
                    "animationTracks" : {

                    }
                  },
                  {
                    "id" : 135,
                    "_type" : "Callout",
                    "def" : {
                      "kind" : "remix",
                      "shape" : "text",
                      "style" : "basic",
                      "height" : 125.450400662917,
                      "width" : 420.708759325887,
                      "word-wrap" : 1.0,
                      "horizontal-alignment" : "center",
                      "text" : "Yes, with A-GPS, GLONASS, GALILEO, BDS, QZSS",
                      "vertical-alignment" : "center",
                      "font" : {
                        "color-blue" : 1.0,
                        "color-green" : 1.0,
                        "color-red" : 1.0,
                        "size" : 96.0,
                        "tracking" : 0.0,
                        "name" : "Montserrat",
                        "weight" : "Regular"
                      },
                      "textAttributes" : {
                        "type" : "textAttributeList",
                        "keyframes" : [
                          {
                            "time" : 0,
                            "value" : [{"name":"fgColor","rangeEnd":44,"rangeStart":0,"value":"(152,56,56,255)","valueType":"color"},{"name":"underline","rangeEnd":44,"rangeStart":0,"value":0,"valueType":"int"},{"name":"fontItalic","rangeEnd":44,"rangeStart":0,"value":0,"valueType":"int"},{"name":"fontWeight","rangeEnd":44,"rangeStart":0,"value":400,"valueType":"int"},{"name":"strikethrough","rangeEnd":44,"rangeStart":0,"value":0,"valueType":"int"},{"name":"fontSize","rangeEnd":44,"rangeStart":0,"value":96,"valueType":"double"},{"name":"fontName","rangeEnd":44,"rangeStart":0,"value":"Montserrat","valueType":"string"}],
                            "duration" : 0
                          }
                        ]
                      }
                    },
                    "attributes" : {
                      "autoRotateText" : true
                    },
                    "parameters" : {
                      "translation0" : 284.480381320941,
                      "translation1" : 71.748273003627
                    },
                    "effects" : [
                        {
                          "effectName" : "DropShadow",
                          "category" : "categoryVisualEffects",
                          "parameters" : {
                            "angle" : 5.49778714378214,
                            "blur" : 10.0,
                            "color-alpha" : 1.0,
                            "color-blue" : 0.1216,
                            "color-green" : 0.1216,
                            "color-red" : 0.1216,
                            "enabled" : 1,
                            "offset" : 30.8333333333333,
                            "opacity" : 0.4
                          },
                          "metadata" : {
                            "default-dropshadow-offset" : 10.0
                          }
                        }
                    ],
                    "start" : 8167,
                    "duration" : 279,
                    "mediaStart" : 9,
                    "mediaDuration" : 279,
                    "scalar" : 1,
                    "metadata" : {
                      "WinSubProjectDisplayName" : "",
                      "clipSpeedAttribute" : false,
                      "default-HAlign" : "center",
                      "default-VAlign" : "center",
                      "default-text-attributes" : "[{\"name\":\"fgColor\",\"rangeEnd\":3,\"rangeStart\":0,\"value\":\"(255,255,255,255)\",\"valueType\":\"color\"},{\"name\":\"underline\",\"rangeEnd\":3,\"rangeStart\":0,\"value\":0,\"valueType\":\"int\"},{\"name\":\"fontSize\",\"rangeEnd\":3,\"rangeStart\":0,\"value\":96,\"valueType\":\"double\"},{\"name\":\"fontWeight\",\"rangeEnd\":3,\"rangeStart\":0,\"value\":400,\"valueType\":\"int\"},{\"name\":\"fontName\",\"rangeEnd\":3,\"rangeStart\":0,\"value\":\"Montserrat\",\"valueType\":\"string\"}]",
                      "default-translation0" : 0.0,
                      "default-translation1" : 0.0
                    },
                    "animationTracks" : {

                    }
                  },
                  {
                    "id" : 136,
                    "_type" : "Callout",
                    "def" : {
                      "kind" : "remix",
                      "shape" : "text",
                      "style" : "basic",
                      "height" : 125.450400662917,
                      "width" : 420.708759325887,
                      "word-wrap" : 1.0,
                      "horizontal-alignment" : "center",
                      "text" : "No",
                      "vertical-alignment" : "center",
                      "font" : {
                        "color-blue" : 1.0,
                        "color-green" : 1.0,
                        "color-red" : 1.0,
                        "size" : 96.0,
                        "tracking" : 0.0,
                        "name" : "Montserrat",
                        "weight" : "Regular"
                      },
                      "textAttributes" : {
                        "type" : "textAttributeList",
                        "keyframes" : [
                          {
                            "time" : 0,
                            "value" : [{"name":"fontSize","rangeEnd":2,"rangeStart":0,"value":96,"valueType":"double"},{"name":"fontName","rangeEnd":2,"rangeStart":0,"value":"Montserrat","valueType":"string"},{"name":"fontItalic","rangeEnd":2,"rangeStart":0,"value":0,"valueType":"int"},{"name":"fontWeight","rangeEnd":2,"rangeStart":0,"value":400,"valueType":"int"},{"name":"strikethrough","rangeEnd":2,"rangeStart":0,"value":0,"valueType":"int"},{"name":"underline","rangeEnd":2,"rangeStart":0,"value":0,"valueType":"int"},{"name":"fgColor","rangeEnd":2,"rangeStart":0,"value":"(152,56,56,255)","valueType":"color"}],
                            "duration" : 0
                          }
                        ]
                      }
                    },
                    "attributes" : {
                      "autoRotateText" : true
                    },
                    "parameters" : {
                      "translation0" : 301.623238463767,
                      "translation1" : 74.6054158607683
                    },
                    "effects" : [
                        {
                          "effectName" : "DropShadow",
                          "category" : "categoryVisualEffects",
                          "parameters" : {
                            "angle" : 5.49778714378214,
                            "blur" : 10.0,
                            "color-alpha" : 1.0,
                            "color-blue" : 0.1216,
                            "color-green" : 0.1216,
                            "color-red" : 0.1216,
                            "enabled" : 1,
                            "offset" : 30.8333333333333,
                            "opacity" : 0.4
                          },
                          "metadata" : {
                            "default-dropshadow-offset" : 10.0
                          }
                        }
                    ],
                    "start" : 8489,
                    "duration" : 290,
                    "mediaStart" : -20,
                    "mediaDuration" : 290,
                    "scalar" : 1,
                    "metadata" : {
                      "WinSubProjectDisplayName" : "",
                      "clipSpeedAttribute" : false,
                      "default-HAlign" : "center",
                      "default-VAlign" : "center",
                      "default-text-attributes" : "[{\"name\":\"fgColor\",\"rangeEnd\":3,\"rangeStart\":0,\"value\":\"(255,255,255,255)\",\"valueType\":\"color\"},{\"name\":\"underline\",\"rangeEnd\":3,\"rangeStart\":0,\"value\":0,\"valueType\":\"int\"},{\"name\":\"fontSize\",\"rangeEnd\":3,\"rangeStart\":0,\"value\":96,\"valueType\":\"double\"},{\"name\":\"fontWeight\",\"rangeEnd\":3,\"rangeStart\":0,\"value\":400,\"valueType\":\"int\"},{\"name\":\"fontName\",\"rangeEnd\":3,\"rangeStart\":0,\"value\":\"Montserrat\",\"valueType\":\"string\"}]",
                      "default-translation0" : 0.0,
                      "default-translation1" : 0.0
                    },
                    "animationTracks" : {

                    }
                  },
                  {
                    "id" : 137,
                    "_type" : "Callout",
                    "def" : {
                      "kind" : "remix",
                      "shape" : "text",
                      "style" : "basic",
                      "height" : 125.450400662917,
                      "width" : 420.708759325887,
                      "word-wrap" : 1.0,
                      "horizontal-alignment" : "center",
                      "text" : "Lightning, USB 2.0",
                      "vertical-alignment" : "center",
                      "font" : {
                        "color-blue" : 1.0,
                        "color-green" : 1.0,
                        "color-red" : 1.0,
                        "size" : 96.0,
                        "tracking" : 0.0,
                        "name" : "Montserrat",
                        "weight" : "Regular"
                      },
                      "textAttributes" : {
                        "type" : "textAttributeList",
                        "keyframes" : [
                          {
                            "time" : 0,
                            "value" : [{"name":"fontItalic","rangeEnd":18,"rangeStart":0,"value":0,"valueType":"int"},{"name":"fontName","rangeEnd":18,"rangeStart":0,"value":"Montserrat","valueType":"string"},{"name":"fontSize","rangeEnd":18,"rangeStart":0,"value":96,"valueType":"double"},{"name":"fgColor","rangeEnd":18,"rangeStart":0,"value":"(152,56,56,255)","valueType":"color"},{"name":"fontWeight","rangeEnd":18,"rangeStart":0,"value":400,"valueType":"int"},{"name":"underline","rangeEnd":18,"rangeStart":0,"value":0,"valueType":"int"},{"name":"strikethrough","rangeEnd":18,"rangeStart":0,"value":0,"valueType":"int"}],
                            "duration" : 0
                          }
                        ]
                      }
                    },
                    "attributes" : {
                      "autoRotateText" : true
                    },
                    "parameters" : {
                      "translation0" : 301.623238463767,
                      "translation1" : 74.6054158607683
                    },
                    "effects" : [
                        {
                          "effectName" : "DropShadow",
                          "category" : "categoryVisualEffects",
                          "parameters" : {
                            "angle" : 5.49778714378214,
                            "blur" : 10.0,
                            "color-alpha" : 1.0,
                            "color-blue" : 0.1216,
                            "color-green" : 0.1216,
                            "color-red" : 0.1216,
                            "enabled" : 1,
                            "offset" : 30.8333333333333,
                            "opacity" : 0.4
                          },
                          "metadata" : {
                            "default-dropshadow-offset" : 10.0
                          }
                        }
                    ],
                    "start" : 8824,
                    "duration" : 265,
                    "mediaStart" : -20,
                    "mediaDuration" : 265,
                    "scalar" : 1,
                    "metadata" : {
                      "WinSubProjectDisplayName" : "",
                      "clipSpeedAttribute" : false,
                      "default-HAlign" : "center",
                      "default-VAlign" : "center",
                      "default-text-attributes" : "[{\"name\":\"fgColor\",\"rangeEnd\":3,\"rangeStart\":0,\"value\":\"(255,255,255,255)\",\"valueType\":\"color\"},{\"name\":\"underline\",\"rangeEnd\":3,\"rangeStart\":0,\"value\":0,\"valueType\":\"int\"},{\"name\":\"fontSize\",\"rangeEnd\":3,\"rangeStart\":0,\"value\":96,\"valueType\":\"double\"},{\"name\":\"fontWeight\",\"rangeEnd\":3,\"rangeStart\":0,\"value\":400,\"valueType\":\"int\"},{\"name\":\"fontName\",\"rangeEnd\":3,\"rangeStart\":0,\"value\":\"Montserrat\",\"valueType\":\"string\"}]",
                      "default-translation0" : 0.0,
                      "default-translation1" : 0.0
                    },
                    "animationTracks" : {

                    }
                  },
                  {
                    "id" : 138,
                    "_type" : "Callout",
                    "def" : {
                      "kind" : "remix",
                      "shape" : "text",
                      "style" : "basic",
                      "height" : 125.450400662917,
                      "width" : 420.708759325887,
                      "word-wrap" : 1.0,
                      "horizontal-alignment" : "center",
                      "text" : "NO",
                      "vertical-alignment" : "center",
                      "font" : {
                        "color-blue" : 1.0,
                        "color-green" : 1.0,
                        "color-red" : 1.0,
                        "size" : 96.0,
                        "tracking" : 0.0,
                        "name" : "Montserrat",
                        "weight" : "Regular"
                      },
                      "textAttributes" : {
                        "type" : "textAttributeList",
                        "keyframes" : [
                          {
                            "time" : 0,
                            "value" : [{"name":"fontWeight","rangeEnd":2,"rangeStart":0,"value":400,"valueType":"int"},{"name":"fontItalic","rangeEnd":2,"rangeStart":0,"value":0,"valueType":"int"},{"name":"strikethrough","rangeEnd":2,"rangeStart":0,"value":0,"valueType":"int"},{"name":"underline","rangeEnd":2,"rangeStart":0,"value":0,"valueType":"int"},{"name":"fontSize","rangeEnd":2,"rangeStart":0,"value":96,"valueType":"double"},{"name":"fontName","rangeEnd":2,"rangeStart":0,"value":"Montserrat","valueType":"string"},{"name":"fgColor","rangeEnd":2,"rangeStart":0,"value":"(152,56,56,255)","valueType":"color"}],
                            "duration" : 0
                          }
                        ]
                      }
                    },
                    "attributes" : {
                      "autoRotateText" : true
                    },
                    "parameters" : {
                      "translation0" : 301.623238463767,
                      "translation1" : 74.6054158607683
                    },
                    "effects" : [
                        {
                          "effectName" : "DropShadow",
                          "category" : "categoryVisualEffects",
                          "parameters" : {
                            "angle" : 5.49778714378214,
                            "blur" : 10.0,
                            "color-alpha" : 1.0,
                            "color-blue" : 0.1216,
                            "color-green" : 0.1216,
                            "color-red" : 0.1216,
                            "enabled" : 1,
                            "offset" : 30.8333333333333,
                            "opacity" : 0.4
                          },
                          "metadata" : {
                            "default-dropshadow-offset" : 10.0
                          }
                        }
                    ],
                    "start" : 9130,
                    "duration" : 274,
                    "mediaStart" : -20,
                    "mediaDuration" : 274,
                    "scalar" : 1,
                    "metadata" : {
                      "WinSubProjectDisplayName" : "",
                      "clipSpeedAttribute" : false,
                      "default-HAlign" : "center",
                      "default-VAlign" : "center",
                      "default-text-attributes" : "[{\"name\":\"fgColor\",\"rangeEnd\":3,\"rangeStart\":0,\"value\":\"(255,255,255,255)\",\"valueType\":\"color\"},{\"name\":\"underline\",\"rangeEnd\":3,\"rangeStart\":0,\"value\":0,\"valueType\":\"int\"},{\"name\":\"fontSize\",\"rangeEnd\":3,\"rangeStart\":0,\"value\":96,\"valueType\":\"double\"},{\"name\":\"fontWeight\",\"rangeEnd\":3,\"rangeStart\":0,\"value\":400,\"valueType\":\"int\"},{\"name\":\"fontName\",\"rangeEnd\":3,\"rangeStart\":0,\"value\":\"Montserrat\",\"valueType\":\"string\"}]",
                      "default-translation0" : 0.0,
                      "default-translation1" : 0.0
                    },
                    "animationTracks" : {

                    }
                  },
                  {
                    "id" : 139,
                    "_type" : "Callout",
                    "def" : {
                      "kind" : "remix",
                      "shape" : "text",
                      "style" : "basic",
                      "height" : 362.769370804179,
                      "width" : 497.347414788589,
                      "word-wrap" : 1.0,
                      "horizontal-alignment" : "center",
                      "text" : "Face ID, accelerometer, gyro, proximity, compass, barometer\rSiri natural language commands and dictation\rUltra Wideband (UWB) support",
                      "vertical-alignment" : "center",
                      "font" : {
                        "color-blue" : 1.0,
                        "color-green" : 1.0,
                        "color-red" : 1.0,
                        "size" : 96.0,
                        "tracking" : 0.0,
                        "name" : "Montserrat",
                        "weight" : "Regular"
                      },
                      "textAttributes" : {
                        "type" : "textAttributeList",
                        "keyframes" : [
                          {
                            "time" : 0,
                            "value" : [{"name":"fgColor","rangeEnd":133,"rangeStart":0,"value":"(152,56,56,255)","valueType":"color"},{"name":"fontWeight","rangeEnd":133,"rangeStart":0,"value":400,"valueType":"int"},{"name":"fontSize","rangeEnd":133,"rangeStart":0,"value":96,"valueType":"double"},{"name":"underline","rangeEnd":133,"rangeStart":0,"value":0,"valueType":"int"},{"name":"fontItalic","rangeEnd":133,"rangeStart":0,"value":0,"valueType":"int"},{"name":"strikethrough","rangeEnd":133,"rangeStart":0,"value":0,"valueType":"int"},{"name":"fontName","rangeEnd":133,"rangeStart":0,"value":"Montserrat","valueType":"string"}],
                            "duration" : 0
                          }
                        ]
                      }
                    },
                    "attributes" : {
                      "autoRotateText" : true
                    },
                    "parameters" : {
                      "translation0" : 286.17365863111,
                      "translation1" : 7.29905076136625
                    },
                    "effects" : [
                        {
                          "effectName" : "DropShadow",
                          "category" : "categoryVisualEffects",
                          "parameters" : {
                            "angle" : 5.49778714378214,
                            "blur" : 10.0,
                            "color-alpha" : 1.0,
                            "color-blue" : 0.1216,
                            "color-green" : 0.1216,
                            "color-red" : 0.1216,
                            "enabled" : 1,
                            "offset" : 30.8333333333333,
                            "opacity" : 0.4
                          },
                          "metadata" : {
                            "default-dropshadow-offset" : 10.0
                          }
                        }
                    ],
                    "start" : 9449,
                    "duration" : 296,
                    "mediaStart" : -6,
                    "mediaDuration" : 296,
                    "scalar" : 1,
                    "metadata" : {
                      "WinSubProjectDisplayName" : "",
                      "clipSpeedAttribute" : false,
                      "default-HAlign" : "center",
                      "default-VAlign" : "center",
                      "default-rotation2" : 0.0,
                      "default-text-attributes" : "[{\"name\":\"fgColor\",\"rangeEnd\":3,\"rangeStart\":0,\"value\":\"(255,255,255,255)\",\"valueType\":\"color\"},{\"name\":\"underline\",\"rangeEnd\":3,\"rangeStart\":0,\"value\":0,\"valueType\":\"int\"},{\"name\":\"fontSize\",\"rangeEnd\":3,\"rangeStart\":0,\"value\":96,\"valueType\":\"double\"},{\"name\":\"fontWeight\",\"rangeEnd\":3,\"rangeStart\":0,\"value\":400,\"valueType\":\"int\"},{\"name\":\"fontName\",\"rangeEnd\":3,\"rangeStart\":0,\"value\":\"Montserrat\",\"valueType\":\"string\"}]",
                      "default-translation0" : 0.0,
                      "default-translation1" : 0.0
                    },
                    "animationTracks" : {

                    }
                  },
                  {
                    "id" : 140,
                    "_type" : "Callout",
                    "def" : {
                      "kind" : "remix",
                      "shape" : "text",
                      "style" : "basic",
                      "height" : 194.248871695366,
                      "width" : 497.851616469107,
                      "word-wrap" : 1.0,
                      "horizontal-alignment" : "center",
                      "text" : "Li-Ion 4373 mAh, non-removable (16.75 Wh)",
                      "vertical-alignment" : "center",
                      "font" : {
                        "color-blue" : 1.0,
                        "color-green" : 1.0,
                        "color-red" : 1.0,
                        "size" : 96.0,
                        "tracking" : 0.0,
                        "name" : "Montserrat",
                        "weight" : "Regular"
                      },
                      "textAttributes" : {
                        "type" : "textAttributeList",
                        "keyframes" : [
                          {
                            "time" : 0,
                            "value" : [{"name":"fontItalic","rangeEnd":41,"rangeStart":0,"value":0,"valueType":"int"},{"name":"fontWeight","rangeEnd":41,"rangeStart":0,"value":400,"valueType":"int"},{"name":"underline","rangeEnd":41,"rangeStart":0,"value":0,"valueType":"int"},{"name":"fontName","rangeEnd":41,"rangeStart":0,"value":"Montserrat","valueType":"string"},{"name":"strikethrough","rangeEnd":41,"rangeStart":0,"value":0,"valueType":"int"},{"name":"fontSize","rangeEnd":41,"rangeStart":0,"value":96,"valueType":"double"},{"name":"fgColor","rangeEnd":41,"rangeStart":0,"value":"(152,56,56,255)","valueType":"color"}],
                            "duration" : 0
                          }
                        ]
                      }
                    },
                    "attributes" : {
                      "autoRotateText" : true
                    },
                    "parameters" : {
                      "translation0" : 291.55180989172,
                      "translation1" : 48.878373399524
                    },
                    "effects" : [
                        {
                          "effectName" : "DropShadow",
                          "category" : "categoryVisualEffects",
                          "parameters" : {
                            "angle" : 5.49778714378214,
                            "blur" : 10.0,
                            "color-alpha" : 1.0,
                            "color-blue" : 0.1216,
                            "color-green" : 0.1216,
                            "color-red" : 0.1216,
                            "enabled" : 1,
                            "offset" : 30.8333333333333,
                            "opacity" : 0.4
                          },
                          "metadata" : {
                            "default-dropshadow-offset" : 10.0
                          }
                        }
                    ],
                    "start" : 9824,
                    "duration" : 290,
                    "mediaStart" : -20,
                    "mediaDuration" : 290,
                    "scalar" : 1,
                    "metadata" : {
                      "WinSubProjectDisplayName" : "",
                      "clipSpeedAttribute" : false,
                      "default-HAlign" : "center",
                      "default-VAlign" : "center",
                      "default-text-attributes" : "[{\"name\":\"fgColor\",\"rangeEnd\":3,\"rangeStart\":0,\"value\":\"(255,255,255,255)\",\"valueType\":\"color\"},{\"name\":\"underline\",\"rangeEnd\":3,\"rangeStart\":0,\"value\":0,\"valueType\":\"int\"},{\"name\":\"fontSize\",\"rangeEnd\":3,\"rangeStart\":0,\"value\":96,\"valueType\":\"double\"},{\"name\":\"fontWeight\",\"rangeEnd\":3,\"rangeStart\":0,\"value\":400,\"valueType\":\"int\"},{\"name\":\"fontName\",\"rangeEnd\":3,\"rangeStart\":0,\"value\":\"Montserrat\",\"valueType\":\"string\"}]",
                      "default-translation0" : 0.0,
                      "default-translation1" : 0.0
                    },
                    "animationTracks" : {

                    }
                  },
                  {
                    "id" : 141,
                    "_type" : "Callout",
                    "def" : {
                      "kind" : "remix",
                      "shape" : "text",
                      "style" : "basic",
                      "height" : 336.31660788076,
                      "width" : 497.851616469107,
                      "word-wrap" : 1.0,
                      "horizontal-alignment" : "center",
                      "text" : "Fast charging 20W, 50% in 30 min (advertised)\rUSB Power Delivery 2.0\rMagSafe wireless charging 15W\rQi magnetic fast wireless charging 7.5W",
                      "vertical-alignment" : "center",
                      "font" : {
                        "color-blue" : 1.0,
                        "color-green" : 1.0,
                        "color-red" : 1.0,
                        "size" : 96.0,
                        "tracking" : 0.0,
                        "name" : "Montserrat",
                        "weight" : "Regular"
                      },
                      "textAttributes" : {
                        "type" : "textAttributeList",
                        "keyframes" : [
                          {
                            "time" : 0,
                            "value" : [{"name":"fgColor","rangeEnd":138,"rangeStart":0,"value":"(152,56,56,255)","valueType":"color"},{"name":"strikethrough","rangeEnd":138,"rangeStart":0,"value":0,"valueType":"int"},{"name":"fontSize","rangeEnd":138,"rangeStart":0,"value":96,"valueType":"double"},{"name":"fontItalic","rangeEnd":138,"rangeStart":0,"value":0,"valueType":"int"},{"name":"underline","rangeEnd":138,"rangeStart":0,"value":0,"valueType":"int"},{"name":"fontName","rangeEnd":138,"rangeStart":0,"value":"Montserrat","valueType":"string"},{"name":"fontWeight","rangeEnd":138,"rangeStart":0,"value":400,"valueType":"int"}],
                            "duration" : 0
                          }
                        ]
                      }
                    },
                    "attributes" : {
                      "autoRotateText" : true
                    },
                    "parameters" : {
                      "translation0" : 291.55180989172,
                      "translation1" : 39.5753430965532
                    },
                    "effects" : [
                        {
                          "effectName" : "DropShadow",
                          "category" : "categoryVisualEffects",
                          "parameters" : {
                            "angle" : 5.49778714378214,
                            "blur" : 10.0,
                            "color-alpha" : 1.0,
                            "color-blue" : 0.1216,
                            "color-green" : 0.1216,
                            "color-red" : 0.1216,
                            "enabled" : 1,
                            "offset" : 30.8333333333333,
                            "opacity" : 0.4
                          },
                          "metadata" : {
                            "default-dropshadow-offset" : 10.0
                          }
                        }
                    ],
                    "start" : 10144,
                    "duration" : 307,
                    "mediaStart" : -20,
                    "mediaDuration" : 307,
                    "scalar" : 1,
                    "metadata" : {
                      "WinSubProjectDisplayName" : "",
                      "clipSpeedAttribute" : false,
                      "default-HAlign" : "center",
                      "default-VAlign" : "center",
                      "default-text-attributes" : "[{\"name\":\"fgColor\",\"rangeEnd\":3,\"rangeStart\":0,\"value\":\"(255,255,255,255)\",\"valueType\":\"color\"},{\"name\":\"underline\",\"rangeEnd\":3,\"rangeStart\":0,\"value\":0,\"valueType\":\"int\"},{\"name\":\"fontSize\",\"rangeEnd\":3,\"rangeStart\":0,\"value\":96,\"valueType\":\"double\"},{\"name\":\"fontWeight\",\"rangeEnd\":3,\"rangeStart\":0,\"value\":400,\"valueType\":\"int\"},{\"name\":\"fontName\",\"rangeEnd\":3,\"rangeStart\":0,\"value\":\"Montserrat\",\"valueType\":\"string\"}]",
                      "default-translation0" : 0.0,
                      "default-translation1" : 0.0
                    },
                    "animationTracks" : {

                    }
                  },
                  {
                    "id" : 142,
                    "_type" : "Callout",
                    "def" : {
                      "kind" : "remix",
                      "shape" : "text",
                      "style" : "basic",
                      "height" : 162.593257805622,
                      "width" : 497.851616469107,
                      "word-wrap" : 1.0,
                      "horizontal-alignment" : "center",
                      "text" : "Graphite, Gold, Silver, Sierra Blue",
                      "vertical-alignment" : "center",
                      "font" : {
                        "color-blue" : 1.0,
                        "color-green" : 1.0,
                        "color-red" : 1.0,
                        "size" : 96.0,
                        "tracking" : 0.0,
                        "name" : "Montserrat",
                        "weight" : "Regular"
                      },
                      "textAttributes" : {
                        "type" : "textAttributeList",
                        "keyframes" : [
                          {
                            "time" : 0,
                            "value" : [{"name":"fgColor","rangeEnd":35,"rangeStart":0,"value":"(152,56,56,255)","valueType":"color"},{"name":"fontItalic","rangeEnd":35,"rangeStart":0,"value":0,"valueType":"int"},{"name":"underline","rangeEnd":35,"rangeStart":0,"value":0,"valueType":"int"},{"name":"fontWeight","rangeEnd":35,"rangeStart":0,"value":700,"valueType":"int"},{"name":"strikethrough","rangeEnd":35,"rangeStart":0,"value":0,"valueType":"int"},{"name":"fontName","rangeEnd":35,"rangeStart":0,"value":"Montserrat","valueType":"string"},{"name":"fontSize","rangeEnd":35,"rangeStart":0,"value":96,"valueType":"double"}],
                            "duration" : 0
                          }
                        ]
                      }
                    },
                    "attributes" : {
                      "autoRotateText" : true
                    },
                    "parameters" : {
                      "translation0" : 269.986463882834,
                      "translation1" : 122.427053627954
                    },
                    "effects" : [
                        {
                          "effectName" : "DropShadow",
                          "category" : "categoryVisualEffects",
                          "parameters" : {
                            "angle" : 5.49778714378214,
                            "blur" : 10.0,
                            "color-alpha" : 1.0,
                            "color-blue" : 0.1216,
                            "color-green" : 0.1216,
                            "color-red" : 0.1216,
                            "enabled" : 1,
                            "offset" : 30.8333333333333,
                            "opacity" : 0.4
                          },
                          "metadata" : {
                            "default-dropshadow-offset" : 10.0
                          }
                        }
                    ],
                    "start" : 10510,
                    "duration" : 290,
                    "mediaStart" : -20,
                    "mediaDuration" : 290,
                    "scalar" : 1,
                    "metadata" : {
                      "WinSubProjectDisplayName" : "",
                      "clipSpeedAttribute" : false,
                      "default-HAlign" : "center",
                      "default-VAlign" : "center",
                      "default-text-attributes" : "[{\"name\":\"fgColor\",\"rangeEnd\":3,\"rangeStart\":0,\"value\":\"(255,255,255,255)\",\"valueType\":\"color\"},{\"name\":\"underline\",\"rangeEnd\":3,\"rangeStart\":0,\"value\":0,\"valueType\":\"int\"},{\"name\":\"fontSize\",\"rangeEnd\":3,\"rangeStart\":0,\"value\":96,\"valueType\":\"double\"},{\"name\":\"fontWeight\",\"rangeEnd\":3,\"rangeStart\":0,\"value\":400,\"valueType\":\"int\"},{\"name\":\"fontName\",\"rangeEnd\":3,\"rangeStart\":0,\"value\":\"Montserrat\",\"valueType\":\"string\"}]",
                      "default-translation0" : 0.0,
                      "default-translation1" : 0.0
                    },
                    "animationTracks" : {

                    }
                  },
                  {
                    "id" : 143,
                    "_type" : "Callout",
                    "def" : {
                      "kind" : "remix",
                      "shape" : "text",
                      "style" : "basic",
                      "height" : 162.593257805622,
                      "width" : 497.851616469107,
                      "word-wrap" : 1.0,
                      "horizontal-alignment" : "center",
                      "text" : "IP68 dust/water resistant (up to 6m for 30 mins)",
                      "vertical-alignment" : "center",
                      "font" : {
                        "color-blue" : 1.0,
                        "color-green" : 1.0,
                        "color-red" : 1.0,
                        "size" : 96.0,
                        "tracking" : 0.0,
                        "name" : "Montserrat",
                        "weight" : "Regular"
                      },
                      "textAttributes" : {
                        "type" : "textAttributeList",
                        "keyframes" : [
                          {
                            "time" : 0,
                            "value" : [{"name":"fontName","rangeEnd":48,"rangeStart":0,"value":"Montserrat","valueType":"string"},{"name":"fontSize","rangeEnd":48,"rangeStart":0,"value":96,"valueType":"double"},{"name":"underline","rangeEnd":48,"rangeStart":0,"value":0,"valueType":"int"},{"name":"fontWeight","rangeEnd":48,"rangeStart":0,"value":400,"valueType":"int"},{"name":"strikethrough","rangeEnd":48,"rangeStart":0,"value":0,"valueType":"int"},{"name":"fontItalic","rangeEnd":48,"rangeStart":0,"value":0,"valueType":"int"},{"name":"fgColor","rangeEnd":48,"rangeStart":0,"value":"(152,56,56,255)","valueType":"color"}],
                            "duration" : 0
                          }
                        ]
                      }
                    },
                    "attributes" : {
                      "autoRotateText" : true
                    },
                    "parameters" : {
                      "translation0" : 291.55180989172,
                      "translation1" : 67.4751637598538
                    },
                    "effects" : [
                        {
                          "effectName" : "DropShadow",
                          "category" : "categoryVisualEffects",
                          "parameters" : {
                            "angle" : 5.49778714378214,
                            "blur" : 10.0,
                            "color-alpha" : 1.0,
                            "color-blue" : 0.1216,
                            "color-green" : 0.1216,
                            "color-red" : 0.1216,
                            "enabled" : 1,
                            "offset" : 30.8333333333333,
                            "opacity" : 0.4
                          },
                          "metadata" : {
                            "default-dropshadow-offset" : 10.0
                          }
                        }
                    ],
                    "start" : 10849,
                    "duration" : 300,
                    "mediaStart" : -30,
                    "mediaDuration" : 300,
                    "scalar" : 1,
                    "metadata" : {
                      "WinSubProjectDisplayName" : "",
                      "clipSpeedAttribute" : false,
                      "default-HAlign" : "center",
                      "default-VAlign" : "center",
                      "default-text-attributes" : "[{\"name\":\"fgColor\",\"rangeEnd\":3,\"rangeStart\":0,\"value\":\"(255,255,255,255)\",\"valueType\":\"color\"},{\"name\":\"underline\",\"rangeEnd\":3,\"rangeStart\":0,\"value\":0,\"valueType\":\"int\"},{\"name\":\"fontSize\",\"rangeEnd\":3,\"rangeStart\":0,\"value\":96,\"valueType\":\"double\"},{\"name\":\"fontWeight\",\"rangeEnd\":3,\"rangeStart\":0,\"value\":400,\"valueType\":\"int\"},{\"name\":\"fontName\",\"rangeEnd\":3,\"rangeStart\":0,\"value\":\"Montserrat\",\"valueType\":\"string\"}]",
                      "default-translation0" : 0.0,
                      "default-translation1" : 0.0
                    },
                    "animationTracks" : {

                    }
                  },
                  {
                    "id" : 144,
                    "_type" : "Callout",
                    "def" : {
                      "kind" : "remix",
                      "shape" : "text",
                      "style" : "basic",
                      "height" : 144.946198982154,
                      "width" : 497.851616469107,
                      "word-wrap" : 1.0,
                      "horizontal-alignment" : "center",
                      "text" : "$ 1,099.00 / € 1,214.58 / £ 1,049.00 / ₹ 129,900",
                      "vertical-alignment" : "center",
                      "font" : {
                        "color-blue" : 1.0,
                        "color-green" : 1.0,
                        "color-red" : 1.0,
                        "size" : 96.0,
                        "tracking" : 0.0,
                        "name" : "Montserrat",
                        "weight" : "Regular"
                      },
                      "textAttributes" : {
                        "type" : "textAttributeList",
                        "keyframes" : [
                          {
                            "time" : 0,
                            "value" : [{"name":"fontName","rangeEnd":61,"rangeStart":54,"value":"Montserrat","valueType":"string"},{"name":"fontSize","rangeEnd":61,"rangeStart":0,"value":96,"valueType":"double"},{"name":"underline","rangeEnd":61,"rangeStart":0,"value":0,"valueType":"int"},{"name":"fontName","rangeEnd":54,"rangeStart":48,"value":"Arial","valueType":"string"},{"name":"fontName","rangeEnd":48,"rangeStart":0,"value":"Montserrat","valueType":"string"},{"name":"fontWeight","rangeEnd":61,"rangeStart":0,"value":400,"valueType":"int"},{"name":"fontItalic","rangeEnd":61,"rangeStart":0,"value":0,"valueType":"int"},{"name":"fgColor","rangeEnd":61,"rangeStart":0,"value":"(152,56,56,255)","valueType":"color"},{"name":"strikethrough","rangeEnd":61,"rangeStart":0,"value":0,"valueType":"int"}],
                            "duration" : 0
                          }
                        ]
                      }
                    },
                    "attributes" : {
                      "autoRotateText" : true
                    },
                    "parameters" : {
                      "translation0" : 273.904751068208,
                      "translation1" : 79.0633990539728
                    },
                    "effects" : [
                        {
                          "effectName" : "DropShadow",
                          "category" : "categoryVisualEffects",
                          "parameters" : {
                            "angle" : 5.49778714378214,
                            "blur" : 10.0,
                            "color-alpha" : 1.0,
                            "color-blue" : 0.1216,
                            "color-green" : 0.1216,
                            "color-red" : 0.1216,
                            "enabled" : 1,
                            "offset" : 30.8333333333333,
                            "opacity" : 0.4
                          },
                          "metadata" : {
                            "default-dropshadow-offset" : 10.0
                          }
                        }
                    ],
                    "start" : 11194,
                    "duration" : 278,
                    "mediaStart" : -4,
                    "mediaDuration" : 278,
                    "scalar" : 1,
                    "metadata" : {
                      "WinSubProjectDisplayName" : "",
                      "clipSpeedAttribute" : false,
                      "default-HAlign" : "center",
                      "default-VAlign" : "center",
                      "default-text-attributes" : "[{\"name\":\"fgColor\",\"rangeEnd\":3,\"rangeStart\":0,\"value\":\"(255,255,255,255)\",\"valueType\":\"color\"},{\"name\":\"underline\",\"rangeEnd\":3,\"rangeStart\":0,\"value\":0,\"valueType\":\"int\"},{\"name\":\"fontSize\",\"rangeEnd\":3,\"rangeStart\":0,\"value\":96,\"valueType\":\"double\"},{\"name\":\"fontWeight\",\"rangeEnd\":3,\"rangeStart\":0,\"value\":400,\"valueType\":\"int\"},{\"name\":\"fontName\",\"rangeEnd\":3,\"rangeStart\":0,\"value\":\"Montserrat\",\"valueType\":\"string\"}]",
                      "default-translation0" : 0.0,
                      "default-translation1" : 0.0
                    },
                    "animationTracks" : {

                    }
                  }
                ],
                "transitions" : [
                  {
                    "name" : "CircleStretch",
                    "duration" : 16,
                    "useAudioPreRoll" : true,
                    "useVisualPreRoll" : true,
                    "rightMedia" : 111
                  },
                  {
                    "name" : "CircleStretch",
                    "duration" : 30,
                    "useAudioPreRoll" : true,
                    "useVisualPreRoll" : true,
                    "leftMedia" : 111
                  },
                  {
                    "name" : "CircleStretch",
                    "duration" : 16,
                    "useAudioPreRoll" : true,
                    "useVisualPreRoll" : true,
                    "rightMedia" : 112
                  },
                  {
                    "name" : "CircleStretch",
                    "duration" : 17,
                    "useAudioPreRoll" : true,
                    "useVisualPreRoll" : true,
                    "leftMedia" : 112
                  },
                  {
                    "name" : "CircleStretch",
                    "duration" : 16,
                    "useAudioPreRoll" : true,
                    "useVisualPreRoll" : true,
                    "rightMedia" : 113
                  },
                  {
                    "name" : "CircleStretch",
                    "duration" : 16,
                    "useAudioPreRoll" : true,
                    "useVisualPreRoll" : true,
                    "leftMedia" : 113
                  },
                  {
                    "name" : "CircleStretch",
                    "duration" : 16,
                    "useAudioPreRoll" : true,
                    "useVisualPreRoll" : true,
                    "rightMedia" : 114
                  },
                  {
                    "name" : "CircleStretch",
                    "duration" : 20,
                    "useAudioPreRoll" : true,
                    "useVisualPreRoll" : true,
                    "leftMedia" : 114
                  },
                  {
                    "name" : "CircleStretch",
                    "duration" : 19,
                    "useAudioPreRoll" : true,
                    "useVisualPreRoll" : true,
                    "rightMedia" : 115
                  },
                  {
                    "name" : "CircleStretch",
                    "duration" : 18,
                    "useAudioPreRoll" : true,
                    "useVisualPreRoll" : true,
                    "leftMedia" : 115
                  },
                  {
                    "name" : "CircleStretch",
                    "duration" : 14,
                    "useAudioPreRoll" : true,
                    "useVisualPreRoll" : true,
                    "rightMedia" : 116
                  },
                  {
                    "name" : "CircleStretch",
                    "duration" : 19,
                    "useAudioPreRoll" : true,
                    "useVisualPreRoll" : true,
                    "leftMedia" : 116
                  },
                  {
                    "name" : "CircleStretch",
                    "duration" : 18,
                    "useAudioPreRoll" : true,
                    "useVisualPreRoll" : true,
                    "rightMedia" : 117
                  },
                  {
                    "name" : "CircleStretch",
                    "duration" : 16,
                    "useAudioPreRoll" : true,
                    "useVisualPreRoll" : true,
                    "leftMedia" : 117
                  },
                  {
                    "name" : "CircleStretch",
                    "duration" : 17,
                    "useAudioPreRoll" : true,
                    "useVisualPreRoll" : true,
                    "rightMedia" : 118
                  },
                  {
                    "name" : "CircleStretch",
                    "duration" : 19,
                    "useAudioPreRoll" : true,
                    "useVisualPreRoll" : true,
                    "leftMedia" : 118
                  },
                  {
                    "name" : "CircleStretch",
                    "duration" : 17,
                    "useAudioPreRoll" : true,
                    "useVisualPreRoll" : true,
                    "rightMedia" : 119
                  },
                  {
                    "name" : "CircleStretch",
                    "duration" : 17,
                    "useAudioPreRoll" : true,
                    "useVisualPreRoll" : true,
                    "leftMedia" : 119
                  },
                  {
                    "name" : "CircleStretch",
                    "duration" : 18,
                    "useAudioPreRoll" : true,
                    "useVisualPreRoll" : true,
                    "rightMedia" : 120
                  },
                  {
                    "name" : "CircleStretch",
                    "duration" : 17,
                    "useAudioPreRoll" : true,
                    "useVisualPreRoll" : true,
                    "leftMedia" : 120
                  },
                  {
                    "name" : "CircleStretch",
                    "duration" : 15,
                    "useAudioPreRoll" : true,
                    "useVisualPreRoll" : true,
                    "rightMedia" : 121
                  },
                  {
                    "name" : "CircleStretch",
                    "duration" : 17,
                    "useAudioPreRoll" : true,
                    "useVisualPreRoll" : true,
                    "leftMedia" : 121
                  },
                  {
                    "name" : "CircleStretch",
                    "duration" : 19,
                    "useAudioPreRoll" : true,
                    "useVisualPreRoll" : true,
                    "rightMedia" : 122
                  },
                  {
                    "name" : "CircleStretch",
                    "duration" : 17,
                    "useAudioPreRoll" : true,
                    "useVisualPreRoll" : true,
                    "leftMedia" : 122
                  },
                  {
                    "name" : "CircleStretch",
                    "duration" : 18,
                    "useAudioPreRoll" : true,
                    "useVisualPreRoll" : true,
                    "rightMedia" : 123
                  },
                  {
                    "name" : "CircleStretch",
                    "duration" : 15,
                    "useAudioPreRoll" : true,
                    "useVisualPreRoll" : true,
                    "leftMedia" : 123
                  },
                  {
                    "name" : "CircleStretch",
                    "duration" : 18,
                    "useAudioPreRoll" : true,
                    "useVisualPreRoll" : true,
                    "rightMedia" : 124
                  },
                  {
                    "name" : "CircleStretch",
                    "duration" : 16,
                    "useAudioPreRoll" : true,
                    "useVisualPreRoll" : true,
                    "leftMedia" : 124
                  },
                  {
                    "name" : "CircleStretch",
                    "duration" : 15,
                    "useAudioPreRoll" : true,
                    "useVisualPreRoll" : true,
                    "rightMedia" : 125
                  },
                  {
                    "name" : "CircleStretch",
                    "duration" : 15,
                    "useAudioPreRoll" : true,
                    "useVisualPreRoll" : true,
                    "leftMedia" : 125
                  },
                  {
                    "name" : "CircleStretch",
                    "duration" : 20,
                    "useAudioPreRoll" : true,
                    "useVisualPreRoll" : true,
                    "rightMedia" : 126
                  },
                  {
                    "name" : "CircleStretch",
                    "duration" : 23,
                    "useAudioPreRoll" : true,
                    "useVisualPreRoll" : true,
                    "leftMedia" : 126
                  },
                  {
                    "name" : "CircleStretch",
                    "duration" : 16,
                    "useAudioPreRoll" : true,
                    "useVisualPreRoll" : true,
                    "rightMedia" : 127
                  },
                  {
                    "name" : "CircleStretch",
                    "duration" : 19,
                    "useAudioPreRoll" : true,
                    "useVisualPreRoll" : true,
                    "leftMedia" : 127
                  },
                  {
                    "name" : "CircleStretch",
                    "duration" : 16,
                    "useAudioPreRoll" : true,
                    "useVisualPreRoll" : true,
                    "rightMedia" : 128
                  },
                  {
                    "name" : "CircleStretch",
                    "duration" : 17,
                    "useAudioPreRoll" : true,
                    "useVisualPreRoll" : true,
                    "leftMedia" : 128
                  },
                  {
                    "name" : "CircleStretch",
                    "duration" : 17,
                    "useAudioPreRoll" : true,
                    "useVisualPreRoll" : true,
                    "rightMedia" : 129
                  },
                  {
                    "name" : "CircleStretch",
                    "duration" : 15,
                    "useAudioPreRoll" : true,
                    "useVisualPreRoll" : true,
                    "leftMedia" : 129
                  },
                  {
                    "name" : "CircleStretch",
                    "duration" : 14,
                    "useAudioPreRoll" : true,
                    "useVisualPreRoll" : true,
                    "rightMedia" : 130
                  },
                  {
                    "name" : "CircleStretch",
                    "duration" : 18,
                    "useAudioPreRoll" : true,
                    "useVisualPreRoll" : true,
                    "leftMedia" : 130
                  },
                  {
                    "name" : "CircleStretch",
                    "duration" : 20,
                    "useAudioPreRoll" : true,
                    "useVisualPreRoll" : true,
                    "rightMedia" : 131
                  },
                  {
                    "name" : "CircleStretch",
                    "duration" : 14,
                    "useAudioPreRoll" : true,
                    "useVisualPreRoll" : true,
                    "leftMedia" : 131
                  },
                  {
                    "name" : "CircleStretch",
                    "duration" : 17,
                    "useAudioPreRoll" : true,
                    "useVisualPreRoll" : true,
                    "rightMedia" : 132
                  },
                  {
                    "name" : "CircleStretch",
                    "duration" : 18,
                    "useAudioPreRoll" : true,
                    "useVisualPreRoll" : true,
                    "leftMedia" : 132
                  },
                  {
                    "name" : "CircleStretch",
                    "duration" : 16,
                    "useAudioPreRoll" : true,
                    "useVisualPreRoll" : true,
                    "rightMedia" : 133
                  },
                  {
                    "name" : "CircleStretch",
                    "duration" : 16,
                    "useAudioPreRoll" : true,
                    "useVisualPreRoll" : true,
                    "leftMedia" : 133
                  },
                  {
                    "name" : "CircleStretch",
                    "duration" : 15,
                    "useAudioPreRoll" : true,
                    "useVisualPreRoll" : true,
                    "rightMedia" : 134
                  },
                  {
                    "name" : "CircleStretch",
                    "duration" : 15,
                    "useAudioPreRoll" : true,
                    "useVisualPreRoll" : true,
                    "leftMedia" : 134
                  },
                  {
                    "name" : "CircleStretch",
                    "duration" : 18,
                    "useAudioPreRoll" : true,
                    "useVisualPreRoll" : true,
                    "rightMedia" : 135
                  },
                  {
                    "name" : "CircleStretch",
                    "duration" : 16,
                    "useAudioPreRoll" : true,
                    "useVisualPreRoll" : true,
                    "leftMedia" : 135
                  },
                  {
                    "name" : "CircleStretch",
                    "duration" : 16,
                    "useAudioPreRoll" : true,
                    "useVisualPreRoll" : true,
                    "rightMedia" : 136
                  },
                  {
                    "name" : "CircleStretch",
                    "duration" : 16,
                    "useAudioPreRoll" : true,
                    "useVisualPreRoll" : true,
                    "leftMedia" : 136
                  },
                  {
                    "name" : "CircleStretch",
                    "duration" : 17,
                    "useAudioPreRoll" : true,
                    "useVisualPreRoll" : true,
                    "rightMedia" : 137
                  },
                  {
                    "name" : "CircleStretch",
                    "duration" : 15,
                    "useAudioPreRoll" : true,
                    "useVisualPreRoll" : true,
                    "leftMedia" : 137
                  },
                  {
                    "name" : "CircleStretch",
                    "duration" : 16,
                    "useAudioPreRoll" : true,
                    "useVisualPreRoll" : true,
                    "rightMedia" : 138
                  },
                  {
                    "name" : "CircleStretch",
                    "duration" : 17,
                    "useAudioPreRoll" : true,
                    "useVisualPreRoll" : true,
                    "leftMedia" : 138
                  },
                  {
                    "name" : "CircleStretch",
                    "duration" : 14,
                    "useAudioPreRoll" : true,
                    "useVisualPreRoll" : true,
                    "rightMedia" : 139
                  },
                  {
                    "name" : "CircleStretch",
                    "duration" : 16,
                    "useAudioPreRoll" : true,
                    "useVisualPreRoll" : true,
                    "leftMedia" : 139
                  },
                  {
                    "name" : "CircleStretch",
                    "duration" : 16,
                    "useAudioPreRoll" : true,
                    "useVisualPreRoll" : true,
                    "rightMedia" : 140
                  },
                  {
                    "name" : "CircleStretch",
                    "duration" : 15,
                    "useAudioPreRoll" : true,
                    "useVisualPreRoll" : true,
                    "leftMedia" : 140
                  },
                  {
                    "name" : "CircleStretch",
                    "duration" : 18,
                    "useAudioPreRoll" : true,
                    "useVisualPreRoll" : true,
                    "rightMedia" : 141
                  },
                  {
                    "name" : "CircleStretch",
                    "duration" : 17,
                    "useAudioPreRoll" : true,
                    "useVisualPreRoll" : true,
                    "leftMedia" : 141
                  },
                  {
                    "name" : "CircleStretch",
                    "duration" : 18,
                    "useAudioPreRoll" : true,
                    "useVisualPreRoll" : true,
                    "rightMedia" : 142
                  },
                  {
                    "name" : "CircleStretch",
                    "duration" : 18,
                    "useAudioPreRoll" : true,
                    "useVisualPreRoll" : true,
                    "leftMedia" : 142
                  },
                  {
                    "name" : "CircleStretch",
                    "duration" : 13,
                    "useAudioPreRoll" : true,
                    "useVisualPreRoll" : true,
                    "rightMedia" : 143
                  },
                  {
                    "name" : "CircleStretch",
                    "duration" : 19,
                    "useAudioPreRoll" : true,
                    "useVisualPreRoll" : true,
                    "leftMedia" : 143
                  },
                  {
                    "name" : "CircleStretch",
                    "duration" : 18,
                    "useAudioPreRoll" : true,
                    "useVisualPreRoll" : true,
                    "rightMedia" : 144
                  },
                  {
                    "name" : "CircleStretch",
                    "duration" : 13,
                    "useAudioPreRoll" : true,
                    "useVisualPreRoll" : true,
                    "leftMedia" : 144
                  }
                ]
              },
              {
                "trackIndex" : 12,
                "medias" : [
                  {
                    "id" : 145,
                    "_type" : "Callout",
                    "def" : {
                      "kind" : "TypeWinSVG",
                      "shape" : "",
                      "style" : "",
                      "DrawTime" : {
                        "type" : "double",
                        "defaultValue" : 1.0,
                        "interp" : "linr"
                      },
                      "borderColorBlue" : {
                        "type" : "double",
                        "defaultValue" : 0.0,
                        "interp" : "linr"
                      },
                      "borderColorGreen" : {
                        "type" : "double",
                        "defaultValue" : 0.0,
                        "interp" : "linr"
                      },
                      "borderColorRed" : {
                        "type" : "double",
                        "defaultValue" : 1.0,
                        "interp" : "linr"
                      },
                      "borderWidth" : {
                        "type" : "double",
                        "defaultValue" : 12.0,
                        "interp" : "linr"
                      },
                      "flipOnXAxis" : {
                        "type" : "double",
                        "defaultValue" : 0.0,
                        "interp" : "linr"
                      },
                      "flipOnYAxis" : {
                        "type" : "double",
                        "defaultValue" : 0.0,
                        "interp" : "linr"
                      },
                      "height" : {
                        "type" : "double",
                        "defaultValue" : 270.0,
                        "interp" : "linr"
                      },
                      "width" : {
                        "type" : "double",
                        "defaultValue" : 480.0,
                        "interp" : "linr"
                      },
                      "filename" : "C:\\Program Files (x86)\\TechSmith\\Camtasia Studio 9\\Media\\Studio\\Callouts\\anim_x.svg",
                      "horizontal-alignment" : "center",
                      "name" : "Sketch Motion X",
                      "vertical-alignment" : "center",
                      "xmlContent" : "﻿<?xml version=\"1.0\" encoding=\"utf-8\"?>\n<!DOCTYPE svg PUBLIC \"-//W3C//DTD SVG 1.1//EN\" \"http://www.w3.org/Graphics/SVG/1.1/DTD/svg11.dtd\">\n<svg version=\"1.1\" id=\"Layer_1\" xmlns=\"http://www.w3.org/2000/svg\" xmlns:xlink=\"http://www.w3.org/1999/xlink\" x=\"0px\" y=\"0px\"\n\t width=\"128px\" height=\"109px\" viewBox=\"0 0 128 109\" enable-background=\"new 0 0 128 109\" xml:space=\"preserve\">\n<path fill=\"none\" d=\"M0,0 L100,100 M100,0 L0,100\"/>\n</svg>\n",
                      "textAttributes" : {
                        "type" : "textAttributeList",
                        "keyframes" : [
                          {
                            "time" : 0,
                            "value" : null,
                            "duration" : 0
                          }
                        ]
                      }
                    },
                    "attributes" : {
                      "autoRotateText" : true
                    },
                    "parameters" : {
                      "translation0" : {
                        "type" : "double",
                        "defaultValue" : -278.409090909609,
                        "interp" : "eioe"
                      },
                      "translation1" : {
                        "type" : "double",
                        "defaultValue" : -119.318181818174,
                        "interp" : "eioe"
                      },
                      "scale0" : {
                        "type" : "double",
                        "defaultValue" : 0.256628787877695,
                        "interp" : "eioe"
                      },
                      "scale1" : {
                        "type" : "double",
                        "defaultValue" : 0.410774410774266,
                        "interp" : "eioe"
                      }
                    },
                    "leftEdgeMods" : [
                      {
                        "group" : "DrawPercentageFade",
                        "duration" : 12,
                        "parameters" : [
                          {
                            "name" : "DrawTime",
                              "func" : "FadeInFunc"
                            }
                        ]
                      }
                    ],
                    "effects" : [
                        {
                          "effectName" : "DropShadow",
                          "category" : "categoryVisualEffects",
                          "parameters" : {
                            "angle" : {
                              "type" : "double",
                              "defaultValue" : 5.49778714378214,
                              "interp" : "linr",
                              "uiHints" : {
                                "userInterfaceType" : 0,
                                "unitType" : 0
                              }
                            },
                            "blur" : {
                              "type" : "double",
                              "defaultValue" : 10.0,
                              "interp" : "linr",
                              "uiHints" : {
                                "userInterfaceType" : 0,
                                "unitType" : 0
                              }
                            },
                            "color-alpha" : {
                              "type" : "double",
                              "defaultValue" : 1.0,
                              "interp" : "linr",
                              "uiHints" : {
                                "userInterfaceType" : 0,
                                "unitType" : 0
                              }
                            },
                            "color-blue" : {
                              "type" : "double",
                              "defaultValue" : 0.1216,
                              "interp" : "linr",
                              "uiHints" : {
                                "userInterfaceType" : 0,
                                "unitType" : 0
                              }
                            },
                            "color-green" : {
                              "type" : "double",
                              "defaultValue" : 0.1216,
                              "interp" : "linr",
                              "uiHints" : {
                                "userInterfaceType" : 0,
                                "unitType" : 0
                              }
                            },
                            "color-red" : {
                              "type" : "double",
                              "defaultValue" : 0.1216,
                              "interp" : "linr",
                              "uiHints" : {
                                "userInterfaceType" : 0,
                                "unitType" : 0
                              }
                            },
                            "enabled" : 1,
                            "offset" : {
                              "type" : "double",
                              "defaultValue" : 10.0,
                              "interp" : "linr",
                              "uiHints" : {
                                "userInterfaceType" : 0,
                                "unitType" : 0
                              }
                            },
                            "opacity" : {
                              "type" : "double",
                              "defaultValue" : 0.4,
                              "interp" : "linr",
                              "uiHints" : {
                                "userInterfaceType" : 0,
                                "unitType" : 0
                              }
                            }
                          }
                        }
                    ],
                    "start" : 903,
                    "duration" : 99,
                    "mediaStart" : 18,
                    "mediaDuration" : 99,
                    "scalar" : 1,
                    "metadata" : {
                      "WinSubProjectDisplayName" : "",
                      "clipSpeedAttribute" : false,
                      "default-legacy-drawtime-duration" : 1.0,
                      "default-scale0" : 1.0,
                      "default-scale1" : 1.0,
                      "default-stroke-width" : 5.0,
                      "default-translation0" : 0.0,
                      "default-translation1" : 0.0
                    },
                    "animationTracks" : {

                    }
                  },
                  {
                    "id" : 146,
                    "_type" : "Callout",
                    "def" : {
                      "kind" : "TypeWinSVG",
                      "shape" : "",
                      "style" : "",
                      "DrawTime" : {
                        "type" : "double",
                        "defaultValue" : 1.0,
                        "interp" : "linr"
                      },
                      "borderColorBlue" : {
                        "type" : "double",
                        "defaultValue" : 0.0,
                        "interp" : "linr"
                      },
                      "borderColorGreen" : {
                        "type" : "double",
                        "defaultValue" : 0.0,
                        "interp" : "linr"
                      },
                      "borderColorRed" : {
                        "type" : "double",
                        "defaultValue" : 1.0,
                        "interp" : "linr"
                      },
                      "borderWidth" : {
                        "type" : "double",
                        "defaultValue" : 12.0,
                        "interp" : "linr"
                      },
                      "flipOnXAxis" : {
                        "type" : "double",
                        "defaultValue" : 0.0,
                        "interp" : "linr"
                      },
                      "flipOnYAxis" : {
                        "type" : "double",
                        "defaultValue" : 0.0,
                        "interp" : "linr"
                      },
                      "height" : {
                        "type" : "double",
                        "defaultValue" : 270.0,
                        "interp" : "linr"
                      },
                      "width" : {
                        "type" : "double",
                        "defaultValue" : 480.0,
                        "interp" : "linr"
                      },
                      "filename" : "C:\\Program Files (x86)\\TechSmith\\Camtasia Studio 9\\Media\\Studio\\Callouts\\anim_x.svg",
                      "horizontal-alignment" : "center",
                      "name" : "Sketch Motion X",
                      "vertical-alignment" : "center",
                      "xmlContent" : "﻿<?xml version=\"1.0\" encoding=\"utf-8\"?>\n<!DOCTYPE svg PUBLIC \"-//W3C//DTD SVG 1.1//EN\" \"http://www.w3.org/Graphics/SVG/1.1/DTD/svg11.dtd\">\n<svg version=\"1.1\" id=\"Layer_1\" xmlns=\"http://www.w3.org/2000/svg\" xmlns:xlink=\"http://www.w3.org/1999/xlink\" x=\"0px\" y=\"0px\"\n\t width=\"128px\" height=\"109px\" viewBox=\"0 0 128 109\" enable-background=\"new 0 0 128 109\" xml:space=\"preserve\">\n<path fill=\"none\" d=\"M0,0 L100,100 M100,0 L0,100\"/>\n</svg>\n",
                      "textAttributes" : {
                        "type" : "textAttributeList",
                        "keyframes" : [
                          {
                            "time" : 0,
                            "value" : null,
                            "duration" : 0
                          }
                        ]
                      }
                    },
                    "attributes" : {
                      "autoRotateText" : true
                    },
                    "parameters" : {
                      "translation0" : {
                        "type" : "double",
                        "defaultValue" : -278.409090909609,
                        "interp" : "eioe"
                      },
                      "translation1" : {
                        "type" : "double",
                        "defaultValue" : -119.318181818174,
                        "interp" : "eioe"
                      },
                      "scale0" : {
                        "type" : "double",
                        "defaultValue" : 0.256628787877695,
                        "interp" : "eioe"
                      },
                      "scale1" : {
                        "type" : "double",
                        "defaultValue" : 0.410774410774266,
                        "interp" : "eioe"
                      }
                    },
                    "leftEdgeMods" : [
                      {
                        "group" : "DrawPercentageFade",
                        "duration" : 12,
                        "parameters" : [
                          {
                            "name" : "DrawTime",
                              "func" : "FadeInFunc"
                            }
                        ]
                      }
                    ],
                    "effects" : [
                        {
                          "effectName" : "DropShadow",
                          "category" : "categoryVisualEffects",
                          "parameters" : {
                            "angle" : {
                              "type" : "double",
                              "defaultValue" : 5.49778714378214,
                              "interp" : "linr",
                              "uiHints" : {
                                "userInterfaceType" : 0,
                                "unitType" : 0
                              }
                            },
                            "blur" : {
                              "type" : "double",
                              "defaultValue" : 10.0,
                              "interp" : "linr",
                              "uiHints" : {
                                "userInterfaceType" : 0,
                                "unitType" : 0
                              }
                            },
                            "color-alpha" : {
                              "type" : "double",
                              "defaultValue" : 1.0,
                              "interp" : "linr",
                              "uiHints" : {
                                "userInterfaceType" : 0,
                                "unitType" : 0
                              }
                            },
                            "color-blue" : {
                              "type" : "double",
                              "defaultValue" : 0.1216,
                              "interp" : "linr",
                              "uiHints" : {
                                "userInterfaceType" : 0,
                                "unitType" : 0
                              }
                            },
                            "color-green" : {
                              "type" : "double",
                              "defaultValue" : 0.1216,
                              "interp" : "linr",
                              "uiHints" : {
                                "userInterfaceType" : 0,
                                "unitType" : 0
                              }
                            },
                            "color-red" : {
                              "type" : "double",
                              "defaultValue" : 0.1216,
                              "interp" : "linr",
                              "uiHints" : {
                                "userInterfaceType" : 0,
                                "unitType" : 0
                              }
                            },
                            "enabled" : 1,
                            "offset" : {
                              "type" : "double",
                              "defaultValue" : 10.0,
                              "interp" : "linr",
                              "uiHints" : {
                                "userInterfaceType" : 0,
                                "unitType" : 0
                              }
                            },
                            "opacity" : {
                              "type" : "double",
                              "defaultValue" : 0.4,
                              "interp" : "linr",
                              "uiHints" : {
                                "userInterfaceType" : 0,
                                "unitType" : 0
                              }
                            }
                          }
                        }
                    ],
                    "start" : 1201,
                    "duration" : 91,
                    "mediaStart" : 18,
                    "mediaDuration" : 91,
                    "scalar" : 1,
                    "metadata" : {
                      "WinSubProjectDisplayName" : "",
                      "clipSpeedAttribute" : false,
                      "default-legacy-drawtime-duration" : 1.0,
                      "default-scale0" : 1.0,
                      "default-scale1" : 1.0,
                      "default-stroke-width" : 5.0,
                      "default-translation0" : 0.0,
                      "default-translation1" : 0.0
                    },
                    "animationTracks" : {

                    }
                  },
                  {
                    "id" : 147,
                    "_type" : "Callout",
                    "def" : {
                      "kind" : "TypeWinSVG",
                      "shape" : "",
                      "style" : "",
                      "DrawTime" : 1.0,
                      "borderColorBlue" : 0.0,
                      "borderColorGreen" : 0.0,
                      "borderColorRed" : 1.0,
                      "borderWidth" : 12.0,
                      "flipOnXAxis" : 0.0,
                      "flipOnYAxis" : 0.0,
                      "height" : 270.0,
                      "width" : 480.0,
                      "filename" : "C:\\Program Files (x86)\\TechSmith\\Camtasia Studio 9\\Media\\Studio\\Callouts\\anim_x.svg",
                      "horizontal-alignment" : "center",
                      "name" : "Sketch Motion X",
                      "vertical-alignment" : "center",
                      "xmlContent" : "﻿<?xml version=\"1.0\" encoding=\"utf-8\"?>\n<!DOCTYPE svg PUBLIC \"-//W3C//DTD SVG 1.1//EN\" \"http://www.w3.org/Graphics/SVG/1.1/DTD/svg11.dtd\">\n<svg version=\"1.1\" id=\"Layer_1\" xmlns=\"http://www.w3.org/2000/svg\" xmlns:xlink=\"http://www.w3.org/1999/xlink\" x=\"0px\" y=\"0px\"\n\t width=\"128px\" height=\"109px\" viewBox=\"0 0 128 109\" enable-background=\"new 0 0 128 109\" xml:space=\"preserve\">\n<path fill=\"none\" d=\"M0,0 L100,100 M100,0 L0,100\"/>\n</svg>\n",
                      "textAttributes" : {
                        "type" : "textAttributeList",
                        "keyframes" : [
                          {
                            "time" : 0,
                            "value" : null,
                            "duration" : 0
                          }
                        ]
                      }
                    },
                    "attributes" : {
                      "autoRotateText" : true
                    },
                    "parameters" : {
                      "translation0" : -280.78903011858,
                      "translation1" : -189.325824305243,
                      "scale0" : 0.256628787877695,
                      "scale1" : 0.410774410774266
                    },
                    "leftEdgeMods" : [
                      {
                        "group" : "DrawPercentageFade",
                        "duration" : 12,
                        "parameters" : [
                          {
                            "name" : "DrawTime",
                              "func" : "FadeInFunc"
                            }
                        ]
                      }
                    ],
                    "effects" : [
                        {
                          "effectName" : "DropShadow",
                          "category" : "categoryVisualEffects",
                          "parameters" : {
                            "angle" : 5.49778714378214,
                            "blur" : 10.0,
                            "color-alpha" : 1.0,
                            "color-blue" : 0.1216,
                            "color-green" : 0.1216,
                            "color-red" : 0.1216,
                            "enabled" : 1,
                            "offset" : 10.0,
                            "opacity" : 0.4
                          }
                        }
                    ],
                    "start" : 1520,
                    "duration" : 90,
                    "mediaStart" : 22,
                    "mediaDuration" : 90,
                    "scalar" : 1,
                    "metadata" : {
                      "WinSubProjectDisplayName" : "",
                      "clipSpeedAttribute" : false,
                      "default-legacy-drawtime-duration" : 1.0,
                      "default-scale0" : 1.0,
                      "default-scale1" : 1.0,
                      "default-stroke-width" : 5.0,
                      "default-translation0" : 0.0,
                      "default-translation1" : 0.0
                    },
                    "animationTracks" : {

                    }
                  },
                  {
                    "id" : 148,
                    "_type" : "Callout",
                    "def" : {
                      "kind" : "TypeWinSVG",
                      "shape" : "",
                      "style" : "",
                      "DrawTime" : 1.0,
                      "borderColorBlue" : 0.172549019607843,
                      "borderColorGreen" : 0.615686274509804,
                      "borderColorRed" : 0.105882352941176,
                      "borderWidth" : 12.875,
                      "flipOnXAxis" : 0.0,
                      "flipOnYAxis" : 0.0,
                      "height" : 270.0,
                      "width" : 480.0,
                      "filename" : "C:\\Program Files (x86)\\TechSmith\\Camtasia Studio 9\\Media\\Studio\\Callouts\\anim_checkmark.svg",
                      "horizontal-alignment" : "center",
                      "name" : "Sketch Motion Checkmark",
                      "vertical-alignment" : "center",
                      "xmlContent" : "﻿<?xml version=\"1.0\" encoding=\"utf-8\"?>\n<!-- Generator: Adobe Illustrator 13.0.2, SVG Export Plug-In . SVG Version: 6.00 Build 14948)  -->\n<!DOCTYPE svg PUBLIC \"-//W3C//DTD SVG 1.1//EN\" \"http://www.w3.org/Graphics/SVG/1.1/DTD/svg11.dtd\">\n<svg version=\"1.1\" id=\"Layer_1\" xmlns=\"http://www.w3.org/2000/svg\" xmlns:xlink=\"http://www.w3.org/1999/xlink\" x=\"0px\" y=\"0px\"\n\t width=\"128px\" height=\"109px\" viewBox=\"0 0 128 109\" enable-background=\"new 0 0 128 109\" xml:space=\"preserve\">\n<path fill=\"none\" d=\"M22.304,53.27c0,0,18.242,16.407,28.666,45.94c26.712-78.755,54.727-89.42,54.727-89.42\"/>\n</svg>\n",
                      "textAttributes" : {
                        "type" : "textAttributeList",
                        "keyframes" : [
                          {
                            "time" : 0,
                            "value" : null,
                            "duration" : 0
                          }
                        ]
                      }
                    },
                    "attributes" : {
                      "autoRotateText" : true
                    },
                    "parameters" : {
                      "translation0" : -335.106382978456,
                      "translation1" : -70.2127659574933,
                      "scale0" : 0.250886524823784,
                      "scale1" : 0.3853427895978
                    },
                    "leftEdgeMods" : [
                      {
                        "group" : "DrawPercentageFade",
                        "duration" : 11,
                        "parameters" : [
                          {
                            "name" : "DrawTime",
                              "func" : "FadeInFunc"
                            }
                        ]
                      }
                    ],
                    "effects" : [
                        {
                          "effectName" : "DropShadow",
                          "category" : "categoryVisualEffects",
                          "parameters" : {
                            "angle" : 5.49778714378214,
                            "blur" : 10.0,
                            "color-alpha" : 1.0,
                            "color-blue" : 0.1216,
                            "color-green" : 0.1216,
                            "color-red" : 0.1216,
                            "enabled" : 1,
                            "offset" : 10.0,
                            "opacity" : 0.4
                          }
                        }
                    ],
                    "start" : 1821,
                    "duration" : 92,
                    "mediaStart" : -24,
                    "mediaDuration" : 92,
                    "scalar" : 1,
                    "metadata" : {
                      "WinSubProjectDisplayName" : "",
                      "clipSpeedAttribute" : false,
                      "default-legacy-drawtime-duration" : 1.0,
                      "default-scale0" : 1.0,
                      "default-scale1" : 1.0,
                      "default-stroke-color-blue" : 0.0,
                      "default-stroke-color-green" : 0.0,
                      "default-stroke-color-red" : 1.0,
                      "default-stroke-width" : 5.0,
                      "default-translation0" : 0.0,
                      "default-translation1" : 0.0
                    },
                    "animationTracks" : {

                    }
                  },
                  {
                    "id" : 149,
                    "_type" : "Callout",
                    "def" : {
                      "kind" : "TypeWinSVG",
                      "shape" : "",
                      "style" : "",
                      "DrawTime" : 1.0,
                      "borderColorBlue" : 0.172549019607843,
                      "borderColorGreen" : 0.615686274509804,
                      "borderColorRed" : 0.105882352941176,
                      "borderWidth" : 12.875,
                      "flipOnXAxis" : 0.0,
                      "flipOnYAxis" : 0.0,
                      "height" : 270.0,
                      "width" : 480.0,
                      "filename" : "C:\\Program Files (x86)\\TechSmith\\Camtasia Studio 9\\Media\\Studio\\Callouts\\anim_checkmark.svg",
                      "horizontal-alignment" : "center",
                      "name" : "Sketch Motion Checkmark",
                      "vertical-alignment" : "center",
                      "xmlContent" : "﻿<?xml version=\"1.0\" encoding=\"utf-8\"?>\n<!-- Generator: Adobe Illustrator 13.0.2, SVG Export Plug-In . SVG Version: 6.00 Build 14948)  -->\n<!DOCTYPE svg PUBLIC \"-//W3C//DTD SVG 1.1//EN\" \"http://www.w3.org/Graphics/SVG/1.1/DTD/svg11.dtd\">\n<svg version=\"1.1\" id=\"Layer_1\" xmlns=\"http://www.w3.org/2000/svg\" xmlns:xlink=\"http://www.w3.org/1999/xlink\" x=\"0px\" y=\"0px\"\n\t width=\"128px\" height=\"109px\" viewBox=\"0 0 128 109\" enable-background=\"new 0 0 128 109\" xml:space=\"preserve\">\n<path fill=\"none\" d=\"M22.304,53.27c0,0,18.242,16.407,28.666,45.94c26.712-78.755,54.727-89.42,54.727-89.42\"/>\n</svg>\n",
                      "textAttributes" : {
                        "type" : "textAttributeList",
                        "keyframes" : [
                          {
                            "time" : 0,
                            "value" : null,
                            "duration" : 0
                          }
                        ]
                      }
                    },
                    "attributes" : {
                      "autoRotateText" : true
                    },
                    "parameters" : {
                      "translation0" : -335.106382978456,
                      "translation1" : -70.2127659574933,
                      "scale0" : 0.250886524823784,
                      "scale1" : 0.3853427895978
                    },
                    "leftEdgeMods" : [
                      {
                        "group" : "DrawPercentageFade",
                        "duration" : 11,
                        "parameters" : [
                          {
                            "name" : "DrawTime",
                              "func" : "FadeInFunc"
                            }
                        ]
                      }
                    ],
                    "effects" : [
                        {
                          "effectName" : "DropShadow",
                          "category" : "categoryVisualEffects",
                          "parameters" : {
                            "angle" : 5.49778714378214,
                            "blur" : 10.0,
                            "color-alpha" : 1.0,
                            "color-blue" : 0.1216,
                            "color-green" : 0.1216,
                            "color-red" : 0.1216,
                            "enabled" : 1,
                            "offset" : 10.0,
                            "opacity" : 0.4
                          }
                        }
                    ],
                    "start" : 2188,
                    "duration" : 90,
                    "mediaStart" : -24,
                    "mediaDuration" : 90,
                    "scalar" : 1,
                    "metadata" : {
                      "WinSubProjectDisplayName" : "",
                      "clipSpeedAttribute" : false,
                      "default-legacy-drawtime-duration" : 1.0,
                      "default-scale0" : 1.0,
                      "default-scale1" : 1.0,
                      "default-stroke-color-blue" : 0.0,
                      "default-stroke-color-green" : 0.0,
                      "default-stroke-color-red" : 1.0,
                      "default-stroke-width" : 5.0,
                      "default-translation0" : 0.0,
                      "default-translation1" : 0.0
                    },
                    "animationTracks" : {

                    }
                  },
                  {
                    "id" : 150,
                    "_type" : "Callout",
                    "def" : {
                      "kind" : "TypeWinSVG",
                      "shape" : "",
                      "style" : "",
                      "DrawTime" : {
                        "type" : "double",
                        "defaultValue" : 1.0,
                        "interp" : "linr"
                      },
                      "borderColorBlue" : {
                        "type" : "double",
                        "defaultValue" : 0.0,
                        "interp" : "linr"
                      },
                      "borderColorGreen" : {
                        "type" : "double",
                        "defaultValue" : 0.0,
                        "interp" : "linr"
                      },
                      "borderColorRed" : {
                        "type" : "double",
                        "defaultValue" : 1.0,
                        "interp" : "linr"
                      },
                      "borderWidth" : {
                        "type" : "double",
                        "defaultValue" : 12.0,
                        "interp" : "linr"
                      },
                      "flipOnXAxis" : {
                        "type" : "double",
                        "defaultValue" : 0.0,
                        "interp" : "linr"
                      },
                      "flipOnYAxis" : {
                        "type" : "double",
                        "defaultValue" : 0.0,
                        "interp" : "linr"
                      },
                      "height" : {
                        "type" : "double",
                        "defaultValue" : 270.0,
                        "interp" : "linr"
                      },
                      "width" : {
                        "type" : "double",
                        "defaultValue" : 480.0,
                        "interp" : "linr"
                      },
                      "filename" : "C:\\Program Files (x86)\\TechSmith\\Camtasia Studio 9\\Media\\Studio\\Callouts\\anim_x.svg",
                      "horizontal-alignment" : "center",
                      "name" : "Sketch Motion X",
                      "vertical-alignment" : "center",
                      "xmlContent" : "﻿<?xml version=\"1.0\" encoding=\"utf-8\"?>\n<!DOCTYPE svg PUBLIC \"-//W3C//DTD SVG 1.1//EN\" \"http://www.w3.org/Graphics/SVG/1.1/DTD/svg11.dtd\">\n<svg version=\"1.1\" id=\"Layer_1\" xmlns=\"http://www.w3.org/2000/svg\" xmlns:xlink=\"http://www.w3.org/1999/xlink\" x=\"0px\" y=\"0px\"\n\t width=\"128px\" height=\"109px\" viewBox=\"0 0 128 109\" enable-background=\"new 0 0 128 109\" xml:space=\"preserve\">\n<path fill=\"none\" d=\"M0,0 L100,100 M100,0 L0,100\"/>\n</svg>\n",
                      "textAttributes" : {
                        "type" : "textAttributeList",
                        "keyframes" : [
                          {
                            "time" : 0,
                            "value" : null,
                            "duration" : 0
                          }
                        ]
                      }
                    },
                    "attributes" : {
                      "autoRotateText" : true
                    },
                    "parameters" : {
                      "translation0" : {
                        "type" : "double",
                        "defaultValue" : -278.409090909609,
                        "interp" : "eioe"
                      },
                      "translation1" : {
                        "type" : "double",
                        "defaultValue" : -119.318181818174,
                        "interp" : "eioe"
                      },
                      "scale0" : {
                        "type" : "double",
                        "defaultValue" : 0.256628787877695,
                        "interp" : "eioe"
                      },
                      "scale1" : {
                        "type" : "double",
                        "defaultValue" : 0.410774410774266,
                        "interp" : "eioe"
                      }
                    },
                    "leftEdgeMods" : [
                      {
                        "group" : "DrawPercentageFade",
                        "duration" : 12,
                        "parameters" : [
                          {
                            "name" : "DrawTime",
                              "func" : "FadeInFunc"
                            }
                        ]
                      }
                    ],
                    "effects" : [
                        {
                          "effectName" : "DropShadow",
                          "category" : "categoryVisualEffects",
                          "parameters" : {
                            "angle" : {
                              "type" : "double",
                              "defaultValue" : 5.49778714378214,
                              "interp" : "linr",
                              "uiHints" : {
                                "userInterfaceType" : 0,
                                "unitType" : 0
                              }
                            },
                            "blur" : {
                              "type" : "double",
                              "defaultValue" : 10.0,
                              "interp" : "linr",
                              "uiHints" : {
                                "userInterfaceType" : 0,
                                "unitType" : 0
                              }
                            },
                            "color-alpha" : {
                              "type" : "double",
                              "defaultValue" : 1.0,
                              "interp" : "linr",
                              "uiHints" : {
                                "userInterfaceType" : 0,
                                "unitType" : 0
                              }
                            },
                            "color-blue" : {
                              "type" : "double",
                              "defaultValue" : 0.1216,
                              "interp" : "linr",
                              "uiHints" : {
                                "userInterfaceType" : 0,
                                "unitType" : 0
                              }
                            },
                            "color-green" : {
                              "type" : "double",
                              "defaultValue" : 0.1216,
                              "interp" : "linr",
                              "uiHints" : {
                                "userInterfaceType" : 0,
                                "unitType" : 0
                              }
                            },
                            "color-red" : {
                              "type" : "double",
                              "defaultValue" : 0.1216,
                              "interp" : "linr",
                              "uiHints" : {
                                "userInterfaceType" : 0,
                                "unitType" : 0
                              }
                            },
                            "enabled" : 1,
                            "offset" : {
                              "type" : "double",
                              "defaultValue" : 10.0,
                              "interp" : "linr",
                              "uiHints" : {
                                "userInterfaceType" : 0,
                                "unitType" : 0
                              }
                            },
                            "opacity" : {
                              "type" : "double",
                              "defaultValue" : 0.4,
                              "interp" : "linr",
                              "uiHints" : {
                                "userInterfaceType" : 0,
                                "unitType" : 0
                              }
                            }
                          }
                        }
                    ],
                    "start" : 2550,
                    "duration" : 91,
                    "mediaStart" : 18,
                    "mediaDuration" : 91,
                    "scalar" : 1,
                    "metadata" : {
                      "WinSubProjectDisplayName" : "",
                      "clipSpeedAttribute" : false,
                      "default-legacy-drawtime-duration" : 1.0,
                      "default-scale0" : 1.0,
                      "default-scale1" : 1.0,
                      "default-stroke-width" : 5.0,
                      "default-translation0" : 0.0,
                      "default-translation1" : 0.0
                    },
                    "animationTracks" : {

                    }
                  },
                  {
                    "id" : 151,
                    "_type" : "Callout",
                    "def" : {
                      "kind" : "TypeWinSVG",
                      "shape" : "",
                      "style" : "",
                      "DrawTime" : 1.0,
                      "borderColorBlue" : 0.172549019607843,
                      "borderColorGreen" : 0.615686274509804,
                      "borderColorRed" : 0.105882352941176,
                      "borderWidth" : 12.875,
                      "flipOnXAxis" : 0.0,
                      "flipOnYAxis" : 0.0,
                      "height" : 270.0,
                      "width" : 480.0,
                      "filename" : "C:\\Program Files (x86)\\TechSmith\\Camtasia Studio 9\\Media\\Studio\\Callouts\\anim_checkmark.svg",
                      "horizontal-alignment" : "center",
                      "name" : "Sketch Motion Checkmark",
                      "vertical-alignment" : "center",
                      "xmlContent" : "﻿<?xml version=\"1.0\" encoding=\"utf-8\"?>\n<!-- Generator: Adobe Illustrator 13.0.2, SVG Export Plug-In . SVG Version: 6.00 Build 14948)  -->\n<!DOCTYPE svg PUBLIC \"-//W3C//DTD SVG 1.1//EN\" \"http://www.w3.org/Graphics/SVG/1.1/DTD/svg11.dtd\">\n<svg version=\"1.1\" id=\"Layer_1\" xmlns=\"http://www.w3.org/2000/svg\" xmlns:xlink=\"http://www.w3.org/1999/xlink\" x=\"0px\" y=\"0px\"\n\t width=\"128px\" height=\"109px\" viewBox=\"0 0 128 109\" enable-background=\"new 0 0 128 109\" xml:space=\"preserve\">\n<path fill=\"none\" d=\"M22.304,53.27c0,0,18.242,16.407,28.666,45.94c26.712-78.755,54.727-89.42,54.727-89.42\"/>\n</svg>\n",
                      "textAttributes" : {
                        "type" : "textAttributeList",
                        "keyframes" : [
                          {
                            "time" : 0,
                            "value" : null,
                            "duration" : 0
                          }
                        ]
                      }
                    },
                    "attributes" : {
                      "autoRotateText" : true
                    },
                    "parameters" : {
                      "translation0" : -335.106382978456,
                      "translation1" : -70.2127659574933,
                      "scale0" : 0.250886524823784,
                      "scale1" : 0.3853427895978
                    },
                    "leftEdgeMods" : [
                      {
                        "group" : "DrawPercentageFade",
                        "duration" : 11,
                        "parameters" : [
                          {
                            "name" : "DrawTime",
                              "func" : "FadeInFunc"
                            }
                        ]
                      }
                    ],
                    "effects" : [
                        {
                          "effectName" : "DropShadow",
                          "category" : "categoryVisualEffects",
                          "parameters" : {
                            "angle" : 5.49778714378214,
                            "blur" : 10.0,
                            "color-alpha" : 1.0,
                            "color-blue" : 0.1216,
                            "color-green" : 0.1216,
                            "color-red" : 0.1216,
                            "enabled" : 1,
                            "offset" : 10.0,
                            "opacity" : 0.4
                          }
                        }
                    ],
                    "start" : 2898,
                    "duration" : 90,
                    "mediaStart" : -24,
                    "mediaDuration" : 90,
                    "scalar" : 1,
                    "metadata" : {
                      "WinSubProjectDisplayName" : "",
                      "clipSpeedAttribute" : false,
                      "default-legacy-drawtime-duration" : 1.0,
                      "default-scale0" : 1.0,
                      "default-scale1" : 1.0,
                      "default-stroke-color-blue" : 0.0,
                      "default-stroke-color-green" : 0.0,
                      "default-stroke-color-red" : 1.0,
                      "default-stroke-width" : 5.0,
                      "default-translation0" : 0.0,
                      "default-translation1" : 0.0
                    },
                    "animationTracks" : {

                    }
                  },
                  {
                    "id" : 152,
                    "_type" : "Callout",
                    "def" : {
                      "kind" : "TypeWinSVG",
                      "shape" : "",
                      "style" : "",
                      "DrawTime" : 1.0,
                      "borderColorBlue" : 0.172549019607843,
                      "borderColorGreen" : 0.615686274509804,
                      "borderColorRed" : 0.105882352941176,
                      "borderWidth" : 12.875,
                      "flipOnXAxis" : 0.0,
                      "flipOnYAxis" : 0.0,
                      "height" : 270.0,
                      "width" : 480.0,
                      "filename" : "C:\\Program Files (x86)\\TechSmith\\Camtasia Studio 9\\Media\\Studio\\Callouts\\anim_checkmark.svg",
                      "horizontal-alignment" : "center",
                      "name" : "Sketch Motion Checkmark",
                      "vertical-alignment" : "center",
                      "xmlContent" : "﻿<?xml version=\"1.0\" encoding=\"utf-8\"?>\n<!-- Generator: Adobe Illustrator 13.0.2, SVG Export Plug-In . SVG Version: 6.00 Build 14948)  -->\n<!DOCTYPE svg PUBLIC \"-//W3C//DTD SVG 1.1//EN\" \"http://www.w3.org/Graphics/SVG/1.1/DTD/svg11.dtd\">\n<svg version=\"1.1\" id=\"Layer_1\" xmlns=\"http://www.w3.org/2000/svg\" xmlns:xlink=\"http://www.w3.org/1999/xlink\" x=\"0px\" y=\"0px\"\n\t width=\"128px\" height=\"109px\" viewBox=\"0 0 128 109\" enable-background=\"new 0 0 128 109\" xml:space=\"preserve\">\n<path fill=\"none\" d=\"M22.304,53.27c0,0,18.242,16.407,28.666,45.94c26.712-78.755,54.727-89.42,54.727-89.42\"/>\n</svg>\n",
                      "textAttributes" : {
                        "type" : "textAttributeList",
                        "keyframes" : [
                          {
                            "time" : 0,
                            "value" : null,
                            "duration" : 0
                          }
                        ]
                      }
                    },
                    "attributes" : {
                      "autoRotateText" : true
                    },
                    "parameters" : {
                      "translation0" : -335.106382978456,
                      "translation1" : -70.2127659574933,
                      "scale0" : 0.250886524823784,
                      "scale1" : 0.3853427895978
                    },
                    "leftEdgeMods" : [
                      {
                        "group" : "DrawPercentageFade",
                        "duration" : 11,
                        "parameters" : [
                          {
                            "name" : "DrawTime",
                              "func" : "FadeInFunc"
                            }
                        ]
                      }
                    ],
                    "effects" : [
                        {
                          "effectName" : "DropShadow",
                          "category" : "categoryVisualEffects",
                          "parameters" : {
                            "angle" : 5.49778714378214,
                            "blur" : 10.0,
                            "color-alpha" : 1.0,
                            "color-blue" : 0.1216,
                            "color-green" : 0.1216,
                            "color-red" : 0.1216,
                            "enabled" : 1,
                            "offset" : 10.0,
                            "opacity" : 0.4
                          }
                        }
                    ],
                    "start" : 3243,
                    "duration" : 90,
                    "mediaStart" : -24,
                    "mediaDuration" : 90,
                    "scalar" : 1,
                    "metadata" : {
                      "WinSubProjectDisplayName" : "",
                      "clipSpeedAttribute" : false,
                      "default-legacy-drawtime-duration" : 1.0,
                      "default-scale0" : 1.0,
                      "default-scale1" : 1.0,
                      "default-stroke-color-blue" : 0.0,
                      "default-stroke-color-green" : 0.0,
                      "default-stroke-color-red" : 1.0,
                      "default-stroke-width" : 5.0,
                      "default-translation0" : 0.0,
                      "default-translation1" : 0.0
                    },
                    "animationTracks" : {

                    }
                  },
                  {
                    "id" : 153,
                    "_type" : "Callout",
                    "def" : {
                      "kind" : "TypeWinSVG",
                      "shape" : "",
                      "style" : "",
                      "DrawTime" : 1.0,
                      "borderColorBlue" : 0.172549019607843,
                      "borderColorGreen" : 0.615686274509804,
                      "borderColorRed" : 0.105882352941176,
                      "borderWidth" : 12.875,
                      "flipOnXAxis" : 0.0,
                      "flipOnYAxis" : 0.0,
                      "height" : 270.0,
                      "width" : 480.0,
                      "filename" : "C:\\Program Files (x86)\\TechSmith\\Camtasia Studio 9\\Media\\Studio\\Callouts\\anim_checkmark.svg",
                      "horizontal-alignment" : "center",
                      "name" : "Sketch Motion Checkmark",
                      "vertical-alignment" : "center",
                      "xmlContent" : "﻿<?xml version=\"1.0\" encoding=\"utf-8\"?>\n<!-- Generator: Adobe Illustrator 13.0.2, SVG Export Plug-In . SVG Version: 6.00 Build 14948)  -->\n<!DOCTYPE svg PUBLIC \"-//W3C//DTD SVG 1.1//EN\" \"http://www.w3.org/Graphics/SVG/1.1/DTD/svg11.dtd\">\n<svg version=\"1.1\" id=\"Layer_1\" xmlns=\"http://www.w3.org/2000/svg\" xmlns:xlink=\"http://www.w3.org/1999/xlink\" x=\"0px\" y=\"0px\"\n\t width=\"128px\" height=\"109px\" viewBox=\"0 0 128 109\" enable-background=\"new 0 0 128 109\" xml:space=\"preserve\">\n<path fill=\"none\" d=\"M22.304,53.27c0,0,18.242,16.407,28.666,45.94c26.712-78.755,54.727-89.42,54.727-89.42\"/>\n</svg>\n",
                      "textAttributes" : {
                        "type" : "textAttributeList",
                        "keyframes" : [
                          {
                            "time" : 0,
                            "value" : null,
                            "duration" : 0
                          }
                        ]
                      }
                    },
                    "attributes" : {
                      "autoRotateText" : true
                    },
                    "parameters" : {
                      "translation0" : -276.015473887545,
                      "translation1" : -117.940038684757,
                      "scale0" : 0.250886524823784,
                      "scale1" : 0.3853427895978
                    },
                    "leftEdgeMods" : [
                      {
                        "group" : "DrawPercentageFade",
                        "duration" : 11,
                        "parameters" : [
                          {
                            "name" : "DrawTime",
                              "func" : "FadeInFunc"
                            }
                        ]
                      }
                    ],
                    "effects" : [
                        {
                          "effectName" : "DropShadow",
                          "category" : "categoryVisualEffects",
                          "parameters" : {
                            "angle" : 5.49778714378214,
                            "blur" : 10.0,
                            "color-alpha" : 1.0,
                            "color-blue" : 0.1216,
                            "color-green" : 0.1216,
                            "color-red" : 0.1216,
                            "enabled" : 1,
                            "offset" : 10.0,
                            "opacity" : 0.4
                          }
                        }
                    ],
                    "start" : 3580,
                    "duration" : 89,
                    "mediaStart" : -24,
                    "mediaDuration" : 89,
                    "scalar" : 1,
                    "metadata" : {
                      "WinSubProjectDisplayName" : "",
                      "clipSpeedAttribute" : false,
                      "default-legacy-drawtime-duration" : 1.0,
                      "default-scale0" : 1.0,
                      "default-scale1" : 1.0,
                      "default-stroke-color-blue" : 0.0,
                      "default-stroke-color-green" : 0.0,
                      "default-stroke-color-red" : 1.0,
                      "default-stroke-width" : 5.0,
                      "default-translation0" : 0.0,
                      "default-translation1" : 0.0
                    },
                    "animationTracks" : {

                    }
                  },
                  {
                    "id" : 154,
                    "_type" : "Callout",
                    "def" : {
                      "kind" : "TypeWinSVG",
                      "shape" : "",
                      "style" : "",
                      "DrawTime" : 1.0,
                      "borderColorBlue" : 0.0,
                      "borderColorGreen" : 0.0,
                      "borderColorRed" : 1.0,
                      "borderWidth" : 12.0,
                      "flipOnXAxis" : 0.0,
                      "flipOnYAxis" : 0.0,
                      "height" : 270.0,
                      "width" : 480.0,
                      "filename" : "C:\\Program Files (x86)\\TechSmith\\Camtasia Studio 9\\Media\\Studio\\Callouts\\anim_x.svg",
                      "horizontal-alignment" : "center",
                      "name" : "Sketch Motion X",
                      "vertical-alignment" : "center",
                      "xmlContent" : "﻿<?xml version=\"1.0\" encoding=\"utf-8\"?>\n<!DOCTYPE svg PUBLIC \"-//W3C//DTD SVG 1.1//EN\" \"http://www.w3.org/Graphics/SVG/1.1/DTD/svg11.dtd\">\n<svg version=\"1.1\" id=\"Layer_1\" xmlns=\"http://www.w3.org/2000/svg\" xmlns:xlink=\"http://www.w3.org/1999/xlink\" x=\"0px\" y=\"0px\"\n\t width=\"128px\" height=\"109px\" viewBox=\"0 0 128 109\" enable-background=\"new 0 0 128 109\" xml:space=\"preserve\">\n<path fill=\"none\" d=\"M0,0 L100,100 M100,0 L0,100\"/>\n</svg>\n",
                      "textAttributes" : {
                        "type" : "textAttributeList",
                        "keyframes" : [
                          {
                            "time" : 0,
                            "value" : null,
                            "duration" : 0
                          }
                        ]
                      }
                    },
                    "attributes" : {
                      "autoRotateText" : true
                    },
                    "parameters" : {
                      "translation0" : -278.409090909609,
                      "translation1" : -119.318181818174,
                      "scale0" : 0.256628787877695,
                      "scale1" : 0.410774410774266
                    },
                    "leftEdgeMods" : [
                      {
                        "group" : "DrawPercentageFade",
                        "duration" : 12,
                        "parameters" : [
                          {
                            "name" : "DrawTime",
                              "func" : "FadeInFunc"
                            }
                        ]
                      }
                    ],
                    "effects" : [
                        {
                          "effectName" : "DropShadow",
                          "category" : "categoryVisualEffects",
                          "parameters" : {
                            "angle" : 5.49778714378214,
                            "blur" : 10.0,
                            "color-alpha" : 1.0,
                            "color-blue" : 0.1216,
                            "color-green" : 0.1216,
                            "color-red" : 0.1216,
                            "enabled" : 1,
                            "offset" : 10.0,
                            "opacity" : 0.4
                          }
                        }
                    ],
                    "start" : 3910,
                    "duration" : 90,
                    "mediaStart" : 60,
                    "mediaDuration" : 90,
                    "scalar" : 1,
                    "metadata" : {
                      "WinSubProjectDisplayName" : "",
                      "clipSpeedAttribute" : false,
                      "default-legacy-drawtime-duration" : 1.0,
                      "default-scale0" : 1.0,
                      "default-scale1" : 1.0,
                      "default-stroke-width" : 5.0,
                      "default-translation0" : 0.0,
                      "default-translation1" : 0.0
                    },
                    "animationTracks" : {

                    }
                  },
                  {
                    "id" : 155,
                    "_type" : "Callout",
                    "def" : {
                      "kind" : "TypeWinSVG",
                      "shape" : "",
                      "style" : "",
                      "DrawTime" : 1.0,
                      "borderColorBlue" : 0.0,
                      "borderColorGreen" : 0.0,
                      "borderColorRed" : 1.0,
                      "borderWidth" : 12.0,
                      "flipOnXAxis" : 0.0,
                      "flipOnYAxis" : 0.0,
                      "height" : 270.0,
                      "width" : 480.0,
                      "filename" : "C:\\Program Files (x86)\\TechSmith\\Camtasia Studio 9\\Media\\Studio\\Callouts\\anim_x.svg",
                      "horizontal-alignment" : "center",
                      "name" : "Sketch Motion X",
                      "vertical-alignment" : "center",
                      "xmlContent" : "﻿<?xml version=\"1.0\" encoding=\"utf-8\"?>\n<!DOCTYPE svg PUBLIC \"-//W3C//DTD SVG 1.1//EN\" \"http://www.w3.org/Graphics/SVG/1.1/DTD/svg11.dtd\">\n<svg version=\"1.1\" id=\"Layer_1\" xmlns=\"http://www.w3.org/2000/svg\" xmlns:xlink=\"http://www.w3.org/1999/xlink\" x=\"0px\" y=\"0px\"\n\t width=\"128px\" height=\"109px\" viewBox=\"0 0 128 109\" enable-background=\"new 0 0 128 109\" xml:space=\"preserve\">\n<path fill=\"none\" d=\"M0,0 L100,100 M100,0 L0,100\"/>\n</svg>\n",
                      "textAttributes" : {
                        "type" : "textAttributeList",
                        "keyframes" : [
                          {
                            "time" : 0,
                            "value" : null,
                            "duration" : 0
                          }
                        ]
                      }
                    },
                    "attributes" : {
                      "autoRotateText" : true
                    },
                    "parameters" : {
                      "translation0" : -278.409090909609,
                      "translation1" : -119.318181818174,
                      "scale0" : 0.256628787877695,
                      "scale1" : 0.410774410774266
                    },
                    "leftEdgeMods" : [
                      {
                        "group" : "DrawPercentageFade",
                        "duration" : 12,
                        "parameters" : [
                          {
                            "name" : "DrawTime",
                              "func" : "FadeInFunc"
                            }
                        ]
                      }
                    ],
                    "effects" : [
                        {
                          "effectName" : "DropShadow",
                          "category" : "categoryVisualEffects",
                          "parameters" : {
                            "angle" : 5.49778714378214,
                            "blur" : 10.0,
                            "color-alpha" : 1.0,
                            "color-blue" : 0.1216,
                            "color-green" : 0.1216,
                            "color-red" : 0.1216,
                            "enabled" : 1,
                            "offset" : 10.0,
                            "opacity" : 0.4
                          }
                        }
                    ],
                    "start" : 4235,
                    "duration" : 91,
                    "mediaStart" : 59,
                    "mediaDuration" : 91,
                    "scalar" : 1,
                    "metadata" : {
                      "WinSubProjectDisplayName" : "",
                      "clipSpeedAttribute" : false,
                      "default-legacy-drawtime-duration" : 1.0,
                      "default-scale0" : 1.0,
                      "default-scale1" : 1.0,
                      "default-stroke-width" : 5.0,
                      "default-translation0" : 0.0,
                      "default-translation1" : 0.0
                    },
                    "animationTracks" : {

                    }
                  },
                  {
                    "id" : 156,
                    "_type" : "Callout",
                    "def" : {
                      "kind" : "TypeWinSVG",
                      "shape" : "",
                      "style" : "",
                      "DrawTime" : 1.0,
                      "borderColorBlue" : 0.0,
                      "borderColorGreen" : 0.0,
                      "borderColorRed" : 1.0,
                      "borderWidth" : 12.0,
                      "flipOnXAxis" : 0.0,
                      "flipOnYAxis" : 0.0,
                      "height" : 270.0,
                      "width" : 480.0,
                      "filename" : "C:\\Program Files (x86)\\TechSmith\\Camtasia Studio 9\\Media\\Studio\\Callouts\\anim_x.svg",
                      "horizontal-alignment" : "center",
                      "name" : "Sketch Motion X",
                      "vertical-alignment" : "center",
                      "xmlContent" : "﻿<?xml version=\"1.0\" encoding=\"utf-8\"?>\n<!DOCTYPE svg PUBLIC \"-//W3C//DTD SVG 1.1//EN\" \"http://www.w3.org/Graphics/SVG/1.1/DTD/svg11.dtd\">\n<svg version=\"1.1\" id=\"Layer_1\" xmlns=\"http://www.w3.org/2000/svg\" xmlns:xlink=\"http://www.w3.org/1999/xlink\" x=\"0px\" y=\"0px\"\n\t width=\"128px\" height=\"109px\" viewBox=\"0 0 128 109\" enable-background=\"new 0 0 128 109\" xml:space=\"preserve\">\n<path fill=\"none\" d=\"M0,0 L100,100 M100,0 L0,100\"/>\n</svg>\n",
                      "textAttributes" : {
                        "type" : "textAttributeList",
                        "keyframes" : [
                          {
                            "time" : 0,
                            "value" : null,
                            "duration" : 0
                          }
                        ]
                      }
                    },
                    "attributes" : {
                      "autoRotateText" : true
                    },
                    "parameters" : {
                      "translation0" : -278.409090909609,
                      "translation1" : -119.318181818174,
                      "scale0" : 0.256628787877695,
                      "scale1" : 0.410774410774266
                    },
                    "leftEdgeMods" : [
                      {
                        "group" : "DrawPercentageFade",
                        "duration" : 12,
                        "parameters" : [
                          {
                            "name" : "DrawTime",
                              "func" : "FadeInFunc"
                            }
                        ]
                      }
                    ],
                    "effects" : [
                        {
                          "effectName" : "DropShadow",
                          "category" : "categoryVisualEffects",
                          "parameters" : {
                            "angle" : 5.49778714378214,
                            "blur" : 10.0,
                            "color-alpha" : 1.0,
                            "color-blue" : 0.1216,
                            "color-green" : 0.1216,
                            "color-red" : 0.1216,
                            "enabled" : 1,
                            "offset" : 10.0,
                            "opacity" : 0.4
                          }
                        }
                    ],
                    "start" : 4504,
                    "duration" : 90,
                    "mediaStart" : 18,
                    "mediaDuration" : 90,
                    "scalar" : 1,
                    "metadata" : {
                      "WinSubProjectDisplayName" : "",
                      "clipSpeedAttribute" : false,
                      "default-legacy-drawtime-duration" : 1.0,
                      "default-scale0" : 1.0,
                      "default-scale1" : 1.0,
                      "default-stroke-width" : 5.0,
                      "default-translation0" : 0.0,
                      "default-translation1" : 0.0
                    },
                    "animationTracks" : {

                    }
                  },
                  {
                    "id" : 157,
                    "_type" : "Callout",
                    "def" : {
                      "kind" : "TypeWinSVG",
                      "shape" : "",
                      "style" : "",
                      "DrawTime" : 1.0,
                      "borderColorBlue" : 0.0,
                      "borderColorGreen" : 0.0,
                      "borderColorRed" : 1.0,
                      "borderWidth" : 12.0,
                      "flipOnXAxis" : 0.0,
                      "flipOnYAxis" : 0.0,
                      "height" : 270.0,
                      "width" : 480.0,
                      "filename" : "C:\\Program Files (x86)\\TechSmith\\Camtasia Studio 9\\Media\\Studio\\Callouts\\anim_x.svg",
                      "horizontal-alignment" : "center",
                      "name" : "Sketch Motion X",
                      "vertical-alignment" : "center",
                      "xmlContent" : "﻿<?xml version=\"1.0\" encoding=\"utf-8\"?>\n<!DOCTYPE svg PUBLIC \"-//W3C//DTD SVG 1.1//EN\" \"http://www.w3.org/Graphics/SVG/1.1/DTD/svg11.dtd\">\n<svg version=\"1.1\" id=\"Layer_1\" xmlns=\"http://www.w3.org/2000/svg\" xmlns:xlink=\"http://www.w3.org/1999/xlink\" x=\"0px\" y=\"0px\"\n\t width=\"128px\" height=\"109px\" viewBox=\"0 0 128 109\" enable-background=\"new 0 0 128 109\" xml:space=\"preserve\">\n<path fill=\"none\" d=\"M0,0 L100,100 M100,0 L0,100\"/>\n</svg>\n",
                      "textAttributes" : {
                        "type" : "textAttributeList",
                        "keyframes" : [
                          {
                            "time" : 0,
                            "value" : null,
                            "duration" : 0
                          }
                        ]
                      }
                    },
                    "attributes" : {
                      "autoRotateText" : true
                    },
                    "parameters" : {
                      "translation0" : -278.409090909609,
                      "translation1" : -119.318181818174,
                      "scale0" : 0.256628787877695,
                      "scale1" : 0.410774410774266
                    },
                    "leftEdgeMods" : [
                      {
                        "group" : "DrawPercentageFade",
                        "duration" : 12,
                        "parameters" : [
                          {
                            "name" : "DrawTime",
                              "func" : "FadeInFunc"
                            }
                        ]
                      }
                    ],
                    "effects" : [
                        {
                          "effectName" : "DropShadow",
                          "category" : "categoryVisualEffects",
                          "parameters" : {
                            "angle" : 5.49778714378214,
                            "blur" : 10.0,
                            "color-alpha" : 1.0,
                            "color-blue" : 0.1216,
                            "color-green" : 0.1216,
                            "color-red" : 0.1216,
                            "enabled" : 1,
                            "offset" : 10.0,
                            "opacity" : 0.4
                          }
                        }
                    ],
                    "start" : 4829,
                    "duration" : 90,
                    "mediaStart" : 18,
                    "mediaDuration" : 90,
                    "scalar" : 1,
                    "metadata" : {
                      "WinSubProjectDisplayName" : "",
                      "clipSpeedAttribute" : false,
                      "default-legacy-drawtime-duration" : 1.0,
                      "default-scale0" : 1.0,
                      "default-scale1" : 1.0,
                      "default-stroke-width" : 5.0,
                      "default-translation0" : 0.0,
                      "default-translation1" : 0.0
                    },
                    "animationTracks" : {

                    }
                  },
                  {
                    "id" : 158,
                    "_type" : "Callout",
                    "def" : {
                      "kind" : "TypeWinSVG",
                      "shape" : "",
                      "style" : "",
                      "DrawTime" : 1.0,
                      "borderColorBlue" : 0.0,
                      "borderColorGreen" : 0.0,
                      "borderColorRed" : 1.0,
                      "borderWidth" : 12.0,
                      "flipOnXAxis" : 0.0,
                      "flipOnYAxis" : 0.0,
                      "height" : 270.0,
                      "width" : 480.0,
                      "filename" : "C:\\Program Files (x86)\\TechSmith\\Camtasia Studio 9\\Media\\Studio\\Callouts\\anim_x.svg",
                      "horizontal-alignment" : "center",
                      "name" : "Sketch Motion X",
                      "vertical-alignment" : "center",
                      "xmlContent" : "﻿<?xml version=\"1.0\" encoding=\"utf-8\"?>\n<!DOCTYPE svg PUBLIC \"-//W3C//DTD SVG 1.1//EN\" \"http://www.w3.org/Graphics/SVG/1.1/DTD/svg11.dtd\">\n<svg version=\"1.1\" id=\"Layer_1\" xmlns=\"http://www.w3.org/2000/svg\" xmlns:xlink=\"http://www.w3.org/1999/xlink\" x=\"0px\" y=\"0px\"\n\t width=\"128px\" height=\"109px\" viewBox=\"0 0 128 109\" enable-background=\"new 0 0 128 109\" xml:space=\"preserve\">\n<path fill=\"none\" d=\"M0,0 L100,100 M100,0 L0,100\"/>\n</svg>\n",
                      "textAttributes" : {
                        "type" : "textAttributeList",
                        "keyframes" : [
                          {
                            "time" : 0,
                            "value" : null,
                            "duration" : 0
                          }
                        ]
                      }
                    },
                    "attributes" : {
                      "autoRotateText" : true
                    },
                    "parameters" : {
                      "translation0" : -268.403496795113,
                      "translation1" : -232.878257333799,
                      "scale0" : 0.212436868686136,
                      "scale1" : 0.322610615026129
                    },
                    "leftEdgeMods" : [
                      {
                        "group" : "DrawPercentageFade",
                        "duration" : 12,
                        "parameters" : [
                          {
                            "name" : "DrawTime",
                              "func" : "FadeInFunc"
                            }
                        ]
                      }
                    ],
                    "effects" : [
                        {
                          "effectName" : "DropShadow",
                          "category" : "categoryVisualEffects",
                          "parameters" : {
                            "angle" : 5.49778714378214,
                            "blur" : 10.0,
                            "color-alpha" : 1.0,
                            "color-blue" : 0.1216,
                            "color-green" : 0.1216,
                            "color-red" : 0.1216,
                            "enabled" : 1,
                            "offset" : 10.0,
                            "opacity" : 0.4
                          }
                        }
                    ],
                    "start" : 5173,
                    "duration" : 111,
                    "mediaStart" : -3,
                    "mediaDuration" : 111,
                    "scalar" : 1,
                    "metadata" : {
                      "WinSubProjectDisplayName" : "",
                      "clipSpeedAttribute" : false,
                      "default-legacy-drawtime-duration" : 1.0,
                      "default-scale0" : 1.0,
                      "default-scale1" : 1.0,
                      "default-stroke-width" : 5.0,
                      "default-translation0" : 0.0,
                      "default-translation1" : 0.0
                    },
                    "animationTracks" : {

                    }
                  },
                  {
                    "id" : 159,
                    "_type" : "Callout",
                    "def" : {
                      "kind" : "TypeWinSVG",
                      "shape" : "",
                      "style" : "",
                      "DrawTime" : 1.0,
                      "borderColorBlue" : 0.172549019607843,
                      "borderColorGreen" : 0.615686274509804,
                      "borderColorRed" : 0.105882352941176,
                      "borderWidth" : 12.875,
                      "flipOnXAxis" : 0.0,
                      "flipOnYAxis" : 0.0,
                      "height" : 270.0,
                      "width" : 480.0,
                      "filename" : "C:\\Program Files (x86)\\TechSmith\\Camtasia Studio 9\\Media\\Studio\\Callouts\\anim_checkmark.svg",
                      "horizontal-alignment" : "center",
                      "name" : "Sketch Motion Checkmark",
                      "vertical-alignment" : "center",
                      "xmlContent" : "﻿<?xml version=\"1.0\" encoding=\"utf-8\"?>\n<!-- Generator: Adobe Illustrator 13.0.2, SVG Export Plug-In . SVG Version: 6.00 Build 14948)  -->\n<!DOCTYPE svg PUBLIC \"-//W3C//DTD SVG 1.1//EN\" \"http://www.w3.org/Graphics/SVG/1.1/DTD/svg11.dtd\">\n<svg version=\"1.1\" id=\"Layer_1\" xmlns=\"http://www.w3.org/2000/svg\" xmlns:xlink=\"http://www.w3.org/1999/xlink\" x=\"0px\" y=\"0px\"\n\t width=\"128px\" height=\"109px\" viewBox=\"0 0 128 109\" enable-background=\"new 0 0 128 109\" xml:space=\"preserve\">\n<path fill=\"none\" d=\"M22.304,53.27c0,0,18.242,16.407,28.666,45.94c26.712-78.755,54.727-89.42,54.727-89.42\"/>\n</svg>\n",
                      "textAttributes" : {
                        "type" : "textAttributeList",
                        "keyframes" : [
                          {
                            "time" : 0,
                            "value" : null,
                            "duration" : 0
                          }
                        ]
                      }
                    },
                    "attributes" : {
                      "autoRotateText" : true
                    },
                    "parameters" : {
                      "translation0" : -205.27217463401,
                      "translation1" : -92.4399005253591,
                      "scale0" : 0.250886524823784,
                      "scale1" : 0.3853427895978
                    },
                    "leftEdgeMods" : [
                      {
                        "group" : "DrawPercentageFade",
                        "duration" : 18,
                        "parameters" : [
                          {
                            "name" : "DrawTime",
                              "func" : "FadeInFunc"
                            }
                        ]
                      }
                    ],
                    "effects" : [
                        {
                          "effectName" : "DropShadow",
                          "category" : "categoryVisualEffects",
                          "parameters" : {
                            "angle" : 5.49778714378214,
                            "blur" : 10.0,
                            "color-alpha" : 1.0,
                            "color-blue" : 0.1216,
                            "color-green" : 0.1216,
                            "color-red" : 0.1216,
                            "enabled" : 1,
                            "offset" : 10.0,
                            "opacity" : 0.4
                          }
                        }
                    ],
                    "start" : 5494,
                    "duration" : 90,
                    "mediaStart" : -24,
                    "mediaDuration" : 90,
                    "scalar" : 1,
                    "metadata" : {
                      "WinSubProjectDisplayName" : "",
                      "clipSpeedAttribute" : false,
                      "default-legacy-drawtime-duration" : 1.0,
                      "default-rotation2" : 0.0,
                      "default-scale0" : 1.0,
                      "default-scale1" : 1.0,
                      "default-stroke-color-blue" : 0.0,
                      "default-stroke-color-green" : 0.0,
                      "default-stroke-color-red" : 1.0,
                      "default-stroke-width" : 5.0,
                      "default-translation0" : 0.0,
                      "default-translation1" : 0.0
                    },
                    "animationTracks" : {

                    }
                  },
                  {
                    "id" : 160,
                    "_type" : "Callout",
                    "def" : {
                      "kind" : "TypeWinSVG",
                      "shape" : "",
                      "style" : "",
                      "DrawTime" : {
                        "type" : "double",
                        "defaultValue" : 1.0,
                        "interp" : "linr"
                      },
                      "borderColorBlue" : {
                        "type" : "double",
                        "defaultValue" : 0.0,
                        "interp" : "linr"
                      },
                      "borderColorGreen" : {
                        "type" : "double",
                        "defaultValue" : 0.0,
                        "interp" : "linr"
                      },
                      "borderColorRed" : {
                        "type" : "double",
                        "defaultValue" : 1.0,
                        "interp" : "linr"
                      },
                      "borderWidth" : {
                        "type" : "double",
                        "defaultValue" : 12.0,
                        "interp" : "linr"
                      },
                      "flipOnXAxis" : {
                        "type" : "double",
                        "defaultValue" : 0.0,
                        "interp" : "linr"
                      },
                      "flipOnYAxis" : {
                        "type" : "double",
                        "defaultValue" : 0.0,
                        "interp" : "linr"
                      },
                      "height" : {
                        "type" : "double",
                        "defaultValue" : 270.0,
                        "interp" : "linr"
                      },
                      "width" : {
                        "type" : "double",
                        "defaultValue" : 480.0,
                        "interp" : "linr"
                      },
                      "filename" : "C:\\Program Files (x86)\\TechSmith\\Camtasia Studio 9\\Media\\Studio\\Callouts\\anim_x.svg",
                      "horizontal-alignment" : "center",
                      "name" : "Sketch Motion X",
                      "vertical-alignment" : "center",
                      "xmlContent" : "﻿<?xml version=\"1.0\" encoding=\"utf-8\"?>\n<!DOCTYPE svg PUBLIC \"-//W3C//DTD SVG 1.1//EN\" \"http://www.w3.org/Graphics/SVG/1.1/DTD/svg11.dtd\">\n<svg version=\"1.1\" id=\"Layer_1\" xmlns=\"http://www.w3.org/2000/svg\" xmlns:xlink=\"http://www.w3.org/1999/xlink\" x=\"0px\" y=\"0px\"\n\t width=\"128px\" height=\"109px\" viewBox=\"0 0 128 109\" enable-background=\"new 0 0 128 109\" xml:space=\"preserve\">\n<path fill=\"none\" d=\"M0,0 L100,100 M100,0 L0,100\"/>\n</svg>\n",
                      "textAttributes" : {
                        "type" : "textAttributeList",
                        "keyframes" : [
                          {
                            "time" : 0,
                            "value" : null,
                            "duration" : 0
                          }
                        ]
                      }
                    },
                    "attributes" : {
                      "autoRotateText" : true
                    },
                    "parameters" : {
                      "translation0" : {
                        "type" : "double",
                        "defaultValue" : -263.05609284191,
                        "interp" : "eioe"
                      },
                      "translation1" : {
                        "type" : "double",
                        "defaultValue" : -171.340956561747,
                        "interp" : "eioe"
                      },
                      "scale0" : {
                        "type" : "double",
                        "defaultValue" : 0.212436868686136,
                        "interp" : "eioe"
                      },
                      "scale1" : {
                        "type" : "double",
                        "defaultValue" : 0.322610615026129,
                        "interp" : "eioe"
                      }
                    },
                    "leftEdgeMods" : [
                      {
                        "group" : "DrawPercentageFade",
                        "duration" : 12,
                        "parameters" : [
                          {
                            "name" : "DrawTime",
                              "func" : "FadeInFunc"
                            }
                        ]
                      }
                    ],
                    "effects" : [
                        {
                          "effectName" : "DropShadow",
                          "category" : "categoryVisualEffects",
                          "parameters" : {
                            "angle" : {
                              "type" : "double",
                              "defaultValue" : 5.49778714378214,
                              "interp" : "linr",
                              "uiHints" : {
                                "userInterfaceType" : 0,
                                "unitType" : 0
                              }
                            },
                            "blur" : {
                              "type" : "double",
                              "defaultValue" : 10.0,
                              "interp" : "linr",
                              "uiHints" : {
                                "userInterfaceType" : 0,
                                "unitType" : 0
                              }
                            },
                            "color-alpha" : {
                              "type" : "double",
                              "defaultValue" : 1.0,
                              "interp" : "linr",
                              "uiHints" : {
                                "userInterfaceType" : 0,
                                "unitType" : 0
                              }
                            },
                            "color-blue" : {
                              "type" : "double",
                              "defaultValue" : 0.1216,
                              "interp" : "linr",
                              "uiHints" : {
                                "userInterfaceType" : 0,
                                "unitType" : 0
                              }
                            },
                            "color-green" : {
                              "type" : "double",
                              "defaultValue" : 0.1216,
                              "interp" : "linr",
                              "uiHints" : {
                                "userInterfaceType" : 0,
                                "unitType" : 0
                              }
                            },
                            "color-red" : {
                              "type" : "double",
                              "defaultValue" : 0.1216,
                              "interp" : "linr",
                              "uiHints" : {
                                "userInterfaceType" : 0,
                                "unitType" : 0
                              }
                            },
                            "enabled" : 1,
                            "offset" : {
                              "type" : "double",
                              "defaultValue" : 10.0,
                              "interp" : "linr",
                              "uiHints" : {
                                "userInterfaceType" : 0,
                                "unitType" : 0
                              }
                            },
                            "opacity" : {
                              "type" : "double",
                              "defaultValue" : 0.4,
                              "interp" : "linr",
                              "uiHints" : {
                                "userInterfaceType" : 0,
                                "unitType" : 0
                              }
                            }
                          }
                        }
                    ],
                    "start" : 5807,
                    "duration" : 91,
                    "mediaStart" : -3,
                    "mediaDuration" : 91,
                    "scalar" : 1,
                    "metadata" : {
                      "WinSubProjectDisplayName" : "",
                      "clipSpeedAttribute" : false,
                      "default-legacy-drawtime-duration" : 1.0,
                      "default-scale0" : 1.0,
                      "default-scale1" : 1.0,
                      "default-stroke-width" : 5.0,
                      "default-translation0" : 0.0,
                      "default-translation1" : 0.0
                    },
                    "animationTracks" : {

                    }
                  },
                  {
                    "id" : 161,
                    "_type" : "Callout",
                    "def" : {
                      "kind" : "TypeWinSVG",
                      "shape" : "",
                      "style" : "",
                      "DrawTime" : 1.0,
                      "borderColorBlue" : 0.172549019607843,
                      "borderColorGreen" : 0.615686274509804,
                      "borderColorRed" : 0.105882352941176,
                      "borderWidth" : 12.875,
                      "flipOnXAxis" : 0.0,
                      "flipOnYAxis" : 0.0,
                      "height" : 270.0,
                      "width" : 480.0,
                      "filename" : "C:\\Program Files (x86)\\TechSmith\\Camtasia Studio 9\\Media\\Studio\\Callouts\\anim_checkmark.svg",
                      "horizontal-alignment" : "center",
                      "name" : "Sketch Motion Checkmark",
                      "vertical-alignment" : "center",
                      "xmlContent" : "﻿<?xml version=\"1.0\" encoding=\"utf-8\"?>\n<!-- Generator: Adobe Illustrator 13.0.2, SVG Export Plug-In . SVG Version: 6.00 Build 14948)  -->\n<!DOCTYPE svg PUBLIC \"-//W3C//DTD SVG 1.1//EN\" \"http://www.w3.org/Graphics/SVG/1.1/DTD/svg11.dtd\">\n<svg version=\"1.1\" id=\"Layer_1\" xmlns=\"http://www.w3.org/2000/svg\" xmlns:xlink=\"http://www.w3.org/1999/xlink\" x=\"0px\" y=\"0px\"\n\t width=\"128px\" height=\"109px\" viewBox=\"0 0 128 109\" enable-background=\"new 0 0 128 109\" xml:space=\"preserve\">\n<path fill=\"none\" d=\"M22.304,53.27c0,0,18.242,16.407,28.666,45.94c26.712-78.755,54.727-89.42,54.727-89.42\"/>\n</svg>\n",
                      "textAttributes" : {
                        "type" : "textAttributeList",
                        "keyframes" : [
                          {
                            "time" : 0,
                            "value" : null,
                            "duration" : 0
                          }
                        ]
                      }
                    },
                    "attributes" : {
                      "autoRotateText" : true
                    },
                    "parameters" : {
                      "translation0" : -205.27217463401,
                      "translation1" : -92.4399005253591,
                      "scale0" : 0.250886524823784,
                      "scale1" : 0.3853427895978
                    },
                    "leftEdgeMods" : [
                      {
                        "group" : "DrawPercentageFade",
                        "duration" : 18,
                        "parameters" : [
                          {
                            "name" : "DrawTime",
                              "func" : "FadeInFunc"
                            }
                        ]
                      }
                    ],
                    "effects" : [
                        {
                          "effectName" : "DropShadow",
                          "category" : "categoryVisualEffects",
                          "parameters" : {
                            "angle" : 5.49778714378214,
                            "blur" : 10.0,
                            "color-alpha" : 1.0,
                            "color-blue" : 0.1216,
                            "color-green" : 0.1216,
                            "color-red" : 0.1216,
                            "enabled" : 1,
                            "offset" : 10.0,
                            "opacity" : 0.4
                          }
                        }
                    ],
                    "start" : 6160,
                    "duration" : 90,
                    "mediaStart" : -3,
                    "mediaDuration" : 90,
                    "scalar" : 1,
                    "metadata" : {
                      "WinSubProjectDisplayName" : "",
                      "clipSpeedAttribute" : false,
                      "default-legacy-drawtime-duration" : 1.0,
                      "default-rotation2" : 0.0,
                      "default-scale0" : 1.0,
                      "default-scale1" : 1.0,
                      "default-stroke-color-blue" : 0.0,
                      "default-stroke-color-green" : 0.0,
                      "default-stroke-color-red" : 1.0,
                      "default-stroke-width" : 5.0,
                      "default-translation0" : 0.0,
                      "default-translation1" : 0.0
                    },
                    "animationTracks" : {

                    }
                  },
                  {
                    "id" : 162,
                    "_type" : "Callout",
                    "def" : {
                      "kind" : "TypeWinSVG",
                      "shape" : "",
                      "style" : "",
                      "DrawTime" : 1.0,
                      "borderColorBlue" : 0.172549019607843,
                      "borderColorGreen" : 0.615686274509804,
                      "borderColorRed" : 0.105882352941176,
                      "borderWidth" : 12.875,
                      "flipOnXAxis" : 0.0,
                      "flipOnYAxis" : 0.0,
                      "height" : 270.0,
                      "width" : 480.0,
                      "filename" : "C:\\Program Files (x86)\\TechSmith\\Camtasia Studio 9\\Media\\Studio\\Callouts\\anim_checkmark.svg",
                      "horizontal-alignment" : "center",
                      "name" : "Sketch Motion Checkmark",
                      "vertical-alignment" : "center",
                      "xmlContent" : "﻿<?xml version=\"1.0\" encoding=\"utf-8\"?>\n<!-- Generator: Adobe Illustrator 13.0.2, SVG Export Plug-In . SVG Version: 6.00 Build 14948)  -->\n<!DOCTYPE svg PUBLIC \"-//W3C//DTD SVG 1.1//EN\" \"http://www.w3.org/Graphics/SVG/1.1/DTD/svg11.dtd\">\n<svg version=\"1.1\" id=\"Layer_1\" xmlns=\"http://www.w3.org/2000/svg\" xmlns:xlink=\"http://www.w3.org/1999/xlink\" x=\"0px\" y=\"0px\"\n\t width=\"128px\" height=\"109px\" viewBox=\"0 0 128 109\" enable-background=\"new 0 0 128 109\" xml:space=\"preserve\">\n<path fill=\"none\" d=\"M22.304,53.27c0,0,18.242,16.407,28.666,45.94c26.712-78.755,54.727-89.42,54.727-89.42\"/>\n</svg>\n",
                      "textAttributes" : {
                        "type" : "textAttributeList",
                        "keyframes" : [
                          {
                            "time" : 0,
                            "value" : null,
                            "duration" : 0
                          }
                        ]
                      }
                    },
                    "attributes" : {
                      "autoRotateText" : true
                    },
                    "parameters" : {
                      "translation0" : -205.27217463401,
                      "translation1" : -92.4399005253591,
                      "scale0" : 0.250886524823784,
                      "scale1" : 0.3853427895978
                    },
                    "leftEdgeMods" : [
                      {
                        "group" : "DrawPercentageFade",
                        "duration" : 18,
                        "parameters" : [
                          {
                            "name" : "DrawTime",
                              "func" : "FadeInFunc"
                            }
                        ]
                      }
                    ],
                    "effects" : [
                        {
                          "effectName" : "DropShadow",
                          "category" : "categoryVisualEffects",
                          "parameters" : {
                            "angle" : 5.49778714378214,
                            "blur" : 10.0,
                            "color-alpha" : 1.0,
                            "color-blue" : 0.1216,
                            "color-green" : 0.1216,
                            "color-red" : 0.1216,
                            "enabled" : 1,
                            "offset" : 10.0,
                            "opacity" : 0.4
                          }
                        }
                    ],
                    "start" : 6440,
                    "duration" : 90,
                    "mediaStart" : -24,
                    "mediaDuration" : 90,
                    "scalar" : 1,
                    "metadata" : {
                      "WinSubProjectDisplayName" : "",
                      "clipSpeedAttribute" : false,
                      "default-legacy-drawtime-duration" : 1.0,
                      "default-rotation2" : 0.0,
                      "default-scale0" : 1.0,
                      "default-scale1" : 1.0,
                      "default-stroke-color-blue" : 0.0,
                      "default-stroke-color-green" : 0.0,
                      "default-stroke-color-red" : 1.0,
                      "default-stroke-width" : 5.0,
                      "default-translation0" : 0.0,
                      "default-translation1" : 0.0
                    },
                    "animationTracks" : {

                    }
                  },
                  {
                    "id" : 163,
                    "_type" : "Callout",
                    "def" : {
                      "kind" : "TypeWinSVG",
                      "shape" : "",
                      "style" : "",
                      "DrawTime" : 1.0,
                      "borderColorBlue" : 0.172549019607843,
                      "borderColorGreen" : 0.615686274509804,
                      "borderColorRed" : 0.105882352941176,
                      "borderWidth" : 12.875,
                      "flipOnXAxis" : 0.0,
                      "flipOnYAxis" : 0.0,
                      "height" : 270.0,
                      "width" : 480.0,
                      "filename" : "C:\\Program Files (x86)\\TechSmith\\Camtasia Studio 9\\Media\\Studio\\Callouts\\anim_checkmark.svg",
                      "horizontal-alignment" : "center",
                      "name" : "Sketch Motion Checkmark",
                      "vertical-alignment" : "center",
                      "xmlContent" : "﻿<?xml version=\"1.0\" encoding=\"utf-8\"?>\n<!-- Generator: Adobe Illustrator 13.0.2, SVG Export Plug-In . SVG Version: 6.00 Build 14948)  -->\n<!DOCTYPE svg PUBLIC \"-//W3C//DTD SVG 1.1//EN\" \"http://www.w3.org/Graphics/SVG/1.1/DTD/svg11.dtd\">\n<svg version=\"1.1\" id=\"Layer_1\" xmlns=\"http://www.w3.org/2000/svg\" xmlns:xlink=\"http://www.w3.org/1999/xlink\" x=\"0px\" y=\"0px\"\n\t width=\"128px\" height=\"109px\" viewBox=\"0 0 128 109\" enable-background=\"new 0 0 128 109\" xml:space=\"preserve\">\n<path fill=\"none\" d=\"M22.304,53.27c0,0,18.242,16.407,28.666,45.94c26.712-78.755,54.727-89.42,54.727-89.42\"/>\n</svg>\n",
                      "textAttributes" : {
                        "type" : "textAttributeList",
                        "keyframes" : [
                          {
                            "time" : 0,
                            "value" : null,
                            "duration" : 0
                          }
                        ]
                      }
                    },
                    "attributes" : {
                      "autoRotateText" : true
                    },
                    "parameters" : {
                      "translation0" : -205.27217463401,
                      "translation1" : -92.4399005253591,
                      "scale0" : 0.250886524823784,
                      "scale1" : 0.3853427895978
                    },
                    "leftEdgeMods" : [
                      {
                        "group" : "DrawPercentageFade",
                        "duration" : 18,
                        "parameters" : [
                          {
                            "name" : "DrawTime",
                              "func" : "FadeInFunc"
                            }
                        ]
                      }
                    ],
                    "effects" : [
                        {
                          "effectName" : "DropShadow",
                          "category" : "categoryVisualEffects",
                          "parameters" : {
                            "angle" : 5.49778714378214,
                            "blur" : 10.0,
                            "color-alpha" : 1.0,
                            "color-blue" : 0.1216,
                            "color-green" : 0.1216,
                            "color-red" : 0.1216,
                            "enabled" : 1,
                            "offset" : 10.0,
                            "opacity" : 0.4
                          }
                        }
                    ],
                    "start" : 6740,
                    "duration" : 90,
                    "mediaStart" : 18,
                    "mediaDuration" : 90,
                    "scalar" : 1,
                    "metadata" : {
                      "WinSubProjectDisplayName" : "",
                      "clipSpeedAttribute" : false,
                      "default-legacy-drawtime-duration" : 1.0,
                      "default-rotation2" : 0.0,
                      "default-scale0" : 1.0,
                      "default-scale1" : 1.0,
                      "default-stroke-color-blue" : 0.0,
                      "default-stroke-color-green" : 0.0,
                      "default-stroke-color-red" : 1.0,
                      "default-stroke-width" : 5.0,
                      "default-translation0" : 0.0,
                      "default-translation1" : 0.0
                    },
                    "animationTracks" : {

                    }
                  },
                  {
                    "id" : 164,
                    "_type" : "Callout",
                    "def" : {
                      "kind" : "TypeWinSVG",
                      "shape" : "",
                      "style" : "",
                      "DrawTime" : {
                        "type" : "double",
                        "defaultValue" : 1.0,
                        "interp" : "linr"
                      },
                      "borderColorBlue" : {
                        "type" : "double",
                        "defaultValue" : 0.172549019607843,
                        "interp" : "linr"
                      },
                      "borderColorGreen" : {
                        "type" : "double",
                        "defaultValue" : 0.615686274509804,
                        "interp" : "linr"
                      },
                      "borderColorRed" : {
                        "type" : "double",
                        "defaultValue" : 0.105882352941176,
                        "interp" : "linr"
                      },
                      "borderWidth" : {
                        "type" : "double",
                        "defaultValue" : 12.875,
                        "interp" : "linr"
                      },
                      "flipOnXAxis" : {
                        "type" : "double",
                        "defaultValue" : 0.0,
                        "interp" : "linr"
                      },
                      "flipOnYAxis" : {
                        "type" : "double",
                        "defaultValue" : 0.0,
                        "interp" : "linr"
                      },
                      "height" : {
                        "type" : "double",
                        "defaultValue" : 270.0,
                        "interp" : "linr"
                      },
                      "width" : {
                        "type" : "double",
                        "defaultValue" : 480.0,
                        "interp" : "linr"
                      },
                      "filename" : "C:\\Program Files (x86)\\TechSmith\\Camtasia Studio 9\\Media\\Studio\\Callouts\\anim_checkmark.svg",
                      "horizontal-alignment" : "center",
                      "name" : "Sketch Motion Checkmark",
                      "vertical-alignment" : "center",
                      "xmlContent" : "﻿<?xml version=\"1.0\" encoding=\"utf-8\"?>\n<!-- Generator: Adobe Illustrator 13.0.2, SVG Export Plug-In . SVG Version: 6.00 Build 14948)  -->\n<!DOCTYPE svg PUBLIC \"-//W3C//DTD SVG 1.1//EN\" \"http://www.w3.org/Graphics/SVG/1.1/DTD/svg11.dtd\">\n<svg version=\"1.1\" id=\"Layer_1\" xmlns=\"http://www.w3.org/2000/svg\" xmlns:xlink=\"http://www.w3.org/1999/xlink\" x=\"0px\" y=\"0px\"\n\t width=\"128px\" height=\"109px\" viewBox=\"0 0 128 109\" enable-background=\"new 0 0 128 109\" xml:space=\"preserve\">\n<path fill=\"none\" d=\"M22.304,53.27c0,0,18.242,16.407,28.666,45.94c26.712-78.755,54.727-89.42,54.727-89.42\"/>\n</svg>\n",
                      "textAttributes" : {
                        "type" : "textAttributeList",
                        "keyframes" : [
                          {
                            "time" : 0,
                            "value" : null,
                            "duration" : 0
                          }
                        ]
                      }
                    },
                    "attributes" : {
                      "autoRotateText" : true
                    },
                    "parameters" : {
                      "translation0" : {
                        "type" : "double",
                        "defaultValue" : -205.27217463401,
                        "interp" : "eioe"
                      },
                      "translation1" : {
                        "type" : "double",
                        "defaultValue" : -92.4399005253591,
                        "interp" : "eioe"
                      },
                      "scale0" : {
                        "type" : "double",
                        "defaultValue" : 0.250886524823784,
                        "interp" : "eioe"
                      },
                      "scale1" : {
                        "type" : "double",
                        "defaultValue" : 0.3853427895978,
                        "interp" : "eioe"
                      }
                    },
                    "leftEdgeMods" : [
                      {
                        "group" : "DrawPercentageFade",
                        "duration" : 18,
                        "parameters" : [
                          {
                            "name" : "DrawTime",
                              "func" : "FadeInFunc"
                            }
                        ]
                      }
                    ],
                    "effects" : [
                        {
                          "effectName" : "DropShadow",
                          "category" : "categoryVisualEffects",
                          "parameters" : {
                            "angle" : {
                              "type" : "double",
                              "defaultValue" : 5.49778714378214,
                              "interp" : "linr",
                              "uiHints" : {
                                "userInterfaceType" : 0,
                                "unitType" : 0
                              }
                            },
                            "blur" : {
                              "type" : "double",
                              "defaultValue" : 10.0,
                              "interp" : "linr",
                              "uiHints" : {
                                "userInterfaceType" : 0,
                                "unitType" : 0
                              }
                            },
                            "color-alpha" : {
                              "type" : "double",
                              "defaultValue" : 1.0,
                              "interp" : "linr",
                              "uiHints" : {
                                "userInterfaceType" : 0,
                                "unitType" : 0
                              }
                            },
                            "color-blue" : {
                              "type" : "double",
                              "defaultValue" : 0.1216,
                              "interp" : "linr",
                              "uiHints" : {
                                "userInterfaceType" : 0,
                                "unitType" : 0
                              }
                            },
                            "color-green" : {
                              "type" : "double",
                              "defaultValue" : 0.1216,
                              "interp" : "linr",
                              "uiHints" : {
                                "userInterfaceType" : 0,
                                "unitType" : 0
                              }
                            },
                            "color-red" : {
                              "type" : "double",
                              "defaultValue" : 0.1216,
                              "interp" : "linr",
                              "uiHints" : {
                                "userInterfaceType" : 0,
                                "unitType" : 0
                              }
                            },
                            "enabled" : 1,
                            "offset" : {
                              "type" : "double",
                              "defaultValue" : 10.0,
                              "interp" : "linr",
                              "uiHints" : {
                                "userInterfaceType" : 0,
                                "unitType" : 0
                              }
                            },
                            "opacity" : {
                              "type" : "double",
                              "defaultValue" : 0.4,
                              "interp" : "linr",
                              "uiHints" : {
                                "userInterfaceType" : 0,
                                "unitType" : 0
                              }
                            }
                          }
                        }
                    ],
                    "start" : 7053,
                    "duration" : 90,
                    "mediaStart" : 18,
                    "mediaDuration" : 90,
                    "scalar" : 1,
                    "metadata" : {
                      "WinSubProjectDisplayName" : "",
                      "clipSpeedAttribute" : false,
                      "default-legacy-drawtime-duration" : 1.0,
                      "default-rotation2" : 0.0,
                      "default-scale0" : 1.0,
                      "default-scale1" : 1.0,
                      "default-stroke-color-blue" : 0.0,
                      "default-stroke-color-green" : 0.0,
                      "default-stroke-color-red" : 1.0,
                      "default-stroke-width" : 5.0,
                      "default-translation0" : 0.0,
                      "default-translation1" : 0.0
                    },
                    "animationTracks" : {

                    }
                  },
                  {
                    "id" : 165,
                    "_type" : "Callout",
                    "def" : {
                      "kind" : "TypeWinSVG",
                      "shape" : "",
                      "style" : "",
                      "DrawTime" : 1.0,
                      "borderColorBlue" : 0.0,
                      "borderColorGreen" : 0.0,
                      "borderColorRed" : 1.0,
                      "borderWidth" : 12.0,
                      "flipOnXAxis" : 0.0,
                      "flipOnYAxis" : 0.0,
                      "height" : 270.0,
                      "width" : 480.0,
                      "filename" : "C:\\Program Files (x86)\\TechSmith\\Camtasia Studio 9\\Media\\Studio\\Callouts\\anim_x.svg",
                      "horizontal-alignment" : "center",
                      "name" : "Sketch Motion X",
                      "vertical-alignment" : "center",
                      "xmlContent" : "﻿<?xml version=\"1.0\" encoding=\"utf-8\"?>\n<!DOCTYPE svg PUBLIC \"-//W3C//DTD SVG 1.1//EN\" \"http://www.w3.org/Graphics/SVG/1.1/DTD/svg11.dtd\">\n<svg version=\"1.1\" id=\"Layer_1\" xmlns=\"http://www.w3.org/2000/svg\" xmlns:xlink=\"http://www.w3.org/1999/xlink\" x=\"0px\" y=\"0px\"\n\t width=\"128px\" height=\"109px\" viewBox=\"0 0 128 109\" enable-background=\"new 0 0 128 109\" xml:space=\"preserve\">\n<path fill=\"none\" d=\"M0,0 L100,100 M100,0 L0,100\"/>\n</svg>\n",
                      "textAttributes" : {
                        "type" : "textAttributeList",
                        "keyframes" : [
                          {
                            "time" : 0,
                            "value" : null,
                            "duration" : 0
                          }
                        ]
                      }
                    },
                    "attributes" : {
                      "autoRotateText" : true
                    },
                    "parameters" : {
                      "translation0" : -278.409090909609,
                      "translation1" : -119.318181818174,
                      "scale0" : 0.256628787877695,
                      "scale1" : 0.410774410774266
                    },
                    "leftEdgeMods" : [
                      {
                        "group" : "DrawPercentageFade",
                        "duration" : 12,
                        "parameters" : [
                          {
                            "name" : "DrawTime",
                              "func" : "FadeInFunc"
                            }
                        ]
                      }
                    ],
                    "effects" : [
                        {
                          "effectName" : "DropShadow",
                          "category" : "categoryVisualEffects",
                          "parameters" : {
                            "angle" : 5.49778714378214,
                            "blur" : 10.0,
                            "color-alpha" : 1.0,
                            "color-blue" : 0.1216,
                            "color-green" : 0.1216,
                            "color-red" : 0.1216,
                            "enabled" : 1,
                            "offset" : 10.0,
                            "opacity" : 0.4
                          }
                        }
                    ],
                    "start" : 7322,
                    "duration" : 90,
                    "mediaStart" : 18,
                    "mediaDuration" : 90,
                    "scalar" : 1,
                    "metadata" : {
                      "WinSubProjectDisplayName" : "",
                      "clipSpeedAttribute" : false,
                      "default-legacy-drawtime-duration" : 1.0,
                      "default-scale0" : 1.0,
                      "default-scale1" : 1.0,
                      "default-stroke-width" : 5.0,
                      "default-translation0" : 0.0,
                      "default-translation1" : 0.0
                    },
                    "animationTracks" : {

                    }
                  },
                  {
                    "id" : 166,
                    "_type" : "Callout",
                    "def" : {
                      "kind" : "TypeWinSVG",
                      "shape" : "",
                      "style" : "",
                      "DrawTime" : 1.0,
                      "borderColorBlue" : 0.172549019607843,
                      "borderColorGreen" : 0.615686274509804,
                      "borderColorRed" : 0.105882352941176,
                      "borderWidth" : 12.875,
                      "flipOnXAxis" : 0.0,
                      "flipOnYAxis" : 0.0,
                      "height" : 270.0,
                      "width" : 480.0,
                      "filename" : "C:\\Program Files (x86)\\TechSmith\\Camtasia Studio 9\\Media\\Studio\\Callouts\\anim_checkmark.svg",
                      "horizontal-alignment" : "center",
                      "name" : "Sketch Motion Checkmark",
                      "vertical-alignment" : "center",
                      "xmlContent" : "﻿<?xml version=\"1.0\" encoding=\"utf-8\"?>\n<!-- Generator: Adobe Illustrator 13.0.2, SVG Export Plug-In . SVG Version: 6.00 Build 14948)  -->\n<!DOCTYPE svg PUBLIC \"-//W3C//DTD SVG 1.1//EN\" \"http://www.w3.org/Graphics/SVG/1.1/DTD/svg11.dtd\">\n<svg version=\"1.1\" id=\"Layer_1\" xmlns=\"http://www.w3.org/2000/svg\" xmlns:xlink=\"http://www.w3.org/1999/xlink\" x=\"0px\" y=\"0px\"\n\t width=\"128px\" height=\"109px\" viewBox=\"0 0 128 109\" enable-background=\"new 0 0 128 109\" xml:space=\"preserve\">\n<path fill=\"none\" d=\"M22.304,53.27c0,0,18.242,16.407,28.666,45.94c26.712-78.755,54.727-89.42,54.727-89.42\"/>\n</svg>\n",
                      "textAttributes" : {
                        "type" : "textAttributeList",
                        "keyframes" : [
                          {
                            "time" : 0,
                            "value" : null,
                            "duration" : 0
                          }
                        ]
                      }
                    },
                    "attributes" : {
                      "autoRotateText" : true
                    },
                    "parameters" : {
                      "translation0" : -205.27217463401,
                      "translation1" : -92.4399005253591,
                      "scale0" : 0.250886524823784,
                      "scale1" : 0.3853427895978
                    },
                    "leftEdgeMods" : [
                      {
                        "group" : "DrawPercentageFade",
                        "duration" : 18,
                        "parameters" : [
                          {
                            "name" : "DrawTime",
                              "func" : "FadeInFunc"
                            }
                        ]
                      }
                    ],
                    "effects" : [
                        {
                          "effectName" : "DropShadow",
                          "category" : "categoryVisualEffects",
                          "parameters" : {
                            "angle" : 5.49778714378214,
                            "blur" : 10.0,
                            "color-alpha" : 1.0,
                            "color-blue" : 0.1216,
                            "color-green" : 0.1216,
                            "color-red" : 0.1216,
                            "enabled" : 1,
                            "offset" : 10.0,
                            "opacity" : 0.4
                          }
                        }
                    ],
                    "start" : 7658,
                    "duration" : 90,
                    "mediaStart" : 18,
                    "mediaDuration" : 90,
                    "scalar" : 1,
                    "metadata" : {
                      "WinSubProjectDisplayName" : "",
                      "clipSpeedAttribute" : false,
                      "default-legacy-drawtime-duration" : 1.0,
                      "default-rotation2" : 0.0,
                      "default-scale0" : 1.0,
                      "default-scale1" : 1.0,
                      "default-stroke-color-blue" : 0.0,
                      "default-stroke-color-green" : 0.0,
                      "default-stroke-color-red" : 1.0,
                      "default-stroke-width" : 5.0,
                      "default-translation0" : 0.0,
                      "default-translation1" : 0.0
                    },
                    "animationTracks" : {

                    }
                  },
                  {
                    "id" : 167,
                    "_type" : "Callout",
                    "def" : {
                      "kind" : "TypeWinSVG",
                      "shape" : "",
                      "style" : "",
                      "DrawTime" : 1.0,
                      "borderColorBlue" : 0.172549019607843,
                      "borderColorGreen" : 0.615686274509804,
                      "borderColorRed" : 0.105882352941176,
                      "borderWidth" : 12.875,
                      "flipOnXAxis" : 0.0,
                      "flipOnYAxis" : 0.0,
                      "height" : 270.0,
                      "width" : 480.0,
                      "filename" : "C:\\Program Files (x86)\\TechSmith\\Camtasia Studio 9\\Media\\Studio\\Callouts\\anim_checkmark.svg",
                      "horizontal-alignment" : "center",
                      "name" : "Sketch Motion Checkmark",
                      "vertical-alignment" : "center",
                      "xmlContent" : "﻿<?xml version=\"1.0\" encoding=\"utf-8\"?>\n<!-- Generator: Adobe Illustrator 13.0.2, SVG Export Plug-In . SVG Version: 6.00 Build 14948)  -->\n<!DOCTYPE svg PUBLIC \"-//W3C//DTD SVG 1.1//EN\" \"http://www.w3.org/Graphics/SVG/1.1/DTD/svg11.dtd\">\n<svg version=\"1.1\" id=\"Layer_1\" xmlns=\"http://www.w3.org/2000/svg\" xmlns:xlink=\"http://www.w3.org/1999/xlink\" x=\"0px\" y=\"0px\"\n\t width=\"128px\" height=\"109px\" viewBox=\"0 0 128 109\" enable-background=\"new 0 0 128 109\" xml:space=\"preserve\">\n<path fill=\"none\" d=\"M22.304,53.27c0,0,18.242,16.407,28.666,45.94c26.712-78.755,54.727-89.42,54.727-89.42\"/>\n</svg>\n",
                      "textAttributes" : {
                        "type" : "textAttributeList",
                        "keyframes" : [
                          {
                            "time" : 0,
                            "value" : null,
                            "duration" : 0
                          }
                        ]
                      }
                    },
                    "attributes" : {
                      "autoRotateText" : true
                    },
                    "parameters" : {
                      "translation0" : -205.27217463401,
                      "translation1" : -92.4399005253591,
                      "scale0" : 0.250886524823784,
                      "scale1" : 0.3853427895978
                    },
                    "leftEdgeMods" : [
                      {
                        "group" : "DrawPercentageFade",
                        "duration" : 18,
                        "parameters" : [
                          {
                            "name" : "DrawTime",
                              "func" : "FadeInFunc"
                            }
                        ]
                      }
                    ],
                    "effects" : [
                        {
                          "effectName" : "DropShadow",
                          "category" : "categoryVisualEffects",
                          "parameters" : {
                            "angle" : 5.49778714378214,
                            "blur" : 10.0,
                            "color-alpha" : 1.0,
                            "color-blue" : 0.1216,
                            "color-green" : 0.1216,
                            "color-red" : 0.1216,
                            "enabled" : 1,
                            "offset" : 10.0,
                            "opacity" : 0.4
                          }
                        }
                    ],
                    "start" : 7966,
                    "duration" : 90,
                    "mediaStart" : 9,
                    "mediaDuration" : 90,
                    "scalar" : 1,
                    "metadata" : {
                      "WinSubProjectDisplayName" : "",
                      "clipSpeedAttribute" : false,
                      "default-legacy-drawtime-duration" : 1.0,
                      "default-rotation2" : 0.0,
                      "default-scale0" : 1.0,
                      "default-scale1" : 1.0,
                      "default-stroke-color-blue" : 0.0,
                      "default-stroke-color-green" : 0.0,
                      "default-stroke-color-red" : 1.0,
                      "default-stroke-width" : 5.0,
                      "default-translation0" : 0.0,
                      "default-translation1" : 0.0
                    },
                    "animationTracks" : {

                    }
                  },
                  {
                    "id" : 168,
                    "_type" : "Callout",
                    "def" : {
                      "kind" : "TypeWinSVG",
                      "shape" : "",
                      "style" : "",
                      "DrawTime" : 1.0,
                      "borderColorBlue" : 0.0,
                      "borderColorGreen" : 0.0,
                      "borderColorRed" : 1.0,
                      "borderWidth" : 12.0,
                      "flipOnXAxis" : 0.0,
                      "flipOnYAxis" : 0.0,
                      "height" : 270.0,
                      "width" : 480.0,
                      "filename" : "C:\\Program Files (x86)\\TechSmith\\Camtasia Studio 9\\Media\\Studio\\Callouts\\anim_x.svg",
                      "horizontal-alignment" : "center",
                      "name" : "Sketch Motion X",
                      "vertical-alignment" : "center",
                      "xmlContent" : "﻿<?xml version=\"1.0\" encoding=\"utf-8\"?>\n<!DOCTYPE svg PUBLIC \"-//W3C//DTD SVG 1.1//EN\" \"http://www.w3.org/Graphics/SVG/1.1/DTD/svg11.dtd\">\n<svg version=\"1.1\" id=\"Layer_1\" xmlns=\"http://www.w3.org/2000/svg\" xmlns:xlink=\"http://www.w3.org/1999/xlink\" x=\"0px\" y=\"0px\"\n\t width=\"128px\" height=\"109px\" viewBox=\"0 0 128 109\" enable-background=\"new 0 0 128 109\" xml:space=\"preserve\">\n<path fill=\"none\" d=\"M0,0 L100,100 M100,0 L0,100\"/>\n</svg>\n",
                      "textAttributes" : {
                        "type" : "textAttributeList",
                        "keyframes" : [
                          {
                            "time" : 0,
                            "value" : null,
                            "duration" : 0
                          }
                        ]
                      }
                    },
                    "attributes" : {
                      "autoRotateText" : true
                    },
                    "parameters" : {
                      "translation0" : -278.409090909609,
                      "translation1" : -119.318181818174,
                      "scale0" : 0.256628787877695,
                      "scale1" : 0.410774410774266
                    },
                    "leftEdgeMods" : [
                      {
                        "group" : "DrawPercentageFade",
                        "duration" : 12,
                        "parameters" : [
                          {
                            "name" : "DrawTime",
                              "func" : "FadeInFunc"
                            }
                        ]
                      }
                    ],
                    "effects" : [
                        {
                          "effectName" : "DropShadow",
                          "category" : "categoryVisualEffects",
                          "parameters" : {
                            "angle" : 5.49778714378214,
                            "blur" : 10.0,
                            "color-alpha" : 1.0,
                            "color-blue" : 0.1216,
                            "color-green" : 0.1216,
                            "color-red" : 0.1216,
                            "enabled" : 1,
                            "offset" : 10.0,
                            "opacity" : 0.4
                          }
                        }
                    ],
                    "start" : 8302,
                    "duration" : 91,
                    "mediaStart" : 59,
                    "mediaDuration" : 91,
                    "scalar" : 1,
                    "metadata" : {
                      "WinSubProjectDisplayName" : "",
                      "clipSpeedAttribute" : false,
                      "default-legacy-drawtime-duration" : 1.0,
                      "default-scale0" : 1.0,
                      "default-scale1" : 1.0,
                      "default-stroke-width" : 5.0,
                      "default-translation0" : 0.0,
                      "default-translation1" : 0.0
                    },
                    "animationTracks" : {

                    }
                  },
                  {
                    "id" : 169,
                    "_type" : "Callout",
                    "def" : {
                      "kind" : "TypeWinSVG",
                      "shape" : "",
                      "style" : "",
                      "DrawTime" : {
                        "type" : "double",
                        "defaultValue" : 1.0,
                        "interp" : "linr"
                      },
                      "borderColorBlue" : {
                        "type" : "double",
                        "defaultValue" : 0.0,
                        "interp" : "linr"
                      },
                      "borderColorGreen" : {
                        "type" : "double",
                        "defaultValue" : 0.0,
                        "interp" : "linr"
                      },
                      "borderColorRed" : {
                        "type" : "double",
                        "defaultValue" : 1.0,
                        "interp" : "linr"
                      },
                      "borderWidth" : {
                        "type" : "double",
                        "defaultValue" : 12.0,
                        "interp" : "linr"
                      },
                      "flipOnXAxis" : {
                        "type" : "double",
                        "defaultValue" : 0.0,
                        "interp" : "linr"
                      },
                      "flipOnYAxis" : {
                        "type" : "double",
                        "defaultValue" : 0.0,
                        "interp" : "linr"
                      },
                      "height" : {
                        "type" : "double",
                        "defaultValue" : 270.0,
                        "interp" : "linr"
                      },
                      "width" : {
                        "type" : "double",
                        "defaultValue" : 480.0,
                        "interp" : "linr"
                      },
                      "filename" : "C:\\Program Files (x86)\\TechSmith\\Camtasia Studio 9\\Media\\Studio\\Callouts\\anim_x.svg",
                      "horizontal-alignment" : "center",
                      "name" : "Sketch Motion X",
                      "vertical-alignment" : "center",
                      "xmlContent" : "﻿<?xml version=\"1.0\" encoding=\"utf-8\"?>\n<!DOCTYPE svg PUBLIC \"-//W3C//DTD SVG 1.1//EN\" \"http://www.w3.org/Graphics/SVG/1.1/DTD/svg11.dtd\">\n<svg version=\"1.1\" id=\"Layer_1\" xmlns=\"http://www.w3.org/2000/svg\" xmlns:xlink=\"http://www.w3.org/1999/xlink\" x=\"0px\" y=\"0px\"\n\t width=\"128px\" height=\"109px\" viewBox=\"0 0 128 109\" enable-background=\"new 0 0 128 109\" xml:space=\"preserve\">\n<path fill=\"none\" d=\"M0,0 L100,100 M100,0 L0,100\"/>\n</svg>\n",
                      "textAttributes" : {
                        "type" : "textAttributeList",
                        "keyframes" : [
                          {
                            "time" : 0,
                            "value" : null,
                            "duration" : 0
                          }
                        ]
                      }
                    },
                    "attributes" : {
                      "autoRotateText" : true
                    },
                    "parameters" : {
                      "translation0" : {
                        "type" : "double",
                        "defaultValue" : -278.409090909609,
                        "interp" : "eioe"
                      },
                      "translation1" : {
                        "type" : "double",
                        "defaultValue" : -119.318181818174,
                        "interp" : "eioe"
                      },
                      "scale0" : {
                        "type" : "double",
                        "defaultValue" : 0.256628787877695,
                        "interp" : "eioe"
                      },
                      "scale1" : {
                        "type" : "double",
                        "defaultValue" : 0.410774410774266,
                        "interp" : "eioe"
                      }
                    },
                    "leftEdgeMods" : [
                      {
                        "group" : "DrawPercentageFade",
                        "duration" : 12,
                        "parameters" : [
                          {
                            "name" : "DrawTime",
                              "func" : "FadeInFunc"
                            }
                        ]
                      }
                    ],
                    "effects" : [
                        {
                          "effectName" : "DropShadow",
                          "category" : "categoryVisualEffects",
                          "parameters" : {
                            "angle" : {
                              "type" : "double",
                              "defaultValue" : 5.49778714378214,
                              "interp" : "linr",
                              "uiHints" : {
                                "userInterfaceType" : 0,
                                "unitType" : 0
                              }
                            },
                            "blur" : {
                              "type" : "double",
                              "defaultValue" : 10.0,
                              "interp" : "linr",
                              "uiHints" : {
                                "userInterfaceType" : 0,
                                "unitType" : 0
                              }
                            },
                            "color-alpha" : {
                              "type" : "double",
                              "defaultValue" : 1.0,
                              "interp" : "linr",
                              "uiHints" : {
                                "userInterfaceType" : 0,
                                "unitType" : 0
                              }
                            },
                            "color-blue" : {
                              "type" : "double",
                              "defaultValue" : 0.1216,
                              "interp" : "linr",
                              "uiHints" : {
                                "userInterfaceType" : 0,
                                "unitType" : 0
                              }
                            },
                            "color-green" : {
                              "type" : "double",
                              "defaultValue" : 0.1216,
                              "interp" : "linr",
                              "uiHints" : {
                                "userInterfaceType" : 0,
                                "unitType" : 0
                              }
                            },
                            "color-red" : {
                              "type" : "double",
                              "defaultValue" : 0.1216,
                              "interp" : "linr",
                              "uiHints" : {
                                "userInterfaceType" : 0,
                                "unitType" : 0
                              }
                            },
                            "enabled" : 1,
                            "offset" : {
                              "type" : "double",
                              "defaultValue" : 10.0,
                              "interp" : "linr",
                              "uiHints" : {
                                "userInterfaceType" : 0,
                                "unitType" : 0
                              }
                            },
                            "opacity" : {
                              "type" : "double",
                              "defaultValue" : 0.4,
                              "interp" : "linr",
                              "uiHints" : {
                                "userInterfaceType" : 0,
                                "unitType" : 0
                              }
                            }
                          }
                        }
                    ],
                    "start" : 8660,
                    "duration" : 90,
                    "mediaStart" : 18,
                    "mediaDuration" : 90,
                    "scalar" : 1,
                    "metadata" : {
                      "WinSubProjectDisplayName" : "",
                      "clipSpeedAttribute" : false,
                      "default-legacy-drawtime-duration" : 1.0,
                      "default-scale0" : 1.0,
                      "default-scale1" : 1.0,
                      "default-stroke-width" : 5.0,
                      "default-translation0" : 0.0,
                      "default-translation1" : 0.0
                    },
                    "animationTracks" : {

                    }
                  },
                  {
                    "id" : 170,
                    "_type" : "Callout",
                    "def" : {
                      "kind" : "TypeWinSVG",
                      "shape" : "",
                      "style" : "",
                      "DrawTime" : 1.0,
                      "borderColorBlue" : 0.172549019607843,
                      "borderColorGreen" : 0.615686274509804,
                      "borderColorRed" : 0.105882352941176,
                      "borderWidth" : 12.875,
                      "flipOnXAxis" : 0.0,
                      "flipOnYAxis" : 0.0,
                      "height" : 270.0,
                      "width" : 480.0,
                      "filename" : "C:\\Program Files (x86)\\TechSmith\\Camtasia Studio 9\\Media\\Studio\\Callouts\\anim_checkmark.svg",
                      "horizontal-alignment" : "center",
                      "name" : "Sketch Motion Checkmark",
                      "vertical-alignment" : "center",
                      "xmlContent" : "﻿<?xml version=\"1.0\" encoding=\"utf-8\"?>\n<!-- Generator: Adobe Illustrator 13.0.2, SVG Export Plug-In . SVG Version: 6.00 Build 14948)  -->\n<!DOCTYPE svg PUBLIC \"-//W3C//DTD SVG 1.1//EN\" \"http://www.w3.org/Graphics/SVG/1.1/DTD/svg11.dtd\">\n<svg version=\"1.1\" id=\"Layer_1\" xmlns=\"http://www.w3.org/2000/svg\" xmlns:xlink=\"http://www.w3.org/1999/xlink\" x=\"0px\" y=\"0px\"\n\t width=\"128px\" height=\"109px\" viewBox=\"0 0 128 109\" enable-background=\"new 0 0 128 109\" xml:space=\"preserve\">\n<path fill=\"none\" d=\"M22.304,53.27c0,0,18.242,16.407,28.666,45.94c26.712-78.755,54.727-89.42,54.727-89.42\"/>\n</svg>\n",
                      "textAttributes" : {
                        "type" : "textAttributeList",
                        "keyframes" : [
                          {
                            "time" : 0,
                            "value" : null,
                            "duration" : 0
                          }
                        ]
                      }
                    },
                    "attributes" : {
                      "autoRotateText" : true
                    },
                    "parameters" : {
                      "translation0" : -239.557888919714,
                      "translation1" : -95.2970433825134,
                      "scale0" : 0.250886524823784,
                      "scale1" : 0.3853427895978
                    },
                    "leftEdgeMods" : [
                      {
                        "group" : "DrawPercentageFade",
                        "duration" : 18,
                        "parameters" : [
                          {
                            "name" : "DrawTime",
                              "func" : "FadeInFunc"
                            }
                        ]
                      }
                    ],
                    "effects" : [
                        {
                          "effectName" : "DropShadow",
                          "category" : "categoryVisualEffects",
                          "parameters" : {
                            "angle" : 5.49778714378214,
                            "blur" : 10.0,
                            "color-alpha" : 1.0,
                            "color-blue" : 0.1216,
                            "color-green" : 0.1216,
                            "color-red" : 0.1216,
                            "enabled" : 1,
                            "offset" : 10.0,
                            "opacity" : 0.4
                          }
                        }
                    ],
                    "start" : 8966,
                    "duration" : 93,
                    "mediaStart" : 15,
                    "mediaDuration" : 93,
                    "scalar" : 1,
                    "metadata" : {
                      "WinSubProjectDisplayName" : "",
                      "clipSpeedAttribute" : false,
                      "default-legacy-drawtime-duration" : 1.0,
                      "default-rotation2" : 0.0,
                      "default-scale0" : 1.0,
                      "default-scale1" : 1.0,
                      "default-stroke-color-blue" : 0.0,
                      "default-stroke-color-green" : 0.0,
                      "default-stroke-color-red" : 1.0,
                      "default-stroke-width" : 5.0,
                      "default-translation0" : 0.0,
                      "default-translation1" : 0.0
                    },
                    "animationTracks" : {

                    }
                  },
                  {
                    "id" : 171,
                    "_type" : "Callout",
                    "def" : {
                      "kind" : "TypeWinSVG",
                      "shape" : "",
                      "style" : "",
                      "DrawTime" : {
                        "type" : "double",
                        "defaultValue" : 1.0,
                        "interp" : "linr"
                      },
                      "borderColorBlue" : {
                        "type" : "double",
                        "defaultValue" : 0.0,
                        "interp" : "linr"
                      },
                      "borderColorGreen" : {
                        "type" : "double",
                        "defaultValue" : 0.0,
                        "interp" : "linr"
                      },
                      "borderColorRed" : {
                        "type" : "double",
                        "defaultValue" : 1.0,
                        "interp" : "linr"
                      },
                      "borderWidth" : {
                        "type" : "double",
                        "defaultValue" : 12.0,
                        "interp" : "linr"
                      },
                      "flipOnXAxis" : {
                        "type" : "double",
                        "defaultValue" : 0.0,
                        "interp" : "linr"
                      },
                      "flipOnYAxis" : {
                        "type" : "double",
                        "defaultValue" : 0.0,
                        "interp" : "linr"
                      },
                      "height" : {
                        "type" : "double",
                        "defaultValue" : 270.0,
                        "interp" : "linr"
                      },
                      "width" : {
                        "type" : "double",
                        "defaultValue" : 480.0,
                        "interp" : "linr"
                      },
                      "filename" : "C:\\Program Files (x86)\\TechSmith\\Camtasia Studio 9\\Media\\Studio\\Callouts\\anim_x.svg",
                      "horizontal-alignment" : "center",
                      "name" : "Sketch Motion X",
                      "vertical-alignment" : "center",
                      "xmlContent" : "﻿<?xml version=\"1.0\" encoding=\"utf-8\"?>\n<!DOCTYPE svg PUBLIC \"-//W3C//DTD SVG 1.1//EN\" \"http://www.w3.org/Graphics/SVG/1.1/DTD/svg11.dtd\">\n<svg version=\"1.1\" id=\"Layer_1\" xmlns=\"http://www.w3.org/2000/svg\" xmlns:xlink=\"http://www.w3.org/1999/xlink\" x=\"0px\" y=\"0px\"\n\t width=\"128px\" height=\"109px\" viewBox=\"0 0 128 109\" enable-background=\"new 0 0 128 109\" xml:space=\"preserve\">\n<path fill=\"none\" d=\"M0,0 L100,100 M100,0 L0,100\"/>\n</svg>\n",
                      "textAttributes" : {
                        "type" : "textAttributeList",
                        "keyframes" : [
                          {
                            "time" : 0,
                            "value" : null,
                            "duration" : 0
                          }
                        ]
                      }
                    },
                    "attributes" : {
                      "autoRotateText" : true
                    },
                    "parameters" : {
                      "translation0" : {
                        "type" : "double",
                        "defaultValue" : -278.409090909609,
                        "interp" : "eioe"
                      },
                      "translation1" : {
                        "type" : "double",
                        "defaultValue" : -119.318181818174,
                        "interp" : "eioe"
                      },
                      "scale0" : {
                        "type" : "double",
                        "defaultValue" : 0.256628787877695,
                        "interp" : "eioe"
                      },
                      "scale1" : {
                        "type" : "double",
                        "defaultValue" : 0.410774410774266,
                        "interp" : "eioe"
                      }
                    },
                    "leftEdgeMods" : [
                      {
                        "group" : "DrawPercentageFade",
                        "duration" : 12,
                        "parameters" : [
                          {
                            "name" : "DrawTime",
                              "func" : "FadeInFunc"
                            }
                        ]
                      }
                    ],
                    "effects" : [
                        {
                          "effectName" : "DropShadow",
                          "category" : "categoryVisualEffects",
                          "parameters" : {
                            "angle" : {
                              "type" : "double",
                              "defaultValue" : 5.49778714378214,
                              "interp" : "linr",
                              "uiHints" : {
                                "userInterfaceType" : 0,
                                "unitType" : 0
                              }
                            },
                            "blur" : {
                              "type" : "double",
                              "defaultValue" : 10.0,
                              "interp" : "linr",
                              "uiHints" : {
                                "userInterfaceType" : 0,
                                "unitType" : 0
                              }
                            },
                            "color-alpha" : {
                              "type" : "double",
                              "defaultValue" : 1.0,
                              "interp" : "linr",
                              "uiHints" : {
                                "userInterfaceType" : 0,
                                "unitType" : 0
                              }
                            },
                            "color-blue" : {
                              "type" : "double",
                              "defaultValue" : 0.1216,
                              "interp" : "linr",
                              "uiHints" : {
                                "userInterfaceType" : 0,
                                "unitType" : 0
                              }
                            },
                            "color-green" : {
                              "type" : "double",
                              "defaultValue" : 0.1216,
                              "interp" : "linr",
                              "uiHints" : {
                                "userInterfaceType" : 0,
                                "unitType" : 0
                              }
                            },
                            "color-red" : {
                              "type" : "double",
                              "defaultValue" : 0.1216,
                              "interp" : "linr",
                              "uiHints" : {
                                "userInterfaceType" : 0,
                                "unitType" : 0
                              }
                            },
                            "enabled" : 1,
                            "offset" : {
                              "type" : "double",
                              "defaultValue" : 10.0,
                              "interp" : "linr",
                              "uiHints" : {
                                "userInterfaceType" : 0,
                                "unitType" : 0
                              }
                            },
                            "opacity" : {
                              "type" : "double",
                              "defaultValue" : 0.4,
                              "interp" : "linr",
                              "uiHints" : {
                                "userInterfaceType" : 0,
                                "unitType" : 0
                              }
                            }
                          }
                        }
                    ],
                    "start" : 9286,
                    "duration" : 90,
                    "mediaStart" : 18,
                    "mediaDuration" : 90,
                    "scalar" : 1,
                    "metadata" : {
                      "WinSubProjectDisplayName" : "",
                      "clipSpeedAttribute" : false,
                      "default-legacy-drawtime-duration" : 1.0,
                      "default-scale0" : 1.0,
                      "default-scale1" : 1.0,
                      "default-stroke-width" : 5.0,
                      "default-translation0" : 0.0,
                      "default-translation1" : 0.0
                    },
                    "animationTracks" : {

                    }
                  },
                  {
                    "id" : 172,
                    "_type" : "Callout",
                    "def" : {
                      "kind" : "TypeWinSVG",
                      "shape" : "",
                      "style" : "",
                      "DrawTime" : 1.0,
                      "borderColorBlue" : 0.172549019607843,
                      "borderColorGreen" : 0.615686274509804,
                      "borderColorRed" : 0.105882352941176,
                      "borderWidth" : 12.875,
                      "flipOnXAxis" : 0.0,
                      "flipOnYAxis" : 0.0,
                      "height" : 270.0,
                      "width" : 480.0,
                      "filename" : "C:\\Program Files (x86)\\TechSmith\\Camtasia Studio 9\\Media\\Studio\\Callouts\\anim_checkmark.svg",
                      "horizontal-alignment" : "center",
                      "name" : "Sketch Motion Checkmark",
                      "vertical-alignment" : "center",
                      "xmlContent" : "﻿<?xml version=\"1.0\" encoding=\"utf-8\"?>\n<!-- Generator: Adobe Illustrator 13.0.2, SVG Export Plug-In . SVG Version: 6.00 Build 14948)  -->\n<!DOCTYPE svg PUBLIC \"-//W3C//DTD SVG 1.1//EN\" \"http://www.w3.org/Graphics/SVG/1.1/DTD/svg11.dtd\">\n<svg version=\"1.1\" id=\"Layer_1\" xmlns=\"http://www.w3.org/2000/svg\" xmlns:xlink=\"http://www.w3.org/1999/xlink\" x=\"0px\" y=\"0px\"\n\t width=\"128px\" height=\"109px\" viewBox=\"0 0 128 109\" enable-background=\"new 0 0 128 109\" xml:space=\"preserve\">\n<path fill=\"none\" d=\"M22.304,53.27c0,0,18.242,16.407,28.666,45.94c26.712-78.755,54.727-89.42,54.727-89.42\"/>\n</svg>\n",
                      "textAttributes" : {
                        "type" : "textAttributeList",
                        "keyframes" : [
                          {
                            "time" : 0,
                            "value" : null,
                            "duration" : 0
                          }
                        ]
                      }
                    },
                    "attributes" : {
                      "autoRotateText" : true
                    },
                    "parameters" : {
                      "translation0" : -263.056092841612,
                      "translation1" : -258.867665152108,
                      "scale0" : 0.250886524823784,
                      "scale1" : 0.3853427895978
                    },
                    "leftEdgeMods" : [
                      {
                        "group" : "DrawPercentageFade",
                        "duration" : 18,
                        "parameters" : [
                          {
                            "name" : "DrawTime",
                              "func" : "FadeInFunc"
                            }
                        ]
                      }
                    ],
                    "effects" : [
                        {
                          "effectName" : "DropShadow",
                          "category" : "categoryVisualEffects",
                          "parameters" : {
                            "angle" : 5.49778714378214,
                            "blur" : 10.0,
                            "color-alpha" : 1.0,
                            "color-blue" : 0.1216,
                            "color-green" : 0.1216,
                            "color-red" : 0.1216,
                            "enabled" : 1,
                            "offset" : 10.0,
                            "opacity" : 0.4
                          }
                        }
                    ],
                    "start" : 9593,
                    "duration" : 97,
                    "mediaStart" : 11,
                    "mediaDuration" : 97,
                    "scalar" : 1,
                    "metadata" : {
                      "WinSubProjectDisplayName" : "",
                      "clipSpeedAttribute" : false,
                      "default-legacy-drawtime-duration" : 1.0,
                      "default-rotation2" : 0.0,
                      "default-scale0" : 1.0,
                      "default-scale1" : 1.0,
                      "default-stroke-color-blue" : 0.0,
                      "default-stroke-color-green" : 0.0,
                      "default-stroke-color-red" : 1.0,
                      "default-stroke-width" : 5.0,
                      "default-translation0" : 0.0,
                      "default-translation1" : 0.0
                    },
                    "animationTracks" : {

                    }
                  },
                  {
                    "id" : 173,
                    "_type" : "Callout",
                    "def" : {
                      "kind" : "TypeWinSVG",
                      "shape" : "",
                      "style" : "",
                      "DrawTime" : 1.0,
                      "borderColorBlue" : 0.0,
                      "borderColorGreen" : 0.0,
                      "borderColorRed" : 1.0,
                      "borderWidth" : 12.0,
                      "flipOnXAxis" : 0.0,
                      "flipOnYAxis" : 0.0,
                      "height" : 270.0,
                      "width" : 480.0,
                      "filename" : "C:\\Program Files (x86)\\TechSmith\\Camtasia Studio 9\\Media\\Studio\\Callouts\\anim_x.svg",
                      "horizontal-alignment" : "center",
                      "name" : "Sketch Motion X",
                      "vertical-alignment" : "center",
                      "xmlContent" : "﻿<?xml version=\"1.0\" encoding=\"utf-8\"?>\n<!DOCTYPE svg PUBLIC \"-//W3C//DTD SVG 1.1//EN\" \"http://www.w3.org/Graphics/SVG/1.1/DTD/svg11.dtd\">\n<svg version=\"1.1\" id=\"Layer_1\" xmlns=\"http://www.w3.org/2000/svg\" xmlns:xlink=\"http://www.w3.org/1999/xlink\" x=\"0px\" y=\"0px\"\n\t width=\"128px\" height=\"109px\" viewBox=\"0 0 128 109\" enable-background=\"new 0 0 128 109\" xml:space=\"preserve\">\n<path fill=\"none\" d=\"M0,0 L100,100 M100,0 L0,100\"/>\n</svg>\n",
                      "textAttributes" : {
                        "type" : "textAttributeList",
                        "keyframes" : [
                          {
                            "time" : 0,
                            "value" : null,
                            "duration" : 0
                          }
                        ]
                      }
                    },
                    "attributes" : {
                      "autoRotateText" : true
                    },
                    "parameters" : {
                      "translation0" : -279.158054710967,
                      "translation1" : -189.325824305144,
                      "scale0" : 0.256628787877695,
                      "scale1" : 0.410774410774266
                    },
                    "leftEdgeMods" : [
                      {
                        "group" : "DrawPercentageFade",
                        "duration" : 12,
                        "parameters" : [
                          {
                            "name" : "DrawTime",
                              "func" : "FadeInFunc"
                            }
                        ]
                      }
                    ],
                    "effects" : [
                        {
                          "effectName" : "DropShadow",
                          "category" : "categoryVisualEffects",
                          "parameters" : {
                            "angle" : 5.49778714378214,
                            "blur" : 10.0,
                            "color-alpha" : 1.0,
                            "color-blue" : 0.1216,
                            "color-green" : 0.1216,
                            "color-red" : 0.1216,
                            "enabled" : 1,
                            "offset" : 10.0,
                            "opacity" : 0.4
                          }
                        }
                    ],
                    "start" : 9987,
                    "duration" : 92,
                    "mediaStart" : 58,
                    "mediaDuration" : 92,
                    "scalar" : 1,
                    "metadata" : {
                      "WinSubProjectDisplayName" : "",
                      "clipSpeedAttribute" : false,
                      "default-legacy-drawtime-duration" : 1.0,
                      "default-scale0" : 1.0,
                      "default-scale1" : 1.0,
                      "default-stroke-width" : 5.0,
                      "default-translation0" : 0.0,
                      "default-translation1" : 0.0
                    },
                    "animationTracks" : {

                    }
                  },
                  {
                    "id" : 174,
                    "_type" : "Callout",
                    "def" : {
                      "kind" : "TypeWinSVG",
                      "shape" : "",
                      "style" : "",
                      "DrawTime" : {
                        "type" : "double",
                        "defaultValue" : 1.0,
                        "interp" : "linr"
                      },
                      "borderColorBlue" : {
                        "type" : "double",
                        "defaultValue" : 0.0,
                        "interp" : "linr"
                      },
                      "borderColorGreen" : {
                        "type" : "double",
                        "defaultValue" : 0.0,
                        "interp" : "linr"
                      },
                      "borderColorRed" : {
                        "type" : "double",
                        "defaultValue" : 1.0,
                        "interp" : "linr"
                      },
                      "borderWidth" : {
                        "type" : "double",
                        "defaultValue" : 12.0,
                        "interp" : "linr"
                      },
                      "flipOnXAxis" : {
                        "type" : "double",
                        "defaultValue" : 0.0,
                        "interp" : "linr"
                      },
                      "flipOnYAxis" : {
                        "type" : "double",
                        "defaultValue" : 0.0,
                        "interp" : "linr"
                      },
                      "height" : {
                        "type" : "double",
                        "defaultValue" : 270.0,
                        "interp" : "linr"
                      },
                      "width" : {
                        "type" : "double",
                        "defaultValue" : 480.0,
                        "interp" : "linr"
                      },
                      "filename" : "C:\\Program Files (x86)\\TechSmith\\Camtasia Studio 9\\Media\\Studio\\Callouts\\anim_x.svg",
                      "horizontal-alignment" : "center",
                      "name" : "Sketch Motion X",
                      "vertical-alignment" : "center",
                      "xmlContent" : "﻿<?xml version=\"1.0\" encoding=\"utf-8\"?>\n<!DOCTYPE svg PUBLIC \"-//W3C//DTD SVG 1.1//EN\" \"http://www.w3.org/Graphics/SVG/1.1/DTD/svg11.dtd\">\n<svg version=\"1.1\" id=\"Layer_1\" xmlns=\"http://www.w3.org/2000/svg\" xmlns:xlink=\"http://www.w3.org/1999/xlink\" x=\"0px\" y=\"0px\"\n\t width=\"128px\" height=\"109px\" viewBox=\"0 0 128 109\" enable-background=\"new 0 0 128 109\" xml:space=\"preserve\">\n<path fill=\"none\" d=\"M0,0 L100,100 M100,0 L0,100\"/>\n</svg>\n",
                      "textAttributes" : {
                        "type" : "textAttributeList",
                        "keyframes" : [
                          {
                            "time" : 0,
                            "value" : null,
                            "duration" : 0
                          }
                        ]
                      }
                    },
                    "attributes" : {
                      "autoRotateText" : true
                    },
                    "parameters" : {
                      "translation0" : {
                        "type" : "double",
                        "defaultValue" : -265.731624758143,
                        "interp" : "eioe"
                      },
                      "translation1" : {
                        "type" : "double",
                        "defaultValue" : -243.419244473052,
                        "interp" : "eioe"
                      },
                      "scale0" : {
                        "type" : "double",
                        "defaultValue" : 0.312572246014461,
                        "interp" : "eioe"
                      },
                      "scale1" : {
                        "type" : "double",
                        "defaultValue" : 0.395425199130052,
                        "interp" : "eioe"
                      }
                    },
                    "leftEdgeMods" : [
                      {
                        "group" : "DrawPercentageFade",
                        "duration" : 12,
                        "parameters" : [
                          {
                            "name" : "DrawTime",
                              "func" : "FadeInFunc"
                            }
                        ]
                      }
                    ],
                    "effects" : [
                        {
                          "effectName" : "DropShadow",
                          "category" : "categoryVisualEffects",
                          "parameters" : {
                            "angle" : {
                              "type" : "double",
                              "defaultValue" : 5.49778714378214,
                              "interp" : "linr",
                              "uiHints" : {
                                "userInterfaceType" : 0,
                                "unitType" : 0
                              }
                            },
                            "blur" : {
                              "type" : "double",
                              "defaultValue" : 10.0,
                              "interp" : "linr",
                              "uiHints" : {
                                "userInterfaceType" : 0,
                                "unitType" : 0
                              }
                            },
                            "color-alpha" : {
                              "type" : "double",
                              "defaultValue" : 1.0,
                              "interp" : "linr",
                              "uiHints" : {
                                "userInterfaceType" : 0,
                                "unitType" : 0
                              }
                            },
                            "color-blue" : {
                              "type" : "double",
                              "defaultValue" : 0.1216,
                              "interp" : "linr",
                              "uiHints" : {
                                "userInterfaceType" : 0,
                                "unitType" : 0
                              }
                            },
                            "color-green" : {
                              "type" : "double",
                              "defaultValue" : 0.1216,
                              "interp" : "linr",
                              "uiHints" : {
                                "userInterfaceType" : 0,
                                "unitType" : 0
                              }
                            },
                            "color-red" : {
                              "type" : "double",
                              "defaultValue" : 0.1216,
                              "interp" : "linr",
                              "uiHints" : {
                                "userInterfaceType" : 0,
                                "unitType" : 0
                              }
                            },
                            "enabled" : 1,
                            "offset" : {
                              "type" : "double",
                              "defaultValue" : 10.0,
                              "interp" : "linr",
                              "uiHints" : {
                                "userInterfaceType" : 0,
                                "unitType" : 0
                              }
                            },
                            "opacity" : {
                              "type" : "double",
                              "defaultValue" : 0.4,
                              "interp" : "linr",
                              "uiHints" : {
                                "userInterfaceType" : 0,
                                "unitType" : 0
                              }
                            }
                          }
                        }
                    ],
                    "start" : 10323,
                    "duration" : 92,
                    "mediaStart" : 58,
                    "mediaDuration" : 92,
                    "scalar" : 1,
                    "metadata" : {
                      "WinSubProjectDisplayName" : "",
                      "clipSpeedAttribute" : false,
                      "default-legacy-drawtime-duration" : 1.0,
                      "default-scale0" : 1.0,
                      "default-scale1" : 1.0,
                      "default-stroke-width" : 5.0,
                      "default-translation0" : 0.0,
                      "default-translation1" : 0.0
                    },
                    "animationTracks" : {

                    }
                  },
                  {
                    "id" : 175,
                    "_type" : "Callout",
                    "def" : {
                      "kind" : "TypeWinSVG",
                      "shape" : "",
                      "style" : "",
                      "DrawTime" : 1.0,
                      "borderColorBlue" : 0.172549019607843,
                      "borderColorGreen" : 0.615686274509804,
                      "borderColorRed" : 0.105882352941176,
                      "borderWidth" : 12.875,
                      "flipOnXAxis" : 0.0,
                      "flipOnYAxis" : 0.0,
                      "height" : 270.0,
                      "width" : 480.0,
                      "filename" : "C:\\Program Files (x86)\\TechSmith\\Camtasia Studio 9\\Media\\Studio\\Callouts\\anim_checkmark.svg",
                      "horizontal-alignment" : "center",
                      "name" : "Sketch Motion Checkmark",
                      "vertical-alignment" : "center",
                      "xmlContent" : "﻿<?xml version=\"1.0\" encoding=\"utf-8\"?>\n<!-- Generator: Adobe Illustrator 13.0.2, SVG Export Plug-In . SVG Version: 6.00 Build 14948)  -->\n<!DOCTYPE svg PUBLIC \"-//W3C//DTD SVG 1.1//EN\" \"http://www.w3.org/Graphics/SVG/1.1/DTD/svg11.dtd\">\n<svg version=\"1.1\" id=\"Layer_1\" xmlns=\"http://www.w3.org/2000/svg\" xmlns:xlink=\"http://www.w3.org/1999/xlink\" x=\"0px\" y=\"0px\"\n\t width=\"128px\" height=\"109px\" viewBox=\"0 0 128 109\" enable-background=\"new 0 0 128 109\" xml:space=\"preserve\">\n<path fill=\"none\" d=\"M22.304,53.27c0,0,18.242,16.407,28.666,45.94c26.712-78.755,54.727-89.42,54.727-89.42\"/>\n</svg>\n",
                      "textAttributes" : {
                        "type" : "textAttributeList",
                        "keyframes" : [
                          {
                            "time" : 0,
                            "value" : null,
                            "duration" : 0
                          }
                        ]
                      }
                    },
                    "attributes" : {
                      "autoRotateText" : true
                    },
                    "parameters" : {
                      "translation0" : -246.399557887361,
                      "translation1" : -149.842497927921,
                      "scale0" : 0.250886524823784,
                      "scale1" : 0.3853427895978
                    },
                    "leftEdgeMods" : [
                      {
                        "group" : "DrawPercentageFade",
                        "duration" : 18,
                        "parameters" : [
                          {
                            "name" : "DrawTime",
                              "func" : "FadeInFunc"
                            }
                        ]
                      }
                    ],
                    "effects" : [
                        {
                          "effectName" : "DropShadow",
                          "category" : "categoryVisualEffects",
                          "parameters" : {
                            "angle" : 5.49778714378214,
                            "blur" : 10.0,
                            "color-alpha" : 1.0,
                            "color-blue" : 0.1216,
                            "color-green" : 0.1216,
                            "color-red" : 0.1216,
                            "enabled" : 1,
                            "offset" : 10.0,
                            "opacity" : 0.4
                          }
                        }
                    ],
                    "start" : 10673,
                    "duration" : 92,
                    "mediaStart" : 16,
                    "mediaDuration" : 92,
                    "scalar" : 1,
                    "metadata" : {
                      "WinSubProjectDisplayName" : "",
                      "clipSpeedAttribute" : false,
                      "default-legacy-drawtime-duration" : 1.0,
                      "default-rotation2" : 0.0,
                      "default-scale0" : 1.0,
                      "default-scale1" : 1.0,
                      "default-stroke-color-blue" : 0.0,
                      "default-stroke-color-green" : 0.0,
                      "default-stroke-color-red" : 1.0,
                      "default-stroke-width" : 5.0,
                      "default-translation0" : 0.0,
                      "default-translation1" : 0.0
                    },
                    "animationTracks" : {

                    }
                  },
                  {
                    "id" : 176,
                    "_type" : "Callout",
                    "def" : {
                      "kind" : "TypeWinSVG",
                      "shape" : "",
                      "style" : "",
                      "DrawTime" : {
                        "type" : "double",
                        "defaultValue" : 1.0,
                        "interp" : "linr"
                      },
                      "borderColorBlue" : {
                        "type" : "double",
                        "defaultValue" : 0.0,
                        "interp" : "linr"
                      },
                      "borderColorGreen" : {
                        "type" : "double",
                        "defaultValue" : 0.0,
                        "interp" : "linr"
                      },
                      "borderColorRed" : {
                        "type" : "double",
                        "defaultValue" : 1.0,
                        "interp" : "linr"
                      },
                      "borderWidth" : {
                        "type" : "double",
                        "defaultValue" : 12.0,
                        "interp" : "linr"
                      },
                      "flipOnXAxis" : {
                        "type" : "double",
                        "defaultValue" : 0.0,
                        "interp" : "linr"
                      },
                      "flipOnYAxis" : {
                        "type" : "double",
                        "defaultValue" : 0.0,
                        "interp" : "linr"
                      },
                      "height" : {
                        "type" : "double",
                        "defaultValue" : 270.0,
                        "interp" : "linr"
                      },
                      "width" : {
                        "type" : "double",
                        "defaultValue" : 480.0,
                        "interp" : "linr"
                      },
                      "filename" : "C:\\Program Files (x86)\\TechSmith\\Camtasia Studio 9\\Media\\Studio\\Callouts\\anim_x.svg",
                      "horizontal-alignment" : "center",
                      "name" : "Sketch Motion X",
                      "vertical-alignment" : "center",
                      "xmlContent" : "﻿<?xml version=\"1.0\" encoding=\"utf-8\"?>\n<!DOCTYPE svg PUBLIC \"-//W3C//DTD SVG 1.1//EN\" \"http://www.w3.org/Graphics/SVG/1.1/DTD/svg11.dtd\">\n<svg version=\"1.1\" id=\"Layer_1\" xmlns=\"http://www.w3.org/2000/svg\" xmlns:xlink=\"http://www.w3.org/1999/xlink\" x=\"0px\" y=\"0px\"\n\t width=\"128px\" height=\"109px\" viewBox=\"0 0 128 109\" enable-background=\"new 0 0 128 109\" xml:space=\"preserve\">\n<path fill=\"none\" d=\"M0,0 L100,100 M100,0 L0,100\"/>\n</svg>\n",
                      "textAttributes" : {
                        "type" : "textAttributeList",
                        "keyframes" : [
                          {
                            "time" : 0,
                            "value" : null,
                            "duration" : 0
                          }
                        ]
                      }
                    },
                    "attributes" : {
                      "autoRotateText" : true
                    },
                    "parameters" : {
                      "translation0" : {
                        "type" : "double",
                        "defaultValue" : -279.158054711215,
                        "interp" : "eioe"
                      },
                      "translation1" : {
                        "type" : "double",
                        "defaultValue" : -102.853667013389,
                        "interp" : "eioe"
                      },
                      "scale0" : {
                        "type" : "double",
                        "defaultValue" : 0.230501538944881,
                        "interp" : "eioe"
                      },
                      "scale1" : {
                        "type" : "double",
                        "defaultValue" : 0.35053182090308,
                        "interp" : "eioe"
                      }
                    },
                    "leftEdgeMods" : [
                      {
                        "group" : "DrawPercentageFade",
                        "duration" : 12,
                        "parameters" : [
                          {
                            "name" : "DrawTime",
                              "func" : "FadeInFunc"
                            }
                        ]
                      }
                    ],
                    "effects" : [
                        {
                          "effectName" : "DropShadow",
                          "category" : "categoryVisualEffects",
                          "parameters" : {
                            "angle" : {
                              "type" : "double",
                              "defaultValue" : 5.49778714378214,
                              "interp" : "linr",
                              "uiHints" : {
                                "userInterfaceType" : 0,
                                "unitType" : 0
                              }
                            },
                            "blur" : {
                              "type" : "double",
                              "defaultValue" : 10.0,
                              "interp" : "linr",
                              "uiHints" : {
                                "userInterfaceType" : 0,
                                "unitType" : 0
                              }
                            },
                            "color-alpha" : {
                              "type" : "double",
                              "defaultValue" : 1.0,
                              "interp" : "linr",
                              "uiHints" : {
                                "userInterfaceType" : 0,
                                "unitType" : 0
                              }
                            },
                            "color-blue" : {
                              "type" : "double",
                              "defaultValue" : 0.1216,
                              "interp" : "linr",
                              "uiHints" : {
                                "userInterfaceType" : 0,
                                "unitType" : 0
                              }
                            },
                            "color-green" : {
                              "type" : "double",
                              "defaultValue" : 0.1216,
                              "interp" : "linr",
                              "uiHints" : {
                                "userInterfaceType" : 0,
                                "unitType" : 0
                              }
                            },
                            "color-red" : {
                              "type" : "double",
                              "defaultValue" : 0.1216,
                              "interp" : "linr",
                              "uiHints" : {
                                "userInterfaceType" : 0,
                                "unitType" : 0
                              }
                            },
                            "enabled" : 1,
                            "offset" : {
                              "type" : "double",
                              "defaultValue" : 10.0,
                              "interp" : "linr",
                              "uiHints" : {
                                "userInterfaceType" : 0,
                                "unitType" : 0
                              }
                            },
                            "opacity" : {
                              "type" : "double",
                              "defaultValue" : 0.4,
                              "interp" : "linr",
                              "uiHints" : {
                                "userInterfaceType" : 0,
                                "unitType" : 0
                              }
                            }
                          }
                        }
                    ],
                    "start" : 11022,
                    "duration" : 92,
                    "mediaStart" : 58,
                    "mediaDuration" : 92,
                    "scalar" : 1,
                    "metadata" : {
                      "WinSubProjectDisplayName" : "",
                      "clipSpeedAttribute" : false,
                      "default-legacy-drawtime-duration" : 1.0,
                      "default-scale0" : 1.0,
                      "default-scale1" : 1.0,
                      "default-stroke-width" : 5.0,
                      "default-translation0" : 0.0,
                      "default-translation1" : 0.0
                    },
                    "animationTracks" : {

                    }
                  },
                  {
                    "id" : 177,
                    "_type" : "Callout",
                    "def" : {
                      "kind" : "TypeWinSVG",
                      "shape" : "",
                      "style" : "",
                      "DrawTime" : 1.0,
                      "borderColorBlue" : 0.172549019607843,
                      "borderColorGreen" : 0.615686274509804,
                      "borderColorRed" : 0.105882352941176,
                      "borderWidth" : 12.875,
                      "flipOnXAxis" : 0.0,
                      "flipOnYAxis" : 0.0,
                      "height" : 270.0,
                      "width" : 480.0,
                      "filename" : "C:\\Program Files (x86)\\TechSmith\\Camtasia Studio 9\\Media\\Studio\\Callouts\\anim_checkmark.svg",
                      "horizontal-alignment" : "center",
                      "name" : "Sketch Motion Checkmark",
                      "vertical-alignment" : "center",
                      "xmlContent" : "﻿<?xml version=\"1.0\" encoding=\"utf-8\"?>\n<!-- Generator: Adobe Illustrator 13.0.2, SVG Export Plug-In . SVG Version: 6.00 Build 14948)  -->\n<!DOCTYPE svg PUBLIC \"-//W3C//DTD SVG 1.1//EN\" \"http://www.w3.org/Graphics/SVG/1.1/DTD/svg11.dtd\">\n<svg version=\"1.1\" id=\"Layer_1\" xmlns=\"http://www.w3.org/2000/svg\" xmlns:xlink=\"http://www.w3.org/1999/xlink\" x=\"0px\" y=\"0px\"\n\t width=\"128px\" height=\"109px\" viewBox=\"0 0 128 109\" enable-background=\"new 0 0 128 109\" xml:space=\"preserve\">\n<path fill=\"none\" d=\"M22.304,53.27c0,0,18.242,16.407,28.666,45.94c26.712-78.755,54.727-89.42,54.727-89.42\"/>\n</svg>\n",
                      "textAttributes" : {
                        "type" : "textAttributeList",
                        "keyframes" : [
                          {
                            "time" : 0,
                            "value" : null,
                            "duration" : 0
                          }
                        ]
                      }
                    },
                    "attributes" : {
                      "autoRotateText" : true
                    },
                    "parameters" : {
                      "translation0" : -239.557888919714,
                      "translation1" : -95.2970433825134,
                      "scale0" : 0.250886524823784,
                      "scale1" : 0.3853427895978
                    },
                    "leftEdgeMods" : [
                      {
                        "group" : "DrawPercentageFade",
                        "duration" : 18,
                        "parameters" : [
                          {
                            "name" : "DrawTime",
                              "func" : "FadeInFunc"
                            }
                        ]
                      }
                    ],
                    "effects" : [
                        {
                          "effectName" : "DropShadow",
                          "category" : "categoryVisualEffects",
                          "parameters" : {
                            "angle" : 5.49778714378214,
                            "blur" : 10.0,
                            "color-alpha" : 1.0,
                            "color-blue" : 0.1216,
                            "color-green" : 0.1216,
                            "color-red" : 0.1216,
                            "enabled" : 1,
                            "offset" : 10.0,
                            "opacity" : 0.4
                          }
                        }
                    ],
                    "start" : 11341,
                    "duration" : 92,
                    "mediaStart" : 16,
                    "mediaDuration" : 92,
                    "scalar" : 1,
                    "metadata" : {
                      "WinSubProjectDisplayName" : "",
                      "clipSpeedAttribute" : false,
                      "default-legacy-drawtime-duration" : 1.0,
                      "default-rotation2" : 0.0,
                      "default-scale0" : 1.0,
                      "default-scale1" : 1.0,
                      "default-stroke-color-blue" : 0.0,
                      "default-stroke-color-green" : 0.0,
                      "default-stroke-color-red" : 1.0,
                      "default-stroke-width" : 5.0,
                      "default-translation0" : 0.0,
                      "default-translation1" : 0.0
                    },
                    "animationTracks" : {

                    }
                  }
                ]
              },
              {
                "trackIndex" : 13,
                "medias" : [
                  {
                    "id" : 178,
                    "_type" : "Callout",
                    "def" : {
                      "kind" : "TypeWinSVG",
                      "shape" : "",
                      "style" : "",
                      "DrawTime" : 1.0,
                      "borderColorBlue" : 0.172549019607843,
                      "borderColorGreen" : 0.615686274509804,
                      "borderColorRed" : 0.105882352941176,
                      "borderWidth" : 12.875,
                      "flipOnXAxis" : 0.0,
                      "flipOnYAxis" : 0.0,
                      "height" : 270.0,
                      "width" : 480.0,
                      "filename" : "C:\\Program Files (x86)\\TechSmith\\Camtasia Studio 9\\Media\\Studio\\Callouts\\anim_checkmark.svg",
                      "horizontal-alignment" : "center",
                      "name" : "Sketch Motion Checkmark",
                      "vertical-alignment" : "center",
                      "xmlContent" : "﻿<?xml version=\"1.0\" encoding=\"utf-8\"?>\n<!-- Generator: Adobe Illustrator 13.0.2, SVG Export Plug-In . SVG Version: 6.00 Build 14948)  -->\n<!DOCTYPE svg PUBLIC \"-//W3C//DTD SVG 1.1//EN\" \"http://www.w3.org/Graphics/SVG/1.1/DTD/svg11.dtd\">\n<svg version=\"1.1\" id=\"Layer_1\" xmlns=\"http://www.w3.org/2000/svg\" xmlns:xlink=\"http://www.w3.org/1999/xlink\" x=\"0px\" y=\"0px\"\n\t width=\"128px\" height=\"109px\" viewBox=\"0 0 128 109\" enable-background=\"new 0 0 128 109\" xml:space=\"preserve\">\n<path fill=\"none\" d=\"M22.304,53.27c0,0,18.242,16.407,28.666,45.94c26.712-78.755,54.727-89.42,54.727-89.42\"/>\n</svg>\n",
                      "textAttributes" : {
                        "type" : "textAttributeList",
                        "keyframes" : [
                          {
                            "time" : 0,
                            "value" : null,
                            "duration" : 0
                          }
                        ]
                      }
                    },
                    "attributes" : {
                      "autoRotateText" : true
                    },
                    "parameters" : {
                      "translation0" : 324.468085106326,
                      "translation1" : -76.5957446810993,
                      "scale0" : 0.250886524823784,
                      "scale1" : 0.3853427895978
                    },
                    "leftEdgeMods" : [
                      {
                        "group" : "DrawPercentageFade",
                        "duration" : 18,
                        "parameters" : [
                          {
                            "name" : "DrawTime",
                              "func" : "FadeInFunc"
                            }
                        ]
                      }
                    ],
                    "effects" : [
                        {
                          "effectName" : "DropShadow",
                          "category" : "categoryVisualEffects",
                          "parameters" : {
                            "angle" : 5.49778714378214,
                            "blur" : 10.0,
                            "color-alpha" : 1.0,
                            "color-blue" : 0.1216,
                            "color-green" : 0.1216,
                            "color-red" : 0.1216,
                            "enabled" : 1,
                            "offset" : 10.0,
                            "opacity" : 0.4
                          }
                        }
                    ],
                    "start" : 903,
                    "duration" : 99,
                    "mediaStart" : -24,
                    "mediaDuration" : 99,
                    "scalar" : 1,
                    "metadata" : {
                      "WinSubProjectDisplayName" : "",
                      "clipSpeedAttribute" : false,
                      "default-legacy-drawtime-duration" : 1.0,
                      "default-scale0" : 1.0,
                      "default-scale1" : 1.0,
                      "default-stroke-color-blue" : 0.0,
                      "default-stroke-color-green" : 0.0,
                      "default-stroke-color-red" : 1.0,
                      "default-stroke-width" : 5.0,
                      "default-translation0" : 0.0,
                      "default-translation1" : 0.0
                    },
                    "animationTracks" : {

                    }
                  },
                  {
                    "id" : 179,
                    "_type" : "Callout",
                    "def" : {
                      "kind" : "TypeWinSVG",
                      "shape" : "",
                      "style" : "",
                      "DrawTime" : 1.0,
                      "borderColorBlue" : 0.172549019607843,
                      "borderColorGreen" : 0.615686274509804,
                      "borderColorRed" : 0.105882352941176,
                      "borderWidth" : 12.875,
                      "flipOnXAxis" : 0.0,
                      "flipOnYAxis" : 0.0,
                      "height" : 270.0,
                      "width" : 480.0,
                      "filename" : "C:\\Program Files (x86)\\TechSmith\\Camtasia Studio 9\\Media\\Studio\\Callouts\\anim_checkmark.svg",
                      "horizontal-alignment" : "center",
                      "name" : "Sketch Motion Checkmark",
                      "vertical-alignment" : "center",
                      "xmlContent" : "﻿<?xml version=\"1.0\" encoding=\"utf-8\"?>\n<!-- Generator: Adobe Illustrator 13.0.2, SVG Export Plug-In . SVG Version: 6.00 Build 14948)  -->\n<!DOCTYPE svg PUBLIC \"-//W3C//DTD SVG 1.1//EN\" \"http://www.w3.org/Graphics/SVG/1.1/DTD/svg11.dtd\">\n<svg version=\"1.1\" id=\"Layer_1\" xmlns=\"http://www.w3.org/2000/svg\" xmlns:xlink=\"http://www.w3.org/1999/xlink\" x=\"0px\" y=\"0px\"\n\t width=\"128px\" height=\"109px\" viewBox=\"0 0 128 109\" enable-background=\"new 0 0 128 109\" xml:space=\"preserve\">\n<path fill=\"none\" d=\"M22.304,53.27c0,0,18.242,16.407,28.666,45.94c26.712-78.755,54.727-89.42,54.727-89.42\"/>\n</svg>\n",
                      "textAttributes" : {
                        "type" : "textAttributeList",
                        "keyframes" : [
                          {
                            "time" : 0,
                            "value" : null,
                            "duration" : 0
                          }
                        ]
                      }
                    },
                    "attributes" : {
                      "autoRotateText" : true
                    },
                    "parameters" : {
                      "translation0" : 324.468085106326,
                      "translation1" : -76.5957446810993,
                      "scale0" : 0.250886524823784,
                      "scale1" : 0.3853427895978
                    },
                    "leftEdgeMods" : [
                      {
                        "group" : "DrawPercentageFade",
                        "duration" : 18,
                        "parameters" : [
                          {
                            "name" : "DrawTime",
                              "func" : "FadeInFunc"
                            }
                        ]
                      }
                    ],
                    "effects" : [
                        {
                          "effectName" : "DropShadow",
                          "category" : "categoryVisualEffects",
                          "parameters" : {
                            "angle" : 5.49778714378214,
                            "blur" : 10.0,
                            "color-alpha" : 1.0,
                            "color-blue" : 0.1216,
                            "color-green" : 0.1216,
                            "color-red" : 0.1216,
                            "enabled" : 1,
                            "offset" : 10.0,
                            "opacity" : 0.4
                          }
                        }
                    ],
                    "start" : 1202,
                    "duration" : 90,
                    "mediaStart" : -24,
                    "mediaDuration" : 90,
                    "scalar" : 1,
                    "metadata" : {
                      "WinSubProjectDisplayName" : "",
                      "clipSpeedAttribute" : false,
                      "default-legacy-drawtime-duration" : 1.0,
                      "default-scale0" : 1.0,
                      "default-scale1" : 1.0,
                      "default-stroke-color-blue" : 0.0,
                      "default-stroke-color-green" : 0.0,
                      "default-stroke-color-red" : 1.0,
                      "default-stroke-width" : 5.0,
                      "default-translation0" : 0.0,
                      "default-translation1" : 0.0
                    },
                    "animationTracks" : {

                    }
                  },
                  {
                    "id" : 180,
                    "_type" : "Callout",
                    "def" : {
                      "kind" : "TypeWinSVG",
                      "shape" : "",
                      "style" : "",
                      "DrawTime" : 1.0,
                      "borderColorBlue" : 0.172549019607843,
                      "borderColorGreen" : 0.615686274509804,
                      "borderColorRed" : 0.105882352941176,
                      "borderWidth" : 12.875,
                      "flipOnXAxis" : 0.0,
                      "flipOnYAxis" : 0.0,
                      "height" : 270.0,
                      "width" : 480.0,
                      "filename" : "C:\\Program Files (x86)\\TechSmith\\Camtasia Studio 9\\Media\\Studio\\Callouts\\anim_checkmark.svg",
                      "horizontal-alignment" : "center",
                      "name" : "Sketch Motion Checkmark",
                      "vertical-alignment" : "center",
                      "xmlContent" : "﻿<?xml version=\"1.0\" encoding=\"utf-8\"?>\n<!-- Generator: Adobe Illustrator 13.0.2, SVG Export Plug-In . SVG Version: 6.00 Build 14948)  -->\n<!DOCTYPE svg PUBLIC \"-//W3C//DTD SVG 1.1//EN\" \"http://www.w3.org/Graphics/SVG/1.1/DTD/svg11.dtd\">\n<svg version=\"1.1\" id=\"Layer_1\" xmlns=\"http://www.w3.org/2000/svg\" xmlns:xlink=\"http://www.w3.org/1999/xlink\" x=\"0px\" y=\"0px\"\n\t width=\"128px\" height=\"109px\" viewBox=\"0 0 128 109\" enable-background=\"new 0 0 128 109\" xml:space=\"preserve\">\n<path fill=\"none\" d=\"M22.304,53.27c0,0,18.242,16.407,28.666,45.94c26.712-78.755,54.727-89.42,54.727-89.42\"/>\n</svg>\n",
                      "textAttributes" : {
                        "type" : "textAttributeList",
                        "keyframes" : [
                          {
                            "time" : 0,
                            "value" : null,
                            "duration" : 0
                          }
                        ]
                      }
                    },
                    "attributes" : {
                      "autoRotateText" : true
                    },
                    "parameters" : {
                      "translation0" : 322.088145897355,
                      "translation1" : -189.325824305099,
                      "scale0" : 0.250886524823784,
                      "scale1" : 0.3853427895978
                    },
                    "leftEdgeMods" : [
                      {
                        "group" : "DrawPercentageFade",
                        "duration" : 18,
                        "parameters" : [
                          {
                            "name" : "DrawTime",
                              "func" : "FadeInFunc"
                            }
                        ]
                      }
                    ],
                    "effects" : [
                        {
                          "effectName" : "DropShadow",
                          "category" : "categoryVisualEffects",
                          "parameters" : {
                            "angle" : 5.49778714378214,
                            "blur" : 10.0,
                            "color-alpha" : 1.0,
                            "color-blue" : 0.1216,
                            "color-green" : 0.1216,
                            "color-red" : 0.1216,
                            "enabled" : 1,
                            "offset" : 10.0,
                            "opacity" : 0.4
                          }
                        }
                    ],
                    "start" : 1520,
                    "duration" : 90,
                    "mediaStart" : -24,
                    "mediaDuration" : 90,
                    "scalar" : 1,
                    "metadata" : {
                      "WinSubProjectDisplayName" : "",
                      "clipSpeedAttribute" : false,
                      "default-legacy-drawtime-duration" : 1.0,
                      "default-scale0" : 1.0,
                      "default-scale1" : 1.0,
                      "default-stroke-color-blue" : 0.0,
                      "default-stroke-color-green" : 0.0,
                      "default-stroke-color-red" : 1.0,
                      "default-stroke-width" : 5.0,
                      "default-translation0" : 0.0,
                      "default-translation1" : 0.0
                    },
                    "animationTracks" : {

                    }
                  },
                  {
                    "id" : 181,
                    "_type" : "Callout",
                    "def" : {
                      "kind" : "TypeWinSVG",
                      "shape" : "",
                      "style" : "",
                      "DrawTime" : 1.0,
                      "borderColorBlue" : 0.172549019607843,
                      "borderColorGreen" : 0.615686274509804,
                      "borderColorRed" : 0.105882352941176,
                      "borderWidth" : 12.875,
                      "flipOnXAxis" : 0.0,
                      "flipOnYAxis" : 0.0,
                      "height" : 270.0,
                      "width" : 480.0,
                      "filename" : "C:\\Program Files (x86)\\TechSmith\\Camtasia Studio 9\\Media\\Studio\\Callouts\\anim_checkmark.svg",
                      "horizontal-alignment" : "center",
                      "name" : "Sketch Motion Checkmark",
                      "vertical-alignment" : "center",
                      "xmlContent" : "﻿<?xml version=\"1.0\" encoding=\"utf-8\"?>\n<!-- Generator: Adobe Illustrator 13.0.2, SVG Export Plug-In . SVG Version: 6.00 Build 14948)  -->\n<!DOCTYPE svg PUBLIC \"-//W3C//DTD SVG 1.1//EN\" \"http://www.w3.org/Graphics/SVG/1.1/DTD/svg11.dtd\">\n<svg version=\"1.1\" id=\"Layer_1\" xmlns=\"http://www.w3.org/2000/svg\" xmlns:xlink=\"http://www.w3.org/1999/xlink\" x=\"0px\" y=\"0px\"\n\t width=\"128px\" height=\"109px\" viewBox=\"0 0 128 109\" enable-background=\"new 0 0 128 109\" xml:space=\"preserve\">\n<path fill=\"none\" d=\"M22.304,53.27c0,0,18.242,16.407,28.666,45.94c26.712-78.755,54.727-89.42,54.727-89.42\"/>\n</svg>\n",
                      "textAttributes" : {
                        "type" : "textAttributeList",
                        "keyframes" : [
                          {
                            "time" : 0,
                            "value" : null,
                            "duration" : 0
                          }
                        ]
                      }
                    },
                    "attributes" : {
                      "autoRotateText" : true
                    },
                    "parameters" : {
                      "translation0" : 324.468085106326,
                      "translation1" : -76.5957446810993,
                      "scale0" : 0.250886524823784,
                      "scale1" : 0.3853427895978
                    },
                    "leftEdgeMods" : [
                      {
                        "group" : "DrawPercentageFade",
                        "duration" : 18,
                        "parameters" : [
                          {
                            "name" : "DrawTime",
                              "func" : "FadeInFunc"
                            }
                        ]
                      }
                    ],
                    "effects" : [
                        {
                          "effectName" : "DropShadow",
                          "category" : "categoryVisualEffects",
                          "parameters" : {
                            "angle" : 5.49778714378214,
                            "blur" : 10.0,
                            "color-alpha" : 1.0,
                            "color-blue" : 0.1216,
                            "color-green" : 0.1216,
                            "color-red" : 0.1216,
                            "enabled" : 1,
                            "offset" : 10.0,
                            "opacity" : 0.4
                          }
                        }
                    ],
                    "start" : 1821,
                    "duration" : 92,
                    "mediaStart" : -24,
                    "mediaDuration" : 92,
                    "scalar" : 1,
                    "metadata" : {
                      "WinSubProjectDisplayName" : "",
                      "clipSpeedAttribute" : false,
                      "default-legacy-drawtime-duration" : 1.0,
                      "default-scale0" : 1.0,
                      "default-scale1" : 1.0,
                      "default-stroke-color-blue" : 0.0,
                      "default-stroke-color-green" : 0.0,
                      "default-stroke-color-red" : 1.0,
                      "default-stroke-width" : 5.0,
                      "default-translation0" : 0.0,
                      "default-translation1" : 0.0
                    },
                    "animationTracks" : {

                    }
                  },
                  {
                    "id" : 182,
                    "_type" : "Callout",
                    "def" : {
                      "kind" : "TypeWinSVG",
                      "shape" : "",
                      "style" : "",
                      "DrawTime" : 1.0,
                      "borderColorBlue" : 0.172549019607843,
                      "borderColorGreen" : 0.615686274509804,
                      "borderColorRed" : 0.105882352941176,
                      "borderWidth" : 12.875,
                      "flipOnXAxis" : 0.0,
                      "flipOnYAxis" : 0.0,
                      "height" : 270.0,
                      "width" : 480.0,
                      "filename" : "C:\\Program Files (x86)\\TechSmith\\Camtasia Studio 9\\Media\\Studio\\Callouts\\anim_checkmark.svg",
                      "horizontal-alignment" : "center",
                      "name" : "Sketch Motion Checkmark",
                      "vertical-alignment" : "center",
                      "xmlContent" : "﻿<?xml version=\"1.0\" encoding=\"utf-8\"?>\n<!-- Generator: Adobe Illustrator 13.0.2, SVG Export Plug-In . SVG Version: 6.00 Build 14948)  -->\n<!DOCTYPE svg PUBLIC \"-//W3C//DTD SVG 1.1//EN\" \"http://www.w3.org/Graphics/SVG/1.1/DTD/svg11.dtd\">\n<svg version=\"1.1\" id=\"Layer_1\" xmlns=\"http://www.w3.org/2000/svg\" xmlns:xlink=\"http://www.w3.org/1999/xlink\" x=\"0px\" y=\"0px\"\n\t width=\"128px\" height=\"109px\" viewBox=\"0 0 128 109\" enable-background=\"new 0 0 128 109\" xml:space=\"preserve\">\n<path fill=\"none\" d=\"M22.304,53.27c0,0,18.242,16.407,28.666,45.94c26.712-78.755,54.727-89.42,54.727-89.42\"/>\n</svg>\n",
                      "textAttributes" : {
                        "type" : "textAttributeList",
                        "keyframes" : [
                          {
                            "time" : 0,
                            "value" : null,
                            "duration" : 0
                          }
                        ]
                      }
                    },
                    "attributes" : {
                      "autoRotateText" : true
                    },
                    "parameters" : {
                      "translation0" : 324.468085106326,
                      "translation1" : -76.5957446810993,
                      "scale0" : 0.250886524823784,
                      "scale1" : 0.3853427895978
                    },
                    "leftEdgeMods" : [
                      {
                        "group" : "DrawPercentageFade",
                        "duration" : 18,
                        "parameters" : [
                          {
                            "name" : "DrawTime",
                              "func" : "FadeInFunc"
                            }
                        ]
                      }
                    ],
                    "effects" : [
                        {
                          "effectName" : "DropShadow",
                          "category" : "categoryVisualEffects",
                          "parameters" : {
                            "angle" : 5.49778714378214,
                            "blur" : 10.0,
                            "color-alpha" : 1.0,
                            "color-blue" : 0.1216,
                            "color-green" : 0.1216,
                            "color-red" : 0.1216,
                            "enabled" : 1,
                            "offset" : 10.0,
                            "opacity" : 0.4
                          }
                        }
                    ],
                    "start" : 2188,
                    "duration" : 90,
                    "mediaStart" : -24,
                    "mediaDuration" : 90,
                    "scalar" : 1,
                    "metadata" : {
                      "WinSubProjectDisplayName" : "",
                      "clipSpeedAttribute" : false,
                      "default-legacy-drawtime-duration" : 1.0,
                      "default-scale0" : 1.0,
                      "default-scale1" : 1.0,
                      "default-stroke-color-blue" : 0.0,
                      "default-stroke-color-green" : 0.0,
                      "default-stroke-color-red" : 1.0,
                      "default-stroke-width" : 5.0,
                      "default-translation0" : 0.0,
                      "default-translation1" : 0.0
                    },
                    "animationTracks" : {

                    }
                  },
                  {
                    "id" : 183,
                    "_type" : "Callout",
                    "def" : {
                      "kind" : "TypeWinSVG",
                      "shape" : "",
                      "style" : "",
                      "DrawTime" : {
                        "type" : "double",
                        "defaultValue" : 1.0,
                        "interp" : "linr"
                      },
                      "borderColorBlue" : {
                        "type" : "double",
                        "defaultValue" : 0.172549019607843,
                        "interp" : "linr"
                      },
                      "borderColorGreen" : {
                        "type" : "double",
                        "defaultValue" : 0.615686274509804,
                        "interp" : "linr"
                      },
                      "borderColorRed" : {
                        "type" : "double",
                        "defaultValue" : 0.105882352941176,
                        "interp" : "linr"
                      },
                      "borderWidth" : {
                        "type" : "double",
                        "defaultValue" : 12.875,
                        "interp" : "linr"
                      },
                      "flipOnXAxis" : {
                        "type" : "double",
                        "defaultValue" : 0.0,
                        "interp" : "linr"
                      },
                      "flipOnYAxis" : {
                        "type" : "double",
                        "defaultValue" : 0.0,
                        "interp" : "linr"
                      },
                      "height" : {
                        "type" : "double",
                        "defaultValue" : 270.0,
                        "interp" : "linr"
                      },
                      "width" : {
                        "type" : "double",
                        "defaultValue" : 480.0,
                        "interp" : "linr"
                      },
                      "filename" : "C:\\Program Files (x86)\\TechSmith\\Camtasia Studio 9\\Media\\Studio\\Callouts\\anim_checkmark.svg",
                      "horizontal-alignment" : "center",
                      "name" : "Sketch Motion Checkmark",
                      "vertical-alignment" : "center",
                      "xmlContent" : "﻿<?xml version=\"1.0\" encoding=\"utf-8\"?>\n<!-- Generator: Adobe Illustrator 13.0.2, SVG Export Plug-In . SVG Version: 6.00 Build 14948)  -->\n<!DOCTYPE svg PUBLIC \"-//W3C//DTD SVG 1.1//EN\" \"http://www.w3.org/Graphics/SVG/1.1/DTD/svg11.dtd\">\n<svg version=\"1.1\" id=\"Layer_1\" xmlns=\"http://www.w3.org/2000/svg\" xmlns:xlink=\"http://www.w3.org/1999/xlink\" x=\"0px\" y=\"0px\"\n\t width=\"128px\" height=\"109px\" viewBox=\"0 0 128 109\" enable-background=\"new 0 0 128 109\" xml:space=\"preserve\">\n<path fill=\"none\" d=\"M22.304,53.27c0,0,18.242,16.407,28.666,45.94c26.712-78.755,54.727-89.42,54.727-89.42\"/>\n</svg>\n",
                      "textAttributes" : {
                        "type" : "textAttributeList",
                        "keyframes" : [
                          {
                            "time" : 0,
                            "value" : null,
                            "duration" : 0
                          }
                        ]
                      }
                    },
                    "attributes" : {
                      "autoRotateText" : true
                    },
                    "parameters" : {
                      "translation0" : {
                        "type" : "double",
                        "defaultValue" : 324.468085106326,
                        "interp" : "eioe"
                      },
                      "translation1" : {
                        "type" : "double",
                        "defaultValue" : -76.5957446810993,
                        "interp" : "eioe"
                      },
                      "scale0" : {
                        "type" : "double",
                        "defaultValue" : 0.250886524823784,
                        "interp" : "eioe"
                      },
                      "scale1" : {
                        "type" : "double",
                        "defaultValue" : 0.3853427895978,
                        "interp" : "eioe"
                      }
                    },
                    "leftEdgeMods" : [
                      {
                        "group" : "DrawPercentageFade",
                        "duration" : 18,
                        "parameters" : [
                          {
                            "name" : "DrawTime",
                              "func" : "FadeInFunc"
                            }
                        ]
                      }
                    ],
                    "effects" : [
                        {
                          "effectName" : "DropShadow",
                          "category" : "categoryVisualEffects",
                          "parameters" : {
                            "angle" : {
                              "type" : "double",
                              "defaultValue" : 5.49778714378214,
                              "interp" : "linr",
                              "uiHints" : {
                                "userInterfaceType" : 0,
                                "unitType" : 0
                              }
                            },
                            "blur" : {
                              "type" : "double",
                              "defaultValue" : 10.0,
                              "interp" : "linr",
                              "uiHints" : {
                                "userInterfaceType" : 0,
                                "unitType" : 0
                              }
                            },
                            "color-alpha" : {
                              "type" : "double",
                              "defaultValue" : 1.0,
                              "interp" : "linr",
                              "uiHints" : {
                                "userInterfaceType" : 0,
                                "unitType" : 0
                              }
                            },
                            "color-blue" : {
                              "type" : "double",
                              "defaultValue" : 0.1216,
                              "interp" : "linr",
                              "uiHints" : {
                                "userInterfaceType" : 0,
                                "unitType" : 0
                              }
                            },
                            "color-green" : {
                              "type" : "double",
                              "defaultValue" : 0.1216,
                              "interp" : "linr",
                              "uiHints" : {
                                "userInterfaceType" : 0,
                                "unitType" : 0
                              }
                            },
                            "color-red" : {
                              "type" : "double",
                              "defaultValue" : 0.1216,
                              "interp" : "linr",
                              "uiHints" : {
                                "userInterfaceType" : 0,
                                "unitType" : 0
                              }
                            },
                            "enabled" : 1,
                            "offset" : {
                              "type" : "double",
                              "defaultValue" : 10.0,
                              "interp" : "linr",
                              "uiHints" : {
                                "userInterfaceType" : 0,
                                "unitType" : 0
                              }
                            },
                            "opacity" : {
                              "type" : "double",
                              "defaultValue" : 0.4,
                              "interp" : "linr",
                              "uiHints" : {
                                "userInterfaceType" : 0,
                                "unitType" : 0
                              }
                            }
                          }
                        }
                    ],
                    "start" : 2550,
                    "duration" : 90,
                    "mediaStart" : -24,
                    "mediaDuration" : 90,
                    "scalar" : 1,
                    "metadata" : {
                      "WinSubProjectDisplayName" : "",
                      "clipSpeedAttribute" : false,
                      "default-legacy-drawtime-duration" : 1.0,
                      "default-scale0" : 1.0,
                      "default-scale1" : 1.0,
                      "default-stroke-color-blue" : 0.0,
                      "default-stroke-color-green" : 0.0,
                      "default-stroke-color-red" : 1.0,
                      "default-stroke-width" : 5.0,
                      "default-translation0" : 0.0,
                      "default-translation1" : 0.0
                    },
                    "animationTracks" : {

                    }
                  },
                  {
                    "id" : 184,
                    "_type" : "Callout",
                    "def" : {
                      "kind" : "TypeWinSVG",
                      "shape" : "",
                      "style" : "",
                      "DrawTime" : 1.0,
                      "borderColorBlue" : 0.0,
                      "borderColorGreen" : 0.0,
                      "borderColorRed" : 1.0,
                      "borderWidth" : 12.0,
                      "flipOnXAxis" : 0.0,
                      "flipOnYAxis" : 0.0,
                      "height" : 270.0,
                      "width" : 480.0,
                      "filename" : "C:\\Program Files (x86)\\TechSmith\\Camtasia Studio 9\\Media\\Studio\\Callouts\\anim_x.svg",
                      "horizontal-alignment" : "center",
                      "name" : "Sketch Motion X",
                      "vertical-alignment" : "center",
                      "xmlContent" : "﻿<?xml version=\"1.0\" encoding=\"utf-8\"?>\n<!DOCTYPE svg PUBLIC \"-//W3C//DTD SVG 1.1//EN\" \"http://www.w3.org/Graphics/SVG/1.1/DTD/svg11.dtd\">\n<svg version=\"1.1\" id=\"Layer_1\" xmlns=\"http://www.w3.org/2000/svg\" xmlns:xlink=\"http://www.w3.org/1999/xlink\" x=\"0px\" y=\"0px\"\n\t width=\"128px\" height=\"109px\" viewBox=\"0 0 128 109\" enable-background=\"new 0 0 128 109\" xml:space=\"preserve\">\n<path fill=\"none\" d=\"M0,0 L100,100 M100,0 L0,100\"/>\n</svg>\n",
                      "textAttributes" : {
                        "type" : "textAttributeList",
                        "keyframes" : [
                          {
                            "time" : 0,
                            "value" : null,
                            "duration" : 0
                          }
                        ]
                      }
                    },
                    "attributes" : {
                      "autoRotateText" : true
                    },
                    "parameters" : {
                      "translation0" : 275.876623376214,
                      "translation1" : -110.746753246759,
                      "scale0" : 0.256628787877695,
                      "scale1" : 0.410774410774266
                    },
                    "leftEdgeMods" : [
                      {
                        "group" : "DrawPercentageFade",
                        "duration" : 12,
                        "parameters" : [
                          {
                            "name" : "DrawTime",
                              "func" : "FadeInFunc"
                            }
                        ]
                      }
                    ],
                    "effects" : [
                        {
                          "effectName" : "DropShadow",
                          "category" : "categoryVisualEffects",
                          "parameters" : {
                            "angle" : 5.49778714378214,
                            "blur" : 10.0,
                            "color-alpha" : 1.0,
                            "color-blue" : 0.1216,
                            "color-green" : 0.1216,
                            "color-red" : 0.1216,
                            "enabled" : 1,
                            "offset" : 10.0,
                            "opacity" : 0.4
                          }
                        }
                    ],
                    "start" : 2898,
                    "duration" : 90,
                    "mediaStart" : 18,
                    "mediaDuration" : 90,
                    "scalar" : 1,
                    "metadata" : {
                      "WinSubProjectDisplayName" : "",
                      "clipSpeedAttribute" : false,
                      "default-legacy-drawtime-duration" : 1.0,
                      "default-scale0" : 1.0,
                      "default-scale1" : 1.0,
                      "default-stroke-width" : 5.0,
                      "default-translation0" : 0.0,
                      "default-translation1" : 0.0
                    },
                    "animationTracks" : {

                    }
                  },
                  {
                    "id" : 185,
                    "_type" : "Callout",
                    "def" : {
                      "kind" : "TypeWinSVG",
                      "shape" : "",
                      "style" : "",
                      "DrawTime" : 1.0,
                      "borderColorBlue" : 0.172549019607843,
                      "borderColorGreen" : 0.615686274509804,
                      "borderColorRed" : 0.105882352941176,
                      "borderWidth" : 12.875,
                      "flipOnXAxis" : 0.0,
                      "flipOnYAxis" : 0.0,
                      "height" : 270.0,
                      "width" : 480.0,
                      "filename" : "C:\\Program Files (x86)\\TechSmith\\Camtasia Studio 9\\Media\\Studio\\Callouts\\anim_checkmark.svg",
                      "horizontal-alignment" : "center",
                      "name" : "Sketch Motion Checkmark",
                      "vertical-alignment" : "center",
                      "xmlContent" : "﻿<?xml version=\"1.0\" encoding=\"utf-8\"?>\n<!-- Generator: Adobe Illustrator 13.0.2, SVG Export Plug-In . SVG Version: 6.00 Build 14948)  -->\n<!DOCTYPE svg PUBLIC \"-//W3C//DTD SVG 1.1//EN\" \"http://www.w3.org/Graphics/SVG/1.1/DTD/svg11.dtd\">\n<svg version=\"1.1\" id=\"Layer_1\" xmlns=\"http://www.w3.org/2000/svg\" xmlns:xlink=\"http://www.w3.org/1999/xlink\" x=\"0px\" y=\"0px\"\n\t width=\"128px\" height=\"109px\" viewBox=\"0 0 128 109\" enable-background=\"new 0 0 128 109\" xml:space=\"preserve\">\n<path fill=\"none\" d=\"M22.304,53.27c0,0,18.242,16.407,28.666,45.94c26.712-78.755,54.727-89.42,54.727-89.42\"/>\n</svg>\n",
                      "textAttributes" : {
                        "type" : "textAttributeList",
                        "keyframes" : [
                          {
                            "time" : 0,
                            "value" : null,
                            "duration" : 0
                          }
                        ]
                      }
                    },
                    "attributes" : {
                      "autoRotateText" : true
                    },
                    "parameters" : {
                      "translation0" : 324.468085106326,
                      "translation1" : -76.5957446810993,
                      "scale0" : 0.250886524823784,
                      "scale1" : 0.3853427895978
                    },
                    "leftEdgeMods" : [
                      {
                        "group" : "DrawPercentageFade",
                        "duration" : 18,
                        "parameters" : [
                          {
                            "name" : "DrawTime",
                              "func" : "FadeInFunc"
                            }
                        ]
                      }
                    ],
                    "effects" : [
                        {
                          "effectName" : "DropShadow",
                          "category" : "categoryVisualEffects",
                          "parameters" : {
                            "angle" : 5.49778714378214,
                            "blur" : 10.0,
                            "color-alpha" : 1.0,
                            "color-blue" : 0.1216,
                            "color-green" : 0.1216,
                            "color-red" : 0.1216,
                            "enabled" : 1,
                            "offset" : 10.0,
                            "opacity" : 0.4
                          }
                        }
                    ],
                    "start" : 3243,
                    "duration" : 90,
                    "mediaStart" : -24,
                    "mediaDuration" : 90,
                    "scalar" : 1,
                    "metadata" : {
                      "WinSubProjectDisplayName" : "",
                      "clipSpeedAttribute" : false,
                      "default-legacy-drawtime-duration" : 1.0,
                      "default-scale0" : 1.0,
                      "default-scale1" : 1.0,
                      "default-stroke-color-blue" : 0.0,
                      "default-stroke-color-green" : 0.0,
                      "default-stroke-color-red" : 1.0,
                      "default-stroke-width" : 5.0,
                      "default-translation0" : 0.0,
                      "default-translation1" : 0.0
                    },
                    "animationTracks" : {

                    }
                  },
                  {
                    "id" : 186,
                    "_type" : "Callout",
                    "def" : {
                      "kind" : "TypeWinSVG",
                      "shape" : "",
                      "style" : "",
                      "DrawTime" : 1.0,
                      "borderColorBlue" : 0.172549019607843,
                      "borderColorGreen" : 0.615686274509804,
                      "borderColorRed" : 0.105882352941176,
                      "borderWidth" : 12.875,
                      "flipOnXAxis" : 0.0,
                      "flipOnYAxis" : 0.0,
                      "height" : 270.0,
                      "width" : 480.0,
                      "filename" : "C:\\Program Files (x86)\\TechSmith\\Camtasia Studio 9\\Media\\Studio\\Callouts\\anim_checkmark.svg",
                      "horizontal-alignment" : "center",
                      "name" : "Sketch Motion Checkmark",
                      "vertical-alignment" : "center",
                      "xmlContent" : "﻿<?xml version=\"1.0\" encoding=\"utf-8\"?>\n<!-- Generator: Adobe Illustrator 13.0.2, SVG Export Plug-In . SVG Version: 6.00 Build 14948)  -->\n<!DOCTYPE svg PUBLIC \"-//W3C//DTD SVG 1.1//EN\" \"http://www.w3.org/Graphics/SVG/1.1/DTD/svg11.dtd\">\n<svg version=\"1.1\" id=\"Layer_1\" xmlns=\"http://www.w3.org/2000/svg\" xmlns:xlink=\"http://www.w3.org/1999/xlink\" x=\"0px\" y=\"0px\"\n\t width=\"128px\" height=\"109px\" viewBox=\"0 0 128 109\" enable-background=\"new 0 0 128 109\" xml:space=\"preserve\">\n<path fill=\"none\" d=\"M22.304,53.27c0,0,18.242,16.407,28.666,45.94c26.712-78.755,54.727-89.42,54.727-89.42\"/>\n</svg>\n",
                      "textAttributes" : {
                        "type" : "textAttributeList",
                        "keyframes" : [
                          {
                            "time" : 0,
                            "value" : null,
                            "duration" : 0
                          }
                        ]
                      }
                    },
                    "attributes" : {
                      "autoRotateText" : true
                    },
                    "parameters" : {
                      "translation0" : 329.013539651761,
                      "translation1" : -103.868471953927,
                      "scale0" : 0.250886524823784,
                      "scale1" : 0.3853427895978
                    },
                    "leftEdgeMods" : [
                      {
                        "group" : "DrawPercentageFade",
                        "duration" : 18,
                        "parameters" : [
                          {
                            "name" : "DrawTime",
                              "func" : "FadeInFunc"
                            }
                        ]
                      }
                    ],
                    "effects" : [
                        {
                          "effectName" : "DropShadow",
                          "category" : "categoryVisualEffects",
                          "parameters" : {
                            "angle" : 5.49778714378214,
                            "blur" : 10.0,
                            "color-alpha" : 1.0,
                            "color-blue" : 0.1216,
                            "color-green" : 0.1216,
                            "color-red" : 0.1216,
                            "enabled" : 1,
                            "offset" : 10.0,
                            "opacity" : 0.4
                          }
                        }
                    ],
                    "start" : 3580,
                    "duration" : 92,
                    "mediaStart" : 0,
                    "mediaDuration" : 92,
                    "scalar" : 1,
                    "metadata" : {
                      "WinSubProjectDisplayName" : "",
                      "clipSpeedAttribute" : false,
                      "default-legacy-drawtime-duration" : 1.0,
                      "default-rotation2" : 0.0,
                      "default-scale0" : 1.0,
                      "default-scale1" : 1.0,
                      "default-stroke-color-blue" : 0.0,
                      "default-stroke-color-green" : 0.0,
                      "default-stroke-color-red" : 1.0,
                      "default-stroke-width" : 5.0,
                      "default-translation0" : 0.0,
                      "default-translation1" : 0.0
                    },
                    "animationTracks" : {

                    }
                  },
                  {
                    "id" : 187,
                    "_type" : "Callout",
                    "def" : {
                      "kind" : "TypeWinSVG",
                      "shape" : "",
                      "style" : "",
                      "DrawTime" : 1.0,
                      "borderColorBlue" : 0.172549019607843,
                      "borderColorGreen" : 0.615686274509804,
                      "borderColorRed" : 0.105882352941176,
                      "borderWidth" : 12.875,
                      "flipOnXAxis" : 0.0,
                      "flipOnYAxis" : 0.0,
                      "height" : 270.0,
                      "width" : 480.0,
                      "filename" : "C:\\Program Files (x86)\\TechSmith\\Camtasia Studio 9\\Media\\Studio\\Callouts\\anim_checkmark.svg",
                      "horizontal-alignment" : "center",
                      "name" : "Sketch Motion Checkmark",
                      "vertical-alignment" : "center",
                      "xmlContent" : "﻿<?xml version=\"1.0\" encoding=\"utf-8\"?>\n<!-- Generator: Adobe Illustrator 13.0.2, SVG Export Plug-In . SVG Version: 6.00 Build 14948)  -->\n<!DOCTYPE svg PUBLIC \"-//W3C//DTD SVG 1.1//EN\" \"http://www.w3.org/Graphics/SVG/1.1/DTD/svg11.dtd\">\n<svg version=\"1.1\" id=\"Layer_1\" xmlns=\"http://www.w3.org/2000/svg\" xmlns:xlink=\"http://www.w3.org/1999/xlink\" x=\"0px\" y=\"0px\"\n\t width=\"128px\" height=\"109px\" viewBox=\"0 0 128 109\" enable-background=\"new 0 0 128 109\" xml:space=\"preserve\">\n<path fill=\"none\" d=\"M22.304,53.27c0,0,18.242,16.407,28.666,45.94c26.712-78.755,54.727-89.42,54.727-89.42\"/>\n</svg>\n",
                      "textAttributes" : {
                        "type" : "textAttributeList",
                        "keyframes" : [
                          {
                            "time" : 0,
                            "value" : null,
                            "duration" : 0
                          }
                        ]
                      }
                    },
                    "attributes" : {
                      "autoRotateText" : true
                    },
                    "parameters" : {
                      "translation0" : 329.013539651761,
                      "translation1" : -103.868471953927,
                      "scale0" : 0.250886524823784,
                      "scale1" : 0.3853427895978
                    },
                    "leftEdgeMods" : [
                      {
                        "group" : "DrawPercentageFade",
                        "duration" : 18,
                        "parameters" : [
                          {
                            "name" : "DrawTime",
                              "func" : "FadeInFunc"
                            }
                        ]
                      }
                    ],
                    "effects" : [
                        {
                          "effectName" : "DropShadow",
                          "category" : "categoryVisualEffects",
                          "parameters" : {
                            "angle" : 5.49778714378214,
                            "blur" : 10.0,
                            "color-alpha" : 1.0,
                            "color-blue" : 0.1216,
                            "color-green" : 0.1216,
                            "color-red" : 0.1216,
                            "enabled" : 1,
                            "offset" : 10.0,
                            "opacity" : 0.4
                          }
                        }
                    ],
                    "start" : 3910,
                    "duration" : 90,
                    "mediaStart" : 18,
                    "mediaDuration" : 90,
                    "scalar" : 1,
                    "metadata" : {
                      "WinSubProjectDisplayName" : "",
                      "clipSpeedAttribute" : false,
                      "default-legacy-drawtime-duration" : 1.0,
                      "default-rotation2" : 0.0,
                      "default-scale0" : 1.0,
                      "default-scale1" : 1.0,
                      "default-stroke-color-blue" : 0.0,
                      "default-stroke-color-green" : 0.0,
                      "default-stroke-color-red" : 1.0,
                      "default-stroke-width" : 5.0,
                      "default-translation0" : 0.0,
                      "default-translation1" : 0.0
                    },
                    "animationTracks" : {

                    }
                  },
                  {
                    "id" : 188,
                    "_type" : "Callout",
                    "def" : {
                      "kind" : "TypeWinSVG",
                      "shape" : "",
                      "style" : "",
                      "DrawTime" : 1.0,
                      "borderColorBlue" : 0.172549019607843,
                      "borderColorGreen" : 0.615686274509804,
                      "borderColorRed" : 0.105882352941176,
                      "borderWidth" : 12.875,
                      "flipOnXAxis" : 0.0,
                      "flipOnYAxis" : 0.0,
                      "height" : 270.0,
                      "width" : 480.0,
                      "filename" : "C:\\Program Files (x86)\\TechSmith\\Camtasia Studio 9\\Media\\Studio\\Callouts\\anim_checkmark.svg",
                      "horizontal-alignment" : "center",
                      "name" : "Sketch Motion Checkmark",
                      "vertical-alignment" : "center",
                      "xmlContent" : "﻿<?xml version=\"1.0\" encoding=\"utf-8\"?>\n<!-- Generator: Adobe Illustrator 13.0.2, SVG Export Plug-In . SVG Version: 6.00 Build 14948)  -->\n<!DOCTYPE svg PUBLIC \"-//W3C//DTD SVG 1.1//EN\" \"http://www.w3.org/Graphics/SVG/1.1/DTD/svg11.dtd\">\n<svg version=\"1.1\" id=\"Layer_1\" xmlns=\"http://www.w3.org/2000/svg\" xmlns:xlink=\"http://www.w3.org/1999/xlink\" x=\"0px\" y=\"0px\"\n\t width=\"128px\" height=\"109px\" viewBox=\"0 0 128 109\" enable-background=\"new 0 0 128 109\" xml:space=\"preserve\">\n<path fill=\"none\" d=\"M22.304,53.27c0,0,18.242,16.407,28.666,45.94c26.712-78.755,54.727-89.42,54.727-89.42\"/>\n</svg>\n",
                      "textAttributes" : {
                        "type" : "textAttributeList",
                        "keyframes" : [
                          {
                            "time" : 0,
                            "value" : null,
                            "duration" : 0
                          }
                        ]
                      }
                    },
                    "attributes" : {
                      "autoRotateText" : true
                    },
                    "parameters" : {
                      "translation0" : 329.013539651761,
                      "translation1" : -103.868471953927,
                      "scale0" : 0.250886524823784,
                      "scale1" : 0.3853427895978
                    },
                    "leftEdgeMods" : [
                      {
                        "group" : "DrawPercentageFade",
                        "duration" : 18,
                        "parameters" : [
                          {
                            "name" : "DrawTime",
                              "func" : "FadeInFunc"
                            }
                        ]
                      }
                    ],
                    "effects" : [
                        {
                          "effectName" : "DropShadow",
                          "category" : "categoryVisualEffects",
                          "parameters" : {
                            "angle" : 5.49778714378214,
                            "blur" : 10.0,
                            "color-alpha" : 1.0,
                            "color-blue" : 0.1216,
                            "color-green" : 0.1216,
                            "color-red" : 0.1216,
                            "enabled" : 1,
                            "offset" : 10.0,
                            "opacity" : 0.4
                          }
                        }
                    ],
                    "start" : 4235,
                    "duration" : 91,
                    "mediaStart" : 17,
                    "mediaDuration" : 91,
                    "scalar" : 1,
                    "metadata" : {
                      "WinSubProjectDisplayName" : "",
                      "clipSpeedAttribute" : false,
                      "default-legacy-drawtime-duration" : 1.0,
                      "default-rotation2" : 0.0,
                      "default-scale0" : 1.0,
                      "default-scale1" : 1.0,
                      "default-stroke-color-blue" : 0.0,
                      "default-stroke-color-green" : 0.0,
                      "default-stroke-color-red" : 1.0,
                      "default-stroke-width" : 5.0,
                      "default-translation0" : 0.0,
                      "default-translation1" : 0.0
                    },
                    "animationTracks" : {

                    }
                  },
                  {
                    "id" : 189,
                    "_type" : "Callout",
                    "def" : {
                      "kind" : "TypeWinSVG",
                      "shape" : "",
                      "style" : "",
                      "DrawTime" : 1.0,
                      "borderColorBlue" : 0.172549019607843,
                      "borderColorGreen" : 0.615686274509804,
                      "borderColorRed" : 0.105882352941176,
                      "borderWidth" : 12.875,
                      "flipOnXAxis" : 0.0,
                      "flipOnYAxis" : 0.0,
                      "height" : 270.0,
                      "width" : 480.0,
                      "filename" : "C:\\Program Files (x86)\\TechSmith\\Camtasia Studio 9\\Media\\Studio\\Callouts\\anim_checkmark.svg",
                      "horizontal-alignment" : "center",
                      "name" : "Sketch Motion Checkmark",
                      "vertical-alignment" : "center",
                      "xmlContent" : "﻿<?xml version=\"1.0\" encoding=\"utf-8\"?>\n<!-- Generator: Adobe Illustrator 13.0.2, SVG Export Plug-In . SVG Version: 6.00 Build 14948)  -->\n<!DOCTYPE svg PUBLIC \"-//W3C//DTD SVG 1.1//EN\" \"http://www.w3.org/Graphics/SVG/1.1/DTD/svg11.dtd\">\n<svg version=\"1.1\" id=\"Layer_1\" xmlns=\"http://www.w3.org/2000/svg\" xmlns:xlink=\"http://www.w3.org/1999/xlink\" x=\"0px\" y=\"0px\"\n\t width=\"128px\" height=\"109px\" viewBox=\"0 0 128 109\" enable-background=\"new 0 0 128 109\" xml:space=\"preserve\">\n<path fill=\"none\" d=\"M22.304,53.27c0,0,18.242,16.407,28.666,45.94c26.712-78.755,54.727-89.42,54.727-89.42\"/>\n</svg>\n",
                      "textAttributes" : {
                        "type" : "textAttributeList",
                        "keyframes" : [
                          {
                            "time" : 0,
                            "value" : null,
                            "duration" : 0
                          }
                        ]
                      }
                    },
                    "attributes" : {
                      "autoRotateText" : true
                    },
                    "parameters" : {
                      "translation0" : 329.013539651761,
                      "translation1" : -103.868471953927,
                      "scale0" : 0.250886524823784,
                      "scale1" : 0.3853427895978
                    },
                    "leftEdgeMods" : [
                      {
                        "group" : "DrawPercentageFade",
                        "duration" : 18,
                        "parameters" : [
                          {
                            "name" : "DrawTime",
                              "func" : "FadeInFunc"
                            }
                        ]
                      }
                    ],
                    "effects" : [
                        {
                          "effectName" : "DropShadow",
                          "category" : "categoryVisualEffects",
                          "parameters" : {
                            "angle" : 5.49778714378214,
                            "blur" : 10.0,
                            "color-alpha" : 1.0,
                            "color-blue" : 0.1216,
                            "color-green" : 0.1216,
                            "color-red" : 0.1216,
                            "enabled" : 1,
                            "offset" : 10.0,
                            "opacity" : 0.4
                          }
                        }
                    ],
                    "start" : 4504,
                    "duration" : 90,
                    "mediaStart" : -24,
                    "mediaDuration" : 90,
                    "scalar" : 1,
                    "metadata" : {
                      "WinSubProjectDisplayName" : "",
                      "clipSpeedAttribute" : false,
                      "default-legacy-drawtime-duration" : 1.0,
                      "default-rotation2" : 0.0,
                      "default-scale0" : 1.0,
                      "default-scale1" : 1.0,
                      "default-stroke-color-blue" : 0.0,
                      "default-stroke-color-green" : 0.0,
                      "default-stroke-color-red" : 1.0,
                      "default-stroke-width" : 5.0,
                      "default-translation0" : 0.0,
                      "default-translation1" : 0.0
                    },
                    "animationTracks" : {

                    }
                  },
                  {
                    "id" : 190,
                    "_type" : "Callout",
                    "def" : {
                      "kind" : "TypeWinSVG",
                      "shape" : "",
                      "style" : "",
                      "DrawTime" : 1.0,
                      "borderColorBlue" : 0.172549019607843,
                      "borderColorGreen" : 0.615686274509804,
                      "borderColorRed" : 0.105882352941176,
                      "borderWidth" : 12.875,
                      "flipOnXAxis" : 0.0,
                      "flipOnYAxis" : 0.0,
                      "height" : 270.0,
                      "width" : 480.0,
                      "filename" : "C:\\Program Files (x86)\\TechSmith\\Camtasia Studio 9\\Media\\Studio\\Callouts\\anim_checkmark.svg",
                      "horizontal-alignment" : "center",
                      "name" : "Sketch Motion Checkmark",
                      "vertical-alignment" : "center",
                      "xmlContent" : "﻿<?xml version=\"1.0\" encoding=\"utf-8\"?>\n<!-- Generator: Adobe Illustrator 13.0.2, SVG Export Plug-In . SVG Version: 6.00 Build 14948)  -->\n<!DOCTYPE svg PUBLIC \"-//W3C//DTD SVG 1.1//EN\" \"http://www.w3.org/Graphics/SVG/1.1/DTD/svg11.dtd\">\n<svg version=\"1.1\" id=\"Layer_1\" xmlns=\"http://www.w3.org/2000/svg\" xmlns:xlink=\"http://www.w3.org/1999/xlink\" x=\"0px\" y=\"0px\"\n\t width=\"128px\" height=\"109px\" viewBox=\"0 0 128 109\" enable-background=\"new 0 0 128 109\" xml:space=\"preserve\">\n<path fill=\"none\" d=\"M22.304,53.27c0,0,18.242,16.407,28.666,45.94c26.712-78.755,54.727-89.42,54.727-89.42\"/>\n</svg>\n",
                      "textAttributes" : {
                        "type" : "textAttributeList",
                        "keyframes" : [
                          {
                            "time" : 0,
                            "value" : null,
                            "duration" : 0
                          }
                        ]
                      }
                    },
                    "attributes" : {
                      "autoRotateText" : true
                    },
                    "parameters" : {
                      "translation0" : 329.013539651761,
                      "translation1" : -103.868471953927,
                      "scale0" : 0.250886524823784,
                      "scale1" : 0.3853427895978
                    },
                    "leftEdgeMods" : [
                      {
                        "group" : "DrawPercentageFade",
                        "duration" : 18,
                        "parameters" : [
                          {
                            "name" : "DrawTime",
                              "func" : "FadeInFunc"
                            }
                        ]
                      }
                    ],
                    "effects" : [
                        {
                          "effectName" : "DropShadow",
                          "category" : "categoryVisualEffects",
                          "parameters" : {
                            "angle" : 5.49778714378214,
                            "blur" : 10.0,
                            "color-alpha" : 1.0,
                            "color-blue" : 0.1216,
                            "color-green" : 0.1216,
                            "color-red" : 0.1216,
                            "enabled" : 1,
                            "offset" : 10.0,
                            "opacity" : 0.4
                          }
                        }
                    ],
                    "start" : 4829,
                    "duration" : 90,
                    "mediaStart" : 10,
                    "mediaDuration" : 90,
                    "scalar" : 1,
                    "metadata" : {
                      "WinSubProjectDisplayName" : "",
                      "clipSpeedAttribute" : false,
                      "default-legacy-drawtime-duration" : 1.0,
                      "default-rotation2" : 0.0,
                      "default-scale0" : 1.0,
                      "default-scale1" : 1.0,
                      "default-stroke-color-blue" : 0.0,
                      "default-stroke-color-green" : 0.0,
                      "default-stroke-color-red" : 1.0,
                      "default-stroke-width" : 5.0,
                      "default-translation0" : 0.0,
                      "default-translation1" : 0.0
                    },
                    "animationTracks" : {

                    }
                  },
                  {
                    "id" : 191,
                    "_type" : "Callout",
                    "def" : {
                      "kind" : "TypeWinSVG",
                      "shape" : "",
                      "style" : "",
                      "DrawTime" : 1.0,
                      "borderColorBlue" : 0.172549019607843,
                      "borderColorGreen" : 0.615686274509804,
                      "borderColorRed" : 0.105882352941176,
                      "borderWidth" : 12.875,
                      "flipOnXAxis" : 0.0,
                      "flipOnYAxis" : 0.0,
                      "height" : 270.0,
                      "width" : 480.0,
                      "filename" : "C:\\Program Files (x86)\\TechSmith\\Camtasia Studio 9\\Media\\Studio\\Callouts\\anim_checkmark.svg",
                      "horizontal-alignment" : "center",
                      "name" : "Sketch Motion Checkmark",
                      "vertical-alignment" : "center",
                      "xmlContent" : "﻿<?xml version=\"1.0\" encoding=\"utf-8\"?>\n<!-- Generator: Adobe Illustrator 13.0.2, SVG Export Plug-In . SVG Version: 6.00 Build 14948)  -->\n<!DOCTYPE svg PUBLIC \"-//W3C//DTD SVG 1.1//EN\" \"http://www.w3.org/Graphics/SVG/1.1/DTD/svg11.dtd\">\n<svg version=\"1.1\" id=\"Layer_1\" xmlns=\"http://www.w3.org/2000/svg\" xmlns:xlink=\"http://www.w3.org/1999/xlink\" x=\"0px\" y=\"0px\"\n\t width=\"128px\" height=\"109px\" viewBox=\"0 0 128 109\" enable-background=\"new 0 0 128 109\" xml:space=\"preserve\">\n<path fill=\"none\" d=\"M22.304,53.27c0,0,18.242,16.407,28.666,45.94c26.712-78.755,54.727-89.42,54.727-89.42\"/>\n</svg>\n",
                      "textAttributes" : {
                        "type" : "textAttributeList",
                        "keyframes" : [
                          {
                            "time" : 0,
                            "value" : null,
                            "duration" : 0
                          }
                        ]
                      }
                    },
                    "attributes" : {
                      "autoRotateText" : true
                    },
                    "parameters" : {
                      "translation0" : 328.413073160283,
                      "translation1" : -229.33065989555,
                      "scale0" : 0.250886524823784,
                      "scale1" : 0.3853427895978
                    },
                    "leftEdgeMods" : [
                      {
                        "group" : "DrawPercentageFade",
                        "duration" : 18,
                        "parameters" : [
                          {
                            "name" : "DrawTime",
                              "func" : "FadeInFunc"
                            }
                        ]
                      }
                    ],
                    "effects" : [
                        {
                          "effectName" : "DropShadow",
                          "category" : "categoryVisualEffects",
                          "parameters" : {
                            "angle" : 5.49778714378214,
                            "blur" : 10.0,
                            "color-alpha" : 1.0,
                            "color-blue" : 0.1216,
                            "color-green" : 0.1216,
                            "color-red" : 0.1216,
                            "enabled" : 1,
                            "offset" : 10.0,
                            "opacity" : 0.4
                          }
                        }
                    ],
                    "start" : 5173,
                    "duration" : 111,
                    "mediaStart" : -45,
                    "mediaDuration" : 111,
                    "scalar" : 1,
                    "metadata" : {
                      "WinSubProjectDisplayName" : "",
                      "clipSpeedAttribute" : false,
                      "default-legacy-drawtime-duration" : 1.0,
                      "default-rotation2" : 0.0,
                      "default-scale0" : 1.0,
                      "default-scale1" : 1.0,
                      "default-stroke-color-blue" : 0.0,
                      "default-stroke-color-green" : 0.0,
                      "default-stroke-color-red" : 1.0,
                      "default-stroke-width" : 5.0,
                      "default-translation0" : 0.0,
                      "default-translation1" : 0.0
                    },
                    "animationTracks" : {

                    }
                  },
                  {
                    "id" : 192,
                    "_type" : "Callout",
                    "def" : {
                      "kind" : "TypeWinSVG",
                      "shape" : "",
                      "style" : "",
                      "DrawTime" : 1.0,
                      "borderColorBlue" : 0.172549019607843,
                      "borderColorGreen" : 0.615686274509804,
                      "borderColorRed" : 0.105882352941176,
                      "borderWidth" : 12.875,
                      "flipOnXAxis" : 0.0,
                      "flipOnYAxis" : 0.0,
                      "height" : 270.0,
                      "width" : 480.0,
                      "filename" : "C:\\Program Files (x86)\\TechSmith\\Camtasia Studio 9\\Media\\Studio\\Callouts\\anim_checkmark.svg",
                      "horizontal-alignment" : "center",
                      "name" : "Sketch Motion Checkmark",
                      "vertical-alignment" : "center",
                      "xmlContent" : "﻿<?xml version=\"1.0\" encoding=\"utf-8\"?>\n<!-- Generator: Adobe Illustrator 13.0.2, SVG Export Plug-In . SVG Version: 6.00 Build 14948)  -->\n<!DOCTYPE svg PUBLIC \"-//W3C//DTD SVG 1.1//EN\" \"http://www.w3.org/Graphics/SVG/1.1/DTD/svg11.dtd\">\n<svg version=\"1.1\" id=\"Layer_1\" xmlns=\"http://www.w3.org/2000/svg\" xmlns:xlink=\"http://www.w3.org/1999/xlink\" x=\"0px\" y=\"0px\"\n\t width=\"128px\" height=\"109px\" viewBox=\"0 0 128 109\" enable-background=\"new 0 0 128 109\" xml:space=\"preserve\">\n<path fill=\"none\" d=\"M22.304,53.27c0,0,18.242,16.407,28.666,45.94c26.712-78.755,54.727-89.42,54.727-89.42\"/>\n</svg>\n",
                      "textAttributes" : {
                        "type" : "textAttributeList",
                        "keyframes" : [
                          {
                            "time" : 0,
                            "value" : null,
                            "duration" : 0
                          }
                        ]
                      }
                    },
                    "attributes" : {
                      "autoRotateText" : true
                    },
                    "parameters" : {
                      "translation0" : 329.013539651761,
                      "translation1" : -103.868471953927,
                      "scale0" : 0.250886524823784,
                      "scale1" : 0.3853427895978
                    },
                    "leftEdgeMods" : [
                      {
                        "group" : "DrawPercentageFade",
                        "duration" : 18,
                        "parameters" : [
                          {
                            "name" : "DrawTime",
                              "func" : "FadeInFunc"
                            }
                        ]
                      }
                    ],
                    "effects" : [
                        {
                          "effectName" : "DropShadow",
                          "category" : "categoryVisualEffects",
                          "parameters" : {
                            "angle" : 5.49778714378214,
                            "blur" : 10.0,
                            "color-alpha" : 1.0,
                            "color-blue" : 0.1216,
                            "color-green" : 0.1216,
                            "color-red" : 0.1216,
                            "enabled" : 1,
                            "offset" : 10.0,
                            "opacity" : 0.4
                          }
                        }
                    ],
                    "start" : 5494,
                    "duration" : 90,
                    "mediaStart" : -24,
                    "mediaDuration" : 90,
                    "scalar" : 1,
                    "metadata" : {
                      "WinSubProjectDisplayName" : "",
                      "clipSpeedAttribute" : false,
                      "default-legacy-drawtime-duration" : 1.0,
                      "default-rotation2" : 0.0,
                      "default-scale0" : 1.0,
                      "default-scale1" : 1.0,
                      "default-stroke-color-blue" : 0.0,
                      "default-stroke-color-green" : 0.0,
                      "default-stroke-color-red" : 1.0,
                      "default-stroke-width" : 5.0,
                      "default-translation0" : 0.0,
                      "default-translation1" : 0.0
                    },
                    "animationTracks" : {

                    }
                  },
                  {
                    "id" : 193,
                    "_type" : "Callout",
                    "def" : {
                      "kind" : "TypeWinSVG",
                      "shape" : "",
                      "style" : "",
                      "DrawTime" : 1.0,
                      "borderColorBlue" : 0.172549019607843,
                      "borderColorGreen" : 0.615686274509804,
                      "borderColorRed" : 0.105882352941176,
                      "borderWidth" : 12.875,
                      "flipOnXAxis" : 0.0,
                      "flipOnYAxis" : 0.0,
                      "height" : 270.0,
                      "width" : 480.0,
                      "filename" : "C:\\Program Files (x86)\\TechSmith\\Camtasia Studio 9\\Media\\Studio\\Callouts\\anim_checkmark.svg",
                      "horizontal-alignment" : "center",
                      "name" : "Sketch Motion Checkmark",
                      "vertical-alignment" : "center",
                      "xmlContent" : "﻿<?xml version=\"1.0\" encoding=\"utf-8\"?>\n<!-- Generator: Adobe Illustrator 13.0.2, SVG Export Plug-In . SVG Version: 6.00 Build 14948)  -->\n<!DOCTYPE svg PUBLIC \"-//W3C//DTD SVG 1.1//EN\" \"http://www.w3.org/Graphics/SVG/1.1/DTD/svg11.dtd\">\n<svg version=\"1.1\" id=\"Layer_1\" xmlns=\"http://www.w3.org/2000/svg\" xmlns:xlink=\"http://www.w3.org/1999/xlink\" x=\"0px\" y=\"0px\"\n\t width=\"128px\" height=\"109px\" viewBox=\"0 0 128 109\" enable-background=\"new 0 0 128 109\" xml:space=\"preserve\">\n<path fill=\"none\" d=\"M22.304,53.27c0,0,18.242,16.407,28.666,45.94c26.712-78.755,54.727-89.42,54.727-89.42\"/>\n</svg>\n",
                      "textAttributes" : {
                        "type" : "textAttributeList",
                        "keyframes" : [
                          {
                            "time" : 0,
                            "value" : null,
                            "duration" : 0
                          }
                        ]
                      }
                    },
                    "attributes" : {
                      "autoRotateText" : true
                    },
                    "parameters" : {
                      "translation0" : 322.08814589778,
                      "translation1" : -179.809800128817,
                      "scale0" : 0.250886524823784,
                      "scale1" : 0.3853427895978
                    },
                    "leftEdgeMods" : [
                      {
                        "group" : "DrawPercentageFade",
                        "duration" : 18,
                        "parameters" : [
                          {
                            "name" : "DrawTime",
                              "func" : "FadeInFunc"
                            }
                        ]
                      }
                    ],
                    "effects" : [
                        {
                          "effectName" : "DropShadow",
                          "category" : "categoryVisualEffects",
                          "parameters" : {
                            "angle" : 5.49778714378214,
                            "blur" : 10.0,
                            "color-alpha" : 1.0,
                            "color-blue" : 0.1216,
                            "color-green" : 0.1216,
                            "color-red" : 0.1216,
                            "enabled" : 1,
                            "offset" : 10.0,
                            "opacity" : 0.4
                          }
                        }
                    ],
                    "start" : 5807,
                    "duration" : 91,
                    "mediaStart" : -3,
                    "mediaDuration" : 91,
                    "scalar" : 1,
                    "metadata" : {
                      "WinSubProjectDisplayName" : "",
                      "clipSpeedAttribute" : false,
                      "default-legacy-drawtime-duration" : 1.0,
                      "default-rotation2" : 0.0,
                      "default-scale0" : 1.0,
                      "default-scale1" : 1.0,
                      "default-stroke-color-blue" : 0.0,
                      "default-stroke-color-green" : 0.0,
                      "default-stroke-color-red" : 1.0,
                      "default-stroke-width" : 5.0,
                      "default-translation0" : 0.0,
                      "default-translation1" : 0.0
                    },
                    "animationTracks" : {

                    }
                  },
                  {
                    "id" : 194,
                    "_type" : "Callout",
                    "def" : {
                      "kind" : "TypeWinSVG",
                      "shape" : "",
                      "style" : "",
                      "DrawTime" : 1.0,
                      "borderColorBlue" : 0.172549019607843,
                      "borderColorGreen" : 0.615686274509804,
                      "borderColorRed" : 0.105882352941176,
                      "borderWidth" : 12.875,
                      "flipOnXAxis" : 0.0,
                      "flipOnYAxis" : 0.0,
                      "height" : 270.0,
                      "width" : 480.0,
                      "filename" : "C:\\Program Files (x86)\\TechSmith\\Camtasia Studio 9\\Media\\Studio\\Callouts\\anim_checkmark.svg",
                      "horizontal-alignment" : "center",
                      "name" : "Sketch Motion Checkmark",
                      "vertical-alignment" : "center",
                      "xmlContent" : "﻿<?xml version=\"1.0\" encoding=\"utf-8\"?>\n<!-- Generator: Adobe Illustrator 13.0.2, SVG Export Plug-In . SVG Version: 6.00 Build 14948)  -->\n<!DOCTYPE svg PUBLIC \"-//W3C//DTD SVG 1.1//EN\" \"http://www.w3.org/Graphics/SVG/1.1/DTD/svg11.dtd\">\n<svg version=\"1.1\" id=\"Layer_1\" xmlns=\"http://www.w3.org/2000/svg\" xmlns:xlink=\"http://www.w3.org/1999/xlink\" x=\"0px\" y=\"0px\"\n\t width=\"128px\" height=\"109px\" viewBox=\"0 0 128 109\" enable-background=\"new 0 0 128 109\" xml:space=\"preserve\">\n<path fill=\"none\" d=\"M22.304,53.27c0,0,18.242,16.407,28.666,45.94c26.712-78.755,54.727-89.42,54.727-89.42\"/>\n</svg>\n",
                      "textAttributes" : {
                        "type" : "textAttributeList",
                        "keyframes" : [
                          {
                            "time" : 0,
                            "value" : null,
                            "duration" : 0
                          }
                        ]
                      }
                    },
                    "attributes" : {
                      "autoRotateText" : true
                    },
                    "parameters" : {
                      "translation0" : 323.299253937477,
                      "translation1" : -89.5827576682213,
                      "scale0" : 0.250886524823784,
                      "scale1" : 0.3853427895978
                    },
                    "leftEdgeMods" : [
                      {
                        "group" : "DrawPercentageFade",
                        "duration" : 18,
                        "parameters" : [
                          {
                            "name" : "DrawTime",
                              "func" : "FadeInFunc"
                            }
                        ]
                      }
                    ],
                    "effects" : [
                        {
                          "effectName" : "DropShadow",
                          "category" : "categoryVisualEffects",
                          "parameters" : {
                            "angle" : 5.49778714378214,
                            "blur" : 10.0,
                            "color-alpha" : 1.0,
                            "color-blue" : 0.1216,
                            "color-green" : 0.1216,
                            "color-red" : 0.1216,
                            "enabled" : 1,
                            "offset" : 10.0,
                            "opacity" : 0.4
                          }
                        }
                    ],
                    "start" : 6160,
                    "duration" : 90,
                    "mediaStart" : 15,
                    "mediaDuration" : 90,
                    "scalar" : 1,
                    "metadata" : {
                      "WinSubProjectDisplayName" : "",
                      "clipSpeedAttribute" : false,
                      "default-legacy-drawtime-duration" : 1.0,
                      "default-rotation2" : 0.0,
                      "default-scale0" : 1.0,
                      "default-scale1" : 1.0,
                      "default-stroke-color-blue" : 0.0,
                      "default-stroke-color-green" : 0.0,
                      "default-stroke-color-red" : 1.0,
                      "default-stroke-width" : 5.0,
                      "default-translation0" : 0.0,
                      "default-translation1" : 0.0
                    },
                    "animationTracks" : {

                    }
                  },
                  {
                    "id" : 195,
                    "_type" : "Callout",
                    "def" : {
                      "kind" : "TypeWinSVG",
                      "shape" : "",
                      "style" : "",
                      "DrawTime" : 1.0,
                      "borderColorBlue" : 0.172549019607843,
                      "borderColorGreen" : 0.615686274509804,
                      "borderColorRed" : 0.105882352941176,
                      "borderWidth" : 12.875,
                      "flipOnXAxis" : 0.0,
                      "flipOnYAxis" : 0.0,
                      "height" : 270.0,
                      "width" : 480.0,
                      "filename" : "C:\\Program Files (x86)\\TechSmith\\Camtasia Studio 9\\Media\\Studio\\Callouts\\anim_checkmark.svg",
                      "horizontal-alignment" : "center",
                      "name" : "Sketch Motion Checkmark",
                      "vertical-alignment" : "center",
                      "xmlContent" : "﻿<?xml version=\"1.0\" encoding=\"utf-8\"?>\n<!-- Generator: Adobe Illustrator 13.0.2, SVG Export Plug-In . SVG Version: 6.00 Build 14948)  -->\n<!DOCTYPE svg PUBLIC \"-//W3C//DTD SVG 1.1//EN\" \"http://www.w3.org/Graphics/SVG/1.1/DTD/svg11.dtd\">\n<svg version=\"1.1\" id=\"Layer_1\" xmlns=\"http://www.w3.org/2000/svg\" xmlns:xlink=\"http://www.w3.org/1999/xlink\" x=\"0px\" y=\"0px\"\n\t width=\"128px\" height=\"109px\" viewBox=\"0 0 128 109\" enable-background=\"new 0 0 128 109\" xml:space=\"preserve\">\n<path fill=\"none\" d=\"M22.304,53.27c0,0,18.242,16.407,28.666,45.94c26.712-78.755,54.727-89.42,54.727-89.42\"/>\n</svg>\n",
                      "textAttributes" : {
                        "type" : "textAttributeList",
                        "keyframes" : [
                          {
                            "time" : 0,
                            "value" : null,
                            "duration" : 0
                          }
                        ]
                      }
                    },
                    "attributes" : {
                      "autoRotateText" : true
                    },
                    "parameters" : {
                      "translation0" : 329.013539651761,
                      "translation1" : -103.868471953927,
                      "scale0" : 0.250886524823784,
                      "scale1" : 0.3853427895978
                    },
                    "leftEdgeMods" : [
                      {
                        "group" : "DrawPercentageFade",
                        "duration" : 18,
                        "parameters" : [
                          {
                            "name" : "DrawTime",
                              "func" : "FadeInFunc"
                            }
                        ]
                      }
                    ],
                    "effects" : [
                        {
                          "effectName" : "DropShadow",
                          "category" : "categoryVisualEffects",
                          "parameters" : {
                            "angle" : 5.49778714378214,
                            "blur" : 10.0,
                            "color-alpha" : 1.0,
                            "color-blue" : 0.1216,
                            "color-green" : 0.1216,
                            "color-red" : 0.1216,
                            "enabled" : 1,
                            "offset" : 10.0,
                            "opacity" : 0.4
                          }
                        }
                    ],
                    "start" : 6440,
                    "duration" : 90,
                    "mediaStart" : -24,
                    "mediaDuration" : 90,
                    "scalar" : 1,
                    "metadata" : {
                      "WinSubProjectDisplayName" : "",
                      "clipSpeedAttribute" : false,
                      "default-legacy-drawtime-duration" : 1.0,
                      "default-rotation2" : 0.0,
                      "default-scale0" : 1.0,
                      "default-scale1" : 1.0,
                      "default-stroke-color-blue" : 0.0,
                      "default-stroke-color-green" : 0.0,
                      "default-stroke-color-red" : 1.0,
                      "default-stroke-width" : 5.0,
                      "default-translation0" : 0.0,
                      "default-translation1" : 0.0
                    },
                    "animationTracks" : {

                    }
                  },
                  {
                    "id" : 196,
                    "_type" : "Callout",
                    "def" : {
                      "kind" : "TypeWinSVG",
                      "shape" : "",
                      "style" : "",
                      "DrawTime" : 1.0,
                      "borderColorBlue" : 0.172549019607843,
                      "borderColorGreen" : 0.615686274509804,
                      "borderColorRed" : 0.105882352941176,
                      "borderWidth" : 12.875,
                      "flipOnXAxis" : 0.0,
                      "flipOnYAxis" : 0.0,
                      "height" : 270.0,
                      "width" : 480.0,
                      "filename" : "C:\\Program Files (x86)\\TechSmith\\Camtasia Studio 9\\Media\\Studio\\Callouts\\anim_checkmark.svg",
                      "horizontal-alignment" : "center",
                      "name" : "Sketch Motion Checkmark",
                      "vertical-alignment" : "center",
                      "xmlContent" : "﻿<?xml version=\"1.0\" encoding=\"utf-8\"?>\n<!-- Generator: Adobe Illustrator 13.0.2, SVG Export Plug-In . SVG Version: 6.00 Build 14948)  -->\n<!DOCTYPE svg PUBLIC \"-//W3C//DTD SVG 1.1//EN\" \"http://www.w3.org/Graphics/SVG/1.1/DTD/svg11.dtd\">\n<svg version=\"1.1\" id=\"Layer_1\" xmlns=\"http://www.w3.org/2000/svg\" xmlns:xlink=\"http://www.w3.org/1999/xlink\" x=\"0px\" y=\"0px\"\n\t width=\"128px\" height=\"109px\" viewBox=\"0 0 128 109\" enable-background=\"new 0 0 128 109\" xml:space=\"preserve\">\n<path fill=\"none\" d=\"M22.304,53.27c0,0,18.242,16.407,28.666,45.94c26.712-78.755,54.727-89.42,54.727-89.42\"/>\n</svg>\n",
                      "textAttributes" : {
                        "type" : "textAttributeList",
                        "keyframes" : [
                          {
                            "time" : 0,
                            "value" : null,
                            "duration" : 0
                          }
                        ]
                      }
                    },
                    "attributes" : {
                      "autoRotateText" : true
                    },
                    "parameters" : {
                      "translation0" : 329.013539651761,
                      "translation1" : -103.868471953927,
                      "scale0" : 0.250886524823784,
                      "scale1" : 0.3853427895978
                    },
                    "leftEdgeMods" : [
                      {
                        "group" : "DrawPercentageFade",
                        "duration" : 18,
                        "parameters" : [
                          {
                            "name" : "DrawTime",
                              "func" : "FadeInFunc"
                            }
                        ]
                      }
                    ],
                    "effects" : [
                        {
                          "effectName" : "DropShadow",
                          "category" : "categoryVisualEffects",
                          "parameters" : {
                            "angle" : 5.49778714378214,
                            "blur" : 10.0,
                            "color-alpha" : 1.0,
                            "color-blue" : 0.1216,
                            "color-green" : 0.1216,
                            "color-red" : 0.1216,
                            "enabled" : 1,
                            "offset" : 10.0,
                            "opacity" : 0.4
                          }
                        }
                    ],
                    "start" : 6740,
                    "duration" : 90,
                    "mediaStart" : -24,
                    "mediaDuration" : 90,
                    "scalar" : 1,
                    "metadata" : {
                      "WinSubProjectDisplayName" : "",
                      "clipSpeedAttribute" : false,
                      "default-legacy-drawtime-duration" : 1.0,
                      "default-rotation2" : 0.0,
                      "default-scale0" : 1.0,
                      "default-scale1" : 1.0,
                      "default-stroke-color-blue" : 0.0,
                      "default-stroke-color-green" : 0.0,
                      "default-stroke-color-red" : 1.0,
                      "default-stroke-width" : 5.0,
                      "default-translation0" : 0.0,
                      "default-translation1" : 0.0
                    },
                    "animationTracks" : {

                    }
                  },
                  {
                    "id" : 197,
                    "_type" : "Callout",
                    "def" : {
                      "kind" : "TypeWinSVG",
                      "shape" : "",
                      "style" : "",
                      "DrawTime" : {
                        "type" : "double",
                        "defaultValue" : 1.0,
                        "interp" : "linr"
                      },
                      "borderColorBlue" : {
                        "type" : "double",
                        "defaultValue" : 0.172549019607843,
                        "interp" : "linr"
                      },
                      "borderColorGreen" : {
                        "type" : "double",
                        "defaultValue" : 0.615686274509804,
                        "interp" : "linr"
                      },
                      "borderColorRed" : {
                        "type" : "double",
                        "defaultValue" : 0.105882352941176,
                        "interp" : "linr"
                      },
                      "borderWidth" : {
                        "type" : "double",
                        "defaultValue" : 12.875,
                        "interp" : "linr"
                      },
                      "flipOnXAxis" : {
                        "type" : "double",
                        "defaultValue" : 0.0,
                        "interp" : "linr"
                      },
                      "flipOnYAxis" : {
                        "type" : "double",
                        "defaultValue" : 0.0,
                        "interp" : "linr"
                      },
                      "height" : {
                        "type" : "double",
                        "defaultValue" : 270.0,
                        "interp" : "linr"
                      },
                      "width" : {
                        "type" : "double",
                        "defaultValue" : 480.0,
                        "interp" : "linr"
                      },
                      "filename" : "C:\\Program Files (x86)\\TechSmith\\Camtasia Studio 9\\Media\\Studio\\Callouts\\anim_checkmark.svg",
                      "horizontal-alignment" : "center",
                      "name" : "Sketch Motion Checkmark",
                      "vertical-alignment" : "center",
                      "xmlContent" : "﻿<?xml version=\"1.0\" encoding=\"utf-8\"?>\n<!-- Generator: Adobe Illustrator 13.0.2, SVG Export Plug-In . SVG Version: 6.00 Build 14948)  -->\n<!DOCTYPE svg PUBLIC \"-//W3C//DTD SVG 1.1//EN\" \"http://www.w3.org/Graphics/SVG/1.1/DTD/svg11.dtd\">\n<svg version=\"1.1\" id=\"Layer_1\" xmlns=\"http://www.w3.org/2000/svg\" xmlns:xlink=\"http://www.w3.org/1999/xlink\" x=\"0px\" y=\"0px\"\n\t width=\"128px\" height=\"109px\" viewBox=\"0 0 128 109\" enable-background=\"new 0 0 128 109\" xml:space=\"preserve\">\n<path fill=\"none\" d=\"M22.304,53.27c0,0,18.242,16.407,28.666,45.94c26.712-78.755,54.727-89.42,54.727-89.42\"/>\n</svg>\n",
                      "textAttributes" : {
                        "type" : "textAttributeList",
                        "keyframes" : [
                          {
                            "time" : 0,
                            "value" : null,
                            "duration" : 0
                          }
                        ]
                      }
                    },
                    "attributes" : {
                      "autoRotateText" : true
                    },
                    "parameters" : {
                      "translation0" : {
                        "type" : "double",
                        "defaultValue" : 329.013539651761,
                        "interp" : "eioe"
                      },
                      "translation1" : {
                        "type" : "double",
                        "defaultValue" : -103.868471953927,
                        "interp" : "eioe"
                      },
                      "scale0" : {
                        "type" : "double",
                        "defaultValue" : 0.250886524823784,
                        "interp" : "eioe"
                      },
                      "scale1" : {
                        "type" : "double",
                        "defaultValue" : 0.3853427895978,
                        "interp" : "eioe"
                      }
                    },
                    "leftEdgeMods" : [
                      {
                        "group" : "DrawPercentageFade",
                        "duration" : 18,
                        "parameters" : [
                          {
                            "name" : "DrawTime",
                              "func" : "FadeInFunc"
                            }
                        ]
                      }
                    ],
                    "effects" : [
                        {
                          "effectName" : "DropShadow",
                          "category" : "categoryVisualEffects",
                          "parameters" : {
                            "angle" : {
                              "type" : "double",
                              "defaultValue" : 5.49778714378214,
                              "interp" : "linr",
                              "uiHints" : {
                                "userInterfaceType" : 0,
                                "unitType" : 0
                              }
                            },
                            "blur" : {
                              "type" : "double",
                              "defaultValue" : 10.0,
                              "interp" : "linr",
                              "uiHints" : {
                                "userInterfaceType" : 0,
                                "unitType" : 0
                              }
                            },
                            "color-alpha" : {
                              "type" : "double",
                              "defaultValue" : 1.0,
                              "interp" : "linr",
                              "uiHints" : {
                                "userInterfaceType" : 0,
                                "unitType" : 0
                              }
                            },
                            "color-blue" : {
                              "type" : "double",
                              "defaultValue" : 0.1216,
                              "interp" : "linr",
                              "uiHints" : {
                                "userInterfaceType" : 0,
                                "unitType" : 0
                              }
                            },
                            "color-green" : {
                              "type" : "double",
                              "defaultValue" : 0.1216,
                              "interp" : "linr",
                              "uiHints" : {
                                "userInterfaceType" : 0,
                                "unitType" : 0
                              }
                            },
                            "color-red" : {
                              "type" : "double",
                              "defaultValue" : 0.1216,
                              "interp" : "linr",
                              "uiHints" : {
                                "userInterfaceType" : 0,
                                "unitType" : 0
                              }
                            },
                            "enabled" : 1,
                            "offset" : {
                              "type" : "double",
                              "defaultValue" : 10.0,
                              "interp" : "linr",
                              "uiHints" : {
                                "userInterfaceType" : 0,
                                "unitType" : 0
                              }
                            },
                            "opacity" : {
                              "type" : "double",
                              "defaultValue" : 0.4,
                              "interp" : "linr",
                              "uiHints" : {
                                "userInterfaceType" : 0,
                                "unitType" : 0
                              }
                            }
                          }
                        }
                    ],
                    "start" : 7053,
                    "duration" : 90,
                    "mediaStart" : -24,
                    "mediaDuration" : 90,
                    "scalar" : 1,
                    "metadata" : {
                      "WinSubProjectDisplayName" : "",
                      "clipSpeedAttribute" : false,
                      "default-legacy-drawtime-duration" : 1.0,
                      "default-rotation2" : 0.0,
                      "default-scale0" : 1.0,
                      "default-scale1" : 1.0,
                      "default-stroke-color-blue" : 0.0,
                      "default-stroke-color-green" : 0.0,
                      "default-stroke-color-red" : 1.0,
                      "default-stroke-width" : 5.0,
                      "default-translation0" : 0.0,
                      "default-translation1" : 0.0
                    },
                    "animationTracks" : {

                    }
                  },
                  {
                    "id" : 198,
                    "_type" : "Callout",
                    "def" : {
                      "kind" : "TypeWinSVG",
                      "shape" : "",
                      "style" : "",
                      "DrawTime" : 1.0,
                      "borderColorBlue" : 0.0,
                      "borderColorGreen" : 0.0,
                      "borderColorRed" : 1.0,
                      "borderWidth" : 12.0,
                      "flipOnXAxis" : 0.0,
                      "flipOnYAxis" : 0.0,
                      "height" : 270.0,
                      "width" : 480.0,
                      "filename" : "C:\\Program Files (x86)\\TechSmith\\Camtasia Studio 9\\Media\\Studio\\Callouts\\anim_x.svg",
                      "horizontal-alignment" : "center",
                      "name" : "Sketch Motion X",
                      "vertical-alignment" : "center",
                      "xmlContent" : "﻿<?xml version=\"1.0\" encoding=\"utf-8\"?>\n<!DOCTYPE svg PUBLIC \"-//W3C//DTD SVG 1.1//EN\" \"http://www.w3.org/Graphics/SVG/1.1/DTD/svg11.dtd\">\n<svg version=\"1.1\" id=\"Layer_1\" xmlns=\"http://www.w3.org/2000/svg\" xmlns:xlink=\"http://www.w3.org/1999/xlink\" x=\"0px\" y=\"0px\"\n\t width=\"128px\" height=\"109px\" viewBox=\"0 0 128 109\" enable-background=\"new 0 0 128 109\" xml:space=\"preserve\">\n<path fill=\"none\" d=\"M0,0 L100,100 M100,0 L0,100\"/>\n</svg>\n",
                      "textAttributes" : {
                        "type" : "textAttributeList",
                        "keyframes" : [
                          {
                            "time" : 0,
                            "value" : null,
                            "duration" : 0
                          }
                        ]
                      }
                    },
                    "attributes" : {
                      "autoRotateText" : true
                    },
                    "parameters" : {
                      "translation0" : 275.876623376214,
                      "translation1" : -110.746753246759,
                      "scale0" : 0.256628787877695,
                      "scale1" : 0.410774410774266
                    },
                    "leftEdgeMods" : [
                      {
                        "group" : "DrawPercentageFade",
                        "duration" : 12,
                        "parameters" : [
                          {
                            "name" : "DrawTime",
                              "func" : "FadeInFunc"
                            }
                        ]
                      }
                    ],
                    "effects" : [
                        {
                          "effectName" : "DropShadow",
                          "category" : "categoryVisualEffects",
                          "parameters" : {
                            "angle" : 5.49778714378214,
                            "blur" : 10.0,
                            "color-alpha" : 1.0,
                            "color-blue" : 0.1216,
                            "color-green" : 0.1216,
                            "color-red" : 0.1216,
                            "enabled" : 1,
                            "offset" : 10.0,
                            "opacity" : 0.4
                          }
                        }
                    ],
                    "start" : 7322,
                    "duration" : 90,
                    "mediaStart" : 18,
                    "mediaDuration" : 90,
                    "scalar" : 1,
                    "metadata" : {
                      "WinSubProjectDisplayName" : "",
                      "clipSpeedAttribute" : false,
                      "default-legacy-drawtime-duration" : 1.0,
                      "default-scale0" : 1.0,
                      "default-scale1" : 1.0,
                      "default-stroke-width" : 5.0,
                      "default-translation0" : 0.0,
                      "default-translation1" : 0.0
                    },
                    "animationTracks" : {

                    }
                  },
                  {
                    "id" : 199,
                    "_type" : "Callout",
                    "def" : {
                      "kind" : "TypeWinSVG",
                      "shape" : "",
                      "style" : "",
                      "DrawTime" : 1.0,
                      "borderColorBlue" : 0.172549019607843,
                      "borderColorGreen" : 0.615686274509804,
                      "borderColorRed" : 0.105882352941176,
                      "borderWidth" : 12.875,
                      "flipOnXAxis" : 0.0,
                      "flipOnYAxis" : 0.0,
                      "height" : 270.0,
                      "width" : 480.0,
                      "filename" : "C:\\Program Files (x86)\\TechSmith\\Camtasia Studio 9\\Media\\Studio\\Callouts\\anim_checkmark.svg",
                      "horizontal-alignment" : "center",
                      "name" : "Sketch Motion Checkmark",
                      "vertical-alignment" : "center",
                      "xmlContent" : "﻿<?xml version=\"1.0\" encoding=\"utf-8\"?>\n<!-- Generator: Adobe Illustrator 13.0.2, SVG Export Plug-In . SVG Version: 6.00 Build 14948)  -->\n<!DOCTYPE svg PUBLIC \"-//W3C//DTD SVG 1.1//EN\" \"http://www.w3.org/Graphics/SVG/1.1/DTD/svg11.dtd\">\n<svg version=\"1.1\" id=\"Layer_1\" xmlns=\"http://www.w3.org/2000/svg\" xmlns:xlink=\"http://www.w3.org/1999/xlink\" x=\"0px\" y=\"0px\"\n\t width=\"128px\" height=\"109px\" viewBox=\"0 0 128 109\" enable-background=\"new 0 0 128 109\" xml:space=\"preserve\">\n<path fill=\"none\" d=\"M22.304,53.27c0,0,18.242,16.407,28.666,45.94c26.712-78.755,54.727-89.42,54.727-89.42\"/>\n</svg>\n",
                      "textAttributes" : {
                        "type" : "textAttributeList",
                        "keyframes" : [
                          {
                            "time" : 0,
                            "value" : null,
                            "duration" : 0
                          }
                        ]
                      }
                    },
                    "attributes" : {
                      "autoRotateText" : true
                    },
                    "parameters" : {
                      "translation0" : 311.870682508909,
                      "translation1" : -98.1541862396349,
                      "scale0" : 0.250886524823784,
                      "scale1" : 0.3853427895978
                    },
                    "leftEdgeMods" : [
                      {
                        "group" : "DrawPercentageFade",
                        "duration" : 18,
                        "parameters" : [
                          {
                            "name" : "DrawTime",
                              "func" : "FadeInFunc"
                            }
                        ]
                      }
                    ],
                    "effects" : [
                        {
                          "effectName" : "DropShadow",
                          "category" : "categoryVisualEffects",
                          "parameters" : {
                            "angle" : 5.49778714378214,
                            "blur" : 10.0,
                            "color-alpha" : 1.0,
                            "color-blue" : 0.1216,
                            "color-green" : 0.1216,
                            "color-red" : 0.1216,
                            "enabled" : 1,
                            "offset" : 10.0,
                            "opacity" : 0.4
                          }
                        }
                    ],
                    "start" : 7658,
                    "duration" : 90,
                    "mediaStart" : 18,
                    "mediaDuration" : 90,
                    "scalar" : 1,
                    "metadata" : {
                      "WinSubProjectDisplayName" : "",
                      "clipSpeedAttribute" : false,
                      "default-legacy-drawtime-duration" : 1.0,
                      "default-rotation2" : 0.0,
                      "default-scale0" : 1.0,
                      "default-scale1" : 1.0,
                      "default-stroke-color-blue" : 0.0,
                      "default-stroke-color-green" : 0.0,
                      "default-stroke-color-red" : 1.0,
                      "default-stroke-width" : 5.0,
                      "default-translation0" : 0.0,
                      "default-translation1" : 0.0
                    },
                    "animationTracks" : {

                    }
                  },
                  {
                    "id" : 200,
                    "_type" : "Callout",
                    "def" : {
                      "kind" : "TypeWinSVG",
                      "shape" : "",
                      "style" : "",
                      "DrawTime" : 1.0,
                      "borderColorBlue" : 0.172549019607843,
                      "borderColorGreen" : 0.615686274509804,
                      "borderColorRed" : 0.105882352941176,
                      "borderWidth" : 12.875,
                      "flipOnXAxis" : 0.0,
                      "flipOnYAxis" : 0.0,
                      "height" : 270.0,
                      "width" : 480.0,
                      "filename" : "C:\\Program Files (x86)\\TechSmith\\Camtasia Studio 9\\Media\\Studio\\Callouts\\anim_checkmark.svg",
                      "horizontal-alignment" : "center",
                      "name" : "Sketch Motion Checkmark",
                      "vertical-alignment" : "center",
                      "xmlContent" : "﻿<?xml version=\"1.0\" encoding=\"utf-8\"?>\n<!-- Generator: Adobe Illustrator 13.0.2, SVG Export Plug-In . SVG Version: 6.00 Build 14948)  -->\n<!DOCTYPE svg PUBLIC \"-//W3C//DTD SVG 1.1//EN\" \"http://www.w3.org/Graphics/SVG/1.1/DTD/svg11.dtd\">\n<svg version=\"1.1\" id=\"Layer_1\" xmlns=\"http://www.w3.org/2000/svg\" xmlns:xlink=\"http://www.w3.org/1999/xlink\" x=\"0px\" y=\"0px\"\n\t width=\"128px\" height=\"109px\" viewBox=\"0 0 128 109\" enable-background=\"new 0 0 128 109\" xml:space=\"preserve\">\n<path fill=\"none\" d=\"M22.304,53.27c0,0,18.242,16.407,28.666,45.94c26.712-78.755,54.727-89.42,54.727-89.42\"/>\n</svg>\n",
                      "textAttributes" : {
                        "type" : "textAttributeList",
                        "keyframes" : [
                          {
                            "time" : 0,
                            "value" : null,
                            "duration" : 0
                          }
                        ]
                      }
                    },
                    "attributes" : {
                      "autoRotateText" : true
                    },
                    "parameters" : {
                      "translation0" : 311.870682508909,
                      "translation1" : -98.1541862396349,
                      "scale0" : 0.250886524823784,
                      "scale1" : 0.3853427895978
                    },
                    "leftEdgeMods" : [
                      {
                        "group" : "DrawPercentageFade",
                        "duration" : 18,
                        "parameters" : [
                          {
                            "name" : "DrawTime",
                              "func" : "FadeInFunc"
                            }
                        ]
                      }
                    ],
                    "effects" : [
                        {
                          "effectName" : "DropShadow",
                          "category" : "categoryVisualEffects",
                          "parameters" : {
                            "angle" : 5.49778714378214,
                            "blur" : 10.0,
                            "color-alpha" : 1.0,
                            "color-blue" : 0.1216,
                            "color-green" : 0.1216,
                            "color-red" : 0.1216,
                            "enabled" : 1,
                            "offset" : 10.0,
                            "opacity" : 0.4
                          }
                        }
                    ],
                    "start" : 7966,
                    "duration" : 90,
                    "mediaStart" : 9,
                    "mediaDuration" : 90,
                    "scalar" : 1,
                    "metadata" : {
                      "WinSubProjectDisplayName" : "",
                      "clipSpeedAttribute" : false,
                      "default-legacy-drawtime-duration" : 1.0,
                      "default-rotation2" : 0.0,
                      "default-scale0" : 1.0,
                      "default-scale1" : 1.0,
                      "default-stroke-color-blue" : 0.0,
                      "default-stroke-color-green" : 0.0,
                      "default-stroke-color-red" : 1.0,
                      "default-stroke-width" : 5.0,
                      "default-translation0" : 0.0,
                      "default-translation1" : 0.0
                    },
                    "animationTracks" : {

                    }
                  },
                  {
                    "id" : 201,
                    "_type" : "Callout",
                    "def" : {
                      "kind" : "TypeWinSVG",
                      "shape" : "",
                      "style" : "",
                      "DrawTime" : 1.0,
                      "borderColorBlue" : 0.172549019607843,
                      "borderColorGreen" : 0.615686274509804,
                      "borderColorRed" : 0.105882352941176,
                      "borderWidth" : 12.875,
                      "flipOnXAxis" : 0.0,
                      "flipOnYAxis" : 0.0,
                      "height" : 270.0,
                      "width" : 480.0,
                      "filename" : "C:\\Program Files (x86)\\TechSmith\\Camtasia Studio 9\\Media\\Studio\\Callouts\\anim_checkmark.svg",
                      "horizontal-alignment" : "center",
                      "name" : "Sketch Motion Checkmark",
                      "vertical-alignment" : "center",
                      "xmlContent" : "﻿<?xml version=\"1.0\" encoding=\"utf-8\"?>\n<!-- Generator: Adobe Illustrator 13.0.2, SVG Export Plug-In . SVG Version: 6.00 Build 14948)  -->\n<!DOCTYPE svg PUBLIC \"-//W3C//DTD SVG 1.1//EN\" \"http://www.w3.org/Graphics/SVG/1.1/DTD/svg11.dtd\">\n<svg version=\"1.1\" id=\"Layer_1\" xmlns=\"http://www.w3.org/2000/svg\" xmlns:xlink=\"http://www.w3.org/1999/xlink\" x=\"0px\" y=\"0px\"\n\t width=\"128px\" height=\"109px\" viewBox=\"0 0 128 109\" enable-background=\"new 0 0 128 109\" xml:space=\"preserve\">\n<path fill=\"none\" d=\"M22.304,53.27c0,0,18.242,16.407,28.666,45.94c26.712-78.755,54.727-89.42,54.727-89.42\"/>\n</svg>\n",
                      "textAttributes" : {
                        "type" : "textAttributeList",
                        "keyframes" : [
                          {
                            "time" : 0,
                            "value" : null,
                            "duration" : 0
                          }
                        ]
                      }
                    },
                    "attributes" : {
                      "autoRotateText" : true
                    },
                    "parameters" : {
                      "translation0" : 311.870682508909,
                      "translation1" : -98.1541862396349,
                      "scale0" : 0.250886524823784,
                      "scale1" : 0.3853427895978
                    },
                    "leftEdgeMods" : [
                      {
                        "group" : "DrawPercentageFade",
                        "duration" : 18,
                        "parameters" : [
                          {
                            "name" : "DrawTime",
                              "func" : "FadeInFunc"
                            }
                        ]
                      }
                    ],
                    "effects" : [
                        {
                          "effectName" : "DropShadow",
                          "category" : "categoryVisualEffects",
                          "parameters" : {
                            "angle" : 5.49778714378214,
                            "blur" : 10.0,
                            "color-alpha" : 1.0,
                            "color-blue" : 0.1216,
                            "color-green" : 0.1216,
                            "color-red" : 0.1216,
                            "enabled" : 1,
                            "offset" : 10.0,
                            "opacity" : 0.4
                          }
                        }
                    ],
                    "start" : 8302,
                    "duration" : 91,
                    "mediaStart" : 17,
                    "mediaDuration" : 91,
                    "scalar" : 1,
                    "metadata" : {
                      "WinSubProjectDisplayName" : "",
                      "clipSpeedAttribute" : false,
                      "default-legacy-drawtime-duration" : 1.0,
                      "default-rotation2" : 0.0,
                      "default-scale0" : 1.0,
                      "default-scale1" : 1.0,
                      "default-stroke-color-blue" : 0.0,
                      "default-stroke-color-green" : 0.0,
                      "default-stroke-color-red" : 1.0,
                      "default-stroke-width" : 5.0,
                      "default-translation0" : 0.0,
                      "default-translation1" : 0.0
                    },
                    "animationTracks" : {

                    }
                  },
                  {
                    "id" : 202,
                    "_type" : "Callout",
                    "def" : {
                      "kind" : "TypeWinSVG",
                      "shape" : "",
                      "style" : "",
                      "DrawTime" : {
                        "type" : "double",
                        "defaultValue" : 1.0,
                        "interp" : "linr"
                      },
                      "borderColorBlue" : {
                        "type" : "double",
                        "defaultValue" : 0.0,
                        "interp" : "linr"
                      },
                      "borderColorGreen" : {
                        "type" : "double",
                        "defaultValue" : 0.0,
                        "interp" : "linr"
                      },
                      "borderColorRed" : {
                        "type" : "double",
                        "defaultValue" : 1.0,
                        "interp" : "linr"
                      },
                      "borderWidth" : {
                        "type" : "double",
                        "defaultValue" : 12.0,
                        "interp" : "linr"
                      },
                      "flipOnXAxis" : {
                        "type" : "double",
                        "defaultValue" : 0.0,
                        "interp" : "linr"
                      },
                      "flipOnYAxis" : {
                        "type" : "double",
                        "defaultValue" : 0.0,
                        "interp" : "linr"
                      },
                      "height" : {
                        "type" : "double",
                        "defaultValue" : 270.0,
                        "interp" : "linr"
                      },
                      "width" : {
                        "type" : "double",
                        "defaultValue" : 480.0,
                        "interp" : "linr"
                      },
                      "filename" : "C:\\Program Files (x86)\\TechSmith\\Camtasia Studio 9\\Media\\Studio\\Callouts\\anim_x.svg",
                      "horizontal-alignment" : "center",
                      "name" : "Sketch Motion X",
                      "vertical-alignment" : "center",
                      "xmlContent" : "﻿<?xml version=\"1.0\" encoding=\"utf-8\"?>\n<!DOCTYPE svg PUBLIC \"-//W3C//DTD SVG 1.1//EN\" \"http://www.w3.org/Graphics/SVG/1.1/DTD/svg11.dtd\">\n<svg version=\"1.1\" id=\"Layer_1\" xmlns=\"http://www.w3.org/2000/svg\" xmlns:xlink=\"http://www.w3.org/1999/xlink\" x=\"0px\" y=\"0px\"\n\t width=\"128px\" height=\"109px\" viewBox=\"0 0 128 109\" enable-background=\"new 0 0 128 109\" xml:space=\"preserve\">\n<path fill=\"none\" d=\"M0,0 L100,100 M100,0 L0,100\"/>\n</svg>\n",
                      "textAttributes" : {
                        "type" : "textAttributeList",
                        "keyframes" : [
                          {
                            "time" : 0,
                            "value" : null,
                            "duration" : 0
                          }
                        ]
                      }
                    },
                    "attributes" : {
                      "autoRotateText" : true
                    },
                    "parameters" : {
                      "translation0" : {
                        "type" : "double",
                        "defaultValue" : 275.876623376214,
                        "interp" : "eioe"
                      },
                      "translation1" : {
                        "type" : "double",
                        "defaultValue" : -110.746753246759,
                        "interp" : "eioe"
                      },
                      "scale0" : {
                        "type" : "double",
                        "defaultValue" : 0.256628787877695,
                        "interp" : "eioe"
                      },
                      "scale1" : {
                        "type" : "double",
                        "defaultValue" : 0.410774410774266,
                        "interp" : "eioe"
                      }
                    },
                    "leftEdgeMods" : [
                      {
                        "group" : "DrawPercentageFade",
                        "duration" : 12,
                        "parameters" : [
                          {
                            "name" : "DrawTime",
                              "func" : "FadeInFunc"
                            }
                        ]
                      }
                    ],
                    "effects" : [
                        {
                          "effectName" : "DropShadow",
                          "category" : "categoryVisualEffects",
                          "parameters" : {
                            "angle" : {
                              "type" : "double",
                              "defaultValue" : 5.49778714378214,
                              "interp" : "linr",
                              "uiHints" : {
                                "userInterfaceType" : 0,
                                "unitType" : 0
                              }
                            },
                            "blur" : {
                              "type" : "double",
                              "defaultValue" : 10.0,
                              "interp" : "linr",
                              "uiHints" : {
                                "userInterfaceType" : 0,
                                "unitType" : 0
                              }
                            },
                            "color-alpha" : {
                              "type" : "double",
                              "defaultValue" : 1.0,
                              "interp" : "linr",
                              "uiHints" : {
                                "userInterfaceType" : 0,
                                "unitType" : 0
                              }
                            },
                            "color-blue" : {
                              "type" : "double",
                              "defaultValue" : 0.1216,
                              "interp" : "linr",
                              "uiHints" : {
                                "userInterfaceType" : 0,
                                "unitType" : 0
                              }
                            },
                            "color-green" : {
                              "type" : "double",
                              "defaultValue" : 0.1216,
                              "interp" : "linr",
                              "uiHints" : {
                                "userInterfaceType" : 0,
                                "unitType" : 0
                              }
                            },
                            "color-red" : {
                              "type" : "double",
                              "defaultValue" : 0.1216,
                              "interp" : "linr",
                              "uiHints" : {
                                "userInterfaceType" : 0,
                                "unitType" : 0
                              }
                            },
                            "enabled" : 1,
                            "offset" : {
                              "type" : "double",
                              "defaultValue" : 10.0,
                              "interp" : "linr",
                              "uiHints" : {
                                "userInterfaceType" : 0,
                                "unitType" : 0
                              }
                            },
                            "opacity" : {
                              "type" : "double",
                              "defaultValue" : 0.4,
                              "interp" : "linr",
                              "uiHints" : {
                                "userInterfaceType" : 0,
                                "unitType" : 0
                              }
                            }
                          }
                        }
                    ],
                    "start" : 8660,
                    "duration" : 90,
                    "mediaStart" : 18,
                    "mediaDuration" : 90,
                    "scalar" : 1,
                    "metadata" : {
                      "WinSubProjectDisplayName" : "",
                      "clipSpeedAttribute" : false,
                      "default-legacy-drawtime-duration" : 1.0,
                      "default-scale0" : 1.0,
                      "default-scale1" : 1.0,
                      "default-stroke-width" : 5.0,
                      "default-translation0" : 0.0,
                      "default-translation1" : 0.0
                    },
                    "animationTracks" : {

                    }
                  },
                  {
                    "id" : 203,
                    "_type" : "Callout",
                    "def" : {
                      "kind" : "TypeWinSVG",
                      "shape" : "",
                      "style" : "",
                      "DrawTime" : 1.0,
                      "borderColorBlue" : 0.172549019607843,
                      "borderColorGreen" : 0.615686274509804,
                      "borderColorRed" : 0.105882352941176,
                      "borderWidth" : 12.875,
                      "flipOnXAxis" : 0.0,
                      "flipOnYAxis" : 0.0,
                      "height" : 270.0,
                      "width" : 480.0,
                      "filename" : "C:\\Program Files (x86)\\TechSmith\\Camtasia Studio 9\\Media\\Studio\\Callouts\\anim_checkmark.svg",
                      "horizontal-alignment" : "center",
                      "name" : "Sketch Motion Checkmark",
                      "vertical-alignment" : "center",
                      "xmlContent" : "﻿<?xml version=\"1.0\" encoding=\"utf-8\"?>\n<!-- Generator: Adobe Illustrator 13.0.2, SVG Export Plug-In . SVG Version: 6.00 Build 14948)  -->\n<!DOCTYPE svg PUBLIC \"-//W3C//DTD SVG 1.1//EN\" \"http://www.w3.org/Graphics/SVG/1.1/DTD/svg11.dtd\">\n<svg version=\"1.1\" id=\"Layer_1\" xmlns=\"http://www.w3.org/2000/svg\" xmlns:xlink=\"http://www.w3.org/1999/xlink\" x=\"0px\" y=\"0px\"\n\t width=\"128px\" height=\"109px\" viewBox=\"0 0 128 109\" enable-background=\"new 0 0 128 109\" xml:space=\"preserve\">\n<path fill=\"none\" d=\"M22.304,53.27c0,0,18.242,16.407,28.666,45.94c26.712-78.755,54.727-89.42,54.727-89.42\"/>\n</svg>\n",
                      "textAttributes" : {
                        "type" : "textAttributeList",
                        "keyframes" : [
                          {
                            "time" : 0,
                            "value" : null,
                            "duration" : 0
                          }
                        ]
                      }
                    },
                    "attributes" : {
                      "autoRotateText" : true
                    },
                    "parameters" : {
                      "translation0" : 311.870682508909,
                      "translation1" : -98.1541862396349,
                      "scale0" : 0.250886524823784,
                      "scale1" : 0.3853427895978
                    },
                    "leftEdgeMods" : [
                      {
                        "group" : "DrawPercentageFade",
                        "duration" : 18,
                        "parameters" : [
                          {
                            "name" : "DrawTime",
                              "func" : "FadeInFunc"
                            }
                        ]
                      }
                    ],
                    "effects" : [
                        {
                          "effectName" : "DropShadow",
                          "category" : "categoryVisualEffects",
                          "parameters" : {
                            "angle" : 5.49778714378214,
                            "blur" : 10.0,
                            "color-alpha" : 1.0,
                            "color-blue" : 0.1216,
                            "color-green" : 0.1216,
                            "color-red" : 0.1216,
                            "enabled" : 1,
                            "offset" : 10.0,
                            "opacity" : 0.4
                          }
                        }
                    ],
                    "start" : 8966,
                    "duration" : 93,
                    "mediaStart" : 15,
                    "mediaDuration" : 93,
                    "scalar" : 1,
                    "metadata" : {
                      "WinSubProjectDisplayName" : "",
                      "clipSpeedAttribute" : false,
                      "default-legacy-drawtime-duration" : 1.0,
                      "default-rotation2" : 0.0,
                      "default-scale0" : 1.0,
                      "default-scale1" : 1.0,
                      "default-stroke-color-blue" : 0.0,
                      "default-stroke-color-green" : 0.0,
                      "default-stroke-color-red" : 1.0,
                      "default-stroke-width" : 5.0,
                      "default-translation0" : 0.0,
                      "default-translation1" : 0.0
                    },
                    "animationTracks" : {

                    }
                  },
                  {
                    "id" : 204,
                    "_type" : "Callout",
                    "def" : {
                      "kind" : "TypeWinSVG",
                      "shape" : "",
                      "style" : "",
                      "DrawTime" : {
                        "type" : "double",
                        "defaultValue" : 1.0,
                        "interp" : "linr"
                      },
                      "borderColorBlue" : {
                        "type" : "double",
                        "defaultValue" : 0.0,
                        "interp" : "linr"
                      },
                      "borderColorGreen" : {
                        "type" : "double",
                        "defaultValue" : 0.0,
                        "interp" : "linr"
                      },
                      "borderColorRed" : {
                        "type" : "double",
                        "defaultValue" : 1.0,
                        "interp" : "linr"
                      },
                      "borderWidth" : {
                        "type" : "double",
                        "defaultValue" : 12.0,
                        "interp" : "linr"
                      },
                      "flipOnXAxis" : {
                        "type" : "double",
                        "defaultValue" : 0.0,
                        "interp" : "linr"
                      },
                      "flipOnYAxis" : {
                        "type" : "double",
                        "defaultValue" : 0.0,
                        "interp" : "linr"
                      },
                      "height" : {
                        "type" : "double",
                        "defaultValue" : 270.0,
                        "interp" : "linr"
                      },
                      "width" : {
                        "type" : "double",
                        "defaultValue" : 480.0,
                        "interp" : "linr"
                      },
                      "filename" : "C:\\Program Files (x86)\\TechSmith\\Camtasia Studio 9\\Media\\Studio\\Callouts\\anim_x.svg",
                      "horizontal-alignment" : "center",
                      "name" : "Sketch Motion X",
                      "vertical-alignment" : "center",
                      "xmlContent" : "﻿<?xml version=\"1.0\" encoding=\"utf-8\"?>\n<!DOCTYPE svg PUBLIC \"-//W3C//DTD SVG 1.1//EN\" \"http://www.w3.org/Graphics/SVG/1.1/DTD/svg11.dtd\">\n<svg version=\"1.1\" id=\"Layer_1\" xmlns=\"http://www.w3.org/2000/svg\" xmlns:xlink=\"http://www.w3.org/1999/xlink\" x=\"0px\" y=\"0px\"\n\t width=\"128px\" height=\"109px\" viewBox=\"0 0 128 109\" enable-background=\"new 0 0 128 109\" xml:space=\"preserve\">\n<path fill=\"none\" d=\"M0,0 L100,100 M100,0 L0,100\"/>\n</svg>\n",
                      "textAttributes" : {
                        "type" : "textAttributeList",
                        "keyframes" : [
                          {
                            "time" : 0,
                            "value" : null,
                            "duration" : 0
                          }
                        ]
                      }
                    },
                    "attributes" : {
                      "autoRotateText" : true
                    },
                    "parameters" : {
                      "translation0" : {
                        "type" : "double",
                        "defaultValue" : 275.876623376214,
                        "interp" : "eioe"
                      },
                      "translation1" : {
                        "type" : "double",
                        "defaultValue" : -110.746753246759,
                        "interp" : "eioe"
                      },
                      "scale0" : {
                        "type" : "double",
                        "defaultValue" : 0.256628787877695,
                        "interp" : "eioe"
                      },
                      "scale1" : {
                        "type" : "double",
                        "defaultValue" : 0.410774410774266,
                        "interp" : "eioe"
                      }
                    },
                    "leftEdgeMods" : [
                      {
                        "group" : "DrawPercentageFade",
                        "duration" : 12,
                        "parameters" : [
                          {
                            "name" : "DrawTime",
                              "func" : "FadeInFunc"
                            }
                        ]
                      }
                    ],
                    "effects" : [
                        {
                          "effectName" : "DropShadow",
                          "category" : "categoryVisualEffects",
                          "parameters" : {
                            "angle" : {
                              "type" : "double",
                              "defaultValue" : 5.49778714378214,
                              "interp" : "linr",
                              "uiHints" : {
                                "userInterfaceType" : 0,
                                "unitType" : 0
                              }
                            },
                            "blur" : {
                              "type" : "double",
                              "defaultValue" : 10.0,
                              "interp" : "linr",
                              "uiHints" : {
                                "userInterfaceType" : 0,
                                "unitType" : 0
                              }
                            },
                            "color-alpha" : {
                              "type" : "double",
                              "defaultValue" : 1.0,
                              "interp" : "linr",
                              "uiHints" : {
                                "userInterfaceType" : 0,
                                "unitType" : 0
                              }
                            },
                            "color-blue" : {
                              "type" : "double",
                              "defaultValue" : 0.1216,
                              "interp" : "linr",
                              "uiHints" : {
                                "userInterfaceType" : 0,
                                "unitType" : 0
                              }
                            },
                            "color-green" : {
                              "type" : "double",
                              "defaultValue" : 0.1216,
                              "interp" : "linr",
                              "uiHints" : {
                                "userInterfaceType" : 0,
                                "unitType" : 0
                              }
                            },
                            "color-red" : {
                              "type" : "double",
                              "defaultValue" : 0.1216,
                              "interp" : "linr",
                              "uiHints" : {
                                "userInterfaceType" : 0,
                                "unitType" : 0
                              }
                            },
                            "enabled" : 1,
                            "offset" : {
                              "type" : "double",
                              "defaultValue" : 10.0,
                              "interp" : "linr",
                              "uiHints" : {
                                "userInterfaceType" : 0,
                                "unitType" : 0
                              }
                            },
                            "opacity" : {
                              "type" : "double",
                              "defaultValue" : 0.4,
                              "interp" : "linr",
                              "uiHints" : {
                                "userInterfaceType" : 0,
                                "unitType" : 0
                              }
                            }
                          }
                        }
                    ],
                    "start" : 9286,
                    "duration" : 90,
                    "mediaStart" : 18,
                    "mediaDuration" : 90,
                    "scalar" : 1,
                    "metadata" : {
                      "WinSubProjectDisplayName" : "",
                      "clipSpeedAttribute" : false,
                      "default-legacy-drawtime-duration" : 1.0,
                      "default-scale0" : 1.0,
                      "default-scale1" : 1.0,
                      "default-stroke-width" : 5.0,
                      "default-translation0" : 0.0,
                      "default-translation1" : 0.0
                    },
                    "animationTracks" : {

                    }
                  },
                  {
                    "id" : 205,
                    "_type" : "Callout",
                    "def" : {
                      "kind" : "TypeWinSVG",
                      "shape" : "",
                      "style" : "",
                      "DrawTime" : 1.0,
                      "borderColorBlue" : 0.172549019607843,
                      "borderColorGreen" : 0.615686274509804,
                      "borderColorRed" : 0.105882352941176,
                      "borderWidth" : 12.875,
                      "flipOnXAxis" : 0.0,
                      "flipOnYAxis" : 0.0,
                      "height" : 270.0,
                      "width" : 480.0,
                      "filename" : "C:\\Program Files (x86)\\TechSmith\\Camtasia Studio 9\\Media\\Studio\\Callouts\\anim_checkmark.svg",
                      "horizontal-alignment" : "center",
                      "name" : "Sketch Motion Checkmark",
                      "vertical-alignment" : "center",
                      "xmlContent" : "﻿<?xml version=\"1.0\" encoding=\"utf-8\"?>\n<!-- Generator: Adobe Illustrator 13.0.2, SVG Export Plug-In . SVG Version: 6.00 Build 14948)  -->\n<!DOCTYPE svg PUBLIC \"-//W3C//DTD SVG 1.1//EN\" \"http://www.w3.org/Graphics/SVG/1.1/DTD/svg11.dtd\">\n<svg version=\"1.1\" id=\"Layer_1\" xmlns=\"http://www.w3.org/2000/svg\" xmlns:xlink=\"http://www.w3.org/1999/xlink\" x=\"0px\" y=\"0px\"\n\t width=\"128px\" height=\"109px\" viewBox=\"0 0 128 109\" enable-background=\"new 0 0 128 109\" xml:space=\"preserve\">\n<path fill=\"none\" d=\"M22.304,53.27c0,0,18.242,16.407,28.666,45.94c26.712-78.755,54.727-89.42,54.727-89.42\"/>\n</svg>\n",
                      "textAttributes" : {
                        "type" : "textAttributeList",
                        "keyframes" : [
                          {
                            "time" : 0,
                            "value" : null,
                            "duration" : 0
                          }
                        ]
                      }
                    },
                    "attributes" : {
                      "autoRotateText" : true
                    },
                    "parameters" : {
                      "translation0" : 308.960713881128,
                      "translation1" : -276.430690362179,
                      "scale0" : 0.250886524823784,
                      "scale1" : 0.3853427895978
                    },
                    "leftEdgeMods" : [
                      {
                        "group" : "DrawPercentageFade",
                        "duration" : 18,
                        "parameters" : [
                          {
                            "name" : "DrawTime",
                              "func" : "FadeInFunc"
                            }
                        ]
                      }
                    ],
                    "effects" : [
                        {
                          "effectName" : "DropShadow",
                          "category" : "categoryVisualEffects",
                          "parameters" : {
                            "angle" : 5.49778714378214,
                            "blur" : 10.0,
                            "color-alpha" : 1.0,
                            "color-blue" : 0.1216,
                            "color-green" : 0.1216,
                            "color-red" : 0.1216,
                            "enabled" : 1,
                            "offset" : 10.0,
                            "opacity" : 0.4
                          }
                        }
                    ],
                    "start" : 9593,
                    "duration" : 97,
                    "mediaStart" : 11,
                    "mediaDuration" : 97,
                    "scalar" : 1,
                    "metadata" : {
                      "WinSubProjectDisplayName" : "",
                      "clipSpeedAttribute" : false,
                      "default-legacy-drawtime-duration" : 1.0,
                      "default-rotation2" : 0.0,
                      "default-scale0" : 1.0,
                      "default-scale1" : 1.0,
                      "default-stroke-color-blue" : 0.0,
                      "default-stroke-color-green" : 0.0,
                      "default-stroke-color-red" : 1.0,
                      "default-stroke-width" : 5.0,
                      "default-translation0" : 0.0,
                      "default-translation1" : 0.0
                    },
                    "animationTracks" : {

                    }
                  },
                  {
                    "id" : 206,
                    "_type" : "Callout",
                    "def" : {
                      "kind" : "TypeWinSVG",
                      "shape" : "",
                      "style" : "",
                      "DrawTime" : 1.0,
                      "borderColorBlue" : 0.172549019607843,
                      "borderColorGreen" : 0.615686274509804,
                      "borderColorRed" : 0.105882352941176,
                      "borderWidth" : 12.875,
                      "flipOnXAxis" : 0.0,
                      "flipOnYAxis" : 0.0,
                      "height" : 270.0,
                      "width" : 480.0,
                      "filename" : "C:\\Program Files (x86)\\TechSmith\\Camtasia Studio 9\\Media\\Studio\\Callouts\\anim_checkmark.svg",
                      "horizontal-alignment" : "center",
                      "name" : "Sketch Motion Checkmark",
                      "vertical-alignment" : "center",
                      "xmlContent" : "﻿<?xml version=\"1.0\" encoding=\"utf-8\"?>\n<!-- Generator: Adobe Illustrator 13.0.2, SVG Export Plug-In . SVG Version: 6.00 Build 14948)  -->\n<!DOCTYPE svg PUBLIC \"-//W3C//DTD SVG 1.1//EN\" \"http://www.w3.org/Graphics/SVG/1.1/DTD/svg11.dtd\">\n<svg version=\"1.1\" id=\"Layer_1\" xmlns=\"http://www.w3.org/2000/svg\" xmlns:xlink=\"http://www.w3.org/1999/xlink\" x=\"0px\" y=\"0px\"\n\t width=\"128px\" height=\"109px\" viewBox=\"0 0 128 109\" enable-background=\"new 0 0 128 109\" xml:space=\"preserve\">\n<path fill=\"none\" d=\"M22.304,53.27c0,0,18.242,16.407,28.666,45.94c26.712-78.755,54.727-89.42,54.727-89.42\"/>\n</svg>\n",
                      "textAttributes" : {
                        "type" : "textAttributeList",
                        "keyframes" : [
                          {
                            "time" : 0,
                            "value" : null,
                            "duration" : 0
                          }
                        ]
                      }
                    },
                    "attributes" : {
                      "autoRotateText" : true
                    },
                    "parameters" : {
                      "translation0" : 311.121718707551,
                      "translation1" : -168.161828726605,
                      "scale0" : 0.250886524823784,
                      "scale1" : 0.3853427895978
                    },
                    "leftEdgeMods" : [
                      {
                        "group" : "DrawPercentageFade",
                        "duration" : 18,
                        "parameters" : [
                          {
                            "name" : "DrawTime",
                              "func" : "FadeInFunc"
                            }
                        ]
                      }
                    ],
                    "effects" : [
                        {
                          "effectName" : "DropShadow",
                          "category" : "categoryVisualEffects",
                          "parameters" : {
                            "angle" : 5.49778714378214,
                            "blur" : 10.0,
                            "color-alpha" : 1.0,
                            "color-blue" : 0.1216,
                            "color-green" : 0.1216,
                            "color-red" : 0.1216,
                            "enabled" : 1,
                            "offset" : 10.0,
                            "opacity" : 0.4
                          }
                        }
                    ],
                    "start" : 9987,
                    "duration" : 92,
                    "mediaStart" : 16,
                    "mediaDuration" : 92,
                    "scalar" : 1,
                    "metadata" : {
                      "WinSubProjectDisplayName" : "",
                      "clipSpeedAttribute" : false,
                      "default-legacy-drawtime-duration" : 1.0,
                      "default-rotation2" : 0.0,
                      "default-scale0" : 1.0,
                      "default-scale1" : 1.0,
                      "default-stroke-color-blue" : 0.0,
                      "default-stroke-color-green" : 0.0,
                      "default-stroke-color-red" : 1.0,
                      "default-stroke-width" : 5.0,
                      "default-translation0" : 0.0,
                      "default-translation1" : 0.0
                    },
                    "animationTracks" : {

                    }
                  },
                  {
                    "id" : 207,
                    "_type" : "Callout",
                    "def" : {
                      "kind" : "TypeWinSVG",
                      "shape" : "",
                      "style" : "",
                      "DrawTime" : 1.0,
                      "borderColorBlue" : 0.172549019607843,
                      "borderColorGreen" : 0.615686274509804,
                      "borderColorRed" : 0.105882352941176,
                      "borderWidth" : 12.875,
                      "flipOnXAxis" : 0.0,
                      "flipOnYAxis" : 0.0,
                      "height" : 270.0,
                      "width" : 480.0,
                      "filename" : "C:\\Program Files (x86)\\TechSmith\\Camtasia Studio 9\\Media\\Studio\\Callouts\\anim_checkmark.svg",
                      "horizontal-alignment" : "center",
                      "name" : "Sketch Motion Checkmark",
                      "vertical-alignment" : "center",
                      "xmlContent" : "﻿<?xml version=\"1.0\" encoding=\"utf-8\"?>\n<!-- Generator: Adobe Illustrator 13.0.2, SVG Export Plug-In . SVG Version: 6.00 Build 14948)  -->\n<!DOCTYPE svg PUBLIC \"-//W3C//DTD SVG 1.1//EN\" \"http://www.w3.org/Graphics/SVG/1.1/DTD/svg11.dtd\">\n<svg version=\"1.1\" id=\"Layer_1\" xmlns=\"http://www.w3.org/2000/svg\" xmlns:xlink=\"http://www.w3.org/1999/xlink\" x=\"0px\" y=\"0px\"\n\t width=\"128px\" height=\"109px\" viewBox=\"0 0 128 109\" enable-background=\"new 0 0 128 109\" xml:space=\"preserve\">\n<path fill=\"none\" d=\"M22.304,53.27c0,0,18.242,16.407,28.666,45.94c26.712-78.755,54.727-89.42,54.727-89.42\"/>\n</svg>\n",
                      "textAttributes" : {
                        "type" : "textAttributeList",
                        "keyframes" : [
                          {
                            "time" : 0,
                            "value" : null,
                            "duration" : 0
                          }
                        ]
                      }
                    },
                    "attributes" : {
                      "autoRotateText" : true
                    },
                    "parameters" : {
                      "translation0" : 302.486322189045,
                      "translation1" : -276.430690362341,
                      "scale0" : 0.250886524823784,
                      "scale1" : 0.3853427895978
                    },
                    "leftEdgeMods" : [
                      {
                        "group" : "DrawPercentageFade",
                        "duration" : 18,
                        "parameters" : [
                          {
                            "name" : "DrawTime",
                              "func" : "FadeInFunc"
                            }
                        ]
                      }
                    ],
                    "effects" : [
                        {
                          "effectName" : "DropShadow",
                          "category" : "categoryVisualEffects",
                          "parameters" : {
                            "angle" : 5.49778714378214,
                            "blur" : 10.0,
                            "color-alpha" : 1.0,
                            "color-blue" : 0.1216,
                            "color-green" : 0.1216,
                            "color-red" : 0.1216,
                            "enabled" : 1,
                            "offset" : 10.0,
                            "opacity" : 0.4
                          }
                        }
                    ],
                    "start" : 10323,
                    "duration" : 92,
                    "mediaStart" : 16,
                    "mediaDuration" : 92,
                    "scalar" : 1,
                    "metadata" : {
                      "WinSubProjectDisplayName" : "",
                      "clipSpeedAttribute" : false,
                      "default-legacy-drawtime-duration" : 1.0,
                      "default-rotation2" : 0.0,
                      "default-scale0" : 1.0,
                      "default-scale1" : 1.0,
                      "default-stroke-color-blue" : 0.0,
                      "default-stroke-color-green" : 0.0,
                      "default-stroke-color-red" : 1.0,
                      "default-stroke-width" : 5.0,
                      "default-translation0" : 0.0,
                      "default-translation1" : 0.0
                    },
                    "animationTracks" : {

                    }
                  },
                  {
                    "id" : 208,
                    "_type" : "Callout",
                    "def" : {
                      "kind" : "TypeWinSVG",
                      "shape" : "",
                      "style" : "",
                      "DrawTime" : 1.0,
                      "borderColorBlue" : 0.172549019607843,
                      "borderColorGreen" : 0.615686274509804,
                      "borderColorRed" : 0.105882352941176,
                      "borderWidth" : 12.875,
                      "flipOnXAxis" : 0.0,
                      "flipOnYAxis" : 0.0,
                      "height" : 270.0,
                      "width" : 480.0,
                      "filename" : "C:\\Program Files (x86)\\TechSmith\\Camtasia Studio 9\\Media\\Studio\\Callouts\\anim_checkmark.svg",
                      "horizontal-alignment" : "center",
                      "name" : "Sketch Motion Checkmark",
                      "vertical-alignment" : "center",
                      "xmlContent" : "﻿<?xml version=\"1.0\" encoding=\"utf-8\"?>\n<!-- Generator: Adobe Illustrator 13.0.2, SVG Export Plug-In . SVG Version: 6.00 Build 14948)  -->\n<!DOCTYPE svg PUBLIC \"-//W3C//DTD SVG 1.1//EN\" \"http://www.w3.org/Graphics/SVG/1.1/DTD/svg11.dtd\">\n<svg version=\"1.1\" id=\"Layer_1\" xmlns=\"http://www.w3.org/2000/svg\" xmlns:xlink=\"http://www.w3.org/1999/xlink\" x=\"0px\" y=\"0px\"\n\t width=\"128px\" height=\"109px\" viewBox=\"0 0 128 109\" enable-background=\"new 0 0 128 109\" xml:space=\"preserve\">\n<path fill=\"none\" d=\"M22.304,53.27c0,0,18.242,16.407,28.666,45.94c26.712-78.755,54.727-89.42,54.727-89.42\"/>\n</svg>\n",
                      "textAttributes" : {
                        "type" : "textAttributeList",
                        "keyframes" : [
                          {
                            "time" : 0,
                            "value" : null,
                            "duration" : 0
                          }
                        ]
                      }
                    },
                    "attributes" : {
                      "autoRotateText" : true
                    },
                    "parameters" : {
                      "translation0" : 305.029013541262,
                      "translation1" : -152.699640785043,
                      "scale0" : 0.250886524823784,
                      "scale1" : 0.3853427895978
                    },
                    "leftEdgeMods" : [
                      {
                        "group" : "DrawPercentageFade",
                        "duration" : 18,
                        "parameters" : [
                          {
                            "name" : "DrawTime",
                              "func" : "FadeInFunc"
                            }
                        ]
                      }
                    ],
                    "effects" : [
                        {
                          "effectName" : "DropShadow",
                          "category" : "categoryVisualEffects",
                          "parameters" : {
                            "angle" : 5.49778714378214,
                            "blur" : 10.0,
                            "color-alpha" : 1.0,
                            "color-blue" : 0.1216,
                            "color-green" : 0.1216,
                            "color-red" : 0.1216,
                            "enabled" : 1,
                            "offset" : 10.0,
                            "opacity" : 0.4
                          }
                        }
                    ],
                    "start" : 10673,
                    "duration" : 92,
                    "mediaStart" : 16,
                    "mediaDuration" : 92,
                    "scalar" : 1,
                    "metadata" : {
                      "WinSubProjectDisplayName" : "",
                      "clipSpeedAttribute" : false,
                      "default-legacy-drawtime-duration" : 1.0,
                      "default-rotation2" : 0.0,
                      "default-scale0" : 1.0,
                      "default-scale1" : 1.0,
                      "default-stroke-color-blue" : 0.0,
                      "default-stroke-color-green" : 0.0,
                      "default-stroke-color-red" : 1.0,
                      "default-stroke-width" : 5.0,
                      "default-translation0" : 0.0,
                      "default-translation1" : 0.0
                    },
                    "animationTracks" : {

                    }
                  },
                  {
                    "id" : 209,
                    "_type" : "Callout",
                    "def" : {
                      "kind" : "TypeWinSVG",
                      "shape" : "",
                      "style" : "",
                      "DrawTime" : 1.0,
                      "borderColorBlue" : 0.172549019607843,
                      "borderColorGreen" : 0.615686274509804,
                      "borderColorRed" : 0.105882352941176,
                      "borderWidth" : 12.875,
                      "flipOnXAxis" : 0.0,
                      "flipOnYAxis" : 0.0,
                      "height" : 270.0,
                      "width" : 480.0,
                      "filename" : "C:\\Program Files (x86)\\TechSmith\\Camtasia Studio 9\\Media\\Studio\\Callouts\\anim_checkmark.svg",
                      "horizontal-alignment" : "center",
                      "name" : "Sketch Motion Checkmark",
                      "vertical-alignment" : "center",
                      "xmlContent" : "﻿<?xml version=\"1.0\" encoding=\"utf-8\"?>\n<!-- Generator: Adobe Illustrator 13.0.2, SVG Export Plug-In . SVG Version: 6.00 Build 14948)  -->\n<!DOCTYPE svg PUBLIC \"-//W3C//DTD SVG 1.1//EN\" \"http://www.w3.org/Graphics/SVG/1.1/DTD/svg11.dtd\">\n<svg version=\"1.1\" id=\"Layer_1\" xmlns=\"http://www.w3.org/2000/svg\" xmlns:xlink=\"http://www.w3.org/1999/xlink\" x=\"0px\" y=\"0px\"\n\t width=\"128px\" height=\"109px\" viewBox=\"0 0 128 109\" enable-background=\"new 0 0 128 109\" xml:space=\"preserve\">\n<path fill=\"none\" d=\"M22.304,53.27c0,0,18.242,16.407,28.666,45.94c26.712-78.755,54.727-89.42,54.727-89.42\"/>\n</svg>\n",
                      "textAttributes" : {
                        "type" : "textAttributeList",
                        "keyframes" : [
                          {
                            "time" : 0,
                            "value" : null,
                            "duration" : 0
                          }
                        ]
                      }
                    },
                    "attributes" : {
                      "autoRotateText" : true
                    },
                    "parameters" : {
                      "translation0" : 311.870682508909,
                      "translation1" : -98.1541862396349,
                      "scale0" : 0.250886524823784,
                      "scale1" : 0.3853427895978
                    },
                    "leftEdgeMods" : [
                      {
                        "group" : "DrawPercentageFade",
                        "duration" : 18,
                        "parameters" : [
                          {
                            "name" : "DrawTime",
                              "func" : "FadeInFunc"
                            }
                        ]
                      }
                    ],
                    "effects" : [
                        {
                          "effectName" : "DropShadow",
                          "category" : "categoryVisualEffects",
                          "parameters" : {
                            "angle" : 5.49778714378214,
                            "blur" : 10.0,
                            "color-alpha" : 1.0,
                            "color-blue" : 0.1216,
                            "color-green" : 0.1216,
                            "color-red" : 0.1216,
                            "enabled" : 1,
                            "offset" : 10.0,
                            "opacity" : 0.4
                          }
                        }
                    ],
                    "start" : 11022,
                    "duration" : 92,
                    "mediaStart" : 16,
                    "mediaDuration" : 92,
                    "scalar" : 1,
                    "metadata" : {
                      "WinSubProjectDisplayName" : "",
                      "clipSpeedAttribute" : false,
                      "default-legacy-drawtime-duration" : 1.0,
                      "default-rotation2" : 0.0,
                      "default-scale0" : 1.0,
                      "default-scale1" : 1.0,
                      "default-stroke-color-blue" : 0.0,
                      "default-stroke-color-green" : 0.0,
                      "default-stroke-color-red" : 1.0,
                      "default-stroke-width" : 5.0,
                      "default-translation0" : 0.0,
                      "default-translation1" : 0.0
                    },
                    "animationTracks" : {

                    }
                  },
                  {
                    "id" : 210,
                    "_type" : "Callout",
                    "def" : {
                      "kind" : "TypeWinSVG",
                      "shape" : "",
                      "style" : "",
                      "DrawTime" : 1.0,
                      "borderColorBlue" : 0.0,
                      "borderColorGreen" : 0.0,
                      "borderColorRed" : 1.0,
                      "borderWidth" : 12.0,
                      "flipOnXAxis" : 0.0,
                      "flipOnYAxis" : 0.0,
                      "height" : 270.0,
                      "width" : 480.0,
                      "filename" : "C:\\Program Files (x86)\\TechSmith\\Camtasia Studio 9\\Media\\Studio\\Callouts\\anim_x.svg",
                      "horizontal-alignment" : "center",
                      "name" : "Sketch Motion X",
                      "vertical-alignment" : "center",
                      "xmlContent" : "﻿<?xml version=\"1.0\" encoding=\"utf-8\"?>\n<!DOCTYPE svg PUBLIC \"-//W3C//DTD SVG 1.1//EN\" \"http://www.w3.org/Graphics/SVG/1.1/DTD/svg11.dtd\">\n<svg version=\"1.1\" id=\"Layer_1\" xmlns=\"http://www.w3.org/2000/svg\" xmlns:xlink=\"http://www.w3.org/1999/xlink\" x=\"0px\" y=\"0px\"\n\t width=\"128px\" height=\"109px\" viewBox=\"0 0 128 109\" enable-background=\"new 0 0 128 109\" xml:space=\"preserve\">\n<path fill=\"none\" d=\"M0,0 L100,100 M100,0 L0,100\"/>\n</svg>\n",
                      "textAttributes" : {
                        "type" : "textAttributeList",
                        "keyframes" : [
                          {
                            "time" : 0,
                            "value" : null,
                            "duration" : 0
                          }
                        ]
                      }
                    },
                    "attributes" : {
                      "autoRotateText" : true
                    },
                    "parameters" : {
                      "translation0" : 275.876623376214,
                      "translation1" : -110.746753246759,
                      "scale0" : 0.256628787877695,
                      "scale1" : 0.410774410774266
                    },
                    "leftEdgeMods" : [
                      {
                        "group" : "DrawPercentageFade",
                        "duration" : 12,
                        "parameters" : [
                          {
                            "name" : "DrawTime",
                              "func" : "FadeInFunc"
                            }
                        ]
                      }
                    ],
                    "effects" : [
                        {
                          "effectName" : "DropShadow",
                          "category" : "categoryVisualEffects",
                          "parameters" : {
                            "angle" : 5.49778714378214,
                            "blur" : 10.0,
                            "color-alpha" : 1.0,
                            "color-blue" : 0.1216,
                            "color-green" : 0.1216,
                            "color-red" : 0.1216,
                            "enabled" : 1,
                            "offset" : 10.0,
                            "opacity" : 0.4
                          }
                        }
                    ],
                    "start" : 11341,
                    "duration" : 92,
                    "mediaStart" : 58,
                    "mediaDuration" : 92,
                    "scalar" : 1,
                    "metadata" : {
                      "WinSubProjectDisplayName" : "",
                      "clipSpeedAttribute" : false,
                      "default-legacy-drawtime-duration" : 1.0,
                      "default-scale0" : 1.0,
                      "default-scale1" : 1.0,
                      "default-stroke-width" : 5.0,
                      "default-translation0" : 0.0,
                      "default-translation1" : 0.0
                    },
                    "animationTracks" : {

                    }
                  }
                ]
              },
              {
                "trackIndex" : 14,
                "medias" : [
                  {
                    "id" : 211,
                    "_type" : "Callout",
                    "def" : {
                      "kind" : "remix",
                      "shape" : "text",
                      "style" : "basic",
                      "height" : 251.138248847708,
                      "width" : 180.857142857186,
                      "word-wrap" : 1.0,
                      "horizontal-alignment" : "center",
                      "text" : "0",
                      "vertical-alignment" : "center",
                      "font" : {
                        "color-blue" : 1.0,
                        "color-green" : 1.0,
                        "color-red" : 1.0,
                        "size" : 96.0,
                        "tracking" : 0.0,
                        "name" : "Montserrat",
                        "weight" : "Regular"
                      },
                      "textAttributes" : {
                        "type" : "textAttributeList",
                        "keyframes" : [
                          {
                            "time" : 0,
                            "value" : [{"name":"underline","rangeEnd":1,"rangeStart":0,"value":0,"valueType":"int"},{"name":"fontItalic","rangeEnd":1,"rangeStart":0,"value":0,"valueType":"int"},{"name":"strikethrough","rangeEnd":1,"rangeStart":0,"value":0,"valueType":"int"},{"name":"fgColor","rangeEnd":1,"rangeStart":0,"value":"(255,45,50,255)","valueType":"color"},{"name":"fontSize","rangeEnd":1,"rangeStart":0,"value":56,"valueType":"double"},{"name":"fontName","rangeEnd":1,"rangeStart":0,"value":"UVN Chim Bien","valueType":"string"},{"name":"fontWeight","rangeEnd":1,"rangeStart":0,"value":400,"valueType":"int"}],
                            "duration" : 0
                          }
                        ]
                      }
                    },
                    "attributes" : {
                      "autoRotateText" : true
                    },
                    "parameters" : {
                      "translation0" : -279.086626139535,
                      "translation1" : -468.273556231082
                    },
                    "effects" : [

                    ],
                    "start" : 964,
                    "duration" : 245,
                    "mediaStart" : -24,
                    "mediaDuration" : 245,
                    "scalar" : 1,
                    "metadata" : {
                      "WinSubProjectDisplayName" : "",
                      "clipSpeedAttribute" : false,
                      "default-HAlign" : "center",
                      "default-VAlign" : "center",
                      "default-text-attributes" : "[{\"name\":\"strikethrough\",\"rangeEnd\":1,\"rangeStart\":0,\"value\":0,\"valueType\":\"int\"},{\"name\":\"underline\",\"rangeEnd\":1,\"rangeStart\":0,\"value\":0,\"valueType\":\"int\"},{\"name\":\"fgColor\",\"rangeEnd\":1,\"rangeStart\":0,\"value\":\"(255,45,50,255)\",\"valueType\":\"color\"},{\"name\":\"fontWeight\",\"rangeEnd\":1,\"rangeStart\":0,\"value\":400,\"valueType\":\"int\"},{\"name\":\"fontName\",\"rangeEnd\":1,\"rangeStart\":0,\"value\":\"UVN Bach Tuyet Nang\",\"valueType\":\"string\"},{\"name\":\"fontSize\",\"rangeEnd\":1,\"rangeStart\":0,\"value\":55,\"valueType\":\"double\"},{\"name\":\"fontItalic\",\"rangeEnd\":1,\"rangeStart\":0,\"value\":0,\"valueType\":\"int\"}]",
                      "default-translation0" : 0.0,
                      "default-translation1" : 0.0
                    },
                    "animationTracks" : {

                    }
                  },
                  {
                    "id" : 212,
                    "_type" : "Callout",
                    "def" : {
                      "kind" : "remix",
                      "shape" : "text",
                      "style" : "basic",
                      "height" : 251.138248847708,
                      "width" : 180.857142857186,
                      "word-wrap" : 1.0,
                      "horizontal-alignment" : "center",
                      "text" : "0",
                      "vertical-alignment" : "center",
                      "font" : {
                        "color-blue" : 1.0,
                        "color-green" : 1.0,
                        "color-red" : 1.0,
                        "size" : 96.0,
                        "tracking" : 0.0,
                        "name" : "Montserrat",
                        "weight" : "Regular"
                      },
                      "textAttributes" : {
                        "type" : "textAttributeList",
                        "keyframes" : [
                          {
                            "time" : 0,
                            "value" : [{"name":"fontWeight","rangeEnd":1,"rangeStart":0,"value":400,"valueType":"int"},{"name":"fontItalic","rangeEnd":1,"rangeStart":0,"value":0,"valueType":"int"},{"name":"fontName","rangeEnd":1,"rangeStart":0,"value":"UVN Chim Bien","valueType":"string"},{"name":"strikethrough","rangeEnd":1,"rangeStart":0,"value":0,"valueType":"int"},{"name":"fgColor","rangeEnd":1,"rangeStart":0,"value":"(255,45,50,255)","valueType":"color"},{"name":"underline","rangeEnd":1,"rangeStart":0,"value":0,"valueType":"int"},{"name":"fontSize","rangeEnd":1,"rangeStart":0,"value":56,"valueType":"double"}],
                            "duration" : 0
                          }
                        ]
                      }
                    },
                    "attributes" : {
                      "autoRotateText" : true
                    },
                    "parameters" : {
                      "translation0" : -278.337662337998,
                      "translation1" : -471.86018026161
                    },
                    "effects" : [

                    ],
                    "start" : 1209,
                    "duration" : 319,
                    "mediaStart" : 0,
                    "mediaDuration" : 319,
                    "scalar" : 1,
                    "metadata" : {
                      "WinSubProjectDisplayName" : "",
                      "clipSpeedAttribute" : false,
                      "default-HAlign" : "center",
                      "default-VAlign" : "center",
                      "default-text-attributes" : "[{\"name\":\"strikethrough\",\"rangeEnd\":1,\"rangeStart\":0,\"value\":0,\"valueType\":\"int\"},{\"name\":\"underline\",\"rangeEnd\":1,\"rangeStart\":0,\"value\":0,\"valueType\":\"int\"},{\"name\":\"fgColor\",\"rangeEnd\":1,\"rangeStart\":0,\"value\":\"(255,45,50,255)\",\"valueType\":\"color\"},{\"name\":\"fontWeight\",\"rangeEnd\":1,\"rangeStart\":0,\"value\":400,\"valueType\":\"int\"},{\"name\":\"fontName\",\"rangeEnd\":1,\"rangeStart\":0,\"value\":\"UVN Bach Tuyet Nang\",\"valueType\":\"string\"},{\"name\":\"fontSize\",\"rangeEnd\":1,\"rangeStart\":0,\"value\":55,\"valueType\":\"double\"},{\"name\":\"fontItalic\",\"rangeEnd\":1,\"rangeStart\":0,\"value\":0,\"valueType\":\"int\"}]",
                      "default-translation0" : 0.0,
                      "default-translation1" : 0.0
                    },
                    "animationTracks" : {

                    }
                  },
                  {
                    "id" : 213,
                    "_type" : "Callout",
                    "def" : {
                      "kind" : "remix",
                      "shape" : "text",
                      "style" : "basic",
                      "height" : 251.138248847708,
                      "width" : 180.857142857186,
                      "word-wrap" : 1.0,
                      "horizontal-alignment" : "center",
                      "text" : "0",
                      "vertical-alignment" : "center",
                      "font" : {
                        "color-blue" : 1.0,
                        "color-green" : 1.0,
                        "color-red" : 1.0,
                        "size" : 96.0,
                        "tracking" : 0.0,
                        "name" : "Montserrat",
                        "weight" : "Regular"
                      },
                      "textAttributes" : {
                        "type" : "textAttributeList",
                        "keyframes" : [
                          {
                            "time" : 0,
                            "value" : [{"name":"fontSize","rangeEnd":1,"rangeStart":0,"value":56,"valueType":"double"},{"name":"fontWeight","rangeEnd":1,"rangeStart":0,"value":400,"valueType":"int"},{"name":"fontItalic","rangeEnd":1,"rangeStart":0,"value":0,"valueType":"int"},{"name":"strikethrough","rangeEnd":1,"rangeStart":0,"value":0,"valueType":"int"},{"name":"underline","rangeEnd":1,"rangeStart":0,"value":0,"valueType":"int"},{"name":"fontName","rangeEnd":1,"rangeStart":0,"value":"UVN Chim Bien","valueType":"string"},{"name":"fgColor","rangeEnd":1,"rangeStart":0,"value":"(255,45,50,255)","valueType":"color"}],
                            "duration" : 0
                          }
                        ]
                      }
                    },
                    "attributes" : {
                      "autoRotateText" : true
                    },
                    "parameters" : {
                      "translation0" : -279.086626139535,
                      "translation1" : -468.273556231082
                    },
                    "effects" : [

                    ],
                    "start" : 1528,
                    "duration" : 303,
                    "mediaStart" : 79,
                    "mediaDuration" : 303,
                    "scalar" : 1,
                    "metadata" : {
                      "WinSubProjectDisplayName" : "",
                      "clipSpeedAttribute" : false,
                      "default-HAlign" : "center",
                      "default-VAlign" : "center",
                      "default-text-attributes" : "[{\"name\":\"strikethrough\",\"rangeEnd\":1,\"rangeStart\":0,\"value\":0,\"valueType\":\"int\"},{\"name\":\"underline\",\"rangeEnd\":1,\"rangeStart\":0,\"value\":0,\"valueType\":\"int\"},{\"name\":\"fgColor\",\"rangeEnd\":1,\"rangeStart\":0,\"value\":\"(255,45,50,255)\",\"valueType\":\"color\"},{\"name\":\"fontWeight\",\"rangeEnd\":1,\"rangeStart\":0,\"value\":400,\"valueType\":\"int\"},{\"name\":\"fontName\",\"rangeEnd\":1,\"rangeStart\":0,\"value\":\"UVN Bach Tuyet Nang\",\"valueType\":\"string\"},{\"name\":\"fontSize\",\"rangeEnd\":1,\"rangeStart\":0,\"value\":55,\"valueType\":\"double\"},{\"name\":\"fontItalic\",\"rangeEnd\":1,\"rangeStart\":0,\"value\":0,\"valueType\":\"int\"}]",
                      "default-translation0" : 0.0,
                      "default-translation1" : 0.0
                    },
                    "animationTracks" : {

                    }
                  },
                  {
                    "id" : 214,
                    "_type" : "Callout",
                    "def" : {
                      "kind" : "remix",
                      "shape" : "text",
                      "style" : "basic",
                      "height" : 251.138248847708,
                      "width" : 180.857142857186,
                      "word-wrap" : 1.0,
                      "horizontal-alignment" : "center",
                      "text" : "1",
                      "vertical-alignment" : "center",
                      "font" : {
                        "color-blue" : 1.0,
                        "color-green" : 1.0,
                        "color-red" : 1.0,
                        "size" : 96.0,
                        "tracking" : 0.0,
                        "name" : "Montserrat",
                        "weight" : "Regular"
                      },
                      "textAttributes" : {
                        "type" : "textAttributeList",
                        "keyframes" : [
                          {
                            "time" : 0,
                            "value" : [{"name":"fgColor","rangeEnd":1,"rangeStart":0,"value":"(255,45,50,255)","valueType":"color"},{"name":"fontName","rangeEnd":1,"rangeStart":0,"value":"UVN Chim Bien","valueType":"string"},{"name":"strikethrough","rangeEnd":1,"rangeStart":0,"value":0,"valueType":"int"},{"name":"fontWeight","rangeEnd":1,"rangeStart":0,"value":400,"valueType":"int"},{"name":"underline","rangeEnd":1,"rangeStart":0,"value":0,"valueType":"int"},{"name":"fontItalic","rangeEnd":1,"rangeStart":0,"value":0,"valueType":"int"},{"name":"fontSize","rangeEnd":1,"rangeStart":0,"value":56,"valueType":"double"}],
                            "duration" : 0
                          }
                        ]
                      }
                    },
                    "attributes" : {
                      "autoRotateText" : true
                    },
                    "parameters" : {
                      "translation0" : -279.086626139535,
                      "translation1" : -468.273556231082
                    },
                    "effects" : [

                    ],
                    "start" : 1831,
                    "duration" : 357,
                    "mediaStart" : 36,
                    "mediaDuration" : 357,
                    "scalar" : 1,
                    "metadata" : {
                      "WinSubProjectDisplayName" : "",
                      "clipSpeedAttribute" : false,
                      "default-HAlign" : "center",
                      "default-VAlign" : "center",
                      "default-text-attributes" : "[{\"name\":\"strikethrough\",\"rangeEnd\":1,\"rangeStart\":0,\"value\":0,\"valueType\":\"int\"},{\"name\":\"underline\",\"rangeEnd\":1,\"rangeStart\":0,\"value\":0,\"valueType\":\"int\"},{\"name\":\"fgColor\",\"rangeEnd\":1,\"rangeStart\":0,\"value\":\"(255,45,50,255)\",\"valueType\":\"color\"},{\"name\":\"fontWeight\",\"rangeEnd\":1,\"rangeStart\":0,\"value\":400,\"valueType\":\"int\"},{\"name\":\"fontName\",\"rangeEnd\":1,\"rangeStart\":0,\"value\":\"UVN Bach Tuyet Nang\",\"valueType\":\"string\"},{\"name\":\"fontSize\",\"rangeEnd\":1,\"rangeStart\":0,\"value\":55,\"valueType\":\"double\"},{\"name\":\"fontItalic\",\"rangeEnd\":1,\"rangeStart\":0,\"value\":0,\"valueType\":\"int\"}]",
                      "default-translation0" : 0.0,
                      "default-translation1" : 0.0
                    },
                    "animationTracks" : {

                    }
                  },
                  {
                    "id" : 215,
                    "_type" : "Callout",
                    "def" : {
                      "kind" : "remix",
                      "shape" : "text",
                      "style" : "basic",
                      "height" : 251.138248847708,
                      "width" : 180.857142857186,
                      "word-wrap" : 1.0,
                      "horizontal-alignment" : "center",
                      "text" : "2",
                      "vertical-alignment" : "center",
                      "font" : {
                        "color-blue" : 1.0,
                        "color-green" : 1.0,
                        "color-red" : 1.0,
                        "size" : 96.0,
                        "tracking" : 0.0,
                        "name" : "Montserrat",
                        "weight" : "Regular"
                      },
                      "textAttributes" : {
                        "type" : "textAttributeList",
                        "keyframes" : [
                          {
                            "time" : 0,
                            "value" : [{"name":"fontName","rangeEnd":1,"rangeStart":0,"value":"UVN Chim Bien","valueType":"string"},{"name":"fontItalic","rangeEnd":1,"rangeStart":0,"value":0,"valueType":"int"},{"name":"underline","rangeEnd":1,"rangeStart":0,"value":0,"valueType":"int"},{"name":"fontWeight","rangeEnd":1,"rangeStart":0,"value":400,"valueType":"int"},{"name":"strikethrough","rangeEnd":1,"rangeStart":0,"value":0,"valueType":"int"},{"name":"fontSize","rangeEnd":1,"rangeStart":0,"value":56,"valueType":"double"},{"name":"fgColor","rangeEnd":1,"rangeStart":0,"value":"(255,45,50,255)","valueType":"color"}],
                            "duration" : 0
                          }
                        ]
                      }
                    },
                    "attributes" : {
                      "autoRotateText" : true
                    },
                    "parameters" : {
                      "translation0" : -279.086626139535,
                      "translation1" : -468.273556231082
                    },
                    "effects" : [

                    ],
                    "start" : 2188,
                    "duration" : 377,
                    "mediaStart" : 38,
                    "mediaDuration" : 377,
                    "scalar" : 1,
                    "metadata" : {
                      "WinSubProjectDisplayName" : "",
                      "clipSpeedAttribute" : false,
                      "default-HAlign" : "center",
                      "default-VAlign" : "center",
                      "default-text-attributes" : "[{\"name\":\"strikethrough\",\"rangeEnd\":1,\"rangeStart\":0,\"value\":0,\"valueType\":\"int\"},{\"name\":\"underline\",\"rangeEnd\":1,\"rangeStart\":0,\"value\":0,\"valueType\":\"int\"},{\"name\":\"fgColor\",\"rangeEnd\":1,\"rangeStart\":0,\"value\":\"(255,45,50,255)\",\"valueType\":\"color\"},{\"name\":\"fontWeight\",\"rangeEnd\":1,\"rangeStart\":0,\"value\":400,\"valueType\":\"int\"},{\"name\":\"fontName\",\"rangeEnd\":1,\"rangeStart\":0,\"value\":\"UVN Bach Tuyet Nang\",\"valueType\":\"string\"},{\"name\":\"fontSize\",\"rangeEnd\":1,\"rangeStart\":0,\"value\":55,\"valueType\":\"double\"},{\"name\":\"fontItalic\",\"rangeEnd\":1,\"rangeStart\":0,\"value\":0,\"valueType\":\"int\"}]",
                      "default-translation0" : 0.0,
                      "default-translation1" : 0.0
                    },
                    "animationTracks" : {

                    }
                  },
                  {
                    "id" : 216,
                    "_type" : "Callout",
                    "def" : {
                      "kind" : "remix",
                      "shape" : "text",
                      "style" : "basic",
                      "height" : 251.138248847708,
                      "width" : 180.857142857186,
                      "word-wrap" : 1.0,
                      "horizontal-alignment" : "center",
                      "text" : "2",
                      "vertical-alignment" : "center",
                      "font" : {
                        "color-blue" : 1.0,
                        "color-green" : 1.0,
                        "color-red" : 1.0,
                        "size" : 96.0,
                        "tracking" : 0.0,
                        "name" : "Montserrat",
                        "weight" : "Regular"
                      },
                      "textAttributes" : {
                        "type" : "textAttributeList",
                        "keyframes" : [
                          {
                            "time" : 0,
                            "value" : [{"name":"strikethrough","rangeEnd":1,"rangeStart":0,"value":0,"valueType":"int"},{"name":"fontSize","rangeEnd":1,"rangeStart":0,"value":56,"valueType":"double"},{"name":"fgColor","rangeEnd":1,"rangeStart":0,"value":"(255,45,50,255)","valueType":"color"},{"name":"underline","rangeEnd":1,"rangeStart":0,"value":0,"valueType":"int"},{"name":"fontName","rangeEnd":1,"rangeStart":0,"value":"UVN Chim Bien","valueType":"string"},{"name":"fontItalic","rangeEnd":1,"rangeStart":0,"value":0,"valueType":"int"},{"name":"fontWeight","rangeEnd":1,"rangeStart":0,"value":400,"valueType":"int"}],
                            "duration" : 0
                          }
                        ]
                      }
                    },
                    "attributes" : {
                      "autoRotateText" : true
                    },
                    "parameters" : {
                      "translation0" : -279.086626139535,
                      "translation1" : -468.273556231082
                    },
                    "effects" : [

                    ],
                    "start" : 2565,
                    "duration" : 347,
                    "mediaStart" : 66,
                    "mediaDuration" : 347,
                    "scalar" : 1,
                    "metadata" : {
                      "WinSubProjectDisplayName" : "",
                      "clipSpeedAttribute" : false,
                      "default-HAlign" : "center",
                      "default-VAlign" : "center",
                      "default-text-attributes" : "[{\"name\":\"strikethrough\",\"rangeEnd\":1,\"rangeStart\":0,\"value\":0,\"valueType\":\"int\"},{\"name\":\"underline\",\"rangeEnd\":1,\"rangeStart\":0,\"value\":0,\"valueType\":\"int\"},{\"name\":\"fgColor\",\"rangeEnd\":1,\"rangeStart\":0,\"value\":\"(255,45,50,255)\",\"valueType\":\"color\"},{\"name\":\"fontWeight\",\"rangeEnd\":1,\"rangeStart\":0,\"value\":400,\"valueType\":\"int\"},{\"name\":\"fontName\",\"rangeEnd\":1,\"rangeStart\":0,\"value\":\"UVN Bach Tuyet Nang\",\"valueType\":\"string\"},{\"name\":\"fontSize\",\"rangeEnd\":1,\"rangeStart\":0,\"value\":55,\"valueType\":\"double\"},{\"name\":\"fontItalic\",\"rangeEnd\":1,\"rangeStart\":0,\"value\":0,\"valueType\":\"int\"}]",
                      "default-translation0" : 0.0,
                      "default-translation1" : 0.0
                    },
                    "animationTracks" : {

                    }
                  },
                  {
                    "id" : 217,
                    "_type" : "Callout",
                    "def" : {
                      "kind" : "remix",
                      "shape" : "text",
                      "style" : "basic",
                      "height" : 251.138248847708,
                      "width" : 180.857142857186,
                      "word-wrap" : 1.0,
                      "horizontal-alignment" : "center",
                      "text" : "3",
                      "vertical-alignment" : "center",
                      "font" : {
                        "color-blue" : 1.0,
                        "color-green" : 1.0,
                        "color-red" : 1.0,
                        "size" : 96.0,
                        "tracking" : 0.0,
                        "name" : "Montserrat",
                        "weight" : "Regular"
                      },
                      "textAttributes" : {
                        "type" : "textAttributeList",
                        "keyframes" : [
                          {
                            "time" : 0,
                            "value" : [{"name":"fontName","rangeEnd":1,"rangeStart":0,"value":"UVN Chim Bien","valueType":"string"},{"name":"fontWeight","rangeEnd":1,"rangeStart":0,"value":400,"valueType":"int"},{"name":"strikethrough","rangeEnd":1,"rangeStart":0,"value":0,"valueType":"int"},{"name":"fgColor","rangeEnd":1,"rangeStart":0,"value":"(255,45,50,255)","valueType":"color"},{"name":"underline","rangeEnd":1,"rangeStart":0,"value":0,"valueType":"int"},{"name":"fontSize","rangeEnd":1,"rangeStart":0,"value":56,"valueType":"double"},{"name":"fontItalic","rangeEnd":1,"rangeStart":0,"value":0,"valueType":"int"}],
                            "duration" : 0
                          }
                        ]
                      }
                    },
                    "attributes" : {
                      "autoRotateText" : true
                    },
                    "parameters" : {
                      "translation0" : -279.086626139535,
                      "translation1" : -468.273556231082
                    },
                    "effects" : [

                    ],
                    "start" : 2912,
                    "duration" : 345,
                    "mediaStart" : 57,
                    "mediaDuration" : 345,
                    "scalar" : 1,
                    "metadata" : {
                      "WinSubProjectDisplayName" : "",
                      "clipSpeedAttribute" : false,
                      "default-HAlign" : "center",
                      "default-VAlign" : "center",
                      "default-text-attributes" : "[{\"name\":\"strikethrough\",\"rangeEnd\":1,\"rangeStart\":0,\"value\":0,\"valueType\":\"int\"},{\"name\":\"underline\",\"rangeEnd\":1,\"rangeStart\":0,\"value\":0,\"valueType\":\"int\"},{\"name\":\"fgColor\",\"rangeEnd\":1,\"rangeStart\":0,\"value\":\"(255,45,50,255)\",\"valueType\":\"color\"},{\"name\":\"fontWeight\",\"rangeEnd\":1,\"rangeStart\":0,\"value\":400,\"valueType\":\"int\"},{\"name\":\"fontName\",\"rangeEnd\":1,\"rangeStart\":0,\"value\":\"UVN Bach Tuyet Nang\",\"valueType\":\"string\"},{\"name\":\"fontSize\",\"rangeEnd\":1,\"rangeStart\":0,\"value\":55,\"valueType\":\"double\"},{\"name\":\"fontItalic\",\"rangeEnd\":1,\"rangeStart\":0,\"value\":0,\"valueType\":\"int\"}]",
                      "default-translation0" : 0.0,
                      "default-translation1" : 0.0
                    },
                    "animationTracks" : {

                    }
                  },
                  {
                    "id" : 218,
                    "_type" : "Callout",
                    "def" : {
                      "kind" : "remix",
                      "shape" : "text",
                      "style" : "basic",
                      "height" : 251.138248847708,
                      "width" : 180.857142857186,
                      "word-wrap" : 1.0,
                      "horizontal-alignment" : "center",
                      "text" : "4",
                      "vertical-alignment" : "center",
                      "font" : {
                        "color-blue" : 1.0,
                        "color-green" : 1.0,
                        "color-red" : 1.0,
                        "size" : 96.0,
                        "tracking" : 0.0,
                        "name" : "Montserrat",
                        "weight" : "Regular"
                      },
                      "textAttributes" : {
                        "type" : "textAttributeList",
                        "keyframes" : [
                          {
                            "time" : 0,
                            "value" : [{"name":"strikethrough","rangeEnd":1,"rangeStart":0,"value":0,"valueType":"int"},{"name":"underline","rangeEnd":1,"rangeStart":0,"value":0,"valueType":"int"},{"name":"fontSize","rangeEnd":1,"rangeStart":0,"value":56,"valueType":"double"},{"name":"fontName","rangeEnd":1,"rangeStart":0,"value":"UVN Chim Bien","valueType":"string"},{"name":"fontWeight","rangeEnd":1,"rangeStart":0,"value":400,"valueType":"int"},{"name":"fgColor","rangeEnd":1,"rangeStart":0,"value":"(255,45,50,255)","valueType":"color"},{"name":"fontItalic","rangeEnd":1,"rangeStart":0,"value":0,"valueType":"int"}],
                            "duration" : 0
                          }
                        ]
                      }
                    },
                    "attributes" : {
                      "autoRotateText" : true
                    },
                    "parameters" : {
                      "translation0" : -279.086626139535,
                      "translation1" : -468.273556231082
                    },
                    "effects" : [

                    ],
                    "start" : 3257,
                    "duration" : 338,
                    "mediaStart" : 26,
                    "mediaDuration" : 338,
                    "scalar" : 1,
                    "metadata" : {
                      "WinSubProjectDisplayName" : "",
                      "clipSpeedAttribute" : false,
                      "default-HAlign" : "center",
                      "default-VAlign" : "center",
                      "default-text-attributes" : "[{\"name\":\"strikethrough\",\"rangeEnd\":1,\"rangeStart\":0,\"value\":0,\"valueType\":\"int\"},{\"name\":\"underline\",\"rangeEnd\":1,\"rangeStart\":0,\"value\":0,\"valueType\":\"int\"},{\"name\":\"fgColor\",\"rangeEnd\":1,\"rangeStart\":0,\"value\":\"(255,45,50,255)\",\"valueType\":\"color\"},{\"name\":\"fontWeight\",\"rangeEnd\":1,\"rangeStart\":0,\"value\":400,\"valueType\":\"int\"},{\"name\":\"fontName\",\"rangeEnd\":1,\"rangeStart\":0,\"value\":\"UVN Bach Tuyet Nang\",\"valueType\":\"string\"},{\"name\":\"fontSize\",\"rangeEnd\":1,\"rangeStart\":0,\"value\":55,\"valueType\":\"double\"},{\"name\":\"fontItalic\",\"rangeEnd\":1,\"rangeStart\":0,\"value\":0,\"valueType\":\"int\"}]",
                      "default-translation0" : 0.0,
                      "default-translation1" : 0.0
                    },
                    "animationTracks" : {

                    }
                  },
                  {
                    "id" : 219,
                    "_type" : "Callout",
                    "def" : {
                      "kind" : "remix",
                      "shape" : "text",
                      "style" : "basic",
                      "height" : 251.138248847708,
                      "width" : 180.857142857186,
                      "word-wrap" : 1.0,
                      "horizontal-alignment" : "center",
                      "text" : "5",
                      "vertical-alignment" : "center",
                      "font" : {
                        "color-blue" : 1.0,
                        "color-green" : 1.0,
                        "color-red" : 1.0,
                        "size" : 96.0,
                        "tracking" : 0.0,
                        "name" : "Montserrat",
                        "weight" : "Regular"
                      },
                      "textAttributes" : {
                        "type" : "textAttributeList",
                        "keyframes" : [
                          {
                            "time" : 0,
                            "value" : [{"name":"fontName","rangeEnd":1,"rangeStart":0,"value":"UVN Chim Bien","valueType":"string"},{"name":"fontItalic","rangeEnd":1,"rangeStart":0,"value":0,"valueType":"int"},{"name":"fontSize","rangeEnd":1,"rangeStart":0,"value":56,"valueType":"double"},{"name":"strikethrough","rangeEnd":1,"rangeStart":0,"value":0,"valueType":"int"},{"name":"fontWeight","rangeEnd":1,"rangeStart":0,"value":400,"valueType":"int"},{"name":"fgColor","rangeEnd":1,"rangeStart":0,"value":"(255,45,50,255)","valueType":"color"},{"name":"underline","rangeEnd":1,"rangeStart":0,"value":0,"valueType":"int"}],
                            "duration" : 0
                          }
                        ]
                      }
                    },
                    "attributes" : {
                      "autoRotateText" : true
                    },
                    "parameters" : {
                      "translation0" : -279.086626139535,
                      "translation1" : -465.41641337393
                    },
                    "effects" : [

                    ],
                    "start" : 3595,
                    "duration" : 331,
                    "mediaStart" : 15,
                    "mediaDuration" : 331,
                    "scalar" : 1,
                    "metadata" : {
                      "WinSubProjectDisplayName" : "",
                      "clipSpeedAttribute" : false,
                      "default-HAlign" : "center",
                      "default-VAlign" : "center",
                      "default-text-attributes" : "[{\"name\":\"strikethrough\",\"rangeEnd\":1,\"rangeStart\":0,\"value\":0,\"valueType\":\"int\"},{\"name\":\"underline\",\"rangeEnd\":1,\"rangeStart\":0,\"value\":0,\"valueType\":\"int\"},{\"name\":\"fgColor\",\"rangeEnd\":1,\"rangeStart\":0,\"value\":\"(255,45,50,255)\",\"valueType\":\"color\"},{\"name\":\"fontWeight\",\"rangeEnd\":1,\"rangeStart\":0,\"value\":400,\"valueType\":\"int\"},{\"name\":\"fontName\",\"rangeEnd\":1,\"rangeStart\":0,\"value\":\"UVN Bach Tuyet Nang\",\"valueType\":\"string\"},{\"name\":\"fontSize\",\"rangeEnd\":1,\"rangeStart\":0,\"value\":55,\"valueType\":\"double\"},{\"name\":\"fontItalic\",\"rangeEnd\":1,\"rangeStart\":0,\"value\":0,\"valueType\":\"int\"}]",
                      "default-translation0" : 0.0,
                      "default-translation1" : 0.0
                    },
                    "animationTracks" : {

                    }
                  },
                  {
                    "id" : 220,
                    "_type" : "Callout",
                    "def" : {
                      "kind" : "remix",
                      "shape" : "text",
                      "style" : "basic",
                      "height" : 251.138248847708,
                      "width" : 180.857142857186,
                      "word-wrap" : 1.0,
                      "horizontal-alignment" : "center",
                      "text" : "5",
                      "vertical-alignment" : "center",
                      "font" : {
                        "color-blue" : 1.0,
                        "color-green" : 1.0,
                        "color-red" : 1.0,
                        "size" : 96.0,
                        "tracking" : 0.0,
                        "name" : "Montserrat",
                        "weight" : "Regular"
                      },
                      "textAttributes" : {
                        "type" : "textAttributeList",
                        "keyframes" : [
                          {
                            "time" : 0,
                            "value" : [{"name":"fontWeight","rangeEnd":1,"rangeStart":0,"value":400,"valueType":"int"},{"name":"strikethrough","rangeEnd":1,"rangeStart":0,"value":0,"valueType":"int"},{"name":"fontSize","rangeEnd":1,"rangeStart":0,"value":56,"valueType":"double"},{"name":"fontItalic","rangeEnd":1,"rangeStart":0,"value":0,"valueType":"int"},{"name":"fgColor","rangeEnd":1,"rangeStart":0,"value":"(255,45,50,255)","valueType":"color"},{"name":"underline","rangeEnd":1,"rangeStart":0,"value":0,"valueType":"int"},{"name":"fontName","rangeEnd":1,"rangeStart":0,"value":"UVN Chim Bien","valueType":"string"}],
                            "duration" : 0
                          }
                        ]
                      }
                    },
                    "attributes" : {
                      "autoRotateText" : true
                    },
                    "parameters" : {
                      "translation0" : -279.086626139535,
                      "translation1" : -468.273556231082
                    },
                    "effects" : [

                    ],
                    "start" : 3926,
                    "duration" : 323,
                    "mediaStart" : 30,
                    "mediaDuration" : 323,
                    "scalar" : 1,
                    "metadata" : {
                      "WinSubProjectDisplayName" : "",
                      "clipSpeedAttribute" : false,
                      "default-HAlign" : "center",
                      "default-VAlign" : "center",
                      "default-text-attributes" : "[{\"name\":\"strikethrough\",\"rangeEnd\":1,\"rangeStart\":0,\"value\":0,\"valueType\":\"int\"},{\"name\":\"underline\",\"rangeEnd\":1,\"rangeStart\":0,\"value\":0,\"valueType\":\"int\"},{\"name\":\"fgColor\",\"rangeEnd\":1,\"rangeStart\":0,\"value\":\"(255,45,50,255)\",\"valueType\":\"color\"},{\"name\":\"fontWeight\",\"rangeEnd\":1,\"rangeStart\":0,\"value\":400,\"valueType\":\"int\"},{\"name\":\"fontName\",\"rangeEnd\":1,\"rangeStart\":0,\"value\":\"UVN Bach Tuyet Nang\",\"valueType\":\"string\"},{\"name\":\"fontSize\",\"rangeEnd\":1,\"rangeStart\":0,\"value\":55,\"valueType\":\"double\"},{\"name\":\"fontItalic\",\"rangeEnd\":1,\"rangeStart\":0,\"value\":0,\"valueType\":\"int\"}]",
                      "default-translation0" : 0.0,
                      "default-translation1" : 0.0
                    },
                    "animationTracks" : {

                    }
                  },
                  {
                    "id" : 221,
                    "_type" : "Callout",
                    "def" : {
                      "kind" : "remix",
                      "shape" : "text",
                      "style" : "basic",
                      "height" : 251.138248847708,
                      "width" : 180.857142857186,
                      "word-wrap" : 1.0,
                      "horizontal-alignment" : "center",
                      "text" : "5",
                      "vertical-alignment" : "center",
                      "font" : {
                        "color-blue" : 1.0,
                        "color-green" : 1.0,
                        "color-red" : 1.0,
                        "size" : 96.0,
                        "tracking" : 0.0,
                        "name" : "Montserrat",
                        "weight" : "Regular"
                      },
                      "textAttributes" : {
                        "type" : "textAttributeList",
                        "keyframes" : [
                          {
                            "time" : 0,
                            "value" : [{"name":"strikethrough","rangeEnd":1,"rangeStart":0,"value":0,"valueType":"int"},{"name":"underline","rangeEnd":1,"rangeStart":0,"value":0,"valueType":"int"},{"name":"fontSize","rangeEnd":1,"rangeStart":0,"value":56,"valueType":"double"},{"name":"fontName","rangeEnd":1,"rangeStart":0,"value":"UVN Chim Bien","valueType":"string"},{"name":"fontWeight","rangeEnd":1,"rangeStart":0,"value":400,"valueType":"int"},{"name":"fgColor","rangeEnd":1,"rangeStart":0,"value":"(255,45,50,255)","valueType":"color"},{"name":"fontItalic","rangeEnd":1,"rangeStart":0,"value":0,"valueType":"int"}],
                            "duration" : 0
                          }
                        ]
                      }
                    },
                    "attributes" : {
                      "autoRotateText" : true
                    },
                    "parameters" : {
                      "translation0" : -279.086626139535,
                      "translation1" : -468.273556231082
                    },
                    "effects" : [

                    ],
                    "start" : 4249,
                    "duration" : 266,
                    "mediaStart" : 24,
                    "mediaDuration" : 266,
                    "scalar" : 1,
                    "metadata" : {
                      "WinSubProjectDisplayName" : "",
                      "clipSpeedAttribute" : false,
                      "default-HAlign" : "center",
                      "default-VAlign" : "center",
                      "default-text-attributes" : "[{\"name\":\"strikethrough\",\"rangeEnd\":1,\"rangeStart\":0,\"value\":0,\"valueType\":\"int\"},{\"name\":\"underline\",\"rangeEnd\":1,\"rangeStart\":0,\"value\":0,\"valueType\":\"int\"},{\"name\":\"fgColor\",\"rangeEnd\":1,\"rangeStart\":0,\"value\":\"(255,45,50,255)\",\"valueType\":\"color\"},{\"name\":\"fontWeight\",\"rangeEnd\":1,\"rangeStart\":0,\"value\":400,\"valueType\":\"int\"},{\"name\":\"fontName\",\"rangeEnd\":1,\"rangeStart\":0,\"value\":\"UVN Bach Tuyet Nang\",\"valueType\":\"string\"},{\"name\":\"fontSize\",\"rangeEnd\":1,\"rangeStart\":0,\"value\":55,\"valueType\":\"double\"},{\"name\":\"fontItalic\",\"rangeEnd\":1,\"rangeStart\":0,\"value\":0,\"valueType\":\"int\"}]",
                      "default-translation0" : 0.0,
                      "default-translation1" : 0.0
                    },
                    "animationTracks" : {

                    }
                  },
                  {
                    "id" : 222,
                    "_type" : "Callout",
                    "def" : {
                      "kind" : "remix",
                      "shape" : "text",
                      "style" : "basic",
                      "height" : 251.138248847708,
                      "width" : 180.857142857186,
                      "word-wrap" : 1.0,
                      "horizontal-alignment" : "center",
                      "text" : "5",
                      "vertical-alignment" : "center",
                      "font" : {
                        "color-blue" : 1.0,
                        "color-green" : 1.0,
                        "color-red" : 1.0,
                        "size" : 96.0,
                        "tracking" : 0.0,
                        "name" : "Montserrat",
                        "weight" : "Regular"
                      },
                      "textAttributes" : {
                        "type" : "textAttributeList",
                        "keyframes" : [
                          {
                            "time" : 0,
                            "value" : [{"name":"strikethrough","rangeEnd":1,"rangeStart":0,"value":0,"valueType":"int"},{"name":"underline","rangeEnd":1,"rangeStart":0,"value":0,"valueType":"int"},{"name":"fontWeight","rangeEnd":1,"rangeStart":0,"value":400,"valueType":"int"},{"name":"fontSize","rangeEnd":1,"rangeStart":0,"value":56,"valueType":"double"},{"name":"fgColor","rangeEnd":1,"rangeStart":0,"value":"(255,45,50,255)","valueType":"color"},{"name":"fontName","rangeEnd":1,"rangeStart":0,"value":"UVN Chim Bien","valueType":"string"},{"name":"fontItalic","rangeEnd":1,"rangeStart":0,"value":0,"valueType":"int"}],
                            "duration" : 0
                          }
                        ]
                      }
                    },
                    "attributes" : {
                      "autoRotateText" : true
                    },
                    "parameters" : {
                      "translation0" : -279.086626139535,
                      "translation1" : -468.273556231082
                    },
                    "effects" : [

                    ],
                    "start" : 4515,
                    "duration" : 333,
                    "mediaStart" : -5,
                    "mediaDuration" : 333,
                    "scalar" : 1,
                    "metadata" : {
                      "WinSubProjectDisplayName" : "",
                      "clipSpeedAttribute" : false,
                      "default-HAlign" : "center",
                      "default-VAlign" : "center",
                      "default-text-attributes" : "[{\"name\":\"strikethrough\",\"rangeEnd\":1,\"rangeStart\":0,\"value\":0,\"valueType\":\"int\"},{\"name\":\"underline\",\"rangeEnd\":1,\"rangeStart\":0,\"value\":0,\"valueType\":\"int\"},{\"name\":\"fgColor\",\"rangeEnd\":1,\"rangeStart\":0,\"value\":\"(255,45,50,255)\",\"valueType\":\"color\"},{\"name\":\"fontWeight\",\"rangeEnd\":1,\"rangeStart\":0,\"value\":400,\"valueType\":\"int\"},{\"name\":\"fontName\",\"rangeEnd\":1,\"rangeStart\":0,\"value\":\"UVN Bach Tuyet Nang\",\"valueType\":\"string\"},{\"name\":\"fontSize\",\"rangeEnd\":1,\"rangeStart\":0,\"value\":55,\"valueType\":\"double\"},{\"name\":\"fontItalic\",\"rangeEnd\":1,\"rangeStart\":0,\"value\":0,\"valueType\":\"int\"}]",
                      "default-translation0" : 0.0,
                      "default-translation1" : 0.0
                    },
                    "animationTracks" : {

                    }
                  },
                  {
                    "id" : 223,
                    "_type" : "Callout",
                    "def" : {
                      "kind" : "remix",
                      "shape" : "text",
                      "style" : "basic",
                      "height" : 251.138248847708,
                      "width" : 180.857142857186,
                      "word-wrap" : 1.0,
                      "horizontal-alignment" : "center",
                      "text" : "5",
                      "vertical-alignment" : "center",
                      "font" : {
                        "color-blue" : 1.0,
                        "color-green" : 1.0,
                        "color-red" : 1.0,
                        "size" : 96.0,
                        "tracking" : 0.0,
                        "name" : "Montserrat",
                        "weight" : "Regular"
                      },
                      "textAttributes" : {
                        "type" : "textAttributeList",
                        "keyframes" : [
                          {
                            "time" : 0,
                            "value" : [{"name":"fontSize","rangeEnd":1,"rangeStart":0,"value":56,"valueType":"double"},{"name":"fontItalic","rangeEnd":1,"rangeStart":0,"value":0,"valueType":"int"},{"name":"fontWeight","rangeEnd":1,"rangeStart":0,"value":400,"valueType":"int"},{"name":"strikethrough","rangeEnd":1,"rangeStart":0,"value":0,"valueType":"int"},{"name":"underline","rangeEnd":1,"rangeStart":0,"value":0,"valueType":"int"},{"name":"fgColor","rangeEnd":1,"rangeStart":0,"value":"(255,45,50,255)","valueType":"color"},{"name":"fontName","rangeEnd":1,"rangeStart":0,"value":"UVN Chim Bien","valueType":"string"}],
                            "duration" : 0
                          }
                        ]
                      }
                    },
                    "attributes" : {
                      "autoRotateText" : true
                    },
                    "parameters" : {
                      "translation0" : -279.086626139535,
                      "translation1" : -468.273556231082
                    },
                    "effects" : [

                    ],
                    "start" : 4848,
                    "duration" : 352,
                    "mediaStart" : -5,
                    "mediaDuration" : 352,
                    "scalar" : 1,
                    "metadata" : {
                      "WinSubProjectDisplayName" : "",
                      "clipSpeedAttribute" : false,
                      "default-HAlign" : "center",
                      "default-VAlign" : "center",
                      "default-text-attributes" : "[{\"name\":\"strikethrough\",\"rangeEnd\":1,\"rangeStart\":0,\"value\":0,\"valueType\":\"int\"},{\"name\":\"underline\",\"rangeEnd\":1,\"rangeStart\":0,\"value\":0,\"valueType\":\"int\"},{\"name\":\"fgColor\",\"rangeEnd\":1,\"rangeStart\":0,\"value\":\"(255,45,50,255)\",\"valueType\":\"color\"},{\"name\":\"fontWeight\",\"rangeEnd\":1,\"rangeStart\":0,\"value\":400,\"valueType\":\"int\"},{\"name\":\"fontName\",\"rangeEnd\":1,\"rangeStart\":0,\"value\":\"UVN Bach Tuyet Nang\",\"valueType\":\"string\"},{\"name\":\"fontSize\",\"rangeEnd\":1,\"rangeStart\":0,\"value\":55,\"valueType\":\"double\"},{\"name\":\"fontItalic\",\"rangeEnd\":1,\"rangeStart\":0,\"value\":0,\"valueType\":\"int\"}]",
                      "default-translation0" : 0.0,
                      "default-translation1" : 0.0
                    },
                    "animationTracks" : {

                    }
                  },
                  {
                    "id" : 224,
                    "_type" : "Callout",
                    "def" : {
                      "kind" : "remix",
                      "shape" : "text",
                      "style" : "basic",
                      "height" : 251.138248847708,
                      "width" : 180.857142857186,
                      "word-wrap" : 1.0,
                      "horizontal-alignment" : "center",
                      "text" : "5",
                      "vertical-alignment" : "center",
                      "font" : {
                        "color-blue" : 1.0,
                        "color-green" : 1.0,
                        "color-red" : 1.0,
                        "size" : 96.0,
                        "tracking" : 0.0,
                        "name" : "Montserrat",
                        "weight" : "Regular"
                      },
                      "textAttributes" : {
                        "type" : "textAttributeList",
                        "keyframes" : [
                          {
                            "time" : 0,
                            "value" : [{"name":"fontSize","rangeEnd":1,"rangeStart":0,"value":56,"valueType":"double"},{"name":"fontName","rangeEnd":1,"rangeStart":0,"value":"UVN Chim Bien","valueType":"string"},{"name":"fgColor","rangeEnd":1,"rangeStart":0,"value":"(255,45,50,255)","valueType":"color"},{"name":"fontItalic","rangeEnd":1,"rangeStart":0,"value":0,"valueType":"int"},{"name":"fontWeight","rangeEnd":1,"rangeStart":0,"value":400,"valueType":"int"},{"name":"strikethrough","rangeEnd":1,"rangeStart":0,"value":0,"valueType":"int"},{"name":"underline","rangeEnd":1,"rangeStart":0,"value":0,"valueType":"int"}],
                            "duration" : 0
                          }
                        ]
                      }
                    },
                    "attributes" : {
                      "autoRotateText" : true
                    },
                    "parameters" : {
                      "translation0" : -279.086626139535,
                      "translation1" : -468.273556231082
                    },
                    "effects" : [

                    ],
                    "start" : 5200,
                    "duration" : 308,
                    "mediaStart" : 0,
                    "mediaDuration" : 308,
                    "scalar" : 1,
                    "metadata" : {
                      "WinSubProjectDisplayName" : "",
                      "clipSpeedAttribute" : false,
                      "default-HAlign" : "center",
                      "default-VAlign" : "center",
                      "default-text-attributes" : "[{\"name\":\"strikethrough\",\"rangeEnd\":1,\"rangeStart\":0,\"value\":0,\"valueType\":\"int\"},{\"name\":\"underline\",\"rangeEnd\":1,\"rangeStart\":0,\"value\":0,\"valueType\":\"int\"},{\"name\":\"fgColor\",\"rangeEnd\":1,\"rangeStart\":0,\"value\":\"(255,45,50,255)\",\"valueType\":\"color\"},{\"name\":\"fontWeight\",\"rangeEnd\":1,\"rangeStart\":0,\"value\":400,\"valueType\":\"int\"},{\"name\":\"fontName\",\"rangeEnd\":1,\"rangeStart\":0,\"value\":\"UVN Bach Tuyet Nang\",\"valueType\":\"string\"},{\"name\":\"fontSize\",\"rangeEnd\":1,\"rangeStart\":0,\"value\":55,\"valueType\":\"double\"},{\"name\":\"fontItalic\",\"rangeEnd\":1,\"rangeStart\":0,\"value\":0,\"valueType\":\"int\"}]",
                      "default-translation0" : 0.0,
                      "default-translation1" : 0.0
                    },
                    "animationTracks" : {

                    }
                  },
                  {
                    "id" : 225,
                    "_type" : "Callout",
                    "def" : {
                      "kind" : "remix",
                      "shape" : "text",
                      "style" : "basic",
                      "height" : 251.138248847708,
                      "width" : 180.857142857186,
                      "word-wrap" : 1.0,
                      "horizontal-alignment" : "center",
                      "text" : "6",
                      "vertical-alignment" : "center",
                      "font" : {
                        "color-blue" : 1.0,
                        "color-green" : 1.0,
                        "color-red" : 1.0,
                        "size" : 96.0,
                        "tracking" : 0.0,
                        "name" : "Montserrat",
                        "weight" : "Regular"
                      },
                      "textAttributes" : {
                        "type" : "textAttributeList",
                        "keyframes" : [
                          {
                            "time" : 0,
                            "value" : [{"name":"fontName","rangeEnd":1,"rangeStart":0,"value":"UVN Chim Bien","valueType":"string"},{"name":"fontSize","rangeEnd":1,"rangeStart":0,"value":56,"valueType":"double"},{"name":"fontWeight","rangeEnd":1,"rangeStart":0,"value":400,"valueType":"int"},{"name":"strikethrough","rangeEnd":1,"rangeStart":0,"value":0,"valueType":"int"},{"name":"fontItalic","rangeEnd":1,"rangeStart":0,"value":0,"valueType":"int"},{"name":"underline","rangeEnd":1,"rangeStart":0,"value":0,"valueType":"int"},{"name":"fgColor","rangeEnd":1,"rangeStart":0,"value":"(255,45,50,255)","valueType":"color"}],
                            "duration" : 0
                          }
                        ]
                      }
                    },
                    "attributes" : {
                      "autoRotateText" : true
                    },
                    "parameters" : {
                      "translation0" : -279.086626139535,
                      "translation1" : -468.273556231082
                    },
                    "effects" : [

                    ],
                    "start" : 5508,
                    "duration" : 315,
                    "mediaStart" : 0,
                    "mediaDuration" : 315,
                    "scalar" : 1,
                    "metadata" : {
                      "WinSubProjectDisplayName" : "",
                      "clipSpeedAttribute" : false,
                      "default-HAlign" : "center",
                      "default-VAlign" : "center",
                      "default-text-attributes" : "[{\"name\":\"strikethrough\",\"rangeEnd\":1,\"rangeStart\":0,\"value\":0,\"valueType\":\"int\"},{\"name\":\"underline\",\"rangeEnd\":1,\"rangeStart\":0,\"value\":0,\"valueType\":\"int\"},{\"name\":\"fgColor\",\"rangeEnd\":1,\"rangeStart\":0,\"value\":\"(255,45,50,255)\",\"valueType\":\"color\"},{\"name\":\"fontWeight\",\"rangeEnd\":1,\"rangeStart\":0,\"value\":400,\"valueType\":\"int\"},{\"name\":\"fontName\",\"rangeEnd\":1,\"rangeStart\":0,\"value\":\"UVN Bach Tuyet Nang\",\"valueType\":\"string\"},{\"name\":\"fontSize\",\"rangeEnd\":1,\"rangeStart\":0,\"value\":55,\"valueType\":\"double\"},{\"name\":\"fontItalic\",\"rangeEnd\":1,\"rangeStart\":0,\"value\":0,\"valueType\":\"int\"}]",
                      "default-translation0" : 0.0,
                      "default-translation1" : 0.0
                    },
                    "animationTracks" : {

                    }
                  },
                  {
                    "id" : 226,
                    "_type" : "Callout",
                    "def" : {
                      "kind" : "remix",
                      "shape" : "text",
                      "style" : "basic",
                      "height" : 251.138248847708,
                      "width" : 180.857142857186,
                      "word-wrap" : 1.0,
                      "horizontal-alignment" : "center",
                      "text" : "6",
                      "vertical-alignment" : "center",
                      "font" : {
                        "color-blue" : 1.0,
                        "color-green" : 1.0,
                        "color-red" : 1.0,
                        "size" : 96.0,
                        "tracking" : 0.0,
                        "name" : "Montserrat",
                        "weight" : "Regular"
                      },
                      "textAttributes" : {
                        "type" : "textAttributeList",
                        "keyframes" : [
                          {
                            "time" : 0,
                            "value" : [{"name":"strikethrough","rangeEnd":1,"rangeStart":0,"value":0,"valueType":"int"},{"name":"fontSize","rangeEnd":1,"rangeStart":0,"value":56,"valueType":"double"},{"name":"fgColor","rangeEnd":1,"rangeStart":0,"value":"(255,45,50,255)","valueType":"color"},{"name":"fontName","rangeEnd":1,"rangeStart":0,"value":"UVN Chim Bien","valueType":"string"},{"name":"underline","rangeEnd":1,"rangeStart":0,"value":0,"valueType":"int"},{"name":"fontWeight","rangeEnd":1,"rangeStart":0,"value":400,"valueType":"int"},{"name":"fontItalic","rangeEnd":1,"rangeStart":0,"value":0,"valueType":"int"}],
                            "duration" : 0
                          }
                        ]
                      }
                    },
                    "attributes" : {
                      "autoRotateText" : true
                    },
                    "parameters" : {
                      "translation0" : -279.086626139535,
                      "translation1" : -468.273556231082
                    },
                    "effects" : [

                    ],
                    "start" : 5823,
                    "duration" : 347,
                    "mediaStart" : 0,
                    "mediaDuration" : 347,
                    "scalar" : 1,
                    "metadata" : {
                      "WinSubProjectDisplayName" : "",
                      "clipSpeedAttribute" : false,
                      "default-HAlign" : "center",
                      "default-VAlign" : "center",
                      "default-text-attributes" : "[{\"name\":\"strikethrough\",\"rangeEnd\":1,\"rangeStart\":0,\"value\":0,\"valueType\":\"int\"},{\"name\":\"underline\",\"rangeEnd\":1,\"rangeStart\":0,\"value\":0,\"valueType\":\"int\"},{\"name\":\"fgColor\",\"rangeEnd\":1,\"rangeStart\":0,\"value\":\"(255,45,50,255)\",\"valueType\":\"color\"},{\"name\":\"fontWeight\",\"rangeEnd\":1,\"rangeStart\":0,\"value\":400,\"valueType\":\"int\"},{\"name\":\"fontName\",\"rangeEnd\":1,\"rangeStart\":0,\"value\":\"UVN Bach Tuyet Nang\",\"valueType\":\"string\"},{\"name\":\"fontSize\",\"rangeEnd\":1,\"rangeStart\":0,\"value\":55,\"valueType\":\"double\"},{\"name\":\"fontItalic\",\"rangeEnd\":1,\"rangeStart\":0,\"value\":0,\"valueType\":\"int\"}]",
                      "default-translation0" : 0.0,
                      "default-translation1" : 0.0
                    },
                    "animationTracks" : {

                    }
                  },
                  {
                    "id" : 227,
                    "_type" : "Callout",
                    "def" : {
                      "kind" : "remix",
                      "shape" : "text",
                      "style" : "basic",
                      "height" : 251.138248847708,
                      "width" : 180.857142857186,
                      "word-wrap" : 1.0,
                      "horizontal-alignment" : "center",
                      "text" : "7",
                      "vertical-alignment" : "center",
                      "font" : {
                        "color-blue" : 1.0,
                        "color-green" : 1.0,
                        "color-red" : 1.0,
                        "size" : 96.0,
                        "tracking" : 0.0,
                        "name" : "Montserrat",
                        "weight" : "Regular"
                      },
                      "textAttributes" : {
                        "type" : "textAttributeList",
                        "keyframes" : [
                          {
                            "time" : 0,
                            "value" : [{"name":"fontWeight","rangeEnd":1,"rangeStart":0,"value":400,"valueType":"int"},{"name":"underline","rangeEnd":1,"rangeStart":0,"value":0,"valueType":"int"},{"name":"fontSize","rangeEnd":1,"rangeStart":0,"value":56,"valueType":"double"},{"name":"fgColor","rangeEnd":1,"rangeStart":0,"value":"(255,45,50,255)","valueType":"color"},{"name":"fontItalic","rangeEnd":1,"rangeStart":0,"value":0,"valueType":"int"},{"name":"strikethrough","rangeEnd":1,"rangeStart":0,"value":0,"valueType":"int"},{"name":"fontName","rangeEnd":1,"rangeStart":0,"value":"UVN Chim Bien","valueType":"string"}],
                            "duration" : 0
                          }
                        ]
                      }
                    },
                    "attributes" : {
                      "autoRotateText" : true
                    },
                    "parameters" : {
                      "translation0" : -279.086626139535,
                      "translation1" : -468.273556231082
                    },
                    "effects" : [

                    ],
                    "start" : 6170,
                    "duration" : 292,
                    "mediaStart" : 0,
                    "mediaDuration" : 292,
                    "scalar" : 1,
                    "metadata" : {
                      "WinSubProjectDisplayName" : "",
                      "clipSpeedAttribute" : false,
                      "default-HAlign" : "center",
                      "default-VAlign" : "center",
                      "default-text-attributes" : "[{\"name\":\"strikethrough\",\"rangeEnd\":1,\"rangeStart\":0,\"value\":0,\"valueType\":\"int\"},{\"name\":\"underline\",\"rangeEnd\":1,\"rangeStart\":0,\"value\":0,\"valueType\":\"int\"},{\"name\":\"fgColor\",\"rangeEnd\":1,\"rangeStart\":0,\"value\":\"(255,45,50,255)\",\"valueType\":\"color\"},{\"name\":\"fontWeight\",\"rangeEnd\":1,\"rangeStart\":0,\"value\":400,\"valueType\":\"int\"},{\"name\":\"fontName\",\"rangeEnd\":1,\"rangeStart\":0,\"value\":\"UVN Bach Tuyet Nang\",\"valueType\":\"string\"},{\"name\":\"fontSize\",\"rangeEnd\":1,\"rangeStart\":0,\"value\":55,\"valueType\":\"double\"},{\"name\":\"fontItalic\",\"rangeEnd\":1,\"rangeStart\":0,\"value\":0,\"valueType\":\"int\"}]",
                      "default-translation0" : 0.0,
                      "default-translation1" : 0.0
                    },
                    "animationTracks" : {

                    }
                  },
                  {
                    "id" : 228,
                    "_type" : "Callout",
                    "def" : {
                      "kind" : "remix",
                      "shape" : "text",
                      "style" : "basic",
                      "height" : 251.138248847708,
                      "width" : 180.857142857186,
                      "word-wrap" : 1.0,
                      "horizontal-alignment" : "center",
                      "text" : "8",
                      "vertical-alignment" : "center",
                      "font" : {
                        "color-blue" : 1.0,
                        "color-green" : 1.0,
                        "color-red" : 1.0,
                        "size" : 96.0,
                        "tracking" : 0.0,
                        "name" : "Montserrat",
                        "weight" : "Regular"
                      },
                      "textAttributes" : {
                        "type" : "textAttributeList",
                        "keyframes" : [
                          {
                            "time" : 0,
                            "value" : [{"name":"fgColor","rangeEnd":1,"rangeStart":0,"value":"(255,45,50,255)","valueType":"color"},{"name":"fontSize","rangeEnd":1,"rangeStart":0,"value":56,"valueType":"double"},{"name":"fontWeight","rangeEnd":1,"rangeStart":0,"value":400,"valueType":"int"},{"name":"fontName","rangeEnd":1,"rangeStart":0,"value":"UVN Chim Bien","valueType":"string"},{"name":"fontItalic","rangeEnd":1,"rangeStart":0,"value":0,"valueType":"int"},{"name":"underline","rangeEnd":1,"rangeStart":0,"value":0,"valueType":"int"},{"name":"strikethrough","rangeEnd":1,"rangeStart":0,"value":0,"valueType":"int"}],
                            "duration" : 0
                          }
                        ]
                      }
                    },
                    "attributes" : {
                      "autoRotateText" : true
                    },
                    "parameters" : {
                      "translation0" : -279.086626139535,
                      "translation1" : -468.273556231082
                    },
                    "effects" : [

                    ],
                    "start" : 6462,
                    "duration" : 290,
                    "mediaStart" : 0,
                    "mediaDuration" : 290,
                    "scalar" : 1,
                    "metadata" : {
                      "WinSubProjectDisplayName" : "",
                      "clipSpeedAttribute" : false,
                      "default-HAlign" : "center",
                      "default-VAlign" : "center",
                      "default-text-attributes" : "[{\"name\":\"strikethrough\",\"rangeEnd\":1,\"rangeStart\":0,\"value\":0,\"valueType\":\"int\"},{\"name\":\"underline\",\"rangeEnd\":1,\"rangeStart\":0,\"value\":0,\"valueType\":\"int\"},{\"name\":\"fgColor\",\"rangeEnd\":1,\"rangeStart\":0,\"value\":\"(255,45,50,255)\",\"valueType\":\"color\"},{\"name\":\"fontWeight\",\"rangeEnd\":1,\"rangeStart\":0,\"value\":400,\"valueType\":\"int\"},{\"name\":\"fontName\",\"rangeEnd\":1,\"rangeStart\":0,\"value\":\"UVN Bach Tuyet Nang\",\"valueType\":\"string\"},{\"name\":\"fontSize\",\"rangeEnd\":1,\"rangeStart\":0,\"value\":55,\"valueType\":\"double\"},{\"name\":\"fontItalic\",\"rangeEnd\":1,\"rangeStart\":0,\"value\":0,\"valueType\":\"int\"}]",
                      "default-translation0" : 0.0,
                      "default-translation1" : 0.0
                    },
                    "animationTracks" : {

                    }
                  },
                  {
                    "id" : 229,
                    "_type" : "Callout",
                    "def" : {
                      "kind" : "remix",
                      "shape" : "text",
                      "style" : "basic",
                      "height" : 251.138248847708,
                      "width" : 180.857142857186,
                      "word-wrap" : 1.0,
                      "horizontal-alignment" : "center",
                      "text" : "9",
                      "vertical-alignment" : "center",
                      "font" : {
                        "color-blue" : 1.0,
                        "color-green" : 1.0,
                        "color-red" : 1.0,
                        "size" : 96.0,
                        "tracking" : 0.0,
                        "name" : "Montserrat",
                        "weight" : "Regular"
                      },
                      "textAttributes" : {
                        "type" : "textAttributeList",
                        "keyframes" : [
                          {
                            "time" : 0,
                            "value" : [{"name":"underline","rangeEnd":1,"rangeStart":0,"value":0,"valueType":"int"},{"name":"fontItalic","rangeEnd":1,"rangeStart":0,"value":0,"valueType":"int"},{"name":"fgColor","rangeEnd":1,"rangeStart":0,"value":"(255,45,50,255)","valueType":"color"},{"name":"strikethrough","rangeEnd":1,"rangeStart":0,"value":0,"valueType":"int"},{"name":"fontWeight","rangeEnd":1,"rangeStart":0,"value":400,"valueType":"int"},{"name":"fontName","rangeEnd":1,"rangeStart":0,"value":"UVN Chim Bien","valueType":"string"},{"name":"fontSize","rangeEnd":1,"rangeStart":0,"value":56,"valueType":"double"}],
                            "duration" : 0
                          }
                        ]
                      }
                    },
                    "attributes" : {
                      "autoRotateText" : true
                    },
                    "parameters" : {
                      "translation0" : -279.086626139535,
                      "translation1" : -468.273556231082
                    },
                    "effects" : [

                    ],
                    "start" : 6754,
                    "duration" : 329,
                    "mediaStart" : 0,
                    "mediaDuration" : 329,
                    "scalar" : 1,
                    "metadata" : {
                      "WinSubProjectDisplayName" : "",
                      "clipSpeedAttribute" : false,
                      "default-HAlign" : "center",
                      "default-VAlign" : "center",
                      "default-text-attributes" : "[{\"name\":\"strikethrough\",\"rangeEnd\":1,\"rangeStart\":0,\"value\":0,\"valueType\":\"int\"},{\"name\":\"underline\",\"rangeEnd\":1,\"rangeStart\":0,\"value\":0,\"valueType\":\"int\"},{\"name\":\"fgColor\",\"rangeEnd\":1,\"rangeStart\":0,\"value\":\"(255,45,50,255)\",\"valueType\":\"color\"},{\"name\":\"fontWeight\",\"rangeEnd\":1,\"rangeStart\":0,\"value\":400,\"valueType\":\"int\"},{\"name\":\"fontName\",\"rangeEnd\":1,\"rangeStart\":0,\"value\":\"UVN Bach Tuyet Nang\",\"valueType\":\"string\"},{\"name\":\"fontSize\",\"rangeEnd\":1,\"rangeStart\":0,\"value\":55,\"valueType\":\"double\"},{\"name\":\"fontItalic\",\"rangeEnd\":1,\"rangeStart\":0,\"value\":0,\"valueType\":\"int\"}]",
                      "default-translation0" : 0.0,
                      "default-translation1" : 0.0
                    },
                    "animationTracks" : {

                    }
                  },
                  {
                    "id" : 230,
                    "_type" : "Callout",
                    "def" : {
                      "kind" : "remix",
                      "shape" : "text",
                      "style" : "basic",
                      "height" : 251.138248847708,
                      "width" : 180.857142857186,
                      "word-wrap" : 1.0,
                      "horizontal-alignment" : "center",
                      "text" : "10",
                      "vertical-alignment" : "center",
                      "font" : {
                        "color-blue" : 1.0,
                        "color-green" : 1.0,
                        "color-red" : 1.0,
                        "size" : 96.0,
                        "tracking" : 0.0,
                        "name" : "Montserrat",
                        "weight" : "Regular"
                      },
                      "textAttributes" : {
                        "type" : "textAttributeList",
                        "keyframes" : [
                          {
                            "time" : 0,
                            "value" : [{"name":"fontItalic","rangeEnd":2,"rangeStart":0,"value":0,"valueType":"int"},{"name":"fontWeight","rangeEnd":2,"rangeStart":0,"value":400,"valueType":"int"},{"name":"fgColor","rangeEnd":2,"rangeStart":0,"value":"(255,45,50,255)","valueType":"color"},{"name":"underline","rangeEnd":2,"rangeStart":0,"value":0,"valueType":"int"},{"name":"fontName","rangeEnd":2,"rangeStart":0,"value":"UVN Chim Bien","valueType":"string"},{"name":"fontSize","rangeEnd":2,"rangeStart":0,"value":56,"valueType":"double"},{"name":"strikethrough","rangeEnd":2,"rangeStart":0,"value":0,"valueType":"int"}],
                            "duration" : 0
                          }
                        ]
                      }
                    },
                    "attributes" : {
                      "autoRotateText" : true
                    },
                    "parameters" : {
                      "translation0" : -279.086626139535,
                      "translation1" : -468.273556231082
                    },
                    "effects" : [

                    ],
                    "start" : 7083,
                    "duration" : 279,
                    "mediaStart" : 0,
                    "mediaDuration" : 279,
                    "scalar" : 1,
                    "metadata" : {
                      "WinSubProjectDisplayName" : "",
                      "clipSpeedAttribute" : false,
                      "default-HAlign" : "center",
                      "default-VAlign" : "center",
                      "default-text-attributes" : "[{\"name\":\"strikethrough\",\"rangeEnd\":1,\"rangeStart\":0,\"value\":0,\"valueType\":\"int\"},{\"name\":\"underline\",\"rangeEnd\":1,\"rangeStart\":0,\"value\":0,\"valueType\":\"int\"},{\"name\":\"fgColor\",\"rangeEnd\":1,\"rangeStart\":0,\"value\":\"(255,45,50,255)\",\"valueType\":\"color\"},{\"name\":\"fontWeight\",\"rangeEnd\":1,\"rangeStart\":0,\"value\":400,\"valueType\":\"int\"},{\"name\":\"fontName\",\"rangeEnd\":1,\"rangeStart\":0,\"value\":\"UVN Bach Tuyet Nang\",\"valueType\":\"string\"},{\"name\":\"fontSize\",\"rangeEnd\":1,\"rangeStart\":0,\"value\":55,\"valueType\":\"double\"},{\"name\":\"fontItalic\",\"rangeEnd\":1,\"rangeStart\":0,\"value\":0,\"valueType\":\"int\"}]",
                      "default-translation0" : 0.0,
                      "default-translation1" : 0.0
                    },
                    "animationTracks" : {

                    }
                  },
                  {
                    "id" : 231,
                    "_type" : "Callout",
                    "def" : {
                      "kind" : "remix",
                      "shape" : "text",
                      "style" : "basic",
                      "height" : 251.138248847708,
                      "width" : 180.857142857186,
                      "word-wrap" : 1.0,
                      "horizontal-alignment" : "center",
                      "text" : "10",
                      "vertical-alignment" : "center",
                      "font" : {
                        "color-blue" : 1.0,
                        "color-green" : 1.0,
                        "color-red" : 1.0,
                        "size" : 96.0,
                        "tracking" : 0.0,
                        "name" : "Montserrat",
                        "weight" : "Regular"
                      },
                      "textAttributes" : {
                        "type" : "textAttributeList",
                        "keyframes" : [
                          {
                            "time" : 0,
                            "value" : [{"name":"fontName","rangeEnd":2,"rangeStart":0,"value":"UVN Chim Bien","valueType":"string"},{"name":"fontWeight","rangeEnd":2,"rangeStart":0,"value":400,"valueType":"int"},{"name":"underline","rangeEnd":2,"rangeStart":0,"value":0,"valueType":"int"},{"name":"fgColor","rangeEnd":2,"rangeStart":0,"value":"(255,45,50,255)","valueType":"color"},{"name":"fontSize","rangeEnd":2,"rangeStart":0,"value":56,"valueType":"double"},{"name":"strikethrough","rangeEnd":2,"rangeStart":0,"value":0,"valueType":"int"},{"name":"fontItalic","rangeEnd":2,"rangeStart":0,"value":0,"valueType":"int"}],
                            "duration" : 0
                          }
                        ]
                      }
                    },
                    "attributes" : {
                      "autoRotateText" : true
                    },
                    "parameters" : {
                      "translation0" : -279.086626139535,
                      "translation1" : -468.273556231082
                    },
                    "effects" : [

                    ],
                    "start" : 7362,
                    "duration" : 316,
                    "mediaStart" : 0,
                    "mediaDuration" : 316,
                    "scalar" : 1,
                    "metadata" : {
                      "WinSubProjectDisplayName" : "",
                      "clipSpeedAttribute" : false,
                      "default-HAlign" : "center",
                      "default-VAlign" : "center",
                      "default-text-attributes" : "[{\"name\":\"strikethrough\",\"rangeEnd\":1,\"rangeStart\":0,\"value\":0,\"valueType\":\"int\"},{\"name\":\"underline\",\"rangeEnd\":1,\"rangeStart\":0,\"value\":0,\"valueType\":\"int\"},{\"name\":\"fgColor\",\"rangeEnd\":1,\"rangeStart\":0,\"value\":\"(255,45,50,255)\",\"valueType\":\"color\"},{\"name\":\"fontWeight\",\"rangeEnd\":1,\"rangeStart\":0,\"value\":400,\"valueType\":\"int\"},{\"name\":\"fontName\",\"rangeEnd\":1,\"rangeStart\":0,\"value\":\"UVN Bach Tuyet Nang\",\"valueType\":\"string\"},{\"name\":\"fontSize\",\"rangeEnd\":1,\"rangeStart\":0,\"value\":55,\"valueType\":\"double\"},{\"name\":\"fontItalic\",\"rangeEnd\":1,\"rangeStart\":0,\"value\":0,\"valueType\":\"int\"}]",
                      "default-translation0" : 0.0,
                      "default-translation1" : 0.0
                    },
                    "animationTracks" : {

                    }
                  },
                  {
                    "id" : 232,
                    "_type" : "Callout",
                    "def" : {
                      "kind" : "remix",
                      "shape" : "text",
                      "style" : "basic",
                      "height" : 251.138248847708,
                      "width" : 180.857142857186,
                      "word-wrap" : 1.0,
                      "horizontal-alignment" : "center",
                      "text" : "11",
                      "vertical-alignment" : "center",
                      "font" : {
                        "color-blue" : 1.0,
                        "color-green" : 1.0,
                        "color-red" : 1.0,
                        "size" : 96.0,
                        "tracking" : 0.0,
                        "name" : "Montserrat",
                        "weight" : "Regular"
                      },
                      "textAttributes" : {
                        "type" : "textAttributeList",
                        "keyframes" : [
                          {
                            "time" : 0,
                            "value" : [{"name":"underline","rangeEnd":2,"rangeStart":0,"value":0,"valueType":"int"},{"name":"fontName","rangeEnd":2,"rangeStart":0,"value":"UVN Chim Bien","valueType":"string"},{"name":"fgColor","rangeEnd":2,"rangeStart":0,"value":"(255,45,50,255)","valueType":"color"},{"name":"fontItalic","rangeEnd":2,"rangeStart":0,"value":0,"valueType":"int"},{"name":"fontWeight","rangeEnd":2,"rangeStart":0,"value":400,"valueType":"int"},{"name":"strikethrough","rangeEnd":2,"rangeStart":0,"value":0,"valueType":"int"},{"name":"fontSize","rangeEnd":2,"rangeStart":0,"value":56,"valueType":"double"}],
                            "duration" : 0
                          }
                        ]
                      }
                    },
                    "attributes" : {
                      "autoRotateText" : true
                    },
                    "parameters" : {
                      "translation0" : -279.086626139535,
                      "translation1" : -468.273556231082
                    },
                    "effects" : [

                    ],
                    "start" : 7678,
                    "duration" : 304,
                    "mediaStart" : 0,
                    "mediaDuration" : 304,
                    "scalar" : 1,
                    "metadata" : {
                      "WinSubProjectDisplayName" : "",
                      "clipSpeedAttribute" : false,
                      "default-HAlign" : "center",
                      "default-VAlign" : "center",
                      "default-text-attributes" : "[{\"name\":\"strikethrough\",\"rangeEnd\":1,\"rangeStart\":0,\"value\":0,\"valueType\":\"int\"},{\"name\":\"underline\",\"rangeEnd\":1,\"rangeStart\":0,\"value\":0,\"valueType\":\"int\"},{\"name\":\"fgColor\",\"rangeEnd\":1,\"rangeStart\":0,\"value\":\"(255,45,50,255)\",\"valueType\":\"color\"},{\"name\":\"fontWeight\",\"rangeEnd\":1,\"rangeStart\":0,\"value\":400,\"valueType\":\"int\"},{\"name\":\"fontName\",\"rangeEnd\":1,\"rangeStart\":0,\"value\":\"UVN Bach Tuyet Nang\",\"valueType\":\"string\"},{\"name\":\"fontSize\",\"rangeEnd\":1,\"rangeStart\":0,\"value\":55,\"valueType\":\"double\"},{\"name\":\"fontItalic\",\"rangeEnd\":1,\"rangeStart\":0,\"value\":0,\"valueType\":\"int\"}]",
                      "default-translation0" : 0.0,
                      "default-translation1" : 0.0
                    },
                    "animationTracks" : {

                    }
                  },
                  {
                    "id" : 233,
                    "_type" : "Callout",
                    "def" : {
                      "kind" : "remix",
                      "shape" : "text",
                      "style" : "basic",
                      "height" : 251.138248847708,
                      "width" : 180.857142857186,
                      "word-wrap" : 1.0,
                      "horizontal-alignment" : "center",
                      "text" : "12",
                      "vertical-alignment" : "center",
                      "font" : {
                        "color-blue" : 1.0,
                        "color-green" : 1.0,
                        "color-red" : 1.0,
                        "size" : 96.0,
                        "tracking" : 0.0,
                        "name" : "Montserrat",
                        "weight" : "Regular"
                      },
                      "textAttributes" : {
                        "type" : "textAttributeList",
                        "keyframes" : [
                          {
                            "time" : 0,
                            "value" : [{"name":"strikethrough","rangeEnd":2,"rangeStart":0,"value":0,"valueType":"int"},{"name":"fontItalic","rangeEnd":2,"rangeStart":0,"value":0,"valueType":"int"},{"name":"underline","rangeEnd":2,"rangeStart":0,"value":0,"valueType":"int"},{"name":"fontName","rangeEnd":2,"rangeStart":0,"value":"UVN Chim Bien","valueType":"string"},{"name":"fgColor","rangeEnd":2,"rangeStart":0,"value":"(255,45,50,255)","valueType":"color"},{"name":"fontWeight","rangeEnd":2,"rangeStart":0,"value":400,"valueType":"int"},{"name":"fontSize","rangeEnd":2,"rangeStart":0,"value":56,"valueType":"double"}],
                            "duration" : 0
                          }
                        ]
                      }
                    },
                    "attributes" : {
                      "autoRotateText" : true
                    },
                    "parameters" : {
                      "translation0" : -279.086626139535,
                      "translation1" : -468.273556231082
                    },
                    "effects" : [

                    ],
                    "start" : 7982,
                    "duration" : 345,
                    "mediaStart" : 0,
                    "mediaDuration" : 345,
                    "scalar" : 1,
                    "metadata" : {
                      "WinSubProjectDisplayName" : "",
                      "clipSpeedAttribute" : false,
                      "default-HAlign" : "center",
                      "default-VAlign" : "center",
                      "default-text-attributes" : "[{\"name\":\"strikethrough\",\"rangeEnd\":1,\"rangeStart\":0,\"value\":0,\"valueType\":\"int\"},{\"name\":\"underline\",\"rangeEnd\":1,\"rangeStart\":0,\"value\":0,\"valueType\":\"int\"},{\"name\":\"fgColor\",\"rangeEnd\":1,\"rangeStart\":0,\"value\":\"(255,45,50,255)\",\"valueType\":\"color\"},{\"name\":\"fontWeight\",\"rangeEnd\":1,\"rangeStart\":0,\"value\":400,\"valueType\":\"int\"},{\"name\":\"fontName\",\"rangeEnd\":1,\"rangeStart\":0,\"value\":\"UVN Bach Tuyet Nang\",\"valueType\":\"string\"},{\"name\":\"fontSize\",\"rangeEnd\":1,\"rangeStart\":0,\"value\":55,\"valueType\":\"double\"},{\"name\":\"fontItalic\",\"rangeEnd\":1,\"rangeStart\":0,\"value\":0,\"valueType\":\"int\"}]",
                      "default-translation0" : 0.0,
                      "default-translation1" : 0.0
                    },
                    "animationTracks" : {

                    }
                  },
                  {
                    "id" : 234,
                    "_type" : "Callout",
                    "def" : {
                      "kind" : "remix",
                      "shape" : "text",
                      "style" : "basic",
                      "height" : 251.138248847708,
                      "width" : 180.857142857186,
                      "word-wrap" : 1.0,
                      "horizontal-alignment" : "center",
                      "text" : "12",
                      "vertical-alignment" : "center",
                      "font" : {
                        "color-blue" : 1.0,
                        "color-green" : 1.0,
                        "color-red" : 1.0,
                        "size" : 96.0,
                        "tracking" : 0.0,
                        "name" : "Montserrat",
                        "weight" : "Regular"
                      },
                      "textAttributes" : {
                        "type" : "textAttributeList",
                        "keyframes" : [
                          {
                            "time" : 0,
                            "value" : [{"name":"fontSize","rangeEnd":2,"rangeStart":0,"value":56,"valueType":"double"},{"name":"fontName","rangeEnd":2,"rangeStart":0,"value":"UVN Chim Bien","valueType":"string"},{"name":"strikethrough","rangeEnd":2,"rangeStart":0,"value":0,"valueType":"int"},{"name":"fgColor","rangeEnd":2,"rangeStart":0,"value":"(255,45,50,255)","valueType":"color"},{"name":"underline","rangeEnd":2,"rangeStart":0,"value":0,"valueType":"int"},{"name":"fontWeight","rangeEnd":2,"rangeStart":0,"value":400,"valueType":"int"},{"name":"fontItalic","rangeEnd":2,"rangeStart":0,"value":0,"valueType":"int"}],
                            "duration" : 0
                          }
                        ]
                      }
                    },
                    "attributes" : {
                      "autoRotateText" : true
                    },
                    "parameters" : {
                      "translation0" : -279.086626139535,
                      "translation1" : -468.273556231082
                    },
                    "effects" : [

                    ],
                    "start" : 8327,
                    "duration" : 360,
                    "mediaStart" : 17,
                    "mediaDuration" : 360,
                    "scalar" : 1,
                    "metadata" : {
                      "WinSubProjectDisplayName" : "",
                      "clipSpeedAttribute" : false,
                      "default-HAlign" : "center",
                      "default-VAlign" : "center",
                      "default-text-attributes" : "[{\"name\":\"strikethrough\",\"rangeEnd\":1,\"rangeStart\":0,\"value\":0,\"valueType\":\"int\"},{\"name\":\"underline\",\"rangeEnd\":1,\"rangeStart\":0,\"value\":0,\"valueType\":\"int\"},{\"name\":\"fgColor\",\"rangeEnd\":1,\"rangeStart\":0,\"value\":\"(255,45,50,255)\",\"valueType\":\"color\"},{\"name\":\"fontWeight\",\"rangeEnd\":1,\"rangeStart\":0,\"value\":400,\"valueType\":\"int\"},{\"name\":\"fontName\",\"rangeEnd\":1,\"rangeStart\":0,\"value\":\"UVN Bach Tuyet Nang\",\"valueType\":\"string\"},{\"name\":\"fontSize\",\"rangeEnd\":1,\"rangeStart\":0,\"value\":55,\"valueType\":\"double\"},{\"name\":\"fontItalic\",\"rangeEnd\":1,\"rangeStart\":0,\"value\":0,\"valueType\":\"int\"}]",
                      "default-translation0" : 0.0,
                      "default-translation1" : 0.0
                    },
                    "animationTracks" : {

                    }
                  },
                  {
                    "id" : 235,
                    "_type" : "Callout",
                    "def" : {
                      "kind" : "remix",
                      "shape" : "text",
                      "style" : "basic",
                      "height" : 251.138248847708,
                      "width" : 180.857142857186,
                      "word-wrap" : 1.0,
                      "horizontal-alignment" : "center",
                      "text" : "12",
                      "vertical-alignment" : "center",
                      "font" : {
                        "color-blue" : 1.0,
                        "color-green" : 1.0,
                        "color-red" : 1.0,
                        "size" : 96.0,
                        "tracking" : 0.0,
                        "name" : "Montserrat",
                        "weight" : "Regular"
                      },
                      "textAttributes" : {
                        "type" : "textAttributeList",
                        "keyframes" : [
                          {
                            "time" : 0,
                            "value" : [{"name":"fontItalic","rangeEnd":2,"rangeStart":0,"value":0,"valueType":"int"},{"name":"fontName","rangeEnd":2,"rangeStart":0,"value":"UVN Chim Bien","valueType":"string"},{"name":"strikethrough","rangeEnd":2,"rangeStart":0,"value":0,"valueType":"int"},{"name":"fgColor","rangeEnd":2,"rangeStart":0,"value":"(255,45,50,255)","valueType":"color"},{"name":"underline","rangeEnd":2,"rangeStart":0,"value":0,"valueType":"int"},{"name":"fontSize","rangeEnd":2,"rangeStart":0,"value":56,"valueType":"double"},{"name":"fontWeight","rangeEnd":2,"rangeStart":0,"value":400,"valueType":"int"}],
                            "duration" : 0
                          }
                        ]
                      }
                    },
                    "attributes" : {
                      "autoRotateText" : true
                    },
                    "parameters" : {
                      "translation0" : -279.086626139535,
                      "translation1" : -468.273554121804
                    },
                    "effects" : [

                    ],
                    "start" : 8687,
                    "duration" : 307,
                    "mediaStart" : 0,
                    "mediaDuration" : 307,
                    "scalar" : 1,
                    "metadata" : {
                      "WinSubProjectDisplayName" : "",
                      "clipSpeedAttribute" : false,
                      "default-HAlign" : "center",
                      "default-VAlign" : "center",
                      "default-text-attributes" : "[{\"name\":\"strikethrough\",\"rangeEnd\":1,\"rangeStart\":0,\"value\":0,\"valueType\":\"int\"},{\"name\":\"underline\",\"rangeEnd\":1,\"rangeStart\":0,\"value\":0,\"valueType\":\"int\"},{\"name\":\"fgColor\",\"rangeEnd\":1,\"rangeStart\":0,\"value\":\"(255,45,50,255)\",\"valueType\":\"color\"},{\"name\":\"fontWeight\",\"rangeEnd\":1,\"rangeStart\":0,\"value\":400,\"valueType\":\"int\"},{\"name\":\"fontName\",\"rangeEnd\":1,\"rangeStart\":0,\"value\":\"UVN Bach Tuyet Nang\",\"valueType\":\"string\"},{\"name\":\"fontSize\",\"rangeEnd\":1,\"rangeStart\":0,\"value\":55,\"valueType\":\"double\"},{\"name\":\"fontItalic\",\"rangeEnd\":1,\"rangeStart\":0,\"value\":0,\"valueType\":\"int\"}]",
                      "default-translation0" : 0.0,
                      "default-translation1" : 0.0
                    },
                    "animationTracks" : {

                    }
                  },
                  {
                    "id" : 236,
                    "_type" : "Callout",
                    "def" : {
                      "kind" : "remix",
                      "shape" : "text",
                      "style" : "basic",
                      "height" : 251.138248847708,
                      "width" : 180.857142857186,
                      "word-wrap" : 1.0,
                      "horizontal-alignment" : "center",
                      "text" : "13",
                      "vertical-alignment" : "center",
                      "font" : {
                        "color-blue" : 1.0,
                        "color-green" : 1.0,
                        "color-red" : 1.0,
                        "size" : 96.0,
                        "tracking" : 0.0,
                        "name" : "Montserrat",
                        "weight" : "Regular"
                      },
                      "textAttributes" : {
                        "type" : "textAttributeList",
                        "keyframes" : [
                          {
                            "time" : 0,
                            "value" : [{"name":"fontSize","rangeEnd":2,"rangeStart":0,"value":56,"valueType":"double"},{"name":"fgColor","rangeEnd":2,"rangeStart":0,"value":"(255,45,50,255)","valueType":"color"},{"name":"underline","rangeEnd":2,"rangeStart":0,"value":0,"valueType":"int"},{"name":"fontItalic","rangeEnd":2,"rangeStart":0,"value":0,"valueType":"int"},{"name":"fontName","rangeEnd":2,"rangeStart":0,"value":"UVN Chim Bien","valueType":"string"},{"name":"fontWeight","rangeEnd":2,"rangeStart":0,"value":400,"valueType":"int"},{"name":"strikethrough","rangeEnd":2,"rangeStart":0,"value":0,"valueType":"int"}],
                            "duration" : 0
                          }
                        ]
                      }
                    },
                    "attributes" : {
                      "autoRotateText" : true
                    },
                    "parameters" : {
                      "translation0" : -279.086626139535,
                      "translation1" : -468.273556231082
                    },
                    "effects" : [

                    ],
                    "start" : 8994,
                    "duration" : 332,
                    "mediaStart" : 22,
                    "mediaDuration" : 332,
                    "scalar" : 1,
                    "metadata" : {
                      "WinSubProjectDisplayName" : "",
                      "clipSpeedAttribute" : false,
                      "default-HAlign" : "center",
                      "default-VAlign" : "center",
                      "default-text-attributes" : "[{\"name\":\"strikethrough\",\"rangeEnd\":1,\"rangeStart\":0,\"value\":0,\"valueType\":\"int\"},{\"name\":\"underline\",\"rangeEnd\":1,\"rangeStart\":0,\"value\":0,\"valueType\":\"int\"},{\"name\":\"fgColor\",\"rangeEnd\":1,\"rangeStart\":0,\"value\":\"(255,45,50,255)\",\"valueType\":\"color\"},{\"name\":\"fontWeight\",\"rangeEnd\":1,\"rangeStart\":0,\"value\":400,\"valueType\":\"int\"},{\"name\":\"fontName\",\"rangeEnd\":1,\"rangeStart\":0,\"value\":\"UVN Bach Tuyet Nang\",\"valueType\":\"string\"},{\"name\":\"fontSize\",\"rangeEnd\":1,\"rangeStart\":0,\"value\":55,\"valueType\":\"double\"},{\"name\":\"fontItalic\",\"rangeEnd\":1,\"rangeStart\":0,\"value\":0,\"valueType\":\"int\"}]",
                      "default-translation0" : 0.0,
                      "default-translation1" : 0.0
                    },
                    "animationTracks" : {

                    }
                  },
                  {
                    "id" : 237,
                    "_type" : "Callout",
                    "def" : {
                      "kind" : "remix",
                      "shape" : "text",
                      "style" : "basic",
                      "height" : 251.138248847708,
                      "width" : 180.857142857186,
                      "word-wrap" : 1.0,
                      "horizontal-alignment" : "center",
                      "text" : "13",
                      "vertical-alignment" : "center",
                      "font" : {
                        "color-blue" : 1.0,
                        "color-green" : 1.0,
                        "color-red" : 1.0,
                        "size" : 96.0,
                        "tracking" : 0.0,
                        "name" : "Montserrat",
                        "weight" : "Regular"
                      },
                      "textAttributes" : {
                        "type" : "textAttributeList",
                        "keyframes" : [
                          {
                            "time" : 0,
                            "value" : [{"name":"strikethrough","rangeEnd":2,"rangeStart":0,"value":0,"valueType":"int"},{"name":"underline","rangeEnd":2,"rangeStart":0,"value":0,"valueType":"int"},{"name":"fgColor","rangeEnd":2,"rangeStart":0,"value":"(255,45,50,255)","valueType":"color"},{"name":"fontSize","rangeEnd":2,"rangeStart":0,"value":56,"valueType":"double"},{"name":"fontName","rangeEnd":2,"rangeStart":0,"value":"UVN Chim Bien","valueType":"string"},{"name":"fontItalic","rangeEnd":2,"rangeStart":0,"value":0,"valueType":"int"},{"name":"fontWeight","rangeEnd":2,"rangeStart":0,"value":400,"valueType":"int"}],
                            "duration" : 0
                          }
                        ]
                      }
                    },
                    "attributes" : {
                      "autoRotateText" : true
                    },
                    "parameters" : {
                      "translation0" : -279.086626139535,
                      "translation1" : -468.273556231082
                    },
                    "effects" : [

                    ],
                    "start" : 9326,
                    "duration" : 281,
                    "mediaStart" : 5,
                    "mediaDuration" : 281,
                    "scalar" : 1,
                    "metadata" : {
                      "WinSubProjectDisplayName" : "",
                      "clipSpeedAttribute" : false,
                      "default-HAlign" : "center",
                      "default-VAlign" : "center",
                      "default-text-attributes" : "[{\"name\":\"strikethrough\",\"rangeEnd\":1,\"rangeStart\":0,\"value\":0,\"valueType\":\"int\"},{\"name\":\"underline\",\"rangeEnd\":1,\"rangeStart\":0,\"value\":0,\"valueType\":\"int\"},{\"name\":\"fgColor\",\"rangeEnd\":1,\"rangeStart\":0,\"value\":\"(255,45,50,255)\",\"valueType\":\"color\"},{\"name\":\"fontWeight\",\"rangeEnd\":1,\"rangeStart\":0,\"value\":400,\"valueType\":\"int\"},{\"name\":\"fontName\",\"rangeEnd\":1,\"rangeStart\":0,\"value\":\"UVN Bach Tuyet Nang\",\"valueType\":\"string\"},{\"name\":\"fontSize\",\"rangeEnd\":1,\"rangeStart\":0,\"value\":55,\"valueType\":\"double\"},{\"name\":\"fontItalic\",\"rangeEnd\":1,\"rangeStart\":0,\"value\":0,\"valueType\":\"int\"}]",
                      "default-translation0" : 0.0,
                      "default-translation1" : 0.0
                    },
                    "animationTracks" : {

                    }
                  },
                  {
                    "id" : 238,
                    "_type" : "Callout",
                    "def" : {
                      "kind" : "remix",
                      "shape" : "text",
                      "style" : "basic",
                      "height" : 251.138248847708,
                      "width" : 180.857142857186,
                      "word-wrap" : 1.0,
                      "horizontal-alignment" : "center",
                      "text" : "14",
                      "vertical-alignment" : "center",
                      "font" : {
                        "color-blue" : 1.0,
                        "color-green" : 1.0,
                        "color-red" : 1.0,
                        "size" : 96.0,
                        "tracking" : 0.0,
                        "name" : "Montserrat",
                        "weight" : "Regular"
                      },
                      "textAttributes" : {
                        "type" : "textAttributeList",
                        "keyframes" : [
                          {
                            "time" : 0,
                            "value" : [{"name":"fontWeight","rangeEnd":2,"rangeStart":0,"value":400,"valueType":"int"},{"name":"fontSize","rangeEnd":2,"rangeStart":0,"value":56,"valueType":"double"},{"name":"fgColor","rangeEnd":2,"rangeStart":0,"value":"(255,45,50,255)","valueType":"color"},{"name":"underline","rangeEnd":2,"rangeStart":0,"value":0,"valueType":"int"},{"name":"fontName","rangeEnd":2,"rangeStart":0,"value":"UVN Chim Bien","valueType":"string"},{"name":"fontItalic","rangeEnd":2,"rangeStart":0,"value":0,"valueType":"int"},{"name":"strikethrough","rangeEnd":2,"rangeStart":0,"value":0,"valueType":"int"}],
                            "duration" : 0
                          }
                        ]
                      }
                    },
                    "attributes" : {
                      "autoRotateText" : true
                    },
                    "parameters" : {
                      "translation0" : -279.086626139535,
                      "translation1" : -468.273556231082
                    },
                    "effects" : [

                    ],
                    "start" : 9607,
                    "duration" : 423,
                    "mediaStart" : -17,
                    "mediaDuration" : 423,
                    "scalar" : 1,
                    "metadata" : {
                      "WinSubProjectDisplayName" : "",
                      "clipSpeedAttribute" : false,
                      "default-HAlign" : "center",
                      "default-VAlign" : "center",
                      "default-text-attributes" : "[{\"name\":\"strikethrough\",\"rangeEnd\":1,\"rangeStart\":0,\"value\":0,\"valueType\":\"int\"},{\"name\":\"underline\",\"rangeEnd\":1,\"rangeStart\":0,\"value\":0,\"valueType\":\"int\"},{\"name\":\"fgColor\",\"rangeEnd\":1,\"rangeStart\":0,\"value\":\"(255,45,50,255)\",\"valueType\":\"color\"},{\"name\":\"fontWeight\",\"rangeEnd\":1,\"rangeStart\":0,\"value\":400,\"valueType\":\"int\"},{\"name\":\"fontName\",\"rangeEnd\":1,\"rangeStart\":0,\"value\":\"UVN Bach Tuyet Nang\",\"valueType\":\"string\"},{\"name\":\"fontSize\",\"rangeEnd\":1,\"rangeStart\":0,\"value\":55,\"valueType\":\"double\"},{\"name\":\"fontItalic\",\"rangeEnd\":1,\"rangeStart\":0,\"value\":0,\"valueType\":\"int\"}]",
                      "default-translation0" : 0.0,
                      "default-translation1" : 0.0
                    },
                    "animationTracks" : {

                    }
                  },
                  {
                    "id" : 239,
                    "_type" : "Callout",
                    "def" : {
                      "kind" : "remix",
                      "shape" : "text",
                      "style" : "basic",
                      "height" : 251.138248847708,
                      "width" : 180.857142857186,
                      "word-wrap" : 1.0,
                      "horizontal-alignment" : "center",
                      "text" : "14",
                      "vertical-alignment" : "center",
                      "font" : {
                        "color-blue" : 1.0,
                        "color-green" : 1.0,
                        "color-red" : 1.0,
                        "size" : 96.0,
                        "tracking" : 0.0,
                        "name" : "Montserrat",
                        "weight" : "Regular"
                      },
                      "textAttributes" : {
                        "type" : "textAttributeList",
                        "keyframes" : [
                          {
                            "time" : 0,
                            "value" : [{"name":"fgColor","rangeEnd":2,"rangeStart":0,"value":"(255,45,50,255)","valueType":"color"},{"name":"strikethrough","rangeEnd":2,"rangeStart":0,"value":0,"valueType":"int"},{"name":"underline","rangeEnd":2,"rangeStart":0,"value":0,"valueType":"int"},{"name":"fontSize","rangeEnd":2,"rangeStart":0,"value":56,"valueType":"double"},{"name":"fontItalic","rangeEnd":2,"rangeStart":0,"value":0,"valueType":"int"},{"name":"fontName","rangeEnd":2,"rangeStart":0,"value":"UVN Chim Bien","valueType":"string"},{"name":"fontWeight","rangeEnd":2,"rangeStart":0,"value":400,"valueType":"int"}],
                            "duration" : 0
                          }
                        ]
                      }
                    },
                    "attributes" : {
                      "autoRotateText" : true
                    },
                    "parameters" : {
                      "translation0" : -279.086626139535,
                      "translation1" : -468.273556231082
                    },
                    "effects" : [

                    ],
                    "start" : 10030,
                    "duration" : 305,
                    "mediaStart" : -17,
                    "mediaDuration" : 305,
                    "scalar" : 1,
                    "metadata" : {
                      "WinSubProjectDisplayName" : "",
                      "clipSpeedAttribute" : false,
                      "default-HAlign" : "center",
                      "default-VAlign" : "center",
                      "default-text-attributes" : "[{\"name\":\"strikethrough\",\"rangeEnd\":1,\"rangeStart\":0,\"value\":0,\"valueType\":\"int\"},{\"name\":\"underline\",\"rangeEnd\":1,\"rangeStart\":0,\"value\":0,\"valueType\":\"int\"},{\"name\":\"fgColor\",\"rangeEnd\":1,\"rangeStart\":0,\"value\":\"(255,45,50,255)\",\"valueType\":\"color\"},{\"name\":\"fontWeight\",\"rangeEnd\":1,\"rangeStart\":0,\"value\":400,\"valueType\":\"int\"},{\"name\":\"fontName\",\"rangeEnd\":1,\"rangeStart\":0,\"value\":\"UVN Bach Tuyet Nang\",\"valueType\":\"string\"},{\"name\":\"fontSize\",\"rangeEnd\":1,\"rangeStart\":0,\"value\":55,\"valueType\":\"double\"},{\"name\":\"fontItalic\",\"rangeEnd\":1,\"rangeStart\":0,\"value\":0,\"valueType\":\"int\"}]",
                      "default-translation0" : 0.0,
                      "default-translation1" : 0.0
                    },
                    "animationTracks" : {

                    }
                  },
                  {
                    "id" : 240,
                    "_type" : "Callout",
                    "def" : {
                      "kind" : "remix",
                      "shape" : "text",
                      "style" : "basic",
                      "height" : 251.138248847708,
                      "width" : 180.857142857186,
                      "word-wrap" : 1.0,
                      "horizontal-alignment" : "center",
                      "text" : "14",
                      "vertical-alignment" : "center",
                      "font" : {
                        "color-blue" : 1.0,
                        "color-green" : 1.0,
                        "color-red" : 1.0,
                        "size" : 96.0,
                        "tracking" : 0.0,
                        "name" : "Montserrat",
                        "weight" : "Regular"
                      },
                      "textAttributes" : {
                        "type" : "textAttributeList",
                        "keyframes" : [
                          {
                            "time" : 0,
                            "value" : [{"name":"strikethrough","rangeEnd":2,"rangeStart":0,"value":0,"valueType":"int"},{"name":"fontSize","rangeEnd":2,"rangeStart":0,"value":56,"valueType":"double"},{"name":"fontName","rangeEnd":2,"rangeStart":0,"value":"UVN Chim Bien","valueType":"string"},{"name":"fontWeight","rangeEnd":2,"rangeStart":0,"value":400,"valueType":"int"},{"name":"fontItalic","rangeEnd":2,"rangeStart":0,"value":0,"valueType":"int"},{"name":"underline","rangeEnd":2,"rangeStart":0,"value":0,"valueType":"int"},{"name":"fgColor","rangeEnd":2,"rangeStart":0,"value":"(255,45,50,255)","valueType":"color"}],
                            "duration" : 0
                          }
                        ]
                      }
                    },
                    "attributes" : {
                      "autoRotateText" : true
                    },
                    "parameters" : {
                      "translation0" : -279.086626139535,
                      "translation1" : -468.273556231082
                    },
                    "effects" : [

                    ],
                    "start" : 10335,
                    "duration" : 347,
                    "mediaStart" : 0,
                    "mediaDuration" : 347,
                    "scalar" : 1,
                    "metadata" : {
                      "WinSubProjectDisplayName" : "",
                      "clipSpeedAttribute" : false,
                      "default-HAlign" : "center",
                      "default-VAlign" : "center",
                      "default-text-attributes" : "[{\"name\":\"strikethrough\",\"rangeEnd\":1,\"rangeStart\":0,\"value\":0,\"valueType\":\"int\"},{\"name\":\"underline\",\"rangeEnd\":1,\"rangeStart\":0,\"value\":0,\"valueType\":\"int\"},{\"name\":\"fgColor\",\"rangeEnd\":1,\"rangeStart\":0,\"value\":\"(255,45,50,255)\",\"valueType\":\"color\"},{\"name\":\"fontWeight\",\"rangeEnd\":1,\"rangeStart\":0,\"value\":400,\"valueType\":\"int\"},{\"name\":\"fontName\",\"rangeEnd\":1,\"rangeStart\":0,\"value\":\"UVN Bach Tuyet Nang\",\"valueType\":\"string\"},{\"name\":\"fontSize\",\"rangeEnd\":1,\"rangeStart\":0,\"value\":55,\"valueType\":\"double\"},{\"name\":\"fontItalic\",\"rangeEnd\":1,\"rangeStart\":0,\"value\":0,\"valueType\":\"int\"}]",
                      "default-translation0" : 0.0,
                      "default-translation1" : 0.0
                    },
                    "animationTracks" : {

                    }
                  },
                  {
                    "id" : 241,
                    "_type" : "Callout",
                    "def" : {
                      "kind" : "remix",
                      "shape" : "text",
                      "style" : "basic",
                      "height" : 251.138248847708,
                      "width" : 180.857142857186,
                      "word-wrap" : 1.0,
                      "horizontal-alignment" : "center",
                      "text" : "15",
                      "vertical-alignment" : "center",
                      "font" : {
                        "color-blue" : 1.0,
                        "color-green" : 1.0,
                        "color-red" : 1.0,
                        "size" : 96.0,
                        "tracking" : 0.0,
                        "name" : "Montserrat",
                        "weight" : "Regular"
                      },
                      "textAttributes" : {
                        "type" : "textAttributeList",
                        "keyframes" : [
                          {
                            "time" : 0,
                            "value" : [{"name":"fontItalic","rangeEnd":2,"rangeStart":0,"value":0,"valueType":"int"},{"name":"strikethrough","rangeEnd":2,"rangeStart":0,"value":0,"valueType":"int"},{"name":"fontWeight","rangeEnd":2,"rangeStart":0,"value":400,"valueType":"int"},{"name":"fontSize","rangeEnd":2,"rangeStart":0,"value":56,"valueType":"double"},{"name":"fgColor","rangeEnd":2,"rangeStart":0,"value":"(255,45,50,255)","valueType":"color"},{"name":"fontName","rangeEnd":2,"rangeStart":0,"value":"UVN Chim Bien","valueType":"string"},{"name":"underline","rangeEnd":2,"rangeStart":0,"value":0,"valueType":"int"}],
                            "duration" : 0
                          }
                        ]
                      }
                    },
                    "attributes" : {
                      "autoRotateText" : true
                    },
                    "parameters" : {
                      "translation0" : -279.086626139535,
                      "translation1" : -468.273556231082
                    },
                    "effects" : [

                    ],
                    "start" : 10682,
                    "duration" : 371,
                    "mediaStart" : -17,
                    "mediaDuration" : 371,
                    "scalar" : 1,
                    "metadata" : {
                      "WinSubProjectDisplayName" : "",
                      "clipSpeedAttribute" : false,
                      "default-HAlign" : "center",
                      "default-VAlign" : "center",
                      "default-text-attributes" : "[{\"name\":\"strikethrough\",\"rangeEnd\":1,\"rangeStart\":0,\"value\":0,\"valueType\":\"int\"},{\"name\":\"underline\",\"rangeEnd\":1,\"rangeStart\":0,\"value\":0,\"valueType\":\"int\"},{\"name\":\"fgColor\",\"rangeEnd\":1,\"rangeStart\":0,\"value\":\"(255,45,50,255)\",\"valueType\":\"color\"},{\"name\":\"fontWeight\",\"rangeEnd\":1,\"rangeStart\":0,\"value\":400,\"valueType\":\"int\"},{\"name\":\"fontName\",\"rangeEnd\":1,\"rangeStart\":0,\"value\":\"UVN Bach Tuyet Nang\",\"valueType\":\"string\"},{\"name\":\"fontSize\",\"rangeEnd\":1,\"rangeStart\":0,\"value\":55,\"valueType\":\"double\"},{\"name\":\"fontItalic\",\"rangeEnd\":1,\"rangeStart\":0,\"value\":0,\"valueType\":\"int\"}]",
                      "default-translation0" : 0.0,
                      "default-translation1" : 0.0
                    },
                    "animationTracks" : {

                    }
                  },
                  {
                    "id" : 242,
                    "_type" : "Callout",
                    "def" : {
                      "kind" : "remix",
                      "shape" : "text",
                      "style" : "basic",
                      "height" : 251.138248847708,
                      "width" : 180.857142857186,
                      "word-wrap" : 1.0,
                      "horizontal-alignment" : "center",
                      "text" : "15",
                      "vertical-alignment" : "center",
                      "font" : {
                        "color-blue" : 1.0,
                        "color-green" : 1.0,
                        "color-red" : 1.0,
                        "size" : 96.0,
                        "tracking" : 0.0,
                        "name" : "Montserrat",
                        "weight" : "Regular"
                      },
                      "textAttributes" : {
                        "type" : "textAttributeList",
                        "keyframes" : [
                          {
                            "time" : 0,
                            "value" : [{"name":"fontItalic","rangeEnd":2,"rangeStart":0,"value":0,"valueType":"int"},{"name":"fontWeight","rangeEnd":2,"rangeStart":0,"value":400,"valueType":"int"},{"name":"fontSize","rangeEnd":2,"rangeStart":0,"value":56,"valueType":"double"},{"name":"fgColor","rangeEnd":2,"rangeStart":0,"value":"(255,45,50,255)","valueType":"color"},{"name":"strikethrough","rangeEnd":2,"rangeStart":0,"value":0,"valueType":"int"},{"name":"underline","rangeEnd":2,"rangeStart":0,"value":0,"valueType":"int"},{"name":"fontName","rangeEnd":2,"rangeStart":0,"value":"UVN Chim Bien","valueType":"string"}],
                            "duration" : 0
                          }
                        ]
                      }
                    },
                    "attributes" : {
                      "autoRotateText" : true
                    },
                    "parameters" : {
                      "translation0" : -279.086626139535,
                      "translation1" : -468.273552012429
                    },
                    "effects" : [

                    ],
                    "start" : 11053,
                    "duration" : 314,
                    "mediaStart" : 5,
                    "mediaDuration" : 314,
                    "scalar" : 1,
                    "metadata" : {
                      "WinSubProjectDisplayName" : "",
                      "clipSpeedAttribute" : false,
                      "default-HAlign" : "center",
                      "default-VAlign" : "center",
                      "default-text-attributes" : "[{\"name\":\"strikethrough\",\"rangeEnd\":1,\"rangeStart\":0,\"value\":0,\"valueType\":\"int\"},{\"name\":\"underline\",\"rangeEnd\":1,\"rangeStart\":0,\"value\":0,\"valueType\":\"int\"},{\"name\":\"fgColor\",\"rangeEnd\":1,\"rangeStart\":0,\"value\":\"(255,45,50,255)\",\"valueType\":\"color\"},{\"name\":\"fontWeight\",\"rangeEnd\":1,\"rangeStart\":0,\"value\":400,\"valueType\":\"int\"},{\"name\":\"fontName\",\"rangeEnd\":1,\"rangeStart\":0,\"value\":\"UVN Bach Tuyet Nang\",\"valueType\":\"string\"},{\"name\":\"fontSize\",\"rangeEnd\":1,\"rangeStart\":0,\"value\":55,\"valueType\":\"double\"},{\"name\":\"fontItalic\",\"rangeEnd\":1,\"rangeStart\":0,\"value\":0,\"valueType\":\"int\"}]",
                      "default-translation0" : 0.0,
                      "default-translation1" : 0.0
                    },
                    "animationTracks" : {

                    }
                  },
                  {
                    "id" : 243,
                    "_type" : "Callout",
                    "def" : {
                      "kind" : "remix",
                      "shape" : "text",
                      "style" : "basic",
                      "height" : 251.138248847708,
                      "width" : 180.857142857186,
                      "word-wrap" : 1.0,
                      "horizontal-alignment" : "center",
                      "text" : "16",
                      "vertical-alignment" : "center",
                      "font" : {
                        "color-blue" : 1.0,
                        "color-green" : 1.0,
                        "color-red" : 1.0,
                        "size" : 96.0,
                        "tracking" : 0.0,
                        "name" : "Montserrat",
                        "weight" : "Regular"
                      },
                      "textAttributes" : {
                        "type" : "textAttributeList",
                        "keyframes" : [
                          {
                            "time" : 0,
                            "value" : [{"name":"fontItalic","rangeEnd":2,"rangeStart":0,"value":0,"valueType":"int"},{"name":"underline","rangeEnd":2,"rangeStart":0,"value":0,"valueType":"int"},{"name":"fontWeight","rangeEnd":2,"rangeStart":0,"value":400,"valueType":"int"},{"name":"fontName","rangeEnd":2,"rangeStart":0,"value":"UVN Chim Bien","valueType":"string"},{"name":"fgColor","rangeEnd":2,"rangeStart":0,"value":"(255,45,50,255)","valueType":"color"},{"name":"fontSize","rangeEnd":2,"rangeStart":0,"value":56,"valueType":"double"},{"name":"strikethrough","rangeEnd":2,"rangeStart":0,"value":0,"valueType":"int"}],
                            "duration" : 0
                          }
                        ]
                      }
                    },
                    "attributes" : {
                      "autoRotateText" : true
                    },
                    "parameters" : {
                      "translation0" : -279.086626139535,
                      "translation1" : -468.273554121718
                    },
                    "effects" : [

                    ],
                    "start" : 11367,
                    "duration" : 809,
                    "mediaStart" : 0,
                    "mediaDuration" : 809,
                    "scalar" : 1,
                    "metadata" : {
                      "WinSubProjectDisplayName" : "",
                      "clipSpeedAttribute" : false,
                      "default-HAlign" : "center",
                      "default-VAlign" : "center",
                      "default-text-attributes" : "[{\"name\":\"strikethrough\",\"rangeEnd\":1,\"rangeStart\":0,\"value\":0,\"valueType\":\"int\"},{\"name\":\"underline\",\"rangeEnd\":1,\"rangeStart\":0,\"value\":0,\"valueType\":\"int\"},{\"name\":\"fgColor\",\"rangeEnd\":1,\"rangeStart\":0,\"value\":\"(255,45,50,255)\",\"valueType\":\"color\"},{\"name\":\"fontWeight\",\"rangeEnd\":1,\"rangeStart\":0,\"value\":400,\"valueType\":\"int\"},{\"name\":\"fontName\",\"rangeEnd\":1,\"rangeStart\":0,\"value\":\"UVN Bach Tuyet Nang\",\"valueType\":\"string\"},{\"name\":\"fontSize\",\"rangeEnd\":1,\"rangeStart\":0,\"value\":55,\"valueType\":\"double\"},{\"name\":\"fontItalic\",\"rangeEnd\":1,\"rangeStart\":0,\"value\":0,\"valueType\":\"int\"}]",
                      "default-translation0" : 0.0,
                      "default-translation1" : 0.0
                    },
                    "animationTracks" : {

                    }
                  }
                ]
              },
              {
                "trackIndex" : 15,
                "medias" : [
                  {
                    "id" : 244,
                    "_type" : "Callout",
                    "def" : {
                      "kind" : "remix",
                      "shape" : "text",
                      "style" : "basic",
                      "height" : 251.138248847708,
                      "width" : 180.857142857186,
                      "word-wrap" : 1.0,
                      "horizontal-alignment" : "center",
                      "text" : "1",
                      "vertical-alignment" : "center",
                      "font" : {
                        "color-blue" : 1.0,
                        "color-green" : 1.0,
                        "color-red" : 1.0,
                        "size" : 96.0,
                        "tracking" : 0.0,
                        "name" : "Montserrat",
                        "weight" : "Regular"
                      },
                      "textAttributes" : {
                        "type" : "textAttributeList",
                        "keyframes" : [
                          {
                            "time" : 0,
                            "value" : [{"name":"fontSize","rangeEnd":1,"rangeStart":0,"value":56,"valueType":"double"},{"name":"underline","rangeEnd":1,"rangeStart":0,"value":0,"valueType":"int"},{"name":"fontWeight","rangeEnd":1,"rangeStart":0,"value":400,"valueType":"int"},{"name":"fgColor","rangeEnd":1,"rangeStart":0,"value":"(255,45,50,255)","valueType":"color"},{"name":"fontName","rangeEnd":1,"rangeStart":0,"value":"UVN Chim Bien","valueType":"string"},{"name":"fontItalic","rangeEnd":1,"rangeStart":0,"value":0,"valueType":"int"},{"name":"strikethrough","rangeEnd":1,"rangeStart":0,"value":0,"valueType":"int"}],
                            "duration" : 0
                          }
                        ]
                      }
                    },
                    "attributes" : {
                      "autoRotateText" : true
                    },
                    "parameters" : {
                      "translation0" : 261.946808510914,
                      "translation1" : -471.860182370844
                    },
                    "effects" : [

                    ],
                    "start" : 964,
                    "duration" : 245,
                    "mediaStart" : -24,
                    "mediaDuration" : 245,
                    "scalar" : 1,
                    "metadata" : {
                      "WinSubProjectDisplayName" : "",
                      "clipSpeedAttribute" : false,
                      "default-HAlign" : "center",
                      "default-VAlign" : "center",
                      "default-text-attributes" : "[{\"name\":\"strikethrough\",\"rangeEnd\":1,\"rangeStart\":0,\"value\":0,\"valueType\":\"int\"},{\"name\":\"underline\",\"rangeEnd\":1,\"rangeStart\":0,\"value\":0,\"valueType\":\"int\"},{\"name\":\"fgColor\",\"rangeEnd\":1,\"rangeStart\":0,\"value\":\"(255,45,50,255)\",\"valueType\":\"color\"},{\"name\":\"fontWeight\",\"rangeEnd\":1,\"rangeStart\":0,\"value\":400,\"valueType\":\"int\"},{\"name\":\"fontName\",\"rangeEnd\":1,\"rangeStart\":0,\"value\":\"UVN Bach Tuyet Nang\",\"valueType\":\"string\"},{\"name\":\"fontSize\",\"rangeEnd\":1,\"rangeStart\":0,\"value\":55,\"valueType\":\"double\"},{\"name\":\"fontItalic\",\"rangeEnd\":1,\"rangeStart\":0,\"value\":0,\"valueType\":\"int\"}]",
                      "default-translation0" : 0.0,
                      "default-translation1" : 0.0
                    },
                    "animationTracks" : {

                    }
                  },
                  {
                    "id" : 245,
                    "_type" : "Callout",
                    "def" : {
                      "kind" : "remix",
                      "shape" : "text",
                      "style" : "basic",
                      "height" : 251.138248847708,
                      "width" : 180.857142857186,
                      "word-wrap" : 1.0,
                      "horizontal-alignment" : "center",
                      "text" : "2",
                      "vertical-alignment" : "center",
                      "font" : {
                        "color-blue" : 1.0,
                        "color-green" : 1.0,
                        "color-red" : 1.0,
                        "size" : 96.0,
                        "tracking" : 0.0,
                        "name" : "Montserrat",
                        "weight" : "Regular"
                      },
                      "textAttributes" : {
                        "type" : "textAttributeList",
                        "keyframes" : [
                          {
                            "time" : 0,
                            "value" : [{"name":"fontName","rangeEnd":1,"rangeStart":0,"value":"UVN Chim Bien","valueType":"string"},{"name":"fgColor","rangeEnd":1,"rangeStart":0,"value":"(255,45,50,255)","valueType":"color"},{"name":"fontSize","rangeEnd":1,"rangeStart":0,"value":56,"valueType":"double"},{"name":"fontWeight","rangeEnd":1,"rangeStart":0,"value":400,"valueType":"int"},{"name":"fontItalic","rangeEnd":1,"rangeStart":0,"value":0,"valueType":"int"},{"name":"underline","rangeEnd":1,"rangeStart":0,"value":0,"valueType":"int"},{"name":"strikethrough","rangeEnd":1,"rangeStart":0,"value":0,"valueType":"int"}],
                            "duration" : 0
                          }
                        ]
                      }
                    },
                    "attributes" : {
                      "autoRotateText" : true
                    },
                    "parameters" : {
                      "translation0" : 261.946808510914,
                      "translation1" : -471.860182370844
                    },
                    "effects" : [

                    ],
                    "start" : 1209,
                    "duration" : 319,
                    "mediaStart" : 0,
                    "mediaDuration" : 319,
                    "scalar" : 1,
                    "metadata" : {
                      "WinSubProjectDisplayName" : "",
                      "clipSpeedAttribute" : false,
                      "default-HAlign" : "center",
                      "default-VAlign" : "center",
                      "default-text-attributes" : "[{\"name\":\"strikethrough\",\"rangeEnd\":1,\"rangeStart\":0,\"value\":0,\"valueType\":\"int\"},{\"name\":\"underline\",\"rangeEnd\":1,\"rangeStart\":0,\"value\":0,\"valueType\":\"int\"},{\"name\":\"fgColor\",\"rangeEnd\":1,\"rangeStart\":0,\"value\":\"(255,45,50,255)\",\"valueType\":\"color\"},{\"name\":\"fontWeight\",\"rangeEnd\":1,\"rangeStart\":0,\"value\":400,\"valueType\":\"int\"},{\"name\":\"fontName\",\"rangeEnd\":1,\"rangeStart\":0,\"value\":\"UVN Bach Tuyet Nang\",\"valueType\":\"string\"},{\"name\":\"fontSize\",\"rangeEnd\":1,\"rangeStart\":0,\"value\":55,\"valueType\":\"double\"},{\"name\":\"fontItalic\",\"rangeEnd\":1,\"rangeStart\":0,\"value\":0,\"valueType\":\"int\"}]",
                      "default-translation0" : 0.0,
                      "default-translation1" : 0.0
                    },
                    "animationTracks" : {

                    }
                  },
                  {
                    "id" : 246,
                    "_type" : "Callout",
                    "def" : {
                      "kind" : "remix",
                      "shape" : "text",
                      "style" : "basic",
                      "height" : 251.138248847708,
                      "width" : 180.857142857186,
                      "word-wrap" : 1.0,
                      "horizontal-alignment" : "center",
                      "text" : "3",
                      "vertical-alignment" : "center",
                      "font" : {
                        "color-blue" : 1.0,
                        "color-green" : 1.0,
                        "color-red" : 1.0,
                        "size" : 96.0,
                        "tracking" : 0.0,
                        "name" : "Montserrat",
                        "weight" : "Regular"
                      },
                      "textAttributes" : {
                        "type" : "textAttributeList",
                        "keyframes" : [
                          {
                            "time" : 0,
                            "value" : [{"name":"fontSize","rangeEnd":1,"rangeStart":0,"value":56,"valueType":"double"},{"name":"fontWeight","rangeEnd":1,"rangeStart":0,"value":400,"valueType":"int"},{"name":"underline","rangeEnd":1,"rangeStart":0,"value":0,"valueType":"int"},{"name":"fontItalic","rangeEnd":1,"rangeStart":0,"value":0,"valueType":"int"},{"name":"fontName","rangeEnd":1,"rangeStart":0,"value":"UVN Chim Bien","valueType":"string"},{"name":"fgColor","rangeEnd":1,"rangeStart":0,"value":"(255,45,50,255)","valueType":"color"},{"name":"strikethrough","rangeEnd":1,"rangeStart":0,"value":0,"valueType":"int"}],
                            "duration" : 0
                          }
                        ]
                      }
                    },
                    "attributes" : {
                      "autoRotateText" : true
                    },
                    "parameters" : {
                      "translation0" : 261.946808510914,
                      "translation1" : -471.860182370844
                    },
                    "effects" : [

                    ],
                    "start" : 1528,
                    "duration" : 303,
                    "mediaStart" : 75,
                    "mediaDuration" : 303,
                    "scalar" : 1,
                    "metadata" : {
                      "WinSubProjectDisplayName" : "",
                      "clipSpeedAttribute" : false,
                      "default-HAlign" : "center",
                      "default-VAlign" : "center",
                      "default-text-attributes" : "[{\"name\":\"strikethrough\",\"rangeEnd\":1,\"rangeStart\":0,\"value\":0,\"valueType\":\"int\"},{\"name\":\"underline\",\"rangeEnd\":1,\"rangeStart\":0,\"value\":0,\"valueType\":\"int\"},{\"name\":\"fgColor\",\"rangeEnd\":1,\"rangeStart\":0,\"value\":\"(255,45,50,255)\",\"valueType\":\"color\"},{\"name\":\"fontWeight\",\"rangeEnd\":1,\"rangeStart\":0,\"value\":400,\"valueType\":\"int\"},{\"name\":\"fontName\",\"rangeEnd\":1,\"rangeStart\":0,\"value\":\"UVN Bach Tuyet Nang\",\"valueType\":\"string\"},{\"name\":\"fontSize\",\"rangeEnd\":1,\"rangeStart\":0,\"value\":55,\"valueType\":\"double\"},{\"name\":\"fontItalic\",\"rangeEnd\":1,\"rangeStart\":0,\"value\":0,\"valueType\":\"int\"}]",
                      "default-translation0" : 0.0,
                      "default-translation1" : 0.0
                    },
                    "animationTracks" : {

                    }
                  },
                  {
                    "id" : 247,
                    "_type" : "Callout",
                    "def" : {
                      "kind" : "remix",
                      "shape" : "text",
                      "style" : "basic",
                      "height" : 251.138248847708,
                      "width" : 180.857142857186,
                      "word-wrap" : 1.0,
                      "horizontal-alignment" : "center",
                      "text" : "4",
                      "vertical-alignment" : "center",
                      "font" : {
                        "color-blue" : 1.0,
                        "color-green" : 1.0,
                        "color-red" : 1.0,
                        "size" : 96.0,
                        "tracking" : 0.0,
                        "name" : "Montserrat",
                        "weight" : "Regular"
                      },
                      "textAttributes" : {
                        "type" : "textAttributeList",
                        "keyframes" : [
                          {
                            "time" : 0,
                            "value" : [{"name":"underline","rangeEnd":1,"rangeStart":0,"value":0,"valueType":"int"},{"name":"fgColor","rangeEnd":1,"rangeStart":0,"value":"(255,45,50,255)","valueType":"color"},{"name":"strikethrough","rangeEnd":1,"rangeStart":0,"value":0,"valueType":"int"},{"name":"fontSize","rangeEnd":1,"rangeStart":0,"value":56,"valueType":"double"},{"name":"fontWeight","rangeEnd":1,"rangeStart":0,"value":400,"valueType":"int"},{"name":"fontName","rangeEnd":1,"rangeStart":0,"value":"UVN Chim Bien","valueType":"string"},{"name":"fontItalic","rangeEnd":1,"rangeStart":0,"value":0,"valueType":"int"}],
                            "duration" : 0
                          }
                        ]
                      }
                    },
                    "attributes" : {
                      "autoRotateText" : true
                    },
                    "parameters" : {
                      "translation0" : 261.946808510914,
                      "translation1" : -471.860182370844
                    },
                    "effects" : [

                    ],
                    "start" : 1831,
                    "duration" : 357,
                    "mediaStart" : 36,
                    "mediaDuration" : 357,
                    "scalar" : 1,
                    "metadata" : {
                      "WinSubProjectDisplayName" : "",
                      "clipSpeedAttribute" : false,
                      "default-HAlign" : "center",
                      "default-VAlign" : "center",
                      "default-text-attributes" : "[{\"name\":\"strikethrough\",\"rangeEnd\":1,\"rangeStart\":0,\"value\":0,\"valueType\":\"int\"},{\"name\":\"underline\",\"rangeEnd\":1,\"rangeStart\":0,\"value\":0,\"valueType\":\"int\"},{\"name\":\"fgColor\",\"rangeEnd\":1,\"rangeStart\":0,\"value\":\"(255,45,50,255)\",\"valueType\":\"color\"},{\"name\":\"fontWeight\",\"rangeEnd\":1,\"rangeStart\":0,\"value\":400,\"valueType\":\"int\"},{\"name\":\"fontName\",\"rangeEnd\":1,\"rangeStart\":0,\"value\":\"UVN Bach Tuyet Nang\",\"valueType\":\"string\"},{\"name\":\"fontSize\",\"rangeEnd\":1,\"rangeStart\":0,\"value\":55,\"valueType\":\"double\"},{\"name\":\"fontItalic\",\"rangeEnd\":1,\"rangeStart\":0,\"value\":0,\"valueType\":\"int\"}]",
                      "default-translation0" : 0.0,
                      "default-translation1" : 0.0
                    },
                    "animationTracks" : {

                    }
                  },
                  {
                    "id" : 248,
                    "_type" : "Callout",
                    "def" : {
                      "kind" : "remix",
                      "shape" : "text",
                      "style" : "basic",
                      "height" : 251.138248847708,
                      "width" : 180.857142857186,
                      "word-wrap" : 1.0,
                      "horizontal-alignment" : "center",
                      "text" : "5",
                      "vertical-alignment" : "center",
                      "font" : {
                        "color-blue" : 1.0,
                        "color-green" : 1.0,
                        "color-red" : 1.0,
                        "size" : 96.0,
                        "tracking" : 0.0,
                        "name" : "Montserrat",
                        "weight" : "Regular"
                      },
                      "textAttributes" : {
                        "type" : "textAttributeList",
                        "keyframes" : [
                          {
                            "time" : 0,
                            "value" : [{"name":"fgColor","rangeEnd":1,"rangeStart":0,"value":"(255,45,50,255)","valueType":"color"},{"name":"fontName","rangeEnd":1,"rangeStart":0,"value":"UVN Chim Bien","valueType":"string"},{"name":"fontWeight","rangeEnd":1,"rangeStart":0,"value":400,"valueType":"int"},{"name":"strikethrough","rangeEnd":1,"rangeStart":0,"value":0,"valueType":"int"},{"name":"underline","rangeEnd":1,"rangeStart":0,"value":0,"valueType":"int"},{"name":"fontSize","rangeEnd":1,"rangeStart":0,"value":56,"valueType":"double"},{"name":"fontItalic","rangeEnd":1,"rangeStart":0,"value":0,"valueType":"int"}],
                            "duration" : 0
                          }
                        ]
                      }
                    },
                    "attributes" : {
                      "autoRotateText" : true
                    },
                    "parameters" : {
                      "translation0" : 261.946808510914,
                      "translation1" : -471.860182370844
                    },
                    "effects" : [

                    ],
                    "start" : 2188,
                    "duration" : 377,
                    "mediaStart" : 38,
                    "mediaDuration" : 377,
                    "scalar" : 1,
                    "metadata" : {
                      "WinSubProjectDisplayName" : "",
                      "clipSpeedAttribute" : false,
                      "default-HAlign" : "center",
                      "default-VAlign" : "center",
                      "default-text-attributes" : "[{\"name\":\"strikethrough\",\"rangeEnd\":1,\"rangeStart\":0,\"value\":0,\"valueType\":\"int\"},{\"name\":\"underline\",\"rangeEnd\":1,\"rangeStart\":0,\"value\":0,\"valueType\":\"int\"},{\"name\":\"fgColor\",\"rangeEnd\":1,\"rangeStart\":0,\"value\":\"(255,45,50,255)\",\"valueType\":\"color\"},{\"name\":\"fontWeight\",\"rangeEnd\":1,\"rangeStart\":0,\"value\":400,\"valueType\":\"int\"},{\"name\":\"fontName\",\"rangeEnd\":1,\"rangeStart\":0,\"value\":\"UVN Bach Tuyet Nang\",\"valueType\":\"string\"},{\"name\":\"fontSize\",\"rangeEnd\":1,\"rangeStart\":0,\"value\":55,\"valueType\":\"double\"},{\"name\":\"fontItalic\",\"rangeEnd\":1,\"rangeStart\":0,\"value\":0,\"valueType\":\"int\"}]",
                      "default-translation0" : 0.0,
                      "default-translation1" : 0.0
                    },
                    "animationTracks" : {

                    }
                  },
                  {
                    "id" : 249,
                    "_type" : "Callout",
                    "def" : {
                      "kind" : "remix",
                      "shape" : "text",
                      "style" : "basic",
                      "height" : 251.138248847708,
                      "width" : 180.857142857186,
                      "word-wrap" : 1.0,
                      "horizontal-alignment" : "center",
                      "text" : "6",
                      "vertical-alignment" : "center",
                      "font" : {
                        "color-blue" : 1.0,
                        "color-green" : 1.0,
                        "color-red" : 1.0,
                        "size" : 96.0,
                        "tracking" : 0.0,
                        "name" : "Montserrat",
                        "weight" : "Regular"
                      },
                      "textAttributes" : {
                        "type" : "textAttributeList",
                        "keyframes" : [
                          {
                            "time" : 0,
                            "value" : [{"name":"fgColor","rangeEnd":1,"rangeStart":0,"value":"(255,45,50,255)","valueType":"color"},{"name":"strikethrough","rangeEnd":1,"rangeStart":0,"value":0,"valueType":"int"},{"name":"fontSize","rangeEnd":1,"rangeStart":0,"value":56,"valueType":"double"},{"name":"fontName","rangeEnd":1,"rangeStart":0,"value":"UVN Chim Bien","valueType":"string"},{"name":"fontWeight","rangeEnd":1,"rangeStart":0,"value":400,"valueType":"int"},{"name":"fontItalic","rangeEnd":1,"rangeStart":0,"value":0,"valueType":"int"},{"name":"underline","rangeEnd":1,"rangeStart":0,"value":0,"valueType":"int"}],
                            "duration" : 0
                          }
                        ]
                      }
                    },
                    "attributes" : {
                      "autoRotateText" : true
                    },
                    "parameters" : {
                      "translation0" : 261.946808510914,
                      "translation1" : -471.860182370844
                    },
                    "effects" : [

                    ],
                    "start" : 2565,
                    "duration" : 347,
                    "mediaStart" : 66,
                    "mediaDuration" : 347,
                    "scalar" : 1,
                    "metadata" : {
                      "WinSubProjectDisplayName" : "",
                      "clipSpeedAttribute" : false,
                      "default-HAlign" : "center",
                      "default-VAlign" : "center",
                      "default-text-attributes" : "[{\"name\":\"strikethrough\",\"rangeEnd\":1,\"rangeStart\":0,\"value\":0,\"valueType\":\"int\"},{\"name\":\"underline\",\"rangeEnd\":1,\"rangeStart\":0,\"value\":0,\"valueType\":\"int\"},{\"name\":\"fgColor\",\"rangeEnd\":1,\"rangeStart\":0,\"value\":\"(255,45,50,255)\",\"valueType\":\"color\"},{\"name\":\"fontWeight\",\"rangeEnd\":1,\"rangeStart\":0,\"value\":400,\"valueType\":\"int\"},{\"name\":\"fontName\",\"rangeEnd\":1,\"rangeStart\":0,\"value\":\"UVN Bach Tuyet Nang\",\"valueType\":\"string\"},{\"name\":\"fontSize\",\"rangeEnd\":1,\"rangeStart\":0,\"value\":55,\"valueType\":\"double\"},{\"name\":\"fontItalic\",\"rangeEnd\":1,\"rangeStart\":0,\"value\":0,\"valueType\":\"int\"}]",
                      "default-translation0" : 0.0,
                      "default-translation1" : 0.0
                    },
                    "animationTracks" : {

                    }
                  },
                  {
                    "id" : 250,
                    "_type" : "Callout",
                    "def" : {
                      "kind" : "remix",
                      "shape" : "text",
                      "style" : "basic",
                      "height" : 251.138248847708,
                      "width" : 180.857142857186,
                      "word-wrap" : 1.0,
                      "horizontal-alignment" : "center",
                      "text" : "6",
                      "vertical-alignment" : "center",
                      "font" : {
                        "color-blue" : 1.0,
                        "color-green" : 1.0,
                        "color-red" : 1.0,
                        "size" : 96.0,
                        "tracking" : 0.0,
                        "name" : "Montserrat",
                        "weight" : "Regular"
                      },
                      "textAttributes" : {
                        "type" : "textAttributeList",
                        "keyframes" : [
                          {
                            "time" : 0,
                            "value" : [{"name":"underline","rangeEnd":1,"rangeStart":0,"value":0,"valueType":"int"},{"name":"fontName","rangeEnd":1,"rangeStart":0,"value":"UVN Chim Bien","valueType":"string"},{"name":"fontItalic","rangeEnd":1,"rangeStart":0,"value":0,"valueType":"int"},{"name":"strikethrough","rangeEnd":1,"rangeStart":0,"value":0,"valueType":"int"},{"name":"fontSize","rangeEnd":1,"rangeStart":0,"value":56,"valueType":"double"},{"name":"fgColor","rangeEnd":1,"rangeStart":0,"value":"(255,45,50,255)","valueType":"color"},{"name":"fontWeight","rangeEnd":1,"rangeStart":0,"value":400,"valueType":"int"}],
                            "duration" : 0
                          }
                        ]
                      }
                    },
                    "attributes" : {
                      "autoRotateText" : true
                    },
                    "parameters" : {
                      "translation0" : 259.64589665806,
                      "translation1" : -468.273558340532
                    },
                    "effects" : [

                    ],
                    "start" : 2912,
                    "duration" : 345,
                    "mediaStart" : 57,
                    "mediaDuration" : 345,
                    "scalar" : 1,
                    "metadata" : {
                      "WinSubProjectDisplayName" : "",
                      "clipSpeedAttribute" : false,
                      "default-HAlign" : "center",
                      "default-VAlign" : "center",
                      "default-text-attributes" : "[{\"name\":\"strikethrough\",\"rangeEnd\":1,\"rangeStart\":0,\"value\":0,\"valueType\":\"int\"},{\"name\":\"underline\",\"rangeEnd\":1,\"rangeStart\":0,\"value\":0,\"valueType\":\"int\"},{\"name\":\"fgColor\",\"rangeEnd\":1,\"rangeStart\":0,\"value\":\"(255,45,50,255)\",\"valueType\":\"color\"},{\"name\":\"fontWeight\",\"rangeEnd\":1,\"rangeStart\":0,\"value\":400,\"valueType\":\"int\"},{\"name\":\"fontName\",\"rangeEnd\":1,\"rangeStart\":0,\"value\":\"UVN Bach Tuyet Nang\",\"valueType\":\"string\"},{\"name\":\"fontSize\",\"rangeEnd\":1,\"rangeStart\":0,\"value\":55,\"valueType\":\"double\"},{\"name\":\"fontItalic\",\"rangeEnd\":1,\"rangeStart\":0,\"value\":0,\"valueType\":\"int\"}]",
                      "default-translation0" : 0.0,
                      "default-translation1" : 0.0
                    },
                    "animationTracks" : {

                    }
                  },
                  {
                    "id" : 251,
                    "_type" : "Callout",
                    "def" : {
                      "kind" : "remix",
                      "shape" : "text",
                      "style" : "basic",
                      "height" : 251.138248847708,
                      "width" : 180.857142857186,
                      "word-wrap" : 1.0,
                      "horizontal-alignment" : "center",
                      "text" : "7",
                      "vertical-alignment" : "center",
                      "font" : {
                        "color-blue" : 1.0,
                        "color-green" : 1.0,
                        "color-red" : 1.0,
                        "size" : 96.0,
                        "tracking" : 0.0,
                        "name" : "Montserrat",
                        "weight" : "Regular"
                      },
                      "textAttributes" : {
                        "type" : "textAttributeList",
                        "keyframes" : [
                          {
                            "time" : 0,
                            "value" : [{"name":"fontWeight","rangeEnd":1,"rangeStart":0,"value":400,"valueType":"int"},{"name":"fontSize","rangeEnd":1,"rangeStart":0,"value":56,"valueType":"double"},{"name":"fgColor","rangeEnd":1,"rangeStart":0,"value":"(255,45,50,255)","valueType":"color"},{"name":"fontName","rangeEnd":1,"rangeStart":0,"value":"UVN Chim Bien","valueType":"string"},{"name":"strikethrough","rangeEnd":1,"rangeStart":0,"value":0,"valueType":"int"},{"name":"underline","rangeEnd":1,"rangeStart":0,"value":0,"valueType":"int"},{"name":"fontItalic","rangeEnd":1,"rangeStart":0,"value":0,"valueType":"int"}],
                            "duration" : 0
                          }
                        ]
                      }
                    },
                    "attributes" : {
                      "autoRotateText" : true
                    },
                    "parameters" : {
                      "translation0" : 261.946808510914,
                      "translation1" : -471.860182370844
                    },
                    "effects" : [

                    ],
                    "start" : 3257,
                    "duration" : 338,
                    "mediaStart" : 26,
                    "mediaDuration" : 338,
                    "scalar" : 1,
                    "metadata" : {
                      "WinSubProjectDisplayName" : "",
                      "clipSpeedAttribute" : false,
                      "default-HAlign" : "center",
                      "default-VAlign" : "center",
                      "default-text-attributes" : "[{\"name\":\"strikethrough\",\"rangeEnd\":1,\"rangeStart\":0,\"value\":0,\"valueType\":\"int\"},{\"name\":\"underline\",\"rangeEnd\":1,\"rangeStart\":0,\"value\":0,\"valueType\":\"int\"},{\"name\":\"fgColor\",\"rangeEnd\":1,\"rangeStart\":0,\"value\":\"(255,45,50,255)\",\"valueType\":\"color\"},{\"name\":\"fontWeight\",\"rangeEnd\":1,\"rangeStart\":0,\"value\":400,\"valueType\":\"int\"},{\"name\":\"fontName\",\"rangeEnd\":1,\"rangeStart\":0,\"value\":\"UVN Bach Tuyet Nang\",\"valueType\":\"string\"},{\"name\":\"fontSize\",\"rangeEnd\":1,\"rangeStart\":0,\"value\":55,\"valueType\":\"double\"},{\"name\":\"fontItalic\",\"rangeEnd\":1,\"rangeStart\":0,\"value\":0,\"valueType\":\"int\"}]",
                      "default-translation0" : 0.0,
                      "default-translation1" : 0.0
                    },
                    "animationTracks" : {

                    }
                  },
                  {
                    "id" : 252,
                    "_type" : "Callout",
                    "def" : {
                      "kind" : "remix",
                      "shape" : "text",
                      "style" : "basic",
                      "height" : 251.138248847708,
                      "width" : 180.857142857186,
                      "word-wrap" : 1.0,
                      "horizontal-alignment" : "center",
                      "text" : "8",
                      "vertical-alignment" : "center",
                      "font" : {
                        "color-blue" : 1.0,
                        "color-green" : 1.0,
                        "color-red" : 1.0,
                        "size" : 96.0,
                        "tracking" : 0.0,
                        "name" : "Montserrat",
                        "weight" : "Regular"
                      },
                      "textAttributes" : {
                        "type" : "textAttributeList",
                        "keyframes" : [
                          {
                            "time" : 0,
                            "value" : [{"name":"strikethrough","rangeEnd":1,"rangeStart":0,"value":0,"valueType":"int"},{"name":"fontSize","rangeEnd":1,"rangeStart":0,"value":56,"valueType":"double"},{"name":"fgColor","rangeEnd":1,"rangeStart":0,"value":"(255,45,50,255)","valueType":"color"},{"name":"fontName","rangeEnd":1,"rangeStart":0,"value":"UVN Chim Bien","valueType":"string"},{"name":"fontWeight","rangeEnd":1,"rangeStart":0,"value":400,"valueType":"int"},{"name":"underline","rangeEnd":1,"rangeStart":0,"value":0,"valueType":"int"},{"name":"fontItalic","rangeEnd":1,"rangeStart":0,"value":0,"valueType":"int"}],
                            "duration" : 0
                          }
                        ]
                      }
                    },
                    "attributes" : {
                      "autoRotateText" : true
                    },
                    "parameters" : {
                      "translation0" : 261.946808510914,
                      "translation1" : -471.860182370844
                    },
                    "effects" : [

                    ],
                    "start" : 3595,
                    "duration" : 331,
                    "mediaStart" : 15,
                    "mediaDuration" : 331,
                    "scalar" : 1,
                    "metadata" : {
                      "WinSubProjectDisplayName" : "",
                      "clipSpeedAttribute" : false,
                      "default-HAlign" : "center",
                      "default-VAlign" : "center",
                      "default-text-attributes" : "[{\"name\":\"strikethrough\",\"rangeEnd\":1,\"rangeStart\":0,\"value\":0,\"valueType\":\"int\"},{\"name\":\"underline\",\"rangeEnd\":1,\"rangeStart\":0,\"value\":0,\"valueType\":\"int\"},{\"name\":\"fgColor\",\"rangeEnd\":1,\"rangeStart\":0,\"value\":\"(255,45,50,255)\",\"valueType\":\"color\"},{\"name\":\"fontWeight\",\"rangeEnd\":1,\"rangeStart\":0,\"value\":400,\"valueType\":\"int\"},{\"name\":\"fontName\",\"rangeEnd\":1,\"rangeStart\":0,\"value\":\"UVN Bach Tuyet Nang\",\"valueType\":\"string\"},{\"name\":\"fontSize\",\"rangeEnd\":1,\"rangeStart\":0,\"value\":55,\"valueType\":\"double\"},{\"name\":\"fontItalic\",\"rangeEnd\":1,\"rangeStart\":0,\"value\":0,\"valueType\":\"int\"}]",
                      "default-translation0" : 0.0,
                      "default-translation1" : 0.0
                    },
                    "animationTracks" : {

                    }
                  },
                  {
                    "id" : 253,
                    "_type" : "Callout",
                    "def" : {
                      "kind" : "remix",
                      "shape" : "text",
                      "style" : "basic",
                      "height" : 251.138248847708,
                      "width" : 180.857142857186,
                      "word-wrap" : 1.0,
                      "horizontal-alignment" : "center",
                      "text" : "9",
                      "vertical-alignment" : "center",
                      "font" : {
                        "color-blue" : 1.0,
                        "color-green" : 1.0,
                        "color-red" : 1.0,
                        "size" : 96.0,
                        "tracking" : 0.0,
                        "name" : "Montserrat",
                        "weight" : "Regular"
                      },
                      "textAttributes" : {
                        "type" : "textAttributeList",
                        "keyframes" : [
                          {
                            "time" : 0,
                            "value" : [{"name":"underline","rangeEnd":1,"rangeStart":0,"value":0,"valueType":"int"},{"name":"fontItalic","rangeEnd":1,"rangeStart":0,"value":0,"valueType":"int"},{"name":"fontWeight","rangeEnd":1,"rangeStart":0,"value":400,"valueType":"int"},{"name":"fgColor","rangeEnd":1,"rangeStart":0,"value":"(255,45,50,255)","valueType":"color"},{"name":"fontName","rangeEnd":1,"rangeStart":0,"value":"UVN Chim Bien","valueType":"string"},{"name":"strikethrough","rangeEnd":1,"rangeStart":0,"value":0,"valueType":"int"},{"name":"fontSize","rangeEnd":1,"rangeStart":0,"value":56,"valueType":"double"}],
                            "duration" : 0
                          }
                        ]
                      }
                    },
                    "attributes" : {
                      "autoRotateText" : true
                    },
                    "parameters" : {
                      "translation0" : 261.946808510914,
                      "translation1" : -471.860182370844
                    },
                    "effects" : [

                    ],
                    "start" : 3926,
                    "duration" : 323,
                    "mediaStart" : 30,
                    "mediaDuration" : 323,
                    "scalar" : 1,
                    "metadata" : {
                      "WinSubProjectDisplayName" : "",
                      "clipSpeedAttribute" : false,
                      "default-HAlign" : "center",
                      "default-VAlign" : "center",
                      "default-text-attributes" : "[{\"name\":\"strikethrough\",\"rangeEnd\":1,\"rangeStart\":0,\"value\":0,\"valueType\":\"int\"},{\"name\":\"underline\",\"rangeEnd\":1,\"rangeStart\":0,\"value\":0,\"valueType\":\"int\"},{\"name\":\"fgColor\",\"rangeEnd\":1,\"rangeStart\":0,\"value\":\"(255,45,50,255)\",\"valueType\":\"color\"},{\"name\":\"fontWeight\",\"rangeEnd\":1,\"rangeStart\":0,\"value\":400,\"valueType\":\"int\"},{\"name\":\"fontName\",\"rangeEnd\":1,\"rangeStart\":0,\"value\":\"UVN Bach Tuyet Nang\",\"valueType\":\"string\"},{\"name\":\"fontSize\",\"rangeEnd\":1,\"rangeStart\":0,\"value\":55,\"valueType\":\"double\"},{\"name\":\"fontItalic\",\"rangeEnd\":1,\"rangeStart\":0,\"value\":0,\"valueType\":\"int\"}]",
                      "default-translation0" : 0.0,
                      "default-translation1" : 0.0
                    },
                    "animationTracks" : {

                    }
                  },
                  {
                    "id" : 254,
                    "_type" : "Callout",
                    "def" : {
                      "kind" : "remix",
                      "shape" : "text",
                      "style" : "basic",
                      "height" : 251.138248847708,
                      "width" : 180.857142857186,
                      "word-wrap" : 1.0,
                      "horizontal-alignment" : "center",
                      "text" : "10",
                      "vertical-alignment" : "center",
                      "font" : {
                        "color-blue" : 1.0,
                        "color-green" : 1.0,
                        "color-red" : 1.0,
                        "size" : 96.0,
                        "tracking" : 0.0,
                        "name" : "Montserrat",
                        "weight" : "Regular"
                      },
                      "textAttributes" : {
                        "type" : "textAttributeList",
                        "keyframes" : [
                          {
                            "time" : 0,
                            "value" : [{"name":"fontWeight","rangeEnd":2,"rangeStart":0,"value":400,"valueType":"int"},{"name":"underline","rangeEnd":2,"rangeStart":0,"value":0,"valueType":"int"},{"name":"fontItalic","rangeEnd":2,"rangeStart":0,"value":0,"valueType":"int"},{"name":"fontName","rangeEnd":2,"rangeStart":0,"value":"UVN Chim Bien","valueType":"string"},{"name":"strikethrough","rangeEnd":2,"rangeStart":0,"value":0,"valueType":"int"},{"name":"fontSize","rangeEnd":2,"rangeStart":0,"value":56,"valueType":"double"},{"name":"fgColor","rangeEnd":2,"rangeStart":0,"value":"(255,45,50,255)","valueType":"color"}],
                            "duration" : 0
                          }
                        ]
                      }
                    },
                    "attributes" : {
                      "autoRotateText" : true
                    },
                    "parameters" : {
                      "translation0" : 261.946808510914,
                      "translation1" : -471.860182370844
                    },
                    "effects" : [

                    ],
                    "start" : 4249,
                    "duration" : 266,
                    "mediaStart" : 9,
                    "mediaDuration" : 266,
                    "scalar" : 1,
                    "metadata" : {
                      "WinSubProjectDisplayName" : "",
                      "clipSpeedAttribute" : false,
                      "default-HAlign" : "center",
                      "default-VAlign" : "center",
                      "default-text-attributes" : "[{\"name\":\"strikethrough\",\"rangeEnd\":1,\"rangeStart\":0,\"value\":0,\"valueType\":\"int\"},{\"name\":\"underline\",\"rangeEnd\":1,\"rangeStart\":0,\"value\":0,\"valueType\":\"int\"},{\"name\":\"fgColor\",\"rangeEnd\":1,\"rangeStart\":0,\"value\":\"(255,45,50,255)\",\"valueType\":\"color\"},{\"name\":\"fontWeight\",\"rangeEnd\":1,\"rangeStart\":0,\"value\":400,\"valueType\":\"int\"},{\"name\":\"fontName\",\"rangeEnd\":1,\"rangeStart\":0,\"value\":\"UVN Bach Tuyet Nang\",\"valueType\":\"string\"},{\"name\":\"fontSize\",\"rangeEnd\":1,\"rangeStart\":0,\"value\":55,\"valueType\":\"double\"},{\"name\":\"fontItalic\",\"rangeEnd\":1,\"rangeStart\":0,\"value\":0,\"valueType\":\"int\"}]",
                      "default-translation0" : 0.0,
                      "default-translation1" : 0.0
                    },
                    "animationTracks" : {

                    }
                  },
                  {
                    "id" : 255,
                    "_type" : "Callout",
                    "def" : {
                      "kind" : "remix",
                      "shape" : "text",
                      "style" : "basic",
                      "height" : 251.138248847708,
                      "width" : 180.857142857186,
                      "word-wrap" : 1.0,
                      "horizontal-alignment" : "center",
                      "text" : "11",
                      "vertical-alignment" : "center",
                      "font" : {
                        "color-blue" : 1.0,
                        "color-green" : 1.0,
                        "color-red" : 1.0,
                        "size" : 96.0,
                        "tracking" : 0.0,
                        "name" : "Montserrat",
                        "weight" : "Regular"
                      },
                      "textAttributes" : {
                        "type" : "textAttributeList",
                        "keyframes" : [
                          {
                            "time" : 0,
                            "value" : [{"name":"strikethrough","rangeEnd":2,"rangeStart":0,"value":0,"valueType":"int"},{"name":"underline","rangeEnd":2,"rangeStart":0,"value":0,"valueType":"int"},{"name":"fontItalic","rangeEnd":2,"rangeStart":0,"value":0,"valueType":"int"},{"name":"fontWeight","rangeEnd":2,"rangeStart":0,"value":400,"valueType":"int"},{"name":"fontName","rangeEnd":2,"rangeStart":0,"value":"UVN Chim Bien","valueType":"string"},{"name":"fgColor","rangeEnd":2,"rangeStart":0,"value":"(255,45,50,255)","valueType":"color"},{"name":"fontSize","rangeEnd":2,"rangeStart":0,"value":56,"valueType":"double"}],
                            "duration" : 0
                          }
                        ]
                      }
                    },
                    "attributes" : {
                      "autoRotateText" : true
                    },
                    "parameters" : {
                      "translation0" : 261.946808510914,
                      "translation1" : -471.860182370844
                    },
                    "effects" : [

                    ],
                    "start" : 4515,
                    "duration" : 333,
                    "mediaStart" : -5,
                    "mediaDuration" : 333,
                    "scalar" : 1,
                    "metadata" : {
                      "WinSubProjectDisplayName" : "",
                      "clipSpeedAttribute" : false,
                      "default-HAlign" : "center",
                      "default-VAlign" : "center",
                      "default-text-attributes" : "[{\"name\":\"strikethrough\",\"rangeEnd\":1,\"rangeStart\":0,\"value\":0,\"valueType\":\"int\"},{\"name\":\"underline\",\"rangeEnd\":1,\"rangeStart\":0,\"value\":0,\"valueType\":\"int\"},{\"name\":\"fgColor\",\"rangeEnd\":1,\"rangeStart\":0,\"value\":\"(255,45,50,255)\",\"valueType\":\"color\"},{\"name\":\"fontWeight\",\"rangeEnd\":1,\"rangeStart\":0,\"value\":400,\"valueType\":\"int\"},{\"name\":\"fontName\",\"rangeEnd\":1,\"rangeStart\":0,\"value\":\"UVN Bach Tuyet Nang\",\"valueType\":\"string\"},{\"name\":\"fontSize\",\"rangeEnd\":1,\"rangeStart\":0,\"value\":55,\"valueType\":\"double\"},{\"name\":\"fontItalic\",\"rangeEnd\":1,\"rangeStart\":0,\"value\":0,\"valueType\":\"int\"}]",
                      "default-translation0" : 0.0,
                      "default-translation1" : 0.0
                    },
                    "animationTracks" : {

                    }
                  },
                  {
                    "id" : 256,
                    "_type" : "Callout",
                    "def" : {
                      "kind" : "remix",
                      "shape" : "text",
                      "style" : "basic",
                      "height" : 251.138248847708,
                      "width" : 180.857142857186,
                      "word-wrap" : 1.0,
                      "horizontal-alignment" : "center",
                      "text" : "12",
                      "vertical-alignment" : "center",
                      "font" : {
                        "color-blue" : 1.0,
                        "color-green" : 1.0,
                        "color-red" : 1.0,
                        "size" : 96.0,
                        "tracking" : 0.0,
                        "name" : "Montserrat",
                        "weight" : "Regular"
                      },
                      "textAttributes" : {
                        "type" : "textAttributeList",
                        "keyframes" : [
                          {
                            "time" : 0,
                            "value" : [{"name":"fgColor","rangeEnd":2,"rangeStart":0,"value":"(255,45,50,255)","valueType":"color"},{"name":"fontSize","rangeEnd":2,"rangeStart":0,"value":56,"valueType":"double"},{"name":"strikethrough","rangeEnd":2,"rangeStart":0,"value":0,"valueType":"int"},{"name":"fontName","rangeEnd":2,"rangeStart":0,"value":"UVN Chim Bien","valueType":"string"},{"name":"fontItalic","rangeEnd":2,"rangeStart":0,"value":0,"valueType":"int"},{"name":"fontWeight","rangeEnd":2,"rangeStart":0,"value":400,"valueType":"int"},{"name":"underline","rangeEnd":2,"rangeStart":0,"value":0,"valueType":"int"}],
                            "duration" : 0
                          }
                        ]
                      }
                    },
                    "attributes" : {
                      "autoRotateText" : true
                    },
                    "parameters" : {
                      "translation0" : 261.946808510914,
                      "translation1" : -471.860182370844
                    },
                    "effects" : [

                    ],
                    "start" : 4848,
                    "duration" : 352,
                    "mediaStart" : -5,
                    "mediaDuration" : 352,
                    "scalar" : 1,
                    "metadata" : {
                      "WinSubProjectDisplayName" : "",
                      "clipSpeedAttribute" : false,
                      "default-HAlign" : "center",
                      "default-VAlign" : "center",
                      "default-text-attributes" : "[{\"name\":\"strikethrough\",\"rangeEnd\":1,\"rangeStart\":0,\"value\":0,\"valueType\":\"int\"},{\"name\":\"underline\",\"rangeEnd\":1,\"rangeStart\":0,\"value\":0,\"valueType\":\"int\"},{\"name\":\"fgColor\",\"rangeEnd\":1,\"rangeStart\":0,\"value\":\"(255,45,50,255)\",\"valueType\":\"color\"},{\"name\":\"fontWeight\",\"rangeEnd\":1,\"rangeStart\":0,\"value\":400,\"valueType\":\"int\"},{\"name\":\"fontName\",\"rangeEnd\":1,\"rangeStart\":0,\"value\":\"UVN Bach Tuyet Nang\",\"valueType\":\"string\"},{\"name\":\"fontSize\",\"rangeEnd\":1,\"rangeStart\":0,\"value\":55,\"valueType\":\"double\"},{\"name\":\"fontItalic\",\"rangeEnd\":1,\"rangeStart\":0,\"value\":0,\"valueType\":\"int\"}]",
                      "default-translation0" : 0.0,
                      "default-translation1" : 0.0
                    },
                    "animationTracks" : {

                    }
                  },
                  {
                    "id" : 257,
                    "_type" : "Callout",
                    "def" : {
                      "kind" : "remix",
                      "shape" : "text",
                      "style" : "basic",
                      "height" : 251.138248847708,
                      "width" : 180.857142857186,
                      "word-wrap" : 1.0,
                      "horizontal-alignment" : "center",
                      "text" : "13",
                      "vertical-alignment" : "center",
                      "font" : {
                        "color-blue" : 1.0,
                        "color-green" : 1.0,
                        "color-red" : 1.0,
                        "size" : 96.0,
                        "tracking" : 0.0,
                        "name" : "Montserrat",
                        "weight" : "Regular"
                      },
                      "textAttributes" : {
                        "type" : "textAttributeList",
                        "keyframes" : [
                          {
                            "time" : 0,
                            "value" : [{"name":"underline","rangeEnd":2,"rangeStart":0,"value":0,"valueType":"int"},{"name":"fgColor","rangeEnd":2,"rangeStart":0,"value":"(255,45,50,255)","valueType":"color"},{"name":"fontItalic","rangeEnd":2,"rangeStart":0,"value":0,"valueType":"int"},{"name":"fontWeight","rangeEnd":2,"rangeStart":0,"value":400,"valueType":"int"},{"name":"fontSize","rangeEnd":2,"rangeStart":0,"value":56,"valueType":"double"},{"name":"fontName","rangeEnd":2,"rangeStart":0,"value":"UVN Chim Bien","valueType":"string"},{"name":"strikethrough","rangeEnd":2,"rangeStart":0,"value":0,"valueType":"int"}],
                            "duration" : 0
                          }
                        ]
                      }
                    },
                    "attributes" : {
                      "autoRotateText" : true
                    },
                    "parameters" : {
                      "translation0" : 261.946808510914,
                      "translation1" : -471.860182370844
                    },
                    "effects" : [

                    ],
                    "start" : 5200,
                    "duration" : 308,
                    "mediaStart" : -5,
                    "mediaDuration" : 308,
                    "scalar" : 1,
                    "metadata" : {
                      "WinSubProjectDisplayName" : "",
                      "clipSpeedAttribute" : false,
                      "default-HAlign" : "center",
                      "default-VAlign" : "center",
                      "default-text-attributes" : "[{\"name\":\"strikethrough\",\"rangeEnd\":1,\"rangeStart\":0,\"value\":0,\"valueType\":\"int\"},{\"name\":\"underline\",\"rangeEnd\":1,\"rangeStart\":0,\"value\":0,\"valueType\":\"int\"},{\"name\":\"fgColor\",\"rangeEnd\":1,\"rangeStart\":0,\"value\":\"(255,45,50,255)\",\"valueType\":\"color\"},{\"name\":\"fontWeight\",\"rangeEnd\":1,\"rangeStart\":0,\"value\":400,\"valueType\":\"int\"},{\"name\":\"fontName\",\"rangeEnd\":1,\"rangeStart\":0,\"value\":\"UVN Bach Tuyet Nang\",\"valueType\":\"string\"},{\"name\":\"fontSize\",\"rangeEnd\":1,\"rangeStart\":0,\"value\":55,\"valueType\":\"double\"},{\"name\":\"fontItalic\",\"rangeEnd\":1,\"rangeStart\":0,\"value\":0,\"valueType\":\"int\"}]",
                      "default-translation0" : 0.0,
                      "default-translation1" : 0.0
                    },
                    "animationTracks" : {

                    }
                  },
                  {
                    "id" : 258,
                    "_type" : "Callout",
                    "def" : {
                      "kind" : "remix",
                      "shape" : "text",
                      "style" : "basic",
                      "height" : 251.138248847708,
                      "width" : 180.857142857186,
                      "word-wrap" : 1.0,
                      "horizontal-alignment" : "center",
                      "text" : "14",
                      "vertical-alignment" : "center",
                      "font" : {
                        "color-blue" : 1.0,
                        "color-green" : 1.0,
                        "color-red" : 1.0,
                        "size" : 96.0,
                        "tracking" : 0.0,
                        "name" : "Montserrat",
                        "weight" : "Regular"
                      },
                      "textAttributes" : {
                        "type" : "textAttributeList",
                        "keyframes" : [
                          {
                            "time" : 0,
                            "value" : [{"name":"fontItalic","rangeEnd":2,"rangeStart":0,"value":0,"valueType":"int"},{"name":"fontName","rangeEnd":2,"rangeStart":0,"value":"UVN Chim Bien","valueType":"string"},{"name":"strikethrough","rangeEnd":2,"rangeStart":0,"value":0,"valueType":"int"},{"name":"fgColor","rangeEnd":2,"rangeStart":0,"value":"(255,45,50,255)","valueType":"color"},{"name":"fontSize","rangeEnd":2,"rangeStart":0,"value":56,"valueType":"double"},{"name":"fontWeight","rangeEnd":2,"rangeStart":0,"value":400,"valueType":"int"},{"name":"underline","rangeEnd":2,"rangeStart":0,"value":0,"valueType":"int"}],
                            "duration" : 0
                          }
                        ]
                      }
                    },
                    "attributes" : {
                      "autoRotateText" : true
                    },
                    "parameters" : {
                      "translation0" : 261.946808510914,
                      "translation1" : -469.003039513692
                    },
                    "effects" : [

                    ],
                    "start" : 5508,
                    "duration" : 315,
                    "mediaStart" : 0,
                    "mediaDuration" : 315,
                    "scalar" : 1,
                    "metadata" : {
                      "WinSubProjectDisplayName" : "",
                      "clipSpeedAttribute" : false,
                      "default-HAlign" : "center",
                      "default-VAlign" : "center",
                      "default-text-attributes" : "[{\"name\":\"strikethrough\",\"rangeEnd\":1,\"rangeStart\":0,\"value\":0,\"valueType\":\"int\"},{\"name\":\"underline\",\"rangeEnd\":1,\"rangeStart\":0,\"value\":0,\"valueType\":\"int\"},{\"name\":\"fgColor\",\"rangeEnd\":1,\"rangeStart\":0,\"value\":\"(255,45,50,255)\",\"valueType\":\"color\"},{\"name\":\"fontWeight\",\"rangeEnd\":1,\"rangeStart\":0,\"value\":400,\"valueType\":\"int\"},{\"name\":\"fontName\",\"rangeEnd\":1,\"rangeStart\":0,\"value\":\"UVN Bach Tuyet Nang\",\"valueType\":\"string\"},{\"name\":\"fontSize\",\"rangeEnd\":1,\"rangeStart\":0,\"value\":55,\"valueType\":\"double\"},{\"name\":\"fontItalic\",\"rangeEnd\":1,\"rangeStart\":0,\"value\":0,\"valueType\":\"int\"}]",
                      "default-translation0" : 0.0,
                      "default-translation1" : 0.0
                    },
                    "animationTracks" : {

                    }
                  },
                  {
                    "id" : 259,
                    "_type" : "Callout",
                    "def" : {
                      "kind" : "remix",
                      "shape" : "text",
                      "style" : "basic",
                      "height" : 251.138248847708,
                      "width" : 180.857142857186,
                      "word-wrap" : 1.0,
                      "horizontal-alignment" : "center",
                      "text" : "15",
                      "vertical-alignment" : "center",
                      "font" : {
                        "color-blue" : 1.0,
                        "color-green" : 1.0,
                        "color-red" : 1.0,
                        "size" : 96.0,
                        "tracking" : 0.0,
                        "name" : "Montserrat",
                        "weight" : "Regular"
                      },
                      "textAttributes" : {
                        "type" : "textAttributeList",
                        "keyframes" : [
                          {
                            "time" : 0,
                            "value" : [{"name":"underline","rangeEnd":2,"rangeStart":0,"value":0,"valueType":"int"},{"name":"fontSize","rangeEnd":2,"rangeStart":0,"value":56,"valueType":"double"},{"name":"fontItalic","rangeEnd":2,"rangeStart":0,"value":0,"valueType":"int"},{"name":"fontWeight","rangeEnd":2,"rangeStart":0,"value":400,"valueType":"int"},{"name":"fgColor","rangeEnd":2,"rangeStart":0,"value":"(255,45,50,255)","valueType":"color"},{"name":"fontName","rangeEnd":2,"rangeStart":0,"value":"UVN Chim Bien","valueType":"string"},{"name":"strikethrough","rangeEnd":2,"rangeStart":0,"value":0,"valueType":"int"}],
                            "duration" : 0
                          }
                        ]
                      }
                    },
                    "attributes" : {
                      "autoRotateText" : true
                    },
                    "parameters" : {
                      "translation0" : 261.946808510914,
                      "translation1" : -471.860182370844
                    },
                    "effects" : [

                    ],
                    "start" : 5823,
                    "duration" : 347,
                    "mediaStart" : 0,
                    "mediaDuration" : 347,
                    "scalar" : 1,
                    "metadata" : {
                      "WinSubProjectDisplayName" : "",
                      "clipSpeedAttribute" : false,
                      "default-HAlign" : "center",
                      "default-VAlign" : "center",
                      "default-text-attributes" : "[{\"name\":\"strikethrough\",\"rangeEnd\":1,\"rangeStart\":0,\"value\":0,\"valueType\":\"int\"},{\"name\":\"underline\",\"rangeEnd\":1,\"rangeStart\":0,\"value\":0,\"valueType\":\"int\"},{\"name\":\"fgColor\",\"rangeEnd\":1,\"rangeStart\":0,\"value\":\"(255,45,50,255)\",\"valueType\":\"color\"},{\"name\":\"fontWeight\",\"rangeEnd\":1,\"rangeStart\":0,\"value\":400,\"valueType\":\"int\"},{\"name\":\"fontName\",\"rangeEnd\":1,\"rangeStart\":0,\"value\":\"UVN Bach Tuyet Nang\",\"valueType\":\"string\"},{\"name\":\"fontSize\",\"rangeEnd\":1,\"rangeStart\":0,\"value\":55,\"valueType\":\"double\"},{\"name\":\"fontItalic\",\"rangeEnd\":1,\"rangeStart\":0,\"value\":0,\"valueType\":\"int\"}]",
                      "default-translation0" : 0.0,
                      "default-translation1" : 0.0
                    },
                    "animationTracks" : {

                    }
                  },
                  {
                    "id" : 260,
                    "_type" : "Callout",
                    "def" : {
                      "kind" : "remix",
                      "shape" : "text",
                      "style" : "basic",
                      "height" : 251.138248847708,
                      "width" : 180.857142857186,
                      "word-wrap" : 1.0,
                      "horizontal-alignment" : "center",
                      "text" : "16",
                      "vertical-alignment" : "center",
                      "font" : {
                        "color-blue" : 1.0,
                        "color-green" : 1.0,
                        "color-red" : 1.0,
                        "size" : 96.0,
                        "tracking" : 0.0,
                        "name" : "Montserrat",
                        "weight" : "Regular"
                      },
                      "textAttributes" : {
                        "type" : "textAttributeList",
                        "keyframes" : [
                          {
                            "time" : 0,
                            "value" : [{"name":"fontWeight","rangeEnd":2,"rangeStart":0,"value":400,"valueType":"int"},{"name":"fontName","rangeEnd":2,"rangeStart":0,"value":"UVN Chim Bien","valueType":"string"},{"name":"fgColor","rangeEnd":2,"rangeStart":0,"value":"(255,45,50,255)","valueType":"color"},{"name":"underline","rangeEnd":2,"rangeStart":0,"value":0,"valueType":"int"},{"name":"fontSize","rangeEnd":2,"rangeStart":0,"value":56,"valueType":"double"},{"name":"fontItalic","rangeEnd":2,"rangeStart":0,"value":0,"valueType":"int"},{"name":"strikethrough","rangeEnd":2,"rangeStart":0,"value":0,"valueType":"int"}],
                            "duration" : 0
                          }
                        ]
                      }
                    },
                    "attributes" : {
                      "autoRotateText" : true
                    },
                    "parameters" : {
                      "translation0" : 261.946808510914,
                      "translation1" : -471.860182370844
                    },
                    "effects" : [

                    ],
                    "start" : 6170,
                    "duration" : 292,
                    "mediaStart" : 0,
                    "mediaDuration" : 292,
                    "scalar" : 1,
                    "metadata" : {
                      "WinSubProjectDisplayName" : "",
                      "clipSpeedAttribute" : false,
                      "default-HAlign" : "center",
                      "default-VAlign" : "center",
                      "default-text-attributes" : "[{\"name\":\"strikethrough\",\"rangeEnd\":1,\"rangeStart\":0,\"value\":0,\"valueType\":\"int\"},{\"name\":\"underline\",\"rangeEnd\":1,\"rangeStart\":0,\"value\":0,\"valueType\":\"int\"},{\"name\":\"fgColor\",\"rangeEnd\":1,\"rangeStart\":0,\"value\":\"(255,45,50,255)\",\"valueType\":\"color\"},{\"name\":\"fontWeight\",\"rangeEnd\":1,\"rangeStart\":0,\"value\":400,\"valueType\":\"int\"},{\"name\":\"fontName\",\"rangeEnd\":1,\"rangeStart\":0,\"value\":\"UVN Bach Tuyet Nang\",\"valueType\":\"string\"},{\"name\":\"fontSize\",\"rangeEnd\":1,\"rangeStart\":0,\"value\":55,\"valueType\":\"double\"},{\"name\":\"fontItalic\",\"rangeEnd\":1,\"rangeStart\":0,\"value\":0,\"valueType\":\"int\"}]",
                      "default-translation0" : 0.0,
                      "default-translation1" : 0.0
                    },
                    "animationTracks" : {

                    }
                  },
                  {
                    "id" : 261,
                    "_type" : "Callout",
                    "def" : {
                      "kind" : "remix",
                      "shape" : "text",
                      "style" : "basic",
                      "height" : 251.138248847708,
                      "width" : 180.857142857186,
                      "word-wrap" : 1.0,
                      "horizontal-alignment" : "center",
                      "text" : "17",
                      "vertical-alignment" : "center",
                      "font" : {
                        "color-blue" : 1.0,
                        "color-green" : 1.0,
                        "color-red" : 1.0,
                        "size" : 96.0,
                        "tracking" : 0.0,
                        "name" : "Montserrat",
                        "weight" : "Regular"
                      },
                      "textAttributes" : {
                        "type" : "textAttributeList",
                        "keyframes" : [
                          {
                            "time" : 0,
                            "value" : [{"name":"underline","rangeEnd":2,"rangeStart":0,"value":0,"valueType":"int"},{"name":"fgColor","rangeEnd":2,"rangeStart":0,"value":"(255,45,50,255)","valueType":"color"},{"name":"strikethrough","rangeEnd":2,"rangeStart":0,"value":0,"valueType":"int"},{"name":"fontSize","rangeEnd":2,"rangeStart":0,"value":56,"valueType":"double"},{"name":"fontItalic","rangeEnd":2,"rangeStart":0,"value":0,"valueType":"int"},{"name":"fontName","rangeEnd":2,"rangeStart":0,"value":"UVN Chim Bien","valueType":"string"},{"name":"fontWeight","rangeEnd":2,"rangeStart":0,"value":400,"valueType":"int"}],
                            "duration" : 0
                          }
                        ]
                      }
                    },
                    "attributes" : {
                      "autoRotateText" : true
                    },
                    "parameters" : {
                      "translation0" : 261.946808510914,
                      "translation1" : -471.860182370844
                    },
                    "effects" : [

                    ],
                    "start" : 6462,
                    "duration" : 290,
                    "mediaStart" : 0,
                    "mediaDuration" : 290,
                    "scalar" : 1,
                    "metadata" : {
                      "WinSubProjectDisplayName" : "",
                      "clipSpeedAttribute" : false,
                      "default-HAlign" : "center",
                      "default-VAlign" : "center",
                      "default-text-attributes" : "[{\"name\":\"strikethrough\",\"rangeEnd\":1,\"rangeStart\":0,\"value\":0,\"valueType\":\"int\"},{\"name\":\"underline\",\"rangeEnd\":1,\"rangeStart\":0,\"value\":0,\"valueType\":\"int\"},{\"name\":\"fgColor\",\"rangeEnd\":1,\"rangeStart\":0,\"value\":\"(255,45,50,255)\",\"valueType\":\"color\"},{\"name\":\"fontWeight\",\"rangeEnd\":1,\"rangeStart\":0,\"value\":400,\"valueType\":\"int\"},{\"name\":\"fontName\",\"rangeEnd\":1,\"rangeStart\":0,\"value\":\"UVN Bach Tuyet Nang\",\"valueType\":\"string\"},{\"name\":\"fontSize\",\"rangeEnd\":1,\"rangeStart\":0,\"value\":55,\"valueType\":\"double\"},{\"name\":\"fontItalic\",\"rangeEnd\":1,\"rangeStart\":0,\"value\":0,\"valueType\":\"int\"}]",
                      "default-translation0" : 0.0,
                      "default-translation1" : 0.0
                    },
                    "animationTracks" : {

                    }
                  },
                  {
                    "id" : 262,
                    "_type" : "Callout",
                    "def" : {
                      "kind" : "remix",
                      "shape" : "text",
                      "style" : "basic",
                      "height" : 251.138248847708,
                      "width" : 180.857142857186,
                      "word-wrap" : 1.0,
                      "horizontal-alignment" : "center",
                      "text" : "18",
                      "vertical-alignment" : "center",
                      "font" : {
                        "color-blue" : 1.0,
                        "color-green" : 1.0,
                        "color-red" : 1.0,
                        "size" : 96.0,
                        "tracking" : 0.0,
                        "name" : "Montserrat",
                        "weight" : "Regular"
                      },
                      "textAttributes" : {
                        "type" : "textAttributeList",
                        "keyframes" : [
                          {
                            "time" : 0,
                            "value" : [{"name":"fontWeight","rangeEnd":2,"rangeStart":0,"value":400,"valueType":"int"},{"name":"strikethrough","rangeEnd":2,"rangeStart":0,"value":0,"valueType":"int"},{"name":"fgColor","rangeEnd":2,"rangeStart":0,"value":"(255,45,50,255)","valueType":"color"},{"name":"fontSize","rangeEnd":2,"rangeStart":0,"value":56,"valueType":"double"},{"name":"fontItalic","rangeEnd":2,"rangeStart":0,"value":0,"valueType":"int"},{"name":"fontName","rangeEnd":2,"rangeStart":0,"value":"UVN Chim Bien","valueType":"string"},{"name":"underline","rangeEnd":2,"rangeStart":0,"value":0,"valueType":"int"}],
                            "duration" : 0
                          }
                        ]
                      }
                    },
                    "attributes" : {
                      "autoRotateText" : true
                    },
                    "parameters" : {
                      "translation0" : 261.946808510914,
                      "translation1" : -471.860182370844
                    },
                    "effects" : [

                    ],
                    "start" : 6754,
                    "duration" : 329,
                    "mediaStart" : 0,
                    "mediaDuration" : 329,
                    "scalar" : 1,
                    "metadata" : {
                      "WinSubProjectDisplayName" : "",
                      "clipSpeedAttribute" : false,
                      "default-HAlign" : "center",
                      "default-VAlign" : "center",
                      "default-text-attributes" : "[{\"name\":\"strikethrough\",\"rangeEnd\":1,\"rangeStart\":0,\"value\":0,\"valueType\":\"int\"},{\"name\":\"underline\",\"rangeEnd\":1,\"rangeStart\":0,\"value\":0,\"valueType\":\"int\"},{\"name\":\"fgColor\",\"rangeEnd\":1,\"rangeStart\":0,\"value\":\"(255,45,50,255)\",\"valueType\":\"color\"},{\"name\":\"fontWeight\",\"rangeEnd\":1,\"rangeStart\":0,\"value\":400,\"valueType\":\"int\"},{\"name\":\"fontName\",\"rangeEnd\":1,\"rangeStart\":0,\"value\":\"UVN Bach Tuyet Nang\",\"valueType\":\"string\"},{\"name\":\"fontSize\",\"rangeEnd\":1,\"rangeStart\":0,\"value\":55,\"valueType\":\"double\"},{\"name\":\"fontItalic\",\"rangeEnd\":1,\"rangeStart\":0,\"value\":0,\"valueType\":\"int\"}]",
                      "default-translation0" : 0.0,
                      "default-translation1" : 0.0
                    },
                    "animationTracks" : {

                    }
                  },
                  {
                    "id" : 263,
                    "_type" : "Callout",
                    "def" : {
                      "kind" : "remix",
                      "shape" : "text",
                      "style" : "basic",
                      "height" : 251.138248847708,
                      "width" : 180.857142857186,
                      "word-wrap" : 1.0,
                      "horizontal-alignment" : "center",
                      "text" : "19",
                      "vertical-alignment" : "center",
                      "font" : {
                        "color-blue" : 1.0,
                        "color-green" : 1.0,
                        "color-red" : 1.0,
                        "size" : 96.0,
                        "tracking" : 0.0,
                        "name" : "Montserrat",
                        "weight" : "Regular"
                      },
                      "textAttributes" : {
                        "type" : "textAttributeList",
                        "keyframes" : [
                          {
                            "time" : 0,
                            "value" : [{"name":"fontName","rangeEnd":2,"rangeStart":0,"value":"UVN Chim Bien","valueType":"string"},{"name":"strikethrough","rangeEnd":2,"rangeStart":0,"value":0,"valueType":"int"},{"name":"underline","rangeEnd":2,"rangeStart":0,"value":0,"valueType":"int"},{"name":"fontWeight","rangeEnd":2,"rangeStart":0,"value":400,"valueType":"int"},{"name":"fgColor","rangeEnd":2,"rangeStart":0,"value":"(255,45,50,255)","valueType":"color"},{"name":"fontItalic","rangeEnd":2,"rangeStart":0,"value":0,"valueType":"int"},{"name":"fontSize","rangeEnd":2,"rangeStart":0,"value":56,"valueType":"double"}],
                            "duration" : 0
                          }
                        ]
                      }
                    },
                    "attributes" : {
                      "autoRotateText" : true
                    },
                    "parameters" : {
                      "translation0" : 261.946808510914,
                      "translation1" : -471.860182370844
                    },
                    "effects" : [

                    ],
                    "start" : 7083,
                    "duration" : 279,
                    "mediaStart" : 0,
                    "mediaDuration" : 279,
                    "scalar" : 1,
                    "metadata" : {
                      "WinSubProjectDisplayName" : "",
                      "clipSpeedAttribute" : false,
                      "default-HAlign" : "center",
                      "default-VAlign" : "center",
                      "default-text-attributes" : "[{\"name\":\"strikethrough\",\"rangeEnd\":1,\"rangeStart\":0,\"value\":0,\"valueType\":\"int\"},{\"name\":\"underline\",\"rangeEnd\":1,\"rangeStart\":0,\"value\":0,\"valueType\":\"int\"},{\"name\":\"fgColor\",\"rangeEnd\":1,\"rangeStart\":0,\"value\":\"(255,45,50,255)\",\"valueType\":\"color\"},{\"name\":\"fontWeight\",\"rangeEnd\":1,\"rangeStart\":0,\"value\":400,\"valueType\":\"int\"},{\"name\":\"fontName\",\"rangeEnd\":1,\"rangeStart\":0,\"value\":\"UVN Bach Tuyet Nang\",\"valueType\":\"string\"},{\"name\":\"fontSize\",\"rangeEnd\":1,\"rangeStart\":0,\"value\":55,\"valueType\":\"double\"},{\"name\":\"fontItalic\",\"rangeEnd\":1,\"rangeStart\":0,\"value\":0,\"valueType\":\"int\"}]",
                      "default-translation0" : 0.0,
                      "default-translation1" : 0.0
                    },
                    "animationTracks" : {

                    }
                  },
                  {
                    "id" : 264,
                    "_type" : "Callout",
                    "def" : {
                      "kind" : "remix",
                      "shape" : "text",
                      "style" : "basic",
                      "height" : 251.138248847708,
                      "width" : 180.857142857186,
                      "word-wrap" : 1.0,
                      "horizontal-alignment" : "center",
                      "text" : "19",
                      "vertical-alignment" : "center",
                      "font" : {
                        "color-blue" : 1.0,
                        "color-green" : 1.0,
                        "color-red" : 1.0,
                        "size" : 96.0,
                        "tracking" : 0.0,
                        "name" : "Montserrat",
                        "weight" : "Regular"
                      },
                      "textAttributes" : {
                        "type" : "textAttributeList",
                        "keyframes" : [
                          {
                            "time" : 0,
                            "value" : [{"name":"fgColor","rangeEnd":2,"rangeStart":0,"value":"(255,45,50,255)","valueType":"color"},{"name":"strikethrough","rangeEnd":2,"rangeStart":0,"value":0,"valueType":"int"},{"name":"fontWeight","rangeEnd":2,"rangeStart":0,"value":400,"valueType":"int"},{"name":"fontName","rangeEnd":2,"rangeStart":0,"value":"UVN Chim Bien","valueType":"string"},{"name":"fontSize","rangeEnd":2,"rangeStart":0,"value":56,"valueType":"double"},{"name":"underline","rangeEnd":2,"rangeStart":0,"value":0,"valueType":"int"},{"name":"fontItalic","rangeEnd":2,"rangeStart":0,"value":0,"valueType":"int"}],
                            "duration" : 0
                          }
                        ]
                      }
                    },
                    "attributes" : {
                      "autoRotateText" : true
                    },
                    "parameters" : {
                      "translation0" : 261.946808510914,
                      "translation1" : -471.860182370844
                    },
                    "effects" : [

                    ],
                    "start" : 7362,
                    "duration" : 316,
                    "mediaStart" : 0,
                    "mediaDuration" : 316,
                    "scalar" : 1,
                    "metadata" : {
                      "WinSubProjectDisplayName" : "",
                      "clipSpeedAttribute" : false,
                      "default-HAlign" : "center",
                      "default-VAlign" : "center",
                      "default-text-attributes" : "[{\"name\":\"strikethrough\",\"rangeEnd\":1,\"rangeStart\":0,\"value\":0,\"valueType\":\"int\"},{\"name\":\"underline\",\"rangeEnd\":1,\"rangeStart\":0,\"value\":0,\"valueType\":\"int\"},{\"name\":\"fgColor\",\"rangeEnd\":1,\"rangeStart\":0,\"value\":\"(255,45,50,255)\",\"valueType\":\"color\"},{\"name\":\"fontWeight\",\"rangeEnd\":1,\"rangeStart\":0,\"value\":400,\"valueType\":\"int\"},{\"name\":\"fontName\",\"rangeEnd\":1,\"rangeStart\":0,\"value\":\"UVN Bach Tuyet Nang\",\"valueType\":\"string\"},{\"name\":\"fontSize\",\"rangeEnd\":1,\"rangeStart\":0,\"value\":55,\"valueType\":\"double\"},{\"name\":\"fontItalic\",\"rangeEnd\":1,\"rangeStart\":0,\"value\":0,\"valueType\":\"int\"}]",
                      "default-translation0" : 0.0,
                      "default-translation1" : 0.0
                    },
                    "animationTracks" : {

                    }
                  },
                  {
                    "id" : 265,
                    "_type" : "Callout",
                    "def" : {
                      "kind" : "remix",
                      "shape" : "text",
                      "style" : "basic",
                      "height" : 251.138248847708,
                      "width" : 180.857142857186,
                      "word-wrap" : 1.0,
                      "horizontal-alignment" : "center",
                      "text" : "20",
                      "vertical-alignment" : "center",
                      "font" : {
                        "color-blue" : 1.0,
                        "color-green" : 1.0,
                        "color-red" : 1.0,
                        "size" : 96.0,
                        "tracking" : 0.0,
                        "name" : "Montserrat",
                        "weight" : "Regular"
                      },
                      "textAttributes" : {
                        "type" : "textAttributeList",
                        "keyframes" : [
                          {
                            "time" : 0,
                            "value" : [{"name":"fontWeight","rangeEnd":2,"rangeStart":0,"value":400,"valueType":"int"},{"name":"fontName","rangeEnd":2,"rangeStart":0,"value":"UVN Chim Bien","valueType":"string"},{"name":"fontSize","rangeEnd":2,"rangeStart":0,"value":56,"valueType":"double"},{"name":"strikethrough","rangeEnd":2,"rangeStart":0,"value":0,"valueType":"int"},{"name":"fgColor","rangeEnd":2,"rangeStart":0,"value":"(255,45,50,255)","valueType":"color"},{"name":"underline","rangeEnd":2,"rangeStart":0,"value":0,"valueType":"int"},{"name":"fontItalic","rangeEnd":2,"rangeStart":0,"value":0,"valueType":"int"}],
                            "duration" : 0
                          }
                        ]
                      }
                    },
                    "attributes" : {
                      "autoRotateText" : true
                    },
                    "parameters" : {
                      "translation0" : 259.089665653762,
                      "translation1" : -471.860182370844
                    },
                    "effects" : [

                    ],
                    "start" : 7678,
                    "duration" : 304,
                    "mediaStart" : 0,
                    "mediaDuration" : 304,
                    "scalar" : 1,
                    "metadata" : {
                      "WinSubProjectDisplayName" : "",
                      "clipSpeedAttribute" : false,
                      "default-HAlign" : "center",
                      "default-VAlign" : "center",
                      "default-text-attributes" : "[{\"name\":\"strikethrough\",\"rangeEnd\":1,\"rangeStart\":0,\"value\":0,\"valueType\":\"int\"},{\"name\":\"underline\",\"rangeEnd\":1,\"rangeStart\":0,\"value\":0,\"valueType\":\"int\"},{\"name\":\"fgColor\",\"rangeEnd\":1,\"rangeStart\":0,\"value\":\"(255,45,50,255)\",\"valueType\":\"color\"},{\"name\":\"fontWeight\",\"rangeEnd\":1,\"rangeStart\":0,\"value\":400,\"valueType\":\"int\"},{\"name\":\"fontName\",\"rangeEnd\":1,\"rangeStart\":0,\"value\":\"UVN Bach Tuyet Nang\",\"valueType\":\"string\"},{\"name\":\"fontSize\",\"rangeEnd\":1,\"rangeStart\":0,\"value\":55,\"valueType\":\"double\"},{\"name\":\"fontItalic\",\"rangeEnd\":1,\"rangeStart\":0,\"value\":0,\"valueType\":\"int\"}]",
                      "default-translation0" : 0.0,
                      "default-translation1" : 0.0
                    },
                    "animationTracks" : {

                    }
                  },
                  {
                    "id" : 266,
                    "_type" : "Callout",
                    "def" : {
                      "kind" : "remix",
                      "shape" : "text",
                      "style" : "basic",
                      "height" : 251.138248847708,
                      "width" : 180.857142857186,
                      "word-wrap" : 1.0,
                      "horizontal-alignment" : "center",
                      "text" : "21",
                      "vertical-alignment" : "center",
                      "font" : {
                        "color-blue" : 1.0,
                        "color-green" : 1.0,
                        "color-red" : 1.0,
                        "size" : 96.0,
                        "tracking" : 0.0,
                        "name" : "Montserrat",
                        "weight" : "Regular"
                      },
                      "textAttributes" : {
                        "type" : "textAttributeList",
                        "keyframes" : [
                          {
                            "time" : 0,
                            "value" : [{"name":"fontWeight","rangeEnd":2,"rangeStart":0,"value":400,"valueType":"int"},{"name":"strikethrough","rangeEnd":2,"rangeStart":0,"value":0,"valueType":"int"},{"name":"fgColor","rangeEnd":2,"rangeStart":0,"value":"(255,45,50,255)","valueType":"color"},{"name":"fontName","rangeEnd":2,"rangeStart":0,"value":"UVN Chim Bien","valueType":"string"},{"name":"fontItalic","rangeEnd":2,"rangeStart":0,"value":0,"valueType":"int"},{"name":"underline","rangeEnd":2,"rangeStart":0,"value":0,"valueType":"int"},{"name":"fontSize","rangeEnd":2,"rangeStart":0,"value":56,"valueType":"double"}],
                            "duration" : 0
                          }
                        ]
                      }
                    },
                    "attributes" : {
                      "autoRotateText" : true
                    },
                    "parameters" : {
                      "translation0" : 261.946808510914,
                      "translation1" : -471.860182370844
                    },
                    "effects" : [

                    ],
                    "start" : 7982,
                    "duration" : 345,
                    "mediaStart" : 0,
                    "mediaDuration" : 345,
                    "scalar" : 1,
                    "metadata" : {
                      "WinSubProjectDisplayName" : "",
                      "clipSpeedAttribute" : false,
                      "default-HAlign" : "center",
                      "default-VAlign" : "center",
                      "default-text-attributes" : "[{\"name\":\"strikethrough\",\"rangeEnd\":1,\"rangeStart\":0,\"value\":0,\"valueType\":\"int\"},{\"name\":\"underline\",\"rangeEnd\":1,\"rangeStart\":0,\"value\":0,\"valueType\":\"int\"},{\"name\":\"fgColor\",\"rangeEnd\":1,\"rangeStart\":0,\"value\":\"(255,45,50,255)\",\"valueType\":\"color\"},{\"name\":\"fontWeight\",\"rangeEnd\":1,\"rangeStart\":0,\"value\":400,\"valueType\":\"int\"},{\"name\":\"fontName\",\"rangeEnd\":1,\"rangeStart\":0,\"value\":\"UVN Bach Tuyet Nang\",\"valueType\":\"string\"},{\"name\":\"fontSize\",\"rangeEnd\":1,\"rangeStart\":0,\"value\":55,\"valueType\":\"double\"},{\"name\":\"fontItalic\",\"rangeEnd\":1,\"rangeStart\":0,\"value\":0,\"valueType\":\"int\"}]",
                      "default-translation0" : 0.0,
                      "default-translation1" : 0.0
                    },
                    "animationTracks" : {

                    }
                  },
                  {
                    "id" : 267,
                    "_type" : "Callout",
                    "def" : {
                      "kind" : "remix",
                      "shape" : "text",
                      "style" : "basic",
                      "height" : 251.138248847708,
                      "width" : 180.857142857186,
                      "word-wrap" : 1.0,
                      "horizontal-alignment" : "center",
                      "text" : "22",
                      "vertical-alignment" : "center",
                      "font" : {
                        "color-blue" : 1.0,
                        "color-green" : 1.0,
                        "color-red" : 1.0,
                        "size" : 96.0,
                        "tracking" : 0.0,
                        "name" : "Montserrat",
                        "weight" : "Regular"
                      },
                      "textAttributes" : {
                        "type" : "textAttributeList",
                        "keyframes" : [
                          {
                            "time" : 0,
                            "value" : [{"name":"fontSize","rangeEnd":2,"rangeStart":0,"value":56,"valueType":"double"},{"name":"fontItalic","rangeEnd":2,"rangeStart":0,"value":0,"valueType":"int"},{"name":"underline","rangeEnd":2,"rangeStart":0,"value":0,"valueType":"int"},{"name":"strikethrough","rangeEnd":2,"rangeStart":0,"value":0,"valueType":"int"},{"name":"fgColor","rangeEnd":2,"rangeStart":0,"value":"(255,45,50,255)","valueType":"color"},{"name":"fontName","rangeEnd":2,"rangeStart":0,"value":"UVN Chim Bien","valueType":"string"},{"name":"fontWeight","rangeEnd":2,"rangeStart":0,"value":400,"valueType":"int"}],
                            "duration" : 0
                          }
                        ]
                      }
                    },
                    "attributes" : {
                      "autoRotateText" : true
                    },
                    "parameters" : {
                      "translation0" : 261.946808510914,
                      "translation1" : -471.860182370844
                    },
                    "effects" : [

                    ],
                    "start" : 8327,
                    "duration" : 360,
                    "mediaStart" : 17,
                    "mediaDuration" : 360,
                    "scalar" : 1,
                    "metadata" : {
                      "WinSubProjectDisplayName" : "",
                      "clipSpeedAttribute" : false,
                      "default-HAlign" : "center",
                      "default-VAlign" : "center",
                      "default-text-attributes" : "[{\"name\":\"strikethrough\",\"rangeEnd\":1,\"rangeStart\":0,\"value\":0,\"valueType\":\"int\"},{\"name\":\"underline\",\"rangeEnd\":1,\"rangeStart\":0,\"value\":0,\"valueType\":\"int\"},{\"name\":\"fgColor\",\"rangeEnd\":1,\"rangeStart\":0,\"value\":\"(255,45,50,255)\",\"valueType\":\"color\"},{\"name\":\"fontWeight\",\"rangeEnd\":1,\"rangeStart\":0,\"value\":400,\"valueType\":\"int\"},{\"name\":\"fontName\",\"rangeEnd\":1,\"rangeStart\":0,\"value\":\"UVN Bach Tuyet Nang\",\"valueType\":\"string\"},{\"name\":\"fontSize\",\"rangeEnd\":1,\"rangeStart\":0,\"value\":55,\"valueType\":\"double\"},{\"name\":\"fontItalic\",\"rangeEnd\":1,\"rangeStart\":0,\"value\":0,\"valueType\":\"int\"}]",
                      "default-translation0" : 0.0,
                      "default-translation1" : 0.0
                    },
                    "animationTracks" : {

                    }
                  },
                  {
                    "id" : 268,
                    "_type" : "Callout",
                    "def" : {
                      "kind" : "remix",
                      "shape" : "text",
                      "style" : "basic",
                      "height" : 251.138248847708,
                      "width" : 180.857142857186,
                      "word-wrap" : 1.0,
                      "horizontal-alignment" : "center",
                      "text" : "22",
                      "vertical-alignment" : "center",
                      "font" : {
                        "color-blue" : 1.0,
                        "color-green" : 1.0,
                        "color-red" : 1.0,
                        "size" : 96.0,
                        "tracking" : 0.0,
                        "name" : "Montserrat",
                        "weight" : "Regular"
                      },
                      "textAttributes" : {
                        "type" : "textAttributeList",
                        "keyframes" : [
                          {
                            "time" : 0,
                            "value" : [{"name":"fontName","rangeEnd":2,"rangeStart":0,"value":"UVN Chim Bien","valueType":"string"},{"name":"underline","rangeEnd":2,"rangeStart":0,"value":0,"valueType":"int"},{"name":"fontWeight","rangeEnd":2,"rangeStart":0,"value":400,"valueType":"int"},{"name":"fontItalic","rangeEnd":2,"rangeStart":0,"value":0,"valueType":"int"},{"name":"fgColor","rangeEnd":2,"rangeStart":0,"value":"(255,45,50,255)","valueType":"color"},{"name":"fontSize","rangeEnd":2,"rangeStart":0,"value":56,"valueType":"double"},{"name":"strikethrough","rangeEnd":2,"rangeStart":0,"value":0,"valueType":"int"}],
                            "duration" : 0
                          }
                        ]
                      }
                    },
                    "attributes" : {
                      "autoRotateText" : true
                    },
                    "parameters" : {
                      "translation0" : 261.946808510914,
                      "translation1" : -468.273558340575
                    },
                    "effects" : [

                    ],
                    "start" : 8687,
                    "duration" : 307,
                    "mediaStart" : 0,
                    "mediaDuration" : 307,
                    "scalar" : 1,
                    "metadata" : {
                      "WinSubProjectDisplayName" : "",
                      "clipSpeedAttribute" : false,
                      "default-HAlign" : "center",
                      "default-VAlign" : "center",
                      "default-text-attributes" : "[{\"name\":\"strikethrough\",\"rangeEnd\":1,\"rangeStart\":0,\"value\":0,\"valueType\":\"int\"},{\"name\":\"underline\",\"rangeEnd\":1,\"rangeStart\":0,\"value\":0,\"valueType\":\"int\"},{\"name\":\"fgColor\",\"rangeEnd\":1,\"rangeStart\":0,\"value\":\"(255,45,50,255)\",\"valueType\":\"color\"},{\"name\":\"fontWeight\",\"rangeEnd\":1,\"rangeStart\":0,\"value\":400,\"valueType\":\"int\"},{\"name\":\"fontName\",\"rangeEnd\":1,\"rangeStart\":0,\"value\":\"UVN Bach Tuyet Nang\",\"valueType\":\"string\"},{\"name\":\"fontSize\",\"rangeEnd\":1,\"rangeStart\":0,\"value\":55,\"valueType\":\"double\"},{\"name\":\"fontItalic\",\"rangeEnd\":1,\"rangeStart\":0,\"value\":0,\"valueType\":\"int\"}]",
                      "default-translation0" : 0.0,
                      "default-translation1" : 0.0
                    },
                    "animationTracks" : {

                    }
                  },
                  {
                    "id" : 269,
                    "_type" : "Callout",
                    "def" : {
                      "kind" : "remix",
                      "shape" : "text",
                      "style" : "basic",
                      "height" : 251.138248847708,
                      "width" : 180.857142857186,
                      "word-wrap" : 1.0,
                      "horizontal-alignment" : "center",
                      "text" : "23",
                      "vertical-alignment" : "center",
                      "font" : {
                        "color-blue" : 1.0,
                        "color-green" : 1.0,
                        "color-red" : 1.0,
                        "size" : 96.0,
                        "tracking" : 0.0,
                        "name" : "Montserrat",
                        "weight" : "Regular"
                      },
                      "textAttributes" : {
                        "type" : "textAttributeList",
                        "keyframes" : [
                          {
                            "time" : 0,
                            "value" : [{"name":"fgColor","rangeEnd":2,"rangeStart":0,"value":"(255,45,50,255)","valueType":"color"},{"name":"strikethrough","rangeEnd":2,"rangeStart":0,"value":0,"valueType":"int"},{"name":"fontWeight","rangeEnd":2,"rangeStart":0,"value":400,"valueType":"int"},{"name":"fontItalic","rangeEnd":2,"rangeStart":0,"value":0,"valueType":"int"},{"name":"fontName","rangeEnd":2,"rangeStart":0,"value":"UVN Chim Bien","valueType":"string"},{"name":"fontSize","rangeEnd":2,"rangeStart":0,"value":56,"valueType":"double"},{"name":"underline","rangeEnd":2,"rangeStart":0,"value":0,"valueType":"int"}],
                            "duration" : 0
                          }
                        ]
                      }
                    },
                    "attributes" : {
                      "autoRotateText" : true
                    },
                    "parameters" : {
                      "translation0" : 261.946808510914,
                      "translation1" : -471.860182370844
                    },
                    "effects" : [

                    ],
                    "start" : 8994,
                    "duration" : 332,
                    "mediaStart" : 22,
                    "mediaDuration" : 332,
                    "scalar" : 1,
                    "metadata" : {
                      "WinSubProjectDisplayName" : "",
                      "clipSpeedAttribute" : false,
                      "default-HAlign" : "center",
                      "default-VAlign" : "center",
                      "default-text-attributes" : "[{\"name\":\"strikethrough\",\"rangeEnd\":1,\"rangeStart\":0,\"value\":0,\"valueType\":\"int\"},{\"name\":\"underline\",\"rangeEnd\":1,\"rangeStart\":0,\"value\":0,\"valueType\":\"int\"},{\"name\":\"fgColor\",\"rangeEnd\":1,\"rangeStart\":0,\"value\":\"(255,45,50,255)\",\"valueType\":\"color\"},{\"name\":\"fontWeight\",\"rangeEnd\":1,\"rangeStart\":0,\"value\":400,\"valueType\":\"int\"},{\"name\":\"fontName\",\"rangeEnd\":1,\"rangeStart\":0,\"value\":\"UVN Bach Tuyet Nang\",\"valueType\":\"string\"},{\"name\":\"fontSize\",\"rangeEnd\":1,\"rangeStart\":0,\"value\":55,\"valueType\":\"double\"},{\"name\":\"fontItalic\",\"rangeEnd\":1,\"rangeStart\":0,\"value\":0,\"valueType\":\"int\"}]",
                      "default-translation0" : 0.0,
                      "default-translation1" : 0.0
                    },
                    "animationTracks" : {

                    }
                  },
                  {
                    "id" : 270,
                    "_type" : "Callout",
                    "def" : {
                      "kind" : "remix",
                      "shape" : "text",
                      "style" : "basic",
                      "height" : 251.138248847708,
                      "width" : 180.857142857186,
                      "word-wrap" : 1.0,
                      "horizontal-alignment" : "center",
                      "text" : "23",
                      "vertical-alignment" : "center",
                      "font" : {
                        "color-blue" : 1.0,
                        "color-green" : 1.0,
                        "color-red" : 1.0,
                        "size" : 96.0,
                        "tracking" : 0.0,
                        "name" : "Montserrat",
                        "weight" : "Regular"
                      },
                      "textAttributes" : {
                        "type" : "textAttributeList",
                        "keyframes" : [
                          {
                            "time" : 0,
                            "value" : [{"name":"fontWeight","rangeEnd":2,"rangeStart":0,"value":400,"valueType":"int"},{"name":"underline","rangeEnd":2,"rangeStart":0,"value":0,"valueType":"int"},{"name":"strikethrough","rangeEnd":2,"rangeStart":0,"value":0,"valueType":"int"},{"name":"fontName","rangeEnd":2,"rangeStart":0,"value":"UVN Chim Bien","valueType":"string"},{"name":"fgColor","rangeEnd":2,"rangeStart":0,"value":"(255,45,50,255)","valueType":"color"},{"name":"fontSize","rangeEnd":2,"rangeStart":0,"value":56,"valueType":"double"},{"name":"fontItalic","rangeEnd":2,"rangeStart":0,"value":0,"valueType":"int"}],
                            "duration" : 0
                          }
                        ]
                      }
                    },
                    "attributes" : {
                      "autoRotateText" : true
                    },
                    "parameters" : {
                      "translation0" : 261.946808510914,
                      "translation1" : -471.860182370844
                    },
                    "effects" : [

                    ],
                    "start" : 9326,
                    "duration" : 281,
                    "mediaStart" : 5,
                    "mediaDuration" : 281,
                    "scalar" : 1,
                    "metadata" : {
                      "WinSubProjectDisplayName" : "",
                      "clipSpeedAttribute" : false,
                      "default-HAlign" : "center",
                      "default-VAlign" : "center",
                      "default-text-attributes" : "[{\"name\":\"strikethrough\",\"rangeEnd\":1,\"rangeStart\":0,\"value\":0,\"valueType\":\"int\"},{\"name\":\"underline\",\"rangeEnd\":1,\"rangeStart\":0,\"value\":0,\"valueType\":\"int\"},{\"name\":\"fgColor\",\"rangeEnd\":1,\"rangeStart\":0,\"value\":\"(255,45,50,255)\",\"valueType\":\"color\"},{\"name\":\"fontWeight\",\"rangeEnd\":1,\"rangeStart\":0,\"value\":400,\"valueType\":\"int\"},{\"name\":\"fontName\",\"rangeEnd\":1,\"rangeStart\":0,\"value\":\"UVN Bach Tuyet Nang\",\"valueType\":\"string\"},{\"name\":\"fontSize\",\"rangeEnd\":1,\"rangeStart\":0,\"value\":55,\"valueType\":\"double\"},{\"name\":\"fontItalic\",\"rangeEnd\":1,\"rangeStart\":0,\"value\":0,\"valueType\":\"int\"}]",
                      "default-translation0" : 0.0,
                      "default-translation1" : 0.0
                    },
                    "animationTracks" : {

                    }
                  },
                  {
                    "id" : 271,
                    "_type" : "Callout",
                    "def" : {
                      "kind" : "remix",
                      "shape" : "text",
                      "style" : "basic",
                      "height" : 251.138248847708,
                      "width" : 180.857142857186,
                      "word-wrap" : 1.0,
                      "horizontal-alignment" : "center",
                      "text" : "24",
                      "vertical-alignment" : "center",
                      "font" : {
                        "color-blue" : 1.0,
                        "color-green" : 1.0,
                        "color-red" : 1.0,
                        "size" : 96.0,
                        "tracking" : 0.0,
                        "name" : "Montserrat",
                        "weight" : "Regular"
                      },
                      "textAttributes" : {
                        "type" : "textAttributeList",
                        "keyframes" : [
                          {
                            "time" : 0,
                            "value" : [{"name":"fgColor","rangeEnd":2,"rangeStart":0,"value":"(255,45,50,255)","valueType":"color"},{"name":"fontSize","rangeEnd":2,"rangeStart":0,"value":56,"valueType":"double"},{"name":"fontName","rangeEnd":2,"rangeStart":0,"value":"UVN Chim Bien","valueType":"string"},{"name":"fontItalic","rangeEnd":2,"rangeStart":0,"value":0,"valueType":"int"},{"name":"strikethrough","rangeEnd":2,"rangeStart":0,"value":0,"valueType":"int"},{"name":"underline","rangeEnd":2,"rangeStart":0,"value":0,"valueType":"int"},{"name":"fontWeight","rangeEnd":2,"rangeStart":0,"value":400,"valueType":"int"}],
                            "duration" : 0
                          }
                        ]
                      }
                    },
                    "attributes" : {
                      "autoRotateText" : true
                    },
                    "parameters" : {
                      "translation0" : 261.946808510914,
                      "translation1" : -471.860182370844
                    },
                    "effects" : [

                    ],
                    "start" : 9607,
                    "duration" : 423,
                    "mediaStart" : -17,
                    "mediaDuration" : 423,
                    "scalar" : 1,
                    "metadata" : {
                      "WinSubProjectDisplayName" : "",
                      "clipSpeedAttribute" : false,
                      "default-HAlign" : "center",
                      "default-VAlign" : "center",
                      "default-text-attributes" : "[{\"name\":\"strikethrough\",\"rangeEnd\":1,\"rangeStart\":0,\"value\":0,\"valueType\":\"int\"},{\"name\":\"underline\",\"rangeEnd\":1,\"rangeStart\":0,\"value\":0,\"valueType\":\"int\"},{\"name\":\"fgColor\",\"rangeEnd\":1,\"rangeStart\":0,\"value\":\"(255,45,50,255)\",\"valueType\":\"color\"},{\"name\":\"fontWeight\",\"rangeEnd\":1,\"rangeStart\":0,\"value\":400,\"valueType\":\"int\"},{\"name\":\"fontName\",\"rangeEnd\":1,\"rangeStart\":0,\"value\":\"UVN Bach Tuyet Nang\",\"valueType\":\"string\"},{\"name\":\"fontSize\",\"rangeEnd\":1,\"rangeStart\":0,\"value\":55,\"valueType\":\"double\"},{\"name\":\"fontItalic\",\"rangeEnd\":1,\"rangeStart\":0,\"value\":0,\"valueType\":\"int\"}]",
                      "default-translation0" : 0.0,
                      "default-translation1" : 0.0
                    },
                    "animationTracks" : {

                    }
                  },
                  {
                    "id" : 272,
                    "_type" : "Callout",
                    "def" : {
                      "kind" : "remix",
                      "shape" : "text",
                      "style" : "basic",
                      "height" : 251.138248847708,
                      "width" : 180.857142857186,
                      "word-wrap" : 1.0,
                      "horizontal-alignment" : "center",
                      "text" : "25",
                      "vertical-alignment" : "center",
                      "font" : {
                        "color-blue" : 1.0,
                        "color-green" : 1.0,
                        "color-red" : 1.0,
                        "size" : 96.0,
                        "tracking" : 0.0,
                        "name" : "Montserrat",
                        "weight" : "Regular"
                      },
                      "textAttributes" : {
                        "type" : "textAttributeList",
                        "keyframes" : [
                          {
                            "time" : 0,
                            "value" : [{"name":"fontSize","rangeEnd":2,"rangeStart":0,"value":56,"valueType":"double"},{"name":"fgColor","rangeEnd":2,"rangeStart":0,"value":"(255,45,50,255)","valueType":"color"},{"name":"fontItalic","rangeEnd":2,"rangeStart":0,"value":0,"valueType":"int"},{"name":"fontName","rangeEnd":2,"rangeStart":0,"value":"UVN Chim Bien","valueType":"string"},{"name":"fontWeight","rangeEnd":2,"rangeStart":0,"value":400,"valueType":"int"},{"name":"underline","rangeEnd":2,"rangeStart":0,"value":0,"valueType":"int"},{"name":"strikethrough","rangeEnd":2,"rangeStart":0,"value":0,"valueType":"int"}],
                            "duration" : 0
                          }
                        ]
                      }
                    },
                    "attributes" : {
                      "autoRotateText" : true
                    },
                    "parameters" : {
                      "translation0" : 261.946808510914,
                      "translation1" : -471.860182370844
                    },
                    "effects" : [

                    ],
                    "start" : 10030,
                    "duration" : 305,
                    "mediaStart" : -17,
                    "mediaDuration" : 305,
                    "scalar" : 1,
                    "metadata" : {
                      "WinSubProjectDisplayName" : "",
                      "clipSpeedAttribute" : false,
                      "default-HAlign" : "center",
                      "default-VAlign" : "center",
                      "default-text-attributes" : "[{\"name\":\"strikethrough\",\"rangeEnd\":1,\"rangeStart\":0,\"value\":0,\"valueType\":\"int\"},{\"name\":\"underline\",\"rangeEnd\":1,\"rangeStart\":0,\"value\":0,\"valueType\":\"int\"},{\"name\":\"fgColor\",\"rangeEnd\":1,\"rangeStart\":0,\"value\":\"(255,45,50,255)\",\"valueType\":\"color\"},{\"name\":\"fontWeight\",\"rangeEnd\":1,\"rangeStart\":0,\"value\":400,\"valueType\":\"int\"},{\"name\":\"fontName\",\"rangeEnd\":1,\"rangeStart\":0,\"value\":\"UVN Bach Tuyet Nang\",\"valueType\":\"string\"},{\"name\":\"fontSize\",\"rangeEnd\":1,\"rangeStart\":0,\"value\":55,\"valueType\":\"double\"},{\"name\":\"fontItalic\",\"rangeEnd\":1,\"rangeStart\":0,\"value\":0,\"valueType\":\"int\"}]",
                      "default-translation0" : 0.0,
                      "default-translation1" : 0.0
                    },
                    "animationTracks" : {

                    }
                  },
                  {
                    "id" : 273,
                    "_type" : "Callout",
                    "def" : {
                      "kind" : "remix",
                      "shape" : "text",
                      "style" : "basic",
                      "height" : 251.138248847708,
                      "width" : 180.857142857186,
                      "word-wrap" : 1.0,
                      "horizontal-alignment" : "center",
                      "text" : "26",
                      "vertical-alignment" : "center",
                      "font" : {
                        "color-blue" : 1.0,
                        "color-green" : 1.0,
                        "color-red" : 1.0,
                        "size" : 96.0,
                        "tracking" : 0.0,
                        "name" : "Montserrat",
                        "weight" : "Regular"
                      },
                      "textAttributes" : {
                        "type" : "textAttributeList",
                        "keyframes" : [
                          {
                            "time" : 0,
                            "value" : [{"name":"fgColor","rangeEnd":2,"rangeStart":0,"value":"(255,45,50,255)","valueType":"color"},{"name":"fontSize","rangeEnd":2,"rangeStart":0,"value":56,"valueType":"double"},{"name":"fontWeight","rangeEnd":2,"rangeStart":0,"value":400,"valueType":"int"},{"name":"fontName","rangeEnd":2,"rangeStart":0,"value":"UVN Chim Bien","valueType":"string"},{"name":"fontItalic","rangeEnd":2,"rangeStart":0,"value":0,"valueType":"int"},{"name":"underline","rangeEnd":2,"rangeStart":0,"value":0,"valueType":"int"},{"name":"strikethrough","rangeEnd":2,"rangeStart":0,"value":0,"valueType":"int"}],
                            "duration" : 0
                          }
                        ]
                      }
                    },
                    "attributes" : {
                      "autoRotateText" : true
                    },
                    "parameters" : {
                      "translation0" : 261.946808510914,
                      "translation1" : -469.003039513692
                    },
                    "effects" : [

                    ],
                    "start" : 10335,
                    "duration" : 347,
                    "mediaStart" : 0,
                    "mediaDuration" : 347,
                    "scalar" : 1,
                    "metadata" : {
                      "WinSubProjectDisplayName" : "",
                      "clipSpeedAttribute" : false,
                      "default-HAlign" : "center",
                      "default-VAlign" : "center",
                      "default-text-attributes" : "[{\"name\":\"strikethrough\",\"rangeEnd\":1,\"rangeStart\":0,\"value\":0,\"valueType\":\"int\"},{\"name\":\"underline\",\"rangeEnd\":1,\"rangeStart\":0,\"value\":0,\"valueType\":\"int\"},{\"name\":\"fgColor\",\"rangeEnd\":1,\"rangeStart\":0,\"value\":\"(255,45,50,255)\",\"valueType\":\"color\"},{\"name\":\"fontWeight\",\"rangeEnd\":1,\"rangeStart\":0,\"value\":400,\"valueType\":\"int\"},{\"name\":\"fontName\",\"rangeEnd\":1,\"rangeStart\":0,\"value\":\"UVN Bach Tuyet Nang\",\"valueType\":\"string\"},{\"name\":\"fontSize\",\"rangeEnd\":1,\"rangeStart\":0,\"value\":55,\"valueType\":\"double\"},{\"name\":\"fontItalic\",\"rangeEnd\":1,\"rangeStart\":0,\"value\":0,\"valueType\":\"int\"}]",
                      "default-translation0" : 0.0,
                      "default-translation1" : 0.0
                    },
                    "animationTracks" : {

                    }
                  },
                  {
                    "id" : 274,
                    "_type" : "Callout",
                    "def" : {
                      "kind" : "remix",
                      "shape" : "text",
                      "style" : "basic",
                      "height" : 251.138248847708,
                      "width" : 180.857142857186,
                      "word-wrap" : 1.0,
                      "horizontal-alignment" : "center",
                      "text" : "27",
                      "vertical-alignment" : "center",
                      "font" : {
                        "color-blue" : 1.0,
                        "color-green" : 1.0,
                        "color-red" : 1.0,
                        "size" : 96.0,
                        "tracking" : 0.0,
                        "name" : "Montserrat",
                        "weight" : "Regular"
                      },
                      "textAttributes" : {
                        "type" : "textAttributeList",
                        "keyframes" : [
                          {
                            "time" : 0,
                            "value" : [{"name":"fontWeight","rangeEnd":2,"rangeStart":0,"value":400,"valueType":"int"},{"name":"fontSize","rangeEnd":2,"rangeStart":0,"value":56,"valueType":"double"},{"name":"fgColor","rangeEnd":2,"rangeStart":0,"value":"(255,45,50,255)","valueType":"color"},{"name":"underline","rangeEnd":2,"rangeStart":0,"value":0,"valueType":"int"},{"name":"fontItalic","rangeEnd":2,"rangeStart":0,"value":0,"valueType":"int"},{"name":"strikethrough","rangeEnd":2,"rangeStart":0,"value":0,"valueType":"int"},{"name":"fontName","rangeEnd":2,"rangeStart":0,"value":"UVN Chim Bien","valueType":"string"}],
                            "duration" : 0
                          }
                        ]
                      }
                    },
                    "attributes" : {
                      "autoRotateText" : true
                    },
                    "parameters" : {
                      "translation0" : 261.946808510914,
                      "translation1" : -469.003039513692
                    },
                    "effects" : [

                    ],
                    "start" : 10682,
                    "duration" : 371,
                    "mediaStart" : -17,
                    "mediaDuration" : 371,
                    "scalar" : 1,
                    "metadata" : {
                      "WinSubProjectDisplayName" : "",
                      "clipSpeedAttribute" : false,
                      "default-HAlign" : "center",
                      "default-VAlign" : "center",
                      "default-text-attributes" : "[{\"name\":\"strikethrough\",\"rangeEnd\":1,\"rangeStart\":0,\"value\":0,\"valueType\":\"int\"},{\"name\":\"underline\",\"rangeEnd\":1,\"rangeStart\":0,\"value\":0,\"valueType\":\"int\"},{\"name\":\"fgColor\",\"rangeEnd\":1,\"rangeStart\":0,\"value\":\"(255,45,50,255)\",\"valueType\":\"color\"},{\"name\":\"fontWeight\",\"rangeEnd\":1,\"rangeStart\":0,\"value\":400,\"valueType\":\"int\"},{\"name\":\"fontName\",\"rangeEnd\":1,\"rangeStart\":0,\"value\":\"UVN Bach Tuyet Nang\",\"valueType\":\"string\"},{\"name\":\"fontSize\",\"rangeEnd\":1,\"rangeStart\":0,\"value\":55,\"valueType\":\"double\"},{\"name\":\"fontItalic\",\"rangeEnd\":1,\"rangeStart\":0,\"value\":0,\"valueType\":\"int\"}]",
                      "default-translation0" : 0.0,
                      "default-translation1" : 0.0
                    },
                    "animationTracks" : {

                    }
                  },
                  {
                    "id" : 275,
                    "_type" : "Callout",
                    "def" : {
                      "kind" : "remix",
                      "shape" : "text",
                      "style" : "basic",
                      "height" : 251.138248847708,
                      "width" : 180.857142857186,
                      "word-wrap" : 1.0,
                      "horizontal-alignment" : "center",
                      "text" : "28",
                      "vertical-alignment" : "center",
                      "font" : {
                        "color-blue" : 1.0,
                        "color-green" : 1.0,
                        "color-red" : 1.0,
                        "size" : 96.0,
                        "tracking" : 0.0,
                        "name" : "Montserrat",
                        "weight" : "Regular"
                      },
                      "textAttributes" : {
                        "type" : "textAttributeList",
                        "keyframes" : [
                          {
                            "time" : 0,
                            "value" : [{"name":"fontItalic","rangeEnd":2,"rangeStart":0,"value":0,"valueType":"int"},{"name":"strikethrough","rangeEnd":2,"rangeStart":0,"value":0,"valueType":"int"},{"name":"underline","rangeEnd":2,"rangeStart":0,"value":0,"valueType":"int"},{"name":"fgColor","rangeEnd":2,"rangeStart":0,"value":"(255,45,50,255)","valueType":"color"},{"name":"fontWeight","rangeEnd":2,"rangeStart":0,"value":400,"valueType":"int"},{"name":"fontName","rangeEnd":2,"rangeStart":0,"value":"UVN Chim Bien","valueType":"string"},{"name":"fontSize","rangeEnd":2,"rangeStart":0,"value":56,"valueType":"double"}],
                            "duration" : 0
                          }
                        ]
                      }
                    },
                    "attributes" : {
                      "autoRotateText" : true
                    },
                    "parameters" : {
                      "translation0" : 259.005632040329,
                      "translation1" : -469.003039513692
                    },
                    "effects" : [

                    ],
                    "start" : 11053,
                    "duration" : 314,
                    "mediaStart" : 5,
                    "mediaDuration" : 314,
                    "scalar" : 1,
                    "metadata" : {
                      "WinSubProjectDisplayName" : "",
                      "clipSpeedAttribute" : false,
                      "default-HAlign" : "center",
                      "default-VAlign" : "center",
                      "default-text-attributes" : "[{\"name\":\"strikethrough\",\"rangeEnd\":1,\"rangeStart\":0,\"value\":0,\"valueType\":\"int\"},{\"name\":\"underline\",\"rangeEnd\":1,\"rangeStart\":0,\"value\":0,\"valueType\":\"int\"},{\"name\":\"fgColor\",\"rangeEnd\":1,\"rangeStart\":0,\"value\":\"(255,45,50,255)\",\"valueType\":\"color\"},{\"name\":\"fontWeight\",\"rangeEnd\":1,\"rangeStart\":0,\"value\":400,\"valueType\":\"int\"},{\"name\":\"fontName\",\"rangeEnd\":1,\"rangeStart\":0,\"value\":\"UVN Bach Tuyet Nang\",\"valueType\":\"string\"},{\"name\":\"fontSize\",\"rangeEnd\":1,\"rangeStart\":0,\"value\":55,\"valueType\":\"double\"},{\"name\":\"fontItalic\",\"rangeEnd\":1,\"rangeStart\":0,\"value\":0,\"valueType\":\"int\"}]",
                      "default-translation0" : 0.0,
                      "default-translation1" : 0.0
                    },
                    "animationTracks" : {

                    }
                  },
                  {
                    "id" : 276,
                    "_type" : "Callout",
                    "def" : {
                      "kind" : "remix",
                      "shape" : "text",
                      "style" : "basic",
                      "height" : 251.138248847708,
                      "width" : 180.857142857186,
                      "word-wrap" : 1.0,
                      "horizontal-alignment" : "center",
                      "text" : "28",
                      "vertical-alignment" : "center",
                      "font" : {
                        "color-blue" : 1.0,
                        "color-green" : 1.0,
                        "color-red" : 1.0,
                        "size" : 96.0,
                        "tracking" : 0.0,
                        "name" : "Montserrat",
                        "weight" : "Regular"
                      },
                      "textAttributes" : {
                        "type" : "textAttributeList",
                        "keyframes" : [
                          {
                            "time" : 0,
                            "value" : [{"name":"fontItalic","rangeEnd":2,"rangeStart":0,"value":0,"valueType":"int"},{"name":"fontSize","rangeEnd":2,"rangeStart":0,"value":56,"valueType":"double"},{"name":"fgColor","rangeEnd":2,"rangeStart":0,"value":"(255,45,50,255)","valueType":"color"},{"name":"fontName","rangeEnd":2,"rangeStart":0,"value":"UVN Chim Bien","valueType":"string"},{"name":"strikethrough","rangeEnd":2,"rangeStart":0,"value":0,"valueType":"int"},{"name":"fontWeight","rangeEnd":2,"rangeStart":0,"value":400,"valueType":"int"},{"name":"underline","rangeEnd":2,"rangeStart":0,"value":0,"valueType":"int"}],
                            "duration" : 0
                          }
                        ]
                      }
                    },
                    "attributes" : {
                      "autoRotateText" : true
                    },
                    "parameters" : {
                      "translation0" : 261.946808510914,
                      "translation1" : -469.003039513692
                    },
                    "effects" : [

                    ],
                    "start" : 11367,
                    "duration" : 809,
                    "mediaStart" : 0,
                    "mediaDuration" : 809,
                    "scalar" : 1,
                    "metadata" : {
                      "WinSubProjectDisplayName" : "",
                      "clipSpeedAttribute" : false,
                      "default-HAlign" : "center",
                      "default-VAlign" : "center",
                      "default-text-attributes" : "[{\"name\":\"strikethrough\",\"rangeEnd\":1,\"rangeStart\":0,\"value\":0,\"valueType\":\"int\"},{\"name\":\"underline\",\"rangeEnd\":1,\"rangeStart\":0,\"value\":0,\"valueType\":\"int\"},{\"name\":\"fgColor\",\"rangeEnd\":1,\"rangeStart\":0,\"value\":\"(255,45,50,255)\",\"valueType\":\"color\"},{\"name\":\"fontWeight\",\"rangeEnd\":1,\"rangeStart\":0,\"value\":400,\"valueType\":\"int\"},{\"name\":\"fontName\",\"rangeEnd\":1,\"rangeStart\":0,\"value\":\"UVN Bach Tuyet Nang\",\"valueType\":\"string\"},{\"name\":\"fontSize\",\"rangeEnd\":1,\"rangeStart\":0,\"value\":55,\"valueType\":\"double\"},{\"name\":\"fontItalic\",\"rangeEnd\":1,\"rangeStart\":0,\"value\":0,\"valueType\":\"int\"}]",
                      "default-translation0" : 0.0,
                      "default-translation1" : 0.0
                    },
                    "animationTracks" : {

                    }
                  }
                ]
              },
              {
                "trackIndex" : 16,
                "medias" : [
                ]
              },
              {
                "trackIndex" : 17,
                "medias" : [
                ]
              },
              {
                "trackIndex" : 18,
                "medias" : [
                ]
              }
            ]
          }
        }
      ]
    },
    "trackAttributes" : [
      {
        "ident" : "",
        "audioMuted" : false,
        "videoHidden" : false,
        "metadata" : {
          "IsLocked" : "False",
          "WinTrackHeight" : "56.1025641025641"
        }
      },
      {
        "ident" : "",
        "audioMuted" : false,
        "videoHidden" : false,
        "metadata" : {
          "IsLocked" : "False",
          "WinTrackHeight" : "56.1025641025641"
        }
      },
      {
        "ident" : "",
        "audioMuted" : false,
        "videoHidden" : false,
        "metadata" : {
          "IsLocked" : "False",
          "WinTrackHeight" : "56.1025641025641"
        }
      },
      {
        "ident" : "",
        "audioMuted" : false,
        "videoHidden" : false,
        "metadata" : {
          "IsLocked" : "False",
          "WinTrackHeight" : "56.1025641025641"
        }
      },
      {
        "ident" : "",
        "audioMuted" : false,
        "videoHidden" : false,
        "metadata" : {
          "IsLocked" : "False",
          "WinTrackHeight" : "56.1025641025641"
        }
      },
      {
        "ident" : "",
        "audioMuted" : false,
        "videoHidden" : false,
        "metadata" : {
          "IsLocked" : "False",
          "WinTrackHeight" : "56.1025641025641"
        }
      },
      {
        "ident" : "",
        "audioMuted" : false,
        "videoHidden" : false,
        "metadata" : {
          "IsLocked" : "False",
          "WinTrackHeight" : "56.1025641025641"
        }
      },
      {
        "ident" : "",
        "audioMuted" : false,
        "videoHidden" : false,
        "metadata" : {
          "IsLocked" : "False",
          "WinTrackHeight" : "56.1025641025641"
        }
      },
      {
        "ident" : "",
        "audioMuted" : false,
        "videoHidden" : false,
        "metadata" : {
          "IsLocked" : "False",
          "WinTrackHeight" : "56.1025641025641"
        }
      },
      {
        "ident" : "",
        "audioMuted" : false,
        "videoHidden" : false,
        "metadata" : {
          "IsLocked" : "False",
          "WinTrackHeight" : "56.1025641025641"
        }
      },
      {
        "ident" : "",
        "audioMuted" : false,
        "videoHidden" : false,
        "metadata" : {
          "IsLocked" : "False",
          "WinTrackHeight" : "56.1025641025641"
        }
      },
      {
        "ident" : "",
        "audioMuted" : false,
        "videoHidden" : false,
        "metadata" : {
          "IsLocked" : "False",
          "WinTrackHeight" : "56.1025641025641"
        }
      },
      {
        "ident" : "",
        "audioMuted" : false,
        "videoHidden" : false,
        "metadata" : {
          "IsLocked" : "False",
          "WinTrackHeight" : "56.1025641025641"
        }
      },
      {
        "ident" : "",
        "audioMuted" : false,
        "videoHidden" : false,
        "metadata" : {
          "IsLocked" : "False",
          "WinTrackHeight" : "56.1025641025641"
        }
      },
      {
        "ident" : "",
        "audioMuted" : false,
        "videoHidden" : false,
        "metadata" : {
          "IsLocked" : "False",
          "WinTrackHeight" : "56.1025641025641"
        }
      },
      {
        "ident" : "",
        "audioMuted" : false,
        "videoHidden" : false,
        "metadata" : {
          "IsLocked" : "False",
          "WinTrackHeight" : "56.1025641025641"
        }
      },
      {
        "ident" : "",
        "audioMuted" : false,
        "videoHidden" : false,
        "metadata" : {
          "IsLocked" : "False",
          "WinTrackHeight" : "56.1025641025641"
        }
      },
      {
        "ident" : "",
        "audioMuted" : false,
        "videoHidden" : false,
        "metadata" : {
          "IsLocked" : "False",
          "WinTrackHeight" : "56.1025641025641"
        }
      },
      {
        "ident" : "",
        "audioMuted" : false,
        "videoHidden" : false,
        "metadata" : {
          "IsLocked" : "False",
          "WinTrackHeight" : "56.1025641025641"
        }
      }
    ],
    "parameters" : {
      "toc" : {
        "type" : "string",
        "keyframes" : [
          {
            "time" : 3281,
            "value" : "Marker 1",
            "duration" : 0,
            "metadata" : {
              "Checked" : "True",
              "IndentLevel" : "0",
              "markerIdentifier" : "1E9D55B4-21F4-475D-80BB-205335BAED0F"
            }
          }
        ]
      }
    },
    "captionAttributes" : {
      "enabled" : true,
      "fontName" : "Arial",
      "fontSize" : 64,
      "backgroundColor" : [ 0, 0, 0, 191],
      "foregroundColor" : [ 255, 255, 255, 255],
      "lang" : "en",
      "alignment" : 0,
      "defaultFontSize" : true,
      "opacity" : 0.5,
      "backgroundEnabled" : true,
      "backgroundOnlyAroundText" : true
    },
    "backgroundColor" : [ 255, 255, 255, 255]
  },
  "metadata" : {
    "AutoSaveFile" : "C:\\Users\\HungBa\\AppData\\Local\\TechSmith\\Camtasia Studio\\9.0\\Auto-Saves\\iphone-13-pro-max-11-pro-max1401aec1.autosave.tscproj",
    "CanvasZoom" : 33,
    "Date" : "2016-08-12 03:43:23 PM",
    "Fit" : 1,
    "IsAutoSave" : "0",
    "ProfileName" : "MP4 with Smart Player (up to 1080p)",
    "ProjectDimensionsChanged" : "1",
    "Title" : "Project-redmi-note-7-note7-pro",
    "audioNarrationNotes" : "",
    "calloutStyle" : "Basic",
    "canvasDetached" : "False",
    "canvasPositionHeight" : "600",
    "canvasPositionLeft" : "315",
    "canvasPositionTop" : "55",
    "canvasPositionWidth" : "800"
  }
}
